<svg width="20" height="20" viewBox="0 0 20 20" fill="none" xmlns="http://www.w3.org/2000/svg">
<rect width="20" height="20" rx="10" fill="url(#paint0_linear_4449_6225)"/>
<path fill-rule="evenodd" clip-rule="evenodd" d="M6.45802 12.2176L10.6037 8.07587L11.2612 7.41051L11.336 7.33965C11.3774 7.29832 11.4103 7.24923 11.4327 7.19518C11.4551 7.14114 11.4667 7.0832 11.4667 7.02469C11.4667 6.96617 11.4551 6.90823 11.4327 6.85419C11.4103 6.80014 11.3774 6.75105 11.336 6.70972L9.94229 5.31208C9.90096 5.27066 9.85187 5.23779 9.79782 5.21536C9.74378 5.19294 9.68584 5.1814 9.62732 5.1814C9.56881 5.1814 9.51087 5.19294 9.45682 5.21536C9.40278 5.23779 9.35369 5.27066 9.31236 5.31208L4.43046 10.194C4.38975 10.2456 4.35904 10.3043 4.33991 10.3672L3.64305 12.4617C3.61261 12.5383 3.60386 12.6218 3.61775 12.7031C3.63164 12.7843 3.66763 12.8602 3.72179 12.9223C3.80632 13.0043 3.91902 13.0508 4.03676 13.0523C4.09048 13.0527 4.14384 13.0433 4.19424 13.0247L6.28479 12.3278C6.35075 12.306 6.41026 12.2681 6.45802 12.2176ZM15.8316 9.7806L14.0875 11.5208C14.0462 11.5621 13.9971 11.5949 13.943 11.6173C13.889 11.6397 13.8311 11.6512 13.7726 11.6512C13.7141 11.6512 13.6561 11.6397 13.6021 11.6173C13.5481 11.5949 13.499 11.5621 13.4576 11.5208C13.4162 11.4794 13.3834 11.4303 13.361 11.3763C13.3387 11.3222 13.3271 11.2643 13.3271 11.2058C13.3271 11.1473 13.3387 11.0894 13.361 11.0353C13.3834 10.9813 13.4162 10.9322 13.4576 10.8908L15.2017 9.15068C15.338 9.01175 15.4327 8.83747 15.4751 8.64754C15.5176 8.45761 15.5061 8.25959 15.4419 8.07587L11.2962 12.2176C11.2484 12.2681 11.1889 12.306 11.1229 12.3278L9.03239 13.0247C8.98199 13.0433 8.92864 13.0527 8.87491 13.0523C8.75718 13.0508 8.64447 13.0043 8.55995 12.9223C8.50579 12.8602 8.46979 12.7843 8.4559 12.7031C8.44201 12.6218 8.45077 12.5383 8.48121 12.4617L9.17806 10.3672C9.19719 10.3043 9.2279 10.2456 9.26861 10.194L14.1505 5.31208C14.1918 5.27066 14.2409 5.23779 14.295 5.21536C14.349 5.19294 14.407 5.1814 14.4655 5.1814C14.524 5.1814 14.5819 5.19294 14.636 5.21536C14.69 5.23779 14.7391 5.27066 14.7804 5.31208L16.1741 6.70972C16.2156 6.75105 16.2484 6.80014 16.2709 6.85419C16.2933 6.90823 16.3048 6.96617 16.3048 7.02469C16.3048 7.0832 16.2933 7.14114 16.2709 7.19518C16.2484 7.24923 16.2156 7.29832 16.1741 7.33965L16.0993 7.41051C16.3276 7.77817 16.4253 8.212 16.3767 8.64201C16.3282 9.07202 16.1361 9.47312 15.8316 9.7806ZM16.0632 14.4249C16.0632 14.2075 15.887 14.0312 15.6695 14.0312H4.00503C3.7876 14.0312 3.61133 14.2075 3.61133 14.4249C3.61133 14.6424 3.7876 14.8187 4.00503 14.8187H15.6695C15.887 14.8187 16.0632 14.6424 16.0632 14.4249Z" fill="white"/>
<defs>
<linearGradient id="paint0_linear_4449_6225" x1="23.0004" y1="-4.08249" x2="0.412213" y2="20.5449" gradientUnits="userSpaceOnUse">
<stop stop-color="#D4FF59"/>
<stop offset="0.616018" stop-color="#00AF9A"/>
<stop offset="1" stop-color="#1AB775"/>
</linearGradient>
</defs>
</svg>
