<svg width="32" height="32" viewBox="0 0 32 32" fill="none" xmlns="http://www.w3.org/2000/svg">
	<path fill-rule="evenodd" clip-rule="evenodd" d="M10.3328 19.5482L16.9659 12.9214L18.0178 11.8569L18.1375 11.7435C18.2038 11.6774 18.2564 11.5988 18.2923 11.5123C18.3282 11.4259 18.3466 11.3332 18.3466 11.2395C18.3466 11.1459 18.3282 11.0532 18.2923 10.9667C18.2564 10.8803 18.2038 10.8017 18.1375 10.7356L15.9076 8.49938C15.8415 8.4331 15.7629 8.38051 15.6765 8.34463C15.59 8.30875 15.4973 8.29028 15.4037 8.29028C15.31 8.29028 15.2173 8.30875 15.1309 8.34463C15.0444 8.38051 14.9658 8.4331 14.8997 8.49938L7.08868 16.3104C7.02355 16.393 6.97441 16.487 6.9438 16.5876L5.82884 19.9388C5.78013 20.0614 5.76612 20.195 5.78834 20.325C5.81057 20.455 5.86817 20.5764 5.95482 20.6758C6.09006 20.8069 6.27039 20.8813 6.45876 20.8837C6.54472 20.8843 6.63009 20.8694 6.71073 20.8396L10.0556 19.7246C10.1611 19.6896 10.2564 19.629 10.3328 19.5482ZM25.3305 15.649L22.54 18.4333C22.4738 18.4994 22.3952 18.5519 22.3088 18.5878C22.2223 18.6236 22.1296 18.642 22.036 18.642C21.9425 18.642 21.8498 18.6236 21.7633 18.5878C21.6769 18.5519 21.5983 18.4994 21.5321 18.4333C21.4659 18.3671 21.4134 18.2885 21.3776 18.2021C21.3418 18.1156 21.3234 18.0229 21.3234 17.9293C21.3234 17.8357 21.3418 17.7431 21.3776 17.6566C21.4134 17.5701 21.4659 17.4916 21.5321 17.4254L24.3227 14.6411C24.5407 14.4188 24.6923 14.14 24.7602 13.8361C24.8281 13.5322 24.8096 13.2154 24.7069 12.9214L18.0738 19.5482C17.9974 19.629 17.9022 19.6896 17.7967 19.7246L14.4518 20.8396C14.3711 20.8694 14.2858 20.8843 14.1998 20.8837C14.0114 20.8813 13.8311 20.8069 13.6959 20.6758C13.6092 20.5764 13.5516 20.455 13.5294 20.325C13.5072 20.195 13.5212 20.0614 13.5699 19.9388L14.6848 16.5876C14.7155 16.487 14.7646 16.393 14.8297 16.3104L22.6408 8.49938C22.7069 8.4331 22.7854 8.38051 22.8719 8.34463C22.9584 8.30875 23.0511 8.29028 23.1447 8.29028C23.2383 8.29028 23.331 8.30875 23.4175 8.34463C23.504 8.38051 23.5825 8.4331 23.6487 8.49938L25.8786 10.7356C25.9449 10.8017 25.9974 10.8803 26.0333 10.9667C26.0692 11.0532 26.0877 11.1459 26.0877 11.2395C26.0877 11.3332 26.0692 11.4259 26.0333 11.5123C25.9974 11.5988 25.9449 11.6774 25.8786 11.7435L25.7589 11.8569C26.1241 12.4451 26.2804 13.1393 26.2027 13.8273C26.125 14.5153 25.8177 15.157 25.3305 15.649ZM25.7011 23.08C25.7011 22.7321 25.4191 22.45 25.0712 22.45H6.408C6.0601 22.45 5.77808 22.7321 5.77808 23.08C5.77808 23.4279 6.0601 23.7099 6.408 23.7099H25.0712C25.4191 23.7099 25.7011 23.4279 25.7011 23.08Z" fill="white" />
</svg>
