<svg width="20" height="20" viewBox="0 0 20 20" fill="none" xmlns="http://www.w3.org/2000/svg">
  <path fill-rule="evenodd" clip-rule="evenodd" d="M6.45796 12.2176L10.6036 8.07587L11.2611 7.41051L11.3359 7.33965C11.3774 7.29832 11.4102 7.24923 11.4326 7.19518C11.4551 7.14114 11.4666 7.0832 11.4666 7.02469C11.4666 6.96617 11.4551 6.90823 11.4326 6.85419C11.4102 6.80014 11.3774 6.75105 11.3359 6.70972L9.94222 5.31208C9.9009 5.27066 9.85181 5.23779 9.79776 5.21536C9.74371 5.19294 9.68578 5.1814 9.62726 5.1814C9.56875 5.1814 9.51081 5.19294 9.45676 5.21536C9.40272 5.23779 9.35363 5.27066 9.3123 5.31208L4.4304 10.194C4.38969 10.2456 4.35898 10.3043 4.33985 10.3672L3.64299 12.4617C3.61255 12.5383 3.60379 12.6218 3.61768 12.7031C3.63157 12.7843 3.66757 12.8602 3.72173 12.9223C3.80626 13.0043 3.91896 13.0508 4.0367 13.0523C4.09042 13.0527 4.14378 13.0433 4.19418 13.0247L6.28473 12.3278C6.35068 12.306 6.41019 12.2681 6.45796 12.2176ZM15.8316 9.7806L14.0875 11.5208C14.0461 11.5621 13.997 11.5949 13.943 11.6173C13.8889 11.6397 13.831 11.6512 13.7725 11.6512C13.714 11.6512 13.6561 11.6397 13.602 11.6173C13.548 11.5949 13.4989 11.5621 13.4575 11.5208C13.4162 11.4794 13.3834 11.4303 13.361 11.3763C13.3386 11.3222 13.3271 11.2643 13.3271 11.2058C13.3271 11.1473 13.3386 11.0894 13.361 11.0353C13.3834 10.9813 13.4162 10.9322 13.4575 10.8908L15.2016 9.15068C15.3379 9.01175 15.4326 8.83747 15.4751 8.64754C15.5175 8.45761 15.506 8.25959 15.4418 8.07587L11.2961 12.2176C11.2483 12.2681 11.1888 12.306 11.1229 12.3278L9.03233 13.0247C8.98193 13.0433 8.92858 13.0527 8.87485 13.0523C8.75712 13.0508 8.64441 13.0043 8.55989 12.9223C8.50573 12.8602 8.46973 12.7843 8.45584 12.7031C8.44195 12.6218 8.4507 12.5383 8.48115 12.4617L9.178 10.3672C9.19713 10.3043 9.22784 10.2456 9.26855 10.194L14.1505 5.31208C14.1918 5.27066 14.2409 5.23779 14.2949 5.21536C14.349 5.19294 14.4069 5.1814 14.4654 5.1814C14.5239 5.1814 14.5819 5.19294 14.6359 5.21536C14.69 5.23779 14.7391 5.27066 14.7804 5.31208L16.1741 6.70972C16.2155 6.75105 16.2484 6.80014 16.2708 6.85419C16.2932 6.90823 16.3048 6.96617 16.3048 7.02469C16.3048 7.0832 16.2932 7.14114 16.2708 7.19518C16.2484 7.24923 16.2155 7.29832 16.1741 7.33965L16.0993 7.41051C16.3275 7.77817 16.4252 8.212 16.3767 8.64201C16.3281 9.07202 16.1361 9.47312 15.8316 9.7806ZM16.0632 14.4249C16.0632 14.2075 15.8869 14.0312 15.6695 14.0312H4.00497C3.78753 14.0312 3.61127 14.2075 3.61127 14.4249C3.61127 14.6424 3.78753 14.8187 4.00497 14.8187H15.6695C15.8869 14.8187 16.0632 14.6424 16.0632 14.4249Z" fill="currentColor"/>
</svg>
