<svg width="16" height="16" viewBox="0 0 16 16" fill="none" xmlns="http://www.w3.org/2000/svg">
<path fill-rule="evenodd" clip-rule="evenodd" d="M7.99951 16C12.4178 16 15.9995 12.4183 15.9995 8C15.9995 3.58172 12.4178 0 7.99951 0C3.58123 0 -0.000488281 3.58172 -0.000488281 8C-0.000488281 12.4183 3.58123 16 7.99951 16ZM14.1447 8.1622V7.99997V7.83773C13.1418 7.67795 10.9885 7.30677 9.929 6.90118C9.5529 6.7586 9.25055 6.45871 9.10306 6.08262C8.69747 5.02807 8.32137 2.86245 8.16159 1.85461H7.83712C7.67734 2.86245 7.30124 5.02807 6.89565 6.08262C6.74816 6.45871 6.44827 6.75615 6.06971 6.90118C5.01026 7.30677 2.85693 7.67795 1.854 7.83773V8.1622C2.85693 8.32198 5.01026 8.69316 6.06971 9.09875C6.44581 9.24133 6.74816 9.54122 6.89565 9.91731C7.30124 10.9719 7.67734 13.1375 7.83712 14.1453H8.16159C8.32137 13.1375 8.69747 10.9719 9.10306 9.91731C9.25055 9.54122 9.55044 9.24378 9.929 9.09875C10.9885 8.69316 13.1418 8.32198 14.1447 8.1622Z" fill="currentColor"/>
</svg>
