<svg width="32" height="32" viewBox="0 0 32 32" fill="none" xmlns="http://www.w3.org/2000/svg">
<g clip-path="url(#clip0_43_28482)">
<path fill-rule="evenodd" clip-rule="evenodd" d="M32 16C32 24.8366 24.8366 32 16 32C7.16344 32 0 24.8366 0 16C0 7.16344 7.16344 0 16 0C24.8366 0 32 7.16344 32 16ZM7.35999 13.1429C7.35999 8.36572 11.2457 4.50286 16 4.50286C20.7543 4.50286 24.64 8.36572 24.64 13.1429C24.64 17.6914 21.12 21.4171 16.6628 21.76C16.6628 21.76 15.5886 21.8286 15.3143 21.8743C14.08 22.0343 13.0286 22.9714 12.7543 24.2514C12.7543 24.2514 12.3886 25.92 12.3657 26.0571C12.2286 26.6971 11.5886 27.1086 10.9486 26.9714C10.3086 26.8343 9.89713 26.1943 10.0343 25.5543C10.0571 25.4171 12.7543 12.8457 12.7543 12.8457C12.8914 12.2057 13.5314 11.7943 14.1714 11.9314C14.8114 12.0686 15.2228 12.7086 15.0857 13.3486L13.9657 18.5143L13.76 19.52C13.7371 19.5886 13.8057 19.6571 13.8743 19.6343C13.9502 19.6234 14.0417 19.6074 14.1485 19.5887C14.2668 19.568 14.4039 19.544 14.56 19.52C15.1543 19.4286 16.3657 19.36 16.3657 19.36C19.6343 19.1771 22.24 16.4571 22.24 13.1429C22.24 9.6 19.2686 6.74286 15.68 6.92572C12.4571 7.08572 9.85142 9.73714 9.75999 12.96C9.73713 13.7143 9.85142 14.4686 10.1028 15.1771C10.3086 15.8171 9.9657 16.5029 9.34856 16.7086C8.70856 16.9143 8.02285 16.5714 7.81713 15.9543C7.51999 15.04 7.35999 14.1029 7.35999 13.1429ZM14.9028 25.5086C15.0628 24.7086 15.84 24.2286 16.6171 24.3886C17.4171 24.5486 17.8971 25.3029 17.7371 26.1029C17.5771 26.9029 16.8 27.3829 16.0228 27.2229C15.2228 27.0629 14.7428 26.2857 14.9028 25.5086Z" fill="#FF8C00"/>
</g>
<defs>
<clipPath id="clip0_43_28482">
<rect width="32" height="32" rx="16" fill="white"/>
</clipPath>
</defs>
</svg>
