<svg width="56" height="56" viewBox="0 0 56 56" fill="none" xmlns="http://www.w3.org/2000/svg">
<g opacity="0.7">
<rect width="56" height="56" rx="12" fill="#FF8C00"/>
<path d="M27.9998 9.72302C20.361 9.72302 14.1177 15.9296 14.1177 23.6051C14.1177 25.1476 14.3748 26.6533 14.8522 28.1223C15.1827 29.1139 16.2845 29.6648 17.3128 29.3343C18.3043 29.0037 18.8552 27.902 18.5247 26.8737C18.1207 25.7352 17.9371 24.5233 17.9738 23.3113C18.1207 18.1331 22.3074 13.873 27.4856 13.6159C33.2515 13.3221 38.0257 17.9127 38.0257 23.6051C38.0257 28.9303 33.8391 33.3006 28.5874 33.5944C28.5874 33.5944 26.6409 33.7045 25.6861 33.8514C25.2087 33.9249 24.8414 33.9984 24.5843 34.0351C24.4742 34.0718 24.364 33.9616 24.4007 33.8514L24.7312 32.2355L26.5308 23.9357C26.7511 22.9074 26.0901 21.879 25.0618 21.6587C24.0335 21.4383 23.0052 22.0994 22.7848 23.1277C22.7848 23.1277 18.4512 43.3265 18.4145 43.5469C18.1942 44.5752 18.8552 45.6035 19.8835 45.8239C20.9118 46.0442 21.9401 45.3832 22.1605 44.3548C22.1972 44.1345 22.7848 41.4536 22.7848 41.4536C23.2255 39.3969 24.9149 37.8912 26.898 37.6341C27.3387 37.5607 29.0648 37.4505 29.0648 37.4505C36.2262 36.8996 41.8819 30.9134 41.8819 23.6051C41.8819 15.9296 35.6386 9.72302 27.9998 9.72302ZM28.9914 41.6739C27.7427 41.4168 26.494 42.1881 26.237 43.4734C25.9799 44.7221 26.7511 45.9708 28.0365 46.2278C29.2852 46.4849 30.5338 45.7137 30.7909 44.4283C31.048 43.1429 30.2767 41.931 28.9914 41.6739Z" fill="white"/>
</g>
</svg>
