<svg width="20" height="20" viewBox="0 0 20 20" fill="none" xmlns="http://www.w3.org/2000/svg">
<rect width="20" height="20" rx="10" fill="url(#paint0_linear_5495_7261)"/>
<path fill-rule="evenodd" clip-rule="evenodd" d="M7.72748 5.79196C7.72748 6.5477 7.11483 7.16034 6.3591 7.16034C5.60337 7.16034 4.99072 6.5477 4.99072 5.79196C4.99072 5.03623 5.60337 4.42358 6.3591 4.42358C7.11483 4.42358 7.72748 5.03623 7.72748 5.79196ZM13.6413 7.16034C14.3971 7.16034 15.0097 6.5477 15.0097 5.79196C15.0097 5.03623 14.3971 4.42358 13.6413 4.42358C12.8856 4.42358 12.2729 5.03623 12.2729 5.79196C12.2729 6.5477 12.8856 7.16034 13.6413 7.16034ZM11.3072 12.0068C11.3072 12.7625 10.6945 13.3752 9.93881 13.3752C9.18308 13.3752 8.57043 12.7625 8.57043 12.0068C8.57043 11.2511 9.18308 10.6384 9.93881 10.6384C10.6945 10.6384 11.3072 11.2511 11.3072 12.0068ZM6.76214 13.5949H6.74108C6.6816 13.5948 6.62272 13.5829 6.56785 13.56C6.51299 13.537 6.46322 13.5034 6.42144 13.4611C5.95009 12.9792 5.59573 12.3955 5.38569 11.755C5.36639 11.6952 5.35995 11.6319 5.36678 11.5693C5.37361 11.5068 5.39357 11.4464 5.42534 11.392C5.45824 11.3356 5.50274 11.2867 5.55592 11.2487C5.6091 11.2107 5.66974 11.1844 5.73383 11.1715C5.76321 11.1657 5.79309 11.1628 5.82303 11.1628C5.92029 11.1633 6.01493 11.1945 6.09345 11.2519C6.17197 11.3093 6.23039 11.39 6.26037 11.4825C6.42587 11.9819 6.70248 12.4373 7.06939 12.8143C7.13193 12.8775 7.17475 12.9575 7.19264 13.0446C7.21053 13.1316 7.20272 13.222 7.17016 13.3047C7.1376 13.3874 7.0817 13.4589 7.00926 13.5104C6.93681 13.5619 6.85096 13.5913 6.76214 13.5949ZM13.1619 13.5949H13.183C13.2425 13.5948 13.3014 13.5829 13.3562 13.56C13.4111 13.537 13.4609 13.5034 13.5026 13.4611C13.974 12.9792 14.3283 12.3955 14.5384 11.755C14.5577 11.6952 14.5641 11.6319 14.5573 11.5693C14.5505 11.5068 14.5305 11.4464 14.4987 11.392C14.4658 11.3356 14.4213 11.2867 14.3682 11.2487C14.315 11.2107 14.2543 11.1844 14.1902 11.1715C14.1609 11.1657 14.131 11.1628 14.101 11.1628C14.0038 11.1633 13.9091 11.1945 13.8306 11.2519C13.7521 11.3093 13.6937 11.39 13.6637 11.4825C13.4982 11.9819 13.2216 12.4373 12.8547 12.8143C12.7921 12.8775 12.7493 12.9575 12.7314 13.0446C12.7135 13.1316 12.7214 13.222 12.7539 13.3047C12.7865 13.3874 12.8424 13.4589 12.9148 13.5104C12.9873 13.5619 13.0731 13.5913 13.1619 13.5949ZM9.11751 13.7454C8.05948 13.7454 7.20178 14.6031 7.20178 15.6611C7.20178 16.1145 7.56937 16.4821 8.02281 16.4821H11.8543C12.3077 16.4821 12.6753 16.1145 12.6753 15.6611C12.6753 14.6031 11.8176 13.7454 10.7596 13.7454L9.11751 13.7454ZM10.9043 9.44649C10.9043 8.38846 11.762 7.53076 12.82 7.53076H14.4621C15.5201 7.53076 16.3778 8.38846 16.3778 9.44649C16.3778 9.89993 16.0102 10.2675 15.5568 10.2675L11.7253 10.2675C11.2719 10.2675 10.9043 9.89993 10.9043 9.44649ZM5.5378 7.53076C4.47977 7.53076 3.62207 8.38846 3.62207 9.44649C3.62207 9.89993 3.98966 10.2675 4.4431 10.2675H8.27455C8.72799 10.2675 9.09558 9.89993 9.09558 9.44649C9.09558 8.38846 8.23788 7.53076 7.17985 7.53076H5.5378Z" fill="white"/>
<defs>
<linearGradient id="paint0_linear_5495_7261" x1="16.9761" y1="1.89353" x2="4.57279" y2="18.5116" gradientUnits="userSpaceOnUse">
<stop stop-color="#23B4F2"/>
<stop offset="0.616018" stop-color="#2A0FD2"/>
<stop offset="1" stop-color="#8A00CC"/>
</linearGradient>
</defs>
</svg>
