<svg width="42" height="38" viewBox="0 0 42 38" fill="none" xmlns="http://www.w3.org/2000/svg">
  <path d="M12.0492 26.8055H12.1096C12.3644 26.7952 12.6108 26.711 12.8187 26.5632C13.0265 26.4154 13.187 26.2103 13.2804 25.973C13.3738 25.7357 13.3962 25.4763 13.3449 25.2265C13.2935 24.9766 13.1707 24.7471 12.9912 24.5658C11.9384 23.4839 11.1447 22.1772 10.6698 20.7442C10.5838 20.4787 10.4162 20.2471 10.1908 20.0825C9.96553 19.9178 9.69399 19.8284 9.41491 19.827C9.32898 19.8269 9.24324 19.8352 9.15895 19.8519C8.97504 19.8888 8.80105 19.9642 8.64846 20.0733C8.49587 20.1824 8.36816 20.3226 8.27376 20.4847C8.18259 20.6406 8.12533 20.8139 8.10573 20.9934C8.08613 21.1729 8.10462 21.3545 8.16 21.5263C8.76268 23.3641 9.77949 25.0389 11.132 26.4215C11.2519 26.543 11.3947 26.6395 11.5521 26.7054C11.7095 26.7713 11.8785 26.8053 12.0492 26.8055Z" fill="currentColor"/>
  <path d="M30.5343 26.8055H30.4739C30.219 26.7952 29.9727 26.711 29.7648 26.5632C29.557 26.4154 29.3965 26.2103 29.3031 25.973C29.2097 25.7357 29.1873 25.4763 29.2386 25.2265C29.29 24.9766 29.4128 24.7471 29.5923 24.5658C30.6451 23.4839 31.4388 22.1772 31.9137 20.7442C31.9997 20.4787 32.1673 20.2471 32.3926 20.0825C32.618 19.9178 32.8895 19.8284 33.1686 19.827C33.2545 19.8269 33.3403 19.8352 33.4245 19.8519C33.6085 19.8888 33.7824 19.9642 33.935 20.0733C34.0876 20.1824 34.2153 20.3226 34.3097 20.4847C34.4009 20.6406 34.4582 20.8139 34.4778 20.9934C34.4974 21.1729 34.4789 21.3545 34.4235 21.5263C33.8208 23.3641 32.804 25.0389 31.4515 26.4215C31.3316 26.543 31.1888 26.6395 31.0314 26.7054C30.874 26.7713 30.705 26.8053 30.5343 26.8055Z" fill="currentColor"/>
  <circle cx="21.2247" cy="24.3022" r="3.55525" stroke="currentColor" stroke-width="2.5"/>
  <circle cx="32.9835" cy="5.34675" r="3.55525" stroke="currentColor" stroke-width="2.5"/>
  <circle cx="9.01618" cy="5.34675" r="3.55525" stroke="currentColor" stroke-width="2.5"/>
  <path d="M14.1143 33.6847C14.1143 30.4663 16.7233 27.8573 19.9416 27.8573H22.5079C25.7262 27.8573 28.3352 30.4663 28.3352 33.6847V33.6847C28.3352 35.064 27.2171 36.1821 25.8378 36.1821H16.6117C15.2324 36.1821 14.1143 35.064 14.1143 33.6847V33.6847Z" stroke="currentColor" stroke-width="2.5"/>
  <path d="M25.873 14.7292C25.873 11.5109 28.482 8.90186 31.7004 8.90186H34.2667C37.485 8.90186 40.094 11.5109 40.094 14.7292V14.7292C40.094 16.1085 38.9759 17.2267 37.5966 17.2267H28.3705C26.9912 17.2267 25.873 16.1085 25.873 14.7292V14.7292Z" stroke="currentColor" stroke-width="2.5"/>
  <path d="M1.90576 14.7292C1.90576 11.5109 4.51476 8.90186 7.73313 8.90186H10.2994C13.5177 8.90186 16.1267 11.5109 16.1267 14.7292V14.7292C16.1267 16.1085 15.0086 17.2267 13.6293 17.2267H4.40321C3.02391 17.2267 1.90576 16.1085 1.90576 14.7292V14.7292Z" stroke="currentColor" stroke-width="2.5"/>
</svg>
