<svg width="20" height="20" viewBox="0 0 20 20" fill="none" xmlns="http://www.w3.org/2000/svg">
  <path fill-rule="evenodd" clip-rule="evenodd" d="M8.54608 5.79196C8.54608 6.5477 7.93344 7.16034 7.1777 7.16034C6.42197 7.16034 5.80933 6.5477 5.80933 5.79196C5.80933 5.03623 6.42197 4.42358 7.1777 4.42358C7.93344 4.42358 8.54608 5.03623 8.54608 5.79196ZM14.4599 7.16034C15.2157 7.16034 15.8283 6.5477 15.8283 5.79196C15.8283 5.03623 15.2157 4.42358 14.4599 4.42358C13.7042 4.42358 13.0916 5.03623 13.0916 5.79196C13.0916 6.5477 13.7042 7.16034 14.4599 7.16034ZM12.126 12.0068C12.126 12.7625 11.5134 13.3752 10.7577 13.3752C10.0019 13.3752 9.38928 12.7625 9.38928 12.0068C9.38928 11.2511 10.0019 10.6384 10.7577 10.6384C11.5134 10.6384 12.126 11.2511 12.126 12.0068ZM7.58099 13.5949H7.55993C7.50045 13.5948 7.44157 13.5829 7.3867 13.56C7.33183 13.537 7.28207 13.5034 7.24028 13.4611C6.76894 12.9792 6.41458 12.3955 6.20454 11.755C6.18524 11.6952 6.1788 11.6319 6.18563 11.5693C6.19246 11.5068 6.21241 11.4464 6.24419 11.392C6.27708 11.3356 6.32159 11.2867 6.37477 11.2487C6.42795 11.2107 6.48858 11.1844 6.55268 11.1715C6.58205 11.1657 6.61193 11.1628 6.64188 11.1628C6.73914 11.1633 6.83377 11.1945 6.9123 11.2519C6.99082 11.3093 7.04924 11.39 7.07922 11.4825C7.24472 11.9819 7.52133 12.4373 7.88824 12.8143C7.95078 12.8775 7.9936 12.9575 8.01149 13.0446C8.02938 13.1316 8.02157 13.222 7.98901 13.3047C7.95645 13.3874 7.90055 13.4589 7.8281 13.5104C7.75566 13.5619 7.6698 13.5913 7.58099 13.5949ZM13.9808 13.5949H14.0018C14.0613 13.5948 14.1202 13.5829 14.1751 13.56C14.2299 13.537 14.2797 13.5034 14.3215 13.4611C14.7928 12.9792 15.1472 12.3955 15.3572 11.755C15.3765 11.6952 15.383 11.6319 15.3761 11.5693C15.3693 11.5068 15.3494 11.4464 15.3176 11.392C15.2847 11.3356 15.2402 11.2867 15.187 11.2487C15.1338 11.2107 15.0732 11.1844 15.0091 11.1715C14.9797 11.1657 14.9498 11.1628 14.9199 11.1628C14.8226 11.1633 14.728 11.1945 14.6495 11.2519C14.5709 11.3093 14.5125 11.39 14.4825 11.4825C14.317 11.9819 14.0404 12.4373 13.6735 12.8143C13.611 12.8775 13.5682 12.9575 13.5503 13.0446C13.5324 13.1316 13.5402 13.222 13.5728 13.3047C13.6053 13.3874 13.6612 13.4589 13.7337 13.5104C13.8061 13.5619 13.892 13.5913 13.9808 13.5949ZM9.93636 13.7454C8.87833 13.7454 8.02063 14.6031 8.02063 15.6611C8.02063 16.1145 8.38822 16.4821 8.84166 16.4821H12.6731C13.1266 16.4821 13.4941 16.1145 13.4941 15.6611C13.4941 14.6031 12.6364 13.7454 11.5784 13.7454L9.93636 13.7454ZM11.7231 9.44649C11.7231 8.38846 12.5808 7.53076 13.6389 7.53076H15.2809C16.339 7.53076 17.1967 8.38846 17.1967 9.44649C17.1967 9.89993 16.8291 10.2675 16.3756 10.2675L12.5442 10.2675C12.0907 10.2675 11.7231 9.89993 11.7231 9.44649ZM6.35665 7.53076C5.29862 7.53076 4.44092 8.38846 4.44092 9.44649C4.44092 9.89993 4.8085 10.2675 5.26194 10.2675H9.0934C9.54684 10.2675 9.91443 9.89993 9.91443 9.44649C9.91443 8.38846 9.05673 7.53076 7.9987 7.53076H6.35665Z" fill="white"/>
</svg>
