 <svg width="20" height="20" viewBox="0 0 20 20" fill="none" xmlns="http://www.w3.org/2000/svg"><path d="M6.26469 13.2665H6.28608C6.37629 13.2623 6.46349 13.2286 6.53706 13.1693C6.61064 13.11 6.66742 13.0277 6.70048 12.9325C6.73355 12.8372 6.74148 12.7332 6.72331 12.6329C6.70514 12.5327 6.66165 12.4406 6.59814 12.3679C6.22549 11.9338 5.94455 11.4095 5.77647 10.8345C5.74601 10.728 5.68668 10.6351 5.60693 10.569C5.52718 10.503 5.43107 10.4671 5.33229 10.4665C5.30187 10.4665 5.27152 10.4698 5.24169 10.4765C5.17659 10.4913 5.11501 10.5216 5.061 10.5654C5.00699 10.6091 4.96178 10.6654 4.92837 10.7304C4.8961 10.7929 4.87583 10.8625 4.8689 10.9345C4.86196 11.0065 4.8685 11.0794 4.8881 11.1483C5.10143 11.8857 5.46133 12.5577 5.94005 13.1124C5.98248 13.1612 6.03303 13.1999 6.08875 13.2263C6.14448 13.2528 6.20428 13.2664 6.26469 13.2665Z" fill="currentColor"/><path d="M13.7343 13.2665H13.7129C13.6227 13.2623 13.5355 13.2286 13.462 13.1693C13.3884 13.11 13.3316 13.0277 13.2985 12.9325C13.2655 12.8372 13.2575 12.7332 13.2757 12.6329C13.2939 12.5327 13.3374 12.4406 13.4009 12.3679C13.7735 11.9338 14.0545 11.4095 14.2226 10.8345C14.253 10.728 14.3123 10.6351 14.3921 10.569C14.4718 10.503 14.568 10.4671 14.6667 10.4665C14.6972 10.4665 14.7275 10.4698 14.7573 10.4765C14.8224 10.4913 14.884 10.5216 14.938 10.5654C14.992 10.6091 15.0372 10.6654 15.0707 10.7304C15.1029 10.7929 15.1232 10.8625 15.1301 10.9345C15.1371 11.0065 15.1305 11.0794 15.1109 11.1483C14.8976 11.8857 14.5377 12.5577 14.059 13.1124C14.0165 13.1612 13.966 13.1999 13.9103 13.2263C13.8545 13.2528 13.7947 13.2664 13.7343 13.2665Z" fill="currentColor"/><ellipse cx="9.99861" cy="11.8665" rx="1.39997" ry="1.39997" fill="currentColor"/><ellipse cx="13.733" cy="4.39997" rx="1.39997" ry="1.39997" fill="currentColor"/><ellipse cx="6.26618" cy="4.39997" rx="1.39997" ry="1.39997" fill="currentColor"/><path d="M6.7334 16.1597C6.7334 15.0773 7.6109 14.1998 8.69336 14.1998H11.3066C12.3891 14.1998 13.2666 15.0773 13.2666 16.1597C13.2666 16.6237 12.8905 16.9997 12.4266 16.9997H7.57338C7.10947 16.9997 6.7334 16.6237 6.7334 16.1597Z" fill="currentColor"/><path d="M11.4004 8.69322C11.4004 7.61077 12.2779 6.73326 13.3604 6.73326H15.0403C16.1228 6.73326 17.0003 7.61077 17.0003 8.69322C17.0003 9.15713 16.6242 9.53321 16.1603 9.53321H12.2404C11.7765 9.53321 11.4004 9.15713 11.4004 8.69322Z" fill="currentColor"/><path d="M3 8.69322C3 7.61077 3.87751 6.73326 4.95996 6.73326H6.63993C7.72239 6.73326 8.59989 7.61077 8.59989 8.69322C8.59989 9.15713 8.22382 9.53321 7.75991 9.53321H3.83998C3.37607 9.53321 3 9.15713 3 8.69322Z" fill="currentColor"/></svg>
