<svg width="33" height="32" viewBox="0 0 33 32" fill="none" xmlns="http://www.w3.org/2000/svg">
	<path d="M11.26 21.7704H11.2931C11.4327 21.7647 11.5676 21.7186 11.6815 21.6377C11.7953 21.5567 11.8832 21.4444 11.9343 21.3144C11.9855 21.1845 11.9978 21.0424 11.9697 20.9056C11.9415 20.7688 11.8743 20.6431 11.776 20.5438C11.1994 19.9512 10.7647 19.2356 10.5046 18.4508C10.4575 18.3054 10.3657 18.1786 10.2423 18.0884C10.1189 17.9982 9.97019 17.9492 9.81734 17.9485C9.77028 17.9484 9.72333 17.953 9.67716 17.9621C9.57644 17.9823 9.48115 18.0236 9.39758 18.0834C9.31401 18.1431 9.24407 18.2199 9.19237 18.3087C9.14244 18.394 9.11108 18.489 9.10035 18.5873C9.08961 18.6856 9.09974 18.785 9.13007 18.8791C9.46014 19.8856 10.017 20.8029 10.7577 21.5601C10.8234 21.6266 10.9016 21.6795 10.9878 21.7156C11.074 21.7516 11.1666 21.7703 11.26 21.7704Z" fill="white" />
	<path d="M21.3838 21.7704H21.3507C21.2111 21.7647 21.0762 21.7186 20.9623 21.6377C20.8485 21.5567 20.7606 21.4444 20.7095 21.3144C20.6583 21.1845 20.646 21.0424 20.6741 20.9056C20.7023 20.7688 20.7695 20.6431 20.8678 20.5438C21.4444 19.9512 21.8791 19.2356 22.1392 18.4508C22.1863 18.3054 22.2781 18.1786 22.4015 18.0884C22.5249 17.9982 22.6736 17.9492 22.8265 17.9485C22.8735 17.9484 22.9205 17.953 22.9666 17.9621C23.0674 17.9823 23.1627 18.0236 23.2462 18.0834C23.3298 18.1431 23.3997 18.2199 23.4514 18.3087C23.5014 18.394 23.5327 18.489 23.5435 18.5873C23.5542 18.6856 23.5441 18.785 23.5137 18.8791C23.1837 19.8856 22.6268 20.8029 21.8861 21.5601C21.8204 21.6266 21.7422 21.6795 21.656 21.7156C21.5698 21.7516 21.4772 21.7703 21.3838 21.7704Z" fill="white" />
	<circle cx="16.2854" cy="19.2742" r="2.15039" fill="white" />
	<circle cx="22.1035" cy="9.50805" r="2.15039" fill="white" />
	<circle cx="10.6597" cy="9.50805" r="2.15039" fill="white" />
	<path d="M11.9844 25.0171C11.9844 23.3545 13.3322 22.0066 14.9949 22.0066H17.5754C19.2381 22.0066 20.5859 23.3545 20.5859 25.0171C20.5859 25.7297 20.0083 26.3074 19.2957 26.3074H13.2746C12.562 26.3074 11.9844 25.7297 11.9844 25.0171Z" fill="white" />
	<path d="M17.8027 15.251C17.8027 13.5883 19.1506 12.2405 20.8133 12.2405H23.3937C25.0564 12.2405 26.4043 13.5883 26.4043 15.251C26.4043 15.9636 25.8266 16.5413 25.114 16.5413H19.093C18.3804 16.5413 17.8027 15.9636 17.8027 15.251Z" fill="white" />
	<path d="M6.35889 15.251C6.35889 13.5883 7.70675 12.2405 9.36943 12.2405H11.9499C13.6126 12.2405 14.9604 13.5883 14.9604 15.251C14.9604 15.9636 14.3828 16.5413 13.6702 16.5413H7.64912C6.93654 16.5413 6.35889 15.9636 6.35889 15.251Z" fill="white" />
</svg>
