<svg width="32" height="32" viewBox="0 0 32 32" fill="none" xmlns="http://www.w3.org/2000/svg">
	<rect width="32" height="32" rx="16" fill="url(#paint0_linear_1747_13420)" />
	<path d="M10.8972 21.7701H10.9303C11.0699 21.7645 11.2048 21.7184 11.3187 21.6374C11.4325 21.5565 11.5204 21.4442 11.5715 21.3142C11.6227 21.1842 11.635 21.0422 11.6069 20.9053C11.5788 20.7685 11.5115 20.6428 11.4132 20.5435C10.8366 19.951 10.4019 19.2354 10.1418 18.4506C10.0947 18.3052 10.0029 18.1783 9.87951 18.0881C9.75611 17.9979 9.60739 17.949 9.45455 17.9482C9.40749 17.9482 9.36053 17.9527 9.31437 17.9619C9.21365 17.9821 9.11836 18.0234 9.03479 18.0831C8.95122 18.1429 8.88128 18.2197 8.82958 18.3084C8.77965 18.3938 8.74829 18.4887 8.73755 18.587C8.72682 18.6853 8.73694 18.7848 8.76727 18.8789C9.09735 19.8854 9.65422 20.8026 10.3949 21.5599C10.4606 21.6264 10.5388 21.6792 10.625 21.7153C10.7112 21.7514 10.8038 21.77 10.8972 21.7701Z" fill="white" />
	<path d="M21.0207 21.7701H20.9876C20.8481 21.7645 20.7131 21.7184 20.5993 21.6374C20.4854 21.5565 20.3976 21.4442 20.3464 21.3142C20.2953 21.1842 20.283 21.0422 20.3111 20.9053C20.3392 20.7685 20.4065 20.6428 20.5048 20.5435C21.0814 19.951 21.5161 19.2354 21.7761 18.4506C21.8233 18.3052 21.9151 18.1783 22.0385 18.0881C22.1619 17.9979 22.3106 17.949 22.4634 17.9482C22.5105 17.9482 22.5574 17.9527 22.6036 17.9619C22.7043 17.9821 22.7996 18.0234 22.8832 18.0831C22.9667 18.1429 23.0367 18.2197 23.0884 18.3084C23.1383 18.3938 23.1697 18.4887 23.1804 18.587C23.1912 18.6853 23.181 18.7848 23.1507 18.8789C22.8206 19.8854 22.2638 20.8026 21.523 21.5599C21.4574 21.6264 21.3792 21.6792 21.2929 21.7153C21.2067 21.7514 21.1142 21.77 21.0207 21.7701Z" fill="white" />
	<circle cx="15.9228" cy="19.2734" r="2.15039" fill="white" />
	<circle cx="21.7412" cy="9.50781" r="2.15039" fill="white" />
	<circle cx="10.2969" cy="9.50781" r="2.15039" fill="white" />
	<path d="M11.6221 25.0164C11.6221 23.3537 12.9699 22.0059 14.6326 22.0059H17.2131C18.8757 22.0059 20.2236 23.3537 20.2236 25.0164C20.2236 25.729 19.646 26.3066 18.9334 26.3066H12.9123C12.1997 26.3066 11.6221 25.729 11.6221 25.0164Z" fill="white" />
	<path d="M17.4404 15.2508C17.4404 13.5881 18.7883 12.2402 20.451 12.2402L23.0314 12.2402C24.6941 12.2402 26.042 13.5881 26.042 15.2508C26.042 15.9633 25.4643 16.541 24.7517 16.541H18.7307C18.0181 16.541 17.4404 15.9633 17.4404 15.2508Z" fill="white" />
	<path d="M5.99609 15.2508C5.99609 13.5881 7.34396 12.2402 9.00663 12.2402L11.5871 12.2402C13.2498 12.2402 14.5976 13.5881 14.5976 15.2508C14.5976 15.9633 14.02 16.541 13.3074 16.541H7.28633C6.57375 16.541 5.99609 15.9633 5.99609 15.2508Z" fill="white" />
	<defs>
		<linearGradient id="paint0_linear_1747_13420" x1="27.1618" y1="3.02965" x2="7.31646" y2="29.6186" gradientUnits="userSpaceOnUse">
			<stop stop-color="#23B4F2" />
			<stop offset="0.616018" stop-color="#2A0FD2" />
			<stop offset="1" stop-color="#8A00CC" />
		</linearGradient>
	</defs>
</svg>
