<svg width="42" height="42" viewBox="0 0 42 38" fill="none" xmlns="http://www.w3.org/2000/svg">
  <path d="M12.0493 26.8056H12.1097C12.3646 26.7953 12.611 26.7111 12.8188 26.5633C13.0267 26.4155 13.1871 26.2105 13.2805 25.9731C13.374 25.7358 13.3964 25.4764 13.345 25.2266C13.2937 24.9767 13.1708 24.7472 12.9914 24.566C11.9386 23.484 11.1449 22.1774 10.67 20.7443C10.5839 20.4788 10.4163 20.2473 10.191 20.0826C9.96568 19.9179 9.69414 19.8285 9.41506 19.8272C9.32913 19.827 9.2434 19.8353 9.1591 19.852C8.97519 19.8889 8.8012 19.9644 8.64861 20.0735C8.49602 20.1825 8.36831 20.3227 8.27391 20.4848C8.18274 20.6407 8.12549 20.814 8.10588 20.9935C8.08628 21.173 8.10477 21.3546 8.16015 21.5264C8.76284 23.3643 9.77964 25.0391 11.1321 26.4217C11.252 26.5431 11.3948 26.6396 11.5523 26.7055C11.7097 26.7714 11.8786 26.8054 12.0493 26.8056Z" fill="currentColor"/>
  <path d="M30.5344 26.8056H30.474C30.2191 26.7953 29.9728 26.7111 29.7649 26.5633C29.557 26.4155 29.3966 26.2105 29.3032 25.9731C29.2098 25.7358 29.1874 25.4764 29.2387 25.2266C29.29 24.9767 29.4129 24.7472 29.5924 24.566C30.6452 23.484 31.4389 22.1774 31.9138 20.7443C31.9998 20.4788 32.1674 20.2473 32.3927 20.0826C32.6181 19.9179 32.8896 19.8285 33.1687 19.8272C33.2546 19.827 33.3403 19.8353 33.4246 19.852C33.6085 19.8889 33.7825 19.9644 33.9351 20.0735C34.0877 20.1825 34.2154 20.3227 34.3098 20.4848C34.401 20.6407 34.4583 20.814 34.4779 20.9935C34.4975 21.173 34.479 21.3546 34.4236 21.5264C33.8209 23.3643 32.8041 25.0391 31.4516 26.4217C31.3317 26.5431 31.1889 26.6396 31.0315 26.7055C30.874 26.7714 30.7051 26.8054 30.5344 26.8056Z" fill="currentColor"/>
  <circle cx="21.225" cy="24.3021" r="3.55525" stroke="currentColor" stroke-width="2.5"/>
  <circle cx="32.9838" cy="5.34675" r="3.55525" stroke="currentColor" stroke-width="2.5"/>
  <circle cx="9.0164" cy="5.34675" r="3.55525" stroke="currentColor" stroke-width="2.5"/>
  <path d="M14.1144 33.6848C14.1144 30.4664 16.7234 27.8574 19.9417 27.8574H22.508C25.7264 27.8574 28.3354 30.4664 28.3354 33.6848V33.6848C28.3354 35.0641 27.2172 36.1822 25.8379 36.1822H16.6118C15.2325 36.1822 14.1144 35.0641 14.1144 33.6848V33.6848Z" stroke="currentColor" stroke-width="2.5"/>
  <path d="M25.8732 14.7292C25.8732 11.5109 28.4822 8.90186 31.7006 8.90186H34.2668C37.4852 8.90186 40.0942 11.5109 40.0942 14.7292V14.7292C40.0942 16.1085 38.9761 17.2267 37.5968 17.2267H28.3707C26.9914 17.2267 25.8732 16.1085 25.8732 14.7292V14.7292Z" stroke="currentColor" stroke-width="2.5"/>
  <path d="M1.90585 14.7292C1.90585 11.5109 4.51485 8.90186 7.73322 8.90186H10.2995C13.5178 8.90186 16.1268 11.5109 16.1268 14.7292V14.7292C16.1268 16.1085 15.0087 17.2267 13.6294 17.2267H4.4033C3.024 17.2267 1.90585 16.1085 1.90585 14.7292V14.7292Z" stroke="currentColor" stroke-width="2.5"/>
</svg>
