<svg width="20" height="20" viewBox="0 0 20 20" fill="none" xmlns="http://www.w3.org/2000/svg">
<rect width="20" height="20" rx="10" fill="#EC007D"/>
<path fill-rule="evenodd" clip-rule="evenodd" d="M9.99951 16.355C13.5093 16.355 16.3545 13.5098 16.3545 10C16.3545 6.49023 13.5093 3.64502 9.99951 3.64502C6.48974 3.64502 3.64453 6.49023 3.64453 10C3.64453 13.5098 6.48974 16.355 9.99951 16.355ZM11.6409 9.77898C11.3064 10.1982 10.9714 10.6659 10.9714 11.2022V12.9345C10.9714 13.461 10.5447 13.8878 10.0182 13.8878C9.49173 13.8878 9.06497 13.461 9.06497 12.9345V11.2022C9.06497 10.6659 8.73 10.1982 8.39556 9.77898C8.11262 9.42437 7.9435 8.97495 7.9435 8.48603C7.9435 7.34018 8.87237 6.41131 10.0182 6.41131C11.164 6.41131 12.0929 7.34018 12.0929 8.48603C12.0929 8.97495 11.9238 9.42437 11.6409 9.77898Z" fill="white"/>
</svg>
