<svg width="32" height="32" viewBox="0 0 32 32" fill="none" xmlns="http://www.w3.org/2000/svg">
	<path fill-rule="evenodd" clip-rule="evenodd" d="M16 26.168C21.6156 26.168 26.168 21.6156 26.168 16C26.168 10.3844 21.6156 5.83203 16 5.83203C10.3844 5.83203 5.83203 10.3844 5.83203 16C5.83203 21.6156 10.3844 26.168 16 26.168ZM18.6262 15.6464C18.0911 16.3171 17.5551 17.0655 17.5551 17.9235V20.6952C17.5551 21.5376 16.8722 22.2204 16.0299 22.2204C15.1876 22.2204 14.5047 21.5376 14.5047 20.6952V17.9235C14.5047 17.0655 13.9688 16.3171 13.4337 15.6464C12.981 15.079 12.7104 14.3599 12.7104 13.5776C12.7104 11.7443 14.1966 10.2581 16.0299 10.2581C17.8632 10.2581 19.3494 11.7443 19.3494 13.5776C19.3494 14.3599 19.0789 15.079 18.6262 15.6464Z" fill="white" />
</svg>
