<svg width="20" height="20" viewBox="0 0 20 20" fill="none" xmlns="http://www.w3.org/2000/svg">
<rect width="20" height="20" rx="10" fill="#3B99FC"/>
<path d="M5.565 7.1959C8.01431 4.79782 11.9854 4.79782 14.4348 7.1959L14.7295 7.48451C14.852 7.60443 14.852 7.79882 14.7295 7.91874L13.7212 8.90602C13.6599 8.96598 13.5606 8.96598 13.4994 8.90602L13.0938 8.50887C11.385 6.83589 8.61469 6.83589 6.90598 8.50887L6.47155 8.93418C6.41034 8.99414 6.31107 8.99414 6.24982 8.93418L5.24146 7.9469C5.11896 7.82698 5.11896 7.63259 5.24146 7.51267L5.565 7.1959ZM16.5202 9.23773L17.4177 10.1164C17.5401 10.2363 17.5401 10.4307 17.4177 10.5506L13.3709 14.5128C13.2485 14.6327 13.0499 14.6327 12.9275 14.5128L10.0553 11.7007C10.0247 11.6707 9.97507 11.6707 9.94444 11.7007L7.0724 14.5128C6.94994 14.6327 6.75136 14.6327 6.6289 14.5128L2.58208 10.5506C2.45962 10.4307 2.45962 10.2363 2.58208 10.1164L3.47955 9.23766C3.60201 9.11778 3.80057 9.11778 3.92304 9.23766L6.79521 12.0497C6.8258 12.0797 6.87543 12.0797 6.90605 12.0497L9.77806 9.23766C9.90052 9.11778 10.0991 9.11778 10.2216 9.23766L13.0937 12.0497C13.1243 12.0797 13.174 12.0797 13.2046 12.0497L16.0767 9.23773C16.1992 9.11782 16.3977 9.11782 16.5202 9.23773Z" fill="white"/>
</svg>
