<svg width="56" height="56" viewBox="0 0 56 56" fill="none" xmlns="http://www.w3.org/2000/svg">
<g id="walletconnect-ill-56">
<rect width="56" height="56" rx="12" fill="#3396FF"/>
<path id="Vector" d="M15.5829 20.1485C22.4409 13.4339 33.56 13.4339 40.4182 20.1485L41.2435 20.9566C41.5864 21.2924 41.5864 21.8367 41.2435 22.1725L38.4201 24.9369C38.2486 25.1047 37.9707 25.1047 37.7992 24.9369L36.6634 23.8248C31.879 19.1405 24.122 19.1405 19.3376 23.8248L18.1212 25.0157C17.9498 25.1836 17.6719 25.1836 17.5004 25.0157L14.6769 22.2513C14.3339 21.9155 14.3339 21.3713 14.6769 21.0355L15.5829 20.1485ZM46.2574 25.8657L48.7703 28.3259C49.1132 28.6617 49.1132 29.206 48.7703 29.5418L37.4395 40.6358C37.0966 40.9715 36.5406 40.9715 36.1977 40.6358L28.1558 32.7621C28.07 32.6781 27.931 32.6781 27.8453 32.7621L19.8036 40.6358C19.4607 40.9715 18.9047 40.9715 18.5618 40.6358L7.23069 29.5417C6.88778 29.2059 6.88778 28.6616 7.23069 28.3258L9.74359 25.8654C10.0865 25.5298 10.6425 25.5298 10.9854 25.8654L19.0274 33.7393C19.1131 33.8233 19.2521 33.8233 19.3378 33.7393L27.3794 25.8654C27.7223 25.5298 28.2783 25.5298 28.6212 25.8654L36.6633 33.7393C36.749 33.8233 36.888 33.8233 36.9737 33.7393L45.0156 25.8657C45.3586 25.5299 45.9145 25.5299 46.2574 25.8657Z" fill="white"/>
</g>
</svg>
