<svg width="32" height="32" viewBox="0 0 32 32" fill="none" xmlns="http://www.w3.org/2000/svg">
	<path d="M8.90449 11.5134C12.8234 7.67651 19.1772 7.67651 23.0961 11.5134L23.5677 11.9752C23.7637 12.1671 23.7637 12.4781 23.5677 12.67L21.9543 14.2496C21.8563 14.3456 21.6975 14.3456 21.5995 14.2496L20.9505 13.6142C18.2166 10.9374 13.784 10.9374 11.0501 13.6142L10.355 14.2947C10.257 14.3906 10.0982 14.3906 10.0002 14.2947L8.38682 12.715C8.19082 12.5232 8.19082 12.2121 8.38682 12.0203L8.90449 11.5134ZM26.4328 14.7804L27.8687 16.1862C28.0647 16.3781 28.0647 16.6891 27.8687 16.881L21.394 23.2205C21.1981 23.4123 20.8803 23.4123 20.6844 23.2205L16.089 18.7212C16.04 18.6732 15.9606 18.6732 15.9116 18.7212L11.3163 23.2205C11.1204 23.4123 10.8027 23.4123 10.6067 23.2205L4.13182 16.8809C3.93588 16.6891 3.93588 16.378 4.13182 16.1862L5.56776 14.7803C5.76371 14.5884 6.0814 14.5884 6.27735 14.7803L10.8728 19.2796C10.9218 19.3276 11.0012 19.3276 11.0502 19.2796L15.6454 14.7803C15.8413 14.5884 16.159 14.5884 16.355 14.7803L20.9504 19.2796C20.9994 19.3276 21.0788 19.3276 21.1279 19.2796L25.7232 14.7804C25.9192 14.5885 26.2368 14.5885 26.4328 14.7804Z" fill="white" />
</svg>
