<svg width="20" height="20" viewBox="0 0 20 20" fill="none" xmlns="http://www.w3.org/2000/svg">
<path d="M5.56524 7.19578C8.01456 4.79769 11.9857 4.79769 14.435 7.19578L14.7298 7.48439C14.8522 7.60431 14.8522 7.7987 14.7298 7.91862L13.7214 8.9059C13.6602 8.96586 13.5609 8.96586 13.4996 8.9059L13.094 8.50875C11.3853 6.83577 8.61494 6.83577 6.90622 8.50875L6.4718 8.93406C6.41059 8.99402 6.31132 8.99402 6.25007 8.93406L5.2417 7.94678C5.1192 7.82686 5.1192 7.63247 5.2417 7.51255L5.56524 7.19578ZM16.5204 9.23761L17.4179 10.1163C17.5404 10.2362 17.5404 10.4306 17.4179 10.5505L13.3712 14.5127C13.2487 14.6325 13.0502 14.6325 12.9277 14.5127L10.0556 11.7006C10.0249 11.6706 9.97531 11.6706 9.94469 11.7006L7.07265 14.5127C6.95018 14.6325 6.75161 14.6325 6.62915 14.5127L2.58233 10.5505C2.45986 10.4305 2.45986 10.2362 2.58233 10.1162L3.47979 9.23753C3.60226 9.11765 3.80082 9.11765 3.92328 9.23753L6.79545 12.0496C6.82604 12.0796 6.87567 12.0796 6.9063 12.0496L9.7783 9.23753C9.90076 9.11765 10.0993 9.11765 10.2218 9.23753L13.094 12.0496C13.1246 12.0796 13.1742 12.0796 13.2048 12.0496L16.0769 9.23761C16.1994 9.11769 16.398 9.11769 16.5204 9.23761Z" fill="currentColor"/>
</svg>
