<svg width="20" height="20" viewBox="0 0 20 20" fill="none" xmlns="http://www.w3.org/2000/svg">
<rect width="20" height="20" rx="10" fill="url(#paint0_linear_4449_6221)"/>
<path fill-rule="evenodd" clip-rule="evenodd" d="M10.0076 11.0094C10.0449 10.6846 10.0645 10.347 10.0645 10.0005C10.0645 7.43552 8.98764 5.3562 7.65922 5.3562C6.3308 5.3562 5.25391 7.43552 5.25391 10.0005C5.25391 12.5655 6.3308 14.6448 7.65922 14.6448C8.04322 14.6448 8.4062 14.471 8.72823 14.162C8.06852 14.0852 7.54579 13.0279 7.54579 11.7348C7.54579 10.3918 8.10964 9.30308 8.80519 9.30308C9.3699 9.30308 9.8478 10.0207 10.0076 11.0094Z" fill="white"/>
<path fill-rule="evenodd" clip-rule="evenodd" d="M14.688 11.0115C14.7254 10.6859 14.7452 10.3475 14.7452 10.0001C14.7452 7.43515 13.6683 5.35583 12.3399 5.35583C11.0115 5.35583 9.93457 7.43515 9.93457 10.0001C9.93457 12.5651 11.0115 14.6444 12.3399 14.6444C12.7237 14.6444 13.0865 14.4708 13.4084 14.1621C12.7487 14.0855 12.2258 13.028 12.2258 11.7349C12.2258 10.3919 12.7897 9.30316 13.4853 9.30316C14.0503 9.30316 14.5285 10.0218 14.688 11.0115Z" fill="white"/>
<defs>
<linearGradient id="paint0_linear_4449_6221" x1="17.2442" y1="2.6289" x2="3.36254" y2="18.1301" gradientUnits="userSpaceOnUse">
<stop stop-color="#FFC700"/>
<stop offset="1" stop-color="#FF2E00"/>
</linearGradient>
</defs>
</svg>
