<svg width="20" height="20" viewBox="0 0 20 20" fill="none" xmlns="http://www.w3.org/2000/svg">
  <path fill-rule="evenodd" clip-rule="evenodd" d="M10.008 11.0097C10.0452 10.6849 10.0649 10.3472 10.0649 10.0007C10.0649 7.43576 8.988 5.35645 7.65959 5.35645C6.33117 5.35645 5.25427 7.43576 5.25427 10.0007C5.25427 12.5657 6.33117 14.645 7.65959 14.645C8.04359 14.645 8.40657 14.4713 8.7286 14.1623C8.06889 14.0855 7.54616 13.0281 7.54616 11.735C7.54616 10.392 8.11001 9.30332 8.80556 9.30332C9.37027 9.30332 9.84817 10.021 10.008 11.0097Z" fill="currentColor"/>
  <path fill-rule="evenodd" clip-rule="evenodd" d="M14.6882 11.0117C14.7257 10.6861 14.7454 10.3476 14.7454 10.0002C14.7454 7.43528 13.6685 5.35596 12.3401 5.35596C11.0117 5.35596 9.93481 7.43528 9.93481 10.0002C9.93481 12.5652 11.0117 14.6445 12.3401 14.6445C12.7239 14.6445 13.0868 14.471 13.4087 14.1622C12.7489 14.0856 12.2261 13.0282 12.2261 11.735C12.2261 10.392 12.7899 9.30328 13.4855 9.30328C14.0506 9.30328 14.5288 10.0219 14.6882 11.0117Z" fill="currentColor"/>
</svg>
