<svg width="32" height="32" viewBox="0 0 32 32" fill="none" xmlns="http://www.w3.org/2000/svg">
	<path fill-rule="evenodd" clip-rule="evenodd" d="M16.0124 17.615C16.0721 17.0953 16.1035 16.5551 16.1035 16.0007C16.1035 11.8967 14.3805 8.56982 12.255 8.56982C10.1295 8.56982 8.40649 11.8967 8.40649 16.0007C8.40649 20.1046 10.1295 23.4315 12.255 23.4315C12.8693 23.4315 13.45 23.1536 13.9652 22.6594C12.9098 22.5363 12.0735 20.8446 12.0735 18.7758C12.0735 16.627 12.9757 14.8851 14.0886 14.8851C14.9921 14.8851 15.7567 16.0332 16.0124 17.615Z" fill="white" />
	<path fill-rule="evenodd" clip-rule="evenodd" d="M23.5012 17.6184C23.5612 17.0975 23.5928 16.556 23.5928 16.0002C23.5928 11.8962 21.8697 8.56934 19.7443 8.56934C17.6188 8.56934 15.8958 11.8962 15.8958 16.0002C15.8958 20.1042 17.6188 23.4311 19.7443 23.4311C20.3583 23.4311 20.9389 23.1533 21.4539 22.6594C20.3983 22.5367 19.5618 20.8449 19.5618 18.7758C19.5618 16.627 20.464 14.8851 21.5768 14.8851C22.481 14.8851 23.246 16.0348 23.5012 17.6184Z" fill="white" />
</svg>
