<svg width="56" height="56" viewBox="0 0 56 56" fill="none" xmlns="http://www.w3.org/2000/svg">
<defs>
<linearGradient id='background' gradientUnits='userSpaceOnUse' x1='97.25%' y1='-2.48%' x2='2.75%' y2='102.48%'>
<stop offset='.134' stop-color='#FFC700'/>
<stop offset='.871' stop-color='#FF2E00'/>
</linearGradient>
</defs>

<rect width="56" height="56" rx="12" fill="url(#background)"/>
<path fill-rule="evenodd" clip-rule="evenodd" d="M28.0223 30.826C28.1266 29.9165 28.1817 28.9711 28.1817 28.001C28.1817 20.819 25.1664 14.9969 21.4468 14.9969C17.7272 14.9969 14.7119 20.819 14.7119 28.001C14.7119 35.1829 17.7272 41.005 21.4468 41.005C22.5219 41.005 23.5381 40.5186 24.4397 39.6536C22.5927 39.4382 21.1293 36.4778 21.1293 32.8574C21.1293 29.097 22.708 26.0486 24.6556 26.0486C26.2367 26.0486 27.5748 28.0578 28.0223 30.826Z" fill="white"/>
<path fill-rule="evenodd" clip-rule="evenodd" d="M41.128 30.8323C41.2328 29.9206 41.2881 28.973 41.2881 28.0003C41.2881 20.8184 38.2728 14.9963 34.5532 14.9963C30.8337 14.9963 27.8184 20.8184 27.8184 28.0003C27.8184 35.1823 30.8337 41.0044 34.5532 41.0044C35.6279 41.0044 36.6438 40.5183 37.5451 39.654C35.6978 39.4393 34.2339 36.4785 34.2339 32.8576C34.2339 29.0972 35.8127 26.0488 37.7603 26.0488C39.3425 26.0488 40.6814 28.061 41.128 30.8323Z" fill="white"/>
</svg>
