<svg width="30" height="20" viewBox="0 0 30 20" fill="none" xmlns="http://www.w3.org/2000/svg">
<path fill-rule="evenodd" clip-rule="evenodd" d="M23.0803 1.02753C23.3732 1.32042 23.3732 1.7953 23.0803 2.08819L21.9439 3.22462L24.747 6.02751C24.8876 6.16817 24.9667 6.35893 24.9667 6.55785C24.9667 6.75677 24.8876 6.94754 24.747 7.08819L21.4135 10.4216C21.2729 10.5623 21.0821 10.6413 20.8832 10.6413C20.6843 10.6413 20.4935 10.5623 20.3529 10.4216L17.55 7.61854L14.0761 11.0924C14.6882 11.9221 15.05 12.9477 15.05 14.0579C15.05 16.8193 12.8114 19.0579 10.05 19.0579C7.28856 19.0579 5.04999 16.8193 5.04999 14.0579C5.04999 11.2965 7.28856 9.05789 10.05 9.05789C11.1601 9.05789 12.1858 9.41968 13.0154 10.0318L17.0177 6.02954C17.0183 6.02887 17.019 6.0282 17.0197 6.02753L20.3529 2.6943C20.3536 2.69361 20.3543 2.69291 20.355 2.69222L22.0197 1.02753C22.3126 0.734638 22.7874 0.734638 23.0803 1.02753ZM18.6106 6.55788L20.8832 8.83062L23.156 6.55788L20.8832 4.28527L18.6106 6.55788ZM10.05 17.5579C11.983 17.5579 13.55 15.9909 13.55 14.0579C13.55 12.1249 11.983 10.5579 10.05 10.5579C8.11699 10.5579 6.54999 12.1249 6.54999 14.0579C6.54999 15.9909 8.11699 17.5579 10.05 17.5579Z" fill="currentColor"/>
</svg>
