<svg width="30" height="20" viewBox="0 0 30 20" fill="none" xmlns="http://www.w3.org/2000/svg">
<path fill-rule="evenodd" clip-rule="evenodd" d="M20.1542 15.5905C21.4219 14.8299 21.8667 13.988 21.8667 13.3412V12.8705C20.3601 14.1628 17.8612 15.0079 15.0333 15.0079C12.2055 15.0079 9.70657 14.1628 8.20001 12.8705V13.3412C8.20001 13.988 8.64483 14.8299 9.91253 15.5905C11.1504 16.3332 12.9573 16.8412 15.0333 16.8412C17.1094 16.8412 18.9163 16.3332 20.1542 15.5905ZM6.70001 10.0079V6.67456C6.70001 3.91314 10.431 1.67456 15.0333 1.67456C19.6357 1.67456 23.3667 3.91314 23.3667 6.67456V10.0079V13.3412C23.3667 16.1027 19.6357 18.3412 15.0333 18.3412C10.431 18.3412 6.70001 16.1027 6.70001 13.3412V10.0079ZM8.20001 10.0079C8.20001 10.6547 8.64483 11.4966 9.91253 12.2572C11.1504 12.9999 12.9573 13.5079 15.0333 13.5079C17.1094 13.5079 18.9163 12.9999 20.1542 12.2572C21.4219 11.4966 21.8667 10.6547 21.8667 10.0079V9.53713C20.3601 10.8294 17.8612 11.6746 15.0333 11.6746C12.2055 11.6746 9.70657 10.8294 8.20001 9.53713V10.0079ZM8.20001 6.67456C8.20001 7.32138 8.64483 8.16323 9.91253 8.92386C11.1504 9.66656 12.9573 10.1746 15.0333 10.1746C17.1094 10.1746 18.9163 9.66656 20.1542 8.92386C21.4219 8.16323 21.8667 7.32138 21.8667 6.67456C21.8667 6.02774 21.4219 5.18589 20.1542 4.42527C18.9163 3.68256 17.1094 3.17456 15.0333 3.17456C12.9573 3.17456 11.1504 3.68256 9.91253 4.42527C8.64483 5.18589 8.20001 6.02774 8.20001 6.67456Z" fill="currentColor"/>
</svg>
