<svg width="151" height="51" viewBox="0 0 151 51" fill="none" xmlns="http://www.w3.org/2000/svg"><g clip-path="url(#clip0_919_69210)"><path d="M128.365 47.3516V50.4992H149.97V36.3027H146.822V47.3516H128.365ZM128.365 0.5V3.64783H146.822V14.6973H149.97V0.5H128.365ZM117.224 24.852V17.5374H122.162C124.57 17.5374 125.434 18.3397 125.434 20.5314V21.8274C125.434 24.0804 124.601 24.852 122.162 24.852H117.224ZM125.063 26.148C127.316 25.5616 128.89 23.4626 128.89 20.9631C128.89 19.3892 128.273 17.9692 127.1 16.827C125.619 15.407 123.643 14.6973 121.081 14.6973H114.137V36.3019H117.224V27.6913H121.854C124.23 27.6913 125.187 28.6788 125.187 31.1484V36.3027H128.335V31.6421C128.335 28.2471 127.533 26.9511 125.063 26.5805V26.148ZM99.0763 26.8577H108.583V24.0184H99.0763V17.5367H109.508V14.6973H95.9279V36.3019H109.971V33.4626H99.0763V26.8577ZM88.7365 27.9998V29.4811C88.7365 32.5983 87.5943 33.6172 84.7244 33.6172H84.0455C81.1748 33.6172 79.7861 32.6909 79.7861 28.4009V22.5983C79.7861 18.2777 81.2369 17.3821 84.1068 17.3821H84.7236C87.5326 17.3821 88.4275 18.4316 88.458 21.3329H91.8533C91.5447 17.0736 88.7053 14.3889 84.4459 14.3889C82.3783 14.3889 80.6498 15.0372 79.3537 16.2713C77.4092 18.0925 76.3291 21.179 76.3291 25.4996C76.3291 29.6664 77.2552 32.7529 79.1685 34.666C80.4646 35.9314 82.2549 36.6104 84.0142 36.6104C85.8658 36.6104 87.5638 35.8694 88.4275 34.2648H88.8592V36.3019H91.6986V25.1605H83.3345V27.9998H88.7365ZM61.5154 17.5367H64.8799C68.0592 17.5367 69.7877 18.3389 69.7877 22.6603V28.3389C69.7877 32.6596 68.0592 33.4626 64.8799 33.4626H61.5154V17.5367ZM65.1572 36.3027C71.0525 36.3027 73.2431 31.8274 73.2431 25.5004C73.2431 19.0807 70.8978 14.6981 65.0951 14.6981H58.4283V36.3027H65.1572ZM43.522 26.8577H53.0283V24.0184H43.522V17.5367H53.9537V14.6973H40.3732V36.3019H54.417V33.4626H43.522V26.8577ZM25.3124 14.6973H22.1646V36.3019H36.362V33.4626H25.3124V14.6973ZM0.528687 36.3027V50.5H22.1332V47.3516H3.67651V36.3027H0.528687ZM0.528687 0.5V14.6973H3.67651V3.64783H22.1332V0.5H0.528687Z" fill="#333333"/></g><defs><clipPath id="clip0_919_69210"><rect width="149.609" height="50" fill="white" transform="translate(0.528687 0.5)"/></clipPath></defs></svg>
