<svg width="120" height="120" viewBox="0 0 120 120" fill="none" xmlns="http://www.w3.org/2000/svg"><path fill-rule="evenodd" clip-rule="evenodd" d="M104.203 60.5C104.203 80.3477 87.9813 96.4375 67.971 96.4375C47.9607 96.4375 31.7391 80.3477 31.7391 60.5C31.7391 40.6523 47.9607 24.5625 67.971 24.5625C87.9813 24.5625 104.203 40.6523 104.203 60.5ZM67.971 89.25C83.9793 89.25 96.9565 76.3782 96.9565 60.5C96.9565 44.6218 83.9793 31.75 67.971 31.75C51.9628 31.75 38.9855 44.6218 38.9855 60.5C38.9855 76.3782 51.9628 89.25 67.971 89.25Z" fill="#A3DE47" fill-opacity="0.75"/><path fill-rule="evenodd" clip-rule="evenodd" d="M47.3625 22.5319C55.0924 18.4039 63.9014 16.692 72.631 17.6214C81.3607 18.5508 89.6023 22.0779 96.2721 27.7389C101.076 31.8161 104.902 36.8626 107.516 42.5087C109.202 46.1506 106.847 50.1761 102.968 51.2066C99.1126 52.2309 95.2283 49.874 93.2597 46.4044C91.604 43.4861 89.4376 40.8607 86.8439 38.6593C82.3973 34.8852 76.9029 32.5339 71.0832 31.9143C65.2634 31.2947 59.3908 32.4359 54.2375 35.1879C49.0842 37.9399 44.8916 42.1737 42.2109 47.3328C39.5302 52.4918 38.4869 58.3345 39.2183 64.0925C39.9497 69.8504 42.4215 75.2542 46.3087 79.593C50.1959 83.9319 55.3164 87.0028 60.997 88.4019C64.346 89.2268 67.7973 89.4478 71.1897 89.0741C75.1239 88.6406 79.2625 90.4234 80.658 94.1271C82.0646 97.8603 80.1658 102.089 76.2478 102.84C70.0659 104.026 63.6683 103.872 57.5017 102.353C48.9809 100.254 41.3001 95.6479 35.4693 89.1396C29.6385 82.6313 25.9308 74.5257 24.8337 65.8887C23.7366 57.2517 25.3015 48.4878 29.3226 40.7492C33.3436 33.0106 39.6326 26.6598 47.3625 22.5319Z" fill="#A3DE47" fill-opacity="0.25"/><path fill-rule="evenodd" clip-rule="evenodd" d="M55.0006 11.9018C60.1226 10.5462 65.4053 9.99457 70.6582 10.2468C76.6365 10.5339 80.0925 16.6036 78.5255 22.38C76.9721 28.1063 70.9848 31.2893 65.0845 31.9134C63.5928 32.0712 62.1103 32.3433 60.6508 32.7296C55.7154 34.0358 51.2152 36.6021 47.6023 40.1706C43.9894 43.7392 41.3911 48.1842 40.0687 53.0589C38.7463 57.9336 38.7463 63.0663 40.0687 67.941C41.3911 72.8157 43.9894 77.2607 47.6023 80.8293C51.2152 84.3978 55.7154 86.9641 60.6508 88.2703C65.5861 89.5765 70.7825 89.5765 75.7179 88.2703C77.1674 87.8867 78.5793 87.3944 79.9423 86.7999C85.3858 84.4256 92.1641 84.1853 96.3893 88.3586C100.689 92.6054 100.728 99.6658 95.6183 102.892C91.2365 105.659 86.4332 107.758 81.368 109.098C72.7312 111.384 63.6374 111.384 55.0006 109.098C46.3638 106.812 38.4883 102.321 32.1657 96.0763C25.8431 89.8313 21.2962 82.0525 18.982 73.5218C16.6678 64.991 16.6678 56.0089 18.982 47.4781C21.2962 38.9474 25.8431 31.1686 32.1657 24.9237C38.4883 18.6787 46.3638 14.1876 55.0006 11.9018Z" fill="#5E82DE" fill-opacity="0.25"/><path fill-rule="evenodd" clip-rule="evenodd" d="M53.3291 4.87252C62.3704 2.52789 71.8493 2.3829 80.9593 4.44988C82.9515 4.90191 84.9132 5.45679 86.8368 6.11079C98.1743 9.96531 99.2851 24.1462 91.476 33.2244C88.9051 36.2131 84.4266 36.474 80.8877 34.7368C78.858 33.7404 76.7103 32.9795 74.4865 32.4749C69.9315 31.4415 65.192 31.5139 60.6714 32.6863C56.1508 33.8586 51.9828 36.096 48.5222 39.2081C45.0616 42.3203 42.4108 46.215 40.7954 50.5608C39.1799 54.9067 38.6477 59.5751 39.244 64.1686C39.8402 68.7622 41.5473 73.145 44.22 76.944C46.8927 80.7431 50.4518 83.8459 54.5945 85.9885C61.4337 89.5257 68.0137 95.4919 68.0137 103.192V103.625C68.0137 111.564 61.4833 118.174 53.7827 116.243C49.4232 115.15 45.191 113.554 41.1754 111.477C32.89 107.192 25.7717 100.986 20.4264 93.388C15.081 85.7899 11.6668 77.0243 10.4743 67.8372C9.28173 58.6501 10.3462 49.3134 13.577 40.6217C16.8079 31.93 22.1095 24.1405 29.0307 17.9163C35.952 11.692 44.2879 7.21715 53.3291 4.87252Z" fill="#5E82DE" fill-opacity="0.25"/><path fill-rule="evenodd" clip-rule="evenodd" d="M67.971 72C74.3743 72 79.5652 66.8513 79.5652 60.5C79.5652 54.1487 74.3743 49 67.971 49C61.5677 49 56.3768 54.1487 56.3768 60.5C56.3768 66.8513 61.5677 72 67.971 72ZM67.971 74.875C75.9752 74.875 82.4638 68.4391 82.4638 60.5C82.4638 52.5609 75.9752 46.125 67.971 46.125C59.9669 46.125 53.4783 52.5609 53.4783 60.5C53.4783 68.4391 59.9669 74.875 67.971 74.875Z" fill="#5E82DE"/><path fill-rule="evenodd" clip-rule="evenodd" d="M73.8775 60.5265C73.8923 59.6292 73.7069 58.741 73.3365 57.9343C73.0598 57.3316 72.6856 56.7873 72.2326 56.3253C71.9747 56.0623 71.9129 55.6507 72.1261 55.3504C72.3574 55.0245 72.8179 54.9584 73.1011 55.2403C73.694 55.8305 74.1823 56.5318 74.5402 57.3112C75.0032 58.3195 75.2349 59.4298 75.2164 60.5514C75.1978 61.673 74.9296 62.774 74.4335 63.7644C74.0504 64.5294 73.5398 65.2116 72.9284 65.779C72.6352 66.0512 72.1769 65.9689 71.9567 65.6349C71.7533 65.3265 71.8297 64.9161 72.0973 64.6614C72.5642 64.217 72.9553 63.6878 73.2512 63.0969C73.6481 62.3046 73.8627 61.4237 73.8775 60.5265Z" fill="#5E82DE"/></svg>
