<svg xmlns="http://www.w3.org/2000/svg" width="512" height="512" fill="none" viewBox="0 0 512 512"><g filter="url(#a)"><rect width="512" height="512" fill="url(#b)" rx="110"/></g><rect width="507.029" height="507.029" x="2.485" y="2.485" stroke="url(#c)" stroke-width="4.971" rx="107.515"/><g filter="url(#d)"><path fill="url(#e)" d="M245.835 302.278s-.119 0-.159-.04c-4.506-1.477-5.502-7.465-1.715-10.339l86.477-65.871c.279-.199.797-.239.997-.119.598.399.797 1.157.279 1.636l-80.018 73.496a6.05 6.05 0 0 1-5.861 1.277v-.04Zm-104.338-43.394.199.199c2.273 2.116 5.462 2.915 8.493 2.196l162.308-39.722c1.594-.399 1.674-2.515.159-3.154a1.86 1.86 0 0 0-.877-.119l-165.338 24.631c-7.655 1.158-10.605 10.659-4.944 15.969Zm192.449-73.336L279.923 76.842a6.924 6.924 0 0 0-5.86-3.833h-.16c-5.582-.28-9.17 5.789-6.219 10.54l63.791 103.316c.159.24.677.559.677.559 1.196.519 2.392-.718 1.794-1.916v.04Zm-16.824-7.825L230.645 77.6a8.15 8.15 0 0 0-7.137-2.754h-.199c-6.818.798-9.609 9.222-4.665 13.972l95.328 91.78c.359.319.917.519.917.519 2.033.638 3.628-1.797 2.233-3.434v.04Zm7.654 45.351c-.279-.2-.757-.2-1.036-.08l-122.718 51.818c-6.22 2.635-5.781 11.578.638 13.574.08 0 .159.04.199.079 1.834.599 3.868.4 5.582-.519l117.335-62.796c.957-.559.519-1.717 0-2.076Zm-43.019-55.85L173.432 92.012a9.67 9.67 0 0 0-10.087-.559c-.079 0-.119.08-.199.12-6.698 3.593-6.738 13.174-.159 16.926l114.744 64.913a4.142 4.142 0 0 0 1.594.479c3.788.16 5.542-4.471 2.432-6.627v-.04Zm61.04 23.234L319.873 83.03a6.085 6.085 0 0 0-4.665-4.671h-.16c-4.505-.958-8.412 3.313-7.017 7.705l32.693 104.913c.08.28.359.599.598.639.838.24 1.635-.319 1.475-1.158Zm-7.455 38.005-60.96 77.169c-2.353 2.994-.997 7.425 2.671 8.583a5.41 5.41 0 0 0 6.14-2.236l53.624-82.438c.279-.439.12-1.038-.359-1.317-.359-.2-.837-.08-1.116.239Zm-9.649 198.65s.16-.04.24-.08a9.387 9.387 0 0 0 6.339-8.184l13.795-185.036c0-.359-.16-.759-.519-.918-.478-.2-1.275 0-1.395.678l-30.739 183.08c-1.157 6.987 5.542 12.735 12.24 10.46h.039Zm24.002-189.787 13.037 153.418c.598 7.026 9.25 10.021 14.034 4.831.04-.04.08-.12.16-.16a8.196 8.196 0 0 0 2.033-6.946l-27.031-151.422c-.04-.32-.359-.639-.559-.759-.638-.439-1.754.12-1.674 1.038Zm-.877-149.266c-3.668-1.358-7.496 1.477-7.296 5.39l5.103 100.162c0 .319.279.679.518.759.598.199 1.236-.12 1.276-.759l4.107-100.163a5.54 5.54 0 0 0-3.549-5.35s-.08 0-.119-.04h-.04Zm12 154.416c-.996-.599-2.79.359-2.312 1.717l31.935 91.539c2.074 5.909 10.685 5.031 11.483-1.197v-.16a5.707 5.707 0 0 0-.479-3.233l-40.108-88.027a2.028 2.028 0 0 0-.519-.639Zm-87.951-36.927c-.24-.08-.479-.2-.917-.24L120.486 189.54c-6.738-.719-12.4 5.11-11.363 11.817 0 .12 0 .239.04.359.757 5.03 5.103 8.703 10.167 8.783l152.42 1.796c3.987.04 4.864-5.469 1.117-6.786v.04Zm-36.84-34.014-105.693-39.242c-5.183-1.917-10.925.479-13.237 5.509 0 .08-.08.12-.08.199-2.751 5.949.558 12.895 6.858 14.612 0 0 108.803 29.342 108.883 29.342 1.555.439 3.309 0 4.625-.918 1.634-1.118 2.751-3.074 2.392-5.07-.359-1.996-1.754-3.753-3.668-4.471l-.08.039Zm103.621 59.324-85.719 193.339c-3.19 7.186 2.312 15.21 10.166 14.771h.24a10.572 10.572 0 0 0 9.409-7.146l67.618-200.286c.16-.439-.119-.958-.438-1.077a.968.968 0 0 0-1.236.439l-.04-.04ZM188.862 333.856l-72.323 55.092c-7.655 5.828-6.619 17.725 1.874 22.236.079.04-.08-.04 0 0 4.983 2.635 11.203 1.956 15.349-1.836l66.981-61.519c5.542-5.11 2.831-14.372-4.585-15.65-.08 0-.16 0-.239-.039-2.472-.44-5.024.199-7.057 1.716Zm60.242 3.793-62.156 78.725c-5.622 7.106-1.475 17.605 7.456 19.002.079 0 .199 0 .279.04 4.585.719 9.13-1.357 11.681-5.229l54.621-83.995c2.951-4.551.12-10.659-5.302-11.258a7.33 7.33 0 0 0-6.539 2.715h-.04Zm108.286-157.65c1.714-5.869 17.582-58.325 22.127-73.296.718-2.315-.359-4.791-2.472-5.908 0 0-.08 0-.08-.04a5.047 5.047 0 0 0-7.296 3.473l-15.23 75.052c-.279 1.358 1.196 2.356 2.353 1.597.199-.16.478-.319.637-.838l-.039-.04Zm44.613 110.702c0-.798-.239-1.557-.717-2.196l-28.028-38.843c-.16-.2-.479-.399-.638-.519-1.316-.679-2.672.878-1.914 2.156l24.36 41.278c1.914 3.274 6.937 1.917 6.937-1.916v.04Z"/></g><defs><linearGradient id="b" x1="95.068" x2="501.437" y1="45.359" y2="483.417" gradientUnits="userSpaceOnUse"><stop stop-color="#E4EFFF"/><stop offset=".48" stop-color="#F8F8F8"/><stop offset="1" stop-color="#F0D2EC"/></linearGradient><linearGradient id="c" x1="272.155" x2="272.155" y1="0" y2="512" gradientUnits="userSpaceOnUse"><stop stop-color="#F2FAFF"/><stop offset="1" stop-color="#EACEF4" stop-opacity=".45"/></linearGradient><linearGradient id="e" x1="95.525" x2="409.481" y1="165.198" y2="265.531" gradientUnits="userSpaceOnUse"><stop stop-color="#0031BD"/><stop offset=".271" stop-color="#454AFF"/><stop offset=".422" stop-color="#9E0DF3"/><stop offset=".641" stop-color="#E901C5"/><stop offset="1" stop-color="#FF0B4F"/></linearGradient><filter id="a" width="512" height="515.094" x="0" y="-3.094" color-interpolation-filters="sRGB" filterUnits="userSpaceOnUse"><feFlood flood-opacity="0" result="BackgroundImageFix"/><feBlend in="SourceGraphic" in2="BackgroundImageFix" result="shape"/><feColorMatrix in="SourceAlpha" result="hardAlpha" values="0 0 0 0 0 0 0 0 0 0 0 0 0 0 0 0 0 0 127 0"/><feOffset dy="-7.456"/><feGaussianBlur stdDeviation="1.547"/><feComposite in2="hardAlpha" k2="-1" k3="1" operator="arithmetic"/><feColorMatrix values="0 0 0 0 0.799036 0 0 0 0 0.731354 0 0 0 0 0.991667 0 0 0 1 0"/><feBlend in2="shape" result="effect1_innerShadow_2129_14619"/></filter><filter id="d" width="320.37" height="393.353" x="95.317" y="70.068" color-interpolation-filters="sRGB" filterUnits="userSpaceOnUse"><feFlood flood-opacity="0" result="BackgroundImageFix"/><feColorMatrix in="SourceAlpha" result="hardAlpha" values="0 0 0 0 0 0 0 0 0 0 0 0 0 0 0 0 0 0 127 0"/><feOffset dy="1"/><feGaussianBlur stdDeviation="1"/><feColorMatrix values="0 0 0 0 0 0 0 0 0 0 0 0 0 0 0 0 0 0 0.38 0"/><feBlend in2="BackgroundImageFix" result="effect1_dropShadow_2129_14619"/><feColorMatrix in="SourceAlpha" result="hardAlpha" values="0 0 0 0 0 0 0 0 0 0 0 0 0 0 0 0 0 0 127 0"/><feOffset dy="3.909"/><feGaussianBlur stdDeviation="2"/><feColorMatrix values="0 0 0 0 0 0 0 0 0 0 0 0 0 0 0 0 0 0 0.25 0"/><feBlend in2="effect1_dropShadow_2129_14619" result="effect2_dropShadow_2129_14619"/><feColorMatrix in="SourceAlpha" result="hardAlpha" values="0 0 0 0 0 0 0 0 0 0 0 0 0 0 0 0 0 0 127 0"/><feOffset dy="10.751"/><feGaussianBlur stdDeviation="6.8"/><feColorMatrix values="0 0 0 0 0.354167 0 0 0 0 0 0 0 0 0 0.708333 0 0 0 0.63 0"/><feBlend in2="effect2_dropShadow_2129_14619" result="effect3_dropShadow_2129_14619"/><feBlend in="SourceGraphic" in2="effect3_dropShadow_2129_14619" result="shape"/></filter></defs></svg>