<svg width="300" height="315" viewBox="0 0 300 315" fill="none" xmlns="http://www.w3.org/2000/svg">
<path fill-rule="evenodd" clip-rule="evenodd" d="M150.5 162.749C192.004 162.749 225.65 128.234 225.65 85.6574C225.65 43.0809 192.004 8.56574 150.5 8.56574C108.996 8.56574 75.35 43.0809 75.35 85.6574C75.35 128.234 108.996 162.749 150.5 162.749ZM150.5 171.315C196.616 171.315 234 132.965 234 85.6574C234 38.3501 196.616 0 150.5 0C104.384 0 67 38.3501 67 85.6574C67 132.965 104.384 171.315 150.5 171.315Z" fill="black" fill-opacity="0.05"/>
<ellipse cx="287.56" cy="292.244" rx="7.56014" ry="7.75547" fill="black" fill-opacity="0.02"/>
<ellipse cx="281.629" cy="57.3982" rx="3.62887" ry="3.72263" fill="black" fill-opacity="0.1"/>
<path fill-rule="evenodd" clip-rule="evenodd" d="M46.4674 108.135C50.6761 108.135 54.088 104.635 54.088 100.318C54.088 96.0002 50.6761 92.5002 46.4674 92.5002C42.2586 92.5002 38.8467 96.0002 38.8467 100.318C38.8467 104.635 42.2586 108.135 46.4674 108.135ZM46.4674 109.004C51.1437 109.004 54.9347 105.115 54.9347 100.318C54.9347 95.5205 51.1437 91.6316 46.4674 91.6316C41.791 91.6316 38 95.5205 38 100.318C38 105.115 41.791 109.004 46.4674 109.004Z" fill="black" fill-opacity="0.05"/>
<rect opacity="0.5" x="187" y="78.2957" width="103" height="6.15503" rx="3.07751" fill="black" fill-opacity="0.2"/>
<path opacity="0.5" d="M0 148.566C0 153.381 3.90863 157.285 8.73016 157.285H291.27C296.091 157.285 300 153.381 300 148.566C300 143.75 296.091 139.846 291.27 139.846H8.73016C3.90863 139.846 0 143.75 0 148.566Z" fill="black" fill-opacity="0.2"/>
<g opacity="0.5">
<path d="M240 226.826C240 226.098 240.574 225.507 241.282 225.507H282.718C283.426 225.507 284 226.098 284 226.826C284 227.555 283.426 228.145 282.718 228.145H241.282C240.574 228.145 240 227.555 240 226.826Z" fill="black" fill-opacity="0.1"/>
<path d="M240 229.464C240 229.221 240.191 229.024 240.427 229.024H267.767C268.003 229.024 268.194 229.221 268.194 229.464C268.194 229.707 268.003 229.904 267.767 229.904H240.427C240.191 229.904 240 229.707 240 229.464Z" fill="black" fill-opacity="0.1"/>
<path d="M240 231.223C240 230.98 240.191 230.783 240.427 230.783H255.806C256.042 230.783 256.233 230.98 256.233 231.223C256.233 231.466 256.042 231.662 255.806 231.662H240.427C240.191 231.662 240 231.466 240 231.223Z" fill="black" fill-opacity="0.1"/>
</g>
<g opacity="0.5">
<path d="M67 259.136C67 258.408 66.4262 257.817 65.7184 257.817H24.2816C23.5738 257.817 23 258.408 23 259.136C23 259.865 23.5738 260.455 24.2816 260.455H65.7184C66.4262 260.455 67 259.865 67 259.136Z" fill="black" fill-opacity="0.1"/>
<path d="M67 261.774C67 261.531 66.8087 261.335 66.5728 261.335H39.233C38.9971 261.335 38.8058 261.531 38.8058 261.774C38.8058 262.017 38.9971 262.214 39.233 262.214H66.5728C66.8087 262.214 67 262.017 67 261.774Z" fill="black" fill-opacity="0.1"/>
<path d="M67 263.533C67 263.29 66.8087 263.093 66.5728 263.093H51.1942C50.9582 263.093 50.767 263.29 50.767 263.533C50.767 263.776 50.9582 263.972 51.1942 263.972H66.5728C66.8087 263.972 67 263.776 67 263.533Z" fill="black" fill-opacity="0.1"/>
</g>
<g filter="url(#filter0_bd_9606_409845)">
<rect x="52.5" y="40" width="200" height="260" rx="50" fill="white" fill-opacity="0.5" shape-rendering="crispEdges"/>
<rect x="54.5" y="42" width="196" height="256" rx="48" stroke="black" stroke-opacity="0.1" stroke-width="4" shape-rendering="crispEdges"/>
</g>
<g opacity="0.5">
<path d="M81.5 231.286C81.5 228.919 83.3648 227 85.665 227H220.335C222.635 227 224.5 228.919 224.5 231.286C224.5 233.653 222.635 235.571 220.335 235.571H85.6651C83.3648 235.571 81.5 233.653 81.5 231.286Z" fill="black" fill-opacity="0.1"/>
<path d="M81.5 239.857C81.5 239.068 82.1216 238.429 82.8883 238.429H171.743C172.509 238.429 173.131 239.068 173.131 239.857C173.131 240.646 172.509 241.286 171.743 241.286H82.8883C82.1216 241.286 81.5 240.646 81.5 239.857Z" fill="black" fill-opacity="0.1"/>
<path d="M81.5 245.571C81.5 244.782 82.1216 244.143 82.8883 244.143H132.869C133.636 244.143 134.257 244.782 134.257 245.571C134.257 246.36 133.636 247 132.869 247H82.8884C82.1216 247 81.5 246.36 81.5 245.571Z" fill="black" fill-opacity="0.1"/>
</g>
<g opacity="0.5">
<path d="M81.5 251.857C81.5 251.068 82.1216 250.428 82.8883 250.428H211.743C212.509 250.428 213.131 251.068 213.131 251.857C213.131 252.646 212.509 253.286 211.743 253.286H82.8883C82.1216 253.286 81.5 252.646 81.5 251.857Z" fill="black" fill-opacity="0.1"/>
<path d="M81.5 257.571C81.5 256.782 82.1216 256.143 82.8883 256.143H152.869C153.636 256.143 154.257 256.782 154.257 257.571C154.257 258.36 153.636 259 152.869 259H82.8884C82.1216 259 81.5 258.36 81.5 257.571Z" fill="black" fill-opacity="0.1"/>
</g>
<path fill-rule="evenodd" clip-rule="evenodd" d="M180.628 137.957L180.544 137.951C180.048 137.906 179.6 137.673 179.181 137.363C178.171 139.701 176.993 141.966 175.669 144.084C175.408 144.502 175.142 144.914 174.869 145.32C173.627 147.172 172.271 148.892 170.818 150.427C170.521 150.741 170.22 151.048 169.915 151.346C166.339 154.868 170.075 160.805 174.628 160.805H181.132C195.048 160.805 206.328 172.101 206.328 186.035L206.333 193.031C206.333 197.433 202.771 201 198.37 201H114.291C109.895 201 106.333 197.428 106.333 193.031V186.035C106.333 172.101 117.614 160.805 131.53 160.814H138.024C142.568 160.814 146.325 154.87 142.738 151.355C142.25 150.881 141.773 150.385 141.306 149.871C140.528 149.013 139.78 148.102 139.064 147.146C138.619 146.552 138.186 145.941 137.766 145.315C137.539 144.975 137.315 144.632 137.096 144.284C135.771 142.185 134.589 139.937 133.574 137.612C133.482 137.665 133.388 137.712 133.293 137.754C133.168 137.809 133.041 137.853 132.911 137.887C132.718 137.937 132.52 137.963 132.315 137.963C128.661 137.963 124.372 129.882 124.372 124.371C124.372 119.354 124.793 115.203 127.626 114.5C127.904 114.43 128.207 114.394 128.534 114.394C128.809 114.394 129.111 114.453 129.409 114.511L129.515 114.531L129.527 113.902C129.557 112.566 129.609 111.202 129.696 109.827C129.756 108.885 129.832 107.937 129.929 106.989C129.953 106.747 129.979 106.506 130.007 106.264C130.199 104.571 130.46 102.883 130.814 101.227C132.337 94.1134 135.58 87.6032 142.438 83.9825C146.002 82.1011 150.543 81 156.326 81C162.408 81 167.136 82.3286 170.803 84.5608C178.077 88.9888 181.18 96.9723 182.413 105.193C182.505 105.804 182.586 106.416 182.658 107.028C182.958 109.579 183.095 112.129 183.138 114.58C183.601 114.463 184.065 114.39 184.494 114.39C184.787 114.39 185.06 114.418 185.314 114.474C185.325 114.476 185.335 114.478 185.346 114.481C185.422 114.498 185.496 114.518 185.568 114.54C188.257 115.362 188.661 119.448 188.661 124.366C188.661 129.877 184.372 137.959 180.717 137.959L180.628 137.957ZM192.995 186.035L192.996 187.667H119.667V186.035C119.667 179.446 124.995 174.143 131.52 174.148H138.024C146.464 174.148 156.325 174.138 156.325 174.138H181.132C187.667 174.138 192.995 179.447 192.995 186.035Z" fill="black" fill-opacity="0.3"/>
<defs>
<filter id="filter0_bd_9606_409845" x="37.5" y="25" width="230" height="290" filterUnits="userSpaceOnUse" color-interpolation-filters="sRGB">
<feFlood flood-opacity="0" result="BackgroundImageFix"/>
<feGaussianBlur in="BackgroundImageFix" stdDeviation="2.5"/>
<feComposite in2="SourceAlpha" operator="in" result="effect1_backgroundBlur_9606_409845"/>
<feColorMatrix in="SourceAlpha" type="matrix" values="0 0 0 0 0 0 0 0 0 0 0 0 0 0 0 0 0 0 127 0" result="hardAlpha"/>
<feOffset/>
<feGaussianBlur stdDeviation="7.5"/>
<feComposite in2="hardAlpha" operator="out"/>
<feColorMatrix type="matrix" values="0 0 0 0 0 0 0 0 0 0 0 0 0 0 0 0 0 0 0.05 0"/>
<feBlend mode="normal" in2="effect1_backgroundBlur_9606_409845" result="effect2_dropShadow_9606_409845"/>
<feBlend mode="normal" in="SourceGraphic" in2="effect2_dropShadow_9606_409845" result="shape"/>
</filter>
</defs>
</svg>
