<svg width="380" height="380" viewBox="0 0 380 380" fill="none" xmlns="http://www.w3.org/2000/svg">
  <path fill-rule="evenodd" clip-rule="evenodd" d="M126.751 297.077C161.172 297.077 189.077 269.172 189.077 234.751C189.077 200.329 161.172 172.425 126.751 172.425C92.3293 172.425 64.4251 200.329 64.4251 234.751C64.4251 269.172 92.3293 297.077 126.751 297.077ZM126.751 304.002C164.997 304.002 196.002 272.997 196.002 234.751C196.002 196.505 164.997 165.5 126.751 165.5C88.5047 165.5 57.5 196.505 57.5 234.751C57.5 272.997 88.5047 304.002 126.751 304.002Z" fill="black" fill-opacity="0.05"/>
  <circle cx="307.06" cy="290.56" r="7.56014" fill="black" fill-opacity="0.02"/>
  <circle cx="301.129" cy="41.6289" r="3.62887" fill="black" fill-opacity="0.1"/>
  <path fill-rule="evenodd" clip-rule="evenodd" d="M65.9674 91.088C70.1761 91.088 73.588 87.6761 73.588 83.4674C73.588 79.2586 70.1761 75.8467 65.9674 75.8467C61.7586 75.8467 58.3467 79.2586 58.3467 83.4674C58.3467 87.6761 61.7586 91.088 65.9674 91.088ZM65.9674 91.9347C70.6437 91.9347 74.4347 88.1437 74.4347 83.4674C74.4347 78.791 70.6437 75 65.9674 75C61.291 75 57.5 78.791 57.5 83.4674C57.5 88.1437 61.291 91.9347 65.9674 91.9347Z" fill="black" fill-opacity="0.05"/>
  <rect opacity="0.5" x="206.5" y="62" width="103" height="6" rx="3" fill="black" fill-opacity="0.2"/>
  <path opacity="0.5" d="M20.5 130.5C20.5 135.194 24.4086 139 29.2302 139H311.77C316.591 139 320.5 135.194 320.5 130.5C320.5 125.806 316.591 122 311.77 122H29.2302C24.4086 122 20.5 125.806 20.5 130.5Z" fill="black" fill-opacity="0.2"/>
  <g opacity="0.5">
    <path d="M279.5 226.286C279.5 225.576 280.074 225 280.782 225H322.218C322.926 225 323.5 225.576 323.5 226.286C323.5 226.996 322.926 227.571 322.218 227.571H280.782C280.074 227.571 279.5 226.996 279.5 226.286Z" fill="black" fill-opacity="0.1"/>
    <path d="M279.5 228.857C279.5 228.62 279.691 228.429 279.927 228.429H307.267C307.503 228.429 307.694 228.62 307.694 228.857C307.694 229.094 307.503 229.286 307.267 229.286H279.927C279.691 229.286 279.5 229.094 279.5 228.857Z" fill="black" fill-opacity="0.1"/>
    <path d="M279.5 230.571C279.5 230.335 279.691 230.143 279.927 230.143H295.306C295.542 230.143 295.733 230.335 295.733 230.571C295.733 230.808 295.542 231 295.306 231H279.927C279.691 231 279.5 230.808 279.5 230.571Z" fill="black" fill-opacity="0.1"/>
  </g>
  <g opacity="0.5">
    <path d="M116.5 238.286C116.5 237.576 115.926 237 115.218 237H73.7816C73.0738 237 72.5 237.576 72.5 238.286C72.5 238.996 73.0738 239.571 73.7816 239.571H115.218C115.926 239.571 116.5 238.996 116.5 238.286Z" fill="black" fill-opacity="0.1"/>
    <path d="M116.5 240.857C116.5 240.62 116.309 240.429 116.073 240.429H88.733C88.4971 240.429 88.3058 240.62 88.3058 240.857C88.3058 241.094 88.4971 241.286 88.733 241.286H116.073C116.309 241.286 116.5 241.094 116.5 240.857Z" fill="black" fill-opacity="0.1"/>
    <path d="M116.5 242.571C116.5 242.335 116.309 242.143 116.073 242.143H100.694C100.458 242.143 100.267 242.335 100.267 242.571C100.267 242.808 100.458 243 100.694 243H116.073C116.309 243 116.5 242.808 116.5 242.571Z" fill="black" fill-opacity="0.1"/>
  </g>
  <g filter="url(#filter0_bd_2288_161844)">
    <rect x="89.5" y="25.5" width="200" height="300" rx="50" fill="white" fill-opacity="0.5" shape-rendering="crispEdges"/>
    <rect x="91.5" y="27.5" width="196" height="296" rx="48" stroke="black" stroke-opacity="0.1" stroke-width="4" shape-rendering="crispEdges"/>
  </g>
  <g opacity="0.5">
    <path d="M118.5 256.786C118.5 254.419 120.365 252.5 122.665 252.5H257.335C259.635 252.5 261.5 254.419 261.5 256.786C261.5 259.153 259.635 261.071 257.335 261.071H122.665C120.365 261.071 118.5 259.153 118.5 256.786Z" fill="black" fill-opacity="0.1"/>
    <path d="M118.5 265.357C118.5 264.568 119.122 263.929 119.888 263.929H208.743C209.509 263.929 210.131 264.568 210.131 265.357C210.131 266.146 209.509 266.786 208.743 266.786H119.888C119.122 266.786 118.5 266.146 118.5 265.357Z" fill="black" fill-opacity="0.1"/>
    <path d="M118.5 271.071C118.5 270.282 119.122 269.643 119.888 269.643H169.869C170.636 269.643 171.257 270.282 171.257 271.071C171.257 271.86 170.636 272.5 169.869 272.5H119.888C119.122 272.5 118.5 271.86 118.5 271.071Z" fill="black" fill-opacity="0.1"/>
  </g>
  <g opacity="0.5">
    <path d="M118.5 277.357C118.5 276.568 119.122 275.928 119.888 275.928H248.743C249.509 275.928 250.131 276.568 250.131 277.357C250.131 278.146 249.509 278.786 248.743 278.786H119.888C119.122 278.786 118.5 278.146 118.5 277.357Z" fill="black" fill-opacity="0.1"/>
    <path d="M118.5 283.071C118.5 282.282 119.122 281.643 119.888 281.643H189.869C190.636 281.643 191.257 282.282 191.257 283.071C191.257 283.86 190.636 284.5 189.869 284.5H119.888C119.122 284.5 118.5 283.86 118.5 283.071Z" fill="black" fill-opacity="0.1"/>
  </g>
  <path fill-rule="evenodd" clip-rule="evenodd" d="M211.237 193.552C204.057 195.962 196.373 197.267 188.383 197.267C148.672 197.267 116.479 165.009 116.479 125.216C116.479 85.423 148.672 53.1646 188.383 53.1646C228.095 53.1646 260.287 85.423 260.287 125.216C260.287 148.678 249.096 169.521 231.771 182.677L256.186 216.327C259.504 220.421 259.198 226.366 255.476 230.096L250.537 235.045C245.89 239.701 238.135 238.848 234.607 233.293L211.237 193.552ZM239.743 125.216C239.743 153.639 216.749 176.681 188.383 176.681C160.018 176.681 137.023 153.639 137.023 125.216C137.023 96.7924 160.018 73.7506 188.383 73.7506C216.749 73.7506 239.743 96.7924 239.743 125.216Z" fill="black" fill-opacity="0.2"/>
  <defs>
    <filter id="filter0_bd_2288_161844" x="64.5" y="0.5" width="250" height="350" filterUnits="userSpaceOnUse" color-interpolation-filters="sRGB">
      <feFlood flood-opacity="0" result="BackgroundImageFix"/>
      <feGaussianBlur in="BackgroundImage" stdDeviation="5"/>
      <feComposite in2="SourceAlpha" operator="in" result="effect1_backgroundBlur_2288_161844"/>
      <feColorMatrix in="SourceAlpha" type="matrix" values="0 0 0 0 0 0 0 0 0 0 0 0 0 0 0 0 0 0 127 0" result="hardAlpha"/>
      <feOffset/>
      <feGaussianBlur stdDeviation="12.5"/>
      <feComposite in2="hardAlpha" operator="out"/>
      <feColorMatrix type="matrix" values="0 0 0 0 0 0 0 0 0 0 0 0 0 0 0 0 0 0 0.05 0"/>
      <feBlend mode="normal" in2="effect1_backgroundBlur_2288_161844" result="effect2_dropShadow_2288_161844"/>
      <feBlend mode="normal" in="SourceGraphic" in2="effect2_dropShadow_2288_161844" result="shape"/>
    </filter>
  </defs>
</svg>
