<svg width="268" height="71" viewBox="0 0 268 71" fill="none" xmlns="http://www.w3.org/2000/svg"><path d="M71.4798 44.9772C70.8297 44.9769 70.1804 45.0229 69.5368 45.1147C68.6625 45.2166 67.8568 45.6382 67.2748 46.2985C66.6928 46.9588 66.3756 47.8111 66.3844 48.6912V56.3257C66.3844 58.1999 67.9205 59.6787 70.0411 59.8392C70.5226 59.8736 71.0155 59.8965 71.4855 59.8965C71.9198 59.906 72.3544 59.8888 72.7866 59.8449C74.9818 59.673 76.3287 58.4636 76.5694 56.406C76.8152 53.7369 76.8152 51.0508 76.5694 48.3817C76.5038 47.5689 76.1641 46.8024 75.606 46.2078C75.0479 45.6132 74.3044 45.2258 73.4973 45.109C72.8283 45.0223 72.1544 44.9783 71.4798 44.9772ZM65.8857 69.1874C64.9114 69.1874 63.0601 68.6544 63.0601 66.6426V47.6022C63.0601 45.6821 64.5044 44.0142 65.4731 43.3723C66.6317 42.715 67.9101 42.296 69.233 42.14C70.0684 42.0436 70.9082 41.99 71.7492 41.9795C72.7128 41.9732 73.6741 42.0751 74.615 42.2833C77.4063 42.9252 79.0971 44.7422 79.653 47.6252C79.7854 48.3629 79.8525 49.1109 79.8536 49.8605V50.5827C79.8536 52.2104 79.9052 53.8898 79.8536 55.5462C79.8019 56.5744 79.5951 57.5889 79.2404 58.5553C78.4035 60.8136 76.6841 62.2063 74.1278 62.6706C73.4034 62.8013 72.6687 62.8665 71.9326 62.8655C71.2905 62.8636 70.6493 62.8215 70.0125 62.7394C69.2753 62.673 68.561 62.4487 67.9182 62.0818C67.2754 61.7149 66.719 61.2139 66.287 60.613V69.176L65.8857 69.1874Z" fill="#333333"/><path d="M142.076 69.1072C141.942 69.1187 141.808 69.1187 141.675 69.1072L141.193 69.0327L144.019 62.2235C144.306 61.6991 144.405 61.0925 144.3 60.5041C142.58 56.2971 140.975 52.2448 139.325 48.1066L137.714 44.0945C137.422 43.3781 137.256 42.8679 137.502 42.5183C137.749 42.1687 138.287 42.1515 139.021 42.1515C139.399 42.1183 139.775 42.2248 140.08 42.4509C140.384 42.677 140.595 43.0069 140.672 43.3781C141.061 44.3467 145.452 55.4144 146.271 57.4491L151.883 43.4984C151.999 43.0921 152.24 42.7322 152.57 42.4692C152.901 42.2061 153.306 42.053 153.728 42.0311C154.028 42.0373 154.323 42.0995 154.599 42.2145C154.806 42.2723 154.981 42.4083 155.088 42.5936C155.195 42.7789 155.225 42.9987 155.173 43.2061C155.173 43.2061 155.173 43.2634 155.173 43.2921L145.738 66.6311C145.45 67.3691 144.942 68.0006 144.283 68.4403C143.623 68.8801 142.845 69.1069 142.053 69.09" fill="#333333"/><path d="M91.4888 53.2307C90.2623 53.2307 89.1503 53.2651 88.3479 53.3396C86.3075 53.523 85.5222 54.2853 85.4821 56.1595V57.3058C85.4714 57.6285 85.5245 57.9501 85.6383 58.2522C85.7522 58.5543 85.9245 58.831 86.1455 59.0663C86.3665 59.3017 86.6318 59.4911 86.9261 59.6237C87.2204 59.7564 87.538 59.8296 87.8607 59.8392C87.9294 59.845 87.9984 59.845 88.0671 59.8392C88.6402 59.8392 89.1217 59.8736 89.5687 59.8736C90.0158 59.8736 90.5087 59.8736 90.9329 59.8335C91.7616 59.8032 92.5701 59.5699 93.2877 59.1542C94.0052 58.7385 94.6097 58.153 95.0482 57.4491C95.6672 56.5092 95.6672 55.4717 95.6213 54.377V53.8038C95.6328 53.6589 95.6328 53.5132 95.6213 53.3682C95.4642 53.3394 95.3052 53.3222 95.1456 53.3167C94.1196 53.2651 92.767 53.2307 91.4888 53.2307ZM98.3668 62.8598C97.421 62.8598 95.6328 62.3267 95.6328 60.3035V60.1716L95.5869 60.2232C94.9868 61.0151 94.2162 61.6617 93.3321 62.1151C92.4481 62.5686 91.4733 62.8172 90.4801 62.8426H89.6031C88.7052 62.8494 87.8082 62.7842 86.9208 62.6477C85.8971 62.526 84.9342 62.0973 84.1588 61.418C83.3833 60.7387 82.8316 59.8407 82.5762 58.8419C82.1348 57.3668 82.1348 55.7948 82.5762 54.3197C82.8106 53.3446 83.3478 52.4688 84.1109 51.818C84.8739 51.1673 85.8235 50.7749 86.8233 50.6973C88.4296 50.5197 90.0447 50.4335 91.6608 50.4394C92.8873 50.4394 94.1196 50.4852 95.1628 50.5655H95.4035C95.4776 50.5769 95.553 50.5769 95.627 50.5655C95.652 50.3752 95.652 50.1826 95.627 49.9923C95.5929 48.9617 95.4837 47.9349 95.3003 46.9202C95.1112 46.0146 94.4807 45.4472 93.3688 45.2007C92.6351 45.0348 91.8857 44.9484 91.1335 44.9428C90.1549 44.9062 89.1798 45.0791 88.2734 45.4498C87.367 45.8204 86.5502 46.3804 85.8776 47.0921C85.7516 47.2783 85.5881 47.4362 85.3976 47.5556C85.2072 47.675 84.9939 47.7534 84.7714 47.7857C84.612 47.7845 84.4557 47.741 84.3186 47.6596C83.877 47.3848 83.4659 47.064 83.092 46.7024C82.8857 46.4961 82.7825 46.0547 83.2239 45.4701C84.2736 44.1427 85.6849 43.1475 87.2876 42.6043C88.5469 42.2108 89.8601 42.0174 91.1793 42.0311C92.2118 42.0238 93.242 42.1295 94.2515 42.3464C95.2482 42.5167 96.1719 42.9792 96.9056 43.6751C97.6392 44.371 98.1497 45.269 98.3725 46.2553C98.6057 47.1765 98.7402 48.1199 98.7737 49.0695C98.9342 52.755 98.7737 62.3898 98.7737 62.4815V62.854L98.3668 62.8598Z" fill="#333333"/><path d="M105.697 62.8541C104.735 62.8541 102.923 62.3325 102.923 60.3493V42.0656H103.302C104.276 42.0656 106.122 42.5642 106.122 44.4556V44.49H106.156C106.695 43.9353 107.299 43.4483 107.956 43.0399C109.018 42.4071 110.238 42.0872 111.475 42.1171C111.897 42.117 112.318 42.1458 112.736 42.2031C113.392 42.2605 114.039 42.3991 114.662 42.6158C114.895 42.6765 115.094 42.8269 115.216 43.0342C115.339 43.2414 115.374 43.4887 115.315 43.722C115.304 43.7629 115.291 43.8031 115.275 43.8424C115.173 44.1445 115.034 44.4332 114.862 44.7021V44.7479C114.792 44.9026 114.679 45.0342 114.537 45.1276C114.395 45.2209 114.23 45.2721 114.06 45.2752C113.851 45.2652 113.644 45.2345 113.441 45.1835C112.781 45.0292 112.106 44.9485 111.429 44.9428C110.645 44.9309 109.867 45.0711 109.136 45.3555C108.509 45.6289 107.91 45.963 107.348 46.3528C106.931 46.6233 106.596 47.003 106.38 47.4507C106.163 47.8985 106.074 48.3969 106.122 48.8919V62.9114L105.697 62.8541Z" fill="#333333"/><path d="M120.605 62.5617C119.648 62.5617 117.831 62.086 117.831 60.2691V42.0082H118.221C118.575 41.9998 118.928 42.0614 119.259 42.1894C119.59 42.3173 119.892 42.5092 120.148 42.7541C120.405 42.9989 120.611 43.2919 120.754 43.6163C120.897 43.9407 120.975 44.2902 120.984 44.6447C120.989 44.6827 120.989 44.7214 120.984 44.7594V62.5732L120.605 62.5617Z" fill="#333333"/><path d="M130.085 62.5617C129.163 62.5617 127.426 62.086 127.426 60.2691V45.3669H125.105C124.629 45.3669 124.377 44.8339 124.377 44.4499V42.9596C124.377 42.5642 124.617 42.3464 125.105 42.3464H127.426V36.695H127.804C128.727 36.695 130.469 37.0389 130.469 38.9475V42.3406H134.997C135.662 42.3406 135.8 42.6559 135.8 42.9539V44.4613C135.797 44.6846 135.714 44.8995 135.567 45.0675C135.42 45.2355 135.218 45.3457 134.997 45.3784H130.469V62.5732L130.085 62.5617Z" fill="#333333"/><path d="M119.402 38.0419C118.974 38.0385 118.557 37.9086 118.203 37.6685C117.849 37.4284 117.574 37.0888 117.412 36.6927C117.251 36.2965 117.211 35.8614 117.296 35.4423C117.382 35.0232 117.589 34.6387 117.893 34.3374C118.197 34.0362 118.583 33.8315 119.002 33.7493C119.422 33.6671 119.857 33.711 120.252 33.8755C120.647 34.0399 120.984 34.3176 121.221 34.6735C121.459 35.0294 121.585 35.4476 121.585 35.8754C121.586 36.1616 121.53 36.4451 121.42 36.7094C121.311 36.9737 121.15 37.2136 120.946 37.4152C120.743 37.6168 120.502 37.776 120.237 37.8836C119.972 37.9911 119.688 38.045 119.402 38.0419Z" fill="#333333"/><path d="M184.536 56.8416C184.536 61.0314 181.355 62.642 177.698 62.642H176.081C172.396 62.642 170 60.825 169.393 57.644C169.312 57.2829 169.513 57.0307 169.92 57.0307H170.929C171.073 57.0303 171.212 57.0843 171.319 57.1821C171.425 57.2798 171.49 57.4141 171.502 57.558V57.5924C172.023 59.7704 173.433 60.6646 176.087 60.6646H177.703C180.432 60.6646 182.57 59.822 182.57 56.7957C182.57 53.7694 179.956 53.4485 176.97 53.1103C172.62 52.6346 169.719 51.8838 169.719 47.5163C169.719 43.6876 172.304 42.163 176.288 42.163H177.434C181.177 42.163 183.739 43.8481 183.876 47.5163C183.876 47.9175 183.762 48.1639 183.303 48.1639H182.444C182.281 48.1639 182.125 48.0993 182.01 47.9843C181.895 47.8693 181.83 47.7133 181.83 47.5507V47.4991C181.624 45.0803 180.139 43.957 177.36 43.957H176.368C173.468 43.957 171.691 44.7938 171.691 47.5335C171.691 50.4394 173.789 50.9208 176.97 51.2819C181.12 51.8494 184.536 52.3251 184.536 56.8416Z" fill="#333333"/><path d="M189.551 42.2948H190.319C190.388 42.2834 190.459 42.2857 190.527 42.3017C190.596 42.3177 190.66 42.3471 190.717 42.3881C190.774 42.4291 190.822 42.4809 190.859 42.5407C190.896 42.6004 190.921 42.6668 190.932 42.7362C190.943 42.7929 190.943 42.8514 190.932 42.9081V61.8224C190.947 61.9063 190.942 61.9926 190.917 62.074C190.891 62.1554 190.846 62.2295 190.786 62.2898C190.726 62.3501 190.652 62.3948 190.57 62.4202C190.489 62.4457 190.403 62.451 190.319 62.4357H189.551C189.47 62.4437 189.389 62.4332 189.314 62.4049C189.238 62.3767 189.17 62.3315 189.115 62.2728C189.059 62.2141 189.018 62.1435 188.994 62.0664C188.971 61.9893 188.965 61.9078 188.977 61.8281V42.9138C188.967 42.8446 188.97 42.7739 188.987 42.7059C189.004 42.6379 189.034 42.5738 189.075 42.5174C189.117 42.461 189.169 42.4133 189.229 42.3771C189.289 42.3408 189.355 42.3168 189.425 42.3063C189.466 42.2975 189.508 42.2937 189.551 42.2948ZM189.631 34.2419H190.244C190.383 34.2272 190.523 34.2639 190.637 34.3452C190.751 34.4265 190.832 34.5468 190.863 34.6833C190.869 34.7404 190.869 34.798 190.863 34.8552V35.7436C190.876 35.8844 190.836 36.0249 190.751 36.1381C190.667 36.2513 190.543 36.3292 190.405 36.3569H189.631C189.562 36.3684 189.491 36.366 189.422 36.35C189.354 36.334 189.29 36.3047 189.233 36.2637C189.176 36.2227 189.127 36.1708 189.09 36.1111C189.053 36.0513 189.029 35.9849 189.018 35.9156C189.006 35.8588 189.006 35.8004 189.018 35.7436V34.8552C188.993 34.7176 189.023 34.5758 189.103 34.4607C189.182 34.3457 189.304 34.267 189.442 34.2419C189.508 34.2301 189.576 34.2301 189.642 34.2419H189.631Z" fill="#333333"/><path d="M211.612 42.9138V63.6221C211.612 68.2532 208.746 70.5 203.272 70.5C202.065 70.5376 200.859 70.4162 199.684 70.1389C199.449 70.1045 199.323 69.9784 199.323 69.7778V68.5512C199.323 68.3105 199.449 68.1844 199.684 68.2303C200.86 68.5048 202.066 68.6261 203.272 68.5914C207.181 68.5914 209.64 67.7431 209.64 63.6794V59.3749C208.792 61.3925 207.135 62.642 204.161 62.642H202.733C198.544 62.642 195.598 59.9424 195.598 55.2253V49.4937C195.598 44.6963 198.544 42.1572 202.733 42.1572H204.183C207.158 42.1572 208.815 43.2061 209.663 45.1778V42.9138C209.651 42.8449 209.652 42.7742 209.667 42.7058C209.683 42.6375 209.712 42.5729 209.752 42.5158C209.793 42.4587 209.844 42.4103 209.904 42.3733C209.963 42.3364 210.029 42.3116 210.098 42.3005C210.157 42.2891 210.217 42.2891 210.276 42.3005H211.044C211.182 42.2877 211.32 42.3298 211.427 42.4178C211.535 42.5058 211.603 42.6325 211.617 42.7705C211.621 42.8183 211.619 42.8664 211.612 42.9138ZM209.64 55.4029V49.5854C209.64 45.8369 207.794 44.0601 204.441 44.0601H202.722C199.375 44.0601 197.523 45.8713 197.523 49.5854V55.3915C197.523 58.8304 199.369 60.7047 202.722 60.7047H204.441C207.783 60.6817 209.64 58.8534 209.64 55.3915V55.4029Z" fill="#333333"/><path d="M231.391 49.2644V61.8281C231.407 61.912 231.401 61.9983 231.376 62.0797C231.351 62.1611 231.306 62.2352 231.245 62.2955C231.185 62.3558 231.111 62.4005 231.03 62.4259C230.948 62.4514 230.862 62.4566 230.778 62.4414H230.01C229.926 62.4566 229.84 62.4514 229.758 62.4259C229.677 62.4005 229.603 62.3558 229.543 62.2955C229.482 62.2352 229.438 62.1611 229.412 62.0797C229.387 61.9983 229.381 61.912 229.397 61.8281V49.3905C229.397 45.8828 228.594 44.0257 225.006 44.0257H224.324C223.148 44.009 221.988 44.2923 220.952 44.8489C219.916 45.4055 219.039 46.217 218.404 47.2068V61.8281C218.415 61.8973 218.413 61.9682 218.397 62.0366C218.381 62.1049 218.351 62.1694 218.31 62.2264C218.269 62.2834 218.217 62.3317 218.158 62.3686C218.098 62.4055 218.032 62.4302 217.962 62.4414C217.905 62.4528 217.847 62.4528 217.79 62.4414H217.028C216.959 62.4537 216.888 62.4521 216.82 62.4368C216.752 62.4215 216.687 62.3927 216.63 62.3522C216.573 62.3116 216.524 62.2601 216.488 62.2006C216.451 62.1411 216.426 62.0749 216.415 62.0058C216.403 61.9471 216.403 61.8868 216.415 61.8281V42.9138C216.404 42.8438 216.407 42.7724 216.425 42.7037C216.442 42.635 216.472 42.5703 216.514 42.5133C216.556 42.4564 216.609 42.4083 216.67 42.3717C216.73 42.3352 216.797 42.311 216.868 42.3005H217.79C217.86 42.29 217.932 42.2933 218 42.3103C218.069 42.3274 218.134 42.3578 218.191 42.3998C218.248 42.4419 218.296 42.4947 218.332 42.5554C218.369 42.6161 218.393 42.6833 218.404 42.7533C218.409 42.8067 218.409 42.8605 218.404 42.9138V45.4529C219.09 44.4145 220.028 43.5666 221.131 42.9884C222.233 42.4101 223.464 42.1203 224.708 42.1458H225.035C229.781 42.1343 231.391 44.553 231.391 49.2644Z" fill="#333333"/><path d="M251.211 49.4249V51.964C251.212 52.1256 251.181 52.2857 251.12 52.4352C251.058 52.5846 250.968 52.7205 250.854 52.835C250.74 52.9495 250.605 53.0404 250.455 53.1024C250.306 53.1644 250.146 53.1963 249.985 53.1963H237.696V55.5692C237.696 58.8362 239.536 60.6875 242.895 60.6875H244.219C247.039 60.6875 247.807 59.5412 249.056 58.0338C249.337 57.7071 249.498 57.6268 249.899 57.9077L250.426 58.2745C250.827 58.5553 250.787 58.7961 250.546 59.117C249.096 60.8881 247.64 62.619 244.242 62.619H242.855C238.619 62.619 235.598 59.9596 235.598 55.4545V49.4478C235.598 44.6505 238.619 42.1114 242.855 42.1114H244.179C247.669 42.1343 251.211 44.7135 251.211 49.4249ZM249.159 49.5854C249.159 45.8369 247.021 44.0601 244.202 44.0601H242.855C239.502 44.0601 237.656 45.8713 237.656 49.5854V51.431H249.119L249.159 49.5854Z" fill="#333333"/><path d="M265.873 44.3525C265.213 44.1239 264.519 44.0133 263.821 44.0258H263.334C262.158 44.009 260.997 44.2923 259.961 44.8489C258.925 45.4055 258.048 46.217 257.413 47.2068V61.8281C257.428 61.912 257.423 61.9984 257.398 62.0798C257.372 62.1612 257.327 62.2352 257.267 62.2955C257.207 62.3558 257.133 62.4006 257.051 62.426C256.97 62.4514 256.884 62.4567 256.8 62.4414H256.037C255.953 62.4567 255.867 62.4514 255.786 62.426C255.704 62.4006 255.63 62.3558 255.57 62.2955C255.51 62.2352 255.465 62.1612 255.439 62.0798C255.414 61.9984 255.409 61.912 255.424 61.8281V42.9138C255.413 42.8446 255.415 42.7737 255.431 42.7054C255.447 42.637 255.476 42.5725 255.517 42.5155C255.558 42.4585 255.61 42.4102 255.67 42.3733C255.73 42.3364 255.796 42.3117 255.865 42.3006C255.922 42.2891 255.981 42.2891 256.037 42.3006H256.805C256.875 42.2891 256.946 42.2914 257.014 42.3074C257.082 42.3234 257.147 42.3528 257.204 42.3938C257.261 42.4348 257.309 42.4867 257.346 42.5464C257.383 42.6061 257.408 42.6726 257.419 42.7419C257.43 42.7986 257.43 42.8571 257.419 42.9138V45.4529C258.14 44.3841 259.124 43.5187 260.276 42.9395C261.429 42.3604 262.71 42.0871 263.999 42.1458C264.881 42.1513 265.761 42.261 266.618 42.4725C266.756 42.5151 266.873 42.6086 266.946 42.7341C267.018 42.8595 267.04 43.0077 267.008 43.1488C267.001 43.1783 266.991 43.2071 266.979 43.2348L266.652 44.0602C266.605 44.1928 266.508 44.3017 266.381 44.3629C266.255 44.4241 266.109 44.4327 265.976 44.3869C265.941 44.3787 265.906 44.3672 265.873 44.3525Z" fill="#333333"/><path d="M39.1937 0.5L0.98114 24.3778L6.00202 32.4021L16.594 25.8509V20.6924H24.8876L44.3063 8.65606L39.1937 0.5ZM45.6418 10.8169L29.685 20.7211H47.5561L50.6282 18.8411L45.6418 10.8169ZM51.9924 20.9446L47.9229 23.4264V28.0633H40.4432L30.0633 34.517H46.9944L56.6923 28.5046L51.9924 20.9446ZM17.7862 28.0862L7.34321 34.5744L12.3297 42.5585L16.6341 39.8933V34.517H25.2774L35.6573 28.0862H17.7862ZM58.0277 30.6425L47.9802 36.8899V41.8879H39.8872L19.7349 54.377L24.859 62.5732L63.0715 38.6954L58.0277 30.6425ZM18.1759 41.8879L13.6766 44.6792L18.4109 52.2449L35.0956 41.8879H18.1759Z" fill="#333333"/></svg>
