<svg width="320" height="321" viewBox="0 0 320 321" fill="none" xmlns="http://www.w3.org/2000/svg"><path d="M239.999 318.722C239.999 317.74 240.795 316.944 241.776 316.944H284.444C302.118 316.944 316.444 302.618 316.444 284.944V262.28C316.444 261.298 317.24 260.502 318.222 260.502C319.204 260.502 320 261.298 320 262.28V284.944C320 304.581 304.081 320.5 284.444 320.5H241.776C240.795 320.5 239.999 319.704 239.999 318.722Z" fill="currentColor"/><path d="M1.77778 260.502C2.75962 260.502 3.55556 261.298 3.55556 262.28V284.944C3.55556 302.618 17.8824 316.944 35.5556 316.944H78.2209C79.2028 316.944 79.9987 317.74 79.9987 318.722C79.9987 319.704 79.2028 320.5 78.2209 320.5H35.5556C15.9188 320.5 0 304.581 0 284.944V262.28C0 261.298 0.795938 260.502 1.77778 260.502Z" fill="currentColor"/><path d="M79.9987 2.27778C79.9987 3.25962 79.2028 4.05556 78.2209 4.05556H35.5556C17.8824 4.05556 3.55556 18.3824 3.55556 36.0556V58.724C3.55556 59.7059 2.75962 60.5018 1.77778 60.5018C0.795938 60.5018 0 59.7059 0 58.724V36.0556C0 16.4188 15.9188 0.5 35.5556 0.5H78.2209C79.2028 0.5 79.9987 1.29594 79.9987 2.27778Z" fill="currentColor"/><path d="M239.999 2.27778C239.999 3.25962 240.795 4.05556 241.777 4.05556H284.444C302.118 4.05556 316.444 18.3824 316.444 36.0556V58.724C316.444 59.7059 317.24 60.5018 318.222 60.5018C319.204 60.5018 320 59.7059 320 58.724V36.0556C320 16.4188 304.081 0.5 284.444 0.5H241.777C240.795 0.5 239.999 1.29594 239.999 2.27778Z" fill="currentColor"/></svg>
