<svg width="240" height="240" viewBox="0 0 240 240" fill="none" xmlns="http://www.w3.org/2000/svg">
<path fill-rule="evenodd" clip-rule="evenodd" d="M38.4004 0H32.8556C21.3551 0 15.6048 0 11.2122 2.23815C7.34831 4.20689 4.20689 7.34831 2.23816 11.2122C0 15.6048 0 21.3551 0 32.8556V40.3184H5.13369V32.8556C5.13369 27.0206 5.13768 22.9531 5.39641 19.7865C5.65024 16.6797 6.12344 14.8948 6.81231 13.5428C8.28886 10.6449 10.6449 8.28886 13.5428 6.81231C14.8948 6.12344 16.6797 5.65024 19.7865 5.39641C22.9531 5.13768 27.0206 5.13369 32.8556 5.13369H38.4004V0ZM201.6 5.13369V0H207.144C218.645 0 224.395 0 228.788 2.23815C232.652 4.20689 235.793 7.34831 237.762 11.2122C240 15.6048 240 21.3551 240 32.8556V40.3184H234.866V32.8556C234.866 27.0206 234.862 22.9531 234.604 19.7865C234.35 16.6797 233.877 14.8948 233.188 13.5428C231.711 10.6449 229.355 8.28886 226.457 6.81231C225.105 6.12344 223.32 5.65024 220.214 5.39641C217.047 5.13768 212.979 5.13369 207.144 5.13369H201.6ZM201.6 234.866H207.144C212.979 234.866 217.047 234.862 220.214 234.604C223.32 234.35 225.105 233.877 226.457 233.188C229.355 231.711 231.711 229.355 233.188 226.457C233.877 225.105 234.35 223.32 234.604 220.214C234.862 217.047 234.866 212.979 234.866 207.144V203.518H240V207.144C240 218.645 240 224.395 237.762 228.788C235.793 232.652 232.652 235.793 228.788 237.762C224.395 240 218.645 240 207.144 240H201.6V234.866ZM5.13369 203.518V207.144C5.13369 212.979 5.13768 217.047 5.39641 220.214C5.65024 223.32 6.12344 225.105 6.81231 226.457C8.28886 229.355 10.6449 231.711 13.5428 233.188C14.8948 233.877 16.6797 234.35 19.7865 234.604C22.9531 234.862 27.0206 234.866 32.8556 234.866H38.4004V240H32.8556C21.3551 240 15.6048 240 11.2122 237.762C7.34831 235.793 4.20689 232.652 2.23816 228.788C0 224.395 0 218.645 0 207.144V203.518H5.13369Z" fill="currentColor"/>
</svg>
