<svg width="84" height="58" viewBox="0 0 84 58" fill="none" xmlns="http://www.w3.org/2000/svg">
  <path d="M4.09478 0.866132C4.14165 0.658067 4.43814 0.658067 4.48501 0.866132L4.93123 2.84704C5.10096 3.60051 5.68936 4.18892 6.44283 4.35864L8.42374 4.80487C8.63181 4.85174 8.63181 5.14822 8.42374 5.19509L6.44283 5.64131C5.68936 5.81104 5.10096 6.39944 4.93123 7.15291L4.48501 9.13383C4.43814 9.34189 4.14165 9.34189 4.09478 9.13383L3.64856 7.15291C3.47883 6.39944 2.89043 5.81104 2.13696 5.64131L0.156049 5.19509C-0.0520162 5.14822 -0.0520165 4.85174 0.156049 4.80487L2.13696 4.35864C2.89043 4.18892 3.47883 3.60051 3.64856 2.84704L4.09478 0.866132Z" fill="currentColor" fill-opacity="0.16"/>
  <path d="M14.2899 4.99998C14.2899 4.58577 14.6257 4.24998 15.0399 4.24998H83.25C83.6642 4.24998 84 4.58577 84 4.99998C84 5.41419 83.6642 5.74998 83.25 5.74998H15.0399C14.6257 5.74998 14.2899 5.41419 14.2899 4.99998Z" fill="currentColor" fill-opacity="0.16"/>
  <path d="M4.09478 16.8661C4.14165 16.6581 4.43814 16.6581 4.48501 16.8661L4.93123 18.847C5.10096 19.6005 5.68936 20.1889 6.44283 20.3586L8.42374 20.8049C8.63181 20.8517 8.63181 21.1482 8.42374 21.1951L6.44283 21.6413C5.68936 21.811 5.10096 22.3994 4.93123 23.1529L4.48501 25.1338C4.43814 25.3419 4.14165 25.3419 4.09478 25.1338L3.64856 23.1529C3.47883 22.3994 2.89043 21.811 2.13696 21.6413L0.156049 21.1951C-0.0520162 21.1482 -0.0520165 20.8517 0.156049 20.8049L2.13696 20.3586C2.89043 20.1889 3.47883 19.6005 3.64856 18.847L4.09478 16.8661Z" fill="currentColor" fill-opacity="0.16"/>
  <path d="M14.2899 21C14.2899 20.5858 14.6257 20.25 15.0399 20.25H83.25C83.6642 20.25 84 20.5858 84 21C84 21.4142 83.6642 21.75 83.25 21.75H15.0399C14.6257 21.75 14.2899 21.4142 14.2899 21Z" fill="currentColor" fill-opacity="0.16"/>
  <path d="M4.09478 32.8661C4.14165 32.6581 4.43814 32.6581 4.48501 32.8661L4.93123 34.847C5.10096 35.6005 5.68936 36.1889 6.44283 36.3586L8.42374 36.8049C8.63181 36.8517 8.63181 37.1482 8.42374 37.1951L6.44283 37.6413C5.68936 37.811 5.10096 38.3994 4.93123 39.1529L4.48501 41.1338C4.43814 41.3419 4.14165 41.3419 4.09478 41.1338L3.64856 39.1529C3.47883 38.3994 2.89043 37.811 2.13696 37.6413L0.156049 37.1951C-0.0520162 37.1482 -0.0520165 36.8517 0.156049 36.8049L2.13696 36.3586C2.89043 36.1889 3.47883 35.6005 3.64856 34.847L4.09478 32.8661Z" fill="currentColor" fill-opacity="0.16"/>
  <path d="M14.2899 37C14.2899 36.5858 14.6257 36.25 15.0399 36.25H83.25C83.6642 36.25 84 36.5858 84 37C84 37.4142 83.6642 37.75 83.25 37.75H15.0399C14.6257 37.75 14.2899 37.4142 14.2899 37Z" fill="currentColor" fill-opacity="0.16"/>
  <path d="M4.09478 48.8661C4.14165 48.6581 4.43814 48.6581 4.48501 48.8661L4.93123 50.847C5.10096 51.6005 5.68936 52.1889 6.44283 52.3586L8.42374 52.8049C8.63181 52.8517 8.63181 53.1482 8.42374 53.1951L6.44283 53.6413C5.68936 53.811 5.10096 54.3994 4.93123 55.1529L4.48501 57.1338C4.43814 57.3419 4.14165 57.3419 4.09478 57.1338L3.64856 55.1529C3.47883 54.3994 2.89043 53.811 2.13696 53.6413L0.156049 53.1951C-0.0520162 53.1482 -0.0520165 52.8517 0.156049 52.8049L2.13696 52.3586C2.89043 52.1889 3.47883 51.6005 3.64856 50.847L4.09478 48.8661Z" fill="currentColor" fill-opacity="0.16"/>
  <path d="M14.2899 53C14.2899 52.5858 14.6257 52.25 15.0399 52.25H83.25C83.6642 52.25 84 52.5858 84 53C84 53.4142 83.6642 53.75 83.25 53.75H15.0399C14.6257 53.75 14.2899 53.4142 14.2899 53Z" fill="currentColor" fill-opacity="0.16"/>
</svg>
