<svg width="1136" height="800" viewBox="0 0 1136 800" fill="none" xmlns="http://www.w3.org/2000/svg"><g clip-path="url(#clip0_305_6393)"><path d="M1136 0H594.284L1136 165.53V0Z" fill="#567CDC" fill-opacity="0.1"/><path d="M594.284 0L1136 165.53V191.177L504.086 0H594.284Z" fill="#567CDC" fill-opacity="0.075"/><path d="M504.086 0L1136 191.177V504.621L336.355 0H504.086Z" fill="#567CDC" fill-opacity="0.05"/><path d="M336.355 0L1136 504.621V707.619L325.194 0H336.355Z" fill="#567CDC" fill-opacity="0.025"/><path d="M0 799.999H186.56L0 477.157V799.999Z" fill="#567CDC" fill-opacity="0.1"/><path d="M0 477.157L186.56 799.999H584.372L0 289.056V477.157Z" fill="#567CDC" fill-opacity="0.075"/><path d="M0 289.057L584.372 800H736.838L0 136.933V289.057Z" fill="#567CDC" fill-opacity="0.05"/><path d="M0 136.931L736.838 799.999H998.203L0 91.8052V136.931Z" fill="#567CDC" fill-opacity="0.025"/></g><defs><clipPath id="clip0_305_6393"><rect width="1136" height="800" fill="white"/></clipPath></defs></svg>
