<svg width="24" height="24" viewBox="0 0 24 24" fill="none" xmlns="http://www.w3.org/2000/svg"><path fill-rule="evenodd" clip-rule="evenodd" d="M24 12C24 18.6274 18.6274 24 12 24C5.37258 24 0 18.6274 0 12C0 5.37258 5.37258 0 12 0C18.6274 0 24 5.37258 24 12ZM23 12C23 18.0751 18.0751 23 12 23C5.92487 23 1 18.0751 1 12C1 5.92487 5.92487 1 12 1C18.0751 1 23 5.92487 23 12Z" fill="currentColor"/><path fill-rule="evenodd" clip-rule="evenodd" d="M17.5145 17.008H11.9806L14.2243 14.8546L14.2253 14.8537L14.2263 14.8527L17.88 11.3462C18.1703 11.0669 18.3333 10.6885 18.3333 10.294C18.3333 9.89949 18.1703 9.52108 17.88 9.24177L14.9563 6.43584C14.6655 6.15677 14.2711 6 13.8599 6C13.4486 6 13.0542 6.15677 12.7635 6.43584L5.45413 13.4507C5.16336 13.7298 5 14.1083 5 14.5029C5 14.8976 5.16336 15.2761 5.45413 15.5552L7.85028 17.8547C7.94723 17.9477 8.07869 18 8.21577 18H17.5145C17.6516 18 17.783 17.9477 17.88 17.8547C17.9769 17.7617 18.0313 17.6355 18.0313 17.504C18.0313 17.3724 17.9769 17.2463 17.88 17.1532C17.783 17.0602 17.6516 17.008 17.5145 17.008ZM13.4944 7.13737C13.5424 7.0913 13.5994 7.05475 13.6621 7.02982C13.7248 7.00488 13.792 6.99205 13.8599 6.99205C13.9277 6.99205 13.9949 7.00488 14.0576 7.02982C14.1203 7.05475 14.1773 7.0913 14.2253 7.13737L17.149 9.94331C17.2458 10.0364 17.3001 10.1625 17.3001 10.294C17.3001 10.4255 17.2458 10.5517 17.149 10.6448L13.8599 13.8014L10.2053 10.294L13.4944 7.13737Z" fill="currentColor"/></svg>
