<svg width="24" height="24" viewBox="0 0 24 24" fill="none" xmlns="http://www.w3.org/2000/svg"><circle cx="12" cy="12" r="12" fill="black" fill-opacity="0.2"/><path fill-rule="evenodd" clip-rule="evenodd" d="M8.62807 7.27933C8.25563 6.90689 7.65178 6.90689 7.27933 7.27933C6.90689 7.65178 6.90689 8.25563 7.27933 8.62808L10.6513 12L7.27948 15.3718C6.90703 15.7442 6.90703 16.3481 7.27948 16.7205C7.65192 17.093 8.25577 17.093 8.62822 16.7205L12 13.3487L15.3718 16.7205C15.7442 17.093 16.3481 17.093 16.7205 16.7205C17.093 16.3481 17.093 15.7442 16.7205 15.3718L13.3487 12L16.7207 8.62808C17.0931 8.25563 17.0931 7.65178 16.7207 7.27934C16.3482 6.90689 15.7444 6.90689 15.3719 7.27934L12 10.6513L8.62807 7.27933Z" fill="white"/></svg>
