<svg width="36" height="36" viewBox="0 0 36 36" fill="none" xmlns="http://www.w3.org/2000/svg">
  <path fill-rule="evenodd" clip-rule="evenodd" d="M14.6223 11.7672C14.2218 11.7672 13.827 11.7917 13.4394 11.8392C14.5884 8.55771 17.7138 6.20433 21.3867 6.20433C26.036 6.20433 29.8046 9.97296 29.8046 14.6223C29.8046 18.2956 27.451 21.4207 24.1685 22.5697C24.2161 22.1817 24.2407 21.7865 24.2407 21.3855C24.2407 21.2366 24.2373 21.0885 24.2306 20.9412C26.6807 19.8659 28.3928 17.4189 28.3928 14.5708C28.3928 10.7301 25.2796 7.61687 21.4389 7.61687C18.5915 7.61687 16.1446 9.32831 15.069 11.7774C14.9209 11.7706 14.772 11.7672 14.6223 11.7672ZM24.0433 23.8687C23.9993 23.8814 23.9549 23.8887 23.911 23.8912C22.8085 27.9883 19.0676 31.0039 14.6223 31.0039C9.3102 31.0039 5.00391 26.6976 5.00391 21.3855C5.00391 16.9383 8.02214 13.196 12.1219 12.0954C12.1234 12.0461 12.1311 11.9961 12.1454 11.9465C13.3043 7.93735 17.0026 5.00391 21.3867 5.00391C26.699 5.00391 31.005 9.30998 31.005 14.6223C31.005 19.0134 28.0626 22.7157 24.0433 23.8687ZM27.1924 14.5708C27.1924 16.7916 25.9335 18.7196 24.0896 19.6786C23.3835 15.7355 20.2743 12.6258 16.3316 11.9186C17.2907 10.0757 19.2186 8.81729 21.4389 8.81729C24.6166 8.81729 27.1924 11.3931 27.1924 14.5708ZM14.6223 12.9676C9.97317 12.9676 6.20433 16.7364 6.20433 21.3855C6.20433 26.0347 9.97317 29.8035 14.6223 29.8035C19.2714 29.8035 23.0402 26.0347 23.0402 21.3855C23.0402 16.7364 19.2714 12.9676 14.6223 12.9676ZM14.5031 15.7137C14.7793 15.7137 15.0033 15.9376 15.0033 16.2139V17.1053C15.7764 17.1927 16.3438 17.5022 16.7359 17.9065C17.1876 18.3723 17.3778 18.934 17.411 19.3374C17.4336 19.6127 17.2288 19.8542 16.9535 19.8769C16.6781 19.8995 16.4366 19.6947 16.414 19.4193C16.3979 19.2235 16.2926 18.8863 16.0178 18.603C15.8136 18.3924 15.4967 18.1918 15.0033 18.1143V21.0654C15.1364 21.1056 15.3289 21.1662 15.8584 21.3357C16.5841 21.5679 17.0178 21.9623 17.2568 22.4017C17.4871 22.8252 17.5069 23.2385 17.5113 23.4518C17.5161 23.6878 17.4768 24.2955 17.0136 24.8496C16.6227 25.3173 15.9873 25.6797 15.0033 25.7951V26.608C15.0033 26.8842 14.7793 27.1082 14.5031 27.1082C14.2268 27.1082 14.0029 26.8842 14.0029 26.608V25.8234C13.1497 25.762 12.5327 25.4387 12.1148 25.0078C11.663 24.542 11.4728 23.9803 11.4397 23.5769C11.4171 23.3016 11.6219 23.0601 11.8972 23.0375C12.1725 23.0148 12.4141 23.2197 12.4367 23.495C12.4528 23.6909 12.5581 24.0281 12.8329 24.3114C13.0578 24.5433 13.4194 24.7631 14.0029 24.8196V21.8099L13.9833 21.804C13.8898 21.7731 13.7232 21.7181 13.2876 21.5787C12.5618 21.3464 12.1281 20.9521 11.8892 20.5126C11.6589 20.0892 11.6391 19.6759 11.6347 19.4625C11.6295 19.2116 11.6947 18.6206 12.1116 18.0801C12.4807 17.6014 13.0818 17.2188 14.0029 17.1109V16.2139C14.0029 15.9376 14.2268 15.7137 14.5031 15.7137ZM12.9037 18.691C13.0755 18.4682 13.3916 18.2155 14.0029 18.12V20.7579C13.9013 20.725 13.7685 20.6823 13.5924 20.6259C13.0868 20.4641 12.8718 20.2257 12.768 20.0347C12.6554 19.8278 12.6383 19.6131 12.6348 19.442C12.6328 19.3438 12.6661 18.9991 12.9037 18.691ZM15.0033 24.7866V22.113C15.1303 22.1532 15.3036 22.2085 15.5535 22.2884C16.0592 22.4502 16.2742 22.6887 16.378 22.8796C16.4905 23.0865 16.5076 23.3012 16.5111 23.4724C16.5135 23.5855 16.4922 23.9136 16.2461 24.2081C16.0653 24.4243 15.7125 24.6824 15.0033 24.7866Z" fill="currentColor"/>
</svg>
