<svg width="16" height="16" viewBox="0 0 16 16" fill="none" xmlns="http://www.w3.org/2000/svg"><path fill-rule="evenodd" clip-rule="evenodd" d="M5.9214 1C5.6206 1 5.37676 1.24384 5.37676 1.54464V2.52503H2.65357C2.29261 2.52503 2 2.81764 2 3.1786V5.35717C2 5.70726 2.27526 5.99306 2.62116 6.00995L3.63898 14.1525C3.67986 14.4796 3.95789 14.725 4.2875 14.725H11.9125C12.2421 14.725 12.5201 14.4796 12.561 14.1525L13.5788 6.00995C13.9247 5.99305 14.2 5.70726 14.2 5.35717V3.1786C14.2 2.81764 13.9074 2.52503 13.5464 2.52503H10.8232V1.54464C10.8232 1.24384 10.5793 1 10.2785 1H5.9214ZM9.7339 2.52503V2.08929H6.46604V2.52503H9.7339ZM3.93857 6.01074H12.2614L11.3355 13.4179H4.86446L3.93857 6.01074ZM12.8929 3.83217V4.7036H3.30714V3.83217H12.8929ZM10.1961 7.61824C10.4513 7.87347 10.4513 8.28729 10.1961 8.54253L9.0243 9.71431L10.1961 10.8861C10.4513 11.1413 10.4513 11.5552 10.1961 11.8104C9.94085 12.0656 9.52703 12.0656 9.2718 11.8104L8.10001 10.6386L6.92822 11.8104C6.67298 12.0656 6.25916 12.0656 6.00393 11.8104C5.74869 11.5552 5.74869 11.1413 6.00393 10.8861L7.17572 9.71431L6.00394 8.54253C5.7487 8.28729 5.7487 7.87347 6.00394 7.61824C6.25917 7.363 6.67299 7.363 6.92823 7.61824L8.10001 8.79002L9.27178 7.61824C9.52702 7.363 9.94084 7.363 10.1961 7.61824Z" fill="currentColor"/></svg>
