<svg xmlns="http://www.w3.org/2000/svg" width="20" height="20" viewBox="0 0 20 20" fill="none">
  <path fill-rule="evenodd" clip-rule="evenodd" d="M6.23733 1.30502C5.93653 1.30502 5.69269 1.54887 5.69269 1.84967V3.66105H2.96949C2.60853 3.66105 2.31592 3.95367 2.31592 4.31463V7.57627C2.31592 7.9251 2.58919 8.21009 2.93333 8.22886L3.9549 18.3674C3.99578 18.6945 4.27381 18.9399 4.60342 18.9399L15.3966 18.9396C15.7262 18.9396 16.0043 18.6942 16.0451 18.3671L17.0667 8.22853C17.4108 8.20976 17.6841 7.92476 17.6841 7.57594V4.31429C17.6841 3.95333 17.3915 3.66072 17.0305 3.66072H14.3073V1.84933C14.3073 1.54853 14.0635 1.30469 13.7627 1.30469L6.23733 1.30502ZM13.218 3.66072V2.39397L6.78197 2.39431V3.66105L13.218 3.66072ZM4.25449 8.22985L15.7455 8.22951L14.8196 17.6324L5.18038 17.6328L4.25449 8.22985ZM16.377 4.96786V6.92237L3.62306 6.9227V4.9682L16.377 4.96786ZM12.1121 10.4686C12.3673 10.7238 12.3673 11.1376 12.1121 11.3929L10.9403 12.5646L12.1121 13.7364C12.3673 13.9917 12.3673 14.4055 12.1121 14.6607C11.8569 14.916 11.443 14.916 11.1878 14.6607L10.016 13.4889L8.84422 14.6607C8.58899 14.916 8.17517 14.916 7.91993 14.6607C7.6647 14.4055 7.6647 13.9917 7.91993 13.7364L9.09172 12.5646L7.91995 11.3929C7.66471 11.1376 7.66471 10.7238 7.91995 10.4686C8.17518 10.2133 8.589 10.2133 8.84424 10.4686L10.016 11.6404L11.1878 10.4686C11.443 10.2133 11.8568 10.2133 12.1121 10.4686Z" fill="currentColor"/>
</svg>
