<svg width="24" height="24" viewBox="0 0 24 24" fill="none" xmlns="http://www.w3.org/2000/svg"><path d="M13 6C13.1841 6 13.3333 6.14924 13.3333 6.33333C13.3333 6.51743 13.4826 6.66667 13.6667 6.66667H17.3333C17.7015 6.66667 18 6.96514 18 7.33333C18 7.70152 17.7015 8 17.3333 8H6.66667C6.29848 8 6 7.70152 6 7.33333C6 6.96514 6.29848 6.66667 6.66667 6.66667H10.3333C10.5174 6.66667 10.6667 6.51743 10.6667 6.33333C10.6667 6.14924 10.8159 6 11 6H13Z" fill="currentColor"/><path d="M7.33333 17.3333V9C7.33333 8.81591 7.48257 8.66667 7.66667 8.66667C7.85076 8.66667 8 8.81591 8 9V16C8 15.6318 8.30039 15.3305 8.66104 15.2564C9.16278 15.1533 9.7169 14.9498 10 14.6667C10.6667 14 11.3333 13.6667 12 13.6667C12.2997 13.6667 12.6667 13.8014 13.0707 13.9497C13.5656 14.1313 14.1162 14.3333 14.6667 14.3333C14.9805 14.3333 15.2021 14.282 15.3755 14.2197C15.722 14.0951 16 14.2985 16 14.6667V9C16 8.81591 16.1492 8.66667 16.3333 8.66667C16.5174 8.66667 16.6667 8.81591 16.6667 9V17.3333C16.6667 17.7015 16.3682 18 16 18H8C7.63181 18 7.33333 17.7015 7.33333 17.3333Z" fill="currentColor"/><path fill-rule="evenodd" clip-rule="evenodd" d="M12 24C18.6274 24 24 18.6274 24 12C24 5.37258 18.6274 0 12 0C5.37258 0 0 5.37258 0 12C0 18.6274 5.37258 24 12 24ZM12 23C18.0751 23 23 18.0751 23 12C23 5.92487 18.0751 1 12 1C5.92487 1 1 5.92487 1 12C1 18.0751 5.92487 23 12 23Z" fill="currentColor"/></svg>
