<svg width="16" height="16" viewBox="0 0 16 16" fill="none" xmlns="http://www.w3.org/2000/svg">  <path fill-rule="evenodd" clip-rule="evenodd" d="M11.124 1C11.2928 1 11.4546 1.06705 11.574 1.18639L14.8136 4.42605C15.0621 4.67457 15.0621 5.07749 14.8136 5.32601L6.35078 13.7888C6.26783 13.8718 6.16356 13.9302 6.0495 13.9576L1.78507 14.9824C1.56974 15.0341 1.34299 14.9702 1.1864 14.8136C1.0298 14.657 0.965883 14.4303 1.01763 14.2149L2.04242 9.95044C2.06983 9.83638 2.12824 9.73211 2.2112 9.64915L10.674 1.18639C10.7934 1.06704 10.9552 0.999999 11.124 1ZM8.80992 4.85037L3.238 10.4223L2.49788 13.5021L5.57768 12.762L11.1496 7.19009L8.80992 4.85037ZM12.0496 6.29013L9.70987 3.95042L11.124 2.53632L13.4637 4.87603L12.0496 6.29013Z" fill="currentColor"/></svg>
