<svg width="24" height="24" viewBox="0 0 24 24" fill="none" xmlns="http://www.w3.org/2000/svg"><path fill-rule="evenodd" clip-rule="evenodd" d="M5.11112 4C4.49747 4 4.00001 4.49746 4.00001 5.11111V8.88889C4.00001 9.50254 4.49747 10 5.11112 10H18.8889C19.5026 10 20 9.50254 20 8.88889V5.11111C20 4.49746 19.5026 4 18.8889 4H5.11112ZM16.3333 8.66667C17.2538 8.66667 18 7.92047 18 7C18 6.07953 17.2538 5.33333 16.3333 5.33333C15.4129 5.33333 14.6667 6.07953 14.6667 7C14.6667 7.92047 15.4129 8.66667 16.3333 8.66667ZM6 7C6 6 6.69318 6 7 6H11C11.3068 6 12 6 12 7C12 8 11.3068 8 11 8H7C6.72222 8 6 8 6 7Z" fill="currentColor"/><path d="M4 19.5C4 19.1932 4.24873 19 4.55556 19H10.8889C10.8889 18.3864 11.3863 17.8889 12 17.8889C12.6136 17.8889 13.1111 18.3864 13.1111 19H19.4444C19.7513 19 20 19.1932 20 19.5C20 19.8068 19.7513 20 19.4444 20H4.55556C4.24873 20 4 19.8068 4 19.5Z" fill="currentColor"/><path fill-rule="evenodd" clip-rule="evenodd" d="M5.11112 11C4.49747 11 4.00001 11.4975 4.00001 12.1111V15.8889C4.00001 16.5025 4.49747 17 5.11112 17H18.8889C19.5026 17 20 16.5025 20 15.8889V12.1111C20 11.4975 19.5026 11 18.8889 11H5.11112ZM16.3333 15.6667C17.2538 15.6667 18 14.9205 18 14C18 13.0795 17.2538 12.3333 16.3333 12.3333C15.4129 12.3333 14.6667 13.0795 14.6667 14C14.6667 14.9205 15.4129 15.6667 16.3333 15.6667ZM6 14C6 13 6.69317 13 7 13H11C11.3068 13 12 13 12 14C12 15 11.3068 15 11 15H7C6.72222 15 6 15 6 14Z" fill="currentColor"/></svg>
