<svg width="24" height="24" viewBox="0 0 24 24" fill="none" xmlns="http://www.w3.org/2000/svg"><path fill-rule="evenodd" clip-rule="evenodd" d="M6 7C6 6.44772 6.44772 6 7 6H13C13.5523 6 14 6.44772 14 7V8H16V6C16 4.89543 15.1046 4 14 4H6C4.89543 4 4 4.89543 4 6V14C4 15.1046 4.89543 16 6 16H8V14H7C6.44772 14 6 13.5523 6 13V7Z" fill="currentColor"/><path fill-rule="evenodd" clip-rule="evenodd" d="M18 11C18 10.4477 17.5523 10 17 10H11C10.4477 10 10 10.4477 10 11V17C10 17.5523 10.4477 18 11 18H17C17.5523 18 18 17.5523 18 17V11ZM10 8C8.89543 8 8 8.89543 8 10V18C8 19.1046 8.89543 20 10 20H18C19.1046 20 20 19.1046 20 18V10C20 8.89543 19.1046 8 18 8H10Z" fill="currentColor"/></svg>
