<svg width="24" height="24" viewBox="0 0 24 24" fill="none" xmlns="http://www.w3.org/2000/svg"><path d="M4 5C4 4.44772 4.44772 4 5 4H8C8.55228 4 9 4.44772 9 5C9 5.55228 8.55228 6 8 6L7 6C6.44772 6 6 6.44772 6 7V8C6 8.55228 5.55228 9 5 9C4.44772 9 4 8.55228 4 8V5Z" fill="currentColor"/><path d="M8 20C8.55228 20 9 19.5523 9 19C9 18.4477 8.55228 18 8 18H7C6.44772 18 6 17.5523 6 17V16C6 15.4477 5.55228 15 5 15C4.44772 15 4 15.4477 4 16V19C4 19.5523 4.44772 20 5 20H8Z" fill="currentColor"/><path d="M19 4C19.5523 4 20 4.44772 20 5V8C20 8.55228 19.5523 9 19 9C18.4477 9 18 8.55228 18 8V7C18 6.44772 17.5523 6 17 6L16 6C15.4477 6 15 5.55228 15 5C15 4.44772 15.4477 4 16 4H19Z" fill="currentColor"/><path d="M20 19C20 19.5523 19.5523 20 19 20H16C15.4477 20 15 19.5523 15 19C15 18.4477 15.4477 18 16 18H17C17.5523 18 18 17.5523 18 17V16C18 15.4477 18.4477 15 19 15C19.5523 15 20 15.4477 20 16V19Z" fill="currentColor"/><path fill-rule="evenodd" clip-rule="evenodd" d="M8 8V11H11V8H8ZM10 9H9V10H10V9Z" fill="currentColor"/><path fill-rule="evenodd" clip-rule="evenodd" d="M8 13H11V16H8V13ZM9 14H10V15H9V14Z" fill="currentColor"/><path fill-rule="evenodd" clip-rule="evenodd" d="M13 8V11H16V8H13ZM15 9H14V10H15V9Z" fill="currentColor"/><path d="M14 13H13V14H14V15H13V16H15V14H16V13H15V14H14V13Z" fill="currentColor"/></svg>
