<svg width="16" height="16" viewBox="0 0 16 16" fill="none" xmlns="http://www.w3.org/2000/svg">
  <path fill-rule="evenodd" clip-rule="evenodd" d="M8 13.8C11.2033 13.8 13.8 11.2033 13.8 8C13.8 4.79675 11.2033 2.2 8 2.2C4.79675 2.2 2.2 4.79675 2.2 8C2.2 11.2033 4.79675 13.8 8 13.8ZM8 15C11.866 15 15 11.866 15 8C15 4.13401 11.866 1 8 1C4.13401 1 1 4.13401 1 8C1 11.866 4.13401 15 8 15ZM6.88694 5.10061C6.67616 5.39337 6.60002 5.7627 6.60002 6.00002C6.60002 6.3314 6.3314 6.60002 6.00002 6.60002C5.66865 6.60002 5.40002 6.3314 5.40002 6.00002C5.40002 5.57068 5.52389 4.94001 5.9131 4.39944C6.32434 3.82828 7.00447 3.40002 8.00002 3.40002C9.28144 3.40002 10.243 4.26431 10.5728 5.32131C10.6892 5.69441 10.6922 6.07369 10.5673 6.44733C10.4461 6.81009 10.2165 7.13209 9.92429 7.42429L8.71716 8.63142C8.64216 8.70642 8.60002 8.80813 8.60002 8.91424V10C8.60002 10.3314 8.3314 10.6 8.00002 10.6C7.66865 10.6 7.40002 10.3314 7.40002 10V8.91424C7.40002 8.48991 7.56856 8.08296 7.86863 7.78289L9.07576 6.57576C9.28356 6.36796 9.38492 6.19949 9.42919 6.06701C9.46982 5.94542 9.4728 5.8247 9.42726 5.67874C9.23447 5.06089 8.69413 4.60002 8.00002 4.60002C7.39558 4.60002 7.07571 4.83844 6.88694 5.10061ZM8.60002 12C8.60002 11.6687 8.3314 11.4 8.00002 11.4C7.66865 11.4 7.40002 11.6687 7.40002 12V12.0281C7.40002 12.3595 7.66865 12.6281 8.00002 12.6281C8.3314 12.6281 8.60002 12.3595 8.60002 12.0281V12Z" fill="currentColor"/>
</svg>
