<svg width="16" height="16" viewBox="0 0 16 16" fill="none" xmlns="http://www.w3.org/2000/svg">
  <path d="M8.03148 11.9362C5.87228 11.9362 4.1219 10.1858 4.1219 8.02659C4.1219 5.8674 5.87228 4.11702 8.03148 4.11702C9.59107 4.11702 10.9374 5.03024 11.5648 6.35112H10.1538C9.84536 6.35112 9.59531 6.60117 9.59531 6.90963C9.59531 7.21809 9.84536 7.46814 10.1538 7.46814H12.9464C13.0945 7.46814 13.2366 7.40927 13.3413 7.30455C13.446 7.19983 13.5049 7.05774 13.5049 6.90963V4.11708C13.5049 3.80862 13.2548 3.55857 12.9464 3.55857C12.6379 3.55857 12.3879 3.80862 12.3879 4.11708V5.5172C11.5193 4.0126 9.89361 3 8.03148 3C5.25537 3 3.00488 5.25048 3.00488 8.02659C3.00488 10.8027 5.25537 13.0532 8.03148 13.0532C10.1785 13.0532 12.0111 11.7071 12.7315 9.81276C12.8588 9.47782 12.5924 9.14361 12.234 9.14361H12.1956C11.9485 9.14361 11.7346 9.30781 11.6391 9.53574C11.0486 10.9456 9.65574 11.9362 8.03148 11.9362Z" fill="currentColor"/>
</svg>
