<svg width="20" height="20" viewBox="0 0 20 20" fill="none" xmlns="http://www.w3.org/2000/svg">
<path fill-rule="evenodd" clip-rule="evenodd" d="M12.3813 9.2267C12.4617 9.03228 12.5196 8.82983 12.5543 8.62328C12.5967 8.37062 12.8 8.16151 13.0557 8.16151C13.3114 8.16151 13.5217 8.37001 13.4898 8.62422C13.4486 8.95261 13.3637 9.2747 13.2368 9.58176C13.0506 10.032 12.7778 10.4412 12.4339 10.7858C12.09 11.1304 11.6817 11.4038 11.2323 11.5903C10.9259 11.7175 10.6045 11.8026 10.2767 11.8439C10.023 11.8758 9.81498 11.6651 9.81498 11.4089C9.81498 11.1527 10.0237 10.9489 10.2758 10.9064C10.4819 10.8717 10.684 10.8136 10.878 10.7331C11.215 10.5932 11.5212 10.3882 11.7792 10.1297C12.0371 9.87126 12.2417 9.56441 12.3813 9.2267Z" fill="black" fill-opacity="0.3"/>
<path fill-rule="evenodd" clip-rule="evenodd" d="M11.875 14.3214C11.2278 14.5386 10.5351 14.6563 9.81498 14.6563C6.23535 14.6563 3.3335 11.7485 3.3335 8.16151C3.3335 4.57455 6.23535 1.66675 9.81498 1.66675C13.3946 1.66675 16.2965 4.57455 16.2965 8.16151C16.2965 10.2764 15.2877 12.1552 13.726 13.3411L15.9267 16.3744C16.2259 16.7434 16.1983 17.2793 15.8628 17.6155L15.4175 18.0616C14.9987 18.4813 14.2997 18.4044 13.9816 17.9037L11.875 14.3214ZM14.4446 8.16151C14.4446 10.7236 12.3719 12.8006 9.81498 12.8006C7.2581 12.8006 5.18535 10.7236 5.18535 8.16151C5.18535 5.5994 7.2581 3.5224 9.81498 3.5224C12.3719 3.5224 14.4446 5.5994 14.4446 8.16151Z" fill="black" fill-opacity="0.3"/>
</svg>
