<svg width="16" height="16" viewBox="0 0 16 16" fill="none" xmlns="http://www.w3.org/2000/svg">
  <path fill-rule="evenodd" clip-rule="evenodd" d="M1.00002 4.5999H8.47017C8.74245 5.74395 9.77501 6.5999 11 6.5999C12.225 6.5999 13.2576 5.74395 13.5299 4.5999H15C15.3314 4.5999 15.6 4.33127 15.6 3.9999C15.6 3.66853 15.3314 3.3999 15 3.3999H13.5299C13.2576 2.25585 12.225 1.3999 11 1.3999C9.77501 1.3999 8.74245 2.25585 8.47017 3.3999H1.00002C0.668653 3.3999 0.400024 3.66853 0.400024 3.9999C0.400024 4.33127 0.668653 4.5999 1.00002 4.5999ZM11 5.3999C10.2324 5.3999 9.60161 4.77012 9.60002 4.00281L9.60003 3.9999L9.60002 3.99664C9.6018 3.22949 10.2325 2.5999 11 2.5999C11.7686 2.5999 12.4 3.23127 12.4 3.9999C12.4 4.76853 11.7686 5.3999 11 5.3999ZM3.60002 12.0031C3.60002 12.0021 3.60003 12.001 3.60003 11.9999C3.60003 11.9989 3.60002 11.998 3.60002 11.997C3.60161 11.2297 4.23235 10.5999 5.00001 10.5999C5.76864 10.5999 6.40001 11.2313 6.40001 11.9999C6.40001 12.7685 5.76864 13.3999 5.00001 13.3999C4.23246 13.3999 3.60178 12.7703 3.60002 12.0031ZM2.47017 11.3999H1.00003C0.668654 11.3999 0.400024 11.6685 0.400024 11.9999C0.400024 12.3313 0.668654 12.5999 1.00003 12.5999H2.47017C2.74245 13.744 3.77501 14.5999 5.00001 14.5999C6.22502 14.5999 7.25758 13.744 7.52985 12.5999H15C15.3314 12.5999 15.6 12.3313 15.6 11.9999C15.6 11.6685 15.3314 11.3999 15 11.3999H7.52985C7.25758 10.2559 6.22502 9.3999 5.00001 9.3999C3.77501 9.3999 2.74245 10.2559 2.47017 11.3999Z" fill="currentColor"/>
</svg>
