<svg width="16" height="16" viewBox="0 0 16 16" fill="none" xmlns="http://www.w3.org/2000/svg"><path fill-rule="evenodd" clip-rule="evenodd" d="M1.40002 7.00002C1.40002 3.96865 3.96865 1.40002 7.00002 1.40002C10.0314 1.40002 12.6 3.96865 12.6 7.00002C12.6 8.31141 12.1371 9.5387 11.3567 10.5081L14.4243 13.5758C14.6586 13.8101 14.6586 14.19 14.4243 14.4243C14.19 14.6586 13.8101 14.6586 13.5758 14.4243L10.5096 11.3581C9.55555 12.1309 8.33954 12.6 7.00002 12.6C3.86088 12.6 1.40002 10.0236 1.40002 7.00002ZM7.00002 2.60002C4.6314 2.60002 2.60002 4.6314 2.60002 7.00002C2.60002 9.37648 4.53917 11.4 7.00002 11.4C9.46088 11.4 11.4 9.37648 11.4 7.00002C11.4 4.6314 9.36865 2.60002 7.00002 2.60002ZM9.50007 6.00001C9.73438 5.7657 9.73438 5.3858 9.50007 5.15148C9.26575 4.91717 8.88585 4.91717 8.65154 5.15148L6.22728 7.57572L5.30298 6.65142C5.06867 6.4171 4.68877 6.4171 4.45445 6.65142C4.22014 6.88573 4.22014 7.26563 4.45445 7.49994L5.80302 8.84851C6.03733 9.08283 6.41723 9.08283 6.65154 8.84851L9.50007 6.00001Z" fill="currentColor"/></svg>
