<svg width="64" height="64" viewBox="0 0 64 64" fill="none" xmlns="http://www.w3.org/2000/svg"><path fill-rule="evenodd" clip-rule="evenodd" d="M24.143 0H9.75424C8.2331 0 7 1.24583 7 2.78261V61.2174C7 62.7542 8.2331 64 9.75424 64H54.2458C55.7669 64 57 62.7542 57 61.2174V55.6522V21.265L35.9196 0H24.143ZM18.3767 41.6345C16.8556 41.6345 15.6224 40.3887 15.6224 38.8519C15.6224 37.3151 16.8556 36.0693 18.3767 36.0693H45.0439C46.565 36.0693 47.7981 37.3151 47.7981 38.8519C47.7981 40.3887 46.565 41.6345 45.0439 41.6345H18.3767ZM18.3767 45.0502C16.8556 45.0502 15.6224 46.2962 15.6224 47.8328C15.6224 49.3696 16.8556 50.6154 18.3767 50.6154H45.0439C46.565 50.6154 47.7981 49.3696 47.7981 47.8328C47.7981 46.2962 46.565 45.0502 45.0439 45.0502H18.3767Z" fill="currentColor"/></svg>
