<svg xmlns="http://www.w3.org/2000/svg" width="45" height="45" viewBox="0 0 45 45" fill="none">
  <path fill-rule="evenodd" clip-rule="evenodd" d="M24.1091 1.43145C23.621 1.00253 22.8777 1.05047 22.4488 1.53853C22.0199 2.02659 22.0678 2.76995 22.5559 3.19887L25.5451 5.82587C18.8791 4.80989 11.9706 7.87688 8.39577 14.0686C4.6775 20.5088 5.69106 28.3794 10.3527 33.6606C10.7826 34.1477 11.5261 34.194 12.0132 33.764C12.5004 33.3341 12.5467 32.5906 12.1167 32.1035C8.10378 27.5572 7.23573 20.7837 10.4335 15.2451C14.4403 8.30511 23.3144 5.92731 30.2543 9.93409C30.7781 10.2365 31.4459 10.0925 31.7985 9.60101C32.1511 9.10954 32.0735 8.43081 31.6192 8.03153L24.1091 1.43145ZM35.6462 11.3395C35.2162 10.8524 34.4728 10.8061 33.9856 11.236C33.4985 11.666 33.4522 12.4095 33.8822 12.8966C37.895 17.4429 38.763 24.2163 35.5653 29.7549C31.5585 36.6949 22.6844 39.0727 15.7445 35.0659C15.2206 34.7635 14.5529 34.9075 14.2003 35.399C13.8477 35.8905 13.9253 36.5692 14.3796 36.9685L21.8897 43.5685C22.3777 43.9975 23.1211 43.9495 23.55 43.4615C23.9789 42.9734 23.931 42.23 23.4429 41.8011L20.4537 39.1741C27.1197 40.1901 34.0282 37.1231 37.603 30.9314C41.3213 24.4912 40.3077 16.6207 35.6462 11.3395ZM24.1758 14.6562C24.1758 14.0064 23.6491 13.4797 22.9993 13.4797C22.3496 13.4797 21.8229 14.0064 21.8229 14.6562V27.9264L17.6136 24.6288C17.1021 24.2281 16.3626 24.3179 15.9619 24.8294C15.5612 25.3409 15.651 26.0804 16.1625 26.4811L22.2738 31.2686C22.6999 31.6024 23.2988 31.6024 23.7249 31.2686L29.8362 26.4811C30.3477 26.0804 30.4375 25.3409 30.0368 24.8294C29.6362 24.3179 28.8967 24.2281 28.3852 24.6288L24.1758 27.9264V14.6562Z" fill="currentColor"/>
</svg>