<svg xmlns="http://www.w3.org/2000/svg" width="45" height="45" viewBox="0 0 45 45" fill="none">
  <path fill-rule="evenodd" clip-rule="evenodd" d="M13.6008 16.0912C13.6008 10.9003 17.8089 6.69226 22.9999 6.69226C28.1908 6.69226 32.3989 10.9003 32.3989 16.0912C32.3989 21.2821 28.1908 25.4902 22.9999 25.4902C17.8089 25.4902 13.6008 21.2821 13.6008 16.0912ZM22.9999 4.12891C16.3932 4.12891 11.0374 9.48462 11.0374 16.0912C11.0374 16.3695 11.0469 16.6455 11.0656 16.9191C7.46416 18.5574 4.6889 21.1361 4.62987 24.4221H4.62891V24.5291V30.2675C4.62891 33.5304 7.03593 36.2023 10.3022 37.9839C13.6169 39.7919 18.1086 40.8705 22.9999 40.8705C27.8911 40.8705 32.3828 39.7919 35.6975 37.9839C38.9638 36.2023 41.3708 33.5304 41.3708 30.2675V24.5291V24.4221H41.3698C41.3108 21.1361 38.5355 18.5575 34.9341 16.9191C34.9528 16.6456 34.9623 16.3695 34.9623 16.0912C34.9623 9.48462 29.6066 4.12891 22.9999 4.12891ZM34.4603 19.5313C32.9826 24.4611 28.4108 28.0535 22.9999 28.0535C17.5889 28.0535 13.0171 24.4611 11.5394 19.5313C8.59648 21.0046 7.19229 22.8573 7.19229 24.5291C7.19229 26.1796 8.54442 28.0096 11.4949 29.5033C14.3731 30.9605 18.4389 31.8992 22.9999 31.8992C27.5608 31.8992 31.6266 30.9605 34.5048 29.5033C37.4553 28.0096 38.8074 26.1796 38.8074 24.5291C38.8074 22.8573 37.4032 21.0047 34.4603 19.5313ZM7.19229 30.2675V29.6739C8.08495 30.4856 9.16063 31.1947 10.337 31.7903C13.6439 33.4644 18.1227 34.4625 22.9999 34.4625C27.877 34.4625 32.3558 33.4644 35.6627 31.7903C36.8391 31.1947 37.9148 30.4856 38.8074 29.6739V30.2675C38.8074 32.1526 37.3889 34.1414 34.47 35.7335C31.5996 37.2992 27.5467 38.3072 22.9999 38.3072C18.453 38.3072 14.4 37.2992 11.5297 35.7335C8.61083 34.1414 7.19229 32.1526 7.19229 30.2675ZM22.9999 9.46922C23.7077 9.46922 24.2815 10.0431 24.2815 10.7509V14.8095H28.3402C29.0481 14.8095 29.6219 15.3834 29.6219 16.0912C29.6219 16.7991 29.0481 17.3729 28.3402 17.3729H24.2815V21.4315C24.2815 22.1394 23.7077 22.7132 22.9999 22.7132C22.292 22.7132 21.7182 22.1394 21.7182 21.4315V17.3729H17.6595C16.9516 17.3729 16.3778 16.7991 16.3778 16.0912C16.3778 15.3834 16.9516 14.8095 17.6595 14.8095H21.7182V10.7509C21.7182 10.0431 22.292 9.46922 22.9999 9.46922Z" fill="currentColor"/>
</svg>