<svg width="18" height="18" viewBox="0 0 18 18" fill="none" xmlns="http://www.w3.org/2000/svg">
  <path d="M9 10.253C13.4183 10.253 17 8.18161 17 5.62646C17 3.07135 13.4183 1 9 1C4.58172 1 1 3.07135 1 5.62646C1 8.18161 4.58172 10.253 9 10.253Z" stroke="currentColor" stroke-width="1.2" stroke-linecap="square"/>
  <path d="M17 6.2049V9.09646C17 11.6516 13.4183 13.723 9 13.723C4.58172 13.723 1 11.6516 1 9.09646V6.2049" stroke="currentColor" stroke-width="1.2" stroke-linecap="square"/>
  <path d="M17 9.4819V12.3735C17 14.9286 13.4183 17 9 17C4.58172 17 1 14.9286 1 12.3735V9.4819" stroke="currentColor" stroke-width="1.2" stroke-linecap="square"/>
</svg>
