<svg width="8" height="14" viewBox="0 0 8 14" fill="none" xmlns="http://www.w3.org/2000/svg">
  <path d="M2.92334 9.77691V9.6622C2.93139 8.91362 3.00584 8.31798 3.14671 7.87527C3.29159 7.43256 3.49685 7.07437 3.76247 6.8007C4.0281 6.52702 4.34806 6.2775 4.72235 6.05212C4.96382 5.89918 5.18115 5.72814 5.37433 5.53898C5.56752 5.34982 5.72045 5.13249 5.83314 4.88699C5.94583 4.64149 6.00218 4.36983 6.00218 4.07201C6.00218 3.71381 5.91766 3.40392 5.74862 3.14232C5.57959 2.88072 5.35421 2.67949 5.07249 2.53862C4.79479 2.39374 4.48489 2.32129 4.1428 2.32129C3.8329 2.32129 3.53709 2.38569 3.25537 2.51448C2.97365 2.64326 2.74022 2.8445 2.55509 3.11817C2.36995 3.38782 2.2633 3.73595 2.23513 4.16256H0.399902C0.428075 3.43813 0.611195 2.82638 0.949263 2.32733C1.28733 1.82425 1.73406 1.44393 2.28946 1.18635C2.84888 0.928776 3.46666 0.799988 4.1428 0.799988C4.88333 0.799988 5.53129 0.938837 6.08669 1.21654C6.64209 1.49021 7.07272 1.87456 7.3786 2.36959C7.68849 2.86059 7.84344 3.4341 7.84344 4.09012C7.84344 4.54087 7.77301 4.94736 7.63215 5.30958C7.49129 5.66777 7.29005 5.98772 7.02845 6.26945C6.77088 6.55117 6.46098 6.8007 6.09877 7.01803C5.75667 7.23133 5.47897 7.45269 5.26567 7.68209C5.05639 7.91149 4.90345 8.18316 4.80686 8.49708C4.71027 8.811 4.65795 9.19937 4.6499 9.6622V9.77691H2.92334ZM3.83492 13.4474C3.5049 13.4474 3.22116 13.3306 2.98371 13.0972C2.74626 12.8598 2.62753 12.574 2.62753 12.24C2.62753 11.91 2.74626 11.6282 2.98371 11.3948C3.22116 11.1574 3.5049 11.0386 3.83492 11.0386C4.16091 11.0386 4.44263 11.1574 4.68009 11.3948C4.92156 11.6282 5.0423 11.91 5.0423 12.24C5.0423 12.4613 4.98596 12.6646 4.87327 12.8497C4.7646 13.0308 4.61972 13.1757 4.43861 13.2844C4.2575 13.393 4.05627 13.4474 3.83492 13.4474Z" fill="currentColor"/>
</svg>
