<svg width="24" height="24" viewBox="0 0 24 24" fill="none" xmlns="http://www.w3.org/2000/svg"><path fill-rule="evenodd" clip-rule="evenodd" d="M5.21429 6.36364C4.22806 6.36364 3.42857 7.12679 3.42857 8.06818V9.09091H20.5714V8.06818C20.5714 7.12679 19.7719 6.36364 18.7857 6.36364H5.21429ZM3.42857 16.9318V10.4545H20.5714V16.9318C20.5714 17.8732 19.7719 18.6364 18.7857 18.6364H5.21429C4.22806 18.6364 3.42857 17.8732 3.42857 16.9318ZM2 8.06818C2 6.37367 3.43908 5 5.21429 5H18.7857C20.5609 5 22 6.37367 22 8.06818V16.9318C22 18.6263 20.5609 20 18.7857 20H5.21429C3.43908 20 2 18.6263 2 16.9318V8.06818ZM6.28571 13.6932C5.89123 13.6932 5.57143 13.9984 5.57143 14.375V15.2273C5.57143 15.6038 5.89123 15.9091 6.28571 15.9091H8.42857C8.82306 15.9091 9.14286 15.6038 9.14286 15.2273V14.375C9.14286 13.9984 8.82306 13.6932 8.42857 13.6932H6.28571Z" fill="currentColor"/></svg>
