<svg width="16" height="16" viewBox="0 0 16 16" fill="none" xmlns="http://www.w3.org/2000/svg">  <g clip-path="url(#clip0_993_1117)">    <path fill-rule="evenodd" clip-rule="evenodd" d="M1.5999 7.76443C1.5999 4.37904 4.44576 1.5999 7.9999 1.5999C11.554 1.5999 14.3999 4.37905 14.3999 7.76443C14.3999 11.1498 11.554 13.929 7.9999 13.929C7.18427 13.929 6.40587 13.7823 5.69049 13.5156L5.51069 13.4485L5.32535 13.4983L1.97625 14.3973L2.13094 14.9736L1.97625 14.3973C1.96094 14.4014 1.95264 14.3999 1.94605 14.3978C1.93722 14.395 1.92231 14.3875 1.90613 14.3702C1.87337 14.335 1.85005 14.2754 1.8673 14.2013L2.53957 11.314L2.59499 11.076L2.46834 10.867C1.91582 9.95526 1.5999 8.89585 1.5999 7.76443ZM7.9999 0.399902C3.82205 0.399902 0.399902 3.67793 0.399902 7.76443C0.399902 9.03495 0.732374 10.2309 1.31679 11.274L0.698557 13.9292L0.698555 13.9292C0.48636 14.8407 1.25961 15.8322 2.28735 15.5563L5.45524 14.7059C6.25172 14.98 7.10852 15.129 7.9999 15.129C12.1777 15.129 15.5999 11.851 15.5999 7.76443C15.5999 3.67793 12.1777 0.399902 7.9999 0.399902ZM4.9999 7.3999C4.66853 7.3999 4.3999 7.66853 4.3999 7.9999C4.3999 8.33127 4.66853 8.5999 4.9999 8.5999H10.9999C11.3313 8.5999 11.5999 8.33127 11.5999 7.9999C11.5999 7.66853 11.3313 7.3999 10.9999 7.3999H4.9999ZM4.3999 9.9999C4.3999 9.66853 4.66853 9.3999 4.9999 9.3999H8.9999C9.33127 9.3999 9.5999 9.66853 9.5999 9.9999C9.5999 10.3313 9.33127 10.5999 8.9999 10.5999H4.9999C4.66853 10.5999 4.3999 10.3313 4.3999 9.9999ZM4.9999 5.3999C4.66853 5.3999 4.3999 5.66853 4.3999 5.9999C4.3999 6.33127 4.66853 6.5999 4.9999 6.5999H10.9999C11.3313 6.5999 11.5999 6.33127 11.5999 5.9999C11.5999 5.66853 11.3313 5.3999 10.9999 5.3999H4.9999Z" fill="currentColor"/>  </g>  <defs>    <clipPath id="clip0_993_1117">      <rect width="16" height="16" fill="currentC"/>    </clipPath>  </defs></svg>
