<svg width="24" height="24" viewBox="0 0 24 24" fill="none" xmlns="http://www.w3.org/2000/svg"><path fill-rule="evenodd" clip-rule="evenodd" d="M2 12C2 6.4774 6.4774 2 12 2C17.5226 2 22 6.4774 22 12C22 17.5226 17.5226 22 12 22C6.4774 22 2 17.5226 2 12ZM11.311 5.15723C11.4937 4.9745 11.7416 4.87185 12 4.87185C12.2584 4.87185 12.5062 4.9745 12.689 5.15723C12.8717 5.33996 12.9743 5.58779 12.9743 5.8462V11.7949H16.6154C16.8738 11.7949 17.1216 11.8976 17.3043 12.0803C17.4871 12.263 17.5897 12.5109 17.5897 12.7693C17.5897 13.0277 17.4871 13.2755 17.3043 13.4583C17.1216 13.641 16.8738 13.7436 16.6154 13.7436H12C11.7416 13.7436 11.4937 13.641 11.311 13.4583C11.1283 13.2755 11.0256 13.0277 11.0256 12.7693V5.8462C11.0256 5.58779 11.1283 5.33996 11.311 5.15723Z" fill="currentColor"/></svg>
