<svg width="24" height="24" viewBox="0 0 24 24" fill="none" xmlns="http://www.w3.org/2000/svg"><path fill-rule="evenodd" clip-rule="evenodd" d="M2 12C2 6.47903 6.47903 2 12 2C17.521 2 22 6.47903 22 12C22 17.521 17.521 22 12 22C6.47903 22 2 17.521 2 12ZM12 3.39535C7.24966 3.39535 3.39535 7.24966 3.39535 12C3.39535 16.7503 7.24966 20.6047 12 20.6047C16.7503 20.6047 20.6047 16.7503 20.6047 12C20.6047 7.24966 16.7503 3.39535 12 3.39535Z" fill="currentColor"/><path d="M16.5868 6.90943L10.9085 9.18075C10.5185 9.33671 10.1643 9.57027 9.86726 9.86726C9.57027 10.1643 9.33671 10.5185 9.18075 10.9085L6.90943 16.5868C6.88124 16.6572 6.87434 16.7344 6.88958 16.8087C6.90483 16.883 6.94155 16.9512 6.9952 17.0049C7.04885 17.0585 7.11706 17.0952 7.19139 17.1105C7.26571 17.1257 7.34287 17.1188 7.41331 17.0906L13.0916 14.8193C13.4816 14.6634 13.8358 14.4298 14.1328 14.1328C14.4298 13.8358 14.6634 13.4816 14.8193 13.0916L17.0906 7.41331C17.1188 7.34287 17.1257 7.26571 17.1105 7.19139C17.0952 7.11706 17.0585 7.04885 17.0049 6.9952C16.9512 6.94155 16.883 6.90483 16.8087 6.88958C16.7344 6.87434 16.6572 6.88124 16.5868 6.90943ZM12 13.1628C11.7701 13.1628 11.5452 13.0946 11.354 12.9669C11.1628 12.8391 11.0138 12.6575 10.9258 12.445C10.8377 12.2325 10.8147 11.9987 10.8596 11.7732C10.9045 11.5476 11.0152 11.3404 11.1778 11.1778C11.3404 11.0152 11.5476 10.9045 11.7732 10.8596C11.9987 10.8147 12.2325 10.8377 12.445 10.9258C12.6575 11.0138 12.8391 11.1628 12.9669 11.354C13.0946 11.5452 13.1628 11.7701 13.1628 12C13.1628 12.3084 13.0403 12.6042 12.8223 12.8223C12.6042 13.0403 12.3084 13.1628 12 13.1628Z" fill="currentColor"/></svg>
