<svg width="24" height="24" viewBox="0 0 24 24" fill="none" xmlns="http://www.w3.org/2000/svg"><path d="M10.9606 5.83259H13.0394C13.2038 5.83259 13.3451 5.76393 13.4271 5.64425C13.509 5.52458 13.5218 5.36801 13.4623 5.21465L12.3186 2.2698C12.2274 2.03503 12.0799 2 12 2C11.9201 2 11.7725 2.03507 11.6814 2.26977L10.5376 5.21468C10.4781 5.36801 10.491 5.52455 10.5729 5.64425C10.6548 5.76396 10.7961 5.83259 10.9606 5.83259Z" fill="currentColor"/><path d="M13.0394 18.1674H10.9606C10.7961 18.1674 10.6548 18.2361 10.5729 18.3558C10.491 18.4755 10.4781 18.632 10.5376 18.7854L11.6814 21.7303C11.7725 21.965 11.9201 22 12 22C12.0799 22 12.2274 21.965 12.3186 21.7303L13.4623 18.7853C13.5218 18.6321 13.509 18.4755 13.4271 18.3558C13.3451 18.2361 13.2038 18.1674 13.0394 18.1674Z" fill="currentColor"/><path d="M6.16797 8.23606C6.24679 8.41504 6.39764 8.52187 6.5715 8.52187C6.69058 8.52187 6.80865 8.46932 6.90398 8.37396L8.37394 6.90403C8.49022 6.78775 8.54159 6.63926 8.51486 6.49664C8.48809 6.35409 8.38649 6.23429 8.23604 6.16801L5.34496 4.89438C5.27199 4.86226 5.20326 4.84595 5.14071 4.84595C5.03611 4.84595 4.94598 4.89219 4.89339 4.97282C4.84905 5.04082 4.8132 5.16063 4.89441 5.34501L6.16797 8.23606Z" fill="currentColor"/><path d="M17.832 15.764C17.7532 15.585 17.6024 15.4782 17.4285 15.4782C17.3094 15.4782 17.1913 15.5307 17.096 15.6261L15.626 17.096C15.5097 17.2123 15.4583 17.3609 15.4851 17.5034C15.5118 17.646 15.6135 17.7658 15.7639 17.832L18.6549 19.1057C18.7279 19.1378 18.7966 19.1541 18.8592 19.1541C18.9638 19.1541 19.0539 19.1078 19.1065 19.0272C19.1509 18.9592 19.1867 18.8394 19.1055 18.6551L17.832 15.764Z" fill="currentColor"/><path d="M17.096 8.37396C17.1913 8.46932 17.3094 8.52187 17.4285 8.52187C17.6023 8.52187 17.7531 8.41504 17.832 8.23606L19.1056 5.34504C19.1869 5.16063 19.151 5.04085 19.1066 4.97285C19.0541 4.89223 18.9639 4.84598 18.8593 4.84598C18.7968 4.84598 18.728 4.86229 18.655 4.89445L15.764 6.16798C15.6135 6.23429 15.5119 6.35406 15.4852 6.49664C15.4584 6.63922 15.5098 6.78775 15.6261 6.90403L17.096 8.37396Z" fill="currentColor"/><path d="M6.90401 15.6261C6.80865 15.5307 6.69055 15.4782 6.57143 15.4782C6.39761 15.4782 6.24679 15.585 6.16797 15.764L4.89437 18.655C4.81313 18.8394 4.84898 18.9592 4.89336 19.0272C4.94594 19.1078 5.03611 19.1541 5.14068 19.1541C5.20323 19.1541 5.27196 19.1378 5.34496 19.1056L8.236 17.832C8.38646 17.7657 8.48813 17.6459 8.51483 17.5034C8.54156 17.3608 8.49022 17.2123 8.37391 17.096L6.90401 15.6261Z" fill="currentColor"/><path d="M21.7302 11.6814L18.7854 10.5377C18.7219 10.5131 18.6581 10.5006 18.5957 10.5006C18.3475 10.5006 18.1674 10.6941 18.1674 10.9606L18.1675 13.0395C18.1675 13.3061 18.3476 13.4996 18.5957 13.4996C18.6582 13.4996 18.722 13.4871 18.7854 13.4624L21.7303 12.3187C21.965 12.2275 22 12.0799 22 12C22 11.9202 21.9649 11.7725 21.7302 11.6814Z" fill="currentColor"/><path d="M5.40434 13.4995C5.65251 13.4995 5.83264 13.306 5.83264 13.0395V10.9606C5.83264 10.694 5.65254 10.5005 5.40434 10.5005C5.34186 10.5005 5.27807 10.513 5.21464 10.5377L2.26977 11.6814C2.03507 11.7725 2 11.9201 2 12C2 12.0799 2.03503 12.2275 2.26977 12.3187L5.21457 13.4624C5.27803 13.487 5.34186 13.4995 5.40434 13.4995Z" fill="currentColor"/><path fill-rule="evenodd" clip-rule="evenodd" d="M12 16C14.2091 16 16 14.2091 16 12C16 9.79086 14.2091 8 12 8C9.79086 8 8 9.79086 8 12C8 14.2091 9.79086 16 12 16ZM12 17C14.7614 17 17 14.7614 17 12C17 9.23858 14.7614 7 12 7C9.23858 7 7 9.23858 7 12C7 14.7614 9.23858 17 12 17Z" fill="currentColor"/></svg>
