<svg width="24" height="24" viewBox="0 0 24 24" fill="none" xmlns="http://www.w3.org/2000/svg"><path fill-rule="evenodd" clip-rule="evenodd" d="M3.39535 6.53303C3.39535 5.9191 3.88391 5.42141 4.48658 5.42141H19.5134C20.1161 5.42141 20.6047 5.9191 20.6047 6.53303V17.467C20.6047 18.0809 20.1161 18.5786 19.5134 18.5786H4.48658C3.88391 18.5786 3.39535 18.0809 3.39535 17.467V6.53303ZM4.48658 4C3.11328 4 2 5.13408 2 6.53303V17.467C2 18.8659 3.11328 20 4.48658 20H19.5134C20.8867 20 22 18.8659 22 17.467V6.53303C22 5.13408 20.8867 4 19.5134 4H4.48658ZM6.14926 7.17252C5.84511 6.93154 5.40678 6.98736 5.17022 7.29719C4.93366 7.60702 4.98845 8.05354 5.2926 8.29452L11.5717 13.2695C11.8236 13.4691 12.1764 13.4691 12.4283 13.2695L18.7074 8.29452C19.0115 8.05354 19.0663 7.60702 18.8298 7.29719C18.5932 6.98736 18.1549 6.93154 17.8507 7.17252L12 11.8081L6.14926 7.17252Z" fill="currentColor"/></svg>
