<svg width="24" height="24" viewBox="0 0 24 24" fill="none" xmlns="http://www.w3.org/2000/svg"><path fill-rule="evenodd" clip-rule="evenodd" d="M12.1394 2.00093C6.51589 1.92497 1.92497 6.51589 2.00093 12.1394C2.07592 17.5326 6.46734 21.9241 11.8606 21.999C17.485 22.076 22.075 17.485 21.9981 11.8615C21.924 6.46734 17.5326 2.07592 12.1394 2.00093ZM11.9625 9.31322C11.9726 9.25554 11.9836 9.19785 11.9966 9.14064C12.118 8.57923 12.3886 8.06093 12.7797 7.6403C13.3994 6.98027 14.2777 6.61588 15.253 6.61588C15.6634 6.61419 16.071 6.68348 16.4577 6.82067C16.9385 6.99184 17.3715 7.27531 17.7206 7.64751C18.2342 8.20265 18.5399 8.91839 18.5859 9.67329C18.5992 9.85572 18.5992 10.0389 18.5859 10.2213C18.557 10.6246 18.4693 11.021 18.326 11.3978C18.3029 11.4587 18.2782 11.5192 18.2522 11.579C18.2328 11.6235 18.2127 11.6677 18.1917 11.7116C18.1674 11.7625 18.1419 11.813 18.1153 11.863C18.0619 11.9625 18.0047 12.0601 17.9432 12.1543C17.8207 12.3424 17.6819 12.5194 17.5283 12.6831C16.8976 13.3561 16.09 13.7277 15.254 13.7277C14.9405 13.7275 14.6292 13.6759 14.3325 13.5748C14.2328 13.541 14.1349 13.502 14.0392 13.458C13.6386 13.2711 13.2782 13.0079 12.9783 12.6831C12.3539 12.0059 11.9807 11.1351 11.9207 10.216C11.912 10.0917 11.9091 9.96861 11.912 9.84683C11.9157 9.66828 11.9326 9.49025 11.9625 9.31418V9.31322ZM4.76461 10.4833C4.788 10.1403 4.87267 9.80424 5.01459 9.49109C5.02189 9.47518 5.02935 9.45934 5.03695 9.44357C5.04498 9.42693 5.05318 9.41038 5.06155 9.3939C5.0887 9.34044 5.11761 9.28788 5.14823 9.23631C5.24623 9.0709 5.36214 8.91678 5.49387 8.77673C5.68901 8.56855 5.91623 8.39295 6.16688 8.25659C6.29207 8.18818 6.42243 8.12967 6.55675 8.08161C7.07146 7.90158 7.62484 7.86193 8.15996 7.96671C8.72698 8.07638 9.24486 8.36241 9.63963 8.78395C9.95942 9.12915 10.1839 9.54701 10.2969 9.99674C10.3494 10.2058 10.3778 10.4218 10.3804 10.6405C10.3828 10.7419 10.3804 10.8438 10.3732 10.9472C10.3617 11.1028 10.3396 11.2572 10.3072 11.4093C10.2572 11.644 10.1828 11.8733 10.0848 12.0932C10.0074 12.2678 9.91529 12.4354 9.80933 12.5942C9.60554 12.9021 9.34908 13.1718 9.05171 13.3907C8.9796 13.4422 8.90461 13.4902 8.82721 13.5383C8.67498 13.629 8.51391 13.7039 8.34648 13.7618C8.09614 13.8493 7.8329 13.8942 7.56771 13.8945C7.523 13.8945 7.4783 13.8945 7.43407 13.8907C7.34576 13.8858 7.2578 13.8759 7.17063 13.8609C7.08391 13.8458 6.99806 13.826 6.91345 13.8017C6.78635 13.765 6.66228 13.7186 6.54233 13.6628C6.50195 13.6441 6.46253 13.6244 6.42311 13.6037C5.55781 13.1475 4.90546 12.2019 4.77759 11.0982C4.77182 11.0477 4.76701 10.9972 4.76365 10.9462C4.7528 10.7921 4.75312 10.6374 4.76461 10.4833ZM7.35667 19.069C6.07672 18.2254 5.04806 17.052 4.37907 15.6727C4.35722 15.6286 4.35312 15.5778 4.36761 15.5308C4.38209 15.4837 4.41407 15.444 4.45695 15.4199C5.35013 14.9175 6.49089 14.644 7.56867 14.644C8.3859 14.644 9.0445 14.7401 9.62088 14.9266C9.68623 14.9481 9.74461 14.9868 9.78994 15.0385C9.83527 15.0903 9.86589 15.1532 9.8786 15.2208C9.89132 15.2885 9.88567 15.3582 9.86224 15.4229C9.83881 15.4876 9.79846 15.5448 9.74539 15.5886C8.6229 16.502 7.89941 17.6336 7.55954 18.9897C7.55446 19.0105 7.54446 19.0297 7.53039 19.0457C7.51632 19.0618 7.49859 19.0743 7.4787 19.082C7.45881 19.0898 7.43734 19.0927 7.4161 19.0904C7.39486 19.0882 7.37448 19.0808 7.35667 19.069ZM12 20.4607C10.9177 20.4618 9.84532 20.2542 8.84163 19.8492C8.80061 19.8323 8.76672 19.8017 8.74569 19.7626C8.72466 19.7236 8.71779 19.6784 8.72626 19.6348C8.74549 19.5363 8.76664 19.4464 8.78539 19.3714C9.12766 18.0047 9.97566 16.8716 11.2371 16.0938C12.3567 15.404 13.7849 15.0242 15.2521 15.0242C16.75 15.0242 18.1364 15.3886 19.2652 16.0775C19.2939 16.0955 19.3145 16.1239 19.3227 16.1569C19.3309 16.1898 19.3259 16.2246 19.3089 16.2539C18.5645 17.5327 17.498 18.5941 16.2156 19.3322C14.9331 20.0703 13.4797 20.4594 12 20.4607ZM10.3739 10.9442C10.3811 10.8409 10.3835 10.7389 10.3811 10.6375C10.3836 10.7385 10.3812 10.8407 10.3739 10.9442ZM11.9202 10.2205C11.9137 10.1271 11.9104 10.0344 11.9104 9.94246C11.9104 10.0335 11.9137 10.1262 11.9202 10.2205ZM11.9115 9.85133C11.9108 9.88152 11.9104 9.9119 11.9104 9.94246C11.9104 9.912 11.9108 9.88162 11.9115 9.85133Z" fill="currentColor"/></svg>
