<svg width="16" height="16" viewBox="0 0 16 16" fill="none" xmlns="http://www.w3.org/2000/svg">
<path d="M5.33104 15.3333C2.32607 13.6397 1.53493 12.0367 1.98725 9.84732C2.32117 8.23068 3.41458 6.91538 3.51943 5.30184C3.9865 6.15182 4.18166 6.76473 4.23385 7.65296C5.71938 5.8329 6.70104 3.3133 6.75917 0.666626C6.75917 0.666626 10.6284 2.94008 10.8823 6.37416C11.2154 5.66633 11.3831 4.54215 11.05 3.81356C12.0492 4.54218 17.898 11.0105 10.2578 15.3333C11.6942 12.5364 10.6283 8.76249 8.13429 7.01952C8.30086 7.76897 8.00883 10.5642 6.90545 11.7925C7.21117 9.74017 6.61456 8.87237 6.61456 8.87237C6.61456 8.87237 6.40979 10.0219 5.61529 11.1832C4.88978 12.2436 4.38708 13.3691 5.33104 15.3333Z" fill="currentColor"/>
</svg>
