<svg width="16" height="16" viewBox="0 0 16 16" fill="none" xmlns="http://www.w3.org/2000/svg">
<path fill-rule="evenodd" clip-rule="evenodd" d="M12.5 2H3.5C2.39543 2 1.5 2.89543 1.5 4V7V10C1.5 11.1046 2.39543 12 3.5 12H12.5C13.6046 12 14.5 11.1046 14.5 10V7V4C14.5 2.89543 13.6046 2 12.5 2ZM0.5 4V7V12C0.5 13.6569 1.84315 15 3.5 15H12.5C14.1569 15 15.5 13.6569 15.5 12V7V4C15.5 2.34315 14.1569 1 12.5 1H3.5C1.84315 1 0.5 2.34315 0.5 4ZM12.4569 6.11237V5.36243H11.7796L11.7796 4.5H10.7812L10.7812 5.36243H10.2891V6.11237H10.7812L10.7812 7.97691C10.7796 8.21283 10.8289 8.40813 10.9288 8.5628C11.0288 8.71748 11.1687 8.83153 11.3483 8.90496C11.5296 8.97839 11.7405 9.01042 11.9811 9.00105C12.1108 8.99636 12.2209 8.98308 12.3115 8.96121C12.4022 8.9409 12.4725 8.92293 12.5225 8.90731L12.3654 8.1644C12.3405 8.16909 12.3045 8.17612 12.2576 8.18549C12.2108 8.1933 12.1639 8.19721 12.117 8.19721C12.0498 8.19721 11.9905 8.18705 11.9389 8.16674C11.8889 8.14643 11.8499 8.11128 11.8217 8.06128C11.7936 8.00972 11.7796 7.93785 11.7796 7.84567L11.7796 6.11237H12.4569ZM9.56641 4V9H8.56641V4H9.56641ZM3.5 9H4.58741L5.00903 7.70517H6.73686L7.15434 9H8.24176L6.53096 4H5.22325L3.5 9ZM6.48146 6.91304L5.89585 5.09679H5.85835L5.26695 6.91304H6.48146Z" fill="#A4A4AD"/>
</svg>
