<svg width="16" height="16" viewBox="0 0 16 16" fill="none" xmlns="http://www.w3.org/2000/svg">
<path fill-rule="evenodd" clip-rule="evenodd" d="M12.5 2H3.5C2.39543 2 1.5 2.89543 1.5 4V7V10C1.5 11.1046 2.39543 12 3.5 12H12.5C13.6046 12 14.5 11.1046 14.5 10V7V4C14.5 2.89543 13.6046 2 12.5 2ZM0.5 4V7V12C0.5 13.6569 1.84315 15 3.5 15H12.5C14.1569 15 15.5 13.6569 15.5 12V7V4C15.5 2.34315 14.1569 1 12.5 1H3.5C1.84315 1 0.5 2.34315 0.5 4ZM4.57031 5.13672C4.29417 5.13672 4.07031 5.36058 4.07031 5.63672C4.07031 5.91286 4.29417 6.13672 4.57031 6.13672H6.05377C6.25379 6.13672 6.43456 6.25592 6.51335 6.43976L7.27956 8.2276C7.51593 8.77912 8.05824 9.13672 8.65828 9.13672H11.4275C11.7036 9.13672 11.9275 8.91286 11.9275 8.63672C11.9275 8.36058 11.7036 8.13672 11.4275 8.13672H8.65828C8.45827 8.13672 8.2775 8.01752 8.19871 7.83368L7.43249 6.04584C7.19612 5.49431 6.65382 5.13672 6.05377 5.13672H4.57031ZM9.2846 5.13672C9.00846 5.13672 8.7846 5.36058 8.7846 5.63672C8.7846 5.91286 9.00846 6.13672 9.2846 6.13672H11.4275C11.7036 6.13672 11.9275 5.91286 11.9275 5.63672C11.9275 5.36058 11.7036 5.13672 11.4275 5.13672H9.2846Z" fill="#A4A4AD"/>
</svg>
