<svg width="17" height="16" viewBox="0 0 17 16" fill="none" xmlns="http://www.w3.org/2000/svg">
  <path fill-rule="evenodd" clip-rule="evenodd" d="M12.8448 2H3.84485C2.74028 2 1.84485 2.89543 1.84485 4V7V10C1.84485 11.1046 2.74028 12 3.84485 12H12.8448C13.9494 12 14.8448 11.1046 14.8448 10V7V4C14.8448 2.89543 13.9494 2 12.8448 2ZM0.844849 4V7V12C0.844849 13.6569 2.18799 15 3.84485 15H12.8448C14.5017 15 15.8448 13.6569 15.8448 12V7V4C15.8448 2.34315 14.5017 1 12.8448 1H3.84485C2.18799 1 0.844849 2.34315 0.844849 4ZM4.91516 5.13672C4.63902 5.13672 4.41516 5.36058 4.41516 5.63672C4.41516 5.91286 4.63902 6.13672 4.91516 6.13672H6.39862C6.59864 6.13672 6.77941 6.25592 6.85819 6.43976L7.62441 8.2276C7.86078 8.77912 8.40309 9.13672 9.00313 9.13672H11.7723C12.0484 9.13672 12.2723 8.91286 12.2723 8.63672C12.2723 8.36058 12.0484 8.13672 11.7723 8.13672H9.00313C8.80311 8.13672 8.62235 8.01752 8.54356 7.83368L7.77734 6.04584C7.54097 5.49431 6.99866 5.13672 6.39862 5.13672H4.91516ZM9.62945 5.13672C9.3533 5.13672 9.12945 5.36058 9.12945 5.63672C9.12945 5.91286 9.3533 6.13672 9.62945 6.13672H11.7723C12.0484 6.13672 12.2723 5.91286 12.2723 5.63672C12.2723 5.36058 12.0484 5.13672 11.7723 5.13672H9.62945Z" fill="currentColor"/>
</svg>
