<svg width="12" height="12" viewBox="0 0 12 12" fill="none" xmlns="http://www.w3.org/2000/svg"><path d="M6.58333 3.66667C6.58333 3.98883 6.32217 4.25 6 4.25C5.67783 4.25 5.41667 3.98883 5.41667 3.66667C5.41667 3.3445 5.67783 3.08333 6 3.08333C6.32217 3.08333 6.58333 3.3445 6.58333 3.66667Z" fill="currentColor"/><path d="M6 4.83333C5.67783 4.83333 5.41667 5.0945 5.41667 5.41667V8.33333C5.41667 8.6555 5.67783 8.91667 6 8.91667C6.32217 8.91667 6.58333 8.6555 6.58333 8.33333V5.41667C6.58333 5.0945 6.32217 4.83333 6 4.83333Z" fill="currentColor"/><path fill-rule="evenodd" clip-rule="evenodd" d="M6 11.25C8.8995 11.25 11.25 8.8995 11.25 6C11.25 3.1005 8.8995 0.75 6 0.75C3.1005 0.75 0.75 3.1005 0.75 6C0.75 8.8995 3.1005 11.25 6 11.25ZM6 10.0833C8.25516 10.0833 10.0833 8.25516 10.0833 6C10.0833 3.74484 8.25516 1.91667 6 1.91667C3.74484 1.91667 1.91667 3.74484 1.91667 6C1.91667 8.25516 3.74484 10.0833 6 10.0833Z" fill="currentColor"/></svg>
