<svg width="24" height="24" viewBox="0 0 24 24" fill="none" xmlns="http://www.w3.org/2000/svg"><path fill-rule="evenodd" clip-rule="evenodd" d="M6.14286 6.21053C7.32632 6.21053 8.28571 5.26797 8.28571 4.10526C8.28571 2.94256 7.32632 2 6.14286 2C4.95939 2 4 2.94256 4 4.10526C4 5.26797 4.95939 6.21053 6.14286 6.21053ZM6.14286 5.15789C6.73459 5.15789 7.21429 4.68662 7.21429 4.10526C7.21429 3.52391 6.73459 3.05263 6.14286 3.05263C5.55112 3.05263 5.07143 3.52391 5.07143 4.10526C5.07143 4.68662 5.55112 5.15789 6.14286 5.15789Z" fill="currentColor"/><path fill-rule="evenodd" clip-rule="evenodd" d="M11.5 6.21053C12.6835 6.21053 13.6429 5.26797 13.6429 4.10526C13.6429 2.94256 12.6835 2 11.5 2C10.3165 2 9.35714 2.94256 9.35714 4.10526C9.35714 5.26797 10.3165 6.21053 11.5 6.21053ZM11.5 5.15789C12.0917 5.15789 12.5714 4.68662 12.5714 4.10526C12.5714 3.52391 12.0917 3.05263 11.5 3.05263C10.9083 3.05263 10.4286 3.52391 10.4286 4.10526C10.4286 4.68662 10.9083 5.15789 11.5 5.15789Z" fill="currentColor"/><path fill-rule="evenodd" clip-rule="evenodd" d="M16.8571 6.21053C18.0406 6.21053 19 5.26797 19 4.10526C19 2.94256 18.0406 2 16.8571 2C15.6737 2 14.7143 2.94256 14.7143 4.10526C14.7143 5.26797 15.6737 6.21053 16.8571 6.21053ZM16.8571 5.15789C17.4489 5.15789 17.9286 4.68662 17.9286 4.10526C17.9286 3.52391 17.4489 3.05263 16.8571 3.05263C16.2654 3.05263 15.7857 3.52391 15.7857 4.10526C15.7857 4.68662 16.2654 5.15789 16.8571 5.15789Z" fill="currentColor"/><path fill-rule="evenodd" clip-rule="evenodd" d="M6.14286 11.4737C7.32632 11.4737 8.28571 10.5311 8.28571 9.36842C8.28571 8.20572 7.32632 7.26316 6.14286 7.26316C4.95939 7.26316 4 8.20572 4 9.36842C4 10.5311 4.95939 11.4737 6.14286 11.4737ZM6.14286 10.4211C6.73459 10.4211 7.21429 9.94977 7.21429 9.36842C7.21429 8.78707 6.73459 8.31579 6.14286 8.31579C5.55112 8.31579 5.07143 8.78707 5.07143 9.36842C5.07143 9.94977 5.55112 10.4211 6.14286 10.4211Z" fill="currentColor"/><path fill-rule="evenodd" clip-rule="evenodd" d="M6.14286 16.7368C7.32632 16.7368 8.28571 15.7943 8.28571 14.6316C8.28571 13.4689 7.32632 12.5263 6.14286 12.5263C4.95939 12.5263 4 13.4689 4 14.6316C4 15.7943 4.95939 16.7368 6.14286 16.7368ZM6.14286 15.6842C6.73459 15.6842 7.21429 15.2129 7.21429 14.6316C7.21429 14.0502 6.73459 13.5789 6.14286 13.5789C5.55112 13.5789 5.07143 14.0502 5.07143 14.6316C5.07143 15.2129 5.55112 15.6842 6.14286 15.6842Z" fill="currentColor"/><path fill-rule="evenodd" clip-rule="evenodd" d="M11.5 11.4737C12.6835 11.4737 13.6429 10.5311 13.6429 9.36842C13.6429 8.20572 12.6835 7.26316 11.5 7.26316C10.3165 7.26316 9.35714 8.20572 9.35714 9.36842C9.35714 10.5311 10.3165 11.4737 11.5 11.4737ZM11.5 10.4211C12.0917 10.4211 12.5714 9.94977 12.5714 9.36842C12.5714 8.78707 12.0917 8.31579 11.5 8.31579C10.9083 8.31579 10.4286 8.78707 10.4286 9.36842C10.4286 9.94977 10.9083 10.4211 11.5 10.4211Z" fill="currentColor"/><path fill-rule="evenodd" clip-rule="evenodd" d="M11.5 16.7368C12.6835 16.7368 13.6429 15.7943 13.6429 14.6316C13.6429 13.4689 12.6835 12.5263 11.5 12.5263C10.3165 12.5263 9.35714 13.4689 9.35714 14.6316C9.35714 15.7943 10.3165 16.7368 11.5 16.7368ZM11.5 15.6842C12.0917 15.6842 12.5714 15.2129 12.5714 14.6316C12.5714 14.0502 12.0917 13.5789 11.5 13.5789C10.9083 13.5789 10.4286 14.0502 10.4286 14.6316C10.4286 15.2129 10.9083 15.6842 11.5 15.6842Z" fill="currentColor"/><path fill-rule="evenodd" clip-rule="evenodd" d="M11.5 22C12.6835 22 13.6429 21.0574 13.6429 19.8947C13.6429 18.732 12.6835 17.7895 11.5 17.7895C10.3165 17.7895 9.35714 18.732 9.35714 19.8947C9.35714 21.0574 10.3165 22 11.5 22ZM11.5 20.9474C12.0917 20.9474 12.5714 20.4761 12.5714 19.8947C12.5714 19.3134 12.0917 18.8421 11.5 18.8421C10.9083 18.8421 10.4286 19.3134 10.4286 19.8947C10.4286 20.4761 10.9083 20.9474 11.5 20.9474Z" fill="currentColor"/><path fill-rule="evenodd" clip-rule="evenodd" d="M16.8571 11.4737C18.0406 11.4737 19 10.5311 19 9.36842C19 8.20572 18.0406 7.26316 16.8571 7.26316C15.6737 7.26316 14.7143 8.20572 14.7143 9.36842C14.7143 10.5311 15.6737 11.4737 16.8571 11.4737ZM16.8571 10.4211C17.4489 10.4211 17.9286 9.94977 17.9286 9.36842C17.9286 8.78707 17.4489 8.31579 16.8571 8.31579C16.2654 8.31579 15.7857 8.78707 15.7857 9.36842C15.7857 9.94977 16.2654 10.4211 16.8571 10.4211Z" fill="currentColor"/><path fill-rule="evenodd" clip-rule="evenodd" d="M16.8571 16.7368C18.0406 16.7368 19 15.7943 19 14.6316C19 13.4689 18.0406 12.5263 16.8571 12.5263C15.6737 12.5263 14.7143 13.4689 14.7143 14.6316C14.7143 15.7943 15.6737 16.7368 16.8571 16.7368ZM16.8571 15.6842C17.4489 15.6842 17.9286 15.2129 17.9286 14.6316C17.9286 14.0502 17.4489 13.5789 16.8571 13.5789C16.2654 13.5789 15.7857 14.0502 15.7857 14.6316C15.7857 15.2129 16.2654 15.6842 16.8571 15.6842Z" fill="currentColor"/></svg>
