<svg width="24" height="24" viewBox="0 0 24 24" fill="none" xmlns="http://www.w3.org/2000/svg"><path fill-rule="evenodd" clip-rule="evenodd" d="M12.3559 15.7022C12.4658 15.5463 12.5102 15.3551 12.4795 15.168C12.4477 14.9744 12.3381 14.801 12.1748 14.6857L12.1718 14.6836L12.1614 14.676L12.1348 14.6562C12.1121 14.6391 12.0796 14.6144 12.0382 14.5817C11.9552 14.5165 11.8361 14.4198 11.6866 14.2904C11.3875 14.0316 10.9665 13.642 10.469 13.1116L10.3342 12.9679L10.4531 12.8115C12.2433 10.4586 13.2607 7.77558 13.6763 6.50957L13.7305 6.34468H15.3845C15.5867 6.34468 15.7806 6.26672 15.9235 6.12795C16.0664 5.98918 16.1467 5.80096 16.1467 5.60471C16.1467 5.40845 16.0664 5.22024 15.9235 5.08147C15.7806 4.94269 15.5867 4.86473 15.3845 4.86473H9.83559V3.73997C9.83559 3.54372 9.75528 3.35551 9.61234 3.21673C9.4694 3.07796 9.27552 3 9.07337 3C8.87122 3 8.67735 3.07796 8.5344 3.21673C8.39146 3.35551 8.31115 3.54372 8.31115 3.73997V4.86473H2.76222C2.56006 4.86473 2.36619 4.94269 2.22325 5.08147C2.0803 5.22024 2 5.40845 2 5.60471C2 5.80096 2.0803 5.98918 2.22325 6.12795C2.36619 6.26672 2.56006 6.34468 2.76222 6.34468H12.1279L12.013 6.66034C11.5741 7.86659 10.7639 9.77735 9.52401 11.5267L9.33207 11.7975L9.12828 11.535C7.71569 9.71524 7.163 8.51455 7.12494 8.4288C7.04527 8.25006 6.89622 8.10902 6.71013 8.03626C6.52404 7.96351 6.31591 7.96491 6.13088 8.04016C5.94585 8.11541 5.79884 8.25845 5.72173 8.43825C5.64482 8.61758 5.64364 8.81906 5.7184 8.9992C5.74769 9.06653 6.38029 10.5009 8.10335 12.6711C8.14481 12.7231 8.1859 12.774 8.22759 12.8256L8.35306 12.9809L8.21836 13.1286C6.40765 15.1154 4.62554 16.3549 3.86139 16.7638L3.86044 16.7643C3.68296 16.8583 3.5512 17.0169 3.49415 17.2052C3.4371 17.3935 3.45943 17.5961 3.55624 17.7684C3.65305 17.9407 3.81639 18.0686 4.01034 18.124C4.20429 18.1794 4.41296 18.1577 4.59045 18.0637C4.67472 18.019 6.77345 16.8926 9.1741 14.3128L9.35198 14.1216L9.53323 14.3098C10.5518 15.3671 11.2473 15.861 11.2766 15.8812L11.2788 15.8827C11.3599 15.9399 11.4518 15.981 11.5492 16.0036C11.6467 16.0263 11.7477 16.0301 11.8467 16.0148C11.9457 15.9995 12.0405 15.9654 12.1259 15.9144C12.2113 15.8635 12.2854 15.7967 12.3442 15.7179L12.3559 15.7022ZM21.8036 19.6461L17.8267 10.2944C17.7691 10.159 17.6714 10.0432 17.546 9.96172C17.4206 9.88026 17.2731 9.83678 17.1222 9.83678C16.9713 9.83678 16.8238 9.88026 16.6984 9.96172C16.5729 10.0432 16.4752 10.159 16.4177 10.2944L12.3017 19.9732L12.3012 19.9743C12.2625 20.0642 12.2424 20.1607 12.2421 20.2582C12.2419 20.3556 12.2614 20.4522 12.2998 20.5423C12.3381 20.6324 12.3943 20.7143 12.4653 20.7832C12.5363 20.8522 12.6207 20.9068 12.7135 20.944C12.8063 20.9812 12.9057 21.0002 13.0062 21C13.1066 20.9998 13.2059 20.9803 13.2986 20.9426C13.3912 20.905 13.4753 20.85 13.5459 20.7807C13.6166 20.7114 13.6724 20.6293 13.7103 20.539L13.7108 20.5379L14.6113 18.4207H19.6331L20.5336 20.5379C20.5912 20.6734 20.6889 20.7893 20.8144 20.8708C20.9398 20.9523 21.0873 20.9958 21.2382 20.9958C21.3635 20.9957 21.4868 20.9657 21.5972 20.9083C21.7077 20.851 21.8019 20.7681 21.8715 20.667C21.9411 20.5659 21.9839 20.4497 21.9963 20.3287C22.0086 20.2077 21.9901 20.0856 21.9423 19.9733L21.8036 19.6461ZM17.1224 12.516L19.0039 16.9407H15.2409L17.1224 12.516Z" fill="currentColor"/></svg>
