<svg width="16" height="16" viewBox="0 0 16 16" fill="none" xmlns="http://www.w3.org/2000/svg"><path fill-rule="evenodd" clip-rule="evenodd" d="M8 2.2C4.79675 2.2 2.2 4.79675 2.2 8C2.2 11.2033 4.79675 13.8 8 13.8C11.2033 13.8 13.8 11.2033 13.8 8C13.8 4.79675 11.2033 2.2 8 2.2ZM1 8C1 4.13401 4.13401 1 8 1C11.866 1 15 4.13401 15 8C15 11.866 11.866 15 8 15C4.13401 15 1 11.866 1 8Z" fill="currentColor" fill-opacity="0.24"/><path fill-rule="evenodd" clip-rule="evenodd" d="M0.771329 7.59394C0.46231 7.24267 0.56938 6.70251 0.69476 6.24439C1.39448 3.68766 3.64368 1.43532 6.13826 0.708C6.66861 0.55337 7.30549 0.448759 7.68999 0.847318C7.88144 1.04577 7.99995 1.32047 7.99995 1.62399C7.99995 2.08678 7.72449 2.48256 7.33501 2.64325C7.08984 2.74439 6.81604 2.74307 6.56332 2.82156C4.73853 3.38835 3.01989 5.11259 2.63566 7.02176C2.57936 7.57169 2.13249 8.00001 1.58938 8.00001C1.25908 8.00001 0.964279 7.84173 0.771329 7.59394Z" fill="currentColor"/></svg>
