<svg width="24" height="24" viewBox="0 0 24 24" fill="none" xmlns="http://www.w3.org/2000/svg"><path fill-rule="evenodd" clip-rule="evenodd" d="M12 2C8.16445 2 5 5.01803 5 8.8002C5 10.9363 6.13977 13.5951 7.40073 15.9098C8.67818 18.2547 10.1499 20.3687 10.9393 21.4528C11.061 21.6219 11.2202 21.7596 11.4039 21.8547C11.5886 21.9502 11.7928 22 12 22C12.2072 22 12.4114 21.9502 12.5961 21.8547C12.7792 21.7599 12.9379 21.6228 13.0595 21.4544C13.8486 20.3713 15.3212 18.2571 16.5993 15.9113C17.8603 13.5969 19 10.9379 19 8.8002C19 5.01803 15.8356 2 12 2ZM6.22973 8.8002C6.22973 5.76624 8.7853 3.25006 12 3.25006C15.2147 3.25006 17.7703 5.76624 17.7703 8.8002C17.7703 10.5871 16.7816 12.9965 15.5235 15.3057C14.2825 17.5835 12.8452 19.6481 12.0712 20.7105L12.0712 20.7105L12.0682 20.7146C12.0604 20.7256 12.0501 20.7345 12.0383 20.7406C12.0264 20.7467 12.0133 20.7499 12 20.7499C11.9867 20.7499 11.9736 20.7467 11.9617 20.7406C11.9499 20.7345 11.9396 20.7256 11.9318 20.7146L11.9318 20.7146L11.9288 20.7106C11.1549 19.6478 9.71758 17.5823 8.47651 15.3042C7.21834 12.9946 6.22973 10.5855 6.22973 8.8002ZM10.4865 9.11572C10.4865 8.26601 11.1641 7.57718 12 7.57718C12.8359 7.57718 13.5135 8.26601 13.5135 9.11572C13.5135 9.96542 12.8359 10.6543 12 10.6543C11.1641 10.6543 10.4865 9.96542 10.4865 9.11572ZM12 6.32713C10.4849 6.32713 9.25676 7.57562 9.25676 9.11572C9.25676 10.6558 10.4849 11.9043 12 11.9043C13.5151 11.9043 14.7432 10.6558 14.7432 9.11572C14.7432 7.57562 13.5151 6.32713 12 6.32713Z" fill="currentColor"/></svg>
