<svg width="16" height="16" viewBox="0 0 16 16" fill="none" xmlns="http://www.w3.org/2000/svg">
<path id="rectangle.stack.person.crop.fill" d="M3.5744 0.955017H12.5502C12.5017 0.33218 12.1349 0 11.4637 0H4.65398C3.98962 0 3.61592 0.33218 3.5744 0.955017ZM2.10035 2.96886H13.9135C13.8166 2.31142 13.4775 1.9308 12.737 1.9308H3.2699C2.52941 1.9308 2.19723 2.31142 2.10035 2.96886ZM2.77855 16H13.2145C14.7093 16 15.4983 15.2249 15.4983 13.7439V6.36678C15.4983 4.88581 14.7093 4.11073 13.2145 4.11073H2.77855C1.27682 4.11073 0.501732 4.87889 0.501732 6.36678V13.7439C0.501732 15.2249 1.27682 16 2.77855 16ZM7.99654 11.1695C6.79239 11.1626 5.85813 10.1592 5.85121 8.83045C5.85121 7.57093 6.79931 6.52595 7.99654 6.52595C9.20069 6.52595 10.1419 7.57093 10.1419 8.83045C10.1419 10.1592 9.20761 11.1834 7.99654 11.1695ZM3.94118 14.6574C4.48789 13.2111 6.08651 12.2007 7.99654 12.2007C9.9135 12.2007 11.5052 13.2111 12.0588 14.6574H3.94118Z" fill="currentColor"/>
</svg>
