<svg width="24" height="24" viewBox="0 0 24 24" fill="none" xmlns="http://www.w3.org/2000/svg"><path fill-rule="evenodd" clip-rule="evenodd" d="M16 3.94391C15.6209 3.75438 15.2266 3.59082 14.8194 3.45561C13.9296 3.16013 12.9782 3 11.9894 3C7.02467 3 3 7.02943 3 12C3 16.9706 7.02467 21 11.9894 21C12.9782 21 13.9296 20.8399 14.8194 20.5444C15.2266 20.4092 15.6209 20.2456 16 20.0561C15.6331 19.8726 15.2804 19.6648 14.9442 19.4347C12.5758 17.814 11.0213 15.0889 11.0213 12C11.0213 8.91106 12.5758 6.18602 14.9442 4.56531C15.2804 4.33521 15.6331 4.12737 16 3.94391ZM13.7628 4.19786C13.1928 4.06842 12.5994 4 11.9894 4C7.57806 4 4 7.5806 4 12C4 16.4194 7.57806 20 11.9894 20C12.5994 20 13.1928 19.9316 13.7628 19.8021C11.4826 17.9702 10.0213 15.1566 10.0213 12C10.0213 8.84345 11.4826 6.02979 13.7628 4.19786Z" fill="currentColor"/><path d="M16.4145 9.15187L14.6761 9.51877L15.8668 10.8375L15.6786 12.6042L17.3007 11.8792L18.9228 12.6042L18.7345 10.8375L19.9253 9.51877L18.1868 9.15187L17.3007 7.61187L16.4145 9.15187Z" fill="currentColor"/><path d="M21.6813 16.3155L20.5425 16.0751L19.9619 15.0661L19.3813 16.0751L18.2425 16.3155L19.0226 17.1793L18.8993 18.3367L19.9619 17.8618L21.0248 18.3367L20.9013 17.1793L21.6813 16.3155Z" fill="currentColor"/></svg>
