<svg width="24" height="24" viewBox="0 0 24 24" fill="none" xmlns="http://www.w3.org/2000/svg">
<path fill-rule="evenodd" clip-rule="evenodd" d="M3.08062 19.5306H20.9194H3.08062Z" fill="currentColor"/>
<path fill-rule="evenodd" clip-rule="evenodd" d="M12 12.5933V19.5306V12.5933Z" fill="currentColor"/>
<path fill-rule="evenodd" clip-rule="evenodd" d="M17.9463 12.5933V19.5306V12.5933Z" fill="currentColor"/>
<path fill-rule="evenodd" clip-rule="evenodd" d="M6.05375 12.5933V19.5306V12.5933Z" fill="currentColor"/>
<path fill-rule="evenodd" clip-rule="evenodd" d="M11.1136 3.00906C11.6716 2.73005 12.3284 2.73005 12.8864 3.00906L20.9563 7.044C22.7335 7.9326 22.1012 10.6112 20.1142 10.6112H3.8858C1.89884 10.6112 1.2665 7.9326 3.04371 7.044L11.1136 3.00906ZM6.05375 11.6022C6.60108 11.6022 7.04479 12.0459 7.04479 12.5933V18.5395H11.009V12.5933C11.009 12.0459 11.4527 11.6022 12 11.6022C12.5473 11.6022 12.991 12.0459 12.991 12.5933V18.5395H16.9552V12.5933C16.9552 12.0459 17.3989 11.6022 17.9463 11.6022C18.4936 11.6022 18.9373 12.0459 18.9373 12.5933V18.5395H20.9194C21.4667 18.5395 21.9104 18.9832 21.9104 19.5306C21.9104 20.0779 21.4667 20.5216 20.9194 20.5216H3.08062C2.53328 20.5216 2.08958 20.0779 2.08958 19.5306C2.08958 18.9832 2.53328 18.5395 3.08062 18.5395H5.0627V12.5933C5.0627 12.0459 5.50641 11.6022 6.05375 11.6022Z" fill="currentColor"/>
</svg>
