<svg width="48" height="48" viewBox="0 0 48 48" fill="none" xmlns="http://www.w3.org/2000/svg"><path d="M23.9967 13.5507C27.5802 13.5507 30.4852 11.8604 30.4852 9.77537C30.4852 7.69029 27.5802 6 23.9967 6C20.4132 6 17.5082 7.69029 17.5082 9.77537C17.5082 11.8604 20.4132 13.5507 23.9967 13.5507Z" fill="currentColor"/><path d="M23.9967 41.9974C27.5802 41.9974 30.4852 40.3072 30.4852 38.2221C30.4852 36.137 27.5802 34.4467 23.9967 34.4467C20.4132 34.4467 17.5082 36.137 17.5082 38.2221C17.5082 40.3072 20.4132 41.9974 23.9967 41.9974Z" fill="currentColor"/><path d="M14.9545 18.7767C16.7462 15.672 16.7346 12.3095 14.9285 11.2662C13.1224 10.223 10.2058 11.8941 8.414 14.9988C6.62225 18.1035 6.63388 21.4661 8.43998 22.5093C10.2461 23.5526 13.1627 21.8814 14.9545 18.7767Z" fill="currentColor"/><path d="M39.5764 32.9984C41.3682 29.8937 41.3575 26.5317 39.5527 25.4892C37.7478 24.4466 34.8322 26.1183 33.0404 29.223C31.2487 32.3277 31.2593 35.6897 33.0642 36.7322C34.869 37.7748 37.7847 36.1031 39.5764 32.9984Z" fill="currentColor"/><path d="M14.9294 36.7314C16.7355 35.6881 16.7471 32.3256 14.9554 29.2209C13.1636 26.1162 10.247 24.4451 8.44089 25.4883C6.63479 26.5315 6.62316 29.8941 8.41492 32.9988C10.2067 36.1035 13.1233 37.7746 14.9294 36.7314Z" fill="currentColor"/><path d="M39.5542 22.5102C41.3591 21.4676 41.3697 18.1056 39.578 15.0009C37.7862 11.8962 34.8706 10.2245 33.0657 11.2671C31.2608 12.3096 31.2502 15.6716 33.042 18.7763C34.8337 21.881 37.7493 23.5527 39.5542 22.5102Z" fill="currentColor"/></svg>
