<svg width="16" height="16" viewBox="0 0 16 16" fill="none" xmlns="http://www.w3.org/2000/svg">
<g id="ic_fnc_profile_16">
<path id="person_circle" d="M7.99613 16C12.3809 16 16 12.3791 16 8C16 3.62089 12.3731 0 7.9884 0C3.61141 0 0 3.62089 0 8C0 12.3791 3.61914 16 7.99613 16ZM7.9884 9.26112C6.47269 9.25338 5.29725 7.98453 5.29725 6.30561C5.28178 4.72727 6.48043 3.41199 7.9884 3.41199C9.49638 3.41199 10.6796 4.72727 10.6796 6.30561C10.6796 7.98453 9.50411 9.2766 7.9884 9.26112ZM7.9884 14.677C6.25616 14.677 4.41566 13.9574 3.24795 12.7041C4.13726 11.3733 5.90043 10.5996 7.9884 10.5996C10.0532 10.5996 11.8318 11.3578 12.7289 12.7041C11.5611 13.9574 9.72064 14.677 7.9884 14.677Z" fill="currentColor"/>
</g>
</svg>
