<svg width="7" height="11" viewBox="0 0 7 11" fill="none" xmlns="http://www.w3.org/2000/svg">
<path d="M2.45597 7.22088V7.10085C2.45904 6.5438 2.51136 6.10062 2.61293 5.77131C2.71757 5.442 2.86529 5.17732 3.05611 4.97727C3.24692 4.77415 3.47929 4.58795 3.7532 4.41868C3.94093 4.30173 4.10866 4.17401 4.25639 4.03551C4.4072 3.89394 4.52569 3.73698 4.61186 3.56463C4.69804 3.3892 4.74112 3.19377 4.74112 2.97834C4.74112 2.7352 4.68419 2.52438 4.57031 2.34588C4.45644 2.16738 4.30256 2.02888 4.10867 1.9304C3.91785 1.83191 3.70395 1.78267 3.46697 1.78267C3.24846 1.78267 3.04072 1.83037 2.84375 1.92578C2.64986 2.01811 2.48828 2.15968 2.35902 2.3505C2.23284 2.53823 2.16205 2.77675 2.14666 3.06605H0.503196C0.518584 2.4813 0.660156 1.99195 0.927912 1.59801C1.19875 1.20407 1.55575 0.908617 1.99893 0.711647C2.44519 0.514678 2.93762 0.416193 3.47621 0.416193C4.06404 0.416193 4.58108 0.519294 5.02734 0.725497C5.47668 0.9317 5.82599 1.22562 6.07528 1.60724C6.32765 1.9858 6.45384 2.43513 6.45384 2.95526C6.45384 3.30611 6.3969 3.62003 6.28303 3.89702C6.17223 4.17401 6.01373 4.42022 5.80753 4.63565C5.60133 4.85109 5.35665 5.04344 5.07351 5.21271C4.82422 5.3666 4.61956 5.52663 4.45952 5.69283C4.30256 5.85902 4.18561 6.05445 4.10867 6.27912C4.0348 6.50071 3.99633 6.77462 3.99325 7.10085V7.22088H2.45597ZM3.25923 10.1016C2.98224 10.1016 2.74373 10.0031 2.54368 9.80611C2.34363 9.60914 2.24361 9.36908 2.24361 9.08594C2.24361 8.80895 2.34363 8.57197 2.54368 8.375C2.74373 8.17803 2.98224 8.07955 3.25923 8.07955C3.53314 8.07955 3.77012 8.17803 3.97017 8.375C4.1733 8.57197 4.27486 8.80895 4.27486 9.08594C4.27486 9.27367 4.22715 9.44448 4.13175 9.59837C4.03942 9.75225 3.91631 9.87536 3.76243 9.96768C3.61162 10.0569 3.44389 10.1016 3.25923 10.1016Z" fill="black" fill-opacity="0.32"/>
</svg>
