<svg width="16" height="16" viewBox="0 0 16 16" fill="none" xmlns="http://www.w3.org/2000/svg"><path fill-rule="evenodd" clip-rule="evenodd" d="M14.5901 1.86935C14.5901 1.86894 14.5901 1.86853 14.5902 1.86813C14.565 1.75781 14.5095 1.65671 14.43 1.57625C14.3504 1.49579 14.2499 1.43917 14.1399 1.41277C13.253 1.1964 11.8578 1.42706 10.3116 2.04611C8.75327 2.67111 7.29315 3.59373 6.30624 4.58243C5.98991 4.89708 5.69603 5.23352 5.42677 5.58928C4.76218 5.55952 4.17676 5.65416 3.68361 5.86934C1.96514 6.6256 1.47437 8.56102 1.34371 9.35567C1.32481 9.46858 1.33221 9.58433 1.36535 9.69391C1.39848 9.80349 1.45646 9.90394 1.53476 9.98746C1.61306 10.071 1.70958 10.1353 1.8168 10.1754C1.92402 10.2155 2.03905 10.2304 2.15294 10.2188H2.15681L4.07111 10.0098C4.07246 10.0237 4.07391 10.0369 4.0753 10.0495L4.07825 10.0771C4.10284 10.3104 4.20686 10.5281 4.3729 10.6938L5.30713 11.6286C5.47256 11.7949 5.69024 11.899 5.9235 11.9235L5.98749 11.9304L5.77915 13.8423V13.8462C5.76851 13.9491 5.77946 14.0532 5.81132 14.1517C5.84318 14.2502 5.89525 14.341 5.96418 14.4182C6.03312 14.4954 6.11741 14.5574 6.21167 14.6002C6.30593 14.643 6.40808 14.6656 6.5116 14.6667C6.55298 14.6667 6.59429 14.6634 6.63511 14.6566C7.43422 14.528 9.36875 14.0432 10.1229 12.3155C10.3363 11.8256 10.4307 11.2426 10.4042 10.5792C10.7615 10.3105 11.0992 10.0166 11.4146 9.69972C12.4095 8.70983 13.3351 7.26161 13.9536 5.72589C14.5694 4.19731 14.8012 2.79165 14.5902 1.87081C14.5901 1.87033 14.5901 1.86984 14.5901 1.86935ZM11.4039 7.0756C11.1593 7.3204 10.8477 7.48717 10.5083 7.5548C10.169 7.62244 9.81721 7.58791 9.49749 7.45558C9.17778 7.32324 8.90449 7.09906 8.71222 6.81138C8.51994 6.5237 8.41731 6.18545 8.41731 5.83943C8.41731 5.49341 8.51994 5.15516 8.71222 4.86748C8.90449 4.5798 9.17778 4.35562 9.49749 4.22328C9.81721 4.09095 10.169 4.05642 10.5083 4.12406C10.8477 4.19169 11.1593 4.35846 11.4039 4.60326C11.5678 4.76471 11.698 4.95715 11.7868 5.16937C11.8757 5.38159 11.9214 5.60936 11.9214 5.83943C11.9214 6.0695 11.8757 6.29727 11.7868 6.50949C11.698 6.72172 11.5678 6.91415 11.4039 7.0756ZM10.1679 5.04766C9.98413 5.04777 9.80607 5.11158 9.66408 5.22824C9.52208 5.3449 9.42493 5.50718 9.38917 5.68744C9.3534 5.8677 9.38125 6.05478 9.46796 6.21681C9.55467 6.37884 9.69487 6.50579 9.86469 6.57604C10.0345 6.64629 10.2234 6.65548 10.3993 6.60206C10.5751 6.54863 10.727 6.43589 10.829 6.28305C10.931 6.13021 10.9769 5.94671 10.9588 5.76383C10.9407 5.58095 10.8598 5.41 10.7298 5.28011C10.6561 5.20624 10.5685 5.14768 10.4721 5.10778C10.3756 5.06789 10.2723 5.04746 10.1679 5.04766ZM4.87263 11.9615C4.96843 11.896 5.08485 11.8678 5.20002 11.882C5.3253 11.8974 5.43935 11.962 5.51709 12.0614C5.59483 12.1609 5.6299 12.2871 5.6146 12.4124C5.56682 12.8151 5.38445 13.19 5.09704 13.4761C4.98811 13.585 4.65656 13.9166 3.39257 14.0951C3.02936 14.1456 2.66379 14.1774 2.29732 14.1904H2.28542C2.22184 14.1904 2.15891 14.1777 2.10032 14.153C2.04174 14.1283 1.98869 14.0921 1.94431 14.0466C1.89993 14.0011 1.86511 13.9472 1.84191 13.888C1.81871 13.8288 1.8076 13.7655 1.80923 13.702C1.82233 13.3358 1.85432 12.9705 1.90506 12.6076C2.08323 11.3449 2.41422 11.0131 2.52333 10.9036L2.52351 10.9035C2.80954 10.6174 3.1826 10.4346 3.58394 10.3838C3.67486 10.3726 3.76708 10.3879 3.84953 10.4279C3.93198 10.4678 4.00117 10.5306 4.04879 10.6089C4.09642 10.6871 4.12046 10.7775 4.11804 10.8691C4.11561 10.9606 4.08683 11.0496 4.03513 11.1252L3.67352 11.7502C3.44167 12.1538 3.90834 12.599 4.29852 12.3454C4.49138 12.2201 4.68245 12.0916 4.87263 11.9615Z" fill="currentColor"/></svg>
