<svg width="24" height="24" viewBox="0 0 24 24" fill="none" xmlns="http://www.w3.org/2000/svg"><path fill-rule="evenodd" clip-rule="evenodd" d="M5 2C3.34315 2 2 3.34315 2 5C2 6.65685 3.34315 8 5 8H19C20.6569 8 22 6.65685 22 5C22 3.34315 20.6569 2 19 2H5ZM19 4H5C4.44772 4 4 4.44772 4 5C4 5.55229 4.44772 6 5 6H19C19.5523 6 20 5.55228 20 5C20 4.44771 19.5523 4 19 4Z" fill="currentColor"/><path fill-rule="evenodd" clip-rule="evenodd" d="M5 9C3.34315 9 2 10.3431 2 12C2 13.6569 3.34315 15 5 15H15C16.6569 15 18 13.6569 18 12C18 10.3431 16.6569 9 15 9H5ZM15 11H5C4.44772 11 4 11.4477 4 12C4 12.5523 4.44772 13 5 13H15C15.5523 13 16 12.5523 16 12C16 11.4477 15.5523 11 15 11Z" fill="currentColor"/><path fill-rule="evenodd" clip-rule="evenodd" d="M2 19C2 17.3431 3.34315 16 5 16H12C13.6569 16 15 17.3431 15 19C15 20.6569 13.6569 22 12 22H5C3.34315 22 2 20.6569 2 19ZM5 18H12C12.5523 18 13 18.4477 13 19C13 19.5523 12.5523 20 12 20H5C4.44772 20 4 19.5523 4 19C4 18.4477 4.44772 18 5 18Z" fill="currentColor"/></svg>
