<svg width="16" height="16" viewBox="0 0 16 16" fill="none" xmlns="http://www.w3.org/2000/svg"><path fill-rule="evenodd" clip-rule="evenodd" d="M12.036 2.36393C13.2256 2.85732 13.8903 3.55711 13.9134 4.3389V4.83342C13.9134 5.01494 13.7655 5.29967 13.4972 5.53152C13.1806 5.80663 12.7107 6.07806 12.1381 6.31557C10.9198 6.82168 9.37149 7.12365 7.99673 7.12365C6.62196 7.12365 5.07367 6.82281 3.85536 6.3167C3.28275 6.07919 2.81283 5.80776 2.49623 5.53265C2.22799 5.29938 2.08008 5.01466 2.08008 4.83342L2.08264 4.33438C2.10682 3.55457 2.77159 2.85619 3.96004 2.36393C5.0458 1.91437 6.47945 1.66669 7.99673 1.66669C9.514 1.66669 10.9477 1.91437 12.036 2.36393ZM3.50434 11.9866C4.82819 12.5348 6.50761 12.8631 7.99673 12.8631C9.48584 12.8631 11.165 12.5348 12.4888 11.9866C12.9448 11.7958 13.3391 11.4942 13.6669 11.2435L13.7305 11.1949C13.7473 11.1821 13.7675 11.1742 13.7886 11.1722C13.8097 11.1701 13.831 11.174 13.85 11.1834C13.8691 11.1927 13.8851 11.2072 13.8963 11.2251C13.9075 11.243 13.9134 11.2637 13.9134 11.2848V11.6405C13.9134 12.4342 13.2452 13.1458 12.032 13.6429C10.9465 14.0882 9.51372 14.3334 7.99673 14.3334C6.47973 14.3334 5.04665 14.0882 3.96146 13.6429C2.74826 13.1453 2.08008 12.4342 2.08008 11.6405V11.2848C2.08006 11.2637 2.08599 11.243 2.09718 11.2251C2.10838 11.2072 2.12439 11.1927 2.14342 11.1834C2.16245 11.174 2.18373 11.1701 2.20486 11.1722C2.22599 11.1742 2.24612 11.1821 2.26298 11.1949L2.32351 11.2412C2.65187 11.4926 3.04723 11.7952 3.50434 11.9866ZM12.4888 7.15156C11.1653 7.70094 9.48585 8.02807 7.99673 8.02807C6.50761 8.02807 4.8282 7.70094 3.50435 7.15156C3.04524 6.96042 2.64843 6.65577 2.31922 6.40302L2.31922 6.40302L2.26299 6.35988C2.24605 6.347 2.22581 6.33911 2.20458 6.33711C2.18335 6.33512 2.16198 6.33909 2.14291 6.34858C2.12384 6.35807 2.10784 6.3727 2.09673 6.3908C2.08562 6.40889 2.07986 6.42973 2.08008 6.45092V7.32121C2.08008 7.50245 2.228 7.73063 2.49624 7.96389C2.81284 8.23928 3.28276 8.51044 3.85536 8.74822C5.07368 9.25349 6.62196 9.5549 7.99673 9.5549C9.3715 9.5549 10.9198 9.25292 12.1381 8.74709C12.7107 8.50931 13.1806 8.23815 13.4972 7.96276C13.7655 7.73034 13.9134 7.50245 13.9134 7.32121V6.45092C13.9134 6.42982 13.9075 6.40914 13.8963 6.39121C13.8851 6.37328 13.8691 6.35882 13.85 6.34947C13.831 6.34011 13.8097 6.33624 13.7886 6.33828C13.7675 6.34032 13.7473 6.34819 13.7305 6.36101L13.6673 6.40928C13.3395 6.66004 12.945 6.96176 12.4888 7.15156ZM7.99677 10.4598C9.48588 10.4598 11.165 10.132 12.4889 9.58324C12.9449 9.39294 13.3393 9.09127 13.6671 8.84054C13.6886 8.82417 13.7097 8.80802 13.7305 8.79212C13.7474 8.77931 13.7675 8.77143 13.7886 8.76939C13.8098 8.76735 13.831 8.77123 13.8501 8.78058C13.8691 8.78994 13.8851 8.8044 13.8963 8.82232C13.9075 8.84025 13.9134 8.86094 13.9134 8.88204V9.72462C13.9134 9.90472 13.7655 10.1329 13.4973 10.3662C13.1807 10.6416 12.7107 10.9127 12.1381 11.1505C10.9198 11.6563 9.37182 11.9583 7.99677 11.9583C6.62171 11.9583 5.07371 11.6563 3.8554 11.1511C3.28279 10.9133 2.81259 10.6421 2.49599 10.3667C2.22803 10.1337 2.08012 9.90585 2.08012 9.72462V8.88204C2.08 8.86089 2.08584 8.84013 2.097 8.82212C2.10815 8.80411 2.12416 8.78956 2.1432 8.78014C2.16225 8.77072 2.18358 8.76679 2.20476 8.76881C2.22594 8.77083 2.24612 8.77871 2.26302 8.79156C2.28274 8.80663 2.30272 8.82194 2.32294 8.83744C2.65143 9.08916 3.04698 9.39228 3.50438 9.58324C4.82823 10.132 6.50765 10.4598 7.99677 10.4598Z" fill="currentColor"/></svg>
