<svg width="24" height="24" viewBox="0 0 24 24" fill="none" xmlns="http://www.w3.org/2000/svg"><path fill-rule="evenodd" clip-rule="evenodd" d="M11.9999 3C12.2887 3 12.5447 3.17931 12.634 3.44416L14.6509 9.42857H21.3332C21.6254 9.42857 21.8835 9.61202 21.97 9.88112C22.0565 10.1502 21.9512 10.4423 21.7102 10.6016L16.2928 14.1837L18.3816 20.1516C18.4743 20.4166 18.3787 20.709 18.1452 20.8748C17.9116 21.0407 17.5936 21.0418 17.3587 20.8777L11.9999 17.1332L6.64115 20.8777C6.40628 21.0418 6.08831 21.0407 5.85473 20.8748C5.62114 20.709 5.52556 20.4166 5.61831 20.1516L7.70704 14.1837L2.28964 10.6016C2.04868 10.4423 1.94338 10.1502 2.02987 9.88112C2.11636 9.61202 2.37449 9.42857 2.66665 9.42857H9.34896L11.3659 3.44416C11.4552 3.17931 11.7111 3 11.9999 3ZM11.9999 5.72272L10.4673 10.2701C10.378 10.535 10.1221 10.7143 9.83328 10.7143H4.8177L8.87697 13.3984C9.12301 13.5611 9.22701 13.8616 9.13161 14.1341L7.54918 18.6554L11.6088 15.8187C11.8421 15.6557 12.1577 15.6557 12.3911 15.8187L16.4507 18.6554L14.8683 14.1341C14.7729 13.8616 14.8769 13.5611 15.1229 13.3984L19.1822 10.7143H14.1666C13.8778 10.7143 13.6218 10.535 13.5326 10.2701L11.9999 5.72272Z" fill="currentColor"/></svg>
