<svg width="24" height="24" viewBox="0 0 24 24" fill="none" xmlns="http://www.w3.org/2000/svg"><path d="M18.8576 3L22 8.55556H18.4896L16.0868 3H18.8576ZM14.4132 3L16.816 8.55556H7.18403L9.58681 3H14.4132ZM5.14236 3H7.91319L5.51042 8.55556H2L5.14236 3ZM2 9.66667H5.49653L9.76736 18.4062C9.81944 18.5139 9.67361 18.6111 9.59375 18.5208L2 9.66667ZM7.14583 9.66667H16.8542L12.0972 20.7153C12.0625 20.7986 11.941 20.7986 11.9062 20.7153L7.14583 9.66667ZM14.2326 18.4062L18.5035 9.66667H22L14.4062 18.5174C14.3264 18.6111 14.1806 18.5139 14.2326 18.4062Z" fill="currentColor"/></svg>
