<svg width="24" height="24" viewBox="0 0 24 24" fill="none" xmlns="http://www.w3.org/2000/svg"><path d="M5 5.26786C5 4.29185 5.78385 3.5 6.75 3.5H17.25C18.2161 3.5 19 4.29185 19 5.26786V16.4643H5V5.26786ZM16.4115 6.99888C16.0687 6.65268 15.5146 6.65268 15.1755 6.99888L11.1286 11.0871L9.4151 9.35603C9.0724 9.00982 8.51823 9.00982 8.17917 9.35603C7.8401 9.70223 7.83646 10.2621 8.17917 10.6046L10.5125 12.9617C10.8552 13.3079 11.4094 13.3079 11.7484 12.9617L16.4115 8.25112C16.7542 7.90491 16.7542 7.34509 16.4115 7.00257V6.99888ZM1.5 14.6964C1.5 13.7204 2.28385 12.9286 3.25 12.9286H3.83333V17.6429H20.1667V12.9286H20.75C21.7161 12.9286 22.5 13.7204 22.5 14.6964V18.2321C22.5 19.2081 21.7161 20 20.75 20H3.25C2.28385 20 1.5 19.2081 1.5 18.2321V14.6964Z" fill="currentColor"/></svg>
