<svg width="20" height="20" viewBox="0 0 20 20" fill="none" xmlns="http://www.w3.org/2000/svg">
<path fill-rule="evenodd" clip-rule="evenodd" d="M3.07299 1.66938C4.88033 0.624174 7.33092 0 9.99999 0C12.669 0 15.1196 0.624174 16.927 1.66938C18.7081 2.69944 19.9885 4.22389 19.9999 6.05269H20V6.07728V9.86298V10.1126V13.9229C20 15.7627 18.7161 17.2962 16.927 18.3309C15.1196 19.3761 12.669 20.0003 9.99999 20.0003C7.33092 20.0003 4.88033 19.3761 3.07298 18.3309C1.28384 17.2962 0 15.7627 0 13.9229V10.1126V9.86298V6.07728V6.05269H7.64607e-05C0.0114557 4.22389 1.29182 2.69944 3.07299 1.66938ZM1.39535 9.86298V10.1126C1.39535 11.244 2.1939 12.4003 3.77153 13.3127C5.33097 14.2145 7.53153 14.7946 9.99999 14.7946C12.4684 14.7946 14.669 14.2145 16.2284 13.3127C17.8061 12.4003 18.6046 11.244 18.6046 10.1126V9.86298V9.20527C18.132 9.68889 17.5613 10.1184 16.927 10.4852C15.1196 11.5304 12.669 12.1546 9.99999 12.1546C7.33092 12.1546 4.88033 11.5304 3.07298 10.4852C2.4387 10.1184 1.86793 9.6889 1.39535 9.20527V9.86298ZM18.6046 13.2406C18.132 13.7243 17.5613 14.1538 16.927 14.5206C15.1196 15.5658 12.669 16.19 9.99999 16.19C7.33092 16.19 4.88033 15.5658 3.07298 14.5206C2.4387 14.1538 1.86793 13.7243 1.39535 13.2406V13.9229C1.39535 15.0543 2.1939 16.2106 3.77153 17.123C5.33097 18.0248 7.53153 18.6049 9.99999 18.6049C12.4684 18.6049 14.669 18.0248 16.2284 17.123C17.8061 16.2106 18.6046 15.0543 18.6046 13.9229V13.2406ZM16.2284 2.87728C17.8061 3.78964 18.6046 4.94594 18.6046 6.07728C18.6046 7.20863 17.8061 8.36495 16.2284 9.27732C14.669 10.1792 12.4684 10.7593 9.99999 10.7593C7.53153 10.7593 5.33097 10.1792 3.77153 9.27732C2.1939 8.36495 1.39535 7.20863 1.39535 6.07728C1.39535 4.94594 2.1939 3.78964 3.77153 2.87728C5.33096 1.97545 7.53153 1.39535 9.99999 1.39535C12.4684 1.39535 14.669 1.97545 16.2284 2.87728Z" fill="currentColor"/>
</svg>
