<svg width="24" height="24" viewBox="0 0 24 24" fill="none" xmlns="http://www.w3.org/2000/svg"><path d="M19.3846 15.5904V11.7826C19.3846 8.43117 17.1139 5.60953 14.0556 4.82555C14.1839 4.56355 14.2564 4.26859 14.2564 3.95656C14.2564 2.8777 13.3937 2 12.3333 2C11.2729 2 10.4102 2.8777 10.4102 3.95652C10.4102 4.26855 10.4828 4.56352 10.611 4.82551C7.55271 5.60949 5.28204 8.43117 5.28204 11.7826V15.5904C4.53591 15.8596 4 16.5845 4 17.4347C4 18.5136 4.86269 19.3913 5.92308 19.3913H9.1927C9.49045 20.8779 10.7855 22 12.3333 22C13.8812 22 15.1761 20.8779 15.474 19.3913H18.7436C19.804 19.3913 20.6667 18.5136 20.6667 17.4348C20.6666 16.5846 20.1307 15.8596 19.3846 15.5904ZM12.3333 3.30434C12.6868 3.30434 12.9744 3.59691 12.9744 3.95652C12.9744 4.31613 12.6868 4.60871 12.3333 4.60871C11.9799 4.60871 11.6923 4.31613 11.6923 3.95652C11.6923 3.59691 11.9799 3.30434 12.3333 3.30434ZM12.3333 20.6957C11.4976 20.6957 10.7851 20.1461 10.5205 19.387H14.1462C13.8815 20.1461 13.169 20.6957 12.3333 20.6957ZM18.7436 18.087H5.92308C5.56962 18.087 5.28204 17.7944 5.28204 17.4348C5.28204 17.0752 5.56962 16.7826 5.92308 16.7826H7.20516C7.55916 16.7826 7.8462 16.4906 7.8462 16.1304C7.8462 15.7702 7.55919 15.4782 7.20516 15.4782H6.56408V11.7825C6.56408 8.54605 9.15215 5.91297 12.3333 5.91297C15.5145 5.91297 18.1025 8.54605 18.1025 11.7825V15.4782H17.461C17.107 15.4782 16.8199 15.7702 16.8199 16.1304C16.8199 16.4906 17.1069 16.7826 17.461 16.7826H18.7436C19.097 16.7826 19.3846 17.0752 19.3846 17.4348C19.3846 17.7944 19.097 18.087 18.7436 18.087Z" fill="currentColor"/><path d="M12.3333 7.21738C9.85908 7.21738 7.84612 9.26535 7.84612 11.7826C7.84612 12.1428 8.13312 12.4348 8.48716 12.4348C8.84119 12.4348 9.1282 12.1428 9.1282 11.7826C9.1282 9.98457 10.566 8.52176 12.3333 8.52176C12.6873 8.52176 12.9744 8.22976 12.9744 7.86957C12.9744 7.50937 12.6873 7.21738 12.3333 7.21738Z" fill="currentColor"/></svg>
