<svg width="14" height="14" viewBox="0 0 14 14" fill="none" xmlns="http://www.w3.org/2000/svg">
  <path fill-rule="evenodd" clip-rule="evenodd" d="M7 1.925C4.19715 1.925 1.925 4.19715 1.925 7C1.925 9.80284 4.19715 12.075 7 12.075C9.80284 12.075 12.075 9.80285 12.075 7C12.075 4.19715 9.80285 1.925 7 1.925ZM0.875 7C0.875 3.61725 3.61726 0.875 7 0.875C10.3827 0.875 13.125 3.61726 13.125 7C13.125 10.3827 10.3827 13.125 7 13.125C3.61726 13.125 0.875 10.3827 0.875 7Z" fill="currentColor" fill-opacity="0.24"/>
  <path fill-rule="evenodd" clip-rule="evenodd" d="M0.675233 6.64472C0.404842 6.33736 0.498528 5.86472 0.608235 5.46386C1.22049 3.22673 3.18854 1.25593 5.3713 0.619523C5.83535 0.484222 6.39262 0.392687 6.72906 0.741426C6.89658 0.915071 7.00027 1.15544 7.00027 1.42101C7.00027 1.82596 6.75925 2.17227 6.41846 2.31286C6.20393 2.40137 5.96435 2.40021 5.74323 2.46889C4.14653 2.96483 2.64273 4.47354 2.30652 6.14406C2.25726 6.62525 1.86625 7.00003 1.39103 7.00003C1.10201 7.00003 0.844064 6.86154 0.675233 6.64472Z" fill="currentColor"/>
</svg>
