<svg width="24" height="24" viewBox="0 0 24 24" fill="none" xmlns="http://www.w3.org/2000/svg"><path fill-rule="evenodd" clip-rule="evenodd" d="M10.2392 3.5645C9.92298 3.42935 9.57498 3.39398 9.23924 3.46288C8.9035 3.53179 8.59511 3.70186 8.35306 3.9516C8.111 4.20133 7.94617 4.51952 7.87938 4.86591C7.8126 5.2123 7.84688 5.57135 7.97787 5.89765C8.10887 6.22394 8.33071 6.50283 8.61533 6.69905C8.89996 6.89526 9.23458 6.99999 9.5769 6.99999H11.3077V6.99721V6.99137V6.98553V6.97967V6.9738V6.96791V6.96201V6.9561V6.95018V6.94424V6.93829V6.93232V6.92635V6.92036V6.91436V6.90835V6.90233V6.89629V6.89025V6.88419V6.87812V6.87204V6.86595V6.85985V6.85373V6.84761V6.84147V6.83533V6.82917V6.82301V6.81683V6.81065V6.80445V6.79825V6.79204V6.78581V6.77958V6.77334V6.76709V6.76083V6.75456V6.74829V6.742V6.73571V6.72941V6.7231V6.71678V6.71046V6.70412V6.69778V6.69144V6.68508V6.67872V6.67235V6.66598V6.65959V6.6532V6.64681V6.64041V6.634V6.62759V6.62117V6.61474V6.60831V6.60187V6.59543V6.58898V6.58253V6.57607V6.56961V6.56314V6.55667V6.55019V6.54371V6.53723V6.53074V6.52424V6.51775V6.51125V6.50474V6.49823V6.49172V6.48521V6.47869V6.47217V6.46565V6.45912V6.45259V6.44606V6.43953V6.433V6.42646V6.41992V6.41338V6.40684V6.40029V6.39375V6.3872V6.38065V6.37411V6.36756V6.36101V6.35446V6.34791V6.34135V6.3348V6.32825V6.3217V6.31515V6.3086V6.30205V6.2955V6.28895V6.2824V6.27586V6.26931V6.26276V6.25622V6.24968V6.24314V6.2366V6.23007V6.22353V6.217V6.21047V6.20394V6.19742V6.1909V6.18438V6.17786V6.17135V6.16484V6.15833V6.15183V6.14533V6.13883V6.13234V6.12585V6.11937V6.11289V6.10642V6.09995V6.09348V6.08702V6.08056V6.07411V6.06767V6.06123V6.05479V6.04836V6.04194V6.03552V6.02911V6.0227V6.0163V6.00991V6.00352V5.99714V5.99077V5.98441V5.97805V5.97169V5.96535V5.95901V5.95268V5.94636V5.94005V5.93374V5.92744V5.92115V5.91487V5.9086V5.90233V5.89608V5.88983V5.88359V5.87736V5.87114V5.86493V5.85873V5.85254V5.84636V5.84019V5.83403V5.82788V5.82174V5.81561V5.80949V5.80338V5.79728V5.79119V5.78511V5.77905V5.773V5.76695V5.76092V5.7549V5.7489V5.7429V5.73692V5.73095V5.72499V5.71905V5.71311V5.70719V5.70129V5.69539V5.68951V5.68364V5.67779V5.67195V5.66612V5.66031V5.65451V5.64872V5.64295V5.6372V5.63145V5.62573V5.62001V5.61432V5.60863V5.60297V5.59731V5.59168V5.58606V5.58045V5.57486V5.56929V5.56373V5.55819V5.55266V5.54715V5.54166V5.53619V5.53073V5.52529V5.51986V5.51445V5.50906V5.50369V5.49834V5.493V5.48768V5.48238V5.4771V5.47183V5.46659V5.46136V5.45615V5.45096V5.44579V5.44064V5.4355V5.43039V5.4253V5.42022V5.41517V5.41013V5.40512V5.40012V5.39515V5.39019V5.38526V5.38035V5.37546V5.37058V5.36573V5.36091V5.3561V5.35131V5.34655V5.3418V5.33708V5.33238V5.32771V5.32305V5.31842V5.31381V5.30922V5.30466V5.30011V5.2956V5.2911V5.28663V5.28218V5.27775V5.27335V5.26897V5.26462V5.26029V5.25598V5.2517V5.24744V5.24321V5.239V5.23482V5.23066V5.22653V5.22242V5.21834V5.21428C11.3077 4.8611 11.2062 4.51586 11.016 4.2222C10.8258 3.92854 10.5555 3.69966 10.2392 3.5645ZM17.0134 7C17.1263 6.82579 17.2228 6.63979 17.3013 6.44434C17.5371 5.857 17.5988 5.21072 17.4786 4.58721C17.3584 3.9637 17.0617 3.39097 16.626 2.94144C16.1903 2.49192 15.6352 2.18579 15.0309 2.06176C14.4265 1.93774 13.8001 2.00139 13.2309 2.24467C12.7488 2.45069 12.3261 2.77767 12 3.194C11.6739 2.77767 11.2512 2.45069 10.7691 2.24467C10.1998 2.00139 9.57344 1.93774 8.96912 2.06176C8.36479 2.18579 7.80968 2.49192 7.37399 2.94144C6.93829 3.39097 6.64158 3.9637 6.52137 4.58721C6.40116 5.21072 6.46286 5.857 6.69866 6.44434C6.77712 6.63979 6.8737 6.82579 6.98652 7H5.07692C3.92987 7 3 7.95939 3 9.14286V11.2857C3 12.2187 3.57794 13.0125 4.38462 13.3066V19.1429C4.38462 19.9006 4.67637 20.6273 5.1957 21.1632C5.71504 21.699 6.4194 22 7.15385 22H12H16.8462C17.5806 22 18.285 21.699 18.8043 21.1632C19.3236 20.6273 19.6154 19.9006 19.6154 19.1429V13.3066C20.4221 13.0125 21 12.2187 21 11.2857V9.14286C21 7.95939 20.0701 7 18.9231 7H17.0134ZM12.6923 20.5714H16.8462C17.2134 20.5714 17.5656 20.4209 17.8252 20.153C18.0849 19.8851 18.2308 19.5217 18.2308 19.1429V13.4286H12.6923V20.5714ZM11.3077 13.4286V20.5714H7.15385C6.78662 20.5714 6.43444 20.4209 6.17478 20.153C5.91511 19.8851 5.76923 19.5217 5.76923 19.1429V13.4286H11.3077ZM12.6923 12H18.9231C19.3054 12 19.6154 11.6802 19.6154 11.2857V9.14286C19.6154 8.74837 19.3054 8.42857 18.9231 8.42857H12.6923V12ZM11.3077 8.42857V12H5.07692C4.69457 12 4.38462 11.6802 4.38462 11.2857V9.14286C4.38462 8.74837 4.69457 8.42857 5.07692 8.42857H11.3077ZM14.7607 3.46288C14.425 3.39398 14.077 3.42935 13.7607 3.5645C13.4445 3.69966 13.1742 3.92854 12.984 4.2222C12.7938 4.51586 12.6923 4.8611 12.6923 5.21428V6.99999H14.4231C14.7654 6.99999 15.1 6.89526 15.3846 6.69905C15.6693 6.50283 15.8911 6.22394 16.0221 5.89765C16.1531 5.57135 16.1874 5.2123 16.1206 4.86591C16.0538 4.51951 15.889 4.20133 15.6469 3.9516C15.4049 3.70186 15.0965 3.53179 14.7607 3.46288Z" fill="currentColor"/></svg>
