<svg width="24" height="24" viewBox="0 0 24 24" fill="none" xmlns="http://www.w3.org/2000/svg"><path d="M16.7643 6.99989C16.8107 6.99989 16.8634 7.02277 16.873 7.06043C17.0594 7.79369 17.0459 8.58795 16.8359 9.23988L16.7786 9.4176C16.7076 9.63857 16.7562 9.88087 16.9076 10.0569L17.0293 10.1981C17.6736 10.947 18 11.9164 18 13.08C18 13.7837 17.829 14.3961 17.5072 14.9183C17.6086 14.5712 17.6667 14.2086 17.6667 13.8338C17.6667 12.9006 17.3818 12.1023 16.8698 11.5391C16.3578 10.9759 15.625 10.6675 14.8333 10.6675C14.4423 10.6675 14.0291 10.7409 13.5905 10.8188C13.0944 10.9069 12.5658 11.0008 12 11.0008C11.4307 11.0008 10.9017 10.9067 10.4059 10.8184C9.96863 10.7407 9.55719 10.6675 9.16667 10.6675C8.375 10.6675 7.64225 10.9759 7.13021 11.5391C6.61817 12.1023 6.33333 12.9006 6.33333 13.8338C6.33333 14.2624 6.39177 14.6841 6.50846 15.085C6.00087 14.313 6 13.5056 6 13.08C6 12.0147 6.27785 11.1076 6.82552 10.3823L6.93555 10.2359C7.07288 10.0539 7.108 9.81448 7.028 9.60117L6.96419 9.42997C6.65053 8.59006 6.58488 7.79612 6.76888 7.0702C6.77988 7.02687 6.83516 7.00119 6.88216 7.00119C6.88849 7.00119 6.89471 7.0015 6.90104 7.0025C8.03071 7.15348 8.80502 7.81959 9.16602 8.20289L9.29037 8.33503C9.44503 8.49968 9.67285 8.57456 9.89518 8.53423L10.0736 8.50168C10.6929 8.38903 11.323 8.33438 12 8.33438C12.6013 8.33438 13.1647 8.37692 13.722 8.46458L13.8939 8.49192C14.1095 8.52591 14.3282 8.45167 14.4792 8.29402L14.5996 8.16838C15.2496 7.48946 15.9502 7.10783 16.7415 7.00184C16.7492 7.00084 16.757 6.99989 16.7643 6.99989Z" fill="currentColor"/><path d="M8.91074 13.2934C9.06702 13.1059 9.27898 13.0005 9.5 13.0005C9.72101 13.0005 9.93297 13.1059 10.0893 13.2934C10.2455 13.4809 10.3333 13.7352 10.3333 14.0004C10.3333 14.2656 10.2455 14.5199 10.0893 14.7075C9.93297 14.895 9.72101 15.0003 9.5 15.0003C9.27898 15.0003 9.06702 14.895 8.91074 14.7075C8.75446 14.5199 8.66666 14.2656 8.66666 14.0004C8.66666 13.7352 8.75446 13.4809 8.91074 13.2934Z" fill="currentColor"/><path d="M13.9107 13.2934C14.067 13.1059 14.279 13.0005 14.5 13.0005C14.721 13.0005 14.933 13.1059 15.0893 13.2934C15.2455 13.4809 15.3333 13.7352 15.3333 14.0004C15.3333 14.2656 15.2455 14.5199 15.0893 14.7075C14.933 14.895 14.721 15.0003 14.5 15.0003C14.279 15.0003 14.067 14.895 13.9107 14.7075C13.7545 14.5199 13.6667 14.2656 13.6667 14.0004C13.6667 13.7352 13.7545 13.4809 13.9107 13.2934Z" fill="currentColor"/><path fill-rule="evenodd" clip-rule="evenodd" d="M24 12C24 18.6274 18.6274 24 12 24C5.37258 24 0 18.6274 0 12C0 5.37258 5.37258 0 12 0C18.6274 0 24 5.37258 24 12ZM16.7643 6C16.713 6 16.6607 6.00342 16.6087 6.01042C15.4284 6.1684 14.54 6.78446 13.877 7.47705C13.3026 7.38673 12.681 7.33449 12 7.33449C11.2267 7.33449 10.5309 7.40241 9.89453 7.51806C9.22953 6.81147 8.23819 6.17205 7.03385 6.01107C6.98285 6.0044 6.9325 6.0013 6.88216 6.0013C6.38283 6.0013 5.92548 6.32852 5.79948 6.82413C5.51615 7.94001 5.73003 8.98627 6.02669 9.78019C5.33169 10.7008 5 11.8338 5 13.08C5 15.33 6.66667 18 10.6667 18H13.3333C17 18 19 15.54 19 13.08C19 11.7268 18.6114 10.5047 17.7878 9.54649C18.0301 8.79424 18.0984 7.82194 17.8424 6.81371C17.7168 6.31943 17.2623 6 16.7643 6Z" fill="currentColor"/></svg>
