<svg width="24" height="24" viewBox="0 0 24 24" fill="none" xmlns="http://www.w3.org/2000/svg"><path d="M18.8062 4C18.7328 4 18.6582 4.00484 18.5839 4.01476C16.8977 4.23856 15.6285 5.11132 14.6814 6.09249C13.8609 5.96453 12.9729 5.89053 12 5.89053C10.8952 5.89053 9.90124 5.98675 8.99219 6.15059C8.04219 5.14959 6.62598 4.24374 4.90551 4.01568C4.83265 4.00623 4.76071 4.00184 4.6888 4.00184C3.97547 4.00184 3.32211 4.4654 3.14211 5.16752C2.73735 6.74834 3.04289 8.23056 3.4667 9.35527C2.47385 10.6594 2 12.2645 2 14.0299C2 17.2176 4.38095 21 10.0952 21H10.8095H13.1905H13.9048C19.1429 21 22 17.515 22 14.0299C22 12.1129 21.4449 10.3817 20.2682 9.02419C20.6144 7.9585 20.7121 6.58108 20.3464 5.15276C20.1668 4.45253 19.5176 4 18.8062 4ZM18.8062 5.41651C18.8724 5.41651 18.9477 5.44892 18.9615 5.50228C19.2277 6.54105 19.2085 7.66627 18.9085 8.58983L18.8266 8.8416C18.7252 9.15465 18.7946 9.4979 19.0108 9.74721L19.1847 9.94733C20.1052 11.0083 20.5714 12.3816 20.5714 14.0299C20.5714 15.0269 20.3272 15.8945 19.8674 16.6343C20.0123 16.1425 20.0952 15.6289 20.0952 15.0979C20.0952 13.7758 19.6883 12.6449 18.9568 11.8471C18.2254 11.0492 17.1786 10.6122 16.0476 10.6122C14.8571 10.6122 13.5229 11.0844 12 11.0844C10.4694 11.0844 9.14286 10.6122 7.95238 10.6122C6.82143 10.6122 5.77464 11.0492 5.04315 11.8471C4.31167 12.6449 3.90476 13.7758 3.90476 15.0979C3.90476 15.7051 3.98824 16.3025 4.15495 16.8703C3.42982 15.7768 3.42857 14.6329 3.42857 14.0299C3.42857 12.5209 3.82551 11.2358 4.60789 10.2083L4.76507 10.0008C4.96126 9.74301 5.01142 9.40385 4.89714 9.10166L4.80599 8.85912C4.35789 7.66925 4.26411 6.5445 4.52697 5.51611C4.54269 5.45473 4.62166 5.41836 4.6888 5.41836C4.69785 5.41836 4.70673 5.41879 4.71577 5.4202C6.32958 5.6341 7.43574 6.57776 7.95145 7.12075L8.12909 7.30796C8.35004 7.54122 8.6755 7.64729 8.99312 7.59016L9.24795 7.54405C10.1327 7.38446 11.0329 7.30704 12 7.30704C12.859 7.30704 13.6638 7.3673 14.46 7.49148L14.7055 7.53022C15.0136 7.57838 15.326 7.4732 15.5417 7.24986L15.7137 7.07188C16.6423 6.11007 17.6431 5.56943 18.7736 5.41928C18.7846 5.41786 18.7957 5.41651 18.8062 5.41651ZM7.95238 12.0288C8.66667 12.0288 10.1973 12.5009 12 12.5009C13.7962 12.5009 15.3333 12.0288 16.0476 12.0288C16.8214 12.0288 17.4413 12.3 17.9003 12.8006C18.3593 13.3013 18.6667 14.0591 18.6667 15.0979C18.6667 16.9891 17.4817 18.6392 15.3147 19.2875C14.335 19.4798 13.2331 19.5835 12 19.5835C10.6741 19.5835 9.55455 19.4828 8.60714 19.3087C7.75338 19.0732 7.08982 18.7022 6.59635 18.2417C5.74097 17.4434 5.33333 16.357 5.33333 15.0979C5.33333 14.0591 5.64071 13.3013 6.0997 12.8006C6.5587 12.3 7.17857 12.0288 7.95238 12.0288ZM8.42857 13.9174C8.11284 13.9174 7.81004 14.0667 7.58678 14.3323C7.36352 14.598 7.2381 14.9583 7.2381 15.3339C7.2381 15.7096 7.36352 16.0699 7.58678 16.3356C7.81004 16.6012 8.11284 16.7505 8.42857 16.7505C8.74431 16.7505 9.04711 16.6012 9.27037 16.3356C9.49362 16.0699 9.61905 15.7096 9.61905 15.3339C9.61905 14.9583 9.49362 14.598 9.27037 14.3323C9.04711 14.0667 8.74431 13.9174 8.42857 13.9174ZM15.5714 13.9174C15.2557 13.9174 14.9529 14.0667 14.7296 14.3323C14.5064 14.598 14.381 14.9583 14.381 15.3339C14.381 15.7096 14.5064 16.0699 14.7296 16.3356C14.9529 16.6012 15.2557 16.7505 15.5714 16.7505C15.8872 16.7505 16.19 16.6012 16.4132 16.3356C16.6365 16.0699 16.7619 15.7096 16.7619 15.3339C16.7619 14.9583 16.6365 14.598 16.4132 14.3323C16.19 14.0667 15.8872 13.9174 15.5714 13.9174Z" fill="currentColor"/></svg>
