<svg width="24" height="24" viewBox="0 0 24 24" fill="none" xmlns="http://www.w3.org/2000/svg">
  <mask id="mask0_478_1851" style="mask-type:alpha" maskUnits="userSpaceOnUse" x="0" y="0" width="24" height="24">
    <rect width="24" height="24" fill="url(#paint0_angular_478_1851)"/>
  </mask>
  <g mask="url(#mask0_478_1851)">
    <path fill-rule="evenodd" clip-rule="evenodd" d="M12 2C11.2636 2 10.6667 2.59695 10.6667 3.33333V7.33333C10.6667 8.06971 11.2636 8.66667 12 8.66667C12.7364 8.66667 13.3333 8.06971 13.3333 7.33333V3.33333C13.3333 2.59695 12.7364 2 12 2ZM19.0711 4.92893C18.5504 4.40823 17.7061 4.40823 17.1854 4.92893L14.357 7.75736C13.8363 8.27806 13.8363 9.12228 14.357 9.64298C14.8777 10.1637 15.7219 10.1637 16.2426 9.64298L19.0711 6.81455C19.5918 6.29385 19.5918 5.44963 19.0711 4.92893ZM20.6667 10.6667C21.403 10.6667 22 11.2636 22 12C22 12.7364 21.403 13.3333 20.6667 13.3333H16.6667C15.9303 13.3333 15.3333 12.7364 15.3333 12C15.3333 11.2636 15.9303 10.6667 16.6667 10.6667H20.6667ZM19.0711 19.0711C19.5918 18.5504 19.5918 17.7061 19.0711 17.1854L16.2426 14.357C15.7219 13.8363 14.8777 13.8363 14.357 14.357C13.8363 14.8777 13.8363 15.7219 14.357 16.2426L17.1854 19.0711C17.7061 19.5918 18.5504 19.5918 19.0711 19.0711ZM10.6667 16.6667C10.6667 15.9303 11.2636 15.3333 12 15.3333C12.7364 15.3333 13.3333 15.9303 13.3333 16.6667V20.6667C13.3333 21.403 12.7364 22 12 22C11.2636 22 10.6667 21.403 10.6667 20.6667V16.6667ZM9.64298 14.357C9.12229 13.8363 8.27806 13.8363 7.75737 14.357L4.92894 17.1855C4.40824 17.7062 4.40824 18.5504 4.92894 19.0711C5.44964 19.5918 6.29386 19.5918 6.81456 19.0711L9.64298 16.2427C10.1637 15.722 10.1637 14.8777 9.64298 14.357ZM7.33333 10.6667C8.06971 10.6667 8.66667 11.2636 8.66667 12C8.66667 12.7364 8.06971 13.3333 7.33333 13.3333H3.33333C2.59695 13.3333 2 12.7364 2 12C2 11.2636 2.59695 10.6667 3.33333 10.6667H7.33333ZM9.64299 9.64296C10.1637 9.12226 10.1637 8.27804 9.64299 7.75735L6.81456 4.92892C6.29386 4.40822 5.44964 4.40822 4.92894 4.92892C4.40824 5.44962 4.40824 6.29384 4.92894 6.81454L7.75737 9.64296C8.27807 10.1637 9.12229 10.1637 9.64299 9.64296Z" fill="black" fill-opacity="0.64"/>
  </g>
  <defs>
    <radialGradient id="paint0_angular_478_1851" cx="0" cy="0" r="1" gradientUnits="userSpaceOnUse" gradientTransform="translate(12 12) rotate(-66.8014) scale(11.4237)">
      <stop/>
      <stop offset="1" stop-opacity="0"/>
    </radialGradient>
  </defs>
</svg>
