<svg width="24" height="24" viewBox="0 0 24 24" fill="none" xmlns="http://www.w3.org/2000/svg"><path d="M10.6344 5.13451C11.9922 4.86441 13.3997 5.00303 14.6788 5.53285C15.9579 6.06266 17.0511 6.95987 17.8203 8.11101C18.5895 9.26216 19 10.6155 19 12C19 12.5523 19.4477 13 20 13C20.5523 13 21 12.5523 21 12C21 10.22 20.4722 8.47991 19.4832 6.99987C18.4943 5.51983 17.0887 4.36628 15.4442 3.68509C13.7996 3.0039 11.99 2.82567 10.2442 3.17294C8.49836 3.5202 6.89472 4.37737 5.63604 5.63604C4.37737 6.89472 3.5202 8.49836 3.17294 10.2442C2.82567 11.99 3.0039 13.7996 3.68509 15.4442C4.36628 17.0887 5.51983 18.4943 6.99987 19.4832C8.47991 20.4722 10.22 21 12 21C12.5523 21 13 20.5523 13 20C13 19.4477 12.5523 19 12 19C10.6155 19 9.26216 18.5895 8.11101 17.8203C6.95987 17.0511 6.06266 15.9579 5.53285 14.6788C5.00303 13.3997 4.86441 11.9922 5.13451 10.6344C5.4046 9.2765 6.07129 8.02922 7.05026 7.05026C8.02922 6.07129 9.2765 5.4046 10.6344 5.13451Z" fill="currentColor"/><path d="M10.7064 8.21496C10.9677 8.12566 11.1071 7.84143 11.0178 7.58013C10.9285 7.31883 10.6443 7.1794 10.383 7.26871C9.51345 7.56588 8.74265 8.09692 8.15521 8.80351C7.56776 9.5101 7.18639 10.3649 7.05298 11.2741C6.91957 12.1832 7.03928 13.1116 7.39895 13.9571C7.75863 14.8027 8.34437 15.5328 9.09184 16.0673C9.83932 16.6017 10.7196 16.9199 11.6361 16.9867C12.5525 17.0536 13.4697 16.8667 14.2868 16.4464C15.104 16.0261 15.7895 15.3888 16.2681 14.6044C16.7468 13.82 17 12.9189 17 12C17 11.7239 16.7761 11.5 16.5 11.5C16.2239 11.5 16 11.7239 16 12C16 12.7351 15.7974 13.456 15.4145 14.0835C15.0316 14.711 14.4832 15.2209 13.8295 15.5571C13.1757 15.8933 12.442 16.0429 11.7089 15.9894C10.9757 15.9359 10.2715 15.6814 9.67347 15.2538C9.07549 14.8262 8.6069 14.2422 8.31916 13.5657C8.03142 12.8892 7.93566 12.1466 8.04239 11.4193C8.14911 10.6919 8.45421 10.0081 8.92417 9.44281C9.39412 8.87754 10.0108 8.45271 10.7064 8.21496Z" fill="currentColor"/></svg>
