<svg width="24" height="24" viewBox="0 0 24 24" fill="none" xmlns="http://www.w3.org/2000/svg"><path fill-rule="evenodd" clip-rule="evenodd" d="M12 24C18.6274 24 24 18.6274 24 12C24 5.37258 18.6274 0 12 0C5.37258 0 0 5.37258 0 12C0 18.6274 5.37258 24 12 24ZM13.7859 7.68857C12.9331 7.33536 11.9948 7.24294 11.0896 7.42301C10.1843 7.60307 9.35282 8.04753 8.70017 8.70017C8.04753 9.35282 7.60307 10.1843 7.42301 11.0896C7.24294 11.9948 7.33536 12.9331 7.68857 13.7859C8.04177 14.6386 8.63991 15.3674 9.40734 15.8802C10.1748 16.393 11.077 16.6667 12 16.6667C12.3682 16.6667 12.6667 16.9651 12.6667 17.3333C12.6667 17.7015 12.3682 18 12 18C10.8133 18 9.65328 17.6481 8.66658 16.9888C7.67989 16.3295 6.91085 15.3925 6.45673 14.2961C6.0026 13.1997 5.88378 11.9933 6.11529 10.8295C6.3468 9.66558 6.91825 8.59648 7.75736 7.75736C8.59648 6.91825 9.66558 6.3468 10.8295 6.11529C11.9933 5.88378 13.1997 6.0026 14.2961 6.45673C15.3925 6.91085 16.3295 7.67989 16.9888 8.66658C17.6481 9.65328 18 10.8133 18 12C18 12.3682 17.7015 12.6667 17.3333 12.6667C16.9651 12.6667 16.6667 12.3682 16.6667 12C16.6667 11.077 16.393 10.1748 15.8802 9.40734C15.3674 8.63991 14.6386 8.04177 13.7859 7.68857ZM11.3452 9.05342C11.4047 9.22762 11.3118 9.41711 11.1376 9.47664C10.6738 9.63514 10.2627 9.91836 9.94944 10.2952C9.63614 10.6721 9.43274 11.128 9.36159 11.6128C9.29044 12.0977 9.35428 12.5928 9.54611 13.0438C9.73794 13.4948 10.0503 13.8842 10.449 14.1692C10.8476 14.4543 11.3171 14.6239 11.8059 14.6596C12.2947 14.6953 12.7838 14.5956 13.2196 14.3714C13.6555 14.1473 14.0211 13.8074 14.2763 13.389C14.5316 12.9707 14.6667 12.4901 14.6667 12C14.6667 11.8159 14.8159 11.6667 15 11.6667C15.1841 11.6667 15.3333 11.8159 15.3333 12C15.3333 12.6126 15.1645 13.2133 14.8454 13.7363C14.5263 14.2592 14.0693 14.6841 13.5246 14.9643C12.9798 15.2444 12.3683 15.3691 11.7574 15.3245C11.1464 15.2799 10.5595 15.0678 10.0612 14.7115C9.56291 14.3552 9.17242 13.8685 8.93264 13.3048C8.69285 12.741 8.61305 12.1221 8.70199 11.516C8.79093 10.9099 9.04517 10.3401 9.4368 9.86901C9.82843 9.39795 10.3423 9.04392 10.922 8.8458C11.0962 8.78627 11.2857 8.87922 11.3452 9.05342Z" fill="currentColor"/></svg>
