<svg width="24" height="24" viewBox="0 0 24 24" fill="none" xmlns="http://www.w3.org/2000/svg"><path d="M21.0665 2.94332L21.064 2.9408C20.9256 2.80076 20.7606 2.68966 20.5788 2.61399L20.771 2.15238L20.5788 2.61399C20.397 2.53831 20.202 2.49956 20.0051 2.5L20.004 2.50001L14.5166 2.5C14.2887 2.50054 14.0701 2.59076 13.9082 2.75115C13.908 2.75135 13.9078 2.75155 13.9076 2.75175L2.93847 13.7185C2.93845 13.7186 2.93843 13.7186 2.93841 13.7186C2.65765 14 2.49997 14.3812 2.49997 14.7787C2.49997 15.1762 2.65763 15.5574 2.93836 15.8388C2.9384 15.8388 2.93844 15.8388 2.93847 15.8389L8.16093 21.0613C8.4424 21.3422 8.82384 21.5 9.22153 21.5C9.61908 21.5 10.0004 21.3423 10.2818 21.0616L21.0665 2.94332ZM21.0665 2.94332C21.205 3.08142 21.3146 3.24569 21.3891 3.42655C21.4635 3.60742 21.5012 3.80128 21.4999 3.99686V3.99996L21.4999 9.48951C21.4999 9.48971 21.4999 9.48991 21.4999 9.49012C21.4991 9.71796 21.4086 9.93631 21.2479 10.0978C21.2478 10.098 21.2476 10.0981 21.2475 10.0983L10.2821 21.0613L21.0665 2.94332ZM16.6428 7.88914C16.96 8.10104 17.3328 8.21415 17.7143 8.21415C18.2258 8.21415 18.7163 8.01097 19.078 7.6493C19.4396 7.28763 19.6428 6.7971 19.6428 6.28561C19.6428 5.90418 19.5297 5.53132 19.3178 5.21418C19.1059 4.89703 18.8047 4.64984 18.4523 4.50388C18.0999 4.35791 17.7121 4.31972 17.338 4.39413C16.9639 4.46855 16.6203 4.65222 16.3506 4.92193C16.0809 5.19164 15.8972 5.53527 15.8228 5.90937C15.7484 6.28348 15.7866 6.67124 15.9325 7.02363C16.0785 7.37603 16.3257 7.67723 16.6428 7.88914Z" stroke="currentColor"/></svg>
