<svg width="24" height="24" viewBox="0 0 24 24" fill="none" xmlns="http://www.w3.org/2000/svg"><path fill-rule="evenodd" clip-rule="evenodd" d="M11.7961 2.07494C11.6085 1.97502 11.3915 1.97502 11.2039 2.07494C8.2289 3.65964 6.89898 4.16378 3.60612 4.86046C3.27677 4.93014 3.05405 5.24675 3.03525 5.5983C2.39842 17.503 10.5943 21.6363 11.231 21.9387C11.4031 22.0204 11.5969 22.0204 11.769 21.9387C12.4057 21.6363 20.6016 17.503 19.9648 5.5983C19.9459 5.24675 19.7232 4.93014 19.3939 4.86046C16.101 4.16378 14.7711 3.65964 11.7961 2.07494ZM11.5 20.3224C10.0863 19.5524 4.16107 15.7567 4.40767 6.31632C7.33437 5.67151 8.78606 5.11434 11.5 3.68252C14.2139 5.11434 15.6656 5.67151 18.5923 6.31632C18.8389 15.7567 12.9137 19.5524 11.5 20.3224ZM14.9664 7.86459C14.6694 7.56137 14.2151 7.60441 13.9638 7.94688L10.3024 12.9357L8.99768 11.4281C8.71973 11.1069 8.2638 11.1131 7.99238 11.4398C7.73246 11.7528 7.73639 12.2469 8.00235 12.5542L9.84733 14.6861C9.98308 14.843 10.1734 14.9323 10.3747 14.9225C10.5758 14.9128 10.758 14.8057 10.8812 14.6378L15.0362 8.97637C15.2775 8.64747 15.25 8.15416 14.9664 7.86459Z" fill="currentColor"/></svg>
