<svg width="14" height="14" viewBox="0 0 14 14" fill="none" xmlns="http://www.w3.org/2000/svg">
<path fill-rule="evenodd" clip-rule="evenodd" d="M7.18288 1.2104C7.06702 1.15211 6.93298 1.15211 6.81712 1.2104C4.97961 2.13481 4.15819 2.42889 2.12437 2.83529C1.92094 2.87593 1.78338 3.06063 1.77177 3.2657C1.37844 10.2101 6.44058 12.6212 6.83382 12.7976C6.94014 12.8453 7.05986 12.8453 7.16618 12.7976C7.55942 12.6212 12.6216 10.2101 12.2282 3.2657C12.2166 3.06063 12.0791 2.87593 11.8756 2.83529C9.84181 2.42889 9.02039 2.13481 7.18288 1.2104ZM7 11.8547C6.12683 11.4056 2.46713 9.19143 2.61944 3.68454C4.42711 3.3084 5.32374 2.98339 7 2.14815C8.67626 2.98339 9.57289 3.3084 11.3806 3.68454C11.5329 9.19143 7.87317 11.4056 7 11.8547Z" fill="currentColor"/>
<path d="M8.64992 5.3501C8.42211 5.1223 8.05276 5.1223 7.82496 5.3501L7 6.17506L6.17504 5.3501C5.94724 5.1223 5.57789 5.1223 5.35008 5.3501C5.12228 5.57791 5.12228 5.94726 5.35008 6.17506L6.17504 7.00002L5.35008 7.82498C5.12228 8.05278 5.12228 8.42213 5.35008 8.64994C5.57789 8.87774 5.94724 8.87774 6.17504 8.64994L7 7.82498L7.82496 8.64994C8.05276 8.87774 8.42211 8.87774 8.64992 8.64994C8.87772 8.42213 8.87772 8.05278 8.64992 7.82498L7.82496 7.00002L8.64992 6.17506C8.87772 5.94726 8.87772 5.57791 8.64992 5.3501Z" fill="currentColor"/>
</svg>
