<svg width="24" height="24" viewBox="0 0 24 24" fill="none" xmlns="http://www.w3.org/2000/svg"><path fill-rule="evenodd" clip-rule="evenodd" d="M21.7499 4.15928C21.9396 4.31481 22.0312 4.5572 21.9905 4.79635L19.3327 20.4285C19.2938 20.6574 19.1391 20.8514 18.9219 20.9436C18.7046 21.0359 18.4545 21.0139 18.2575 20.8851L10.2841 15.6744C10.1214 15.5681 10.0117 15.3997 9.98168 15.2103C9.95168 15.0209 10.0041 14.8278 10.1263 14.6781L12.6347 11.6045L8.40029 14.3717C8.19197 14.5079 7.92521 14.5241 7.70128 14.4144L2.38567 11.809C2.13569 11.6865 1.98443 11.4296 2.00127 11.1561C2.01812 10.8826 2.19983 10.6454 2.46303 10.5533L21.0677 4.03985C21.3006 3.95831 21.5601 4.00374 21.7499 4.15928ZM4.47201 11.3024L7.96317 13.0135L15.5997 8.02291C15.8859 7.83587 16.2685 7.88124 16.501 8.12979C16.7334 8.37834 16.7464 8.75588 16.5315 9.01919L11.6913 14.9501L18.1337 19.1603L20.419 5.71939L4.47201 11.3024Z" fill="currentColor"/></svg>
