<svg width="24" height="24" viewBox="0 0 24 24" fill="none" xmlns="http://www.w3.org/2000/svg"><path fill-rule="evenodd" clip-rule="evenodd" d="M12 24C18.6274 24 24 18.6274 24 12C24 5.37258 18.6274 0 12 0C5.37258 0 0 5.37258 0 12C0 18.6274 5.37258 24 12 24ZM17.9933 6.56213C18.0218 6.39332 17.9577 6.22222 17.8249 6.11243C17.6921 6.00264 17.5104 5.97057 17.3474 6.02813L4.32412 10.6258C4.13988 10.6909 4.01268 10.8583 4.00089 11.0514C3.9891 11.2444 4.09499 11.4258 4.26997 11.5123L7.9909 13.3513C8.14765 13.4288 8.33438 13.4173 8.4802 13.3212L13 10L9.68841 13.5375C9.6029 13.6432 9.56618 13.7794 9.58718 13.9131C9.60818 14.0468 9.68497 14.1657 9.79886 14.2408L15.3803 17.9189C15.5181 18.0098 15.6932 18.0253 15.8453 17.9602C15.9974 17.8951 16.1056 17.7582 16.1329 17.5966L17.9933 6.56213Z" fill="currentColor"/></svg>
