<svg width="24" height="24" viewBox="0 0 24 24" fill="none" xmlns="http://www.w3.org/2000/svg"><mask id="path-1-inside-1_82_1561" fill="white"><path d="M20.5428 7.40816C21.7214 6.24645 22.1212 5.35963 21.9691 3C21.2802 3.7877 20.3681 4.28749 19.4515 4.43027C18.6793 3.55182 17.5633 3 16.3223 3C13.9266 3 12 5.16066 12 7.62857V8.65714C6.86508 8.65714 4.13955 4.95918 3.42637 3C0.573633 8.87755 2.58135 14.1673 9 16.3714C8.0491 17.351 5.42328 19.1633 2 19.1633C4.13955 20.6327 6.19513 21 8.5 21C15.0483 21 20.5428 15.1641 20.5428 8.41836V7.40816Z"/></mask><path d="M21.5428 7.34778C21.5428 6.79549 21.095 6.34778 20.5428 6.34778C19.9905 6.34778 19.5428 6.79549 19.5428 7.34778H21.5428ZM21.5428 7.40816V7.34778H19.5428V7.40816H21.5428ZM21.9691 3L23.965 2.87135C23.9129 2.06323 23.3786 1.36627 22.6118 1.10606C21.8449 0.845853 20.9968 1.07376 20.4637 1.68331L21.9691 3ZM20.5428 7.40816L19.1388 5.98374C18.7575 6.35961 18.5428 6.87271 18.5428 7.40816H20.5428ZM12 8.65714V10.6571H14V8.65714H12ZM3.42637 3L5.30572 2.31588C5.03096 1.56107 4.33128 1.04389 3.52908 1.00264C2.72688 0.961387 1.97784 1.40407 1.6271 2.12671L3.42637 3ZM9 16.3714L10.4351 17.7645C10.912 17.2732 11.1044 16.5721 10.9451 15.9062C10.7859 15.2404 10.2971 14.7022 9.64954 14.4798L9 16.3714ZM2 19.1633V17.1633C1.12376 17.1633 0.349555 17.7336 0.0898581 18.5705C-0.169839 19.4074 0.145454 20.3159 0.867755 20.8119L2 19.1633ZM19.4515 4.43027L17.9494 5.75075L18.6744 6.57546L19.7594 6.40644L19.4515 4.43027ZM19.9733 3.12865C20.0431 4.21127 19.9644 4.71085 19.8643 5.00122C19.7793 5.24746 19.6265 5.5031 19.1388 5.98374L21.9467 8.83259C22.6377 8.15152 23.2741 7.38289 23.6457 6.30538C24.0021 5.272 24.0473 4.14836 23.965 2.87135L19.9733 3.12865ZM22.5428 8.41836V7.40816H18.5428V8.41836H22.5428ZM10 7.62857V8.65714H14V7.62857H10ZM16.3223 1C12.6691 1 10 4.21548 10 7.62857H14C14 6.10584 15.1841 5 16.3223 5V1ZM18.5428 8.41836C18.5428 14.153 13.8525 19 8.5 19V23C16.244 23 22.5428 16.1753 22.5428 8.41836H18.5428ZM1.54701 3.68412C2.45284 6.17252 5.777 10.6571 12 10.6571V6.65714C7.95316 6.65714 5.82626 3.74585 5.30572 2.31588L1.54701 3.68412ZM1.6271 2.12671C0.020294 5.43725 -0.329199 8.83105 0.883489 11.816C2.09962 14.8095 4.7364 17.022 8.35045 18.263L9.64954 14.4798C6.84495 13.5168 5.26854 11.9823 4.58934 10.3105C3.90669 8.63017 3.97971 6.4403 5.22563 3.87329L1.6271 2.12671ZM7.56492 14.9784C6.89286 15.6707 4.75661 17.1633 2 17.1633V21.1633C6.08995 21.1633 9.20534 19.0313 10.4351 17.7645L7.56492 14.9784ZM20.9536 3.10979C19.8252 1.82611 18.1731 1 16.3223 1V5C16.9536 5 17.5334 5.27753 17.9494 5.75075L20.9536 3.10979ZM19.7594 6.40644C21.1657 6.18736 22.4937 5.43812 23.4746 4.31669L20.4637 1.68331C20.0667 2.13727 19.5705 2.38762 19.1437 2.45411L19.7594 6.40644ZM0.867755 20.8119C3.44391 22.5811 5.93767 23 8.5 23V19C6.4526 19 4.83519 18.6842 3.13224 17.5146L0.867755 20.8119Z" fill="currentColor" mask="url(#path-1-inside-1_82_1561)"/></svg>
