<svg width="24" height="24" viewBox="0 0 24 24" fill="none" xmlns="http://www.w3.org/2000/svg"><path fill-rule="evenodd" clip-rule="evenodd" d="M24 12C24 18.6274 18.6274 24 12 24C5.37258 24 0 18.6274 0 12C0 5.37258 5.37258 0 12 0C18.6274 0 24 5.37258 24 12ZM18.9799 6C19.0788 7.57308 18.8189 8.1643 18.0528 8.93878V9.61224C18.0528 14.1094 14.4814 18 10.225 18C8.72684 18 7.39071 17.7551 6 16.7755C8.22513 16.7755 9.93192 15.5673 10.55 14.9143C6.37788 13.4449 5.07286 9.91837 6.92714 6C7.39071 7.30612 9.1623 9.77143 12.5 9.77143V9.08571C12.5 7.44044 13.7523 6 15.3095 6C16.1162 6 16.8415 6.36788 17.3435 6.95352C17.9393 6.85833 18.5321 6.52513 18.9799 6Z" fill="currentColor"/></svg>
