<svg width="14" height="14" viewBox="0 0 14 14" fill="none" xmlns="http://www.w3.org/2000/svg"><path fill-rule="evenodd" clip-rule="evenodd" d="M7.35224 1.91964C7.20121 1.63916 6.79889 1.63916 6.64786 1.91964L1.32206 11.8104C1.17857 12.0769 1.37158 12.4 1.67425 12.4H12.3258C12.6285 12.4 12.8215 12.0769 12.678 11.8104L7.35224 1.91964ZM5.59129 1.35072C6.19541 0.228794 7.80469 0.228801 8.4088 1.35072L13.7346 11.2415C14.3086 12.3074 13.5365 13.6 12.3258 13.6H1.67425C0.463572 13.6 -0.308485 12.3074 0.2655 11.2415L5.59129 1.35072Z" fill="currentColor"/><path fill-rule="evenodd" clip-rule="evenodd" d="M7.00585 3.90002C7.33722 3.90002 7.60585 4.16864 7.60585 4.50002L7.60585 8.68361C7.60585 9.01499 7.33722 9.28362 7.00585 9.28362C6.67448 9.28362 6.40585 9.01499 6.40585 8.68362L6.40585 4.50002C6.40585 4.16865 6.67448 3.90002 7.00585 3.90002Z" fill="currentColor"/><path fill-rule="evenodd" clip-rule="evenodd" d="M6.57672 10.5071C6.81103 10.2728 7.19093 10.2728 7.42525 10.5071L7.43559 10.5175C7.66991 10.7518 7.66992 11.1317 7.43561 11.366C7.2013 11.6003 6.82141 11.6003 6.58709 11.366L6.57674 11.3557C6.34242 11.1214 6.34241 10.7415 6.57672 10.5071Z" fill="currentColor"/></svg>
