<svg width="24" height="24" viewBox="0 0 24 24" fill="none" xmlns="http://www.w3.org/2000/svg"><path d="M10.4571 9.92153C10.6102 9.84653 10.7981 9.84858 10.9489 9.9269L14.2048 11.617C14.3519 11.6934 14.4419 11.8309 14.4419 11.9793C14.4419 12.1277 14.3519 12.2653 14.2048 12.3416L10.9489 14.0317C10.7981 14.11 10.6102 14.1121 10.4571 14.0371C10.3039 13.9621 10.2093 13.8216 10.2093 13.6694V10.2892C10.2093 10.137 10.3039 9.99653 10.4571 9.92153Z" fill="currentColor"/><path fill-rule="evenodd" clip-rule="evenodd" d="M24 12C24 18.6274 18.6274 24 12 24C5.37258 24 0 18.6274 0 12C0 5.37258 5.37258 0 12 0C18.6274 0 24 5.37258 24 12ZM5 9.03056C5 8.298 5.59149 7.66499 6.41941 7.5115C10.0981 6.8295 13.902 6.8295 17.5806 7.5115C18.4085 7.66499 19 8.298 19 9.03055V14.9457C19 15.7153 18.3721 16.3779 17.4998 16.5288C13.8692 17.1571 10.1308 17.1571 6.50016 16.5288C5.62788 16.3779 5 15.7153 5 14.9457V9.03056Z" fill="currentColor"/></svg>
