<svg width="24" height="24" viewBox="0 0 24 24" fill="none" xmlns="http://www.w3.org/2000/svg"><path fill-rule="evenodd" clip-rule="evenodd" d="M4.02773 4.8184C9.28293 3.7272 14.7171 3.7272 19.9723 4.8184C21.155 5.06398 22 6.0768 22 7.24889V16.7131C22 17.9444 21.103 19.0046 19.8569 19.2461C14.6703 20.2513 9.32967 20.2513 4.14309 19.2461C2.89697 19.0046 2 17.9444 2 16.7131V7.24889C2 6.0768 2.84498 5.06398 4.02773 4.8184ZM19.6799 6.14046C14.6174 5.08929 9.38257 5.08929 4.3201 6.14046C3.7807 6.25246 3.39535 6.71436 3.39535 7.24889V16.7131C3.39535 17.2999 3.82284 17.8052 4.41674 17.9203C9.42268 18.8905 14.5773 18.8905 19.5833 17.9203C20.1772 17.8052 20.6047 17.2999 20.6047 16.7131V7.24889C20.6047 6.71436 20.2193 6.25246 19.6799 6.14046ZM9.79579 8.67444C10.0145 8.55444 10.283 8.55772 10.4985 8.68303L15.1496 11.3872C15.3598 11.5094 15.4884 11.7294 15.4884 11.9669C15.4884 12.2044 15.3598 12.4244 15.1496 12.5466L10.4985 15.2507C10.283 15.3761 10.0145 15.3793 9.79579 15.2593C9.57706 15.1393 9.44186 14.9146 9.44186 14.671V9.26273C9.44186 9.01917 9.57706 8.79444 9.79579 8.67444ZM10.8372 10.4567V13.477L13.4347 11.9669L10.8372 10.4567Z" fill="currentColor"/></svg>
