<svg width="60" height="60" viewBox="0 0 60 60" fill="none" xmlns="http://www.w3.org/2000/svg">
<circle cx="30" cy="30" r="28.75" stroke="#C3C3CB" stroke-width="2.5"/>
<path fill-rule="evenodd" clip-rule="evenodd" d="M24.9568 25.8086C28.4991 25.8086 31.3707 22.9371 31.3707 19.3948C31.3707 15.8525 28.4991 12.981 24.9568 12.981C21.4145 12.981 18.543 15.8525 18.543 19.3948C18.543 22.9371 21.4145 25.8086 24.9568 25.8086ZM24.9568 28.3086C29.8798 28.3086 33.8707 24.3178 33.8707 19.3948C33.8707 14.4718 29.8798 10.481 24.9568 10.481C20.0338 10.481 16.043 14.4718 16.043 19.3948C16.043 24.3178 20.0338 28.3086 24.9568 28.3086ZM10.3193 41.6631C10.3193 36.0022 14.9084 31.4131 20.5693 31.4131H31.9511C32.6414 31.4131 33.2011 31.9727 33.2011 32.6631C33.2011 33.3534 32.6414 33.9131 31.9511 33.9131H20.5693C16.2891 33.9131 12.8193 37.3829 12.8193 41.6631V52.0291C12.8193 52.7194 12.2597 53.2791 11.5693 53.2791C10.879 53.2791 10.3193 52.7194 10.3193 52.0291V41.6631ZM36.4688 10.8599C35.7784 10.8599 35.2188 11.4195 35.2188 12.1099C35.2188 12.8002 35.7784 13.3599 36.4688 13.3599C37.6252 13.3599 38.7046 13.6734 39.6308 14.2193C41.4745 15.3059 42.707 17.3087 42.707 19.5981C42.707 21.8874 41.4745 23.8902 39.6308 24.9769C38.7046 25.5228 37.6252 25.8363 36.4688 25.8363C35.7784 25.8363 35.2188 26.3959 35.2188 27.0863C35.2188 27.7767 35.7784 28.3363 36.4688 28.3363C38.0837 28.3363 39.5999 27.897 40.9002 27.1306C43.4749 25.6131 45.207 22.8086 45.207 19.5981C45.207 16.3876 43.4749 13.583 40.9002 12.0655C39.5999 11.2991 38.0837 10.8599 36.4688 10.8599ZM25.668 41.5811C25.668 40.8907 26.2276 40.3311 26.918 40.3311H43.9766L39.1894 35.614C38.6976 35.1295 38.6918 34.338 39.1763 33.8463C39.6609 33.3546 40.4523 33.3487 40.944 33.8332L47.9037 40.6909C48.1421 40.9258 48.2764 41.2465 48.2764 41.5812C48.2764 41.916 48.1421 42.2367 47.9037 42.4716L40.9441 49.3293C40.4523 49.8138 39.6609 49.808 39.1763 49.3162C38.6918 48.8245 38.6976 48.0331 39.1894 47.5485L43.977 42.8311H26.918C26.2276 42.8311 25.668 42.2714 25.668 41.5811Z" fill="#C3C3CB"/>
</svg>
