<svg width="60" height="60" viewBox="0 0 60 60" fill="none" xmlns="http://www.w3.org/2000/svg">
<circle cx="30" cy="30" r="28.75" stroke="currentColor" stroke-width="2.5"/>
<path fill-rule="evenodd" clip-rule="evenodd" d="M29.065 27.458C28.3642 27.458 27.796 26.8899 27.796 26.189V19.0219C23.7952 19.176 20.2496 20.0509 17.6683 21.3415C14.7412 22.805 13.414 24.592 13.414 26.1886C13.414 27.7851 14.7413 29.5722 17.6683 31.0357C20.5194 32.4613 24.547 33.3796 29.0651 33.3796C33.5831 33.3796 37.6107 32.4613 40.4619 31.0357C43.3889 29.5722 44.7162 27.7851 44.7162 26.1886C44.7162 24.592 43.3889 22.805 40.4619 21.3415C37.8806 20.0509 34.3349 19.176 30.334 19.0219V26.189C30.334 26.8899 29.7659 27.458 29.065 27.458ZM30.334 11.9093V16.4822C34.6655 16.637 38.6132 17.5796 41.5969 19.0714C44.7937 20.6698 47.2542 23.1128 47.2542 26.1886C47.2542 26.4762 47.2327 26.7582 47.1911 27.0346H47.2542V31.7647C47.2542 34.9953 44.871 37.6408 41.6371 39.4048C38.644 41.0373 34.6818 42.0693 30.3342 42.2383V46.8133L33.5599 44.2327C34.1072 43.7949 34.9058 43.8836 35.3436 44.4309C35.7814 44.9782 35.6927 45.7767 35.1454 46.2146L29.8579 50.4446C29.3945 50.8153 28.7359 50.8154 28.2725 50.4446L22.9849 46.2146C22.4376 45.7768 22.3489 44.9782 22.7867 44.4309C23.2245 43.8836 24.0231 43.7949 24.5703 44.2327L27.7962 46.8134V42.2383C23.4485 42.0693 19.4862 41.0374 16.4931 39.4048C13.2592 37.6408 10.876 34.9953 10.876 31.7647V27.0346H10.9391C10.8975 26.7582 10.876 26.4762 10.876 26.1886C10.876 23.1128 13.3364 20.6698 16.5333 19.0714C19.517 17.5796 23.4646 16.6371 27.796 16.4822V11.9093L24.5703 14.4899C24.023 14.9278 23.2244 14.839 22.7866 14.2918C22.3488 13.7445 22.4375 12.9459 22.9848 12.5081L28.2723 8.27808C28.7357 7.90731 29.3943 7.90731 29.8577 8.27807L35.1453 12.5081C35.6926 12.9459 35.7814 13.7445 35.3435 14.2917C34.9057 14.839 34.1071 14.9278 33.5599 14.4899L30.334 11.9093ZM29.0902 39.7249C29.0819 39.7247 29.0736 39.7246 29.0652 39.7246C29.0568 39.7246 29.0485 39.7247 29.0401 39.7249C24.5484 39.7212 20.5452 38.724 17.7084 37.1767C14.8185 35.6003 13.414 33.6312 13.414 31.7647V31.231C14.3002 32.028 15.3678 32.723 16.5332 33.3057C19.806 34.9421 24.2384 35.9176 29.0651 35.9176C33.8917 35.9176 38.3242 34.9421 41.5969 33.3057C42.7624 32.723 43.83 32.028 44.7162 31.231V31.7647C44.7162 33.6312 43.3117 35.6003 40.4217 37.1767C37.585 38.724 33.5819 39.7212 29.0902 39.7249Z" fill="currentColor"/>
</svg>
