<svg width="60" height="60" viewBox="0 0 60 60" fill="none" xmlns="http://www.w3.org/2000/svg">
<circle cx="30" cy="30" r="28.75" stroke="currentColor" stroke-width="2.5"/>
<path fill-rule="evenodd" clip-rule="evenodd" d="M40.2518 33.6117C40.2518 34.4007 40.8914 35.0403 41.6804 35.0403C42.4693 35.0403 43.1089 34.4007 43.1089 33.6117V18.4595C43.1089 17.6705 42.4693 17.0309 41.6804 17.0309L26.5281 17.0309C25.7391 17.0309 25.0995 17.6705 25.0995 18.4595C25.0995 19.2484 25.7391 19.888 26.5281 19.888L38.2314 19.888L32.7851 25.3266C32.2146 25.0452 31.5724 24.8872 30.8932 24.8872C28.5279 24.8872 26.6104 26.8047 26.6104 29.17C26.6104 29.849 26.7684 30.4911 27.0496 31.0616L25.335 32.7762C24.7646 32.4949 24.1225 32.3369 23.4435 32.3369C21.0781 32.3369 19.1606 34.2544 19.1606 36.6198C19.1606 37.2944 19.3165 37.9325 19.5944 38.5001L17.5027 40.5918C16.9587 41.1357 16.9587 42.0176 17.5027 42.5616C18.0466 43.1055 18.9285 43.1055 19.4725 42.5616L21.5645 40.4696C22.1318 40.747 22.7694 40.9027 23.4435 40.9027C25.8088 40.9027 27.7263 38.9852 27.7263 36.6198C27.7263 35.9502 27.5727 35.3165 27.2987 34.7521L29.0255 33.0253C29.59 33.2992 30.2237 33.4529 30.8932 33.4529C33.2586 33.4529 35.1761 31.5354 35.1761 29.17C35.1761 28.5275 35.0346 27.9181 34.7811 27.3711L40.2518 21.9082V33.6117ZM30.8932 30.6672C31.7201 30.6672 32.3904 29.9969 32.3904 29.17C32.3904 28.3432 31.7201 27.6729 30.8932 27.6729C30.0664 27.6729 29.3961 28.3432 29.3961 29.17C29.3961 29.9969 30.0664 30.6672 30.8932 30.6672ZM24.9406 36.6198C24.9406 37.4467 24.2703 38.117 23.4435 38.117C23.12 38.117 22.8205 38.0144 22.5757 37.84L22.2233 37.4875C22.0489 37.2428 21.9463 36.9433 21.9463 36.6198C21.9463 35.7929 22.6166 35.1226 23.4435 35.1226C24.2703 35.1226 24.9406 35.7929 24.9406 36.6198Z" fill="currentColor"/>
</svg>
