<svg width="60" height="60" viewBox="0 0 60 60" fill="none" xmlns="http://www.w3.org/2000/svg">
<path fill-rule="evenodd" clip-rule="evenodd" d="M30 57.5C45.1878 57.5 57.5 45.1878 57.5 30C57.5 14.8122 45.1878 2.5 30 2.5C14.8122 2.5 2.5 14.8122 2.5 30C2.5 45.1878 14.8122 57.5 30 57.5ZM30 60C46.5685 60 60 46.5685 60 30C60 13.4315 46.5685 0 30 0C13.4315 0 0 13.4315 0 30C0 46.5685 13.4315 60 30 60Z" fill="currentColor"/>
<path d="M21.0487 39.8055H21.1091C21.364 39.7952 21.6103 39.711 21.8182 39.5632C22.0261 39.4154 22.1865 39.2103 22.2799 38.973C22.3733 38.7357 22.3957 38.4763 22.3444 38.2265C22.2931 37.9766 22.1702 37.7471 21.9907 37.5658C20.9379 36.4839 20.1442 35.1772 19.6693 33.7442C19.5833 33.4787 19.4157 33.2471 19.1904 33.0825C18.965 32.9178 18.6935 32.8284 18.4144 32.827C18.3285 32.8269 18.2428 32.8352 18.1585 32.8519C17.9746 32.8888 17.8006 32.9642 17.648 33.0733C17.4954 33.1824 17.3677 33.3226 17.2733 33.4847C17.1821 33.6406 17.1248 33.8139 17.1052 33.9934C17.0856 34.1729 17.1041 34.3545 17.1595 34.5263C17.7622 36.3641 18.779 38.0389 20.1315 39.4215C20.2514 39.543 20.3942 39.6395 20.5516 39.7054C20.7091 39.7713 20.878 39.8053 21.0487 39.8055Z" fill="currentColor"/>
<path d="M39.5334 39.8055H39.4729C39.2181 39.7952 38.9717 39.711 38.7638 39.5632C38.556 39.4154 38.3956 39.2103 38.3021 38.973C38.2087 38.7357 38.1863 38.4763 38.2376 38.2265C38.289 37.9766 38.4118 37.7471 38.5913 37.5658C39.6441 36.4839 40.4378 35.1772 40.9127 33.7442C40.9987 33.4787 41.1664 33.2471 41.3917 33.0825C41.617 32.9178 41.8885 32.8284 42.1676 32.827C42.2535 32.8269 42.3393 32.8352 42.4236 32.8519C42.6075 32.8888 42.7815 32.9642 42.9341 33.0733C43.0867 33.1824 43.2144 33.3226 43.3088 33.4847C43.3999 33.6406 43.4572 33.8139 43.4768 33.9934C43.4964 34.1729 43.4779 34.3545 43.4225 34.5263C42.8198 36.3641 41.803 38.0389 40.4505 39.4215C40.3307 39.543 40.1879 39.6395 40.0304 39.7054C39.873 39.7713 39.704 39.8053 39.5334 39.8055Z" fill="currentColor"/>
<circle cx="30.2242" cy="37.3022" r="3.55525" stroke="currentColor" stroke-width="2.5"/>
<circle cx="41.983" cy="18.3468" r="3.55525" stroke="currentColor" stroke-width="2.5"/>
<circle cx="18.0162" cy="18.3468" r="3.55525" stroke="currentColor" stroke-width="2.5"/>
<path d="M23.1143 46.6847C23.1143 43.4663 25.7233 40.8573 28.9416 40.8573H31.5079C34.7262 40.8573 37.3352 43.4663 37.3352 46.6847V46.6847C37.3352 48.064 36.2171 49.1821 34.8378 49.1821H25.6117C24.2324 49.1821 23.1143 48.064 23.1143 46.6847V46.6847Z" stroke="currentColor" stroke-width="2.5"/>
<path d="M34.873 27.7292C34.873 24.5109 37.482 21.9019 40.7004 21.9019H43.2667C46.485 21.9019 49.094 24.5109 49.094 27.7292V27.7292C49.094 29.1085 47.9759 30.2267 46.5966 30.2267H37.3705C35.9912 30.2267 34.873 29.1085 34.873 27.7292V27.7292Z" stroke="currentColor" stroke-width="2.5"/>
<path d="M10.9053 27.7292C10.9053 24.5109 13.5143 21.9019 16.7326 21.9019H19.2989C22.5173 21.9019 25.1263 24.5109 25.1263 27.7292V27.7292C25.1263 29.1085 24.0081 30.2267 22.6288 30.2267H13.4027C12.0234 30.2267 10.9053 29.1085 10.9053 27.7292V27.7292Z" stroke="currentColor" stroke-width="2.5"/>
</svg>
