<svg width="61" height="60" viewBox="0 0 61 60" fill="none" xmlns="http://www.w3.org/2000/svg">
<path fill-rule="evenodd" clip-rule="evenodd" d="M30.0996 57.5C45.2874 57.5 57.5996 45.1878 57.5996 30C57.5996 14.8122 45.2874 2.5 30.0996 2.5C14.9118 2.5 2.59961 14.8122 2.59961 30C2.59961 45.1878 14.9118 57.5 30.0996 57.5ZM30.0996 60C46.6682 60 60.0996 46.5685 60.0996 30C60.0996 13.4315 46.6682 0 30.0996 0C13.5311 0 0.0996094 13.4315 0.0996094 30C0.0996094 46.5685 13.5311 60 30.0996 60Z" fill="#C3C3CB"/>
<path fill-rule="evenodd" clip-rule="evenodd" d="M31.4703 19.3948C31.4703 22.9371 28.5987 25.8086 25.0564 25.8086C21.5142 25.8086 18.6426 22.9371 18.6426 19.3948C18.6426 15.8525 21.5142 12.981 25.0564 12.981C28.5987 12.981 31.4703 15.8525 31.4703 19.3948ZM33.9703 19.3948C33.9703 24.3178 29.9794 28.3086 25.0564 28.3086C20.1334 28.3086 16.1426 24.3178 16.1426 19.3948C16.1426 14.4718 20.1334 10.481 25.0564 10.481C29.9794 10.481 33.9703 14.4718 33.9703 19.3948ZM20.6699 31.4131C15.009 31.4131 10.4199 36.0022 10.4199 41.6631V52.0291C10.4199 52.7194 10.9796 53.2791 11.6699 53.2791C12.3603 53.2791 12.9199 52.7194 12.9199 52.0291V41.6631C12.9199 37.3829 16.3897 33.9131 20.6699 33.9131H32.0517C32.742 33.9131 33.3017 33.3534 33.3017 32.6631C33.3017 31.9727 32.742 31.4131 32.0517 31.4131H20.6699ZM35.3184 12.1099C35.3184 11.4195 35.878 10.8599 36.5684 10.8599C38.1834 10.8599 39.6996 11.2991 40.9998 12.0655C43.5745 13.583 45.3066 16.3876 45.3066 19.5981C45.3066 22.8086 43.5745 25.6131 40.9998 27.1306C39.6996 27.897 38.1834 28.3363 36.5684 28.3363C35.878 28.3363 35.3184 27.7767 35.3184 27.0863C35.3184 26.3959 35.878 25.8363 36.5684 25.8363C37.7248 25.8363 38.8042 25.5228 39.7304 24.9769C41.5741 23.8902 42.8066 21.8874 42.8066 19.5981C42.8066 17.3087 41.5741 15.3059 39.7304 14.2193C38.8042 13.6734 37.7248 13.3599 36.5684 13.3599C35.878 13.3599 35.3184 12.8002 35.3184 12.1099ZM40.0828 37.4164L43.3764 40.7101L34.8857 49.2008L31.156 49.6369L31.592 45.9072L40.0828 37.4164ZM35.6938 51.6234C35.9174 51.5973 36.1256 51.4964 36.2848 51.3373L50.6118 37.0103C51.0023 36.6198 51.0023 35.9866 50.6118 35.5961L45.1968 30.1811C44.8062 29.7906 44.1731 29.7906 43.7825 30.1811L29.4556 44.5081C29.2964 44.6672 29.1956 44.8755 29.1695 45.099L28.4526 51.2309C28.3776 51.8721 28.9208 52.4152 29.5619 52.3403L35.6938 51.6234ZM45.1442 38.9423L41.8505 35.6486L44.4897 33.0095L47.7833 36.3032L45.1442 38.9423Z" fill="#C3C3CB"/>
</svg>
