<svg width="60" height="60" viewBox="0 0 60 60" fill="none" xmlns="http://www.w3.org/2000/svg">
<g clip-path="url(#clip0_7674_11699)">
<path fill-rule="evenodd" clip-rule="evenodd" d="M30 57.5C45.1878 57.5 57.5 45.1878 57.5 30C57.5 14.8122 45.1878 2.5 30 2.5C14.8122 2.5 2.5 14.8122 2.5 30C2.5 45.1878 14.8122 57.5 30 57.5ZM30 60C46.5685 60 60 46.5685 60 30C60 13.4315 46.5685 0 30 0C13.4315 0 0 13.4315 0 30C0 46.5685 13.4315 60 30 60Z" fill="#C3C3CB"/>
<path fill-rule="evenodd" clip-rule="evenodd" d="M44.4993 24.3293L33.6003 35.2179C33.4677 35.3581 33.3024 35.4633 33.1192 35.5241L27.3124 37.4596C27.1725 37.5114 27.0243 37.5373 26.875 37.5362C26.548 37.5321 26.235 37.403 26.0002 37.1753C25.8498 37.0027 25.7498 36.792 25.7112 36.5663C25.6726 36.3406 25.6969 36.1087 25.7815 35.8959L27.7171 30.0782C27.7702 29.9036 27.8555 29.7404 27.9686 29.597L41.5286 16.0371C41.6433 15.922 41.7797 15.8307 41.9298 15.7684C42.0799 15.7061 42.2409 15.6741 42.4034 15.6741C42.5659 15.6741 42.7269 15.7061 42.877 15.7684C43.0271 15.8307 43.1634 15.922 43.2782 16.0371L47.1494 19.9192C47.2645 20.0339 47.3557 20.1703 47.418 20.3204C47.4803 20.4705 47.5124 20.6315 47.5124 20.794C47.5124 20.9565 47.4803 21.1175 47.418 21.2676C47.3557 21.4177 47.2645 21.554 47.1494 21.6688L46.9416 21.8657L45.9091 22.9106L46.7213 23.706C47.5163 24.4845 47.523 25.7623 46.7361 26.5491L41.21 32.0752C40.8195 32.4657 40.1863 32.4657 39.7958 32.0752C39.4053 31.6847 39.4053 31.0515 39.7958 30.661L45.3219 25.1349L44.4993 24.3293ZM32.3014 33.6885L28.1649 35.0673L29.58 30.814L42.4026 17.9914L45.1931 20.7897L43.6974 22.3034L32.3014 33.6885Z" fill="#C3C3CB"/>
<path d="M29.7626 16.5463C28.9796 15.7774 27.7232 15.7832 26.9473 16.5592L25.9008 17.6056C25.5103 17.9961 25.5103 18.6293 25.9008 19.0198C26.2914 19.4103 26.9245 19.4103 27.3151 19.0198L28.3615 17.9734L28.8755 18.474C29.2695 18.8609 29.9027 18.8551 30.2896 18.461C30.6765 18.0669 30.6707 17.4338 30.2766 17.0468L29.7626 16.5463Z" fill="#C3C3CB"/>
<path d="M32.244 18.9874C31.8499 18.6004 31.2167 18.6062 30.8298 19.0003C30.4429 19.3944 30.4487 20.0276 30.8428 20.4145L31.3093 20.8676L30.2359 21.9289C29.8432 22.3172 29.8397 22.9504 30.228 23.3431C30.6164 23.7358 31.2495 23.7394 31.6422 23.351L32.7155 22.2897C33.5092 21.5049 33.5069 20.2224 32.7104 19.4404L32.244 18.9874Z" fill="#C3C3CB"/>
<path d="M25.2222 21.1126C25.6127 20.7221 25.6127 20.0889 25.2222 19.6984C24.8317 19.3079 24.1985 19.3079 23.808 19.6984L21.7152 21.7912C21.3246 22.1818 21.3246 22.8149 21.7152 23.2055C22.1057 23.596 22.7389 23.596 23.1294 23.2055L25.2222 21.1126Z" fill="#C3C3CB"/>
<path d="M21.0365 25.2983C21.4271 24.9078 21.4271 24.2746 21.0366 23.8841C20.646 23.4935 20.0129 23.4935 19.6223 23.8841L17.5295 25.9769C17.139 26.3674 17.139 27.0006 17.5295 27.3911C17.92 27.7816 18.5532 27.7816 18.9437 27.3911L21.0365 25.2983Z" fill="#C3C3CB"/>
<path d="M29.4956 25.4737C29.8883 25.0854 29.8918 24.4523 29.5035 24.0595C29.1152 23.6668 28.482 23.6633 28.0893 24.0516L25.9427 26.1743C25.55 26.5627 25.5464 27.1958 25.9348 27.5885C26.3231 27.9812 26.9563 27.9848 27.349 27.5965L29.4956 25.4737Z" fill="#C3C3CB"/>
<path d="M16.8509 29.4839C17.2414 29.0934 17.2414 28.4603 16.8509 28.0697C16.4604 27.6792 15.8272 27.6792 15.4367 28.0697L14.3903 29.1161C14.182 29.3244 14.0223 29.576 13.9226 29.8531L13.5043 31.0155C13.3173 31.5352 13.5869 32.1081 14.1066 32.2951C14.6262 32.4821 15.1991 32.2124 15.3861 31.6928L15.8045 30.5304L16.8509 29.4839Z" fill="#C3C3CB"/>
<path d="M25.2023 29.7192C25.595 29.3308 25.5986 28.6977 25.2103 28.305C24.8219 27.9123 24.1888 27.9087 23.7961 28.2971L21.6494 30.4198C21.2567 30.8081 21.2532 31.4413 21.6415 31.834C22.0298 32.2267 22.663 32.2302 23.0557 31.8419L25.2023 29.7192Z" fill="#C3C3CB"/>
<path d="M20.9091 33.9646C21.3018 33.5763 21.3053 32.9431 20.917 32.5504C20.5287 32.1577 19.8955 32.1541 19.5028 32.5425L18.4295 33.6038L17.6133 33.9062C17.0948 34.0964 16.8286 34.6709 17.0187 35.1894C17.2088 35.7079 17.7833 35.9741 18.3018 35.784L19.1181 35.4816C19.3872 35.3829 19.6319 35.2275 19.8358 35.0259L20.9091 33.9646Z" fill="#C3C3CB"/>
<path d="M14.3803 34.406C14.5673 33.8863 14.2976 33.3135 13.778 33.1264C13.2583 32.9394 12.6854 33.2091 12.4984 33.7287L12.2493 34.5028C11.6744 36.1002 13.2257 37.6423 14.8197 37.0578L15.6466 36.7608C16.1652 36.5707 16.4314 35.9962 16.2412 35.4777C16.0511 34.9591 15.4766 34.6929 14.9581 34.8831L14.1311 35.18L14.3803 34.406Z" fill="#C3C3CB"/>
<path d="M12.2764 41.5933C12.2764 41.041 12.7241 40.5933 13.2764 40.5933H45.5869C46.1392 40.5933 46.5869 41.041 46.5869 41.5933C46.5869 42.1455 46.1392 42.5933 45.5869 42.5933H13.2764C12.7241 42.5933 12.2764 42.1455 12.2764 41.5933Z" fill="#C3C3CB"/>
</g>
<defs>
<clipPath id="clip0_7674_11699">
<rect width="60" height="60" rx="30" fill="white"/>
</clipPath>
</defs>
</svg>
