<svg width="60" height="60" viewBox="0 0 60 60" fill="none" xmlns="http://www.w3.org/2000/svg">
<circle cx="30" cy="30" r="28.75" stroke="currentColor" stroke-width="2.5"/>
<path fill-rule="evenodd" clip-rule="evenodd" d="M31.1091 8.93145C30.621 8.50253 29.8777 8.55047 29.4488 9.03853C29.0199 9.52659 29.0678 10.27 29.5559 10.6989L32.5451 13.3259C25.8791 12.3099 18.9706 15.3769 15.3958 21.5686C11.6775 28.0088 12.6911 35.8794 17.3527 41.1606C17.7826 41.6477 18.5261 41.694 19.0132 41.264C19.5004 40.8341 19.5467 40.0906 19.1167 39.6035C15.1038 35.0572 14.2357 28.2837 17.4335 22.7451C21.4403 15.8051 30.3144 13.4273 37.2543 17.4341C37.7781 17.7365 38.4459 17.5925 38.7985 17.101C39.1511 16.6095 39.0735 15.9308 38.6192 15.5315L31.1091 8.93145ZM42.6462 18.8395C42.2162 18.3524 41.4728 18.3061 40.9856 18.736C40.4985 19.166 40.4522 19.9095 40.8822 20.3966C44.895 24.9429 45.763 31.7163 42.5653 37.2549C38.5585 44.1949 29.6844 46.5727 22.7445 42.5659C22.2206 42.2635 21.5529 42.4075 21.2003 42.899C20.8477 43.3905 20.9253 44.0692 21.3796 44.4685L28.8897 51.0685C29.3777 51.4975 30.1211 51.4495 30.55 50.9615C30.9789 50.4734 30.931 49.73 30.4429 49.3011L27.4537 46.6741C34.1197 47.6901 41.0282 44.6231 44.603 38.4314C48.3213 31.9912 47.3077 24.1207 42.6462 18.8395ZM31.1758 22.1562C31.1758 21.5064 30.6491 20.9797 29.9993 20.9797C29.3496 20.9797 28.8229 21.5064 28.8229 22.1562V35.4264L24.6136 32.1288C24.1021 31.7281 23.3626 31.8179 22.9619 32.3294C22.5612 32.8409 22.651 33.5804 23.1625 33.9811L29.2738 38.7686C29.6999 39.1024 30.2988 39.1024 30.7249 38.7686L36.8362 33.9811C37.3477 33.5804 37.4375 32.8409 37.0368 32.3294C36.6362 31.8179 35.8967 31.7281 35.3852 32.1288L31.1758 35.4264V22.1562Z" fill="currentColor"/>
</svg>
