<svg width="61" height="60" viewBox="0 0 61 60" fill="none" xmlns="http://www.w3.org/2000/svg">
<circle cx="30.1992" cy="30" r="28.75" stroke="#C3C3CB" stroke-width="2.5"/>
<path fill-rule="evenodd" clip-rule="evenodd" d="M25.157 25.8086C28.6993 25.8086 31.5709 22.9371 31.5709 19.3948C31.5709 15.8525 28.6993 12.981 25.157 12.981C21.6147 12.981 18.7432 15.8525 18.7432 19.3948C18.7432 22.9371 21.6147 25.8086 25.157 25.8086ZM25.157 28.3086C30.08 28.3086 34.0709 24.3178 34.0709 19.3948C34.0709 14.4718 30.08 10.481 25.157 10.481C20.234 10.481 16.2432 14.4718 16.2432 19.3948C16.2432 24.3178 20.234 28.3086 25.157 28.3086ZM10.5195 41.6631C10.5195 36.0022 15.1086 31.4131 20.7695 31.4131H28.2702C28.9606 31.4131 29.5202 31.9727 29.5202 32.6631C29.5202 33.3534 28.9606 33.9131 28.2702 33.9131H20.7695C16.4893 33.9131 13.0195 37.3829 13.0195 41.6631V52.0291C13.0195 52.7194 12.4599 53.2791 11.7695 53.2791C11.0792 53.2791 10.5195 52.7194 10.5195 52.0291V41.6631ZM36.668 10.8599C35.9776 10.8599 35.418 11.4195 35.418 12.1099C35.418 12.8002 35.9776 13.3599 36.668 13.3599C37.8244 13.3599 38.9038 13.6734 39.83 14.2193C41.6737 15.3059 42.9062 17.3087 42.9062 19.5981C42.9062 21.8874 41.6737 23.8902 39.83 24.9769C38.9038 25.5228 37.8244 25.8363 36.668 25.8363C35.9776 25.8363 35.418 26.3959 35.418 27.0863C35.418 27.7767 35.9776 28.3363 36.668 28.3363C38.283 28.3363 39.7992 27.897 41.0994 27.1306C43.6741 25.6131 45.4062 22.8086 45.4062 19.5981C45.4062 16.3876 43.6741 13.583 41.0994 12.0655C39.7992 11.2991 38.283 10.8599 36.668 10.8599ZM31.996 32.5077C32.4842 32.0196 33.2756 32.0196 33.7638 32.5077L39.6182 38.3621L45.4726 32.5077C45.9607 32.0196 46.7522 32.0196 47.2403 32.5077C47.7285 32.9959 47.7285 33.7873 47.2403 34.2755L41.3859 40.1299L47.24 45.9839C47.7281 46.4721 47.7281 47.2636 47.24 47.7517C46.7518 48.2399 45.9604 48.2399 45.4722 47.7517L39.6182 41.8976L33.7641 47.7517C33.2759 48.2399 32.4845 48.2399 31.9963 47.7517C31.5082 47.2636 31.5082 46.4721 31.9963 45.9839L37.8504 40.1299L31.996 34.2755C31.5078 33.7873 31.5078 32.9959 31.996 32.5077Z" fill="#C3C3CB"/>
</svg>
