<svg width="60" height="60" viewBox="0 0 60 60" fill="none" xmlns="http://www.w3.org/2000/svg">
<circle cx="30" cy="30" r="28.75" stroke="currentColor" stroke-width="2.5"/>
<path fill-rule="evenodd" clip-rule="evenodd" d="M14.1923 30C14.1923 21.2698 21.2695 14.1926 29.9996 14.1926C38.7298 14.1926 45.807 21.2698 45.807 30C45.807 38.7302 38.7298 45.8074 29.9996 45.8074C21.2695 45.8074 14.1923 38.7302 14.1923 30ZM29.9996 11.6293C19.8538 11.6293 11.6289 19.8541 11.6289 30C11.6289 40.1459 19.8538 48.3708 29.9996 48.3708C40.1455 48.3708 48.3704 40.1459 48.3704 30C48.3704 19.8541 40.1455 11.6293 29.9996 11.6293ZM39.216 24.6431C39.6642 24.0952 39.5834 23.2877 39.0356 22.8395C38.4877 22.3912 37.6803 22.472 37.232 23.0198L28.7397 33.3994L22.5201 28.9568C21.9441 28.5454 21.1437 28.6788 20.7322 29.2548C20.3208 29.8308 20.4542 30.6313 21.0302 31.0427L28.2266 36.183C28.7761 36.5755 29.5359 36.4743 29.9635 35.9516L39.216 24.6431Z" fill="currentColor"/>
</svg>
