<svg width="60" height="60" viewBox="0 0 60 60" fill="none" xmlns="http://www.w3.org/2000/svg">
<circle cx="30" cy="30" r="28.75" stroke="currentColor" stroke-width="2.5"/>
<path fill-rule="evenodd" clip-rule="evenodd" d="M20.6008 23.5915C20.6008 18.4006 24.8089 14.1925 29.9999 14.1925C35.1908 14.1925 39.3989 18.4006 39.3989 23.5915C39.3989 28.7824 35.1908 32.9904 29.9999 32.9904C24.8089 32.9904 20.6008 28.7824 20.6008 23.5915ZM29.9999 11.6292C23.3932 11.6292 18.0374 16.9849 18.0374 23.5915C18.0374 23.8697 18.0469 24.1458 18.0656 24.4193C14.4642 26.0577 11.6889 28.6363 11.6299 31.9224H11.6289V32.0293V37.7678C11.6289 41.0307 14.0359 43.7025 17.3022 45.4841C20.6169 47.2921 25.1086 48.3708 29.9999 48.3708C34.8911 48.3708 39.3828 47.2921 42.6975 45.4841C45.9638 43.7025 48.3708 41.0307 48.3708 37.7678V32.0293V31.9224H48.3698C48.3108 28.6363 45.5355 26.0577 41.9341 24.4193C41.9528 24.1458 41.9623 23.8697 41.9623 23.5915C41.9623 16.9849 36.6066 11.6292 29.9999 11.6292ZM41.4603 27.0315C39.9826 31.9613 35.4108 35.5538 29.9999 35.5538C24.5889 35.5538 20.0171 31.9613 18.5394 27.0315C15.5965 28.5049 14.1923 30.3575 14.1923 32.0293C14.1923 33.6798 15.5444 35.5098 18.4949 37.0036C21.3731 38.4607 25.4389 39.3994 29.9999 39.3994C34.5608 39.3994 38.6266 38.4607 41.5048 37.0036C44.4553 35.5098 45.8074 33.6798 45.8074 32.0293C45.8074 30.3575 44.4032 28.5049 41.4603 27.0315ZM14.1923 37.7678V37.1742C15.0849 37.9859 16.1606 38.695 17.337 39.2905C20.6439 40.9647 25.1227 41.9628 29.9999 41.9628C34.877 41.9628 39.3558 40.9647 42.6627 39.2905C43.8391 38.695 44.9148 37.9859 45.8074 37.1742V37.7678C45.8074 39.6529 44.3889 41.6417 41.47 43.2338C38.5996 44.7994 34.5467 45.8074 29.9999 45.8074C25.453 45.8074 21.4 44.7994 18.5297 43.2338C15.6108 41.6417 14.1923 39.6529 14.1923 37.7678ZM29.9999 16.9695C30.7077 16.9695 31.2815 17.5433 31.2815 18.2511V22.3098H35.3402C36.0481 22.3098 36.6219 22.8836 36.6219 23.5915C36.6219 24.2993 36.0481 24.8731 35.3402 24.8731H31.2815V28.9318C31.2815 29.6396 30.7077 30.2135 29.9999 30.2135C29.292 30.2135 28.7182 29.6396 28.7182 28.9318V24.8731H24.6595C23.9516 24.8731 23.3778 24.2993 23.3778 23.5915C23.3778 22.8836 23.9516 22.3098 24.6595 22.3098H28.7182V18.2511C28.7182 17.5433 29.292 16.9695 29.9999 16.9695Z" fill="currentColor"/>
</svg>
