<svg width="60" height="60" viewBox="0 0 60 60" fill="none" xmlns="http://www.w3.org/2000/svg">
<circle cx="30" cy="30" r="28.75" stroke="currentColor" stroke-width="2.5"/>
<path fill-rule="evenodd" clip-rule="evenodd" d="M18.549 18.5781C15.6139 20.0762 14.25 21.9203 14.25 23.6021C14.25 25.2838 15.6139 27.1279 18.549 28.626C21.4165 30.0895 25.4651 31.0315 30.0055 31.0315C34.5458 31.0315 38.5944 30.0895 41.4619 28.626C44.397 27.1279 45.7609 25.2838 45.7609 23.6021C45.7609 21.9203 44.397 20.0762 41.4619 18.5781C38.5944 17.1146 34.5458 16.1726 30.0055 16.1726C25.4651 16.1726 21.4165 17.1146 18.549 18.5781ZM48.2589 23.446C48.1788 20.4068 45.764 17.9671 42.5984 16.3514C39.3111 14.6736 34.857 13.6726 30.0055 13.6726C25.1539 13.6726 20.6998 14.6736 17.4125 16.3514C14.1929 17.9947 11.75 20.4903 11.75 23.6021C11.75 23.7188 11.7534 23.8347 11.7602 23.9497H11.75V30C11.75 30.1167 11.7534 30.2326 11.7602 30.3476H11.75V36.3979C11.75 39.5097 14.1929 42.0053 17.4125 43.6486C20.6998 45.3264 25.1539 46.3274 30.0055 46.3274C34.857 46.3274 39.3111 45.3264 42.5984 43.6486C45.818 42.0053 48.2609 39.5097 48.2609 36.3979V23.446H48.2589ZM45.7609 28.6979C44.8682 29.5243 43.7862 30.2465 42.5984 30.8527C39.3111 32.5305 34.857 33.5315 30.0055 33.5315C25.1539 33.5315 20.6998 32.5305 17.4125 30.8527C16.2248 30.2465 15.1427 29.5243 14.25 28.6979V30C14.25 31.6817 15.6139 33.5258 18.549 35.0239C21.4165 36.4875 25.4651 37.4294 30.0055 37.4294C34.5458 37.4294 38.5944 36.4875 41.4619 35.0239C44.397 33.5258 45.7609 31.6817 45.7609 30V28.6979ZM45.7609 35.0958C44.8682 35.9222 43.7862 36.6444 42.5984 37.2507C39.3111 38.9284 34.857 39.9294 30.0055 39.9294C25.1539 39.9294 20.6998 38.9284 17.4125 37.2507C16.2248 36.6444 15.1427 35.9222 14.25 35.0958V36.3979C14.25 38.0796 15.6139 39.9238 18.549 41.4218C21.4165 42.8854 25.4651 43.8274 30.0055 43.8274C34.5458 43.8274 38.5944 42.8854 41.4619 41.4218C44.397 39.9238 45.7609 38.0796 45.7609 36.3979V35.0958Z" fill="currentColor"/>
</svg>
