<svg width="60" height="60" viewBox="0 0 60 60" fill="none" xmlns="http://www.w3.org/2000/svg">
<path fill-rule="evenodd" clip-rule="evenodd" d="M30 57.5C45.1878 57.5 57.5 45.1878 57.5 30C57.5 14.8122 45.1878 2.5 30 2.5C14.8122 2.5 2.5 14.8122 2.5 30C2.5 45.1878 14.8122 57.5 30 57.5ZM30 60C46.5685 60 60 46.5685 60 30C60 13.4315 46.5685 0 30 0C13.4315 0 0 13.4315 0 30C0 46.5685 13.4315 60 30 60ZM30 14.1928C21.2698 14.1928 14.1926 21.27 14.1926 30.0001C14.1926 38.7303 21.2698 45.8075 30 45.8075C38.7302 45.8075 45.8074 38.7303 45.8074 30.0001C45.8074 21.27 38.7302 14.1928 30 14.1928ZM11.6293 30.0001C11.6293 19.8543 19.8541 11.6294 30 11.6294C40.1459 11.6294 48.3708 19.8543 48.3708 30.0001C48.3708 40.146 40.1459 48.3709 30 48.3709C19.8541 48.3709 11.6293 40.146 11.6293 30.0001ZM30.6527 21.3054C28.4141 21.3054 26.7216 23.0036 26.7216 24.9519C26.7216 25.6423 26.1619 26.2019 25.4716 26.2019C24.7812 26.2019 24.2216 25.6423 24.2216 24.9519C24.2216 21.4917 27.1684 18.8054 30.6527 18.8054C34.137 18.8054 37.0839 21.4917 37.0839 24.9519C37.0839 26.4935 36.4892 27.8966 35.5234 28.9663C35.2334 29.2875 34.7816 29.6275 34.3968 29.9172L34.3957 29.918C34.3305 29.9671 34.2673 30.0147 34.207 30.0605C33.7276 30.4254 33.2268 30.8242 32.7643 31.3068C31.8645 32.2456 31.1165 33.4894 31.1474 35.3478C31.1589 36.0381 30.6087 36.607 29.9184 36.6185C29.2282 36.63 28.6593 36.0797 28.6478 35.3895C28.6031 32.7106 29.729 30.8607 30.9595 29.5769C31.5621 28.9481 32.1906 28.4534 32.693 28.0711C32.7755 28.0083 32.8518 27.9504 32.9224 27.8969L32.9227 27.8967C33.3358 27.5833 33.5519 27.4193 33.6679 27.2909C34.2462 26.6503 34.5839 25.8348 34.5839 24.9519C34.5839 23.0036 32.8913 21.3054 30.6527 21.3054ZM31.8259 40.1707C31.8259 41.1792 31.0084 41.9967 30 41.9967C28.9916 41.9967 28.1741 41.1792 28.1741 40.1707C28.1741 39.1622 28.9916 38.3447 30 38.3447C31.0084 38.3447 31.8259 39.1622 31.8259 40.1707Z" fill="currentColor"/>
</svg>
