<svg width="60" height="60" viewBox="0 0 60 60" fill="none" xmlns="http://www.w3.org/2000/svg">
<circle cx="30" cy="30" r="28.75" stroke="currentColor" stroke-width="2.5"/>
<path fill-rule="evenodd" clip-rule="evenodd" d="M28.7179 31.0681C28.7179 31.776 29.2917 32.3498 29.9995 32.3498C30.7074 32.3498 31.2812 31.776 31.2812 31.0681V15.5775L34.5393 18.184C35.092 18.6262 35.8986 18.5366 36.3407 17.9838C36.7829 17.4311 36.6933 16.6245 36.1406 16.1823L30.8002 11.91C30.3321 11.5355 29.667 11.5355 29.1989 11.91L23.8586 16.1823C23.3059 16.6245 23.2163 17.4311 23.6585 17.9838C24.1006 18.5366 24.9072 18.6262 25.4599 18.184L28.7179 15.5776V31.0681ZM27.4759 23.4499C27.554 24.1535 27.0469 24.7871 26.3434 24.8652C22.6695 25.2728 19.5379 26.2741 17.3659 27.5881C15.1527 28.927 14.1923 30.4132 14.1923 31.741C14.1923 33.2867 15.5118 35.0479 18.4789 36.4989C21.361 37.9083 25.4326 38.8163 29.9996 38.8163C34.5667 38.8163 38.6382 37.9083 41.5203 36.4989C44.4875 35.0479 45.807 33.2867 45.807 31.741C45.807 30.4132 44.8466 28.927 42.6333 27.5881C40.4613 26.2741 37.3298 25.2728 33.6558 24.8652C32.9523 24.7871 32.4452 24.1535 32.5233 23.4499C32.6014 22.7464 33.235 22.2394 33.9385 22.3174C37.8748 22.7542 41.389 23.8393 43.9602 25.3948C46.4901 26.9254 48.3703 29.0918 48.3703 31.741C48.3703 31.8017 48.3694 31.862 48.3674 31.9222H48.3704V37.7676C48.3704 41.0306 45.9634 43.7025 42.6972 45.4841C39.3825 47.2921 34.8908 48.3708 29.9997 48.3708C25.1085 48.3708 20.6168 47.2921 17.3022 45.4841C14.036 43.7025 11.629 41.0306 11.629 37.7676V31.9222H11.6318C11.6299 31.862 11.6289 31.8017 11.6289 31.741C11.6289 29.0918 13.5091 26.9254 16.039 25.3948C18.6102 23.8393 22.1244 22.7542 26.0607 22.3174C26.7642 22.2394 27.3978 22.7464 27.4759 23.4499ZM42.6464 38.8017C43.8248 38.2254 44.9077 37.536 45.807 36.7429V37.7676C45.807 39.6528 44.3885 41.6416 41.4697 43.2337C38.5993 44.7994 34.5465 45.8074 29.9997 45.8074C25.4529 45.8074 21.4 44.7994 18.5296 43.2337C15.6108 41.6416 14.1923 39.6528 14.1923 37.7676V36.743C15.0916 37.5361 16.1745 38.2254 17.3528 38.8017C20.6557 40.4169 25.1287 41.3797 29.9996 41.3797C34.8705 41.3797 39.3435 40.4169 42.6464 38.8017Z" fill="currentColor"/>
</svg>
