<svg width="60" height="60" viewBox="0 0 60 60" fill="none" xmlns="http://www.w3.org/2000/svg">
<circle cx="30" cy="30" r="28.75" stroke="currentColor" stroke-width="2.5"/>
<path fill-rule="evenodd" clip-rule="evenodd" d="M29.9996 10.6678C25.1248 10.6678 20.6481 11.6531 17.3427 13.3058C14.1883 14.883 11.7437 17.2743 11.6328 20.2804H11.6289V20.494V26.1259C11.6289 29.3888 14.0359 32.0607 17.3021 33.8422C20.3251 35.4912 24.327 36.5334 28.7182 36.7041V42.6382L25.46 40.0317C24.9072 39.5896 24.1007 39.6792 23.6585 40.2319C23.2163 40.7847 23.3059 41.5912 23.8587 42.0334L29.1992 46.3057C29.6673 46.6801 30.3324 46.6801 30.8005 46.3057L36.1408 42.0334C36.6935 41.5912 36.7832 40.7847 36.341 40.2319C35.8988 39.6792 35.0922 39.5896 34.5395 40.0318L31.2816 42.6381V36.7041C35.6725 36.5334 39.6743 35.4911 42.6972 33.8422C45.9634 32.0607 48.3704 29.3888 48.3704 26.1259V20.494V20.2804H48.3665C48.2556 17.2743 45.811 14.883 42.6566 13.3058C39.3512 11.6531 34.8745 10.6678 29.9996 10.6678ZM30.0252 34.1656C34.5616 34.1618 38.6047 33.1546 41.4697 31.5919C44.3885 29.9998 45.807 28.011 45.807 26.1259V25.5868C44.912 26.3918 43.8337 27.0937 42.6566 27.6823C39.3512 29.335 34.8745 30.3203 29.9996 30.3203C25.1248 30.3203 20.6481 29.335 17.3427 27.6823C16.1656 27.0937 15.0873 26.3918 14.1923 25.5868V26.1259C14.1923 28.011 15.6108 29.9998 18.5296 31.5919C21.3946 33.1547 25.4379 34.1618 29.9745 34.1656C29.9829 34.1654 29.9914 34.1653 29.9999 34.1653C30.0083 34.1653 30.0168 34.1654 30.0252 34.1656ZM45.807 20.494C45.807 18.8815 44.4665 17.0767 41.5102 15.5985C38.6306 14.1587 34.5628 13.2312 29.9996 13.2312C25.4365 13.2312 21.3686 14.1587 18.489 15.5985C15.5328 17.0767 14.1923 18.8815 14.1923 20.494C14.1923 22.1065 15.5328 23.9114 18.489 25.3896C21.3686 26.8294 25.4365 27.7569 29.9996 27.7569C34.5628 27.7569 38.6306 26.8294 41.5102 25.3896C44.4665 23.9114 45.807 22.1065 45.807 20.494ZM18.1222 48.264C18.1222 47.6741 18.6004 47.1959 19.1903 47.1959H41.2035C41.7934 47.1959 42.2715 47.6741 42.2715 48.264C42.2715 48.8539 41.7934 49.3321 41.2035 49.3321H19.1903C18.6004 49.3321 18.1222 48.8539 18.1222 48.264Z" fill="currentColor"/>
</svg>
