<svg width="48" height="48" viewBox="0 0 48 48" fill="none" xmlns="http://www.w3.org/2000/svg">
<path d="M28.2168 5.2C20.7001 5.2 14.4668 11.25 14.4668 18.95V19.5H15.2001H41.2335H41.9668V18.95C41.9668 11.4333 35.7335 5.2 28.2168 5.2Z" fill="#53CBC8"/>
<path d="M11.5332 22.525C11.5332 22.0694 11.9026 21.7 12.3582 21.7H44.4415C44.8972 21.7 45.2665 22.0694 45.2665 22.525C45.2665 22.9806 44.8972 23.35 44.4415 23.35H12.3582C11.9026 23.35 11.5332 22.9806 11.5332 22.525Z" fill="#E1147B"/>
<path d="M4.93359 26.3749C4.93359 25.9193 5.33009 25.5499 5.66686 25.5499H29.0969C29.4336 25.5499 29.8669 25.9193 29.8669 26.3749C29.8669 26.8305 29.4336 27.1999 29.0969 27.1999H5.66686C5.33009 27.1999 4.93359 26.8305 4.93359 26.3749Z" fill="#E1147B"/>
<circle cx="9.42485" cy="22.525" r="0.825" fill="#E1147B"/>
<ellipse cx="2.825" cy="26.3749" rx="0.825" ry="0.824998" fill="#E1147B"/>
<path d="M11.3499 30.2248C11.3499 29.7692 11.6771 29.3998 12.0807 29.3998H40.5023C40.906 29.3998 41.2332 29.7692 41.2332 30.2248C41.2332 30.6804 40.906 31.0498 40.5023 31.0498H12.0807C11.6771 31.0498 11.3499 30.6804 11.3499 30.2248Z" fill="#E1147B"/>
<path d="M21.25 34.0754C21.25 33.6197 21.5772 33.2504 21.9808 33.2504L45.2692 33.2502C45.6728 33.2502 46 33.6195 46 34.0752C46 34.5308 45.6728 34.9002 45.2692 34.9002L21.9808 34.9004C21.5772 34.9004 21.25 34.531 21.25 34.0754Z" fill="#E1147B"/>
<ellipse cx="9.2415" cy="30.2248" rx="0.825" ry="0.824996" fill="#E1147B"/>
<ellipse cx="4.47515" cy="34.0752" rx="0.825" ry="0.825001" fill="#E1147B"/>
<path d="M6.5835 34.0752C6.5835 33.6195 6.95286 33.2502 7.4085 33.2502H18.5918C19.0475 33.2502 19.4168 33.6195 19.4168 34.0752V34.0752C19.4168 34.5308 19.0475 34.9002 18.5918 34.9002H7.4085C6.95286 34.9002 6.5835 34.5308 6.5835 34.0752V34.0752Z" fill="#E1147B"/>
<ellipse cx="23.5418" cy="37.9251" rx="0.825" ry="0.824999" fill="#E1147B"/>
<path d="M25.6501 37.9251C25.6501 37.4695 26.026 37.1001 26.4895 37.1001H40.8524C41.316 37.1001 41.6918 37.4695 41.6918 37.9251C41.6918 38.3807 41.316 38.7501 40.8524 38.7501H26.4895C26.026 38.7501 25.6501 38.3807 25.6501 37.9251Z" fill="#E1147B"/>
<ellipse cx="14.7415" cy="41.775" rx="0.825" ry="0.825001" fill="#E1147B"/>
<path d="M16.8499 41.775C16.8499 41.3194 17.2257 40.95 17.6892 40.95H32.0521C32.5157 40.95 32.8915 41.3194 32.8915 41.775C32.8915 42.2306 32.5157 42.6 32.0521 42.6H17.6892C17.2257 42.6 16.8499 42.2306 16.8499 41.775Z" fill="#E1147B"/>
</svg>
