<svg width="33" height="36" viewBox="0 0 33 36" fill="none" xmlns="http://www.w3.org/2000/svg"><path d="M23.3917 12.5082C22.7314 7.86885 18.769 5 12.0261 5C5.19623 5 0.695148 7.98361 0.712527 12.8361C0.695148 16.6066 3.21506 19.0492 8.42867 20.0328L13.0514 20.9016C15.3802 21.3443 16.4403 22.1475 16.475 23.4098C16.4403 24.9016 14.7198 25.9672 12.1303 25.9672C9.48878 25.9672 7.73353 24.9016 7.28168 22.8525L0 23.2131C0.695148 28.0328 5.03983 31 12.113 31C19.0297 31 23.9826 27.6721 24 22.7049C23.9826 19.0656 21.4627 16.8852 16.2839 15.8852L11.4526 14.9672C8.96741 14.459 8.04634 13.6557 8.06372 12.4426C8.04634 10.9344 9.85373 9.95082 12.1477 9.95082C14.7198 9.95082 16.2491 11.2787 16.614 12.9016L23.3917 12.5082Z" fill="#111111"/><path d="M33 28C33 29.6569 31.6569 31 30 31C28.3431 31 27 29.6569 27 28C27 26.3431 28.3431 25 30 25C31.6569 25 33 26.3431 33 28Z" fill="#F22279"/></svg>
