<svg xmlns="http://www.w3.org/2000/svg" width="32" height="32" fill="none"><g clip-path="url(#a)"><mask id="b" width="32" height="32" x="0" y="0" maskUnits="userSpaceOnUse" style="mask-type:alpha"><circle cx="16" cy="16" r="16" fill="red"/></mask><g mask="url(#b)"><path fill="url(#c)" d="M0 0h32v32H0z"/></g><path fill="#fff" d="M27.2 16v.296c-1.828.29-5.752.967-7.683 1.707a2.625 2.625 0 0 0-1.505 1.491c-.74 1.922-1.425 5.87-1.716 7.706h-.592c-.29-1.837-.976-5.784-1.716-7.706a2.626 2.626 0 0 0-1.505-1.491c-1.93-.74-5.855-1.416-7.683-1.707v-.592c1.828-.29 5.752-.967 7.683-1.707a2.625 2.625 0 0 0 1.505-1.491c.74-1.922 1.425-5.87 1.716-7.706h.592c.29 1.837.976 5.784 1.716 7.706.268.685.82 1.232 1.505 1.492 1.93.739 5.855 1.415 7.683 1.706V16Z"/></g><defs><radialGradient id="c" cx="0" cy="0" r="1" gradientTransform="translate(.805 30.23) scale(36.8035)" gradientUnits="userSpaceOnUse"><stop offset=".053" stop-color="#D7D3E9"/><stop offset=".193" stop-color="#A19CDE"/><stop offset=".383" stop-color="#696BD9"/><stop offset=".54" stop-color="#3A5AE7"/><stop offset=".773" stop-color="#225FE7"/><stop offset="1" stop-color="#0883D1"/></radialGradient><clipPath id="a"><path fill="#fff" d="M0 0h32v32H0z"/></clipPath></defs></svg>
