<svg width="24" height="24" viewBox="0 0 24 24" fill="none" xmlns="http://www.w3.org/2000/svg">
<path d="M12 24C18.6274 24 24 18.6274 24 12C24 5.37258 18.6274 0 12 0C5.37258 0 0 5.37258 0 12C0 18.6274 5.37258 24 12 24Z" fill="#F0F0F0"/>
<path d="M2.48063 4.6941C1.53802 5.92049 0.82725 7.334 0.413391 8.86958H6.65611L2.48063 4.6941Z" fill="#0052B4"/>
<path d="M23.5866 8.86958C23.1727 7.33405 22.4619 5.92053 21.5194 4.69414L17.344 8.86958H23.5866Z" fill="#0052B4"/>
<path d="M0.413391 15.1304C0.827297 16.666 1.53806 18.0795 2.48063 19.3058L6.65597 15.1304H0.413391Z" fill="#0052B4"/>
<path d="M19.3058 2.48061C18.0795 1.538 16.666 0.827236 15.1304 0.41333V6.656L19.3058 2.48061Z" fill="#0052B4"/>
<path d="M4.69416 21.5193C5.92055 22.4619 7.33406 23.1726 8.86959 23.5865V17.3439L4.69416 21.5193Z" fill="#0052B4"/>
<path d="M8.86955 0.41333C7.33402 0.827236 5.9205 1.538 4.69416 2.48056L8.86955 6.65595V0.41333Z" fill="#0052B4"/>
<path d="M15.1305 23.5865C16.666 23.1726 18.0795 22.4619 19.3058 21.5193L15.1305 17.3439V23.5865Z" fill="#0052B4"/>
<path d="M17.344 15.1304L21.5194 19.3059C22.4619 18.0795 23.1727 16.666 23.5866 15.1304H17.344Z" fill="#0052B4"/>
<path d="M23.8984 10.4348H13.5653L13.5653 0.101578C13.0529 0.034875 12.5305 0 12 0C11.4694 0 10.9471 0.034875 10.4348 0.101578V10.4347L0.101578 10.4347C0.034875 10.9471 0 11.4695 0 12C0 12.5306 0.034875 13.0529 0.101578 13.5652H10.4347L10.4347 23.8984C10.9471 23.9651 11.4694 24 12 24C12.5305 24 13.0529 23.9652 13.5652 23.8984V13.5653L23.8984 13.5653C23.9651 13.0529 24 12.5306 24 12C24 11.4695 23.9651 10.9471 23.8984 10.4348Z" fill="#D80027"/>
<path d="M15.1305 15.1305L20.4853 20.4853C20.7315 20.2391 20.9665 19.9817 21.1906 19.7149L16.6062 15.1305L15.1305 15.1305Z" fill="#D80027"/>
<path d="M8.86955 15.1305L3.51469 20.4853C3.76087 20.7315 4.01827 20.9665 4.28508 21.1906L8.86955 16.6061V15.1305Z" fill="#D80027"/>
<path d="M8.86955 8.86964L3.51473 3.51469C3.26845 3.76087 3.03352 4.01827 2.80936 4.28508L7.39387 8.86959L8.86955 8.86964Z" fill="#D80027"/>
<path d="M15.1305 8.86964L20.4853 3.51473C20.2391 3.26845 19.9817 3.03352 19.7149 2.80941L15.1305 7.39392V8.86964Z" fill="#D80027"/>
</svg>
