<svg width="32" height="22" viewBox="0 0 32 22" fill="none" xmlns="http://www.w3.org/2000/svg"><g clip-path="url(#clip0_232_13690)"><g filter="url(#filter0_d_232_13690)"><g clip-path="url(#clip1_232_13690)"><path d="M0 0.000183105H32V21.3337H0V0.000183105Z" fill="white"/><path d="M18 0H14V8.66663H0V12.6666H14V21.3332H18V12.6666H32V8.66663H18V0Z" fill="#D80027"/><path d="M24.6116 14.3768L32 18.4815V14.3768H24.6116ZM19.4783 14.3768L32 21.3333V19.3661L23.0192 14.3768H19.4783ZM28.6646 21.3333L19.4783 16.2293V21.3333H28.6646Z" fill="#0052B4"/><path d="M19.4783 14.3768L32 21.3333V19.3661L23.0192 14.3768H19.4783Z" fill="white"/><path d="M19.4783 14.3768L32 21.3333V19.3661L23.0192 14.3768H19.4783Z" fill="#D80027"/><path d="M5.64631 14.3766L0 17.5135V14.3766H5.64631ZM12.5218 15.2613V21.3332H1.59319L12.5218 15.2613Z" fill="#0052B4"/><path d="M8.98081 14.3768L0 19.3661V21.3333L12.5218 14.3768H8.98081Z" fill="#D80027"/><path d="M7.38844 6.9565L0 2.85175V6.9565H7.38844ZM12.5218 6.9565L0 0V1.96713L8.98081 6.9565H12.5218ZM3.33538 0L12.5218 5.104V0H3.33538Z" fill="#0052B4"/><path d="M12.5218 6.9565L0 0V1.96713L8.98081 6.9565H12.5218Z" fill="white"/><path d="M12.5218 6.9565L0 0V1.96713L8.98081 6.9565H12.5218Z" fill="#D80027"/><path d="M26.3537 6.95662L32 3.81975V6.95662H26.3537ZM19.4783 6.072V6.10352e-05H30.4068L19.4783 6.072Z" fill="#0052B4"/><path d="M23.0192 6.9565L32 1.96713V0L19.4783 6.9565H23.0192Z" fill="#D80027"/></g></g></g><defs><filter id="filter0_d_232_13690" x="-25" y="-25" width="82" height="71.3337" color-interpolation-filters="sRGB"><feFlood flood-opacity="0" result="BackgroundImageFix"/><feColorMatrix in="SourceAlpha" values="0 0 0 0 0 0 0 0 0 0 0 0 0 0 0 0 0 0 127 0" result="hardAlpha"/><feOffset/><feGaussianBlur stdDeviation="12.5"/><feComposite in2="hardAlpha" operator="out"/><feColorMatrix values="0 0 0 0 0 0 0 0 0 0 0 0 0 0 0 0 0 0 0.05 0"/><feBlend in2="BackgroundImageFix" result="effect1_dropShadow_232_13690"/><feBlend in="SourceGraphic" in2="effect1_dropShadow_232_13690" result="shape"/></filter><clipPath id="clip0_232_13690"><path d="M0 4C0 1.79086 1.79086 0 4 0H28C30.2091 0 32 1.79086 32 4V17.3337C32 19.5429 30.2091 21.3337 28 21.3337H4C1.79086 21.3337 0 19.5429 0 17.3337V4Z" fill="white"/></clipPath><clipPath id="clip1_232_13690"><rect width="32" height="21.3337" rx="4" fill="white"/></clipPath></defs></svg>
