<svg width="32" height="22" viewBox="0 0 32 22" fill="none" xmlns="http://www.w3.org/2000/svg"><g clip-path="url(#clip0_232_13717)"><g filter="url(#filter0_d_232_13717)"><g clip-path="url(#clip1_232_13717)"><path d="M0 0V21.3332H32V0H0Z" fill="white"/><path d="M0 0.000183105H32V21.3337H0V0.000183105Z" fill="#0052B4"/><path d="M0 0.000183105H32V7.11112H0V0.000183105Z" fill="white"/><path d="M0 14.2221H32V21.333H0V14.2221Z" fill="#D80027"/></g></g></g><defs><filter id="filter0_d_232_13717" x="-25" y="-25" width="82" height="71.3337" color-interpolation-filters="sRGB"><feFlood flood-opacity="0" result="BackgroundImageFix"/><feColorMatrix in="SourceAlpha" values="0 0 0 0 0 0 0 0 0 0 0 0 0 0 0 0 0 0 127 0" result="hardAlpha"/><feOffset/><feGaussianBlur stdDeviation="12.5"/><feComposite in2="hardAlpha" operator="out"/><feColorMatrix values="0 0 0 0 0 0 0 0 0 0 0 0 0 0 0 0 0 0 0.05 0"/><feBlend in2="BackgroundImageFix" result="effect1_dropShadow_232_13717"/><feBlend in="SourceGraphic" in2="effect1_dropShadow_232_13717" result="shape"/></filter><clipPath id="clip0_232_13717"><path d="M0 4C0 1.79086 1.79086 0 4 0H28C30.2091 0 32 1.79086 32 4V17.3337C32 19.5429 30.2091 21.3337 28 21.3337H4C1.79086 21.3337 0 19.5429 0 17.3337V4Z" fill="white"/></clipPath><clipPath id="clip1_232_13717"><rect width="32" height="21.3337" rx="4" fill="white"/></clipPath></defs></svg>
