<svg width="24" height="24" viewBox="0 0 24 24" fill="none" xmlns="http://www.w3.org/2000/svg"><path d="M2 3.17647C2 2.52672 2.52672 2 3.17647 2H12.5882C13.238 2 13.7647 2.52672 13.7647 3.17647C13.7647 3.82621 13.238 4.35294 12.5882 4.35294H3.17647C2.52672 4.35294 2 3.82621 2 3.17647Z" fill="currentColor"/><path d="M3.17647 6.70587C3.17647 6.05613 3.70319 5.5294 4.35294 5.5294H13.7647C14.4145 5.5294 14.9412 6.05613 14.9412 6.70587C14.9412 7.35562 14.4145 7.88234 13.7647 7.88234H4.35294C3.70319 7.88234 3.17647 7.35562 3.17647 6.70587Z" fill="currentColor"/><path d="M5.52941 9.05881C4.87966 9.05881 4.35294 9.58553 4.35294 10.2353C4.35294 10.885 4.87966 11.4117 5.52941 11.4117H10.8562C11.9733 10.1636 13.528 9.31533 15.2792 9.10809C15.1721 9.07603 15.0587 9.05881 14.9412 9.05881H5.52941Z" fill="currentColor"/><path d="M9.05882 16.1176C9.05882 16.9426 9.20036 17.7346 9.46048 18.4706H3.17647C2.52672 18.4706 2 17.9438 2 17.2941C2 16.6443 2.52672 16.1176 3.17647 16.1176H9.05882Z" fill="currentColor"/><path d="M10.0032 12.5882C9.58981 13.3028 9.29812 14.0965 9.15642 14.9411H4.35294C3.70319 14.9411 3.17647 14.4144 3.17647 13.7647C3.17647 13.1149 3.70319 12.5882 4.35294 12.5882H10.0032Z" fill="currentColor"/><path fill-rule="evenodd" clip-rule="evenodd" d="M16.1176 19.6471C18.0669 19.6471 19.6471 18.0669 19.6471 16.1177C19.6471 14.1684 18.0669 12.5883 16.1176 12.5883C14.1684 12.5883 12.5882 14.1684 12.5882 16.1177C12.5882 18.0669 14.1684 19.6471 16.1176 19.6471ZM16.1176 22C19.3664 22 22 19.3664 22 16.1177C22 12.8689 19.3664 10.2353 16.1176 10.2353C12.8689 10.2353 10.2353 12.8689 10.2353 16.1177C10.2353 19.3664 12.8689 22 16.1176 22Z" fill="currentColor"/></svg>
