<svg width="24" height="24" viewBox="0 0 24 24" fill="none" xmlns="http://www.w3.org/2000/svg"><path fill-rule="evenodd" clip-rule="evenodd" d="M8.89906 6.43666C9.26839 6.35789 9.61617 6.19571 9.91392 5.96343C10.2913 5.94998 10.662 5.85066 10.9955 5.67361C11.3695 5.7259 11.7518 5.69246 12.111 5.57601C12.4703 5.69246 12.8526 5.7259 13.2266 5.67361C13.5601 5.85066 13.9308 5.94998 14.3082 5.96343C14.6059 6.19571 14.9537 6.35789 15.323 6.43666C15.5759 6.71712 15.8903 6.93723 16.2403 7.07894C16.4406 7.39905 16.712 7.6704 17.0321 7.87074C17.1738 8.22078 17.3939 8.53512 17.6744 8.788C17.7532 9.15733 17.9153 9.50512 18.1476 9.80286C18.1611 10.1803 18.2604 10.5509 18.4374 10.8845C18.3851 11.2585 18.4186 11.6408 18.535 12C18.4186 12.3592 18.3851 12.7415 18.4374 13.1155C18.2604 13.4491 18.1611 13.8197 18.1476 14.1971C17.9153 14.4949 17.7532 14.8427 17.6744 15.212C17.3939 15.4649 17.1738 15.7792 17.0321 16.1292C16.712 16.3296 16.4406 16.6009 16.2403 16.921C15.8903 17.0628 15.5759 17.2829 15.323 17.5633C14.9537 17.6421 14.6059 17.8043 14.3082 18.0366C13.9308 18.05 13.5601 18.1493 13.2266 18.3264C12.8526 18.2741 12.4703 18.3075 12.111 18.424C11.7518 18.3075 11.3695 18.2741 10.9955 18.3264C10.662 18.1493 10.2913 18.05 9.91392 18.0366C9.61617 17.8043 9.26839 17.6421 8.89906 17.5633C8.64617 17.2829 8.33183 17.0628 7.98179 16.921C7.78145 16.6009 7.51011 16.3296 7.18999 16.1292C7.04828 15.7792 6.82818 15.4649 6.54772 15.212C6.46894 14.8427 6.30677 14.4949 6.07448 14.1971C6.06104 13.8197 5.96172 13.4491 5.78466 13.1155C5.83696 12.7415 5.80351 12.3592 5.68707 12C5.80351 11.6408 5.83696 11.2585 5.78466 10.8845C5.96172 10.5509 6.06104 10.1803 6.07448 9.80286C6.30677 9.50512 6.46894 9.15733 6.54772 8.788C6.82818 8.53512 7.04828 8.22078 7.18999 7.87074C7.51011 7.6704 7.78145 7.39905 7.98179 7.07894C8.33183 6.93723 8.64617 6.71713 8.89906 6.43666ZM12.4953 3.50668C12.3023 3.25221 11.9198 3.25221 11.7268 3.50668C11.5545 3.73385 11.2238 3.76279 11.0146 3.56898C10.7804 3.35189 10.4036 3.41832 10.2578 3.70244C10.1275 3.95608 9.80687 4.042 9.56727 3.88746C9.29888 3.71434 8.93938 3.84519 8.84506 4.15032C8.76085 4.42272 8.45999 4.56302 8.19719 4.45243C7.90281 4.32855 7.5715 4.51983 7.53159 4.83671C7.49597 5.1196 7.22404 5.31 6.94603 5.24673C6.63461 5.17585 6.34155 5.42176 6.35727 5.74075C6.37131 6.02553 6.13658 6.26026 5.8518 6.24622C5.53281 6.23049 5.2869 6.52356 5.35778 6.83498C5.42106 7.11299 5.23065 7.38491 4.94776 7.42054C4.63089 7.46044 4.4396 7.79176 4.56348 8.08614C4.67407 8.34894 4.53378 8.6498 4.26138 8.734C3.95624 8.82833 3.82539 9.18783 3.99851 9.45622C4.15306 9.69582 4.06714 10.0165 3.8135 10.1467C3.52938 10.2926 3.46294 10.6693 3.68004 10.9036C3.87384 11.1127 3.84491 11.4434 3.61773 11.6157C3.36326 11.8087 3.36326 12.1913 3.61773 12.3843C3.84491 12.5566 3.87384 12.8873 3.68004 13.0964C3.46294 13.3307 3.52938 13.7074 3.8135 13.8533C4.06714 13.9835 4.15306 14.3042 3.99851 14.5438C3.82539 14.8122 3.95624 15.1717 4.26138 15.266C4.53378 15.3502 4.67407 15.6511 4.56348 15.9139C4.4396 16.2082 4.63089 16.5395 4.94776 16.5795C5.23065 16.6151 5.42106 16.887 5.35778 17.165C5.2869 17.4764 5.53281 17.7695 5.8518 17.7538C6.13658 17.7397 6.37131 17.9745 6.35727 18.2592C6.34155 18.5782 6.63461 18.8241 6.94603 18.7533C7.22404 18.69 7.49597 18.8804 7.53159 19.1633C7.5715 19.4802 7.90281 19.6714 8.19719 19.5476C8.45999 19.437 8.76085 19.5773 8.84506 19.8497C8.93938 20.1548 9.29888 20.2856 9.56727 20.1125C9.80687 19.958 10.1275 20.0439 10.2578 20.2975C10.4036 20.5817 10.7804 20.6481 11.0146 20.431C11.2238 20.2372 11.5545 20.2661 11.7268 20.4933C11.9198 20.7478 12.3023 20.7478 12.4953 20.4933C12.6676 20.2661 12.9983 20.2372 13.2075 20.431C13.4417 20.6481 13.8185 20.5817 13.9643 20.2975C14.0946 20.0439 14.4152 19.958 14.6548 20.1125C14.9232 20.2856 15.2827 20.1548 15.377 19.8497C15.4612 19.5773 15.7621 19.437 16.0249 19.5476C16.3193 19.6714 16.6506 19.4802 16.6905 19.1633C16.7261 18.8804 16.9981 18.69 17.2761 18.7533C17.5875 18.8241 17.8805 18.5782 17.8648 18.2592C17.8508 17.9745 18.0855 17.7397 18.3703 17.7538C18.6893 17.7695 18.9352 17.4764 18.8643 17.165C18.801 16.887 18.9914 16.6151 19.2743 16.5795C19.5912 16.5395 19.7825 16.2082 19.6586 15.9139C19.548 15.6511 19.6883 15.3502 19.9607 15.266C20.2659 15.1717 20.3967 14.8122 20.2236 14.5438C20.069 14.3042 20.155 13.9835 20.4086 13.8533C20.6927 13.7074 20.7592 13.3307 20.5421 13.0964C20.3483 12.8873 20.3772 12.5566 20.6044 12.3843C20.8588 12.1913 20.8588 11.8087 20.6044 11.6157C20.3772 11.4434 20.3483 11.1127 20.5421 10.9036C20.7592 10.6693 20.6927 10.2926 20.4086 10.1467C20.155 10.0165 20.069 9.69582 20.2236 9.45622C20.3967 9.18783 20.2659 8.82833 19.9607 8.734C19.6883 8.6498 19.548 8.34894 19.6586 8.08614C19.7825 7.79176 19.5912 7.46044 19.2743 7.42054C18.9914 7.38491 18.801 7.11299 18.8643 6.83498C18.9352 6.52356 18.6893 6.23049 18.3703 6.24622C18.0855 6.26026 17.8508 6.02553 17.8648 5.74075C17.8805 5.42176 17.5875 5.17585 17.2761 5.24673C16.9981 5.31 16.7261 5.1196 16.6905 4.83671C16.6506 4.51983 16.3193 4.32855 16.0249 4.45243C15.7621 4.56302 15.4612 4.42272 15.377 4.15032C15.2827 3.84519 14.9232 3.71434 14.6548 3.88746C14.4152 4.042 14.0946 3.95608 13.9643 3.70244C13.8185 3.41832 13.4417 3.35189 13.2075 3.56898C12.9983 3.76279 12.6676 3.73385 12.4953 3.50668Z" fill="currentColor"/><path d="M12.4966 16.6082C12.2421 16.6292 11.9801 16.6292 11.7256 16.6082C11.6226 16.5998 11.5313 16.6766 11.5228 16.7801C11.5142 16.8835 11.5912 16.9743 11.6946 16.9829C11.8321 16.9943 11.9723 17 12.1111 17C12.2499 17 12.39 16.9943 12.5275 16.9829C12.631 16.9743 12.7079 16.8835 12.6994 16.7801C12.6909 16.6766 12.5999 16.5998 12.4966 16.6082Z" fill="currentColor"/><path d="M17.094 11.5833C17.0854 11.4798 16.9939 11.4032 16.8912 11.4114C16.7877 11.42 16.7108 11.5108 16.7193 11.6143C16.7299 11.7415 16.7352 11.8713 16.7352 12C16.7352 12.1285 16.7299 12.2582 16.7194 12.3855C16.7108 12.489 16.7877 12.5798 16.8912 12.5883C16.8965 12.5888 16.9017 12.589 16.9069 12.589C17.0037 12.589 17.0859 12.5147 17.094 12.4165C17.1054 12.2789 17.1111 12.1388 17.1111 12C17.1111 11.861 17.1054 11.7208 17.094 11.5833Z" fill="currentColor"/><path d="M11.7255 7.39169C11.9804 7.37066 12.2418 7.37066 12.4967 7.39169C12.5019 7.39212 12.5071 7.39234 12.5123 7.39234C12.6091 7.39234 12.6913 7.31801 12.6994 7.21981C12.708 7.11635 12.631 7.02557 12.5276 7.01702C12.2523 6.99432 11.97 6.99432 11.6947 7.01702C11.5912 7.02555 11.5142 7.11635 11.5228 7.21981C11.5313 7.32327 11.6224 7.40006 11.7255 7.39169Z" fill="currentColor"/><path d="M7.50283 12.3855C7.49233 12.2582 7.48699 12.1285 7.48699 12C7.48699 11.8714 7.49233 11.7417 7.50283 11.6145C7.51138 11.511 7.43443 11.4202 7.33097 11.4116C7.22789 11.4034 7.13671 11.48 7.12817 11.5835C7.11679 11.721 7.11105 11.8611 7.11105 12C7.11105 12.1388 7.11679 12.2789 7.12817 12.4164C7.13626 12.5146 7.21849 12.5889 7.31529 12.5889C7.32047 12.5889 7.32571 12.5887 7.33097 12.5883C7.43441 12.5798 7.51138 12.489 7.50283 12.3855Z" fill="currentColor"/><path d="M9.12515 15.5311C9.02763 15.4485 8.93217 15.3605 8.84136 15.2697C8.75051 15.1789 8.66257 15.0834 8.57996 14.9859C8.51286 14.9067 8.39424 14.8969 8.31504 14.964C8.23584 15.0312 8.22605 15.1498 8.29316 15.229C8.38244 15.3343 8.47743 15.4374 8.57552 15.5355C8.67359 15.6336 8.77673 15.7286 8.88207 15.8179C8.9174 15.8478 8.96056 15.8625 9.00352 15.8625C9.05685 15.8625 9.10984 15.8399 9.14703 15.796C9.21412 15.7169 9.20432 15.5982 9.12515 15.5311Z" fill="currentColor"/><path d="M15.9073 14.9638C15.8281 14.8967 15.7094 14.9065 15.6424 14.9857C15.5598 15.0832 15.4718 15.1788 15.3808 15.2697C15.29 15.3606 15.1945 15.4485 15.097 15.5311C15.0178 15.5982 15.008 15.7169 15.0752 15.796C15.1123 15.8399 15.1653 15.8625 15.2187 15.8625C15.2616 15.8625 15.3048 15.8479 15.3401 15.8179C15.4454 15.7287 15.5486 15.6336 15.6467 15.5355C15.7449 15.4373 15.84 15.3341 15.9292 15.2288C15.9963 15.1496 15.9865 15.031 15.9073 14.9638Z" fill="currentColor"/><path d="M15.097 8.46879C15.1945 8.5514 15.29 8.63937 15.3808 8.7302C15.4717 8.82105 15.5596 8.91657 15.6423 9.01403C15.6794 9.05789 15.7324 9.08045 15.7858 9.08045C15.8287 9.08045 15.8719 9.06581 15.9072 9.03586C15.9864 8.96875 15.9962 8.85012 15.9291 8.77093C15.8398 8.66561 15.7448 8.56248 15.6467 8.46436C15.5486 8.36623 15.4454 8.27122 15.3401 8.18197C15.2609 8.11488 15.1423 8.12463 15.0752 8.20385C15.008 8.28308 15.0178 8.40167 15.097 8.46879Z" fill="currentColor"/><path d="M8.31499 9.03589C8.35033 9.06584 8.39349 9.08048 8.43645 9.08048C8.48978 9.08048 8.54276 9.05792 8.57996 9.01406C8.66259 8.91657 8.75054 8.82108 8.84139 8.73022C8.93219 8.63942 9.02768 8.55147 9.12518 8.46882C9.20435 8.4017 9.21415 8.28308 9.14703 8.20388C9.07986 8.1247 8.96126 8.11493 8.88209 8.18202C8.77675 8.27132 8.67362 8.36631 8.57555 8.46441C8.47745 8.5625 8.38246 8.66566 8.29316 8.77095C8.22602 8.85015 8.23582 8.96877 8.31499 9.03589Z" fill="currentColor"/><path d="M14.2308 16.1099C14.1171 16.1684 13.9993 16.2229 13.8807 16.2721C13.762 16.3212 13.6401 16.366 13.5184 16.405C13.4196 16.4367 13.3651 16.5425 13.3968 16.6414C13.4224 16.7212 13.4963 16.772 13.5758 16.772C13.5948 16.772 13.6142 16.7691 13.6333 16.763C13.7647 16.7208 13.8964 16.6725 14.0245 16.6194C14.1527 16.5663 14.2799 16.5074 14.4027 16.4443C14.495 16.3968 14.5314 16.2834 14.4839 16.1911C14.4364 16.0988 14.323 16.0624 14.2308 16.1099Z" fill="currentColor"/><path d="M16.3832 10.2304C16.4324 10.3493 16.4771 10.4712 16.5161 10.5926C16.5417 10.6724 16.6156 10.7233 16.6951 10.7233C16.7141 10.7233 16.7334 10.7204 16.7525 10.7143C16.8514 10.6825 16.9058 10.5767 16.8741 10.4779C16.832 10.3466 16.7837 10.2149 16.7306 10.0866C16.6775 9.95853 16.6185 9.83121 16.5553 9.70815C16.5078 9.61582 16.3945 9.57953 16.3022 9.62695C16.2098 9.67442 16.1735 9.78775 16.221 9.88008C16.2795 9.99397 16.3341 10.1119 16.3832 10.2304Z" fill="currentColor"/><path d="M9.90556 7.91087C9.93448 7.91087 9.96386 7.90415 9.99137 7.89002C10.1051 7.83154 10.2229 7.77698 10.3415 7.72783C10.4603 7.67866 10.5822 7.63392 10.7038 7.59492C10.8026 7.56322 10.8571 7.45738 10.8254 7.35853C10.7937 7.25966 10.6878 7.20525 10.589 7.23695C10.4575 7.27911 10.3259 7.3274 10.1977 7.38051C10.0695 7.4336 9.9423 7.49254 9.81947 7.55568C9.72714 7.60315 9.69077 7.71648 9.73826 7.80881C9.77157 7.87362 9.83736 7.91087 9.90556 7.91087Z" fill="currentColor"/><path d="M7.839 13.7695C7.78983 13.6508 7.74511 13.5289 7.70607 13.4073C7.67434 13.3084 7.56845 13.254 7.46965 13.2857C7.3708 13.3174 7.31636 13.4232 7.34807 13.5221C7.39025 13.6535 7.43852 13.7852 7.49163 13.9134C7.54471 14.0415 7.60366 14.1688 7.66679 14.2916C7.70013 14.3564 7.76592 14.3936 7.83411 14.3936C7.86306 14.3936 7.89243 14.3869 7.91993 14.3728C8.01226 14.3253 8.04863 14.2119 8.00113 14.1196C7.94271 14.006 7.88812 13.8882 7.839 13.7695Z" fill="currentColor"/><path d="M10.7038 16.405C10.5821 16.3659 10.4602 16.3212 10.3415 16.2721C10.2229 16.2229 10.1051 16.1684 9.99142 16.1099C9.89917 16.0625 9.78578 16.0988 9.73826 16.1911C9.69077 16.2834 9.72714 16.3967 9.81944 16.4442C9.94225 16.5074 10.0695 16.5663 10.1976 16.6194C10.3258 16.6725 10.4574 16.7208 10.5889 16.7629C10.608 16.7691 10.6273 16.772 10.6464 16.772C10.7259 16.772 10.7997 16.7211 10.8253 16.6414C10.857 16.5425 10.8026 16.4367 10.7038 16.405Z" fill="currentColor"/><path d="M16.7526 13.2855C16.6538 13.2538 16.5479 13.3082 16.5162 13.407C16.477 13.5291 16.4323 13.651 16.3832 13.7695C16.334 13.8882 16.2794 14.006 16.221 14.1196C16.1735 14.212 16.2099 14.3253 16.3022 14.3728C16.3297 14.3869 16.3591 14.3936 16.388 14.3936C16.4562 14.3936 16.522 14.3564 16.5553 14.2916C16.6185 14.1688 16.6774 14.0415 16.7305 13.9134C16.7835 13.7855 16.8318 13.6537 16.8741 13.5219C16.9059 13.423 16.8515 13.3172 16.7526 13.2855Z" fill="currentColor"/><path d="M13.5184 7.59492C13.6401 7.63395 13.7619 7.67866 13.8807 7.72783C13.9993 7.77698 14.1171 7.83154 14.2308 7.89002C14.2583 7.90415 14.2877 7.91087 14.3166 7.91087C14.3848 7.91087 14.4506 7.87365 14.4839 7.80881C14.5314 7.71648 14.495 7.60315 14.4027 7.55568C14.2799 7.49252 14.1527 7.4336 14.0245 7.38051C13.8963 7.3274 13.7647 7.27911 13.6332 7.23695C13.5345 7.20527 13.4285 7.25968 13.3968 7.35853C13.3651 7.45738 13.4195 7.56324 13.5184 7.59492Z" fill="currentColor"/><path d="M7.91993 9.62712C7.82765 9.57968 7.71431 9.616 7.66679 9.70833C7.60363 9.83116 7.54471 9.9584 7.49163 10.0865C7.43847 10.2149 7.39015 10.3466 7.34807 10.4778C7.31636 10.5767 7.3708 10.6825 7.46967 10.7142C7.48877 10.7203 7.50809 10.7232 7.52712 10.7232C7.60662 10.7232 7.68048 10.6724 7.70607 10.5926C7.74504 10.4711 7.78975 10.3493 7.839 10.2304C7.88812 10.1117 7.94268 9.99392 8.00116 9.88026C8.04862 9.78795 8.01226 9.67462 7.91993 9.62712Z" fill="currentColor"/><path fill-rule="evenodd" clip-rule="evenodd" d="M12.111 18C15.4248 18 18.111 15.3137 18.111 12C18.111 8.68629 15.4248 5.99999 12.111 5.99999C8.79734 5.99999 6.11105 8.68629 6.11105 12C6.11105 15.3137 8.79734 18 12.111 18ZM12.111 19C15.977 19 19.111 15.866 19.111 12C19.111 8.134 15.977 4.99999 12.111 4.99999C8.24505 4.99999 5.11105 8.134 5.11105 12C5.11105 15.866 8.24505 19 12.111 19Z" fill="currentColor"/></svg>
