<svg width="24" height="24" viewBox="0 0 24 24" fill="none" xmlns="http://www.w3.org/2000/svg"><path fill-rule="evenodd" clip-rule="evenodd" d="M13.9648 20C14.537 20 15 19.5244 15 18.9375L14.9994 18.0046C14.9994 16.1467 13.5329 14.6406 11.7238 14.6406H10.8783C10.4394 14.6406 10.0835 14.2752 10.0835 13.8244C10.0835 13.6569 10.1495 13.4967 10.2656 13.3794C10.5417 13.1028 10.7932 12.7731 11.0137 12.4113C11.1857 12.1288 11.3389 11.8268 11.4701 11.515C11.5278 11.5588 11.5894 11.5909 11.6583 11.5942L11.6699 11.5945C12.145 11.5945 12.7026 10.517 12.7026 9.78217C12.7026 9.12634 12.65 8.58155 12.3005 8.47201C12.2584 8.45882 12.212 8.45194 12.1609 8.45194C12.105 8.45194 12.0448 8.46171 11.9845 8.47734C11.979 8.15059 11.9612 7.81056 11.9222 7.47041C11.7236 5.73681 10.9748 4 8.49905 4C5.91553 4 5.2396 5.73376 5.06737 7.46524C5.03358 7.80489 5.01918 8.14445 5.01356 8.47083L4.99985 8.46811C4.96109 8.4604 4.92181 8.45259 4.88607 8.45259C4.8435 8.45259 4.80421 8.45737 4.76797 8.4666C4.39969 8.56041 4.34501 9.11385 4.34501 9.78283C4.34501 10.5176 4.90256 11.5951 5.37765 11.5951C5.40423 11.5951 5.43002 11.5916 5.45501 11.585C5.48491 11.577 5.51367 11.5645 5.5413 11.5482C5.67326 11.8582 5.82685 12.158 5.99909 12.4378C6.21597 12.7902 6.46242 13.111 6.73252 13.3807C6.84923 13.498 6.91456 13.6582 6.91456 13.8257C6.91456 14.2765 6.55872 14.6419 6.11978 14.6419H5.27553C3.4665 14.6406 2 16.1467 2 18.0046V18.9375C2 19.5238 2.46304 20 3.03454 20H13.9648ZM11.7238 15.6406C12.9556 15.6406 13.9994 16.6737 13.9994 18.0046L14 18.9378C13.9999 18.964 13.9905 18.9809 13.9806 18.9911C13.9756 18.9962 13.9698 18.9992 13.9698 18.9992L13.9682 18.9997L13.9648 19H3.03454C3.03198 19 3.03051 18.9994 3.03051 18.9994C3.03051 18.9994 3.02472 18.9964 3.01957 18.9911C3.00931 18.9806 3 18.9634 3 18.9375V18.0046C3 16.6736 4.04446 15.641 5.27553 15.6419H6.11978C7.13597 15.6419 7.91456 14.8034 7.91456 13.8257C7.91456 13.3989 7.74805 12.9835 7.44128 12.6753L7.4392 12.6732C7.06482 12.2993 6.72135 11.7672 6.4614 11.1565L6.01473 10.1073L5.51727 10.4011C5.47089 10.3054 5.43003 10.2003 5.39944 10.0956C5.35888 9.95677 5.34501 9.84824 5.34501 9.78283C5.34501 9.70053 5.34593 9.62495 5.34799 9.55558L5.99286 9.6822L6.01342 8.48804C6.03034 7.50461 6.13398 6.60813 6.48527 5.97326C6.64855 5.67816 6.85994 5.451 7.14562 5.29038C7.43562 5.12733 7.86106 5 8.49905 5C9.09695 5 9.50584 5.12432 9.7928 5.28804C10.0782 5.45087 10.298 5.68395 10.4714 5.98751C10.8384 6.63026 10.9685 7.53724 10.9847 8.49422L11.0061 9.76431L11.7004 9.58418C11.7019 9.64541 11.7026 9.71129 11.7026 9.78217C11.7026 9.84759 11.6887 9.95612 11.6481 10.095C11.6249 10.1744 11.5958 10.2541 11.5628 10.3297L11.0485 9.93896L10.5484 11.1271C10.2871 11.7479 9.93868 12.2914 9.55782 12.673L9.5549 12.6759C9.25222 12.9817 9.08353 13.3953 9.08353 13.8244C9.08353 14.8021 9.86212 15.6406 10.8783 15.6406H11.7238Z" fill="currentColor"/><path d="M12.5364 7.39848C12.4566 6.42524 12.2663 5.6389 12 5L21.2286 5.00069C21.6545 5.00069 22 5.37517 22 5.83687V7.16382C22 7.62552 21.6545 8 21.2286 8H13.0019C12.8806 7.74319 12.7337 7.53 12.5364 7.39848Z" fill="currentColor"/><path d="M12.0335 12.8574C12.0221 12.8846 12.0106 12.9118 12 12.9409V14H21.2568C21.6671 14 22 13.5005 22 12.8855V11.1154C22 10.4995 21.6671 10 21.2568 10H13.5117C13.3019 11.1921 12.7832 12.4386 12.0677 12.7719C12.057 12.8015 12.0453 12.8294 12.0335 12.8574Z" fill="currentColor"/><path d="M15.6516 19V18.4503C15.6516 17.5481 15.4099 16.7097 15 16H21.2336C21.6568 16 22 16.3746 22 16.8364V18.1636C22 18.6254 21.6568 19 21.2336 19H15.6516Z" fill="currentColor"/></svg>
