<svg width="24" height="24" viewBox="0 0 24 24" fill="none" xmlns="http://www.w3.org/2000/svg"><path d="M14.5961 6.17163L15.29 6.35874C15.5403 6.42617 15.7482 6.59344 15.8754 6.82957C16.0026 7.06572 16.0337 7.34217 15.9628 7.60786L14.8143 11.9195C14.7644 12.107 14.6476 12.2575 14.4991 12.3492C14.3506 12.4409 14.1704 12.4737 13.9937 12.4261C13.6404 12.3308 13.435 11.9495 13.5349 11.5745L14.5869 7.62505L14.2342 7.52994L13.8533 8.95995C13.818 9.09243 13.7358 9.20419 13.6218 9.27453C13.5455 9.32165 13.4613 9.34572 13.3765 9.34677C13.219 10.0811 13.0358 10.844 12.8305 11.6146C11.881 15.1789 10.6724 18.1444 9.86383 18.9446L9.3515 19.8552C9.31548 19.9194 9.27979 19.9626 9.24543 19.9838C9.22598 19.9958 9.2086 19.9999 9.19393 20H20.5C20.7761 20 21 20.2239 21 20.5C21 20.7761 20.7761 21 20.5 21H3.5C3.22386 21 3 20.7761 3 20.5C3 20.2239 3.22386 20 3.5 20H9.19393C9.17657 19.9999 9.16224 19.9941 9.15374 19.9891C9.10955 19.9627 9.08854 19.8958 9.08952 19.7845L9.09846 18.7425C8.76716 17.5728 9.30865 14.1423 10.173 10.8979C10.3783 10.1268 10.5989 9.3741 10.8274 8.65919C10.6421 8.54846 10.5454 8.31475 10.6067 8.08439L11.5916 4.3874C11.6269 4.25492 11.7091 4.14312 11.823 4.07278C11.937 4.00242 12.0685 3.98224 12.1933 4.01589L14.5017 4.63839C14.7603 4.70815 14.9113 4.98833 14.8381 5.26296L14.5961 6.17163Z" fill="currentColor"/></svg>
