<svg width="24" height="24" viewBox="0 0 24 24" fill="none" xmlns="http://www.w3.org/2000/svg"><path fill-rule="evenodd" clip-rule="evenodd" d="M8 9C8 10.1046 8.89543 11 10 11H14C15.1046 11 16 10.1046 16 9V5C16 3.89543 15.1046 3 14 3H10C8.89543 3 8 3.89543 8 5V9ZM12 5C10.8954 5 10 5.89543 10 7C10 8.10457 10.8954 9 12 9C13.1046 9 14 8.10457 14 7C14 5.89543 13.1046 5 12 5Z" fill="currentColor"/><path fill-rule="evenodd" clip-rule="evenodd" d="M13 19C13 20.1046 13.8954 21 15 21H19C20.1046 21 21 20.1046 21 19V15C21 13.8954 20.1046 13 19 13H15C13.8954 13 13 13.8954 13 15V19ZM15 17C15 17.2209 15.1791 17.4 15.4 17.4H16.6V18.6C16.6 18.8209 16.7791 19 17 19C17.2209 19 17.4 18.8209 17.4 18.6V17.4H18.6C18.8209 17.4 19 17.2209 19 17C19 16.7791 18.8209 16.6 18.6 16.6H17.4V15.4C17.4 15.1791 17.2209 15 17 15C16.7791 15 16.6 15.1791 16.6 15.4V16.6L15.4 16.6C15.1791 16.6 15 16.7791 15 17Z" fill="currentColor"/><path fill-rule="evenodd" clip-rule="evenodd" d="M3 19C3 20.1046 3.89543 21 5 21H9C10.1046 21 11 20.1046 11 19V15C11 13.8954 10.1046 13 9 13H5C3.89543 13 3 13.8954 3 15V19ZM9.27077 15.8924L7.0844 18.0788C6.8541 18.3091 6.4807 18.3091 6.25039 18.0788L5.2085 17.0369C5.09335 16.9218 5.09335 16.7351 5.2085 16.6199C5.32366 16.5048 5.51036 16.5048 5.62551 16.6199L6.6343 17.6287L8.82068 15.4423C8.94497 15.3181 9.14648 15.3181 9.27077 15.4423C9.39507 15.5666 9.39507 15.7682 9.27077 15.8924Z" fill="currentColor"/></svg>
