<svg width="24" height="24" viewBox="0 0 24 24" fill="none" xmlns="http://www.w3.org/2000/svg"><path fill-rule="evenodd" clip-rule="evenodd" d="M20.5092 13.4116L19.4474 12.8028C19.476 12.5389 19.4911 12.2712 19.4911 12C19.4911 11.7289 19.476 11.4611 19.4474 11.1972L20.5092 10.5884C20.736 10.4583 20.8983 10.2481 20.9662 9.99662C21.034 9.7452 20.9991 9.48256 20.8681 9.25715L18.8255 5.74288C18.6508 5.44213 18.3248 5.25539 17.9749 5.25539C17.8036 5.25539 17.6344 5.30064 17.4854 5.38609L16.4206 5.99676C15.9877 5.68147 15.5199 5.41125 15.0238 5.19299V3.97455C15.0238 3.43718 14.5837 3 14.0428 3H9.95737C9.41638 3 8.97624 3.43718 8.97624 3.97455V5.19299C8.48013 5.41125 8.01225 5.68153 7.5795 5.99682L6.51471 5.38621C6.36568 5.3007 6.19642 5.25545 6.02517 5.25545C5.67523 5.25545 5.3493 5.4422 5.17452 5.74294L3.13189 9.25715C3.00086 9.4825 2.96604 9.7452 3.03382 9.99662C3.10172 10.2481 3.26397 10.4582 3.49083 10.5884L4.55258 11.1972C4.52397 11.4611 4.50889 11.7288 4.50889 12C4.50889 12.2712 4.52397 12.539 4.55258 12.8028L3.49083 13.4116C3.26397 13.5417 3.10172 13.7518 3.03382 14.0034C2.96604 14.2548 3.00086 14.5175 3.13189 14.7428L5.17445 18.2571C5.34924 18.5579 5.67516 18.7446 6.02511 18.7446C6.19636 18.7446 6.36556 18.6994 6.51465 18.6139L7.57944 18.0032C8.01225 18.3185 8.48006 18.5888 8.97618 18.807V20.0255C8.97618 20.2858 9.07822 20.5305 9.26362 20.7145C9.4489 20.8986 9.69531 21 9.95731 21H14.0427C14.5836 21 15.0238 20.5629 15.0238 20.0255V18.807C15.5199 18.5887 15.9878 18.3185 16.4205 18.0032L17.4854 18.6138C17.6344 18.6994 17.8036 18.7446 17.9749 18.7446C18.3248 18.7446 18.6508 18.5578 18.8255 18.2571L20.8681 14.7428C20.9991 14.5174 21.034 14.2547 20.9662 14.0033C20.8983 13.7518 20.7361 13.5417 20.5092 13.4116ZM12 16C14.2091 16 16 14.2091 16 12C16 9.79086 14.2091 8 12 8C9.79086 8 8 9.79086 8 12C8 14.2091 9.79086 16 12 16Z" fill="currentColor"/></svg>
