<svg width="24" height="24" viewBox="0 0 24 24" fill="none" xmlns="http://www.w3.org/2000/svg"><path fill-rule="evenodd" clip-rule="evenodd" d="M20.2749 12.8919L21.4546 13.5685C21.7068 13.713 21.887 13.9465 21.9624 14.2259C22.0377 14.5053 21.999 14.7972 21.8535 15.0475L19.5839 18.9523C19.3897 19.2865 19.0276 19.4939 18.6388 19.4939C18.4485 19.4939 18.2604 19.4437 18.0948 19.3487L16.9117 18.6703C16.4308 19.0206 15.911 19.3208 15.3598 19.5633V20.9172C15.3598 21.5143 14.8707 22 14.2697 22H9.73034C9.43924 22 9.16544 21.8873 8.95958 21.6828C8.75358 21.4783 8.6402 21.2065 8.6402 20.9172V19.5633C8.08896 19.3208 7.56917 19.0206 7.08827 18.6703L5.90516 19.3488C5.73951 19.4438 5.55151 19.494 5.36123 19.494C4.9724 19.494 4.61027 19.2865 4.41606 18.9524L2.14654 15.0476C2.00095 14.7972 1.96226 14.5053 2.03757 14.226C2.11302 13.9465 2.2933 13.713 2.54537 13.5685L3.72509 12.8919C3.6933 12.5989 3.67654 12.3014 3.67654 12C3.67654 11.6987 3.6933 11.4012 3.72509 11.1081L2.54537 10.4315C2.2933 10.2869 2.11302 10.0534 2.03757 9.77402C1.96226 9.49467 2.00095 9.20277 2.14654 8.95239L4.41613 5.04771C4.61034 4.71355 4.97247 4.50605 5.3613 4.50605C5.55158 4.50605 5.73965 4.55634 5.90523 4.65135L7.08834 5.32981C7.56917 4.97948 8.08903 4.67916 8.64027 4.43666V3.08283C8.64027 2.48576 9.12931 2 9.73041 2H14.2697C14.8708 2 15.3598 2.48576 15.3598 3.08283V4.43666C15.911 4.67916 16.4308 4.97941 16.9117 5.32974L18.0948 4.65121C18.2605 4.55627 18.4485 4.50599 18.6388 4.50599C19.0276 4.50599 19.3897 4.71348 19.5839 5.04764L21.8535 8.95239C21.999 9.20284 22.0377 9.49467 21.9624 9.77402C21.887 10.0534 21.7067 10.287 21.4546 10.4315L20.2749 11.1081C20.3067 11.4012 20.3235 11.6988 20.3235 12C20.3235 12.3013 20.3067 12.5988 20.2749 12.8919ZM12 17.8927C15.3137 17.8927 18 15.2244 18 11.933C18 8.64147 15.3137 5.97318 12 5.97318C8.68629 5.97318 6 8.64147 6 11.933C6 15.2244 8.68629 17.8927 12 17.8927Z" fill="currentColor"/></svg>
