<svg width="24" height="24" viewBox="0 0 24 24" fill="none" xmlns="http://www.w3.org/2000/svg"><path d="M12 16.4968C7.66778 16.4968 4.05291 14.875 3.19558 12.7177C3.06832 13.0351 3 13.3648 3 13.7028C3 16.3344 7.02947 18.4682 12 18.4682C16.9699 18.4682 21 16.3344 21 13.7028C21 13.3648 20.9303 13.0351 20.8051 12.7171C19.9451 14.875 16.3302 16.4968 12 16.4968Z" fill="currentColor"/><path d="M12 20.0292C7.66778 20.0292 4.05291 18.4089 3.19558 16.2488C3.06832 16.5675 3 16.8972 3 17.2345C3 19.8668 7.02947 22 12 22C16.9699 22 21 19.8668 21 17.2345C21 16.8972 20.9303 16.5675 20.8051 16.2488C19.9451 18.4096 16.3302 20.0292 12 20.0292Z" fill="currentColor"/><path d="M20 6.76547C20 7.4986 19.4175 8.4212 17.906 9.22158C17.5957 9.38586 17.2571 9.53821 16.8936 9.67626C16.9629 10.0159 16.9995 10.3678 17 10.7285C19.412 9.87357 21 8.41772 21 6.76547C21 4.13357 16.9706 2 12 2C7.02944 2 3 4.13357 3 6.76547C3 8.41772 4.58803 9.87357 7.00001 10.7285C7.00048 10.3678 7.0371 10.0159 7.10635 9.67626C6.74288 9.53821 6.40431 9.38586 6.09404 9.22158C4.58245 8.4212 4 7.4986 4 6.76547C4 6.03233 4.58245 5.10974 6.09404 4.30936C7.55402 3.5363 9.64054 3.02771 12 3.02771C14.3595 3.02771 16.446 3.5363 17.906 4.30936C19.4175 5.10974 20 6.03233 20 6.76547Z" fill="currentColor"/><path d="M7.25371 12.356C5.2061 11.6813 3.7081 10.5829 3.19558 9.29246C3.06832 9.61048 3 9.93951 3 10.2768C3 12.3276 5.4459 14.0763 8.87713 14.7488C8.13186 14.1355 7.56113 13.3075 7.25371 12.356Z" fill="currentColor"/><path d="M16.7465 12.3555C16.4391 13.3072 15.8683 14.1353 15.123 14.7487C18.5539 14.0762 21 12.3275 21 10.2768C21 9.93951 20.9303 9.61048 20.8051 9.29246C20.2911 10.5826 18.7931 11.6807 16.7465 12.3555Z" fill="currentColor"/><path fill-rule="evenodd" clip-rule="evenodd" d="M12 14.8464C14.2091 14.8464 16 13.0059 16 10.7355C16 8.46519 14.2091 6.6247 12 6.6247C9.79086 6.6247 8 8.46519 8 10.7355C8 13.0059 9.79086 14.8464 12 14.8464ZM12 15.8741C14.7614 15.8741 17 13.5735 17 10.7355C17 7.8976 14.7614 5.59699 12 5.59699C9.23858 5.59699 7 7.8976 7 10.7355C7 13.5735 9.23858 15.8741 12 15.8741Z" fill="currentColor"/><path fill-rule="evenodd" clip-rule="evenodd" d="M12.6667 8.68012H11.3333V10.0504H10V11.4207H11.3333V12.791H12.6667V11.4207H14V10.0504H12.6667V8.68012Z" fill="currentColor"/></svg>
