<svg width="24" height="24" viewBox="0 0 24 24" fill="none" xmlns="http://www.w3.org/2000/svg"><path d="M15.2001 3.32139V5.57141C15.2001 5.86606 15.1517 6.1389 15.0549 6.39006C14.9582 6.64123 14.8416 6.85214 14.7049 7.02288C14.5681 7.19365 14.3798 7.36439 14.1399 7.53516C13.8998 7.7059 13.688 7.84153 13.5048 7.94197C13.2243 8.09549 13.2344 8.50959 13.5254 8.64215C14.0471 8.87982 14.4993 9.10413 14.882 9.31509C15.2681 9.528 15.7527 9.52749 16.082 9.2342C17.2006 8.23797 17.7599 7.01704 17.7599 5.57138L17.7599 3.32139C17.7599 3.22759 17.73 3.15054 17.6699 3.09035C17.61 3.03022 17.5334 3 17.44 3L15.5199 3C15.4265 3 15.35 3.03008 15.29 3.09035C15.23 3.15068 15.2001 3.22773 15.2001 3.32139Z" fill="currentColor"/><path d="M11.0394 16.4642C11.0394 16.5446 11.0063 16.625 10.9397 16.7055L7.74979 19.9094C7.6899 19.9699 7.61329 20 7.51991 20C7.42643 20 7.34997 19.9699 7.28979 19.9097L4.08988 16.6953C4.02995 16.6353 4 16.5583 4 16.4644C4 16.3775 4.03163 16.3021 4.09496 16.2385C4.15825 16.1749 4.23327 16.1432 4.31993 16.1432L5.5719 16.1432C5.94089 16.1432 6.23154 15.8443 6.22493 15.4754C6.22181 15.2881 6.22493 15.0436 6.23498 14.7424C6.24507 14.4411 6.26185 14.2033 6.2851 14.0292C6.30812 13.8551 6.34335 13.6408 6.38987 13.3864C6.43659 13.132 6.49824 12.9213 6.57491 12.7535C6.65165 12.5859 6.74661 12.3918 6.85999 12.1707C6.97312 11.9498 7.10664 11.7522 7.25984 11.5781C7.41326 11.4041 7.59161 11.2198 7.7949 11.0257C7.8373 10.9852 7.88094 10.945 7.92581 10.905C8.25012 10.6164 8.72681 10.6175 9.10801 10.8253C9.49423 11.0358 9.94983 11.2607 10.4748 11.5C10.7661 11.6328 10.7758 12.0469 10.495 12.2009C10.3116 12.3013 10.0998 12.437 9.8598 12.6078C9.61969 12.7785 9.43129 12.9494 9.29465 13.12C9.15788 13.2907 9.04127 13.5016 8.94464 13.7528C8.84782 14.004 8.79938 14.2768 8.79938 14.5715C8.79938 15.4394 9.50296 16.143 10.3709 16.143H10.7196C10.8129 16.143 10.8896 16.1731 10.9495 16.2333C11.0095 16.2934 11.0394 16.3705 11.0394 16.4642Z" fill="currentColor"/><path d="M13.2099 12.0403C13.5165 12.201 13.7748 12.3518 13.9849 12.4925C14.1949 12.6329 14.3999 12.8038 14.5998 13.0046C14.7999 13.2057 14.95 13.4366 15.0499 13.6979C15.1499 13.9589 15.2 14.2501 15.2 14.5717V15.2229C15.2 16.2833 14.3403 17.143 13.2799 17.143C13.1932 17.143 13.1182 17.1747 13.0549 17.2383C12.9916 17.3019 12.9599 17.3773 12.9599 17.4642C12.9599 17.5581 12.9898 17.6351 13.0499 17.6951L16.2498 20.9095C16.3099 20.9699 16.3865 21 16.4798 21C16.5732 21 16.6498 20.9699 16.7101 20.9095L19.9002 17.7052C19.9668 17.625 20 17.5444 20 17.4642C20 17.3703 19.9701 17.2934 19.91 17.233C19.85 17.1731 19.7734 17.1429 19.68 17.1429C18.6197 17.1429 17.7601 16.2834 17.7601 15.223V14.5717C17.7601 14.1162 17.705 13.6877 17.595 13.2858C17.485 12.884 17.3451 12.5273 17.175 12.216C17.005 11.9046 16.7767 11.6033 16.49 11.3119C16.2034 11.0206 15.9266 10.7728 15.6599 10.5687L14.66 9.92582C14.26 9.70157 13.9099 9.52074 13.61 9.38346C13.3099 9.24614 12.9399 9.08044 12.4999 8.88627L10.7898 8.10277C10.4832 7.94209 10.2248 7.7913 10.0148 7.65078C9.80481 7.5102 9.59984 7.33932 9.39987 7.13846C9.1997 6.93754 9.04965 6.7065 8.94965 6.44534C8.84968 6.18426 8.79959 5.89288 8.79959 5.5715V4.32154C8.79959 4.22774 8.76986 4.1507 8.70972 4.0905C8.64979 4.03037 8.57329 4.00015 8.47984 4.00015L6.5596 4.00015C6.46633 4.00015 6.38962 4.03048 6.32948 4.09075C6.26952 4.15105 6.23957 4.22813 6.23957 4.32179V5.57181C6.23957 6.02728 6.2947 6.45576 6.40475 6.85761C6.51481 7.25938 6.6548 7.61606 6.82475 7.92735C6.99484 8.23881 7.22321 8.54011 7.50993 8.83142C7.79641 9.12266 8.07329 9.37055 8.33984 9.57474L9.33977 10.2176C9.73991 10.4418 10.0899 10.6227 10.3898 10.7599C10.6898 10.8971 11.0598 11.0628 11.4999 11.257L13.2099 12.0403Z" fill="currentColor"/></svg>
