<svg width="24" height="24" viewBox="0 0 24 24" fill="none" xmlns="http://www.w3.org/2000/svg"><path d="M16 13.0938C15.4477 13.0938 15 13.5363 15 14.0821C15 14.6279 15.4477 15.0703 16 15.0703C16.5523 15.0703 17 14.6279 17 14.0821C17 13.5363 16.5523 13.0938 16 13.0938Z" fill="currentColor"/><path fill-rule="evenodd" clip-rule="evenodd" d="M19 5.96615V7.16413C20.6569 7.16413 22 8.49153 22 10.129V18.0352C22 19.6726 20.6569 21 19 21H5C3.34315 21 2 19.6726 2 18.0352V8.52404C2 7.14821 2.95774 5.95315 4.31288 5.63803L15.3129 3.08014C17.196 2.64224 19 4.05428 19 5.96615ZM17 5.96615C17 5.32886 16.3987 4.85818 15.771 5.00415L6.48213 7.16413H17V5.96615ZM6 9.14068C4.89543 9.14068 4 10.0256 4 11.1172V17.0469C4 18.1385 4.89543 19.0234 6 19.0234H18C19.1046 19.0234 20 18.1385 20 17.0469V16C19.4696 16 18.9609 15.7893 18.5858 15.4142C18.2107 15.0391 18 14.5304 18 14C18 13.4696 18.2107 12.9609 18.5858 12.5858C18.9609 12.2107 19.4696 12 20 12V11.1172C20 10.0256 19.1046 9.14068 18 9.14068H6Z" fill="currentColor"/></svg>
