<?xml version="1.0" standalone="no"?>
<!DOCTYPE svg PUBLIC "-//W3C//DTD SVG 20010904//EN"
 "http://www.w3.org/TR/2001/REC-SVG-20010904/DTD/svg10.dtd">
<svg version="1.0" xmlns="http://www.w3.org/2000/svg"
 width="256.000000pt" height="256.000000pt" viewBox="0 0 256.000000 256.000000"
 preserveAspectRatio="xMidYMid meet">
<metadata>
Created by potrace 1.14, written by Peter Selinger 2001-2017
</metadata>
<g transform="translate(0.000000,256.000000) scale(0.100000,-0.100000)"
fill="#000000" stroke="none">
<path d="M472 2548 c-177 -22 -334 -133 -411 -290 -57 -115 -59 -158 -57
-1018 2 -739 3 -778 22 -846 11 -39 35 -97 54 -128 46 -77 144 -167 222 -205
119 -58 158 -60 1018 -57 739 2 778 3 846 22 39 11 97 35 128 54 77 46 167
144 205 222 57 115 59 157 57 1018 -2 695 -4 782 -19 839 -24 88 -61 154 -128
226 -70 74 -150 123 -243 149 -68 19 -107 20 -846 22 -426 1 -808 -3 -848 -8z"/>
</g>
</svg>
