<svg xmlns="http://www.w3.org/2000/svg" width="300" height="300" shape-rendering="geometricPrecision" text-rendering="geometricPrecision"><defs><linearGradient id="b" x1="220.9967" x2="145.3826" y1="218.9456" y2="147.02" gradientUnits="userSpaceOnUse" spreadMethod="pad"><stop offset="0%" stop-color="#c6b8d8"/><stop offset="51.55%" stop-color="#f8c9f8"/><stop offset="100%" stop-color="#dae6ff"/></linearGradient><linearGradient id="c" x1="93.6651" x2="218.0424" y1="90.8494" y2="224.9258" gradientUnits="userSpaceOnUse" spreadMethod="pad"><stop offset="0%" stop-color="#e4efff"/><stop offset="48%" stop-color="#f8f8f8"/><stop offset="100%" stop-color="#f0d2ec"/></linearGradient><linearGradient id="f" x1=".66844" x2=".3957" y1=".46852" y2=".90803" gradientUnits="objectBoundingBox" spreadMethod="pad"><stop offset="0%" stop-color="#ff0042"/><stop offset="31%" stop-color="#ff0073"/><stop offset="74%" stop-color="#b10de7"/><stop offset="100%" stop-color="#0035ff"/></linearGradient><linearGradient id="h" x1=".66844" x2=".3957" y1=".46852" y2=".90803" gradientUnits="objectBoundingBox" spreadMethod="pad"><stop offset="0%" stop-color="#ff0042"/><stop offset="31%" stop-color="#ff0073"/><stop offset="74%" stop-color="#b10de7"/><stop offset="100%" stop-color="#0035ff"/></linearGradient><linearGradient id="j" x1=".63558" x2=".19816" y1="1.14296" y2=".2527" gradientUnits="objectBoundingBox" spreadMethod="pad"><stop offset="0%" stop-color="#ff0073"/><stop offset="53%" stop-color="#b10de7"/><stop offset="100%" stop-color="#0035ff"/></linearGradient><linearGradient id="l" x1=".21559" x2=".56049" y1=".55802" y2=".1969" gradientUnits="objectBoundingBox" spreadMethod="pad"><stop offset="0%" stop-color="#f80d77"/><stop offset="51%" stop-color="#c000ff"/><stop offset="100%" stop-color="#0035ff"/></linearGradient><linearGradient id="n" x1="90.992" x2="192.9935" y1="168.4075" y2="135.7668" gradientUnits="userSpaceOnUse" spreadMethod="pad"><stop offset="0%" stop-color="#0031bd"/><stop offset="27.08%" stop-color="#454aff"/><stop offset="42.19%" stop-color="#9e0df3"/><stop offset="64.06%" stop-color="#e901c5"/><stop offset="100%" stop-color="#ff0b4f"/></linearGradient><linearGradient id="o" x1="90.992" x2="192.9935" y1="168.4075" y2="135.7668" gradientUnits="userSpaceOnUse" spreadMethod="pad"><stop offset="0%" stop-color="#0031bd"/><stop offset="27.08%" stop-color="#454aff"/><stop offset="42.19%" stop-color="#9e0df3"/><stop offset="64.06%" stop-color="#e901c5"/><stop offset="100%" stop-color="#ff0b4f"/></linearGradient><filter id="a" width="400%" height="400%" x="-150%" y="-150%"><feGaussianBlur in="SourceAlpha" stdDeviation="0,0"/><feOffset result="tmp"/><feFlood flood-color="rgba(0,0,0,0.4)"/><feComposite in2="tmp" operator="in"/><feMerge result="result"><feMergeNode/><feMergeNode in="SourceGraphic"/></feMerge><feGaussianBlur in="result" stdDeviation="2,2"/><feOffset dy="5" result="tmp"/><feFlood flood-color="#9170d1"/><feComposite in2="tmp" operator="in"/><feMerge result="result"><feMergeNode/><feMergeNode in="result"/></feMerge></filter><filter id="d" width="400%" height="400%" x="-150%" y="-150%"><feGaussianBlur in="SourceAlpha" stdDeviation="1,1"/><feOffset dy="1" result="tmp"/><feFlood flood-color="#3a0864"/><feComposite in2="tmp" operator="in"/><feMerge result="result"><feMergeNode/><feMergeNode in="SourceGraphic"/></feMerge><feGaussianBlur in="result" stdDeviation="2,2"/><feOffset dy="3" result="tmp"/><feFlood flood-color="#c33fec"/><feComposite in2="tmp" operator="in"/><feMerge result="result"><feMergeNode/><feMergeNode in="result"/></feMerge></filter><filter id="g" width="400%" height="400%" x="-150%" y="-150%"><feGaussianBlur result="result" stdDeviation="5,5"/></filter><filter id="i" width="400%" height="400%" x="-150%" y="-150%"><feGaussianBlur result="result" stdDeviation="5,5"/></filter><filter id="k" width="400%" height="400%" x="-150%" y="-150%"><feGaussianBlur result="result" stdDeviation="5,5"/></filter><filter id="m" width="400%" height="400%" x="-150%" y="-150%"><feGaussianBlur result="result" stdDeviation="10,10"/></filter></defs><g filter="url(#a)" transform="translate(0 -1)"><path fill="url(#b)" d="M103.2 70.5H194c18.9 0 34.2 15.3 34.2 34.2v90.8c0 18.9-15.3 34.2-34.2 34.2h-90.8c-18.9 0-34.2-15.3-34.2-34.2v-90.8c0-18.9 15.3-34.2 34.2-34.2Z"/><path fill="url(#c)" d="M103.2 228.2c-18 0-32.7-14.7-32.7-32.7v-90.8c0-18 14.7-32.7 32.7-32.7H194c18 0 32.7 14.7 32.7 32.7v90.8c0 18-14.7 32.7-32.7 32.7h-90.8Z"/></g><g filter="url(#d)" transform="translate(0 -1)"><g mask="url(#e)"><path fill="url(#f)" d="M59.40157 85.51055q34.39843-26.08944 70.69843 0C166.4 111.6 112.1763 124.839 203.37924 155.9q91.20294 31.06101 5.12376 48.3-55.33661-51-115.2846-30.9T59.40156 85.51055Z" filter="url(#g)" transform="rotate(-1.174 -553.54923 189.43412)"/><path fill="url(#h)" d="M59.40157 85.51055q34.39843-26.08944 70.69843 0C166.4 111.6 112.1763 124.839 203.37924 155.9q91.20294 31.06101 5.12376 48.3-55.33661-51-115.2846-30.9T59.40156 85.51055Z" filter="url(#i)" transform="rotate(-1.174 -553.54923 189.43412)"/><path fill="url(#j)" d="M59.40157 85.51055q34.39843-26.08944 70.69843 0C166.4 111.6 112.1763 124.839 203.37924 155.9q91.20294 31.06101 5.12376 48.3-74.77523 17.82548-127.88279-14.17583T59.40157 85.51055Z" filter="url(#k)" transform="rotate(-27.915 40.84272 185.0798)"/><path fill="url(#l)" d="M59.40157 85.51055q15.95848-56.7345 52.25848-30.64505c36.3 26.08945-3.77674 4.52578 87.4262 35.5868q91.20294 31.061 9.41675 113.7477-20.90352-10.07211-44.08496-23.82855T59.40157 85.51055Z" filter="url(#m)" transform="rotate(154.273 151.55807 147.46692)"/><mask id="e" width="400%" height="400%" x="-150%" y="-150%"><path fill="url(#n)" d="M145.6 164.4s-.1 0 0 0c-1.5-.5-1.8-2.3-.6-3.2l26.9-20.5c.1-.1.2-.1.3 0 .2.1.3.3.1.5L147.4 164c-.5.5-1.2.7-1.8.4ZM113.1 151c.8.7 1.7 1 2.7.7l50.5-12.3c.5-.1.5-.8.1-1h-.3l-51.5 7.7c-2.4.2-3.3 3.2-1.5 4.9Zm59.9-22.8-16.8-33.8c-.3-.7-1-1.1-1.8-1.2h-.1c-1.7-.1-2.9 1.8-1.9 3.3l19.8 32.1c0 .1.1.1.2.2.4.1.8-.3.6-.6Zm-5.3-2.5-26.9-31.1c-.5-.6-1.4-1-2.2-.9h-.1c-2.1.3-3 2.9-1.5 4.3l29.7 28.5c.1.1.2.1.3.2.7.3 1.2-.5.7-1Zm2.4 14.1h-.3l-38.2 16.1c-1.9.8-1.8 3.6.2 4.2h.1c.6.2 1.2.1 1.7-.2l36.5-19.5c.3-.1.3-.5 0-.6Zm-13.4-17.3L123 99.1c-.9-.6-2.1-.7-3.1-.2h-.1c-2.1 1.1-2.1 4.1 0 5.2l35.7 20.2c.1.1.3.1.4.1h.1c1.2.3 1.7-1.2.7-1.9Zm19 7.2-7.1-33.4c-.2-.7-.7-1.3-1.5-1.4-1.4-.3-2.6 1-2.2 2.4l10.2 32.6c0 .1.1.2.2.2.2.1.5-.1.4-.4Zm-2.3 11.8-19 24c-.7.9-.3 2.3.8 2.7.7.2 1.5-.1 1.9-.7l16.7-25.6c.1-.1 0-.3-.1-.4-.1-.1-.2-.1-.3 0Zm-3 61.7c.1 0 .1 0 0 0 1.2-.4 1.9-1.4 2-2.6l4.3-57.5c0-.1-.1-.2-.2-.3-.2-.1-.4 0-.4.2l-9.5 56.9c-.4 2.3 1.7 4 3.8 3.3Zm7.5-59 4.1 47.7c.2 2.2 2.9 3.1 4.4 1.5v-.1c.5-.6.8-1.4.6-2.2l-8.4-47c0-.1-.1-.2-.2-.2-.2-.1-.5.1-.5.3Zm-.3-46.3c-1.1-.4-2.4.5-2.3 1.7l1.6 31.1c0 .1.1.2.2.2.2.1.4 0 .4-.2l1.3-31.1c0-.8-.5-1.4-1.2-1.7Zm3.8 48c-.4-.3-.9.1-.7.5l9.9 28.4c.6 1.8 3.3 1.6 3.6-.4v-.1c0-.3 0-.7-.2-1l-12.5-27.4c0 .1-.1 0-.1 0ZM154 134.3c-.1-.1-.2-.1-.3-.1l-47.1-4.9c-2.1-.2-3.8 1.6-3.5 3.7v.1c.3 1.6 1.6 2.7 3.1 2.7l47.4.5c1.3.1 1.6-1.6.4-2Zm-11.5-10.5-32.9-12.2c-1.6-.6-3.4.2-4.1 1.7v.1c-.9 1.8.2 4 2.1 4.5l33.9 9.1c.5.1 1 0 1.4-.3 1.1-.7.9-2.4-.4-2.9Zm32.3 18.4-26.7 60.1c-1 2.2.7 4.7 3.1 4.6h.1c1.3-.1 2.5-1 2.9-2.2l21-62.2c0-.1 0-.3-.1-.3-.1-.1-.3-.1-.3 0Zm-47 32.1-22.5 17.1c-2.4 1.8-2.1 5.5.6 6.9h.1c1.5.8 3.4.6 4.7-.6l20.8-19.1c1.7-1.6.9-4.5-1.4-4.9h-.1c-.7-.1-1.5.1-2.2.6Zm18.8 1.1-19.3 24.5c-1.7 2.2-.4 5.5 2.3 5.9h.1c1.4.2 2.8-.4 3.6-1.6l17-26.1c.9-1.4 0-3.3-1.7-3.5-.8-.1-1.5.2-2 .8Zm33.7-49c.5-1.8 5.5-18.1 6.9-22.8.2-.7-.1-1.5-.8-1.8-.9-.5-2.1.1-2.3 1.1l-4.7 23.3c-.1.4.4.7.7.5.1-.1.1-.2.2-.3Zm13.9 34.5c0-.3-.1-.5-.2-.7l-8.7-12.1-.2-.2c-.4-.2-.8.3-.6.7l7.6 12.8c.5 1 2.1.6 2.1-.5Z"/></mask></g><path fill="url(#o)" d="M145.6 164.4s-.1 0 0 0c-1.5-.5-1.8-2.3-.6-3.2l26.9-20.5c.1-.1.2-.1.3 0 .2.1.3.3.1.5L147.4 164c-.5.5-1.2.7-1.8.4ZM113.1 151c.8.7 1.7 1 2.7.7l50.5-12.3c.5-.1.5-.8.1-1h-.3l-51.5 7.7c-2.4.2-3.3 3.2-1.5 4.9Zm59.9-22.8-16.8-33.8c-.3-.7-1-1.1-1.8-1.2h-.1c-1.7-.1-2.9 1.8-1.9 3.3l19.8 32.1c0 .1.1.1.2.2.4.1.8-.3.6-.6Zm-5.3-2.5-26.9-31.1c-.5-.6-1.4-1-2.2-.9h-.1c-2.1.3-3 2.9-1.5 4.3l29.7 28.5c.1.1.2.1.3.2.7.3 1.2-.5.7-1Zm2.4 14.1h-.3l-38.2 16.1c-1.9.8-1.8 3.6.2 4.2h.1c.6.2 1.2.1 1.7-.2l36.5-19.5c.3-.1.3-.5 0-.6Zm-13.4-17.3L123 99.1c-.9-.6-2.1-.7-3.1-.2h-.1c-2.1 1.1-2.1 4.1 0 5.2l35.7 20.2c.1.1.3.1.4.1h.1c1.2.3 1.7-1.2.7-1.9Zm19 7.2-7.1-33.4c-.2-.7-.7-1.3-1.5-1.4-1.4-.3-2.6 1-2.2 2.4l10.2 32.6c0 .1.1.2.2.2.2.1.5-.1.4-.4Zm-2.3 11.8-19 24c-.7.9-.3 2.3.8 2.7.7.2 1.5-.1 1.9-.7l16.7-25.6c.1-.1 0-.3-.1-.4-.1-.1-.2-.1-.3 0Zm-3 61.7c.1 0 .1 0 0 0 1.2-.4 1.9-1.4 2-2.6l4.3-57.5c0-.1-.1-.2-.2-.3-.2-.1-.4 0-.4.2l-9.5 56.9c-.4 2.3 1.7 4 3.8 3.3Zm7.5-59 4.1 47.7c.2 2.2 2.9 3.1 4.4 1.5v-.1c.5-.6.8-1.4.6-2.2l-8.4-47c0-.1-.1-.2-.2-.2-.2-.1-.5.1-.5.3Zm-.3-46.3c-1.1-.4-2.4.5-2.3 1.7l1.6 31.1c0 .1.1.2.2.2.2.1.4 0 .4-.2l1.3-31.1c0-.8-.5-1.4-1.2-1.7Zm3.8 48c-.4-.3-.9.1-.7.5l9.9 28.4c.6 1.8 3.3 1.6 3.6-.4v-.1c0-.3 0-.7-.2-1l-12.5-27.4c0 .1-.1 0-.1 0ZM154 134.3c-.1-.1-.2-.1-.3-.1l-47.1-4.9c-2.1-.2-3.8 1.6-3.5 3.7v.1c.3 1.6 1.6 2.7 3.1 2.7l47.4.5c1.3.1 1.6-1.6.4-2Zm-11.5-10.5-32.9-12.2c-1.6-.6-3.4.2-4.1 1.7v.1c-.9 1.8.2 4 2.1 4.5l33.9 9.1c.5.1 1 0 1.4-.3 1.1-.7.9-2.4-.4-2.9Zm32.3 18.4-26.7 60.1c-1 2.2.7 4.7 3.1 4.6h.1c1.3-.1 2.5-1 2.9-2.2l21-62.2c0-.1 0-.3-.1-.3-.1-.1-.3-.1-.3 0Zm-47 32.1-22.5 17.1c-2.4 1.8-2.1 5.5.6 6.9h.1c1.5.8 3.4.6 4.7-.6l20.8-19.1c1.7-1.6.9-4.5-1.4-4.9h-.1c-.7-.1-1.5.1-2.2.6Zm18.8 1.1-19.3 24.5c-1.7 2.2-.4 5.5 2.3 5.9h.1c1.4.2 2.8-.4 3.6-1.6l17-26.1c.9-1.4 0-3.3-1.7-3.5-.8-.1-1.5.2-2 .8Zm33.7-49c.5-1.8 5.5-18.1 6.9-22.8.2-.7-.1-1.5-.8-1.8-.9-.5-2.1.1-2.3 1.1l-4.7 23.3c-.1.4.4.7.7.5.1-.1.1-.2.2-.3Zm13.9 34.5c0-.3-.1-.5-.2-.7l-8.7-12.1-.2-.2c-.4-.2-.8.3-.6.7l7.6 12.8c.5 1 2.1.6 2.1-.5Z"/></g></svg>
