<svg width="24" height="24" viewBox="0 0 24 24" fill="none" xmlns="http://www.w3.org/2000/svg">
<path d="M14.6472 2.90595C14.9156 3.26166 14.9156 3.7564 14.6472 4.11212L12.7467 6.63053C12.4192 7.06453 11.8078 7.14634 11.3811 6.81326C10.9543 6.48019 10.8739 5.85835 11.2014 5.42436L11.5087 5.01715C10.4511 5.09156 9.42188 5.40546 8.5 5.93771C7.43586 6.55209 6.5522 7.43575 5.93782 8.49989C5.32344 9.56402 5 10.7711 5 11.9999C5 13.2286 5.32344 14.4358 5.93782 15.4999C6.07589 15.739 5.99395 16.0448 5.75481 16.1829C5.51566 16.321 5.20987 16.239 5.07179 15.9999C4.36965 14.7837 4 13.4042 4 11.9999C4 10.5956 4.36965 9.21604 5.07179 7.99989C5.77394 6.78373 6.78384 5.77383 8 5.07168C9.18899 4.38522 10.5342 4.01657 11.9059 4.00044L11.8928 3.00053C10.35 3.01891 8.8372 3.43362 7.5 4.20566C6.13183 4.99557 4.99569 6.13171 4.20577 7.49989C3.41586 8.86806 3 10.4201 3 11.9999C3 13.5797 3.41586 15.1317 4.20577 16.4999C4.34384 16.739 4.26191 17.0448 4.02276 17.1829C3.78361 17.321 3.47782 17.239 3.33975 16.9999C2.46206 15.4797 2 13.7553 2 11.9999C2 10.2445 2.46206 8.52008 3.33975 6.99989C4.21743 5.4797 5.47981 4.21732 7 3.33963C8.38042 2.54265 9.92925 2.08837 11.5167 2.01157L11.2014 1.5937C10.8739 1.15971 10.9543 0.537874 11.3811 0.204799C11.8078 -0.128277 12.4192 -0.0464638 12.7467 0.387531L14.6472 2.90595Z" fill="currentColor"/>
<path d="M21.5 11.5C21.7762 11.5 22 11.7239 22 12C22 13.7554 21.538 15.4798 20.6603 17C19.7826 18.5202 18.5202 19.7826 17 20.6603C15.4798 21.5379 13.7554 22 12 22C10.9722 22 9.95488 21.8416 8.983 21.534L9.09274 21.8051C9.29675 22.3091 9.05811 22.8889 8.55971 23.1002C8.06131 23.3114 7.49189 23.0742 7.28788 22.5702L6.10399 19.6457C5.93677 19.2327 6.06482 18.7548 6.41617 18.4806L8.90368 16.5399C9.33235 16.2055 9.94412 16.2847 10.2701 16.7169C10.5961 17.149 10.5129 17.7705 10.0842 18.105L9.51929 18.5457C10.309 18.845 11.1493 19 12 19C13.2288 19 14.4359 18.6766 15.5 18.0622C16.5642 17.4478 17.4478 16.5641 18.0622 15.5C18.6766 14.4359 19 13.2288 19 12C19 11.7239 19.2239 11.5 19.5 11.5C19.7762 11.5 20 11.7239 20 12C20 13.4043 19.6304 14.7838 18.9282 16C18.2261 17.2162 17.2162 18.2261 16 18.9282C14.7839 19.6303 13.4043 20 12 20C10.97 20 9.95331 19.8011 9.00463 19.4181L8.75654 20.3952C9.78751 20.7935 10.8869 21 12 21C13.5799 21 15.1319 20.5841 16.5 19.7942C17.8682 19.0043 19.0044 17.8682 19.7943 16.5C20.5842 15.1318 21 13.5798 21 12C21 11.7239 21.2239 11.5 21.5 11.5Z" fill="currentColor"/>
<path d="M19.6741 7.92025C20.1087 7.48091 20.1087 6.7686 19.6741 6.32926C19.2394 5.88992 18.5348 5.88992 18.1001 6.32926L12.6345 11.8867L10.4646 9.69322C10.03 9.25388 9.32529 9.25388 8.89067 9.69322C8.45604 10.1326 8.45604 10.8449 8.89067 11.2842L11.8476 14.2732C12.2822 14.7125 12.9869 14.7125 13.4215 14.2732L19.6741 7.92025Z" fill="currentColor"/>
</svg>
