<svg width="24" height="24" viewBox="0 0 24 24" fill="none" xmlns="http://www.w3.org/2000/svg">
<path fill-rule="evenodd" clip-rule="evenodd" d="M7.05025 5.05025C8.36301 3.7375 10.1435 3 12 3C13.8565 3 15.637 3.7375 16.9497 5.05025C18.2625 6.36301 19 8.14348 19 10H18C18 9.21207 17.8448 8.43185 17.5433 7.7039C17.2417 6.97595 16.7998 6.31451 16.2426 5.75736C15.6855 5.20021 15.0241 4.75825 14.2961 4.45672C13.5681 4.15519 12.7879 4 12 4C11.2121 4 10.4319 4.15519 9.7039 4.45672C8.97595 4.75825 8.31451 5.20021 7.75736 5.75736C7.20021 6.31451 6.75825 6.97595 6.45672 7.7039C6.15519 8.43185 6 9.21207 6 10H3C2.44772 10 2 10.4477 2 11C2 11.5523 2.44772 12 3 12H21C21.5523 12 22 11.5523 22 11C22 10.4477 21.5523 10 21 10H20C20 7.87827 19.1571 5.84344 17.6569 4.34315C16.1566 2.84285 14.1217 2 12 2C9.87827 2 7.84344 2.84285 6.34315 4.34315C4.84286 5.84344 4 7.87827 4 10L5 10C5 8.14348 5.7375 6.36301 7.05025 5.05025ZM16.6194 8.08658C16.8707 8.69321 17 9.34339 17 10H7C7 9.34339 7.12933 8.69321 7.3806 8.08658C7.63188 7.47996 8.00017 6.92876 8.46447 6.46447C8.92876 6.00017 9.47995 5.63188 10.0866 5.3806C10.6932 5.12933 11.3434 5 12 5C12.6566 5 13.3068 5.12933 13.9134 5.3806C14.52 5.63188 15.0712 6.00017 15.5355 6.46447C15.9998 6.92876 16.3681 7.47995 16.6194 8.08658Z" fill="currentColor"/>
<path d="M12.6121 21.7988C12.2564 22.0672 11.7617 22.0672 11.4059 21.7988L7.88753 18.8983C7.45354 18.5708 7.37172 17.9594 7.7048 17.5326C8.03787 17.1059 8.65971 17.0255 9.0937 17.353L11.0358 19.0639V14.5931C11.0358 14.0552 11.4792 13.6191 12.0263 13.6191C12.5734 13.6191 13.0169 14.0552 13.0169 14.5931V19.0378L14.9244 17.353C15.3584 17.0255 15.9802 17.1059 16.3133 17.5326C16.6463 17.9594 16.5645 18.5708 16.1305 18.8983L12.6121 21.7988Z" fill="currentColor"/>
</svg>
