<svg width="24" height="24" viewBox="0 0 24 24" fill="none" xmlns="http://www.w3.org/2000/svg">
<path d="M15.7071 6.49466C15.3166 6.87533 14.6834 6.87533 14.2929 6.49466L13.3335 5.6344C13.2047 5.51891 13 5.61032 13 5.7833L13 14.0252C13 14.5636 12.5523 15 12 15C11.4477 15 11 14.5636 11 14.0252L11 5.7833C11 5.61032 10.7953 5.51892 10.6665 5.6344L9.70711 6.49466C9.31658 6.87533 8.68342 6.87533 8.29289 6.49466C7.90237 6.11399 7.90237 5.4968 8.29289 5.11613L11.302 2.28392C11.6903 1.90536 12.3097 1.90536 12.698 2.28392L15.7071 5.11613C16.0976 5.4968 16.0976 6.11399 15.7071 6.49466Z" fill="currentColor"/>
<path d="M5.63605 4.92892C5.83131 5.12418 5.83131 5.44076 5.63605 5.63602C4.37737 6.8947 3.52021 8.49834 3.17294 10.2442C2.82567 11.99 3.0039 13.7996 3.68509 15.4441C4.36628 17.0887 5.51983 18.4943 6.99987 19.4832C8.47991 20.4721 10.22 21 12 21C13.78 21 15.5201 20.4721 17.0001 19.4832C18.4802 18.4943 19.6337 17.0887 20.3149 15.4441C20.9961 13.7996 21.1743 11.99 20.8271 10.2442C20.4798 8.49834 19.6226 6.8947 18.364 5.63603C18.1687 5.44076 18.1687 5.12418 18.364 4.92892C18.5592 4.73366 18.8758 4.73366 19.0711 4.92892C20.4696 6.32744 21.422 8.10927 21.8079 10.0491C22.1937 11.9889 21.9957 13.9996 21.2388 15.8268C20.4819 17.6541 19.2002 19.2159 17.5557 20.3147C15.9112 21.4135 13.9778 22 12 22C10.0222 22 8.08879 21.4135 6.4443 20.3147C4.79981 19.2159 3.51808 17.6541 2.76121 15.8268C2.00433 13.9996 1.8063 11.9889 2.19215 10.0491C2.57801 8.10927 3.53041 6.32744 4.92894 4.92892C5.1242 4.73365 5.44078 4.73366 5.63605 4.92892Z" fill="currentColor"/>
<path d="M7.05026 6.34322C7.24552 6.53849 7.24552 6.85507 7.05026 7.05033C6.07129 8.0293 5.4046 9.27658 5.13451 10.6344C4.86441 11.9923 5.00303 13.3998 5.53285 14.6789C6.06266 15.9579 6.95987 17.0512 8.11101 17.8204C9.26216 18.5895 10.6155 19.0001 12 19.0001C13.3845 19.0001 14.7379 18.5895 15.889 17.8204C17.0401 17.0512 17.9373 15.9579 18.4672 14.6789C18.997 13.3998 19.1356 11.9923 18.8655 10.6344C18.5954 9.27658 17.9287 8.0293 16.9498 7.05033C16.7545 6.85507 16.7545 6.53849 16.9498 6.34323C17.145 6.14796 17.4616 6.14796 17.6569 6.34323C18.7757 7.46205 19.5376 8.88751 19.8463 10.4394C20.155 11.9912 19.9965 13.5997 19.391 15.0615C18.7855 16.5234 17.7602 17.7728 16.4446 18.6518C15.129 19.5309 13.5823 20.0001 12 20.0001C10.4178 20.0001 8.87103 19.5309 7.55544 18.6518C6.23985 17.7728 5.21447 16.5234 4.60897 15.0615C4.00347 13.5997 3.84504 11.9912 4.15372 10.4394C4.4624 8.88751 5.22433 7.46204 6.34315 6.34322C6.53841 6.14796 6.855 6.14796 7.05026 6.34322Z" fill="currentColor"/>
</svg>
