<svg width="20" height="20" viewBox="0 0 20 20" fill="none" xmlns="http://www.w3.org/2000/svg">
<path fill-rule="evenodd" clip-rule="evenodd" d="M10.5149 0.137061C10.2864 -0.0637315 9.93839 -0.0412885 9.7376 0.187189C9.53681 0.415667 9.55925 0.76366 9.78773 0.964453L11.1871 2.19425C8.0665 1.71863 4.83238 3.15439 3.15889 6.05296C1.41823 9.06787 1.89272 12.7524 4.07498 15.2247C4.27627 15.4527 4.62431 15.4744 4.85235 15.2731C5.08039 15.0718 5.10208 14.7238 4.90079 14.4957C3.0222 12.3675 2.61583 9.19656 4.11282 6.60371C5.98854 3.35487 10.1428 2.24173 13.3917 4.11745C13.6369 4.25903 13.9495 4.1916 14.1145 3.96152C14.2796 3.73145 14.2433 3.41371 14.0306 3.22679L10.5149 0.137061ZM15.9158 4.77538C15.7145 4.54734 15.3665 4.52565 15.1384 4.72694C14.9104 4.92823 14.8887 5.27627 15.09 5.50431C16.9685 7.63257 17.3749 10.8035 15.8779 13.3963C14.0022 16.6451 9.84792 17.7583 6.59907 15.8825C6.35386 15.741 6.04124 15.8084 5.87619 16.0385C5.71114 16.2686 5.74744 16.5863 5.96013 16.7732L9.47587 19.8629C9.70435 20.0637 10.0523 20.0413 10.2531 19.8128C10.4539 19.5843 10.4315 19.2363 10.203 19.0355L8.80365 17.8058C11.9242 18.2814 15.1584 16.8456 16.8318 13.947C18.5725 10.9322 18.098 7.24768 15.9158 4.77538ZM10.5461 6.32803C10.5461 6.02386 10.2995 5.77728 9.99534 5.77728C9.69117 5.77728 9.44459 6.02386 9.44459 6.32803V12.5403L7.47407 10.9966C7.23462 10.809 6.88845 10.851 6.70087 11.0905C6.51329 11.3299 6.55534 11.6761 6.79478 11.8637L9.6557 14.1049C9.85516 14.2612 10.1355 14.2612 10.335 14.1049L13.1959 11.8637C13.4354 11.6761 13.4774 11.3299 13.2898 11.0905C13.1023 10.851 12.7561 10.809 12.5167 10.9966L10.5461 12.5403V6.32803Z" fill="currentColor"/>
</svg>
