<svg width="24" height="24" viewBox="0 0 24 24" fill="none" xmlns="http://www.w3.org/2000/svg">
<path d="M12.6121 10.1796C12.2564 10.448 11.7617 10.448 11.4059 10.1796L7.88753 7.27916C7.45354 6.95166 7.37172 6.34023 7.7048 5.91349C8.03787 5.48676 8.65971 5.40632 9.0937 5.73382L11.0358 7.44471V2.97399C11.0358 2.43607 11.4792 2 12.0263 2C12.5734 2 13.0169 2.43607 13.0169 2.97399V7.41862L14.9244 5.73382C15.3584 5.40632 15.9802 5.48676 16.3133 5.91349C16.6463 6.34023 16.5645 6.95166 16.1305 7.27916L12.6121 10.1796Z" fill="currentColor"/>
<path fill-rule="evenodd" clip-rule="evenodd" d="M21 14C21.5523 14 22 13.5523 22 13C22 12.4477 21.5523 12 21 12L3 12C2.44772 12 2 12.4477 2 13C2 13.5523 2.44772 14 3 14H4C4 16.1217 4.84285 18.1566 6.34315 19.6569C7.84344 21.1571 9.87827 22 12 22C14.1217 22 16.1566 21.1571 17.6569 19.6569C19.1571 18.1566 20 16.1217 20 14L21 14ZM19 14L18 14C18 14.7879 17.8448 15.5681 17.5433 16.2961C17.2417 17.0241 16.7998 17.6855 16.2426 18.2426C15.6855 18.7998 15.0241 19.2418 14.2961 19.5433C13.5681 19.8448 12.7879 20 12 20C11.2121 20 10.4319 19.8448 9.7039 19.5433C8.97595 19.2418 8.31451 18.7998 7.75736 18.2426C7.20021 17.6855 6.75825 17.0241 6.45672 16.2961C6.15519 15.5681 6 14.7879 6 14L5 14C5 15.8565 5.7375 17.637 7.05025 18.9497C8.36301 20.2625 10.1435 21 12 21C13.8565 21 15.637 20.2625 16.9497 18.9497C18.2625 17.637 19 15.8565 19 14ZM7 14C7 14.6566 7.12933 15.3068 7.3806 15.9134C7.63188 16.52 8.00017 17.0712 8.46447 17.5355C8.92876 17.9998 9.47995 18.3681 10.0866 18.6194C10.6932 18.8707 11.3434 19 12 19C12.6566 19 13.3068 18.8707 13.9134 18.6194C14.52 18.3681 15.0712 17.9998 15.5355 17.5355C15.9998 17.0712 16.3681 16.52 16.6194 15.9134C16.8707 15.3068 17 14.6566 17 14H7Z" fill="currentColor"/>
</svg>
