<svg width="20" height="20" viewBox="0 0 20 20" fill="none" xmlns="http://www.w3.org/2000/svg">
<path fill-rule="evenodd" clip-rule="evenodd" d="M10.0149 9.109C9.68684 9.109 9.42087 8.84303 9.42087 8.51493V5.15976C7.54794 5.23188 5.88811 5.64144 4.67972 6.24563C3.30947 6.93075 2.68814 7.76732 2.68814 8.51471C2.68814 9.26212 3.30948 10.0987 4.67972 10.7838C6.01444 11.4512 7.89991 11.8811 10.015 11.8811C12.13 11.8811 14.0155 11.4512 15.3502 10.7838C16.7205 10.0987 17.3418 9.26212 17.3418 8.51471C17.3418 7.76732 16.7205 6.93076 15.3502 6.24563C14.1418 5.64144 12.482 5.23187 10.609 5.15976V8.51493C10.609 8.84303 10.343 9.109 10.0149 9.109ZM10.609 1.83008V3.97082C12.6367 4.04331 14.4848 4.48455 15.8816 5.18294C17.3781 5.9312 18.5299 7.07484 18.5299 8.51471C18.5299 8.64935 18.5199 8.7814 18.5004 8.91078H18.5299V11.1251C18.5299 12.6375 17.4143 13.8759 15.9004 14.7017C14.4992 15.466 12.6444 15.949 10.6091 16.0282V18.1699L12.1192 16.9618C12.3754 16.7569 12.7492 16.7984 12.9542 17.0546C13.1591 17.3108 13.1176 17.6846 12.8614 17.8896L10.3861 19.8698C10.1692 20.0434 9.86088 20.0434 9.64391 19.8698L7.1686 17.8896C6.9124 17.6847 6.87086 17.3108 7.07582 17.0546C7.28078 16.7984 7.65462 16.7569 7.91082 16.9618L9.42095 18.1699V16.0282C7.38564 15.9491 5.53074 15.466 4.12958 14.7017C2.61566 13.8759 1.5 12.6375 1.5 11.1251V8.91078H1.52955C1.51007 8.7814 1.5 8.64935 1.5 8.51471C1.5 7.07484 2.65182 5.93121 4.14837 5.18294C5.54515 4.48456 7.39317 4.04332 9.42087 3.97083V1.8301L7.91079 3.03817C7.6546 3.24313 7.28075 3.20159 7.07579 2.94539C6.87083 2.6892 6.91237 2.31536 7.16857 2.1104L9.64382 0.13018C9.86079 -0.0433919 10.1691 -0.0433938 10.386 0.130177L12.8614 2.11039C13.1176 2.31535 13.1591 2.68919 12.9541 2.94539C12.7492 3.20159 12.3753 3.24313 12.1191 3.03817L10.609 1.83008ZM10.0267 14.8515C10.0228 14.8515 10.0189 14.8514 10.015 14.8514C10.0111 14.8514 10.0072 14.8515 10.0033 14.8515C7.90055 14.8498 6.02649 14.383 4.69852 13.6586C3.34563 12.9207 2.68814 11.9989 2.68814 11.1251V10.8753C3.10299 11.2484 3.60277 11.5737 4.14837 11.8465C5.68046 12.6126 7.75545 13.0692 10.015 13.0692C12.2745 13.0692 14.3495 12.6126 15.8816 11.8465C16.4272 11.5737 16.927 11.2484 17.3418 10.8753V11.1251C17.3418 11.9989 16.6843 12.9207 15.3314 13.6586C14.0035 14.383 12.1294 14.8498 10.0267 14.8515Z" fill="currentColor"/>
</svg>
