<svg width="24" height="24" viewBox="0 0 24 24" fill="none" xmlns="http://www.w3.org/2000/svg">
<path d="M14.3294 3.30667C12.513 2.81996 10.5897 2.91445 8.82975 3.57685C7.06979 4.23925 5.56152 5.4363 4.51678 6.99987C3.47203 8.56344 2.94329 10.415 3.00482 12.2945C3.06635 14.174 3.71505 15.987 4.85982 17.4789C6.00459 18.9707 7.58792 20.0666 9.38744 20.6125C11.187 21.1583 13.1123 21.1268 14.893 20.5224C16.6736 19.9179 18.2203 18.7708 19.3156 17.2423C20.411 15.7137 21 13.8805 21 12C21 11.7239 21.2239 11.5 21.5 11.5C21.7761 11.5 22 11.7239 22 12C22 14.0894 21.3455 16.1264 20.1285 17.8248C18.9114 19.5232 17.1929 20.7977 15.2144 21.4693C13.2358 22.1409 11.0966 22.1759 9.09715 21.5694C7.09769 20.9629 5.33844 19.7453 4.06647 18.0876C2.7945 16.43 2.07372 14.4155 2.00536 12.3272C1.93699 10.2389 2.52448 8.1816 3.68531 6.4443C4.84613 4.707 6.52199 3.37695 8.4775 2.64094C10.433 1.90494 12.57 1.79996 14.5882 2.34074C14.8549 2.41221 15.0132 2.68638 14.9417 2.95312C14.8703 3.21985 14.5961 3.37814 14.3294 3.30667Z" fill="currentColor"/>
<path d="M19.6741 7.92001C20.1087 7.48067 20.1087 6.76836 19.6741 6.32902C19.2394 5.88968 18.5348 5.88968 18.1001 6.32902L12.6345 11.8864L10.4646 9.69298C10.03 9.25364 9.32529 9.25364 8.89067 9.69298C8.45604 10.1323 8.45604 10.8446 8.89067 11.284L11.8476 14.2729C12.2822 14.7123 12.9869 14.7123 13.4215 14.2729L19.6741 7.92001Z" fill="currentColor"/>
<path d="M9.53425 5.44866C10.9031 4.93346 12.399 4.85997 13.8117 5.23852C14.0785 5.30999 14.3526 5.1517 14.4241 4.88497C14.4956 4.61823 14.3373 4.34407 14.0706 4.27259C12.456 3.83997 10.7464 3.92395 9.182 4.51275C7.61759 5.10156 6.27691 6.1656 5.34824 7.55544C4.41958 8.94528 3.94959 10.5911 4.00429 12.2618C4.05898 13.9324 4.6356 15.544 5.65317 16.8701C6.67075 18.1962 8.07815 19.1703 9.67772 19.6555C11.2773 20.1407 12.9887 20.1127 14.5715 19.5754C16.1544 19.0381 17.5291 18.0185 18.5028 16.6598C19.4764 15.3011 20 13.6715 20 12C20 11.7239 19.7761 11.5 19.5 11.5C19.2239 11.5 19 11.7239 19 12C19 13.4626 18.5419 14.8885 17.6899 16.0773C16.838 17.2662 15.6351 18.1584 14.2501 18.6285C12.8651 19.0986 11.3676 19.1232 9.96801 18.6986C8.56838 18.274 7.33691 17.4217 6.44653 16.2613C5.55615 15.101 5.0516 13.6909 5.00375 12.229C4.95589 10.7672 5.36713 9.32712 6.17971 8.11101C6.99229 6.8949 8.16539 5.96386 9.53425 5.44866Z" fill="currentColor"/>
</svg>
