<svg width="20" height="20" viewBox="0 0 20 20" fill="none" xmlns="http://www.w3.org/2000/svg">
<path fill-rule="evenodd" clip-rule="evenodd" d="M5.60007 7.00001C5.60007 4.56996 7.57004 2.60002 10.0001 2.60002C12.4302 2.60002 14.4002 4.56996 14.4002 7.00001C14.4002 9.43005 12.4302 11.4 10.0001 11.4C7.57004 11.4 5.60007 9.43005 5.60007 7.00001ZM10.0001 1.40002C6.90729 1.40002 4.40006 3.90722 4.40006 7.00001C4.40006 7.13028 4.40451 7.25951 4.41326 7.38756C2.72731 8.15454 1.42811 9.36169 1.40047 10.9H1.40002V10.9501V13.6364C1.40002 15.1639 2.52684 16.4147 4.05589 17.2487C5.60763 18.0951 7.71035 18.6001 10.0001 18.6001C12.2899 18.6001 14.3926 18.0951 15.9443 17.2487C17.4734 16.4147 18.6002 15.1639 18.6002 13.6364V10.9501V10.9H18.5998C18.5721 9.36169 17.2729 8.15454 15.587 7.38756C15.5957 7.25951 15.6002 7.13028 15.6002 7.00001C15.6002 3.90722 13.0929 1.40002 10.0001 1.40002ZM15.3652 8.61042C14.6734 10.9183 12.5332 12.6 10.0001 12.6C7.46708 12.6 5.32684 10.9182 4.63507 8.61041C3.25739 9.30016 2.60004 10.1674 2.60004 10.9501C2.60004 11.7227 3.23302 12.5794 4.61422 13.2787C5.96163 13.9608 7.86496 14.4003 10.0001 14.4003C12.1353 14.4003 14.0386 13.9608 15.386 13.2787C16.7672 12.5794 17.4002 11.7227 17.4002 10.9501C17.4002 10.1674 16.7429 9.30016 15.3652 8.61042ZM2.60004 13.6364V13.3586C3.01792 13.7385 3.52149 14.0705 4.07219 14.3493C5.62024 15.133 7.71696 15.6003 10.0001 15.6003C12.2833 15.6003 14.38 15.133 15.928 14.3493C16.4787 14.0705 16.9823 13.7385 17.4002 13.3586V13.6364C17.4002 14.5189 16.7361 15.45 15.3697 16.1953C14.026 16.9282 12.1287 17.4001 10.0001 17.4001C7.87157 17.4001 5.97424 16.9282 4.63052 16.1953C3.26411 15.45 2.60004 14.5189 2.60004 13.6364ZM10.0001 3.90002C10.3315 3.90002 10.6001 4.16865 10.6001 4.50002V6.40001H12.5001C12.8315 6.40001 13.1002 6.66864 13.1002 7.00001C13.1002 7.33138 12.8315 7.60001 12.5001 7.60001H10.6001V9.5C10.6001 9.83137 10.3315 10.1 10.0001 10.1C9.66875 10.1 9.40011 9.83137 9.40011 9.5V7.60001H7.50009C7.16872 7.60001 6.90008 7.33138 6.90008 7.00001C6.90008 6.66864 7.16872 6.40001 7.50009 6.40001H9.40011V4.50002C9.40011 4.16865 9.66875 3.90002 10.0001 3.90002Z" fill="currentColor"/>
</svg>
