<svg width="24" height="24" viewBox="0 0 24 24" fill="none" xmlns="http://www.w3.org/2000/svg">
<path d="M15.7071 12.4947C15.3166 12.8753 14.6834 12.8753 14.2929 12.4947L13.3335 11.6344C13.2047 11.5189 13 11.6103 13 11.7833V15.0252C13 15.5636 12.5523 16 12 16C11.4477 16 11 15.5636 11 15.0252V11.7833C11 11.6103 10.7953 11.5189 10.6665 11.6344L9.70711 12.4947C9.31658 12.8753 8.68342 12.8753 8.29289 12.4947C7.90237 12.114 7.90237 11.4968 8.29289 11.1161L11.302 8.28392C11.6903 7.90536 12.3097 7.90536 12.698 8.28392L15.7071 11.1161C16.0976 11.4968 16.0976 12.114 15.7071 12.4947Z" fill="currentColor"/>
<path fill-rule="evenodd" clip-rule="evenodd" d="M12 20C16.4183 20 20 16.4183 20 12C20 7.58172 16.4183 4 12 4C7.58172 4 4 7.58172 4 12C4 16.4183 7.58172 20 12 20ZM12 19C15.866 19 19 15.866 19 12C19 8.13401 15.866 5 12 5C8.13401 5 5 8.13401 5 12C5 15.866 8.13401 19 12 19Z" fill="currentColor"/>
<path fill-rule="evenodd" clip-rule="evenodd" d="M12 22C17.5228 22 22 17.5228 22 12C22 6.47715 17.5228 2 12 2C6.47715 2 2 6.47715 2 12C2 17.5228 6.47715 22 12 22ZM12 21C16.9706 21 21 16.9706 21 12C21 7.02944 16.9706 3 12 3C7.02944 3 3 7.02944 3 12C3 16.9706 7.02944 21 12 21Z" fill="currentColor"/>
</svg>
