<svg width="24" height="24" viewBox="0 0 24 24" fill="none" xmlns="http://www.w3.org/2000/svg">
<path fill-rule="evenodd" clip-rule="evenodd" d="M12 20C16.4183 20 20 16.4183 20 12C20 7.58172 16.4183 4 12 4C7.58172 4 4 7.58172 4 12C4 16.4183 7.58172 20 12 20ZM12 19C15.866 19 19 15.866 19 12C19 8.13401 15.866 5 12 5C8.13401 5 5 8.13401 5 12C5 15.866 8.13401 19 12 19Z" fill="currentColor"/>
<path fill-rule="evenodd" clip-rule="evenodd" d="M12 22C17.5228 22 22 17.5228 22 12C22 6.47715 17.5228 2 12 2C6.47715 2 2 6.47715 2 12C2 17.5228 6.47715 22 12 22ZM12 21C16.9706 21 21 16.9706 21 12C21 7.02944 16.9706 3 12 3C7.02944 3 3 7.02944 3 12C3 16.9706 7.02944 21 12 21Z" fill="currentColor"/>
<path d="M14.8284 9.17169C14.4379 8.78117 13.8047 8.78117 13.4142 9.17169L12 10.5859L10.5858 9.17169C10.1953 8.78116 9.5621 8.78116 9.17157 9.17169C8.78105 9.56221 8.78105 10.1954 9.17157 10.5859L10.5858 12.0001L9.17157 13.4143C8.78105 13.8049 8.78105 14.438 9.17157 14.8285C9.5621 15.2191 10.1953 15.2191 10.5858 14.8285L12 13.4143L13.4142 14.8285C13.8047 15.2191 14.4379 15.2191 14.8284 14.8285C15.219 14.438 15.219 13.8049 14.8284 13.4143L13.4142 12.0001L14.8284 10.5859C15.219 10.1954 15.219 9.56221 14.8284 9.17169Z" fill="currentColor"/>
</svg>
