<svg width="20" height="20" viewBox="0 0 20 20" fill="none" xmlns="http://www.w3.org/2000/svg">
<path fill-rule="evenodd" clip-rule="evenodd" d="M9.39997 10.5001C9.39997 10.8315 9.6686 11.1001 9.99997 11.1001C10.3313 11.1001 10.6 10.8315 10.6 10.5001V3.24841L12.1252 4.46857C12.3839 4.67558 12.7615 4.63363 12.9685 4.37486C13.1755 4.1161 13.1336 3.73853 12.8748 3.53152L10.3748 1.5315C10.1557 1.3562 9.84428 1.3562 9.62515 1.53151L7.12519 3.53152C6.86643 3.73853 6.82448 4.11611 7.03149 4.37487C7.23849 4.63363 7.61607 4.67558 7.87482 4.46857L9.39997 3.24842L9.39997 10.5001ZM8.81857 6.93376C8.85512 7.26311 8.61776 7.55973 8.28841 7.59628C6.5685 7.78712 5.1025 8.25583 4.08571 8.87097C3.04962 9.49777 2.60002 10.1935 2.60002 10.8151C2.60002 11.5387 3.21774 12.3632 4.60675 13.0424C5.95597 13.7022 7.86201 14.1273 10 14.1273C12.138 14.1273 14.044 13.7022 15.3933 13.0424C16.7823 12.3632 17.4 11.5387 17.4 10.8151C17.4 10.1935 16.9504 9.49777 15.9143 8.87097C14.8975 8.25583 13.4315 7.78712 11.7116 7.59628C11.3823 7.55973 11.1449 7.26311 11.1814 6.93376C11.218 6.60441 11.5146 6.36704 11.844 6.40358C13.6867 6.60806 15.3318 7.11604 16.5354 7.84422C17.7198 8.56072 18.6 9.57492 18.6 10.8151C18.6 10.8435 18.5995 10.8718 18.5986 10.8999H18.6V13.6364C18.6 15.1639 17.4732 16.4147 15.9442 17.2487C14.3925 18.0951 12.2898 18.6001 10 18.6001C7.71029 18.6001 5.6076 18.0951 4.05588 17.2487C2.52685 16.4147 1.40005 15.1639 1.40005 13.6364V10.8999H1.40139C1.40048 10.8718 1.40002 10.8435 1.40002 10.8151C1.40002 9.57492 2.28021 8.56073 3.46457 7.84422C4.66822 7.11604 6.31333 6.60806 8.15606 6.40358C8.48541 6.36704 8.78203 6.60441 8.81857 6.93376ZM15.9204 14.1204C16.4721 13.8507 16.979 13.528 17.4 13.1567V13.6364C17.4 14.5189 16.736 15.4499 15.3696 16.1952C14.0258 16.9282 12.1285 17.4001 10 17.4001C7.87151 17.4001 5.97421 16.9282 4.6305 16.1952C3.26411 15.4499 2.60005 14.5189 2.60005 13.6364V13.1567C3.02105 13.528 3.52797 13.8507 4.07958 14.1204C5.62579 14.8766 7.71975 15.3273 10 15.3273C12.2803 15.3273 14.3742 14.8766 15.9204 14.1204Z" fill="currentColor"/>
</svg>
