<svg width="24" height="24" viewBox="0 0 24 24" fill="none" xmlns="http://www.w3.org/2000/svg">
<path d="M15.7071 10.5053C15.3166 10.1247 14.6834 10.1247 14.2929 10.5053L13.3335 11.3656C13.2047 11.4811 13 11.3897 13 11.2167L13 2.97477C13 2.43642 12.5523 2 12 2C11.4477 2 11 2.43642 11 2.97477L11 11.2167C11 11.3897 10.7953 11.4811 10.6665 11.3656L9.70711 10.5053C9.31658 10.1247 8.68342 10.1247 8.29289 10.5053C7.90237 10.886 7.90237 11.5032 8.29289 11.8839L11.302 14.7161C11.6903 15.0946 12.3097 15.0946 12.698 14.7161L15.7071 11.8839C16.0976 11.5032 16.0976 10.886 15.7071 10.5053Z" fill="currentColor"/>
<path d="M5.63605 5.63602C5.83131 5.44076 5.83131 5.12418 5.63605 4.92892C5.44078 4.73366 5.1242 4.73365 4.92894 4.92892C3.53041 6.32744 2.57801 8.10927 2.19215 10.0491C1.8063 11.9889 2.00433 13.9996 2.76121 15.8268C3.51808 17.6541 4.79981 19.2159 6.4443 20.3147C8.08879 21.4135 10.0222 22 12 22C13.9778 22 15.9112 21.4135 17.5557 20.3147C19.2002 19.2159 20.4819 17.6541 21.2388 15.8268C21.9957 13.9996 22.1937 11.9889 21.8079 10.0491C21.422 8.10927 20.4696 6.32744 19.0711 4.92892C18.8758 4.73366 18.5592 4.73366 18.364 4.92892C18.1687 5.12418 18.1687 5.44076 18.364 5.63603C19.6226 6.8947 20.4798 8.49834 20.8271 10.2442C21.1743 11.99 20.9961 13.7996 20.3149 15.4441C19.6337 17.0887 18.4802 18.4943 17.0001 19.4832C15.5201 20.4721 13.78 21 12 21C10.22 21 8.47991 20.4721 6.99987 19.4832C5.51983 18.4943 4.36628 17.0887 3.68509 15.4441C3.0039 13.7996 2.82567 11.99 3.17294 10.2442C3.52021 8.49834 4.37737 6.8947 5.63605 5.63602Z" fill="currentColor"/>
<path d="M7.05026 7.05024C7.24552 6.85498 7.24552 6.53839 7.05026 6.34313C6.855 6.14787 6.53841 6.14787 6.34315 6.34313C5.22433 7.46195 4.4624 8.88741 4.15372 10.4393C3.84504 11.9911 4.00347 13.5996 4.60897 15.0615C5.21447 16.5233 6.23985 17.7727 7.55544 18.6517C8.87103 19.5308 10.4178 20 12 20C13.5823 20 15.129 19.5308 16.4446 18.6517C17.7602 17.7727 18.7855 16.5233 19.391 15.0615C19.9965 13.5996 20.155 11.9911 19.8463 10.4393C19.5376 8.88742 18.7757 7.46195 17.6569 6.34313C17.4616 6.14787 17.145 6.14787 16.9498 6.34313C16.7545 6.53839 16.7545 6.85498 16.9498 7.05024C17.9287 8.02921 18.5954 9.27649 18.8655 10.6344C19.1356 11.9922 18.997 13.3997 18.4672 14.6788C17.9373 15.9579 17.0401 17.0511 15.889 17.8203C14.7379 18.5894 13.3845 19 12 19C10.6155 19 9.26216 18.5894 8.11101 17.8203C6.95987 17.0511 6.06266 15.9579 5.53285 14.6788C5.00303 13.3997 4.86441 11.9922 5.13451 10.6344C5.4046 9.27649 6.07129 8.02921 7.05026 7.05024Z" fill="currentColor"/>
</svg>
