<svg width="500" height="441" fill="none" xmlns="http://www.w3.org/2000/svg"><path fill-rule="evenodd" clip-rule="evenodd" d="M174.5 396.837c28.084 0 50.85-23.134 50.85-51.672 0-28.538-22.766-51.672-50.85-51.672-28.084 0-50.85 23.134-50.85 51.672 0 28.538 22.766 51.672 50.85 51.672Zm0 5.741c31.204 0 56.5-25.704 56.5-57.413 0-31.708-25.296-57.413-56.5-57.413S118 313.457 118 345.165c0 31.709 25.296 57.413 56.5 57.413Z" fill="#000" fill-opacity=".05"/><g opacity=".5" fill="#000" fill-opacity=".1"><path d="M420 150.86c0-.722.574-1.307 1.282-1.307h41.436c.708 0 1.282.585 1.282 1.307 0 .721-.574 1.306-1.282 1.306h-41.436A1.294 1.294 0 0 1 420 150.86ZM420 153.473c0-.241.191-.436.427-.436h27.34c.236 0 .427.195.427.436 0 .24-.191.435-.427.435h-27.34a.431.431 0 0 1-.427-.435ZM420 155.215c0-.241.191-.436.427-.436h15.379c.236 0 .427.195.427.436 0 .24-.191.435-.427.435h-15.379a.431.431 0 0 1-.427-.435Z"/></g><ellipse cx="267.56" cy="345.226" rx="7.56" ry="7.682" fill="#000" fill-opacity=".02"/><ellipse cx="139.629" cy="40.446" rx="3.629" ry="3.688" fill="#000" fill-opacity=".1"/><path fill-rule="evenodd" clip-rule="evenodd" d="M459.467 195.37c4.209 0 7.621-3.467 7.621-7.744 0-4.277-3.412-7.744-7.621-7.744-4.208 0-7.62 3.467-7.62 7.744 0 4.277 3.412 7.744 7.62 7.744Zm0 .86c4.677 0 8.468-3.852 8.468-8.604 0-4.752-3.791-8.604-8.468-8.604-4.676 0-8.467 3.852-8.467 8.604 0 4.752 3.791 8.604 8.467 8.604ZM325.467 335.601c4.209 0 7.621-3.467 7.621-7.744 0-4.277-3.412-7.744-7.621-7.744-4.208 0-7.62 3.467-7.62 7.744 0 4.277 3.412 7.744 7.62 7.744Zm0 .86c4.677 0 8.468-3.852 8.468-8.604 0-4.752-3.791-8.604-8.468-8.604-4.676 0-8.467 3.852-8.467 8.604 0 4.752 3.791 8.604 8.467 8.604Z" fill="#000" fill-opacity=".05"/><path opacity=".1" fill-rule="evenodd" clip-rule="evenodd" d="M367.5 131.571c18.669 0 33.804-15.379 33.804-34.35 0-18.972-15.135-34.35-33.804-34.35-18.669 0-33.804 15.378-33.804 34.35 0 18.971 15.135 34.35 33.804 34.35Zm0 6.804c22.368 0 40.5-18.425 40.5-41.154 0-22.73-18.132-41.155-40.5-41.155S327 74.49 327 97.22c0 22.73 18.132 41.155 40.5 41.155Z" fill="#567CDC"/><rect opacity=".5" x="74" y="122.117" width="103" height="6.097" rx="3.049" fill="#000" fill-opacity=".2"/><path opacity=".5" d="M119 293.5c0 5.523 4.703 10 10.505 10H281.5c5.802 0 10.505-4.477 10.505-10s-4.703-10-10.505-10H129.505c-5.802 0-10.505 4.477-10.505 10Z" fill="#000" fill-opacity=".2"/><path d="M133 89.164c0-6.494 5.265-11.759 11.76-11.759h270.48c6.495 0 11.76 5.265 11.76 11.759v152.86H133V89.164Z" fill="#fff"/><path fill-rule="evenodd" clip-rule="evenodd" d="M413.189 84.56H148.016c-3.888 0-7.04 3.202-7.04 7.153v145.461h279.253V91.713c0-3.951-3.152-7.154-7.04-7.154Zm-265.173-4.77c-6.48 0-11.733 5.338-11.733 11.923v150.23h288.64V91.713c0-6.585-5.253-11.923-11.734-11.923H148.016Z" fill="#000" fill-opacity=".3"/><path d="M110.469 249.097c0-3.951 3.152-7.154 7.04-7.154h326.187c3.888 0 7.04 3.203 7.04 7.154s-3.152 7.154-7.04 7.154H117.509c-3.888 0-7.04-3.203-7.04-7.154Z" fill="#000" fill-opacity=".3"/><path d="M141 241.008c0-.561.448-1.016 1-1.016h278c.552 0 1 .455 1 1.016 0 .561-.448 1.016-1 1.016H142c-.552 0-1-.455-1-1.016ZM226 243.04v-1.016h110v1.016c0 .562-.448 1.017-1 1.017H227c-.552 0-1-.455-1-1.017Z" fill="#000" fill-opacity=".6"/><path fill-rule="evenodd" clip-rule="evenodd" d="M148.016 84.56h265.173c3.889 0 7.04 3.202 7.04 7.153V237.174H140.976V91.713c0-3.951 3.152-7.154 7.04-7.154Zm0 2.384h265.173c2.592 0 4.694 2.135 4.694 4.769v143.076h-274.56V91.713c0-2.634 2.101-4.77 4.693-4.77Z" fill="#000" fill-opacity=".6"/><path d="M361.136 202.133c0-.256.207-.463.463-.463h10.945c4.536 0 8.213-3.737 8.213-8.346v-5.919a.457.457 0 1 1 .912 0v5.919c0 5.121-4.085 9.273-9.125 9.273h-10.945a.463.463 0 0 1-.463-.464ZM299.992 186.948c.252 0 .457.205.457.457v5.919c0 4.609 3.677 8.346 8.213 8.346h10.943a.464.464 0 1 1 0 .927h-10.943c-5.04 0-9.126-4.152-9.126-9.273v-5.919c0-.252.204-.457.456-.457ZM320.069 119.6a.463.463 0 0 1-.464.463h-10.943c-4.536 0-8.213 3.737-8.213 8.346v5.92a.456.456 0 1 1-.913 0v-5.92c0-5.121 4.086-9.273 9.126-9.273h10.943c.257 0 .464.207.464.464ZM361.136 119.6c0 .256.207.463.463.463h10.945c4.536 0 8.213 3.737 8.213 8.346v5.92a.456.456 0 1 0 .912 0v-5.92c0-5.121-4.085-9.273-9.125-9.273h-10.945a.463.463 0 0 0-.463.464Z" fill="#A7DB57"/><path fill-rule="evenodd" clip-rule="evenodd" d="M332.78 152.918v5.961h5.867v-5.961h-5.867Zm3.911 1.987h-1.955v1.987h1.955v-1.987ZM332.78 162.854h5.867v5.961h-5.867v-5.961Zm1.956 1.987h1.955v1.987h-1.955v-1.987ZM342.558 152.918v5.961h5.867v-5.961h-5.867Zm3.911 1.987h-1.955v1.987h1.955v-1.987Z" fill="#A7DB57"/><path d="M344.514 162.854h-1.956v1.987h1.956v1.987h-1.956v1.987h3.911v-3.974h1.956v-1.987h-1.956v1.987h-1.955v-1.987Z" fill="#A7DB57"/><ellipse cx="280.469" cy="83.502" rx="2" ry="2.032" fill="#000" fill-opacity=".6"/><path d="M118.449 69.873c.919-10.432 10.201-18.111 20.731-17.153l95.334 8.677c10.53.959 18.322 10.192 17.402 20.623l-20.393 231.373c-.92 10.431-10.202 18.11-20.732 17.152l-95.334-8.677c-10.53-.958-18.322-10.191-17.402-20.623l20.394-231.372Z" fill="#fff"/><path fill-rule="evenodd" clip-rule="evenodd" d="m139.405 54.86 94.514 8.602c9.647.879 16.722 9.356 15.884 18.868l-20.306 230.376c-.838 9.512-9.284 16.577-18.931 15.699l-94.514-8.602c-9.647-.878-16.722-9.356-15.884-18.868L120.474 70.56c.838-9.513 9.284-16.578 18.931-15.7Zm-.269 3.046 94.514 8.602c8.062.734 13.847 7.787 13.163 15.55l-20.306 230.376c-.684 7.763-7.611 13.659-15.672 12.926l-94.514-8.602c-8.062-.734-13.847-7.787-13.163-15.551l20.306-230.375c.684-7.764 7.61-13.66 15.672-12.926Z" fill="#A7DB57"/><path fill-rule="evenodd" clip-rule="evenodd" d="m138.393 56.888 95.133 8.658c8.114.739 13.936 7.843 13.247 15.663L226.32 313.262c-.69 7.82-7.662 13.76-15.776 13.021l-95.133-8.658c-8.114-.739-13.937-7.843-13.247-15.663l20.453-232.053c.69-7.82 7.661-13.76 15.776-13.021Zm-.203 2.3 95.133 8.659c6.918.63 11.766 6.657 11.193 13.157l-20.454 232.053c-.573 6.499-6.397 11.555-13.315 10.926l-95.133-8.659c-6.918-.629-11.766-6.657-11.193-13.156l20.454-232.054c.572-6.499 6.397-11.555 13.315-10.926Z" fill="#E9F6D5"/><path d="M153.927 111.291c-.642 7.281-6.967 12.642-14.113 11.991-7.146-.65-12.433-7.068-11.792-14.348.642-7.281 6.967-12.641 14.113-11.991 7.146.65 12.434 7.068 11.792 14.348Z" stroke="#000" stroke-opacity=".1"/><ellipse rx="2.078" ry="2.111" transform="rotate(5.2 -1141.86 1607.186) skewX(.163)" fill="#000" fill-opacity=".6"/><path d="M150.823 111.009c-.488 5.539-5.3 9.613-10.731 9.119-5.432-.494-9.454-5.373-8.966-10.912.488-5.539 5.299-9.613 10.731-9.119 5.432.494 9.454 5.373 8.966 10.912Z" stroke="#000" stroke-opacity=".3"/><path d="M156.522 81.853c-.642 7.281-6.967 12.641-14.113 11.991-7.146-.65-12.433-7.068-11.792-14.348.642-7.281 6.968-12.642 14.114-11.991 7.146.65 12.433 7.068 11.791 14.348Z" stroke="#000" stroke-opacity=".1"/><ellipse rx="2.078" ry="2.111" transform="rotate(5.2 -816.445 1621.028) skewX(.163)" fill="#000" fill-opacity=".6"/><path d="M153.418 81.57c-.488 5.54-5.299 9.614-10.731 9.12-5.432-.494-9.454-5.373-8.966-10.912.488-5.539 5.3-9.613 10.731-9.119 5.432.494 9.454 5.373 8.966 10.912Z" stroke="#000" stroke-opacity=".3"/><rect width="9.35" height="272.302" rx="4.675" transform="rotate(5.2 -704.323 2485.346) skewX(.163)" fill="#000" fill-opacity=".02"/><path d="M69.47 279.274c1.992 12.556 3.489 54.748 3.994 74.483.004.139-.026.279-.079.409-24.176 59.126 80.096 78.358 90.084 51.112 7.656-20.882 26.653-28.099 41.5-43.187 17.177-17.455 35.273-38.894 39-63.51 2.537-16.756 18.018-26.456 25-40.647 4.658-9.467-1.842-19.098-9-24.388a18.357 18.357 0 0 0-2.283-1.46c-.983-.524-1.321-2.66-.397-3.283 8.932-6.016 13.603-15.667 4.68-25.742-3.624-4.092-8.351-4.84-14.339-4.667-.852.024-1.35-.935-.772-1.561 8.428-9.14 24.316-12.548 21.111-28.83-1.841-9.355-12.852-12.861-21.687-12.094-1.085.094-1.908-1.56-1.081-2.269 7.742-6.625 19.052-16.41 21.768-19.17 10.514-10.684 1.766-23.88-11-23.88-4.4 0-17.167 8.807-23 13.21-16.5 12.872-50.8 39.631-56 43.695-20.412 15.956-42.845 29.703-61.283 48.028-.763.758-2.111-.057-1.793-1.084 1.108-3.581 2.306-7.891 2.576-10.362.5-4.572 1.5-25.404 4-28.96 2.5-3.557 5.5-10.67 6-14.735.5-4.064 0-30.485-1.5-38.614-1.01-5.477-5.414-18.326-13-15.243-2.5 1.017-4.5 8.13-5.5 15.751-1.957 14.913-12.856 26.419-20 39.122-2 3.557-3 13.211-3.5 20.832s-9.5 26.42-13.5 44.203-2.5 37.09 0 52.841Z" fill="#fff"/><path d="M74.464 353.731c-.505-19.699-2.001-61.975-4.007-74.614-2.493-15.706-3.97-34.865-.012-52.465 1.984-8.822 5.213-17.911 8.028-25.795l.123-.344c1.357-3.8 2.615-7.32 3.57-10.363.977-3.115 1.668-5.819 1.801-7.855.25-3.799.622-8.087 1.179-11.859.565-3.827 1.297-6.952 2.195-8.547 1.766-3.141 3.769-6.216 5.825-9.313l.957-1.439c1.743-2.617 3.502-5.259 5.145-7.95 3.89-6.374 7.187-13.12 8.193-20.781.495-3.774 1.234-7.392 2.146-10.171.456-1.391.945-2.538 1.447-3.379.521-.871.973-1.275 1.292-1.404 1.596-.649 2.972-.461 4.215.252 1.292.74 2.478 2.072 3.524 3.759 2.089 3.372 3.409 7.823 3.901 10.486.734 3.977 1.233 12.537 1.484 20.681.25 8.158.245 15.691.007 17.63-.234 1.901-1.07 4.599-2.182 7.299-1.109 2.692-2.452 5.286-3.644 6.983-.411.585-.737 1.431-1.011 2.373-.281.966-.535 2.127-.765 3.407-.459 2.563-.837 5.673-1.151 8.794a386.213 386.213 0 0 0-.768 8.931l-.1 1.32c-.156 2.048-.279 3.672-.381 4.602-.258 2.36-1.425 6.579-2.538 10.174-.322 1.043.231 1.941.93 2.363.698.422 1.75.495 2.524-.273 9.167-9.111 19.338-17.095 29.79-24.808 3.55-2.62 7.139-5.212 10.73-7.807 6.96-5.028 13.934-10.066 20.674-15.335 5.199-4.064 39.491-30.816 55.993-43.69 2.9-2.188 7.519-5.468 11.953-8.198 2.22-1.366 4.374-2.583 6.233-3.455 1.907-.894 3.35-1.35 4.205-1.35 6.046 0 11.067 3.123 13.347 7.404 2.247 4.217 1.917 9.718-3.06 14.775-2.677 2.72-13.941 12.467-21.705 19.112-.898.768-.77 1.923-.426 2.631.344.71 1.141 1.489 2.243 1.393 4.271-.371 9.049.296 12.95 2.158 3.886 1.854 6.826 4.848 7.67 9.134.767 3.898.382 6.958-.701 9.503-1.089 2.561-2.918 4.682-5.168 6.642-1.858 1.619-3.951 3.087-6.111 4.602-.472.331-.947.665-1.423 1.002-2.629 1.862-5.278 3.84-7.462 6.209a1.888 1.888 0 0 0-.308 2.153 1.986 1.986 0 0 0 1.844 1.085c5.912-.17 10.244.585 13.562 4.331 4.281 4.834 5.205 9.43 4.137 13.475-1.085 4.107-4.279 7.846-8.627 10.775-.483.325-.744.809-.871 1.262a3.453 3.453 0 0 0-.078 1.38c.111.822.533 1.873 1.435 2.353.643.342 1.362.793 2.158 1.381 3.476 2.57 6.764 6.175 8.615 10.238 1.841 4.041 2.252 8.495.082 12.905-2.694 5.474-6.664 10.249-10.731 15.14a310.391 310.391 0 0 0-3.318 4.036c-5.082 6.32-9.732 13.108-11.043 21.762-3.673 24.266-21.544 45.501-38.724 62.959-3.666 3.726-7.598 6.975-11.575 10.09a537.55 537.55 0 0 1-3.832 2.967c-2.701 2.079-5.391 4.15-7.967 6.296-7.623 6.352-14.437 13.513-18.352 24.191-1.139 3.107-3.645 5.622-7.254 7.51-3.614 1.889-8.279 3.118-13.598 3.662-10.637 1.088-23.701-.584-35.722-4.935-12.03-4.353-22.897-11.346-29.27-20.802-6.335-9.401-8.3-21.335-2.375-35.825a2.02 2.02 0 0 0 .153-.813Z" stroke="#000" stroke-opacity=".2" stroke-width="2"/><path fill-rule="evenodd" clip-rule="evenodd" d="M95.062 366.717a.495.495 0 0 1 .698-.118c13.938 10.117 37.713 19.751 47.872 23.305a.51.51 0 0 1 .31.646.498.498 0 0 1-.635.315c-10.175-3.559-34.066-13.232-48.128-23.439a.514.514 0 0 1-.117-.709Z" fill="#000" fill-opacity=".05"/><path fill-rule="evenodd" clip-rule="evenodd" d="M239.143 159.33a.494.494 0 0 1 .705.053.514.514 0 0 1-.052.716l-.327-.384-.326-.385ZM185 203.918l-.304-.404h.001l3.771-2.935a24876.351 24876.351 0 0 0 26.227-20.435c3.272-2.562 9.38-7.761 14.679-12.329a1759.933 1759.933 0 0 0 8.987-7.801l.579-.507.203-.177.326.385.327.384-.001.001-.202.177-.58.507-2.118 1.849a1800.066 1800.066 0 0 1-6.875 5.957c-5.294 4.564-11.421 9.78-14.715 12.359-3.254 2.547-10.754 8.39-17.441 13.596l-8.787 6.841-3.772 2.935h-.001l-.304-.403Zm0 0-.304-.404a.515.515 0 0 0-.093.713.494.494 0 0 0 .701.094l-.304-.403ZM241.681 199.97a.495.495 0 0 1 .704.067.514.514 0 0 1-.066.716l-.319-.392-.319-.391ZM217 219.669l-.287-.416.35-.251.968-.693c.821-.591 1.968-1.418 3.269-2.363 2.603-1.891 5.818-4.254 8.277-6.147 2.48-1.909 5.506-4.366 7.913-6.347a598.748 598.748 0 0 0 3.875-3.217l.316-.265.319.391.319.392-.318.266-.878.735a663.35 663.35 0 0 1-3.003 2.488c-2.41 1.982-5.445 4.447-7.939 6.367-2.47 1.902-5.695 4.271-8.299 6.164a801.298 801.298 0 0 1-3.274 2.365l-.969.695-.35.25-.001.001-.288-.415Zm0 0-.287-.416a.512.512 0 0 0-.122.707c.158.23.471.285.697.124l-.288-.415ZM249.654 235.561a.494.494 0 0 1 .706.014.514.514 0 0 1-.013.719l-.347-.367-.346-.366Zm0 0 .346.366.347.367-.217.21-.597.58c-.509.493-1.223 1.182-2.043 1.965-1.639 1.566-3.704 3.513-5.402 5.03-1.682 1.503-3.876 3.375-5.647 4.869a480.724 480.724 0 0 1-2.886 2.417l-.239.199a.496.496 0 0 1-.704-.073.514.514 0 0 1 .072-.715l.238-.198.658-.547c.558-.466 1.338-1.119 2.223-1.865 1.769-1.493 3.954-3.357 5.624-4.85 1.685-1.506 3.741-3.444 5.378-5.007a440.822 440.822 0 0 0 2.634-2.539l.214-.208.001-.001ZM102.064 166.851a.499.499 0 0 0 .605-.371.509.509 0 0 0-.365-.615l-.12.493-.12.493Zm0 0 .12-.493.12-.493-.147-.037a117.395 117.395 0 0 0-5.392-1.247 142.365 142.365 0 0 0-3.673-.68c-.572-.099-1.075-.184-1.435-.245l-.423-.07-.154-.026a.503.503 0 0 0-.574.421.506.506 0 0 0 .414.582l.152.026.422.07c.359.06.86.145 1.43.244 1.14.198 2.55.451 3.645.674 1.103.225 2.475.543 3.576.806.549.131 1.029.248 1.372.333l.402.099.145.036ZM96.491 168.954a.508.508 0 0 0-.399-.593l-.092.499-.092.5a.501.501 0 0 0 .583-.406Zm-.583.406.092-.5.092-.499-.066-.013-.181-.033a64.88 64.88 0 0 0-.617-.113 53.348 53.348 0 0 0-1.62-.269c-.5-.073-1.14-.151-1.652-.21l-.644-.073-.19-.021-.07-.008-.052.505-.053.506.068.007.188.021.639.072c.51.06 1.139.136 1.624.207.488.071 1.098.176 1.588.264.245.043.458.083.61.111l.18.034.064.012Zm-5.406-1.287a.507.507 0 0 0 .445.559l.053-.506.052-.505a.502.502 0 0 0-.55.452Z" fill="#000" fill-opacity=".2"/></svg>
