<svg width="500" height="384" viewBox="0 0 500 384" fill="none" xmlns="http://www.w3.org/2000/svg"><path fill-rule="evenodd" clip-rule="evenodd" d="M269.81 240.185c30.371 0 54.993-24.621 54.993-54.993 0-30.372-24.622-54.993-54.993-54.993-30.372 0-54.994 24.621-54.994 54.993 0 30.372 24.622 54.993 54.994 54.993Zm0 6.111c33.746 0 61.103-27.357 61.103-61.104s-27.357-61.104-61.103-61.104c-33.747 0-61.104 27.357-61.104 61.104s27.357 61.104 61.104 61.104Z" fill="#000" fill-opacity=".05"/><circle cx="329.2" cy="297.524" r="6.671" fill="#000" fill-opacity=".02"/><circle cx="104.147" cy="271.882" r="13.677" fill="#000" fill-opacity=".02"/><circle cx="145.808" cy="146.162" r="3.202" fill="#000" fill-opacity=".1"/><path fill-rule="evenodd" clip-rule="evenodd" d="M337.059 59.754a6.724 6.724 0 1 0 0-13.447 6.724 6.724 0 0 0 0 13.447Zm0 .747a7.471 7.471 0 1 0 .001-14.942 7.471 7.471 0 0 0-.001 14.942Z" fill="#000" fill-opacity=".05"/><path opacity=".5" fill-rule="evenodd" clip-rule="evenodd" d="M154 44.627c-17.083 0-30.931 13.849-30.931 30.932S136.917 106.49 154 106.49s30.931-13.848 30.931-30.931S171.083 44.627 154 44.627Zm0-6.127c-20.467 0-37.059 16.592-37.059 37.059s16.592 37.059 37.059 37.059 37.059-16.592 37.059-37.06c0-20.466-16.592-37.058-37.059-37.058Z" fill="url(#a)"/><path opacity=".2" fill-rule="evenodd" clip-rule="evenodd" d="M261.647 287.165c47.182 0 85.43-38.248 85.43-85.43 0-47.181-38.248-85.43-85.43-85.43-47.181 0-85.43 38.249-85.43 85.43 0 47.182 38.249 85.43 85.43 85.43Zm0 16.923c56.528 0 102.353-45.825 102.353-102.353 0-56.528-45.825-102.353-102.353-102.353-56.528 0-102.353 45.825-102.353 102.353 0 56.528 45.825 102.353 102.353 102.353Z" fill="url(#b)"/><circle opacity=".2" cx="94.882" cy="270.559" r="29.882" stroke="url(#c)" stroke-width="2"/><circle cx="124" cy="231.5" r="5" fill="#000" fill-opacity=".02"/><path d="M162 48.202c0-13.643 11.321-24.702 25.286-24.702h126.428C327.679 23.5 339 34.56 339 48.202v302.596c0 13.643-11.321 24.702-25.286 24.702H187.286c-13.965 0-25.286-11.059-25.286-24.702V48.202Z" fill="#fff"/><path fill-rule="evenodd" clip-rule="evenodd" d="M187.286 25.5h126.428C326.619 25.5 337 35.708 337 48.202v302.596c0 12.494-10.381 22.702-23.286 22.702H187.286c-12.905 0-23.286-10.208-23.286-22.702V48.202c0-12.494 10.381-22.702 23.286-22.702Zm0 4h126.428C324.498 29.5 333 38.004 333 48.202v302.596c0 10.198-8.502 18.702-19.286 18.702H187.286c-10.784 0-19.286-8.504-19.286-18.702V48.202c0-10.198 8.502-18.702 19.286-18.702Z" fill="#000" fill-opacity=".3"/><path fill-rule="evenodd" clip-rule="evenodd" d="M187.286 29.5h126.428C324.498 29.5 333 38.004 333 48.202v302.596c0 10.198-8.502 18.702-19.286 18.702H187.286c-10.784 0-19.286-8.504-19.286-18.702V48.202c0-10.198 8.502-18.702 19.286-18.702Zm0 3h126.428c9.194 0 16.286 7.227 16.286 15.702v302.596c0 8.475-7.092 15.702-16.286 15.702H187.286c-9.194 0-16.286-7.227-16.286-15.702V48.202c0-8.475 7.092-15.702 16.286-15.702Z" fill="#000" fill-opacity=".6"/><rect x="178.935" y="42.83" width="9.072" height="2.419" rx="1.21" fill="#000" fill-opacity=".2"/><rect x="281.752" y="42.83" width="9.072" height="2.419" rx="1.21" fill="#000" fill-opacity=".2"/><rect x="302.316" y="42.83" width="9.072" height="2.419" rx="1.21" fill="#000" fill-opacity=".2"/><rect x="189.216" y="42.83" width="9.072" height="2.419" rx="1.21" fill="#000" fill-opacity=".2"/><rect x="292.034" y="42.83" width="9.072" height="2.419" rx="1.21" fill="#000" fill-opacity=".2"/><rect x="312.598" y="42.83" width="9.072" height="2.419" rx="1.21" fill="#000" fill-opacity=".2"/><circle cx="250.302" cy="41.039" r="4.838" fill="#000" fill-opacity=".2"/><rect x="186.692" y="335" width="126.615" height="23.192" rx="11.596" stroke="#000" stroke-opacity=".2"/><circle opacity=".5" cx="198.289" cy="127.181" r="11.096" stroke="url(#d)" stroke-width="2"/><circle opacity=".5" cx="232.763" cy="127.18" r="11.096" stroke="url(#e)" stroke-width="2"/><circle opacity=".5" cx="267.237" cy="127.18" r="11.096" stroke="#A7DB57" stroke-width="2"/><circle opacity=".5" cx="301.711" cy="127.18" r="11.096" stroke="url(#f)" stroke-width="2"/><circle opacity=".5" cx="301.711" cy="161.05" r="11.096" transform="rotate(-180 301.711 161.05)" stroke="url(#g)" stroke-width="2"/><circle opacity=".5" cx="267.237" cy="161.05" r="11.096" transform="rotate(-180 267.237 161.05)" stroke="url(#h)" stroke-width="2"/><circle opacity=".5" cx="232.763" cy="161.05" r="11.096" transform="rotate(-180 232.763 161.05)" stroke="url(#i)" stroke-width="2"/><circle opacity=".5" cx="198.289" cy="161.05" r="11.096" transform="rotate(-180 198.289 161.05)" stroke="url(#j)" stroke-width="2"/><g filter="url(#k)"><path d="M264.451 110.488 196.5 72l6.5 122 69.5-54s3.556-3.275 4.801-6.008c1.362-2.99 1.61-5.038 1.315-8.31-.299-3.326-1.039-5.258-2.855-8.06-1.717-2.649-2.97-4.213-5.78-5.652-1.99-1.019-5.53-1.482-5.53-1.482Z" fill="url(#l)"/><g filter="url(#m)"><ellipse cx="162.531" cy="135.691" rx="72.371" ry="72.629" transform="rotate(45 162.531 135.691)" fill="#fff"/><path d="M211.646 184.807c-27.233 27.233-71.294 27.301-98.413.182s-27.051-71.18.182-98.413c27.234-27.233 71.295-27.301 98.413-.183 27.119 27.119 27.051 71.18-.182 98.414Z" stroke="#A7DB57" stroke-width="5.825"/></g><path d="m174.195 86.105-59.612 37.614 7.823 12.665 16.5-10.352v-8.11h12.982l30.301-18.911-7.994-12.906Zm10.078 16.253-24.904 15.598h27.876l4.783-3.002-7.755-12.596Zm9.839 15.944-6.32 3.934v7.315h-11.649l-16.193 10.146h26.441l15.134-9.49-7.413-11.905Zm-53.293 11.249-16.295 10.215 7.789 12.596 6.696-4.21v-8.455h13.494l16.192-10.146h-27.876Zm62.756 4.038-15.715 9.835v7.868h-12.571l-31.429 19.67 7.994 12.906 59.612-37.614-7.891-12.665ZM141.4 151.292l-7.003 4.383 7.379 11.905 26.031-16.322H141.4v.034Z" fill="#333"/></g><defs><radialGradient id="a" cx="0" cy="0" r="1" gradientUnits="userSpaceOnUse" gradientTransform="matrix(0 -37.0588 37.0588 0 154 75.559)"><stop stop-color="#BB3232"/><stop offset=".521" stop-color="#424EBA"/><stop offset="1" stop-color="#BA4242"/></radialGradient><radialGradient id="b" cx="0" cy="0" r="1" gradientUnits="userSpaceOnUse" gradientTransform="rotate(90 29.956 231.691) scale(102.353)"><stop stop-color="#BB8432"/><stop offset=".521" stop-color="#42BA72"/><stop offset="1" stop-color="#BB8432"/></radialGradient><radialGradient id="c" cx="0" cy="0" r="1" gradientUnits="userSpaceOnUse" gradientTransform="rotate(90 -87.838 182.72) scale(30.8824)"><stop stop-color="#BB3232"/><stop offset=".521" stop-color="#424EBA"/><stop offset="1" stop-color="#BA4242"/></radialGradient><radialGradient id="d" cx="0" cy="0" r="1" gradientUnits="userSpaceOnUse" gradientTransform="rotate(90 35.554 162.735) scale(12.0962)"><stop stop-color="#BB3232"/><stop offset=".521" stop-color="#424EBA"/><stop offset="1" stop-color="#BA4242"/></radialGradient><radialGradient id="e" cx="0" cy="0" r="1" gradientUnits="userSpaceOnUse" gradientTransform="rotate(90 52.791 179.972) scale(12.0962)"><stop stop-color="#BB8432"/><stop offset=".521" stop-color="#42BA72"/><stop offset="1" stop-color="#BB8432"/></radialGradient><radialGradient id="f" cx="0" cy="0" r="1" gradientUnits="userSpaceOnUse" gradientTransform="rotate(90 87.265 214.446) scale(12.0962)"><stop stop-color="#32A2BB"/><stop offset=".521" stop-color="#A9BA42"/><stop offset="1" stop-color="#32A2BB"/></radialGradient><radialGradient id="g" cx="0" cy="0" r="1" gradientUnits="userSpaceOnUse" gradientTransform="rotate(90 70.33 231.38) scale(12.0962)"><stop stop-color="#BB3232"/><stop offset=".521" stop-color="#424EBA"/><stop offset="1" stop-color="#BA4242"/></radialGradient><radialGradient id="h" cx="0" cy="0" r="1" gradientUnits="userSpaceOnUse" gradientTransform="rotate(90 53.093 214.144) scale(12.0962)"><stop stop-color="#BB8432"/><stop offset=".521" stop-color="#42BA72"/><stop offset="1" stop-color="#BB8432"/></radialGradient><radialGradient id="i" cx="0" cy="0" r="1" gradientUnits="userSpaceOnUse" gradientTransform="rotate(90 35.856 196.907) scale(12.0962)"><stop stop-color="#97BB32"/><stop offset=".521" stop-color="#BA4291"/><stop offset="1" stop-color="#97BB32"/></radialGradient><radialGradient id="j" cx="0" cy="0" r="1" gradientUnits="userSpaceOnUse" gradientTransform="rotate(90 18.62 179.67) scale(12.0962)"><stop stop-color="#32A2BB"/><stop offset=".521" stop-color="#A9BA42"/><stop offset="1" stop-color="#32A2BB"/></radialGradient><filter id="k" x="53.624" y="26.785" width="261.508" height="217.813" filterUnits="userSpaceOnUse" color-interpolation-filters="sRGB"><feFlood flood-opacity="0" result="BackgroundImageFix"/><feColorMatrix in="SourceAlpha" values="0 0 0 0 0 0 0 0 0 0 0 0 0 0 0 0 0 0 127 0" result="hardAlpha"/><feOffset/><feGaussianBlur stdDeviation="18.203"/><feComposite in2="hardAlpha" operator="out"/><feColorMatrix values="0 0 0 0 0 0 0 0 0 0 0 0 0 0 0 0 0 0 0.05 0"/><feBlend in2="BackgroundImageFix" result="effect1_dropShadow_919_70309"/><feBlend in="SourceGraphic" in2="effect1_dropShadow_919_70309" result="shape"/></filter><filter id="m" x="65.031" y="38.191" width="195" height="195" filterUnits="userSpaceOnUse" color-interpolation-filters="sRGB"><feFlood flood-opacity="0" result="BackgroundImageFix"/><feColorMatrix in="SourceAlpha" values="0 0 0 0 0 0 0 0 0 0 0 0 0 0 0 0 0 0 127 0" result="hardAlpha"/><feOffset/><feGaussianBlur stdDeviation="12.5"/><feComposite in2="hardAlpha" operator="out"/><feColorMatrix values="0 0 0 0 0 0 0 0 0 0 0 0 0 0 0 0 0 0 0.05 0"/><feBlend in2="BackgroundImageFix" result="effect1_dropShadow_919_70309"/><feBlend in="SourceGraphic" in2="effect1_dropShadow_919_70309" result="shape"/></filter><linearGradient id="l" x1="163.992" y1="133.107" x2="270" y2="127.5" gradientUnits="userSpaceOnUse"><stop stop-color="#567CDC"/><stop offset="1" stop-color="#567CDC" stop-opacity="0"/></linearGradient></defs></svg>
