<svg width="500" height="385" viewBox="0 0 500 385" fill="none" xmlns="http://www.w3.org/2000/svg"><path fill-rule="evenodd" clip-rule="evenodd" d="M290.251 138.077C324.672 138.077 352.577 110.172 352.577 75.7509C352.577 41.3293 324.672 13.4251 290.251 13.4251C255.829 13.4251 227.925 41.3293 227.925 75.7509C227.925 110.172 255.829 138.077 290.251 138.077ZM290.251 145.002C328.497 145.002 359.502 113.997 359.502 75.7509C359.502 37.5047 328.497 6.5 290.251 6.5C252.005 6.5 221 37.5047 221 75.7509C221 113.997 252.005 145.002 290.251 145.002Z" fill="black" fill-opacity="0.05"/><circle cx="367.56" cy="312.06" r="7.56014" fill="black" fill-opacity="0.02"/><circle cx="393.629" cy="146.129" r="3.62887" fill="black" fill-opacity="0.1"/><path fill-rule="evenodd" clip-rule="evenodd" d="M132.467 68.588C136.676 68.588 140.088 65.1761 140.088 60.9674C140.088 56.7586 136.676 53.3467 132.467 53.3467C128.259 53.3467 124.847 56.7586 124.847 60.9674C124.847 65.1761 128.259 68.588 132.467 68.588ZM132.467 69.4347C137.144 69.4347 140.935 65.6437 140.935 60.9674C140.935 56.291 137.144 52.5 132.467 52.5C127.791 52.5 124 56.291 124 60.9674C124 65.6437 127.791 69.4347 132.467 69.4347Z" fill="black" fill-opacity="0.05"/><path opacity="0.1" fill-rule="evenodd" clip-rule="evenodd" d="M192 344.627C236.253 344.627 272.127 308.753 272.127 264.5C272.127 220.247 236.253 184.373 192 184.373C147.747 184.373 111.873 220.247 111.873 264.5C111.873 308.753 147.747 344.627 192 344.627ZM192 360.5C245.019 360.5 288 317.519 288 264.5C288 211.481 245.019 168.5 192 168.5C138.981 168.5 96 211.481 96 264.5C96 317.519 138.981 360.5 192 360.5Z" fill="#A7DB57"/><rect opacity="0.5" x="89" y="91.5" width="103" height="6" rx="3" fill="black" fill-opacity="0.2"/><path opacity="0.5" d="M173 265C173 269.694 176.674 273.5 181.206 273.5H446.794C451.326 273.5 455 269.694 455 265V265C455 260.306 451.326 256.5 446.794 256.5H181.206C176.674 256.5 173 260.306 173 265V265Z" fill="black" fill-opacity="0.2"/><g opacity="0.5"><path d="M365 183.786C365 183.076 365.574 182.5 366.282 182.5H407.718C408.426 182.5 409 183.076 409 183.786C409 184.496 408.426 185.071 407.718 185.071H366.282C365.574 185.071 365 184.496 365 183.786Z" fill="black" fill-opacity="0.1"/><path d="M365 186.357C365 186.12 365.191 185.929 365.427 185.929H392.767C393.003 185.929 393.194 186.12 393.194 186.357C393.194 186.594 393.003 186.786 392.767 186.786H365.427C365.191 186.786 365 186.594 365 186.357Z" fill="black" fill-opacity="0.1"/><path d="M365 188.071C365 187.835 365.191 187.643 365.427 187.643H380.806C381.042 187.643 381.233 187.835 381.233 188.071C381.233 188.308 381.042 188.5 380.806 188.5H365.427C365.191 188.5 365 188.308 365 188.071Z" fill="black" fill-opacity="0.1"/></g><g opacity="0.5"><path d="M168 136.786C168 136.076 167.426 135.5 166.718 135.5H125.282C124.574 135.5 124 136.076 124 136.786C124 137.496 124.574 138.071 125.282 138.071H166.718C167.426 138.071 168 137.496 168 136.786Z" fill="black" fill-opacity="0.1"/><path d="M168 139.357C168 139.12 167.809 138.929 167.573 138.929H140.233C139.997 138.929 139.806 139.12 139.806 139.357C139.806 139.594 139.997 139.786 140.233 139.786H167.573C167.809 139.786 168 139.594 168 139.357Z" fill="black" fill-opacity="0.1"/><path d="M168 141.071C168 140.835 167.809 140.643 167.573 140.643H152.194C151.958 140.643 151.767 140.835 151.767 141.071C151.767 141.308 151.958 141.5 152.194 141.5H167.573C167.809 141.5 168 141.308 168 141.071Z" fill="black" fill-opacity="0.1"/></g><g opacity="0.05" clip-path="url(#clip0_919_72499)"><ellipse cx="184" cy="208.441" rx="10.9412" ry="10.9412" fill="#3E0F18"/><ellipse cx="162.117" cy="219.382" rx="10.9412" ry="10.9412" fill="#229133"/><ellipse cx="205.882" cy="219.382" rx="10.9412" ry="10.9412" fill="#98E7E7"/><circle cx="184" cy="233.971" r="10.9412" fill="#D13D5B"/><ellipse cx="227.764" cy="233.971" rx="10.9412" ry="10.9412" fill="#3E120F"/><ellipse cx="140.235" cy="233.971" rx="10.9412" ry="10.9412" fill="#3E120F"/><ellipse cx="162.117" cy="244.912" rx="10.9412" ry="10.9412" fill="#98D8E7"/><ellipse cx="205.882" cy="244.912" rx="10.9412" ry="10.9412" fill="#98D8E7"/><ellipse cx="184" cy="285.029" rx="10.9412" ry="10.9412" fill="#98D8E7"/><ellipse cx="227.764" cy="285.029" rx="10.9412" ry="10.9412" fill="#3E0F18"/><ellipse cx="140.235" cy="285.029" rx="10.9412" ry="10.9412" fill="#3E0F18"/><ellipse cx="162.117" cy="295.971" rx="10.9412" ry="10.9412" fill="#229133"/><circle cx="205.882" cy="295.971" r="10.9412" fill="#98E7E7"/><ellipse cx="184" cy="310.559" rx="10.9412" ry="10.9412" fill="#3E120F"/><ellipse cx="184" cy="259.5" rx="10.9412" ry="10.9412" fill="#3C0F3E"/><ellipse cx="227.764" cy="259.5" rx="10.9412" ry="10.9412" fill="#229133"/><ellipse cx="140.235" cy="259.5" rx="10.9412" ry="10.9412" fill="#98E7E7"/><ellipse cx="162.117" cy="270.441" rx="10.9412" ry="10.9412" fill="#D13D5B"/><ellipse cx="205.882" cy="270.441" rx="10.9412" ry="10.9412" fill="#D13D5B"/></g><circle cx="111" cy="147.5" r="5" fill="black" fill-opacity="0.02"/><path d="M162 48.2017C162 34.5593 173.321 23.5 187.286 23.5H313.714C327.679 23.5 339 34.5594 339 48.2018V350.798C339 364.441 327.679 375.5 313.714 375.5H187.286C173.321 375.5 162 364.441 162 350.798V48.2017Z" fill="white"/><path fill-rule="evenodd" clip-rule="evenodd" d="M187.286 25.5H313.714C326.619 25.5 337 35.7077 337 48.2018V350.798C337 363.292 326.619 373.5 313.714 373.5H187.286C174.381 373.5 164 363.292 164 350.798V48.2017C164 35.7077 174.381 25.5 187.286 25.5ZM187.286 29.5H313.714C324.498 29.5 333 38.0044 333 48.2018V350.798C333 360.996 324.498 369.5 313.714 369.5H187.286C176.502 369.5 168 360.996 168 350.798V48.2017C168 38.0044 176.502 29.5 187.286 29.5Z" fill="black" fill-opacity="0.3"/><path fill-rule="evenodd" clip-rule="evenodd" d="M187.286 29.5H313.714C324.498 29.5 333 38.0044 333 48.2018V350.798C333 360.996 324.498 369.5 313.714 369.5H187.286C176.502 369.5 168 360.996 168 350.798V48.2017C168 38.0044 176.502 29.5 187.286 29.5ZM187.286 32.5H313.714C322.908 32.5 330 39.727 330 48.2018V350.798C330 359.273 322.908 366.5 313.714 366.5H187.286C178.092 366.5 171 359.273 171 350.798V48.2017C171 39.727 178.092 32.5 187.286 32.5Z" fill="black" fill-opacity="0.6"/><rect x="178.935" y="42.8299" width="9.07216" height="2.41924" rx="1.20962" fill="black" fill-opacity="0.2"/><rect x="281.752" y="42.8298" width="9.07216" height="2.41924" rx="1.20962" fill="black" fill-opacity="0.2"/><rect x="302.316" y="42.8298" width="9.07216" height="2.41924" rx="1.20962" fill="black" fill-opacity="0.2"/><rect x="189.216" y="42.8298" width="9.07216" height="2.41924" rx="1.20962" fill="black" fill-opacity="0.2"/><rect x="292.034" y="42.8298" width="9.07216" height="2.41924" rx="1.20962" fill="black" fill-opacity="0.2"/><rect x="312.598" y="42.8298" width="9.07216" height="2.41924" rx="1.20962" fill="black" fill-opacity="0.2"/><circle cx="250.302" cy="41.0395" r="4.83849" fill="black" fill-opacity="0.2"/><g opacity="0.1" clip-path="url(#clip1_919_72499)"><ellipse cx="198" cy="82.9118" rx="1.41176" ry="1.41176" fill="#666666"/><ellipse cx="195.176" cy="84.3235" rx="1.41177" ry="1.41176" fill="#333333"/><ellipse cx="200.823" cy="84.3235" rx="1.41176" ry="1.41176" fill="#222222"/><ellipse cx="198" cy="86.2059" rx="1.41176" ry="1.41176" fill="#BBBBBB"/><ellipse cx="203.647" cy="86.2059" rx="1.41177" ry="1.41176" fill="#AAAAAA"/><ellipse cx="192.353" cy="86.2059" rx="1.41176" ry="1.41176" fill="#AAAAAA"/><ellipse cx="195.176" cy="87.6176" rx="1.41177" ry="1.41177" fill="#777777"/><ellipse cx="200.823" cy="87.6176" rx="1.41176" ry="1.41177" fill="#777777"/><ellipse cx="198" cy="92.7941" rx="1.41176" ry="1.41177" fill="#777777"/><ellipse cx="203.647" cy="92.7941" rx="1.41177" ry="1.41177" fill="#666666"/><ellipse cx="192.353" cy="92.7941" rx="1.41176" ry="1.41177" fill="#666666"/><ellipse cx="195.176" cy="94.2059" rx="1.41177" ry="1.41176" fill="#333333"/><ellipse cx="200.823" cy="94.2059" rx="1.41176" ry="1.41176" fill="#222222"/><ellipse cx="198" cy="96.0882" rx="1.41176" ry="1.41177" fill="#AAAAAA"/><ellipse cx="198" cy="89.5" rx="1.41176" ry="1.41177" fill="#EEEEEE"/><ellipse cx="203.647" cy="89.5" rx="1.41177" ry="1.41177" fill="#333333"/><ellipse cx="192.353" cy="89.5" rx="1.41176" ry="1.41177" fill="#222222"/><ellipse cx="195.176" cy="90.9118" rx="1.41177" ry="1.41176" fill="#BBBBBB"/><circle cx="200.823" cy="90.9118" r="1.41176" fill="#BBBBBB"/></g><circle opacity="0.5" cx="198" cy="89.5" r="11" stroke="black" stroke-opacity="0.2" stroke-width="2"/><rect opacity="0.5" x="214" y="82.5" width="103" height="6" rx="3" fill="black" fill-opacity="0.1"/><rect opacity="0.5" x="214" y="90.5" width="66" height="2" rx="1" fill="black" fill-opacity="0.1"/><rect opacity="0.5" x="214" y="94.5" width="38" height="2" rx="1" fill="black" fill-opacity="0.1"/><g opacity="0.1" clip-path="url(#clip2_919_72499)"><ellipse cx="198" cy="150.912" rx="1.41176" ry="1.41176" fill="#666666"/><ellipse cx="195.176" cy="152.324" rx="1.41177" ry="1.41176" fill="#333333"/><ellipse cx="200.823" cy="152.324" rx="1.41176" ry="1.41176" fill="#222222"/><ellipse cx="198" cy="154.206" rx="1.41176" ry="1.41176" fill="#BBBBBB"/><ellipse cx="203.647" cy="154.206" rx="1.41177" ry="1.41176" fill="#AAAAAA"/><ellipse cx="192.353" cy="154.206" rx="1.41176" ry="1.41176" fill="#AAAAAA"/><ellipse cx="195.176" cy="155.618" rx="1.41177" ry="1.41177" fill="#777777"/><ellipse cx="200.823" cy="155.618" rx="1.41176" ry="1.41177" fill="#777777"/><ellipse cx="198" cy="160.794" rx="1.41176" ry="1.41177" fill="#777777"/><ellipse cx="203.647" cy="160.794" rx="1.41177" ry="1.41177" fill="#666666"/><ellipse cx="192.353" cy="160.794" rx="1.41176" ry="1.41177" fill="#666666"/><ellipse cx="195.176" cy="162.206" rx="1.41177" ry="1.41176" fill="#333333"/><ellipse cx="200.823" cy="162.206" rx="1.41176" ry="1.41176" fill="#222222"/><ellipse cx="198" cy="164.088" rx="1.41176" ry="1.41177" fill="#AAAAAA"/><ellipse cx="198" cy="157.5" rx="1.41176" ry="1.41177" fill="#EEEEEE"/><ellipse cx="203.647" cy="157.5" rx="1.41177" ry="1.41177" fill="#333333"/><ellipse cx="192.353" cy="157.5" rx="1.41176" ry="1.41177" fill="#222222"/><ellipse cx="195.176" cy="158.912" rx="1.41177" ry="1.41176" fill="#BBBBBB"/><circle cx="200.823" cy="158.912" r="1.41176" fill="#BBBBBB"/></g><circle opacity="0.5" cx="198" cy="157.5" r="11" stroke="black" stroke-opacity="0.2" stroke-width="2"/><rect opacity="0.5" x="214" y="150.5" width="103" height="6" rx="3" fill="black" fill-opacity="0.1"/><rect opacity="0.5" x="214" y="158.5" width="66" height="2" rx="1" fill="black" fill-opacity="0.1"/><rect opacity="0.5" x="214" y="162.5" width="38" height="2" rx="1" fill="black" fill-opacity="0.1"/><g opacity="0.1" clip-path="url(#clip3_919_72499)"><ellipse cx="198" cy="218.912" rx="1.41176" ry="1.41176" fill="#666666"/><ellipse cx="195.176" cy="220.324" rx="1.41177" ry="1.41176" fill="#333333"/><ellipse cx="200.823" cy="220.324" rx="1.41176" ry="1.41176" fill="#222222"/><ellipse cx="198" cy="222.206" rx="1.41176" ry="1.41176" fill="#BBBBBB"/><ellipse cx="203.647" cy="222.206" rx="1.41177" ry="1.41176" fill="#AAAAAA"/><ellipse cx="192.353" cy="222.206" rx="1.41176" ry="1.41176" fill="#AAAAAA"/><ellipse cx="195.176" cy="223.618" rx="1.41177" ry="1.41177" fill="#777777"/><ellipse cx="200.823" cy="223.618" rx="1.41176" ry="1.41177" fill="#777777"/><ellipse cx="198" cy="228.794" rx="1.41176" ry="1.41177" fill="#777777"/><ellipse cx="203.647" cy="228.794" rx="1.41177" ry="1.41177" fill="#666666"/><ellipse cx="192.353" cy="228.794" rx="1.41176" ry="1.41177" fill="#666666"/><ellipse cx="195.176" cy="230.206" rx="1.41177" ry="1.41176" fill="#333333"/><ellipse cx="200.823" cy="230.206" rx="1.41176" ry="1.41176" fill="#222222"/><ellipse cx="198" cy="232.088" rx="1.41176" ry="1.41177" fill="#AAAAAA"/><ellipse cx="198" cy="225.5" rx="1.41176" ry="1.41177" fill="#EEEEEE"/><ellipse cx="203.647" cy="225.5" rx="1.41177" ry="1.41177" fill="#333333"/><ellipse cx="192.353" cy="225.5" rx="1.41176" ry="1.41177" fill="#222222"/><ellipse cx="195.176" cy="226.912" rx="1.41177" ry="1.41176" fill="#BBBBBB"/><circle cx="200.823" cy="226.912" r="1.41176" fill="#BBBBBB"/></g><circle opacity="0.5" cx="198" cy="225.5" r="11" stroke="black" stroke-opacity="0.2" stroke-width="2"/><rect opacity="0.5" x="214" y="218.5" width="103" height="6" rx="3" fill="black" fill-opacity="0.1"/><rect opacity="0.5" x="214" y="226.5" width="66" height="2" rx="1" fill="black" fill-opacity="0.1"/><rect opacity="0.5" x="214" y="230.5" width="38" height="2" rx="1" fill="black" fill-opacity="0.1"/><g opacity="0.1" clip-path="url(#clip4_919_72499)"><ellipse cx="198" cy="286.912" rx="1.41176" ry="1.41176" fill="#666666"/><ellipse cx="195.176" cy="288.324" rx="1.41177" ry="1.41176" fill="#333333"/><ellipse cx="200.823" cy="288.324" rx="1.41176" ry="1.41176" fill="#222222"/><ellipse cx="198" cy="290.206" rx="1.41176" ry="1.41176" fill="#BBBBBB"/><ellipse cx="203.647" cy="290.206" rx="1.41177" ry="1.41176" fill="#AAAAAA"/><ellipse cx="192.353" cy="290.206" rx="1.41176" ry="1.41176" fill="#AAAAAA"/><ellipse cx="195.176" cy="291.618" rx="1.41177" ry="1.41177" fill="#777777"/><ellipse cx="200.823" cy="291.618" rx="1.41176" ry="1.41177" fill="#777777"/><ellipse cx="198" cy="296.794" rx="1.41176" ry="1.41177" fill="#777777"/><ellipse cx="203.647" cy="296.794" rx="1.41177" ry="1.41177" fill="#666666"/><ellipse cx="192.353" cy="296.794" rx="1.41176" ry="1.41177" fill="#666666"/><ellipse cx="195.176" cy="298.206" rx="1.41177" ry="1.41176" fill="#333333"/><ellipse cx="200.823" cy="298.206" rx="1.41176" ry="1.41176" fill="#222222"/><ellipse cx="198" cy="300.088" rx="1.41176" ry="1.41177" fill="#AAAAAA"/><ellipse cx="198" cy="293.5" rx="1.41176" ry="1.41177" fill="#EEEEEE"/><ellipse cx="203.647" cy="293.5" rx="1.41177" ry="1.41177" fill="#333333"/><ellipse cx="192.353" cy="293.5" rx="1.41176" ry="1.41177" fill="#222222"/><ellipse cx="195.176" cy="294.912" rx="1.41177" ry="1.41176" fill="#BBBBBB"/><circle cx="200.823" cy="294.912" r="1.41176" fill="#BBBBBB"/></g><circle opacity="0.5" cx="198" cy="293.5" r="11" stroke="black" stroke-opacity="0.2" stroke-width="2"/><rect opacity="0.5" x="214" y="286.5" width="103" height="6" rx="3" fill="black" fill-opacity="0.1"/><rect opacity="0.5" x="214" y="294.5" width="66" height="2" rx="1" fill="black" fill-opacity="0.1"/><rect opacity="0.5" x="214" y="298.5" width="38" height="2" rx="1" fill="black" fill-opacity="0.1"/><g opacity="0.1" clip-path="url(#clip5_919_72499)"><ellipse cx="198" cy="116.912" rx="1.41176" ry="1.41176" fill="#666666"/><ellipse cx="195.176" cy="118.324" rx="1.41177" ry="1.41176" fill="#333333"/><ellipse cx="200.823" cy="118.324" rx="1.41176" ry="1.41176" fill="#222222"/><ellipse cx="198" cy="120.206" rx="1.41176" ry="1.41176" fill="#BBBBBB"/><ellipse cx="203.647" cy="120.206" rx="1.41177" ry="1.41176" fill="#AAAAAA"/><ellipse cx="192.353" cy="120.206" rx="1.41176" ry="1.41176" fill="#AAAAAA"/><ellipse cx="195.176" cy="121.618" rx="1.41177" ry="1.41177" fill="#777777"/><ellipse cx="200.823" cy="121.618" rx="1.41176" ry="1.41177" fill="#777777"/><ellipse cx="198" cy="126.794" rx="1.41176" ry="1.41177" fill="#777777"/><ellipse cx="203.647" cy="126.794" rx="1.41177" ry="1.41177" fill="#666666"/><ellipse cx="192.353" cy="126.794" rx="1.41176" ry="1.41177" fill="#666666"/><ellipse cx="195.176" cy="128.206" rx="1.41177" ry="1.41176" fill="#333333"/><ellipse cx="200.823" cy="128.206" rx="1.41176" ry="1.41176" fill="#222222"/><ellipse cx="198" cy="130.088" rx="1.41176" ry="1.41177" fill="#AAAAAA"/><ellipse cx="198" cy="123.5" rx="1.41176" ry="1.41177" fill="#EEEEEE"/><ellipse cx="203.647" cy="123.5" rx="1.41177" ry="1.41177" fill="#333333"/><ellipse cx="192.353" cy="123.5" rx="1.41176" ry="1.41177" fill="#222222"/><ellipse cx="195.176" cy="124.912" rx="1.41177" ry="1.41176" fill="#BBBBBB"/><circle cx="200.823" cy="124.912" r="1.41176" fill="#BBBBBB"/></g><circle opacity="0.5" cx="198" cy="123.5" r="11" stroke="black" stroke-opacity="0.2" stroke-width="2"/><rect opacity="0.5" x="214" y="116.5" width="103" height="6" rx="3" fill="black" fill-opacity="0.1"/><rect opacity="0.5" x="214" y="124.5" width="66" height="2" rx="1" fill="black" fill-opacity="0.1"/><rect opacity="0.5" x="214" y="128.5" width="38" height="2" rx="1" fill="black" fill-opacity="0.1"/><g opacity="0.5" clip-path="url(#clip6_919_72499)"><ellipse cx="198" cy="184.912" rx="1.41176" ry="1.41176" fill="#3E0F18"/><ellipse cx="195.176" cy="186.324" rx="1.41177" ry="1.41176" fill="#229133"/><ellipse cx="200.823" cy="186.324" rx="1.41176" ry="1.41176" fill="#98E7E7"/><ellipse cx="198" cy="188.206" rx="1.41176" ry="1.41176" fill="#D13D5B"/><ellipse cx="203.647" cy="188.206" rx="1.41177" ry="1.41176" fill="#3E120F"/><ellipse cx="192.353" cy="188.206" rx="1.41176" ry="1.41176" fill="#3E120F"/><ellipse cx="195.176" cy="189.618" rx="1.41177" ry="1.41177" fill="#98D8E7"/><ellipse cx="200.823" cy="189.618" rx="1.41176" ry="1.41177" fill="#98D8E7"/><ellipse cx="198" cy="194.794" rx="1.41176" ry="1.41177" fill="#98D8E7"/><ellipse cx="203.647" cy="194.794" rx="1.41177" ry="1.41177" fill="#3E0F18"/><ellipse cx="192.353" cy="194.794" rx="1.41176" ry="1.41177" fill="#3E0F18"/><ellipse cx="195.176" cy="196.206" rx="1.41177" ry="1.41176" fill="#229133"/><ellipse cx="200.823" cy="196.206" rx="1.41176" ry="1.41176" fill="#98E7E7"/><ellipse cx="198" cy="198.088" rx="1.41176" ry="1.41177" fill="#3E120F"/><ellipse cx="198" cy="191.5" rx="1.41176" ry="1.41177" fill="#3C0F3E"/><ellipse cx="203.647" cy="191.5" rx="1.41177" ry="1.41177" fill="#229133"/><ellipse cx="192.353" cy="191.5" rx="1.41176" ry="1.41177" fill="#98E7E7"/><ellipse cx="195.176" cy="192.912" rx="1.41177" ry="1.41176" fill="#D13D5B"/><circle cx="200.823" cy="192.912" r="1.41176" fill="#D13D5B"/></g><circle opacity="0.5" cx="198" cy="191.5" r="11" stroke="black" stroke-opacity="0.3" stroke-width="2"/><rect opacity="0.5" x="214" y="184.5" width="103" height="6" rx="3" fill="black" fill-opacity="0.3"/><rect opacity="0.5" x="214" y="192.5" width="66" height="2" rx="1" fill="black" fill-opacity="0.3"/><rect opacity="0.5" x="214" y="196.5" width="38" height="2" rx="1" fill="black" fill-opacity="0.3"/><g opacity="0.1" clip-path="url(#clip7_919_72499)"><ellipse cx="198" cy="252.912" rx="1.41176" ry="1.41176" fill="#666666"/><ellipse cx="195.176" cy="254.324" rx="1.41177" ry="1.41176" fill="#333333"/><ellipse cx="200.823" cy="254.324" rx="1.41176" ry="1.41176" fill="#222222"/><ellipse cx="198" cy="256.206" rx="1.41176" ry="1.41176" fill="#BBBBBB"/><ellipse cx="203.647" cy="256.206" rx="1.41177" ry="1.41176" fill="#AAAAAA"/><ellipse cx="192.353" cy="256.206" rx="1.41176" ry="1.41176" fill="#AAAAAA"/><ellipse cx="195.176" cy="257.618" rx="1.41177" ry="1.41177" fill="#777777"/><ellipse cx="200.823" cy="257.618" rx="1.41176" ry="1.41177" fill="#777777"/><ellipse cx="198" cy="262.794" rx="1.41176" ry="1.41177" fill="#777777"/><ellipse cx="203.647" cy="262.794" rx="1.41177" ry="1.41177" fill="#666666"/><ellipse cx="192.353" cy="262.794" rx="1.41176" ry="1.41177" fill="#666666"/><ellipse cx="195.176" cy="264.206" rx="1.41177" ry="1.41176" fill="#333333"/><ellipse cx="200.823" cy="264.206" rx="1.41176" ry="1.41176" fill="#222222"/><ellipse cx="198" cy="266.088" rx="1.41176" ry="1.41177" fill="#AAAAAA"/><ellipse cx="198" cy="259.5" rx="1.41176" ry="1.41177" fill="#EEEEEE"/><ellipse cx="203.647" cy="259.5" rx="1.41177" ry="1.41177" fill="#333333"/><ellipse cx="192.353" cy="259.5" rx="1.41176" ry="1.41177" fill="#222222"/><ellipse cx="195.176" cy="260.912" rx="1.41177" ry="1.41176" fill="#BBBBBB"/><circle cx="200.823" cy="260.912" r="1.41176" fill="#BBBBBB"/></g><circle opacity="0.5" cx="198" cy="259.5" r="11" stroke="black" stroke-opacity="0.2" stroke-width="2"/><rect opacity="0.5" x="214" y="252.5" width="103" height="6" rx="3" fill="black" fill-opacity="0.1"/><rect opacity="0.5" x="214" y="260.5" width="66" height="2" rx="1" fill="black" fill-opacity="0.1"/><rect opacity="0.5" x="214" y="264.5" width="38" height="2" rx="1" fill="black" fill-opacity="0.1"/><g opacity="0.1" clip-path="url(#clip8_919_72499)"><ellipse cx="198" cy="320.912" rx="1.41176" ry="1.41176" fill="#666666"/><ellipse cx="195.176" cy="322.324" rx="1.41177" ry="1.41176" fill="#333333"/><ellipse cx="200.823" cy="322.324" rx="1.41176" ry="1.41176" fill="#222222"/><ellipse cx="198" cy="324.206" rx="1.41176" ry="1.41176" fill="#BBBBBB"/><ellipse cx="203.647" cy="324.206" rx="1.41177" ry="1.41176" fill="#AAAAAA"/><ellipse cx="192.353" cy="324.206" rx="1.41176" ry="1.41176" fill="#AAAAAA"/><ellipse cx="195.176" cy="325.618" rx="1.41177" ry="1.41177" fill="#777777"/><ellipse cx="200.823" cy="325.618" rx="1.41176" ry="1.41177" fill="#777777"/><ellipse cx="198" cy="330.794" rx="1.41176" ry="1.41177" fill="#777777"/><ellipse cx="203.647" cy="330.794" rx="1.41177" ry="1.41177" fill="#666666"/><ellipse cx="192.353" cy="330.794" rx="1.41176" ry="1.41177" fill="#666666"/><ellipse cx="195.176" cy="332.206" rx="1.41177" ry="1.41176" fill="#333333"/><ellipse cx="200.823" cy="332.206" rx="1.41176" ry="1.41176" fill="#222222"/><ellipse cx="198" cy="334.088" rx="1.41176" ry="1.41177" fill="#AAAAAA"/><ellipse cx="198" cy="327.5" rx="1.41176" ry="1.41177" fill="#EEEEEE"/><ellipse cx="203.647" cy="327.5" rx="1.41177" ry="1.41177" fill="#333333"/><ellipse cx="192.353" cy="327.5" rx="1.41176" ry="1.41177" fill="#222222"/><ellipse cx="195.176" cy="328.912" rx="1.41177" ry="1.41176" fill="#BBBBBB"/><circle cx="200.823" cy="328.912" r="1.41176" fill="#BBBBBB"/></g><circle opacity="0.5" cx="198" cy="327.5" r="11" stroke="black" stroke-opacity="0.2" stroke-width="2"/><rect opacity="0.5" x="214" y="320.5" width="103" height="6" rx="3" fill="black" fill-opacity="0.1"/><rect opacity="0.5" x="214" y="328.5" width="66" height="2" rx="1" fill="black" fill-opacity="0.1"/><rect opacity="0.5" x="214" y="332.5" width="38" height="2" rx="1" fill="black" fill-opacity="0.1"/><circle cx="250.302" cy="41.0395" r="4.83849" fill="black" fill-opacity="0.2"/><g filter="url(#filter0_d_919_72499)"><path d="M333 196H168L119.5 123.5H380.5L333 196Z" fill="url(#paint0_linear_919_72499)"/><rect x="116" y="72.18" width="268.25" height="75.776" rx="37.888" fill="#A7DB57"/><ellipse rx="28.416" ry="27.75" transform="matrix(4.26869e-08 1 1 -4.47605e-08 155.776 109.121)" fill="white"/><g clip-path="url(#clip9_919_72499)"><ellipse rx="4.02469" ry="3.93036" transform="matrix(4.26869e-08 1 1 -4.47605e-08 137.897 109.594)" fill="#3E0F18"/><ellipse rx="4.02469" ry="3.93036" transform="matrix(4.26869e-08 1 1 -4.47605e-08 141.827 101.544)" fill="#229133"/><ellipse rx="4.02469" ry="3.93036" transform="matrix(4.26869e-08 1 1 -4.47605e-08 141.827 117.643)" fill="#98E7E7"/><ellipse rx="4.02469" ry="3.93036" transform="matrix(4.26869e-08 1 1 -4.47605e-08 147.068 109.594)" fill="#D13D5B"/><ellipse rx="4.02469" ry="3.93036" transform="matrix(4.26869e-08 1 1 -4.47605e-08 147.068 125.692)" fill="#3E120F"/><ellipse rx="4.02469" ry="3.93036" transform="matrix(4.26869e-08 1 1 -4.47605e-08 147.068 93.4948)" fill="#3E120F"/><ellipse rx="4.02469" ry="3.93036" transform="matrix(4.26869e-08 1 1 -4.47605e-08 150.998 101.544)" fill="#98D8E7"/><ellipse rx="4.02469" ry="3.93036" transform="matrix(4.26869e-08 1 1 -4.47605e-08 150.998 117.643)" fill="#98D8E7"/><ellipse rx="4.02469" ry="3.93036" transform="matrix(4.26869e-08 1 1 -4.47605e-08 165.409 109.594)" fill="#98D8E7"/><ellipse rx="4.02469" ry="3.93036" transform="matrix(4.26869e-08 1 1 -4.47605e-08 165.409 125.692)" fill="#3E0F18"/><ellipse rx="4.02469" ry="3.93036" transform="matrix(4.26869e-08 1 1 -4.47605e-08 165.409 93.4948)" fill="#3E0F18"/><ellipse rx="4.02469" ry="3.93036" transform="matrix(4.26869e-08 1 1 -4.47605e-08 169.34 101.544)" fill="#229133"/><ellipse rx="4.02469" ry="3.93036" transform="matrix(4.26869e-08 1 1 -4.47605e-08 169.34 117.643)" fill="#98E7E7"/><ellipse rx="4.02469" ry="3.93036" transform="matrix(4.26869e-08 1 1 -4.47605e-08 174.58 109.594)" fill="#3E120F"/><ellipse rx="4.02469" ry="3.93036" transform="matrix(4.26869e-08 1 1 -4.47605e-08 156.238 109.594)" fill="#3C0F3E"/><ellipse rx="4.02469" ry="3.93036" transform="matrix(4.26869e-08 1 1 -4.47605e-08 156.238 125.692)" fill="#229133"/><ellipse rx="4.02469" ry="3.93036" transform="matrix(4.26869e-08 1 1 -4.47605e-08 156.238 93.4948)" fill="#98E7E7"/><ellipse rx="4.02469" ry="3.93036" transform="matrix(4.26869e-08 1 1 -4.47605e-08 160.169 101.544)" fill="#D13D5B"/><ellipse rx="4.02469" ry="3.93036" transform="matrix(4.26869e-08 1 1 -4.47605e-08 160.169 117.643)" fill="#D13D5B"/></g><rect x="192" y="89.5" width="168" height="16" rx="8" fill="white"/><rect x="192" y="110.5" width="95" height="6" rx="3" fill="white" fill-opacity="0.25"/><rect x="192" y="120.5" width="55" height="6" rx="3" fill="white" fill-opacity="0.25"/></g><defs><filter id="filter0_d_919_72499" x="91" y="47.18" width="318.25" height="173.82" filterUnits="userSpaceOnUse" color-interpolation-filters="sRGB"><feFlood flood-opacity="0" result="BackgroundImageFix"/><feColorMatrix in="SourceAlpha" type="matrix" values="0 0 0 0 0 0 0 0 0 0 0 0 0 0 0 0 0 0 127 0" result="hardAlpha"/><feOffset/><feGaussianBlur stdDeviation="12.5"/><feComposite in2="hardAlpha" operator="out"/><feColorMatrix type="matrix" values="0 0 0 0 0 0 0 0 0 0 0 0 0 0 0 0 0 0 0.05 0"/><feBlend mode="normal" in2="BackgroundImageFix" result="effect1_dropShadow_919_72499"/><feBlend mode="normal" in="SourceGraphic" in2="effect1_dropShadow_919_72499" result="shape"/></filter><linearGradient id="paint0_linear_919_72499" x1="240" y1="69.5" x2="240" y2="193" gradientUnits="userSpaceOnUse"><stop stop-color="#A7DB57"/><stop offset="1" stop-color="#A7DB57" stop-opacity="0"/></linearGradient><clipPath id="clip0_919_72499"><rect width="124" height="124" fill="white" transform="translate(122 197.5)"/></clipPath><clipPath id="clip1_919_72499"><rect width="16" height="16" fill="white" transform="translate(190 81.5)"/></clipPath><clipPath id="clip2_919_72499"><rect width="16" height="16" fill="white" transform="translate(190 149.5)"/></clipPath><clipPath id="clip3_919_72499"><rect width="16" height="16" fill="white" transform="translate(190 217.5)"/></clipPath><clipPath id="clip4_919_72499"><rect width="16" height="16" fill="white" transform="translate(190 285.5)"/></clipPath><clipPath id="clip5_919_72499"><rect width="16" height="16" fill="white" transform="translate(190 115.5)"/></clipPath><clipPath id="clip6_919_72499"><rect width="16" height="16" fill="white" transform="translate(190 183.5)"/></clipPath><clipPath id="clip7_919_72499"><rect width="16" height="16" fill="white" transform="translate(190 251.5)"/></clipPath><clipPath id="clip8_919_72499"><rect width="16" height="16" fill="white" transform="translate(190 319.5)"/></clipPath><clipPath id="clip9_919_72499"><rect width="45.6131" height="44.5441" fill="white" transform="matrix(4.26869e-08 1 1 -4.47605e-08 133.966 86.7872)"/></clipPath></defs></svg>
