<svg width="500" height="385" viewBox="0 0 500 385" fill="none" xmlns="http://www.w3.org/2000/svg"><path fill-rule="evenodd" clip-rule="evenodd" d="M324.251 339.077c34.421 0 62.326-27.905 62.326-62.326 0-34.422-27.905-62.326-62.326-62.326-34.422 0-62.326 27.904-62.326 62.326 0 34.421 27.904 62.326 62.326 62.326Zm0 6.925c38.246 0 69.251-31.005 69.251-69.251 0-38.246-31.005-69.251-69.251-69.251-38.246 0-69.251 31.005-69.251 69.251 0 38.246 31.005 69.251 69.251 69.251Z" fill="#000" fill-opacity=".05"/><circle cx="142.56" cy="316.06" r="7.56" fill="#000" fill-opacity=".02"/><circle cx="146.629" cy="67.129" r="3.629" fill="#000" fill-opacity=".1"/><path fill-rule="evenodd" clip-rule="evenodd" d="M111.467 246.588a7.621 7.621 0 1 0 0-15.242 7.621 7.621 0 0 0 0 15.242Zm0 .847a8.468 8.468 0 1 0 0-16.935 8.468 8.468 0 0 0 0 16.935Z" fill="#000" fill-opacity=".05"/><path opacity=".1" fill-rule="evenodd" clip-rule="evenodd" d="M284.5 85.804c18.669 0 33.804-15.135 33.804-33.804 0-18.67-15.135-33.804-33.804-33.804-18.669 0-33.804 15.135-33.804 33.804 0 18.67 15.135 33.804 33.804 33.804Zm0 6.696c22.368 0 40.5-18.132 40.5-40.5 0-22.367-18.132-40.5-40.5-40.5S244 29.633 244 52c0 22.368 18.132 40.5 40.5 40.5Z" fill="#A7DB57"/><rect opacity=".5" x="262" y="87.5" width="103" height="6" rx="3" fill="#000" fill-opacity=".2"/><path opacity=".5" d="M76 156c0 4.694 3.909 8.5 8.73 8.5h282.54c4.821 0 8.73-3.806 8.73-8.5s-3.909-8.5-8.73-8.5H84.73c-4.821 0-8.73 3.806-8.73 8.5Z" fill="#000" fill-opacity=".2"/><g opacity=".5" fill="#000" fill-opacity=".1"><path d="M325 251.786c0-.71.574-1.286 1.282-1.286h41.436c.708 0 1.282.576 1.282 1.286 0 .71-.574 1.285-1.282 1.285h-41.436a1.283 1.283 0 0 1-1.282-1.285ZM325 254.357c0-.237.191-.428.427-.428h27.34a.428.428 0 0 1 0 .857h-27.34a.428.428 0 0 1-.427-.429ZM325 256.071c0-.236.191-.428.427-.428h15.379a.428.428 0 0 1 0 .857h-15.379a.428.428 0 0 1-.427-.429Z"/></g><g opacity=".5" fill="#000" fill-opacity=".1"><path d="M172 273.786c0-.71-.574-1.286-1.282-1.286h-41.436c-.708 0-1.282.576-1.282 1.286 0 .71.574 1.285 1.282 1.285h41.436c.708 0 1.282-.575 1.282-1.285ZM172 276.357a.427.427 0 0 0-.427-.428h-27.34a.428.428 0 0 0 0 .857h27.34a.428.428 0 0 0 .427-.429ZM172 278.071a.428.428 0 0 0-.427-.428h-15.379a.428.428 0 0 0 0 .857h15.379a.428.428 0 0 0 .427-.429Z"/></g><circle cx="366" cy="129.5" r="5" fill="#000" fill-opacity=".02"/><path d="M162 48.202c0-13.643 11.321-24.702 25.286-24.702h126.428C327.679 23.5 339 34.56 339 48.202v302.596c0 13.643-11.321 24.702-25.286 24.702H187.286c-13.965 0-25.286-11.059-25.286-24.702V48.202Z" fill="#fff"/><path fill-rule="evenodd" clip-rule="evenodd" d="M187.286 25.5h126.428C326.619 25.5 337 35.708 337 48.202v302.596c0 12.494-10.381 22.702-23.286 22.702H187.286c-12.905 0-23.286-10.208-23.286-22.702V48.202c0-12.494 10.381-22.702 23.286-22.702Zm0 4h126.428C324.498 29.5 333 38.004 333 48.202v302.596c0 10.198-8.502 18.702-19.286 18.702H187.286c-10.784 0-19.286-8.504-19.286-18.702V48.202c0-10.198 8.502-18.702 19.286-18.702Z" fill="#000" fill-opacity=".3"/><path fill-rule="evenodd" clip-rule="evenodd" d="M187.286 29.5h126.428C324.498 29.5 333 38.004 333 48.202v302.596c0 10.198-8.502 18.702-19.286 18.702H187.286c-10.784 0-19.286-8.504-19.286-18.702V48.202c0-10.198 8.502-18.702 19.286-18.702Zm0 3h126.428c9.194 0 16.286 7.227 16.286 15.702v302.596c0 8.475-7.092 15.702-16.286 15.702H187.286c-9.194 0-16.286-7.227-16.286-15.702V48.202c0-8.475 7.092-15.702 16.286-15.702Z" fill="#000" fill-opacity=".6"/><rect x="178.935" y="42.83" width="9.072" height="2.419" rx="1.21" fill="#000" fill-opacity=".2"/><rect x="281.752" y="42.83" width="9.072" height="2.419" rx="1.21" fill="#000" fill-opacity=".2"/><rect x="302.316" y="42.83" width="9.072" height="2.419" rx="1.21" fill="#000" fill-opacity=".2"/><rect x="189.216" y="42.83" width="9.072" height="2.419" rx="1.21" fill="#000" fill-opacity=".2"/><rect x="292.034" y="42.83" width="9.072" height="2.419" rx="1.21" fill="#000" fill-opacity=".2"/><rect x="312.598" y="42.83" width="9.072" height="2.419" rx="1.21" fill="#000" fill-opacity=".2"/><circle cx="250.302" cy="41.039" r="4.838" fill="#000" fill-opacity=".2"/><g opacity=".5" clip-path="url(#a)"><circle cx="198" cy="78.912" fill="#3E0F18" r="1.412"/><circle cx="195.176" cy="80.323" fill="#229133" r="1.412"/><circle cx="200.823" cy="80.323" fill="#98E7E7" r="1.412"/><circle cx="198" cy="82.206" fill="#D13D5B" r="1.412"/><circle cx="203.647" cy="82.206" fill="#3E120F" r="1.412"/><circle cx="192.353" cy="82.206" fill="#3E120F" r="1.412"/><circle cx="195.176" cy="83.618" fill="#98D8E7" r="1.412"/><circle cx="200.823" cy="83.618" fill="#98D8E7" r="1.412"/><circle cx="198" cy="88.794" fill="#98D8E7" r="1.412"/><circle cx="203.647" cy="88.794" fill="#3E0F18" r="1.412"/><circle cx="192.353" cy="88.794" fill="#3E0F18" r="1.412"/><circle cx="195.176" cy="90.206" fill="#229133" r="1.412"/><circle cx="200.823" cy="90.206" fill="#98E7E7" r="1.412"/><circle cx="198" cy="92.088" fill="#3E120F" r="1.412"/><circle cx="198" cy="85.5" fill="#3C0F3E" r="1.412"/><circle cx="203.647" cy="85.5" fill="#229133" r="1.412"/><circle cx="192.353" cy="85.5" fill="#98E7E7" r="1.412"/><circle cx="195.176" cy="86.912" fill="#D13D5B" r="1.412"/><circle cx="200.823" cy="86.912" r="1.412" fill="#D13D5B"/></g><circle opacity=".5" cx="198" cy="89.5" r="11" stroke="#000" stroke-opacity=".1" stroke-width="2"/><rect opacity=".5" x="214" y="78.5" width="103" height="6" rx="3" fill="#000" fill-opacity=".1"/><rect opacity=".5" x="214" y="86.5" width="66" height="2" rx="1" fill="#000" fill-opacity=".1"/><rect opacity=".5" x="186" y="106.5" width="131" height="4" rx="2" fill="#000" fill-opacity=".1"/><rect opacity=".5" x="186" y="120.5" width="92" height="4" rx="2" fill="#000" fill-opacity=".1"/><rect opacity=".5" x="214" y="90.5" width="38" height="2" rx="1" fill="#000" fill-opacity=".1"/><rect opacity=".5" x="186" y="113.5" width="72" height="4" rx="2" fill="#000" fill-opacity=".1"/><rect opacity=".5" x="186" y="127.5" width="41" height="4" rx="2" fill="#000" fill-opacity=".1"/><rect opacity=".5" x="186" y="341.5" width="116" height="2" rx="1" fill="#000" fill-opacity=".1"/><rect opacity=".5" x="186" y="333.5" width="52" height="2" rx="1" fill="#000" fill-opacity=".1"/><rect opacity=".5" x="186" y="337.5" width="83" height="2" rx="1" fill="#000" fill-opacity=".1"/><rect opacity=".5" width="116" height="2" rx="1" transform="matrix(1 0 0 -1 186 143.5)" fill="#000" fill-opacity=".1"/><rect opacity=".5" width="52" height="2" rx="1" transform="matrix(1 0 0 -1 186 151.5)" fill="#000" fill-opacity=".1"/><rect opacity=".5" width="83" height="2" rx="1" transform="matrix(1 0 0 -1 186 147.5)" fill="#000" fill-opacity=".1"/><rect x="186" y="177.5" width="131" height="131" rx="10" fill="#A7DB57"/><path d="M231.517 188h-3.724v3.814h3.724V188ZM235.241 188h-3.724v3.814h3.724V188ZM238.966 188h-3.725v3.814h3.725V188ZM257.586 188h-3.724v3.814h3.724V188ZM261.31 188h-3.724v3.814h3.724V188ZM265.034 188h-3.724v3.814h3.724V188ZM238.966 191.814h-3.725v3.813h3.725v-3.813ZM242.69 191.814h-3.724v3.813h3.724v-3.813ZM246.414 191.814h-3.724v3.813h3.724v-3.813ZM250.138 191.814h-3.724v3.813h3.724v-3.813ZM253.862 191.814h-3.724v3.813h3.724v-3.813ZM261.31 191.814h-3.724v3.813h3.724v-3.813ZM265.034 191.814h-3.724v3.813h3.724v-3.813ZM276.207 191.814h-3.724v3.813h3.724v-3.813ZM231.517 195.627h-3.724v3.814h3.724v-3.814ZM238.966 195.627h-3.725v3.814h3.725v-3.814ZM242.69 195.627h-3.724v3.814h3.724v-3.814ZM253.862 195.627h-3.724v3.814h3.724v-3.814ZM257.586 195.627h-3.724v3.814h3.724v-3.814ZM261.31 195.627h-3.724v3.814h3.724v-3.814ZM265.034 195.627h-3.724v3.814h3.724v-3.814ZM276.207 195.627h-3.724v3.814h3.724v-3.814ZM235.241 199.441h-3.724v3.813h3.724v-3.813ZM238.966 199.441h-3.725v3.813h3.725v-3.813ZM246.414 199.441h-3.724v3.813h3.724v-3.813ZM253.862 199.441h-3.724v3.813h3.724v-3.813ZM265.034 199.441h-3.724v3.813h3.724v-3.813ZM272.483 199.441h-3.724v3.813h3.724v-3.813ZM235.241 203.254h-3.724v3.814h3.724v-3.814ZM238.966 203.254h-3.725v3.814h3.725v-3.814ZM242.69 203.254h-3.724v3.814h3.724v-3.814ZM250.138 203.254h-3.724v3.814h3.724v-3.814ZM253.862 203.254h-3.724v3.814h3.724v-3.814ZM257.586 203.254h-3.724v3.814h3.724v-3.814ZM268.759 203.254h-3.725v3.814h3.725v-3.814ZM231.517 207.068h-3.724v3.813h3.724v-3.813ZM238.966 207.068h-3.725v3.813h3.725v-3.813ZM242.69 207.068h-3.724v3.813h3.724v-3.813ZM246.414 207.068h-3.724v3.813h3.724v-3.813ZM257.586 207.068h-3.724v3.813h3.724v-3.813ZM265.034 207.068h-3.724v3.813h3.724v-3.813ZM268.759 207.068h-3.725v3.813h3.725v-3.813ZM231.517 210.881h-3.724v3.814h3.724v-3.814ZM238.966 210.881h-3.725v3.814h3.725v-3.814ZM246.414 210.881h-3.724v3.814h3.724v-3.814ZM253.862 210.881h-3.724v3.814h3.724v-3.814ZM261.31 210.881h-3.724v3.814h3.724v-3.814ZM268.759 210.881h-3.725v3.814h3.725v-3.814ZM276.207 210.881h-3.724v3.814h3.724v-3.814ZM235.241 214.695h-3.724v3.813h3.724v-3.813ZM242.69 214.695h-3.724v3.813h3.724v-3.813ZM246.414 214.695h-3.724v3.813h3.724v-3.813ZM253.862 214.695h-3.724v3.813h3.724v-3.813ZM257.586 214.695h-3.724v3.813h3.724v-3.813ZM261.31 214.695h-3.724v3.813h3.724v-3.813ZM272.483 214.695h-3.724v3.813h3.724v-3.813ZM276.207 214.695h-3.724v3.813h3.724v-3.813ZM201.724 218.508H198v3.814h3.724v-3.814ZM209.172 218.508h-3.724v3.814h3.724v-3.814ZM224.069 218.508h-3.724v3.814h3.724v-3.814ZM227.793 218.508h-3.724v3.814h3.724v-3.814ZM250.138 218.508h-3.724v3.814h3.724v-3.814ZM253.862 218.508h-3.724v3.814h3.724v-3.814ZM276.207 218.508h-3.724v3.814h3.724v-3.814ZM287.379 218.508h-3.724v3.814h3.724v-3.814ZM298.552 218.508h-3.724v3.814h3.724v-3.814ZM306 218.508h-3.724v3.814H306v-3.814ZM201.724 222.322H198v3.813h3.724v-3.813ZM205.448 222.322h-3.724v3.813h3.724v-3.813ZM209.172 222.322h-3.724v3.813h3.724v-3.813ZM212.897 222.322h-3.725v3.813h3.725v-3.813ZM220.345 222.322h-3.724v3.813h3.724v-3.813ZM227.793 222.322h-3.724v3.813h3.724v-3.813ZM235.241 222.322h-3.724v3.813h3.724v-3.813ZM250.138 222.322h-3.724v3.813h3.724v-3.813ZM253.862 222.322h-3.724v3.813h3.724v-3.813ZM272.483 222.322h-3.724v3.813h3.724v-3.813ZM276.207 222.322h-3.724v3.813h3.724v-3.813ZM283.655 222.322h-3.724v3.813h3.724v-3.813ZM287.379 222.322h-3.724v3.813h3.724v-3.813ZM302.276 222.322h-3.724v3.813h3.724v-3.813ZM306 222.322h-3.724v3.813H306v-3.813ZM205.448 226.135h-3.724v3.814h3.724v-3.814ZM209.172 226.135h-3.724v3.814h3.724v-3.814ZM212.897 226.135h-3.725v3.814h3.725v-3.814ZM216.621 226.135h-3.724v3.814h3.724v-3.814ZM224.069 226.135h-3.724v3.814h3.724v-3.814ZM227.793 226.135h-3.724v3.814h3.724v-3.814ZM242.69 226.135h-3.724v3.814h3.724v-3.814ZM246.414 226.135h-3.724v3.814h3.724v-3.814ZM257.586 226.135h-3.724v3.814h3.724v-3.814ZM268.759 226.135h-3.725v3.814h3.725v-3.814ZM272.483 226.135h-3.724v3.814h3.724v-3.814ZM287.379 226.135h-3.724v3.814h3.724v-3.814ZM294.828 226.135h-3.725v3.814h3.725v-3.814ZM298.552 226.135h-3.724v3.814h3.724v-3.814ZM306 226.135h-3.724v3.814H306v-3.814ZM201.724 229.949H198v3.813h3.724v-3.813ZM216.621 229.949h-3.724v3.813h3.724v-3.813ZM227.793 229.949h-3.724v3.813h3.724v-3.813ZM231.517 229.949h-3.724v3.813h3.724v-3.813ZM235.241 229.949h-3.724v3.813h3.724v-3.813ZM238.966 229.949h-3.725v3.813h3.725v-3.813ZM242.69 229.949h-3.724v3.813h3.724v-3.813ZM246.414 229.949h-3.724v3.813h3.724v-3.813ZM250.138 229.949h-3.724v3.813h3.724v-3.813ZM268.759 229.949h-3.725v3.813h3.725v-3.813ZM279.931 229.949h-3.724v3.813h3.724v-3.813ZM287.379 229.949h-3.724v3.813h3.724v-3.813ZM291.103 229.949h-3.724v3.813h3.724v-3.813Z" fill="#fff"/><path d="M294.828 229.949h-3.725v3.813h3.725v-3.813ZM216.621 233.762h-3.724v3.814h3.724v-3.814ZM220.345 233.762h-3.724v3.814h3.724v-3.814ZM224.069 233.762h-3.724v3.814h3.724v-3.814ZM227.793 233.762h-3.724v3.814h3.724v-3.814ZM235.241 233.762h-3.724v3.814h3.724v-3.814ZM238.966 233.762h-3.725v3.814h3.725v-3.814ZM250.138 233.762h-3.724v3.814h3.724v-3.814ZM257.586 233.762h-3.724v3.814h3.724v-3.814ZM261.31 233.762h-3.724v3.814h3.724v-3.814ZM276.207 233.762h-3.724v3.814h3.724v-3.814ZM283.655 233.762h-3.724v3.814h3.724v-3.814ZM287.379 233.762h-3.724v3.814h3.724v-3.814ZM306 233.762h-3.724v3.814H306v-3.814ZM212.897 237.576h-3.725v3.813h3.725v-3.813ZM216.621 237.576h-3.724v3.813h3.724v-3.813ZM235.241 237.576h-3.724v3.813h3.724v-3.813ZM242.69 237.576h-3.724v3.813h3.724v-3.813ZM261.31 237.576h-3.724v3.813h3.724v-3.813ZM265.034 237.576h-3.724v3.813h3.724v-3.813ZM272.483 237.576h-3.724v3.813h3.724v-3.813ZM276.207 237.576h-3.724v3.813h3.724v-3.813ZM283.655 237.576h-3.724v3.813h3.724v-3.813ZM302.276 237.576h-3.724v3.813h3.724v-3.813ZM306 237.576h-3.724v3.813H306v-3.813ZM201.724 241.389H198v3.814h3.724v-3.814ZM205.448 241.389h-3.724v3.814h3.724v-3.814ZM216.621 241.389h-3.724v3.814h3.724v-3.814ZM224.069 241.389h-3.724v3.814h3.724v-3.814ZM235.241 241.389h-3.724v3.814h3.724v-3.814ZM246.414 241.389h-3.724v3.814h3.724v-3.814ZM250.138 241.389h-3.724v3.814h3.724v-3.814ZM253.862 241.389h-3.724v3.814h3.724v-3.814ZM261.31 241.389h-3.724v3.814h3.724v-3.814ZM272.483 241.389h-3.724v3.814h3.724v-3.814ZM276.207 241.389h-3.724v3.814h3.724v-3.814ZM283.655 241.389h-3.724v3.814h3.724v-3.814ZM306 241.389h-3.724v3.814H306v-3.814ZM212.897 245.203h-3.725v3.813h3.725v-3.813ZM220.345 245.203h-3.724v3.813h3.724v-3.813ZM231.517 245.203h-3.724v3.813h3.724v-3.813ZM253.862 245.203h-3.724v3.813h3.724v-3.813ZM257.586 245.203h-3.724v3.813h3.724v-3.813ZM261.31 245.203h-3.724v3.813h3.724v-3.813ZM268.759 245.203h-3.725v3.813h3.725v-3.813ZM276.207 245.203h-3.724v3.813h3.724v-3.813ZM279.931 245.203h-3.724v3.813h3.724v-3.813ZM287.379 245.203h-3.724v3.813h3.724v-3.813ZM201.724 249.016H198v3.814h3.724v-3.814ZM205.448 249.016h-3.724v3.814h3.724v-3.814ZM209.172 249.016h-3.724v3.814h3.724v-3.814ZM216.621 249.016h-3.724v3.814h3.724v-3.814ZM220.345 249.016h-3.724v3.814h3.724v-3.814ZM224.069 249.016h-3.724v3.814h3.724v-3.814ZM227.793 249.016h-3.724v3.814h3.724v-3.814ZM235.241 249.016h-3.724v3.814h3.724v-3.814ZM238.966 249.016h-3.725v3.814h3.725v-3.814ZM242.69 249.016h-3.724v3.814h3.724v-3.814ZM246.414 249.016h-3.724v3.814h3.724v-3.814ZM250.138 249.016h-3.724v3.814h3.724v-3.814ZM253.862 249.016h-3.724v3.814h3.724v-3.814ZM261.31 249.016h-3.724v3.814h3.724v-3.814ZM276.207 249.016h-3.724v3.814h3.724v-3.814ZM283.655 249.016h-3.724v3.814h3.724v-3.814ZM306 249.016h-3.724v3.814H306v-3.814ZM205.448 252.83h-3.724v3.813h3.724v-3.813ZM216.621 252.83h-3.724v3.813h3.724v-3.813ZM227.793 252.83h-3.724v3.813h3.724v-3.813ZM231.517 252.83h-3.724v3.813h3.724v-3.813ZM235.241 252.83h-3.724v3.813h3.724v-3.813ZM242.69 252.83h-3.724v3.813h3.724v-3.813ZM250.138 252.83h-3.724v3.813h3.724v-3.813ZM253.862 252.83h-3.724v3.813h3.724v-3.813ZM265.034 252.83h-3.724v3.813h3.724v-3.813ZM272.483 252.83h-3.724v3.813h3.724v-3.813ZM276.207 252.83h-3.724v3.813h3.724v-3.813ZM283.655 252.83h-3.724v3.813h3.724v-3.813ZM287.379 252.83h-3.724v3.813h3.724v-3.813ZM298.552 252.83h-3.724v3.813h3.724v-3.813ZM302.276 252.83h-3.724v3.813h3.724v-3.813ZM306 252.83h-3.724v3.813H306v-3.813ZM201.724 256.643H198v3.814h3.724v-3.814Z" fill="#fff"/><path d="M205.448 256.643h-3.724v3.814h3.724v-3.814ZM216.621 256.643h-3.724v3.814h3.724v-3.814ZM220.345 256.643h-3.724v3.814h3.724v-3.814ZM224.069 256.643h-3.724v3.814h3.724v-3.814ZM227.793 256.643h-3.724v3.814h3.724v-3.814ZM235.241 256.643h-3.724v3.814h3.724v-3.814ZM238.966 256.643h-3.725v3.814h3.725v-3.814ZM242.69 256.643h-3.724v3.814h3.724v-3.814ZM257.586 256.643h-3.724v3.814h3.724v-3.814ZM261.31 256.643h-3.724v3.814h3.724v-3.814ZM265.034 256.643h-3.724v3.814h3.724v-3.814ZM272.483 256.643h-3.724v3.814h3.724v-3.814ZM294.828 256.643h-3.725v3.814h3.725v-3.814ZM306 256.643h-3.724v3.814H306v-3.814ZM216.621 260.457h-3.724v3.813h3.724v-3.813ZM220.345 260.457h-3.724v3.813h3.724v-3.813ZM235.241 260.457h-3.724v3.813h3.724v-3.813ZM238.966 260.457h-3.725v3.813h3.725v-3.813ZM246.414 260.457h-3.724v3.813h3.724v-3.813ZM250.138 260.457h-3.724v3.813h3.724v-3.813ZM261.31 260.457h-3.724v3.813h3.724v-3.813ZM268.759 260.457h-3.725v3.813h3.725v-3.813ZM279.931 260.457h-3.724v3.813h3.724v-3.813ZM287.379 260.457h-3.724v3.813h3.724v-3.813ZM201.724 264.27H198v3.814h3.724v-3.814ZM205.448 264.27h-3.724v3.814h3.724v-3.814ZM212.897 264.27h-3.725v3.814h3.725v-3.814ZM216.621 264.27h-3.724v3.814h3.724v-3.814ZM224.069 264.27h-3.724v3.814h3.724v-3.814ZM227.793 264.27h-3.724v3.814h3.724v-3.814ZM238.966 264.27h-3.725v3.814h3.725v-3.814ZM242.69 264.27h-3.724v3.814h3.724v-3.814ZM250.138 264.27h-3.724v3.814h3.724v-3.814ZM257.586 264.27h-3.724v3.814h3.724v-3.814ZM268.759 264.27h-3.725v3.814h3.725v-3.814ZM276.207 264.27h-3.724v3.814h3.724v-3.814ZM279.931 264.27h-3.724v3.814h3.724v-3.814ZM283.655 264.27h-3.724v3.814h3.724v-3.814ZM287.379 264.27h-3.724v3.814h3.724v-3.814ZM291.103 264.27h-3.724v3.814h3.724v-3.814Z" fill="#fff"/><path d="M294.828 264.27h-3.725v3.814h3.725v-3.814ZM302.276 264.27h-3.724v3.814h3.724v-3.814ZM231.517 268.084h-3.724v3.813h3.724v-3.813ZM235.241 268.084h-3.724v3.813h3.724v-3.813ZM238.966 268.084h-3.725v3.813h3.725v-3.813ZM242.69 268.084h-3.724v3.813h3.724v-3.813ZM246.414 268.084h-3.724v3.813h3.724v-3.813ZM257.586 268.084h-3.724v3.813h3.724v-3.813ZM265.034 268.084h-3.724v3.813h3.724v-3.813ZM272.483 268.084h-3.724v3.813h3.724v-3.813ZM276.207 268.084h-3.724v3.813h3.724v-3.813ZM291.103 268.084h-3.724v3.813h3.724v-3.813Z" fill="#fff"/><path d="M294.828 268.084h-3.725v3.813h3.725v-3.813ZM298.552 268.084h-3.724v3.813h3.724v-3.813ZM306 268.084h-3.724v3.813H306v-3.813ZM231.517 271.897h-3.724v3.814h3.724v-3.814ZM235.241 271.897h-3.724v3.814h3.724v-3.814ZM238.966 271.897h-3.725v3.814h3.725v-3.814ZM242.69 271.897h-3.724v3.814h3.724v-3.814ZM246.414 271.897h-3.724v3.814h3.724v-3.814ZM250.138 271.897h-3.724v3.814h3.724v-3.814ZM253.862 271.897h-3.724v3.814h3.724v-3.814ZM257.586 271.897h-3.724v3.814h3.724v-3.814ZM276.207 271.897h-3.724v3.814h3.724v-3.814ZM283.655 271.897h-3.724v3.814h3.724v-3.814ZM291.103 271.897h-3.724v3.814h3.724v-3.814ZM306 271.897h-3.724v3.814H306v-3.814ZM238.966 275.711h-3.725v3.813h3.725v-3.813ZM242.69 275.711h-3.724v3.813h3.724v-3.813ZM246.414 275.711h-3.724v3.813h3.724v-3.813ZM253.862 275.711h-3.724v3.813h3.724v-3.813ZM257.586 275.711h-3.724v3.813h3.724v-3.813ZM268.759 275.711h-3.725v3.813h3.725v-3.813ZM272.483 275.711h-3.724v3.813h3.724v-3.813ZM276.207 275.711h-3.724v3.813h3.724v-3.813ZM291.103 275.711h-3.724v3.813h3.724v-3.813ZM235.241 279.524h-3.724v3.814h3.724v-3.814ZM238.966 279.524h-3.725v3.814h3.725v-3.814ZM242.69 279.524h-3.724v3.814h3.724v-3.814ZM246.414 279.524h-3.724v3.814h3.724v-3.814ZM250.138 279.524h-3.724v3.814h3.724v-3.814ZM253.862 279.524h-3.724v3.814h3.724v-3.814ZM257.586 279.524h-3.724v3.814h3.724v-3.814ZM268.759 279.524h-3.725v3.814h3.725v-3.814ZM272.483 279.524h-3.724v3.814h3.724v-3.814ZM276.207 279.524h-3.724v3.814h3.724v-3.814ZM279.931 279.524h-3.724v3.814h3.724v-3.814ZM283.655 279.524h-3.724v3.814h3.724v-3.814ZM287.379 279.524h-3.724v3.814h3.724v-3.814ZM291.103 279.524h-3.724v3.814h3.724v-3.814Z" fill="#fff"/><path d="M294.828 279.524h-3.725v3.814h3.725v-3.814ZM302.276 279.524h-3.724v3.814h3.724v-3.814ZM306 279.524h-3.724v3.814H306v-3.814ZM235.241 283.338h-3.724v3.813h3.724v-3.813ZM238.966 283.338h-3.725v3.813h3.725v-3.813ZM242.69 283.338h-3.724v3.813h3.724v-3.813ZM246.414 283.338h-3.724v3.813h3.724v-3.813ZM250.138 283.338h-3.724v3.813h3.724v-3.813ZM253.862 283.338h-3.724v3.813h3.724v-3.813ZM257.586 283.338h-3.724v3.813h3.724v-3.813ZM268.759 283.338h-3.725v3.813h3.725v-3.813ZM276.207 283.338h-3.724v3.813h3.724v-3.813ZM279.931 283.338h-3.724v3.813h3.724v-3.813ZM287.379 283.338h-3.724v3.813h3.724v-3.813ZM291.103 283.338h-3.724v3.813h3.724v-3.813Z" fill="#fff"/><path d="M294.828 283.338h-3.725v3.813h3.725v-3.813ZM298.552 283.338h-3.724v3.813h3.724v-3.813ZM306 283.338h-3.724v3.813H306v-3.813ZM231.517 287.151h-3.724v3.814h3.724v-3.814ZM235.241 287.151h-3.724v3.814h3.724v-3.814ZM238.966 287.151h-3.725v3.814h3.725v-3.814ZM257.586 287.151h-3.724v3.814h3.724v-3.814ZM268.759 287.151h-3.725v3.814h3.725v-3.814ZM272.483 287.151h-3.724v3.814h3.724v-3.814ZM276.207 287.151h-3.724v3.814h3.724v-3.814ZM279.931 287.151h-3.724v3.814h3.724v-3.814ZM291.103 287.151h-3.724v3.814h3.724v-3.814ZM302.276 287.151h-3.724v3.814h3.724v-3.814ZM306 287.151h-3.724v3.814H306v-3.814Z" fill="#fff"/><path d="M235.241 290.965h-3.724v3.813h3.724v-3.813ZM242.69 290.965h-3.724v3.813h3.724v-3.813ZM246.414 290.965h-3.724v3.813h3.724v-3.813ZM253.862 290.965h-3.724v3.813h3.724v-3.813ZM261.31 290.965h-3.724v3.813h3.724v-3.813ZM272.483 290.965h-3.724v3.813h3.724v-3.813ZM276.207 290.965h-3.724v3.813h3.724v-3.813ZM279.931 290.965h-3.724v3.813h3.724v-3.813ZM283.655 290.965h-3.724v3.813h3.724v-3.813ZM287.379 290.965h-3.724v3.813h3.724v-3.813ZM291.103 290.965h-3.724v3.813h3.724v-3.813Z" fill="#fff"/><path d="M294.828 290.965h-3.725v3.813h3.725v-3.813ZM231.517 294.778h-3.724v3.814h3.724v-3.814ZM235.241 294.778h-3.724v3.814h3.724v-3.814ZM238.966 294.778h-3.725v3.814h3.725v-3.814ZM246.414 294.778h-3.724v3.814h3.724v-3.814ZM253.862 294.778h-3.724v3.814h3.724v-3.814ZM257.586 294.778h-3.724v3.814h3.724v-3.814ZM268.759 294.778h-3.725v3.814h3.725v-3.814ZM276.207 294.778h-3.724v3.814h3.724v-3.814ZM291.103 294.778h-3.724v3.814h3.724v-3.814ZM306 294.778h-3.724v3.814H306v-3.814ZM198 188v26.695h26.069V188H198Zm22.159 22.69H201.91v-18.686h18.249v18.686ZM279.931 188v26.695H306V188h-26.069Zm22.159 22.69h-18.249v-18.686h18.249v18.686ZM198 271.897v26.695h26.069v-26.695H198Zm22.159 22.691H201.91v-18.686h18.249v18.686Z" fill="#fff"/><path d="M216.621 195.627h-11.173v11.441h11.173v-11.441ZM298.552 195.627h-11.173v11.441h11.173v-11.441ZM216.621 279.524h-11.173v11.441h11.173v-11.441Z" fill="#fff"/><defs><clipPath id="a"><path fill="#fff" transform="translate(190 77.5)" d="M0 0h16v16H0z"/></clipPath></defs></svg>