<svg width="24" height="24" viewBox="0 0 24 24" fill="none" xmlns="http://www.w3.org/2000/svg">
<path fill-rule="evenodd" clip-rule="evenodd" d="M12 22C17.5228 22 22 17.5228 22 12C22 6.47715 17.5228 2 12 2C6.47715 2 2 6.47715 2 12C2 17.5228 6.47715 22 12 22ZM8.06694 10.2049C7.82286 9.93171 7.42714 9.93171 7.18306 10.2049C6.93898 10.478 6.93898 10.9209 7.18306 11.1941L11.5422 15.7767C11.7894 16.0744 12.2106 16.0744 12.4578 15.7767L16.8169 11.1941C17.061 10.9209 17.061 10.478 16.8169 10.2049C16.5729 9.93171 16.1771 9.93171 15.9331 10.2049L12.0922 14.2368C12.0427 14.2974 11.9573 14.2974 11.9078 14.2368L8.06694 10.2049Z" fill="currentColor"/>
</svg>
