<svg width="24" height="24" viewBox="0 0 24 24" fill="none" xmlns="http://www.w3.org/2000/svg"><path d="M17.2929 10.6927C17.6834 11.1024 18.3166 11.1024 18.7071 10.6927C19.0976 10.2829 19.0976 9.61863 18.7071 9.20889L12.7325 3.33493C12.3369 2.88834 11.6631 2.88834 11.2675 3.33493L5.29287 9.20889C4.90235 9.61863 4.90235 10.2829 5.29287 10.6927C5.68339 11.1024 6.31656 11.1024 6.70708 10.6927L11.8524 5.64481C11.9317 5.55387 12.0683 5.55387 12.1475 5.64481L17.2929 10.6927Z" fill="currentColor"/><path d="M6.70709 13.3073C6.31656 12.8976 5.6834 12.8976 5.29287 13.3073C4.90235 13.717 4.90235 14.3814 5.29287 14.7911L11.2675 20.665C11.6631 21.1116 12.3369 21.1116 12.7325 20.665L18.7071 14.7911C19.0976 14.3814 19.0976 13.717 18.7071 13.3073C18.3166 12.8976 17.6834 12.8976 17.2929 13.3073L12.1475 18.3552C12.0683 18.4461 11.9317 18.4461 11.8524 18.3552L6.70709 13.3073Z" fill="currentColor"/></svg>
