<svg width="24" height="24" viewBox="0 0 24 24" fill="none" xmlns="http://www.w3.org/2000/svg">
<path fill-rule="evenodd" clip-rule="evenodd" d="M12 22C17.5228 22 22 17.5228 22 12C22 6.47715 17.5228 2 12 2C6.47715 2 2 6.47715 2 12C2 17.5228 6.47715 22 12 22ZM15.9331 13.7951C16.1771 14.0683 16.5729 14.0683 16.8169 13.7951C17.061 13.522 17.061 13.0791 16.8169 12.8059L12.4578 8.2233C12.2106 7.92557 11.7894 7.92557 11.5422 8.2233L7.18306 12.8059C6.93898 13.0791 6.93898 13.522 7.18306 13.7951C7.42713 14.0683 7.82286 14.0683 8.06694 13.7951L11.9078 9.76321C11.9573 9.70259 12.0427 9.70259 12.0922 9.76321L15.9331 13.7951Z" fill="currentColor"/>
</svg>
