<svg width="20" height="20" viewBox="0 0 20 20" fill="none" xmlns="http://www.w3.org/2000/svg">
<path fill-rule="evenodd" clip-rule="evenodd" d="M10 17.3601C14.0649 17.3601 17.3601 14.0649 17.3601 10C17.3601 5.93517 14.0649 2.63994 10 2.63994C5.93517 2.63994 2.63994 5.93517 2.63994 10C2.63994 14.0649 5.93517 17.3601 10 17.3601ZM10 18.5601C14.7276 18.5601 18.5601 14.7276 18.5601 10C18.5601 5.27242 14.7276 1.43994 10 1.43994C5.27242 1.43994 1.43994 5.27242 1.43994 10C1.43994 14.7276 5.27242 18.5601 10 18.5601ZM10.0104 4.39493C10.3418 4.39493 10.6104 4.66356 10.6104 4.99493V9.40004H15.0155C15.3469 9.40004 15.6155 9.66867 15.6155 10C15.6155 10.3314 15.3469 10.6 15.0155 10.6H10.6104V15.0052C10.6104 15.3366 10.3418 15.6052 10.0104 15.6052C9.67904 15.6052 9.41041 15.3366 9.41041 15.0052V10.6H5.00527C4.6739 10.6 4.40527 10.3314 4.40527 10C4.40527 9.66866 4.6739 9.40004 5.00527 9.40004H9.41041V4.99493C9.41041 4.66356 9.67904 4.39493 10.0104 4.39493Z" fill="currentColor"/>
</svg>
