<svg width="16" height="16" viewBox="0 0 16 16" fill="none" xmlns="http://www.w3.org/2000/svg">
<g id="approve-fellowship-voting">
<g id="Subtract">
<path fill-rule="evenodd" clip-rule="evenodd" d="M7.53984 0.365004C7.83222 0.0130976 8.37231 0.0130975 8.66469 0.365004L9.31185 1.14393C9.48042 1.34683 9.7452 1.4432 10.0047 1.39613L11.0012 1.21542C11.4514 1.13378 11.8651 1.48094 11.8629 1.93845L11.8579 2.95114C11.8567 3.21492 11.9975 3.45894 12.2266 3.58972L13.1061 4.09179C13.5034 4.31861 13.5972 4.8505 13.3014 5.19954L12.6467 5.97213C12.4762 6.17337 12.4272 6.45086 12.5187 6.69829L12.8697 7.64822C13.0282 8.07737 12.7582 8.54511 12.3072 8.62236L11.3091 8.79335C11.0491 8.83789 10.8332 9.01901 10.7442 9.26732L10.4025 10.2206C10.2481 10.6513 9.7406 10.836 9.34549 10.6053L8.47095 10.0947C8.24315 9.96172 7.96138 9.96172 7.73358 10.0947L6.85904 10.6053C6.46394 10.836 5.95642 10.6513 5.80203 10.2206L5.46031 9.26732C5.38243 9.05005 5.20743 8.88422 4.99072 8.81632C4.98047 8.81311 4.97012 8.81011 4.95968 8.80735C4.93861 8.80175 4.91719 8.79707 4.89545 8.79335L3.8973 8.62236C3.44635 8.54511 3.17631 8.07737 3.33488 7.64822L3.68587 6.69829C3.7773 6.45086 3.72837 6.17337 3.55783 5.97213L2.90311 5.19954C2.60732 4.8505 2.70111 4.31861 3.09844 4.09179L3.97791 3.58972C4.20699 3.45894 4.34788 3.21492 4.3466 2.95114L4.34167 1.93845C4.33944 1.48094 4.75317 1.13378 5.20334 1.21542L6.19978 1.39613C6.45933 1.4432 6.72411 1.34683 6.89268 1.14393L7.53984 0.365004ZM10.4575 4.81597C10.6739 4.53008 10.6176 4.12289 10.3317 3.90647C10.0458 3.69005 9.63861 3.74637 9.4222 4.03225L7.69918 6.30834L6.84349 5.36874C6.60206 5.10364 6.19143 5.08445 5.92633 5.32588C5.66123 5.56731 5.64204 5.97793 5.88346 6.24303L7.0548 7.52923C7.4377 7.94968 8.10829 7.91923 8.45152 7.46583L10.4575 4.81597Z" fill="currentColor"/>
<path d="M4.27185 10.3972L2.49796 14.4972C2.39922 14.7254 2.60502 14.9678 2.84621 14.9073L4.20681 14.5664L4.81431 15.7298C4.93116 15.9536 5.25533 15.9418 5.35557 15.7101L6.88685 12.1708C5.85048 12.3582 4.76989 11.7865 4.39001 10.7268L4.27185 10.3972Z" fill="currentColor"/>
<path d="M9.65516 12.2053L11.1715 15.7101C11.2717 15.9418 11.5959 15.9536 11.7128 15.7298L12.3203 14.5664L13.6809 14.9073C13.922 14.9678 14.1278 14.7254 14.0291 14.4972L12.1569 10.17L12.0048 10.196L11.8145 10.7268C11.4758 11.6717 10.58 12.2286 9.65516 12.2053Z" fill="currentColor"/>
</g>
</g>
</svg>
