<svg width="24" height="24" viewBox="0 0 24 24" fill="none" xmlns="http://www.w3.org/2000/svg">
  <path fill-rule="evenodd" clip-rule="evenodd" d="M11.9998 2.74287C6.88725 2.74287 2.74269 6.88744 2.74269 12C2.74269 17.1126 6.88725 21.2572 11.9998 21.2572C17.1124 21.2572 21.257 17.1126 21.257 12C21.257 6.88744 17.1124 2.74287 11.9998 2.74287ZM0.685547 12C0.685547 5.75131 5.75112 0.68573 11.9998 0.68573C18.2485 0.68573 23.3141 5.75131 23.3141 12C23.3141 18.2487 18.2485 23.3143 11.9998 23.3143C5.75112 23.3143 0.685547 18.2487 0.685547 12ZM17.87 7.84413C18.2717 8.24582 18.2717 8.89707 17.87 9.29875L11.0129 16.1559C10.9626 16.2061 10.9085 16.25 10.8515 16.2877C10.4523 16.5513 9.90971 16.5074 9.55824 16.1559L6.12966 12.7273C5.72798 12.3256 5.72798 11.6744 6.12966 11.2727C6.53134 10.871 7.1826 10.871 7.58428 11.2727L10.2855 13.974L16.4154 7.84413C16.8171 7.44245 17.4683 7.44245 17.87 7.84413Z" fill="currentColor"/>
</svg>
