<svg width="24" height="24" viewBox="0 0 24 24" fill="none" xmlns="http://www.w3.org/2000/svg"><path fill-rule="evenodd" clip-rule="evenodd" d="M12 23C18.0751 23 23 18.0751 23 12C23 5.92487 18.0751 1 12 1C5.92487 1 1 5.92487 1 12C1 18.0751 5.92487 23 12 23ZM12 24C18.6274 24 24 18.6274 24 12C24 5.37258 18.6274 0 12 0C5.37258 0 0 5.37258 0 12C0 18.6274 5.37258 24 12 24Z" fill="currentColor"/><path fill-rule="evenodd" clip-rule="evenodd" d="M17.9278 9.28539C18.2749 8.93826 18.2749 8.37545 17.9278 8.02832C17.5807 7.68118 17.0179 7.68118 16.6707 8.02832L10.5644 14.1346L7.74696 11.3172C7.42535 10.9956 6.90393 10.9956 6.58232 11.3172C6.26071 11.6388 6.26071 12.1602 6.58232 12.4818L9.94974 15.8492C10.3403 16.2398 10.9734 16.2398 11.364 15.8492L17.9278 9.28539Z" fill="currentColor"/></svg>
