<svg width="24" height="24" viewBox="0 0 24 24" fill="none" xmlns="http://www.w3.org/2000/svg"><path fill-rule="evenodd" clip-rule="evenodd" d="M24 12C24 18.6274 18.6274 24 12 24C5.37258 24 0 18.6274 0 12C0 5.37258 5.37258 0 12 0C18.6274 0 24 5.37258 24 12ZM17.9278 9.28539L11.364 15.8492C10.9734 16.2398 10.3403 16.2398 9.94974 15.8492L6.58232 12.4818C6.26071 12.1602 6.26071 11.6388 6.58232 11.3172C6.90393 10.9956 7.42536 10.9956 7.74696 11.3172L10.5644 14.1346L16.6707 8.02832C17.0179 7.68118 17.5807 7.68118 17.9278 8.02832C18.2749 8.37545 18.2749 8.93826 17.9278 9.28539Z" fill="currentColor"/></svg>
