<svg width="24" height="24" viewBox="0 0 24 24" fill="none" xmlns="http://www.w3.org/2000/svg">
  <path fill-rule="evenodd" clip-rule="evenodd" d="M11.9998 2.74287C6.88725 2.74287 2.74269 6.88744 2.74269 12C2.74269 17.1126 6.88725 21.2572 11.9998 21.2572C17.1124 21.2572 21.257 17.1126 21.257 12C21.257 6.88744 17.1124 2.74287 11.9998 2.74287ZM0.685547 12C0.685547 5.75131 5.75112 0.68573 11.9998 0.68573C18.2485 0.68573 23.3141 5.75131 23.3141 12C23.3141 18.2487 18.2485 23.3143 11.9998 23.3143C5.75112 23.3143 0.685547 18.2487 0.685547 12ZM16.1557 7.84413C16.5574 8.24582 16.5574 8.89707 16.1557 9.29875L13.4545 12L16.1557 14.7013C16.5574 15.103 16.5574 15.7542 16.1557 16.1559C15.754 16.5576 15.1028 16.5576 14.7011 16.1559L11.9998 13.4546L9.29857 16.1559C8.89689 16.5576 8.24563 16.5576 7.84395 16.1559C7.44227 15.7542 7.44227 15.103 7.84395 14.7013L10.5452 12L7.84395 9.29875C7.44227 8.89707 7.44227 8.24582 7.84395 7.84413C8.24563 7.44245 8.89689 7.44245 9.29857 7.84413L11.9998 10.5454L14.7011 7.84413C15.1028 7.44245 15.754 7.44245 16.1557 7.84413Z" fill="currentColor"/>
</svg>
