<svg width="16" height="16" viewBox="0 0 16 16" fill="none" xmlns="http://www.w3.org/2000/svg">
  <path fill-rule="evenodd" clip-rule="evenodd"
        d="M12 2.2H6C5.55817 2.2 5.2 2.55817 5.2 3H10C11.1046 3 12 3.89543 12 5V11.8C12.4418 11.8 12.8 11.4418 12.8 11V3C12.8 2.55817 12.4418 2.2 12 2.2ZM4 3C4 1.89543 4.89543 1 6 1H12C13.1046 1 14 1.89543 14 3V11C14 12.1046 13.1046 13 12 13C12 14.1046 11.1046 15 10 15H4C2.89543 15 2 14.1046 2 13V5C2 3.89543 2.89543 3 4 3ZM4 4.2H10C10.4418 4.2 10.8 4.55817 10.8 5V13C10.8 13.4418 10.4418 13.8 10 13.8H4C3.55817 13.8 3.2 13.4418 3.2 13V5C3.2 4.55817 3.55817 4.2 4 4.2Z"
        fill="currentColor"/>
</svg>
