<svg width="16" height="16" viewBox="0 0 16 16" fill="none" xmlns="http://www.w3.org/2000/svg">
<g clip-path="url(#clip0_2158_28744)">
<path d="M5.8584 9.55957C7.6549 9.5597 9.11117 11.016 9.11133 12.8125L9.09961 12.9336C9.04357 13.2068 8.80146 13.412 8.51172 13.4121C8.22187 13.4121 7.97988 13.2069 7.92383 12.9336L7.91211 12.8125C7.91196 11.6787 6.99216 10.7589 5.8584 10.7588H3.81152C2.48612 10.7588 1.41126 11.8338 1.41113 13.1592V15.0781C1.41113 15.4093 1.14261 15.6784 0.811523 15.6787C0.480153 15.6787 0.210938 15.4095 0.210938 15.0781V13.1592C0.21107 11.1711 1.82338 9.55957 3.81152 9.55957H5.8584ZM13.6973 9.74512C13.7176 9.74605 13.7377 9.74799 13.7578 9.75098L13.791 9.75488C13.798 9.75631 13.8046 9.75907 13.8115 9.76074C13.8243 9.76385 13.837 9.76752 13.8496 9.77148C13.87 9.77789 13.8898 9.78548 13.9092 9.79395C13.9228 9.79987 13.936 9.8065 13.9492 9.81348C13.9636 9.82108 13.9775 9.82918 13.9912 9.83789C14.0084 9.84886 14.0248 9.86113 14.041 9.87402C14.0525 9.88309 14.0635 9.89248 14.0742 9.90234C14.0803 9.90793 14.0878 9.91209 14.0938 9.91797C14.1003 9.92453 14.1051 9.93267 14.1113 9.93945C14.1243 9.95363 14.1369 9.96802 14.1484 9.9834C14.1568 9.99452 14.1644 10.006 14.1719 10.0176C14.1829 10.0346 14.1928 10.0522 14.2021 10.0703C14.2088 10.0832 14.2151 10.0961 14.2207 10.1094C14.2279 10.1263 14.2346 10.1434 14.2402 10.1611C14.2452 10.1766 14.2493 10.1922 14.2529 10.208C14.2575 10.2279 14.2611 10.248 14.2637 10.2686C14.2651 10.2799 14.2658 10.2913 14.2666 10.3027C14.2675 10.316 14.2705 10.3293 14.2705 10.3428V13.8467C14.2702 14.1775 14.0017 14.4458 13.6709 14.4463C13.3397 14.4463 13.0706 14.1778 13.0703 13.8467V11.793L9.55273 15.3193L9.45801 15.3955C9.22531 15.5494 8.90929 15.5241 8.7041 15.3193C8.46992 15.0853 8.4694 14.7062 8.70312 14.4717L12.2246 10.9424H10.167C9.83562 10.9424 9.56738 10.6741 9.56738 10.3428C9.56751 10.0115 9.8357 9.74316 10.167 9.74316H13.6709L13.6973 9.74512ZM12.541 5.4668C14.3376 5.46693 15.7939 6.92312 15.7939 8.71973L15.7822 8.84082C15.726 9.1138 15.4839 9.31922 15.1943 9.31934C14.9047 9.31934 14.6627 9.11384 14.6064 8.84082L14.5947 8.71973C14.5947 7.58585 13.6749 6.66615 12.541 6.66602H10.1465C9.01276 6.66627 8.09375 7.58594 8.09375 8.71973C8.09342 9.05061 7.82502 9.319 7.49414 9.31934C7.16298 9.31934 6.89389 9.05081 6.89355 8.71973C6.89355 6.9232 8.35001 5.46705 10.1465 5.4668H12.541ZM4.88672 4.29785C6.00414 4.41113 6.87656 5.35474 6.87695 6.50195L6.86523 6.72852C6.75194 7.8462 5.80772 8.71875 4.66016 8.71875L4.43359 8.70703C3.39085 8.60076 2.56178 7.77142 2.45605 6.72852L2.44531 6.50195C2.44573 5.27865 3.43685 4.28753 4.66016 4.28711L4.88672 4.29785ZM4.66016 5.48633C4.09956 5.48675 3.64495 5.94136 3.64453 6.50195C3.64453 7.06291 4.0993 7.51814 4.66016 7.51855C5.22137 7.51855 5.67676 7.06316 5.67676 6.50195C5.67634 5.9411 5.22111 5.48633 4.66016 5.48633ZM11.3447 0.324219C12.5683 0.324506 13.5603 1.31647 13.5605 2.54004L13.5488 2.7666C13.4429 3.80946 12.6141 4.63899 11.5713 4.74512L11.3447 4.75684C10.1973 4.75684 9.25311 3.88411 9.13965 2.7666L9.12793 2.54004C9.12813 1.39265 10.0006 0.449233 11.1182 0.335938L11.3447 0.324219ZM11.3447 1.52441C10.7836 1.52441 10.3283 1.97901 10.3281 2.54004C10.3283 3.10109 10.7836 3.55664 11.3447 3.55664C11.9056 3.55635 12.3602 3.10091 12.3604 2.54004C12.3601 1.97918 11.9056 1.5247 11.3447 1.52441Z" fill="currentColor"/>
</g>
<defs>
<clipPath id="clip0_2158_28744">
<rect width="16" height="16" fill="white"/>
</clipPath>
</defs>
</svg>
