<svg width="16" height="16" viewBox="0 0 16 16" fill="none" xmlns="http://www.w3.org/2000/svg">
<path fill-rule="evenodd" clip-rule="evenodd" d="M9.71544 3.36772H6.28459C5.41021 3.36772 4.82781 3.36869 4.38059 3.40583C3.94775 3.44177 3.75011 3.50531 3.62484 3.57038C3.29608 3.74116 3.02802 4.00921 2.85725 4.33797C2.79217 4.46324 2.72864 4.66088 2.69269 5.09373C2.65555 5.54094 2.65459 6.12335 2.65459 6.99772V9.00209C2.65459 9.87647 2.65555 10.4589 2.69269 10.9061C2.72864 11.3389 2.79217 11.5366 2.85725 11.6618C3.02802 11.9906 3.29608 12.2587 3.62484 12.4294C3.75011 12.4945 3.94775 12.558 4.38059 12.594C4.82781 12.6311 5.41021 12.6321 6.28459 12.6321H9.71544C10.5898 12.6321 11.1722 12.6311 11.6194 12.594C12.0523 12.558 12.2499 12.4945 12.3752 12.4294C12.704 12.2587 12.972 11.9906 13.1428 11.6618C13.2079 11.5366 13.2714 11.3389 13.3073 10.9061C13.3445 10.4589 13.3454 9.87647 13.3454 9.00209V6.99772C13.3454 6.12335 13.3445 5.54094 13.3073 5.09373C13.2714 4.66088 13.2079 4.46324 13.1428 4.33797C12.972 4.00921 12.704 3.74116 12.3752 3.57038C12.2499 3.50531 12.0523 3.44177 11.6194 3.40583C11.1722 3.36869 10.5898 3.36772 9.71544 3.36772ZM1.79235 3.7848C1.45459 4.43502 1.45459 5.28925 1.45459 6.99772V9.00209C1.45459 10.7106 1.45459 11.5648 1.79235 12.215C2.07698 12.7629 2.52374 13.2097 3.07167 13.4943C3.72188 13.8321 4.57612 13.8321 6.28459 13.8321H9.71544C11.4239 13.8321 12.2781 13.8321 12.9284 13.4943C13.4763 13.2097 13.9231 12.7629 14.2077 12.215C14.5454 11.5648 14.5454 10.7106 14.5454 9.00209V6.99772C14.5454 5.28925 14.5454 4.43502 14.2077 3.7848C13.9231 3.23687 13.4763 2.79011 12.9284 2.50548C12.2781 2.16772 11.4239 2.16772 9.71544 2.16772H6.28459C4.57612 2.16772 3.72188 2.16772 3.07167 2.50548C2.52374 2.79011 2.07698 3.23687 1.79235 3.7848ZM7.64697 6.33071C7.64697 5.99934 7.9156 5.73071 8.24697 5.73071H10.6055C10.9369 5.73071 11.2055 5.99934 11.2055 6.33071C11.2055 6.66208 10.9369 6.93071 10.6055 6.93071H8.24697C7.9156 6.93071 7.64697 6.66208 7.64697 6.33071ZM8.24697 8.89478C7.9156 8.89478 7.64697 9.1634 7.64697 9.49478C7.64697 9.82615 7.9156 10.0948 8.24697 10.0948H10.6055C10.9369 10.0948 11.2055 9.82615 11.2055 9.49478C11.2055 9.1634 10.9369 8.89478 10.6055 8.89478H8.24697ZM6.15118 9.45486C6.15118 9.82554 5.85069 10.126 5.48001 10.126C5.10933 10.126 4.80884 9.82554 4.80884 9.45486C4.80884 9.08419 5.10933 8.78369 5.48001 8.78369C5.85069 8.78369 6.15118 9.08419 6.15118 9.45486ZM5.48001 7.0611C5.85069 7.0611 6.15118 6.7606 6.15118 6.38992C6.15118 6.01924 5.85069 5.71875 5.48001 5.71875C5.10933 5.71875 4.80884 6.01924 4.80884 6.38992C4.80884 6.7606 5.10933 7.0611 5.48001 7.0611Z" fill="#C3C3CB"/>
</svg>
