<svg width="16" height="16" viewBox="0 0 16 16" fill="none" xmlns="http://www.w3.org/2000/svg"><path d="M5.17156 9.88561C4.91121 10.146 4.91121 10.5681 5.17156 10.8284C5.43191 11.0888 5.85402 11.0888 6.11437 10.8284L10.8284 6.11437C11.0888 5.85402 11.0888 5.43191 10.8284 5.17157C10.5681 4.91122 10.146 4.91122 9.8856 5.17157L5.17156 9.88561Z" fill="currentColor"/><path fill-rule="evenodd" clip-rule="evenodd" d="M16 8C16 12.4183 12.4183 16 8 16C3.58172 16 0 12.4183 0 8C0 3.58172 3.58172 0 8 0C12.4183 0 16 3.58172 16 8ZM15.3333 8C15.3333 12.0501 12.0501 15.3333 8 15.3333C3.94991 15.3333 0.666667 12.0501 0.666667 8C0.666667 3.94991 3.94991 0.666667 8 0.666667C12.0501 0.666667 15.3333 3.94991 15.3333 8Z" fill="currentColor"/></svg>
