<svg width="24" height="24" viewBox="0 0 24 24" fill="none" xmlns="http://www.w3.org/2000/svg"><path fill-rule="evenodd" clip-rule="evenodd" d="M6.91808 13.2413L6.02178 17.3565C5.89373 17.8746 6.36158 18.0317 6.61028 17.9949L10.7618 17.0496C10.8653 17.025 10.9416 16.9735 10.9933 16.9219L17.4275 10.5061C18.1908 9.7449 18.1908 8.5074 17.4275 7.74624L16.248 6.57013C15.3099 5.63464 13.9728 6.00785 13.4803 6.57013L7.04613 12.986C6.96979 13.0621 6.91808 13.1382 6.91808 13.2413ZM16.7109 8.4362C17.0951 8.81923 17.0951 9.40852 16.7109 9.79155L10.8382 15.6181V14.9773C10.8382 14.6973 10.6067 14.4665 10.326 14.4665H9.48141V13.6244C9.48141 13.3444 9.24995 13.1136 8.96924 13.1136H8.30194L14.1722 7.26008C14.5465 6.88687 15.1572 6.88687 15.5315 7.26008L16.7109 8.4362Z" fill="currentColor"/><path fill-rule="evenodd" clip-rule="evenodd" d="M24 12C24 18.6274 18.6274 24 12 24C5.37258 24 0 18.6274 0 12C0 5.37258 5.37258 0 12 0C18.6274 0 24 5.37258 24 12ZM23 12C23 18.0751 18.0751 23 12 23C5.92487 23 1 18.0751 1 12C1 5.92487 5.92487 1 12 1C18.0751 1 23 5.92487 23 12Z" fill="currentColor"/></svg>
