<svg width="20" height="20" viewBox="0 0 20 20" fill="none" xmlns="http://www.w3.org/2000/svg">
  <path fill-rule="evenodd" clip-rule="evenodd" d="M9.72324 1.17409L5.90486 4.99247C5.67055 5.22678 5.67055 5.60668 5.90486 5.84099C6.13918 6.07531 6.51908 6.07531 6.75339 5.84099L9.5475 3.04688L9.5475 14.7082C9.5475 15.0396 9.81613 15.3082 10.1475 15.3082C10.4789 15.3082 10.7475 15.0396 10.7475 14.7082L10.7475 3.04688L13.5416 5.84099C13.7759 6.07531 14.1558 6.07531 14.3901 5.84099C14.6245 5.60668 14.6245 5.22678 14.3901 4.99246L10.5718 1.17409C10.3375 0.939774 9.95755 0.939774 9.72324 1.17409ZM6.94332 7.48045L5.95898 7.48045H5.95896C5.42027 7.48044 4.97971 7.48044 4.62166 7.50969C4.25105 7.53997 3.91633 7.60456 3.60374 7.76383C3.11452 8.01311 2.71677 8.41086 2.4675 8.90008C2.30822 9.21267 2.24363 9.54739 2.21335 9.918C2.1841 10.276 2.18411 10.7166 2.18411 11.2553V15.0145C2.18411 15.5532 2.1841 15.9937 2.21335 16.3518C2.24363 16.7224 2.30822 17.0571 2.4675 17.3697C2.71677 17.8589 3.11452 18.2567 3.60374 18.506C3.91633 18.6652 4.25105 18.7298 4.62166 18.7601C4.97968 18.7893 5.4202 18.7893 5.95883 18.7893H5.95899H14.0103H14.0104C14.5491 18.7893 14.9896 18.7893 15.3476 18.7601C15.7182 18.7298 16.0529 18.6652 16.3655 18.506C16.8548 18.2567 17.2525 17.8589 17.5018 17.3697C17.6611 17.0571 17.7256 16.7224 17.7559 16.3518C17.7852 15.9937 17.7852 15.5531 17.7852 15.0144V11.2554C17.7852 10.7167 17.7852 10.2761 17.7559 9.918C17.7256 9.54739 17.6611 9.21267 17.5018 8.90008C17.2525 8.41086 16.8548 8.01311 16.3655 7.76383C16.0529 7.60456 15.7182 7.53997 15.3476 7.50969C14.9896 7.48044 14.549 7.48044 14.0103 7.48045H14.0103L13.37 7.48045C13.0387 7.48045 12.77 7.74908 12.77 8.08045C12.77 8.41182 13.0387 8.68045 13.37 8.68045H13.9852C14.5551 8.68045 14.9465 8.68092 15.2499 8.70571C15.5463 8.72992 15.7055 8.77433 15.8207 8.83304C16.0842 8.96727 16.2983 9.18144 16.4326 9.44487C16.4913 9.5601 16.5357 9.71932 16.5599 10.0157C16.5847 10.3191 16.5852 10.7105 16.5852 11.2805V14.9893C16.5852 15.5593 16.5847 15.9507 16.5599 16.2541C16.5357 16.5505 16.4913 16.7097 16.4326 16.8249C16.2983 17.0884 16.0842 17.3025 15.8207 17.4367C15.7055 17.4955 15.5463 17.5399 15.2499 17.5641C14.9465 17.5889 14.5551 17.5893 13.9852 17.5893H5.98411C5.41416 17.5893 5.02278 17.5889 4.71938 17.5641C4.42298 17.5399 4.26376 17.4955 4.14853 17.4367C3.8851 17.3025 3.67093 17.0884 3.5367 16.8249C3.47799 16.7097 3.43359 16.5505 3.40937 16.2541C3.38458 15.9507 3.38411 15.5593 3.38411 14.9893V11.2805C3.38411 10.7105 3.38458 10.3191 3.40937 10.0157C3.43359 9.71932 3.47799 9.5601 3.5367 9.44487C3.67093 9.18144 3.8851 8.96727 4.14853 8.83304C4.26376 8.77433 4.42298 8.72992 4.71938 8.70571C5.02278 8.68092 5.41416 8.68045 5.98411 8.68045H6.94332C7.27469 8.68045 7.54332 8.41182 7.54332 8.08045C7.54332 7.74908 7.27469 7.48045 6.94332 7.48045Z" fill="currentColor"/>
</svg>
