<svg width="24" height="24" viewBox="0 0 24 24" fill="none" xmlns="http://www.w3.org/2000/svg">
  <path fill-rule="evenodd" clip-rule="evenodd" d="M20.25 20.9996C20.1515 20.9998 20.0539 20.9804 19.9629 20.9427C19.8719 20.905 19.7893 20.8496 19.7198 20.7798L3.21982 4.27976C3.0851 4.13797 3.01111 3.94915 3.01361 3.75358C3.01612 3.55801 3.09492 3.37115 3.23322 3.23285C3.37152 3.09455 3.55838 3.01575 3.75395 3.01325C3.94952 3.01074 4.13833 3.08473 4.28013 3.21945L20.7801 19.7194C20.885 19.8243 20.9563 19.9579 20.9852 20.1034C21.0141 20.2488 20.9993 20.3996 20.9426 20.5366C20.8858 20.6736 20.7897 20.7907 20.6665 20.8731C20.5432 20.9555 20.3983 20.9995 20.25 20.9996ZM11.984 18.0003C10.0392 18.0003 8.16371 17.4246 6.40965 16.2893C4.81261 15.2581 3.37496 13.7811 2.25183 12.0237V12.02C3.18652 10.6807 4.21027 9.54824 5.30996 8.63512C5.31991 8.6268 5.32802 8.61651 5.33379 8.6049C5.33956 8.59329 5.34285 8.5806 5.34347 8.56765C5.34409 8.5547 5.34201 8.54176 5.33737 8.52965C5.33273 8.51755 5.32563 8.50653 5.31652 8.49731L4.38277 7.56496C4.36618 7.54823 4.34389 7.53837 4.32035 7.53732C4.29682 7.53628 4.27375 7.54414 4.25574 7.55934C3.08761 8.54371 2.0034 9.75121 1.01761 11.165C0.848014 11.4084 0.754608 11.6967 0.749266 11.9934C0.743924 12.29 0.826888 12.5815 0.987615 12.8309C2.22558 14.7682 3.81886 16.4 5.59449 17.5489C7.59371 18.844 9.74527 19.5003 11.984 19.5003C13.1924 19.4965 14.3923 19.2974 15.5371 18.9106C15.5522 18.9055 15.5658 18.8966 15.5765 18.8848C15.5872 18.8729 15.5947 18.8586 15.5983 18.843C15.602 18.8275 15.6015 18.8113 15.5972 18.796C15.5928 18.7807 15.5845 18.7667 15.5732 18.7554L14.5617 17.7439C14.5384 17.7212 14.5096 17.7049 14.4781 17.6967C14.4466 17.6884 14.4136 17.6886 14.3821 17.697C13.5987 17.8987 12.793 18.0006 11.984 18.0003ZM18.3548 6.47203C20.1585 7.63688 21.7677 9.26625 23.0081 11.1844C23.1648 11.4272 23.2486 11.7098 23.2494 11.9988C23.2503 12.2878 23.1681 12.571 23.0127 12.8147C22.1337 14.1975 21.0487 15.4381 19.7952 16.4934C19.7772 16.5084 19.7542 16.5161 19.7308 16.515C19.7073 16.5139 19.6852 16.504 19.6687 16.4873L18.7359 15.555C18.7267 15.5457 18.7196 15.5347 18.7149 15.5225C18.7103 15.5103 18.7082 15.4973 18.7089 15.4843C18.7095 15.4713 18.7129 15.4586 18.7188 15.4469C18.7246 15.4353 18.7328 15.425 18.7429 15.4167C19.917 14.4446 20.9312 13.2942 21.7485 12.0075C21.7494 12.0064 21.7498 12.0051 21.7498 12.0037L21.7495 12.0019C21.7493 12.0012 21.749 12.0006 21.7485 12C20.6226 10.26 19.1681 8.78438 17.541 7.73438C15.7612 6.58266 13.8913 6 11.984 6C11.1891 6.00058 10.3977 6.10602 9.6304 6.31359C9.59864 6.32246 9.5651 6.3228 9.53317 6.31457C9.50124 6.30634 9.47204 6.28984 9.44852 6.26672L8.43837 5.25656C8.42706 5.24536 8.41879 5.23147 8.41433 5.21619C8.40988 5.20091 8.40938 5.18475 8.4129 5.16923C8.41642 5.15371 8.42383 5.13934 8.43443 5.12747C8.44504 5.11561 8.45849 5.10664 8.47352 5.10141C9.60166 4.70543 10.7884 4.50212 11.984 4.5C14.1562 4.5 16.3593 5.18203 18.3548 6.47203ZM11.9999 7.5C11.6628 7.49982 11.3268 7.53756 10.9982 7.6125C10.9816 7.61595 10.9662 7.62383 10.9537 7.63531C10.9413 7.64679 10.9321 7.66144 10.9273 7.6777C10.9225 7.69395 10.9222 7.71121 10.9264 7.72763C10.9306 7.74405 10.9392 7.75901 10.9513 7.77094L16.2289 13.0472C16.2409 13.0592 16.2558 13.0678 16.2722 13.072C16.2887 13.0763 16.3059 13.076 16.3222 13.0711C16.3384 13.0663 16.3531 13.0572 16.3646 13.0447C16.376 13.0323 16.3839 13.0169 16.3874 13.0003C16.5376 12.3413 16.5375 11.6568 16.387 10.9979C16.2364 10.3389 15.9394 9.72227 15.5178 9.19385C15.0963 8.66542 14.5612 8.23874 13.9521 7.9455C13.3431 7.65226 12.6758 7.49999 11.9999 7.5ZM7.72754 10.9281C7.74396 10.9323 7.75893 10.9409 7.77085 10.953L13.0499 16.232C13.062 16.244 13.0706 16.2589 13.0748 16.2754C13.079 16.2918 13.0787 16.309 13.0739 16.3253C13.0691 16.3415 13.0599 16.3562 13.0475 16.3677C13.035 16.3792 13.0196 16.387 13.003 16.3905C12.2604 16.5605 11.4867 16.5391 10.7546 16.3284C10.0224 16.1178 9.35571 15.7246 8.81698 15.1859C8.27826 14.6472 7.88513 13.9805 7.67445 13.2483C7.46376 12.5162 7.44242 11.7425 7.61241 10.9999C7.61586 10.9833 7.62374 10.9679 7.63522 10.9554C7.6467 10.943 7.66135 10.9338 7.67761 10.929C7.69386 10.9242 7.71112 10.9239 7.72754 10.9281Z" fill="currentColor" fill-opacity="0.88"/>
</svg>
