<svg width="20" height="20" viewBox="0 0 21 20" fill="none" xmlns="http://www.w3.org/2000/svg">
  <path fill-rule="evenodd" clip-rule="evenodd" d="M6.7373 1.30441C6.4365 1.30441 6.19266 1.54826 6.19266 1.84906V3.66044H3.46946C3.1085 3.66044 2.81589 3.95306 2.81589 4.31401V7.57566C2.81589 7.92449 3.08916 8.20948 3.43329 8.22825L4.45487 18.3668C4.49575 18.6939 4.77378 18.9393 5.10339 18.9393L15.8966 18.939C16.2262 18.939 16.5042 18.6935 16.5451 18.3665L17.5667 8.22792C17.9108 8.20915 18.1841 7.92415 18.1841 7.57533V4.31368C18.1841 3.95272 17.8915 3.66011 17.5305 3.66011H14.8073V1.84872C14.8073 1.54792 14.5634 1.30408 14.2626 1.30408L6.7373 1.30441ZM13.718 3.66011V2.39336L7.28194 2.3937V3.66044L13.718 3.66011ZM4.75446 8.22924L16.2455 8.2289L15.3196 17.6318L5.68035 17.6322L4.75446 8.22924ZM16.8769 4.96725V6.92176L4.12303 6.92209V4.96759L16.8769 4.96725ZM12.6121 10.468C12.8673 10.7232 12.8673 11.137 12.6121 11.3923L11.4403 12.564L12.6121 13.7358C12.8673 13.9911 12.8673 14.4049 12.6121 14.6601C12.3568 14.9153 11.943 14.9153 11.6878 14.6601L10.516 13.4883L9.34419 14.6601C9.08896 14.9153 8.67514 14.9153 8.4199 14.6601C8.16467 14.4049 8.16467 13.9911 8.4199 13.7358L9.59169 12.564L8.41992 11.3923C8.16468 11.137 8.16468 10.7232 8.41992 10.468C8.67515 10.2127 9.08897 10.2127 9.34421 10.468L10.516 11.6397L11.6878 10.468C11.943 10.2127 12.3568 10.2127 12.6121 10.468Z" fill="currentColor"/>
</svg>
