<svg width="20" height="20" viewBox="0 0 20 20" fill="none" xmlns="http://www.w3.org/2000/svg">
<path fill-rule="evenodd" clip-rule="evenodd" d="M10.4242 15.1322L14.2425 11.3138C14.4768 11.0795 14.4768 10.6996 14.2425 10.4653C14.0082 10.231 13.6283 10.231 13.394 10.4653L10.5999 13.2594V1.59805C10.5999 1.26668 10.3313 0.998047 9.99989 0.998047C9.66852 0.998047 9.39989 1.26668 9.39989 1.59805L9.39989 13.2594L6.60578 10.4653C6.37146 10.231 5.99156 10.231 5.75725 10.4653C5.52293 10.6996 5.52293 11.0795 5.75725 11.3138L9.57562 15.1322C9.80994 15.3665 10.1898 15.3665 10.4242 15.1322ZM6.79569 5.06134L5.47628 5.06134H5.47627C4.93757 5.06133 4.49701 5.06133 4.13896 5.09058C3.76835 5.12086 3.43363 5.18545 3.12104 5.34472C2.63182 5.59399 2.23407 5.99174 1.9848 6.48097C1.82553 6.79356 1.76094 7.12828 1.73066 7.49889C1.7014 7.85694 1.70141 8.2975 1.70142 8.8362V15.0142C1.70141 15.5529 1.7014 15.9935 1.73066 16.3515C1.76094 16.7221 1.82553 17.0568 1.9848 17.3694C2.23407 17.8586 2.63182 18.2564 3.12104 18.5057C3.43363 18.6649 3.76835 18.7295 4.13896 18.7598C4.49702 18.7891 4.93759 18.7891 5.4763 18.7891H14.5368C15.0755 18.7891 15.516 18.7891 15.8741 18.7598C16.2447 18.7295 16.5794 18.6649 16.892 18.5057C17.3812 18.2564 17.779 17.8586 18.0283 17.3694C18.1875 17.0568 18.2521 16.7221 18.2824 16.3515C18.3117 15.9934 18.3117 15.5529 18.3116 15.0141V8.83627C18.3117 8.29754 18.3117 7.85695 18.2824 7.49889C18.2521 7.12828 18.1875 6.79356 18.0283 6.48097C17.779 5.99174 17.3812 5.59399 16.892 5.34472C16.5794 5.18545 16.2447 5.12086 15.8741 5.09058C15.5161 5.06133 15.0755 5.06133 14.5368 5.06134H14.5368L13.2224 5.06134C12.891 5.06134 12.6224 5.32997 12.6224 5.66134C12.6224 5.99271 12.891 6.26134 13.2224 6.26134H14.5116C15.0816 6.26134 15.473 6.26181 15.7764 6.2866C16.0728 6.31081 16.232 6.35522 16.3472 6.41393C16.6107 6.54815 16.8248 6.76233 16.9591 7.02575C17.0178 7.14099 17.0622 7.3002 17.0864 7.5966C17.1112 7.90001 17.1116 8.29139 17.1116 8.86134V14.9891C17.1116 15.559 17.1112 15.9504 17.0864 16.2538C17.0622 16.5502 17.0178 16.7094 16.9591 16.8246C16.8248 17.0881 16.6107 17.3022 16.3472 17.4365C16.232 17.4952 16.0728 17.5396 15.7764 17.5638C15.473 17.5886 15.0816 17.5891 14.5116 17.5891H5.50142C4.93146 17.5891 4.54008 17.5886 4.23668 17.5638C3.94028 17.5396 3.78106 17.4952 3.66583 17.4365C3.4024 17.3022 3.18823 17.0881 3.05401 16.8246C2.99529 16.7094 2.95089 16.5502 2.92667 16.2538C2.90188 15.9504 2.90142 15.559 2.90142 14.989V8.86134C2.90142 8.29139 2.90188 7.90001 2.92667 7.5966C2.95089 7.3002 2.99529 7.14099 3.05401 7.02575C3.18823 6.76233 3.4024 6.54815 3.66583 6.41393C3.78106 6.35522 3.94028 6.31081 4.23668 6.2866C4.54008 6.26181 4.93146 6.26134 5.50142 6.26134H6.79569C7.12706 6.26134 7.39569 5.99271 7.39569 5.66134C7.39569 5.32997 7.12706 5.06134 6.79569 5.06134Z" fill="currentColor"/>
</svg>
