<svg width="16" height="16" viewBox="0 0 16 16" fill="none" xmlns="http://www.w3.org/2000/svg">
  <path d="M10.8396 7.8482C10.6053 7.61388 10.2254 7.61388 9.99107 7.8482L8.60022 9.23905L8.59999 1.84335C8.59999 1.51198 8.33136 1.24335 7.99999 1.24335C7.66862 1.24335 7.39999 1.51198 7.39999 1.84335L7.40022 9.23904L6.00932 7.8482C5.77501 7.61388 5.39511 7.61388 5.16079 7.8482C4.92648 8.08251 4.92648 8.46241 5.16079 8.69672L7.29312 10.829C7.68364 11.2195 8.3168 11.2195 8.70732 10.829L10.8396 8.69672C11.0739 8.46241 11.0739 8.08251 10.8396 7.8482Z" fill="currentColor"/>
  <path d="M3.60002 6.88517C3.60002 6.11197 4.22683 5.48517 5.00002 5.48517H5.41685C5.74823 5.48517 6.01685 5.21654 6.01685 4.88517C6.01685 4.5538 5.74823 4.28517 5.41685 4.28517H5.00002C3.56408 4.28517 2.40002 5.44923 2.40002 6.88517V12.1566C2.40002 13.5925 3.56408 14.7566 5.00002 14.7566H11C12.436 14.7566 13.6 13.5925 13.6 12.1566V6.88517C13.6 5.44923 12.436 4.28517 11 4.28517H10.5905C10.2591 4.28517 9.99047 4.5538 9.99047 4.88517C9.99047 5.21654 10.2591 5.48517 10.5905 5.48517H11C11.7732 5.48517 12.4 6.11197 12.4 6.88517V12.1566C12.4 12.9298 11.7732 13.5566 11 13.5566H5.00002C4.22683 13.5566 3.60002 12.9298 3.60002 12.1566V6.88517Z" fill="currentColor"/>
</svg>
