<svg width="16" height="16" viewBox="0 0 16 16" fill="none" xmlns="http://www.w3.org/2000/svg"><path fill-rule="evenodd" clip-rule="evenodd" d="M5.00002 3.60002C4.22683 3.60002 3.60002 4.22683 3.60002 5.00002V11C3.60002 11.7732 4.22683 12.4 5.00002 12.4H11C11.7732 12.4 12.4 11.7732 12.4 11V9.5C12.4 9.16863 12.6687 8.9 13 8.9C13.3314 8.9 13.6 9.16863 13.6 9.5V11C13.6 12.436 12.436 13.6 11 13.6H5.00002C3.56408 13.6 2.40002 12.436 2.40002 11V5.00002C2.40002 3.56408 3.56408 2.40002 5.00002 2.40002H6.4C6.73137 2.40002 7 2.66865 7 3.00002C7 3.3314 6.73137 3.60002 6.4 3.60002H5.00002ZM9.00002 3.60002C8.66865 3.60002 8.40002 3.3314 8.40002 3.00002C8.40002 2.66865 8.66865 2.40002 9.00002 2.40002H13.6V7.00002C13.6 7.3314 13.3314 7.60002 13 7.60002C12.6687 7.60002 12.4 7.3314 12.4 7.00002V4.44855L8.42429 8.42429C8.18997 8.6586 7.81007 8.6586 7.57576 8.42429C7.34145 8.18997 7.34145 7.81007 7.57576 7.57576L11.5515 3.60002H9.00002Z" fill="currentColor"/></svg>
