<svg width="16" height="16" viewBox="0 0 16 16" fill="none" xmlns="http://www.w3.org/2000/svg"><path fill-rule="evenodd" clip-rule="evenodd" d="M7.33312 8.01854L12.8894 13.5748C13.0789 13.7643 13.3859 13.7642 13.5752 13.5749C13.7645 13.3857 13.7645 13.0786 13.5751 12.8892L8.01879 7.33287L7.33312 8.01854ZM5.21807 5.21783C4.63815 5.79775 4.63831 6.73795 5.21818 7.31782L12.1823 14.2819C12.7622 14.8618 13.7024 14.862 14.2823 14.282C14.8622 13.7021 14.8621 12.7619 14.2822 12.1821L7.31807 5.21794C6.73819 4.63806 5.79799 4.63791 5.21807 5.21783Z" fill="currentColor"/><path d="M1.5 6H3" stroke="currentColor" stroke-miterlimit="10" stroke-linecap="round"/><path d="M2.81787 2.81812L3.8785 3.87874" stroke="currentColor" stroke-miterlimit="10" stroke-linecap="round"/><path d="M6 1.5V3" stroke="currentColor" stroke-miterlimit="10" stroke-linecap="round"/><path d="M9.18172 2.81812L8.12109 3.87874" stroke="currentColor" stroke-miterlimit="10" stroke-linecap="round"/><path d="M3.8785 8.12134L2.81787 9.18196" stroke="currentColor" stroke-miterlimit="10" stroke-linecap="round"/></svg>
