<svg width="24" height="24" viewBox="0 0 24 24" fill="none" xmlns="http://www.w3.org/2000/svg"><path d="M15.7917 9.08333C16.5971 9.08333 17.25 8.43042 17.25 7.625C17.25 6.81958 16.5971 6.16667 15.7917 6.16667C14.9862 6.16667 14.3333 6.81958 14.3333 7.625C14.3333 8.43042 14.9862 9.08333 15.7917 9.08333Z" fill="currentColor"/><path d="M6.75 7.625C6.75 6.75 7.35653 6.75 7.625 6.75H11.125C11.3935 6.75 12 6.75 12 7.625C12 8.5 11.3935 8.5 11.125 8.5H7.625C7.38194 8.5 6.75 8.5 6.75 7.625Z" fill="currentColor"/><path d="M17.25 13.75C17.25 14.5554 16.5971 15.2083 15.7917 15.2083C14.9862 15.2083 14.3333 14.5554 14.3333 13.75C14.3333 12.9446 14.9862 12.2917 15.7917 12.2917C16.5971 12.2917 17.25 12.9446 17.25 13.75Z" fill="currentColor"/><path d="M7.625 12.875C7.35653 12.875 6.75 12.875 6.75 13.75C6.75 14.625 7.38194 14.625 7.625 14.625H11.125C11.3935 14.625 12 14.625 12 13.75C12 12.875 11.3935 12.875 11.125 12.875H7.625Z" fill="currentColor"/><path fill-rule="evenodd" clip-rule="evenodd" d="M12 24C18.6274 24 24 18.6274 24 12C24 5.37258 18.6274 0 12 0C5.37258 0 0 5.37258 0 12C0 18.6274 5.37258 24 12 24ZM5.97223 5C5.43529 5 5.00001 5.43528 5.00001 5.97222V9.27778C5.00001 9.81472 5.43529 10.25 5.97223 10.25H18.0278C18.5647 10.25 19 9.81472 19 9.27778V5.97222C19 5.43528 18.5647 5 18.0278 5H5.97223ZM5 18.5625C5 18.294 5.21764 18.125 5.48611 18.125H11.0278C11.0278 17.5881 11.463 17.1528 12 17.1528C12.5369 17.1528 12.9722 17.5881 12.9722 18.125H18.5139C18.7823 18.125 19 18.294 19 18.5625C19 18.831 18.7823 19 18.5139 19H5.48611C5.21764 19 5 18.831 5 18.5625ZM5.00001 12.0972C5.00001 11.5603 5.43529 11.125 5.97223 11.125H18.0278C18.5647 11.125 19 11.5603 19 12.0972V15.4028C19 15.9397 18.5647 16.375 18.0278 16.375H5.97223C5.43529 16.375 5.00001 15.9397 5.00001 15.4028V12.0972Z" fill="currentColor"/></svg>
