<svg width="16" height="16" viewBox="0 0 16 16" fill="none" xmlns="http://www.w3.org/2000/svg">
<path d="M7.99613 16C12.3809 16 16 12.3809 16 7.99613C16 3.61914 12.3731 0 7.9884 0C3.61141 0 0 3.61914 0 7.99613C0 12.3809 3.61914 16 7.99613 16ZM5.11165 11.0275V7.90334C5.11165 7.35428 5.33591 7.06815 5.78444 7.02175V6.1247C5.78444 4.63992 6.68149 3.65007 7.9884 3.65007C9.31078 3.65007 10.2001 4.63992 10.2001 6.1247V7.02175C10.6486 7.06815 10.8729 7.35428 10.8729 7.90334V11.0275C10.8729 11.6462 10.5945 11.9246 10.03 11.9246H5.95457C5.39004 11.9246 5.11165 11.6462 5.11165 11.0275ZM6.74335 7.00628H9.24118V6.03963C9.24118 5.15805 8.73852 4.57806 7.9884 4.57806C7.23828 4.57806 6.74335 5.16578 6.74335 6.03963V7.00628Z" fill="currentColor"/>
</svg>
