<svg width="60" height="60" viewBox="0 0 60 60" fill="none" xmlns="http://www.w3.org/2000/svg">
<g id="ill_cnf_retract _60">
<g clip-path="url(#clip0_7559_112)">
<path id="Union" fill-rule="evenodd" clip-rule="evenodd" d="M30 57.5C45.1878 57.5 57.5 45.1878 57.5 30C57.5 14.8122 45.1878 2.5 30 2.5C14.8122 2.5 2.5 14.8122 2.5 30C2.5 45.1878 14.8122 57.5 30 57.5ZM30 60C46.5685 60 60 46.5685 60 30C60 13.4315 46.5685 0 30 0C13.4315 0 0 13.4315 0 30C0 46.5685 13.4315 60 30 60Z" fill="currentColor"/>
<path id="Union_2" fill-rule="evenodd" clip-rule="evenodd" d="M32.6428 13.3213C32.9743 13.3213 33.2922 13.453 33.5267 13.6874L44.2905 24.4513C44.7787 24.9395 44.7787 25.7309 44.2905 26.2191L34.374 36.1357H46.0565C46.7469 36.1357 47.3065 36.6954 47.3065 37.3857V45.4284C47.3065 46.1188 46.7469 46.6784 46.0565 46.6784C45.3661 46.6784 44.8065 46.1188 44.8065 45.4284V38.6357H31.4419C31.4124 38.6378 31.3828 38.6389 31.3531 38.6389H25.7314C25.7017 38.6389 25.6721 38.6378 25.6426 38.6357H15.8213V45.4284C15.8213 46.1188 15.2616 46.6784 14.5713 46.6784C13.8809 46.6784 13.3213 46.1188 13.3213 45.4284V37.3857C13.3213 36.6954 13.8809 36.1357 14.5713 36.1357H22.7105L16.8944 30.3196C16.4063 29.8315 16.4063 29.04 16.8944 28.5518L31.7589 13.6874C31.9933 13.453 32.3113 13.3213 32.6428 13.3213ZM41.6389 25.3352L30.8385 36.1357H26.246L19.5461 29.4357L32.6428 16.3391L41.6389 25.3352ZM31.0727 20.837C31.761 20.8901 32.276 21.4911 32.2229 22.1794L31.9229 26.07H35.8256C36.516 26.07 37.0756 26.6296 37.0756 27.32C37.0756 28.0103 36.516 28.57 35.8256 28.57H31.7302L31.4153 32.6527C31.3623 33.341 30.7612 33.8559 30.0729 33.8029C29.3846 33.7498 28.8697 33.1488 28.9227 32.4605L29.2227 28.57H25.3213C24.6309 28.57 24.0713 28.0103 24.0713 27.32C24.0713 26.6296 24.6309 26.07 25.3213 26.07H29.4155L29.7303 21.9872C29.7834 21.2989 30.3844 20.7839 31.0727 20.837Z" fill="currentColor"/>
</g>
</g>
<defs>
<clipPath id="clip0_7559_112">
<rect width="60" height="60" rx="30" fill="currentColor"/>
</clipPath>
</defs>
</svg>
