<svg width="60" height="60" viewBox="0 0 60 60" fill="none" xmlns="http://www.w3.org/2000/svg">
<g id="ill_cnf_revote_60">
<g clip-path="url(#clip0_7559_114)">
<path id="Union" fill-rule="evenodd" clip-rule="evenodd" d="M30 57.5C45.1878 57.5 57.5 45.1878 57.5 30C57.5 14.8122 45.1878 2.5 30 2.5C14.8122 2.5 2.5 14.8122 2.5 30C2.5 45.1878 14.8122 57.5 30 57.5ZM30 60C46.5685 60 60 46.5685 60 30C60 13.4315 46.5685 0 30 0C13.4315 0 0 13.4315 0 30C0 46.5685 13.4315 60 30 60Z" fill="currentColor"/>
<path id="Union_2" fill-rule="evenodd" clip-rule="evenodd" d="M21.3644 27.4073L24.9287 27.4071C25.6191 27.4071 26.1787 27.9667 26.1787 28.6571C26.1788 29.3474 25.6192 29.9071 24.9288 29.9071L18.2943 29.9074C17.9627 29.9074 17.6448 29.7757 17.4103 29.5413C17.1759 29.3068 17.0442 28.9889 17.0442 28.6573L17.0445 22.4642C17.0445 21.7738 17.6042 21.2142 18.2946 21.2142C18.9849 21.2143 19.5445 21.7739 19.5445 22.4643L19.5444 25.6918L32.3095 12.9267C32.7976 12.4385 33.5891 12.4385 34.0773 12.9267L39.8803 18.7297C40.3685 19.2179 40.3685 20.0093 39.8803 20.4975C39.3922 20.9856 38.6007 20.9856 38.1126 20.4975L33.1934 15.5783L21.3644 27.4073ZM23.3627 32.0013C22.8745 31.5132 22.0831 31.5132 21.5949 32.0013C21.1068 32.4895 21.1068 33.2809 21.5949 33.7691L23.9616 36.1357H14.5713C13.8809 36.1357 13.3213 36.6954 13.3213 37.3857V45.4284C13.3213 46.1188 13.8809 46.6784 14.5713 46.6784C15.2616 46.6784 15.8213 46.1188 15.8213 45.4284V38.6357H44.8065V45.4284C44.8065 46.1188 45.3661 46.6784 46.0565 46.6784C46.7469 46.6784 47.3065 46.1188 47.3065 45.4284V37.3857C47.3065 36.6954 46.7469 36.1357 46.0565 36.1357H34.1585L42.5497 27.7446L42.5496 30.9214C42.5495 31.6117 43.1092 32.1714 43.7995 32.1714C44.4899 32.1715 45.0495 31.6119 45.0496 30.9215L45.0499 24.7283C45.0499 24.3968 44.9182 24.0788 44.6837 23.8444C44.4493 23.61 44.1313 23.4783 43.7998 23.4783L37.1653 23.4785C36.4749 23.4786 35.9153 24.0382 35.9153 24.7286C35.9153 25.4189 36.475 25.9786 37.1654 25.9785L40.7803 25.9784L30.623 36.1357H27.4939C27.4771 36.1168 27.4597 36.0982 27.4415 36.0801L23.3627 32.0013Z" fill="currentColor"/>
</g>
</g>
<defs>
<clipPath id="clip0_7559_114">
<rect width="60" height="60" rx="30" fill="currentColor"/>
</clipPath>
</defs>
</svg>
