<svg width="16" height="17" viewBox="0 0 16 17" fill="none" xmlns="http://www.w3.org/2000/svg">
<path fill-rule="evenodd" clip-rule="evenodd" d="M6.24512 6.33468C7.57201 6.33468 8.64767 5.25903 8.64767 3.93214C8.64767 2.60525 7.57201 1.52959 6.24512 1.52959C4.91823 1.52959 3.84258 2.60525 3.84258 3.93214C3.84258 5.25903 4.91823 6.33468 6.24512 6.33468ZM6.24512 7.53468C8.23476 7.53468 9.84767 5.92177 9.84767 3.93214C9.84767 1.9425 8.23476 0.32959 6.24512 0.32959C4.25549 0.32959 2.64258 1.9425 2.64258 3.93214C2.64258 5.92177 4.25549 7.53468 6.24512 7.53468ZM0.235352 12.9318C0.235352 10.5916 2.13248 8.69446 4.47272 8.69446H9.07266C9.40403 8.69446 9.67266 8.96309 9.67266 9.29446C9.67266 9.62583 9.40403 9.89446 9.07266 9.89446H4.47272C2.79523 9.89446 1.43535 11.2543 1.43535 12.9318V14.9284C1.43535 15.2597 1.16672 15.5284 0.835352 15.5284C0.503981 15.5284 0.235352 15.2597 0.235352 14.9284V12.9318ZM10.8979 0.387939C10.5665 0.387939 10.2979 0.656569 10.2979 0.987939C10.2979 1.31931 10.5665 1.58794 10.8979 1.58794C11.3478 1.58794 11.7675 1.70988 12.1277 1.92214C12.8451 2.34497 13.3242 3.12401 13.3242 4.01432C13.3242 4.90462 12.8451 5.68366 12.1277 6.10649C11.7675 6.31875 11.3478 6.44069 10.8979 6.44069C10.5665 6.44069 10.2979 6.70932 10.2979 7.04069C10.2979 7.37206 10.5665 7.64069 10.8979 7.64069C11.5679 7.64069 12.1973 7.45838 12.737 7.14029C13.8053 6.51065 14.5242 5.34677 14.5242 4.01432C14.5242 2.68186 13.8053 1.51798 12.737 0.888343C12.1973 0.570248 11.5679 0.387939 10.8979 0.387939ZM6.43848 12.8987C6.43848 12.5673 6.70711 12.2987 7.03848 12.2987H13.7008L11.9308 10.5546C11.6947 10.322 11.6919 9.94214 11.9245 9.7061C12.1571 9.47006 12.537 9.46726 12.773 9.69984L15.5858 12.4713C15.7002 12.5841 15.7646 12.7381 15.7646 12.8987C15.7646 13.0594 15.7002 13.2134 15.5858 13.3261L12.773 16.0977C12.537 16.3302 12.1571 16.3274 11.9245 16.0914C11.6919 15.8554 11.6947 15.4755 11.9308 15.2429L13.7009 13.4987H7.03848C6.70711 13.4987 6.43848 13.2301 6.43848 12.8987Z" fill="#C3C3CB"/>
</svg>
