<svg width="60" height="60" viewBox="0 0 60 60" fill="none" xmlns="http://www.w3.org/2000/svg">
<g clip-path="url(#clip0_7453_175)">
<path fill-rule="evenodd" clip-rule="evenodd" d="M30 57.5C45.1878 57.5 57.5 45.1878 57.5 30C57.5 14.8122 45.1878 2.5 30 2.5C14.8122 2.5 2.5 14.8122 2.5 30C2.5 45.1878 14.8122 57.5 30 57.5ZM30 60C46.5685 60 60 46.5685 60 30C60 13.4315 46.5685 0 30 0C13.4315 0 0 13.4315 0 30C0 46.5685 13.4315 60 30 60Z" fill="currentColor"/>
<path fill-rule="evenodd" clip-rule="evenodd" d="M32.6428 13.3214C32.9743 13.3214 33.2922 13.4531 33.5267 13.6875L44.2905 24.4514C44.7787 24.9396 44.7787 25.731 44.2905 26.2192L34.374 36.1359H46.0565C46.7469 36.1359 47.3065 36.6955 47.3065 37.3859V45.4285C47.3065 46.1189 46.7469 46.6785 46.0565 46.6785C45.3661 46.6785 44.8065 46.1189 44.8065 45.4285V38.6359H31.4419C31.4124 38.638 31.3828 38.639 31.3531 38.639H25.7314C25.7017 38.639 25.6721 38.638 25.6426 38.6359H15.8213V45.4285C15.8213 46.1189 15.2616 46.6785 14.5713 46.6785C13.8809 46.6785 13.3213 46.1189 13.3213 45.4285V37.3859C13.3213 36.6955 13.8809 36.1359 14.5713 36.1359H22.7105L16.8944 30.3197C16.4063 29.8316 16.4063 29.0401 16.8944 28.552L31.7589 13.6875C31.9933 13.4531 32.3113 13.3214 32.6428 13.3214ZM30.8385 36.1359H26.246L19.5461 29.4359L32.6428 16.3392L41.6389 25.3353L30.8385 36.1359ZM32.0724 21.0898C32.761 21.1391 33.2792 21.7373 33.2299 22.4259L32.651 30.512C32.6025 31.1886 32.0233 31.7031 31.3458 31.6714L28.1887 31.5238C27.4991 31.4916 26.9662 30.9064 26.9985 30.2168C27.0307 29.5272 27.6159 28.9943 28.3055 29.0265L30.2444 29.1172L30.7363 22.2473C30.7856 21.5587 31.3838 21.0405 32.0724 21.0898Z" fill="currentColor"/>
</g>
<defs>
<clipPath id="clip0_7453_175">
<rect width="60" height="60" rx="30" fill="currentColor"/>
</clipPath>
</defs>
</svg>
