<svg width="60" height="60" viewBox="0 0 60 60" fill="none" xmlns="http://www.w3.org/2000/svg">
<g id="ill_cnf_unlock _60">
<g clip-path="url(#clip0_655_77321)">
<path id="Union" fill-rule="evenodd" clip-rule="evenodd" d="M30 57.5C45.1878 57.5 57.5 45.1878 57.5 30C57.5 14.8122 45.1878 2.5 30 2.5C14.8122 2.5 2.5 14.8122 2.5 30C2.5 45.1878 14.8122 57.5 30 57.5ZM30 60C46.5685 60 60 46.5685 60 30C60 13.4315 46.5685 0 30 0C13.4315 0 0 13.4315 0 30C0 46.5685 13.4315 60 30 60Z"  fill="currentColor"/>
<path id="Union_2" fill-rule="evenodd" clip-rule="evenodd" d="M25.5185 13.6763C23.2103 15.7281 23.0024 19.2626 25.0542 21.5708L25.0542 21.5709L26.2861 22.9567H39.1103C42.0098 22.9567 44.3603 25.3072 44.3603 28.2067V39.5645C44.3603 42.464 42.0098 44.8145 39.1103 44.8145H20.4932C17.5937 44.8145 15.2432 42.464 15.2432 39.5645V28.2067C15.2432 25.3072 17.5937 22.9567 20.4932 22.9567H22.9518C20.2351 19.6163 20.6078 14.6965 23.8576 11.8078C27.1977 8.83867 32.3125 9.13944 35.2816 12.4796L36.7375 14.1175C37.1962 14.6335 37.1497 15.4236 36.6337 15.8822C36.1178 16.3409 35.3277 16.2944 34.869 15.7784L33.4131 14.1406C31.3613 11.8323 27.8267 11.6245 25.5185 13.6763ZM20.4932 25.4567C18.9744 25.4567 17.7432 26.6879 17.7432 28.2067V39.5645C17.7432 41.0833 18.9744 42.3145 20.4932 42.3145H39.1103C40.6291 42.3145 41.8603 41.0833 41.8603 39.5645V28.2067C41.8603 26.6879 40.6291 25.4567 39.1103 25.4567H20.4932ZM31.25 30.103C31.25 29.4127 30.6903 28.853 30 28.853C29.3096 28.853 28.75 29.4127 28.75 30.103V37.6684C28.75 38.3588 29.3096 38.9184 30 38.9184C30.6903 38.9184 31.25 38.3588 31.25 37.6684V30.103Z"  fill="currentColor"/>
</g>
</g>
<defs>
<clipPath id="clip0_655_77321">
<rect width="60" height="60" rx="30" fill="white"/>
</clipPath>
</defs>
</svg>
