<svg width="60" height="60" viewBox="0 0 60 60" fill="none" xmlns="http://www.w3.org/2000/svg">
<g id="ill_cnf_lock _60">
<g clip-path="url(#clip0_655_77268)">
<path id="Union" fill-rule="evenodd" clip-rule="evenodd" d="M30 57.5C45.1878 57.5 57.5 45.1878 57.5 30C57.5 14.8122 45.1878 2.5 30 2.5C14.8122 2.5 2.5 14.8122 2.5 30C2.5 45.1878 14.8122 57.5 30 57.5ZM30 60C46.5685 60 60 46.5685 60 30C60 13.4315 46.5685 0 30 0C13.4315 0 0 13.4315 0 30C0 46.5685 13.4315 60 30 60Z"  fill="currentColor"/>
<path id="Union_2" fill-rule="evenodd" clip-rule="evenodd" d="M29.8017 15.7734C26.7133 15.7734 24.2097 18.277 24.2097 21.3654V21.3654L24.2097 22.9571H35.3936V21.3654C35.3936 18.277 32.89 15.7734 29.8017 15.7734ZM21.7097 21.3654L21.7097 22.9571H20.4932C17.5937 22.9571 15.2432 25.3076 15.2432 28.2071V39.5649C15.2432 42.4644 17.5937 44.8149 20.4932 44.8149H39.1103C42.0098 44.8149 44.3603 42.4644 44.3603 39.5649V28.2071C44.3603 25.3076 42.0098 22.9571 39.1103 22.9571H37.8936V21.3654C37.8936 16.8963 34.2707 13.2734 29.8017 13.2734C25.3326 13.2734 21.7097 16.8963 21.7097 21.3654V21.3654ZM20.4932 25.4571C18.9744 25.4571 17.7432 26.6883 17.7432 28.2071V39.5649C17.7432 41.0837 18.9744 42.3149 20.4932 42.3149H39.1103C40.6291 42.3149 41.8603 41.0837 41.8603 39.5649V28.2071C41.8603 26.6883 40.6291 25.4571 39.1103 25.4571H20.4932ZM31.25 30.1034C31.25 29.413 30.6903 28.8534 30 28.8534C29.3096 28.8534 28.75 29.413 28.75 30.1034V37.6688C28.75 38.3592 29.3096 38.9188 30 38.9188C30.6903 38.9188 31.25 38.3592 31.25 37.6688V30.1034Z"  fill="currentColor"/>
</g>
</g>
<defs>
<clipPath id="clip0_655_77268">
<rect width="60" height="60" rx="30" fill="currentColor"/>
</clipPath>
</defs>
</svg>
