<svg width="18" height="17" viewBox="0 0 18 17" fill="none" xmlns="http://www.w3.org/2000/svg">
<path fill-rule="evenodd" clip-rule="evenodd" d="M8.56759 3.93214C8.56759 5.25903 7.49194 6.33468 6.16505 6.33468C4.83816 6.33468 3.7625 5.25903 3.7625 3.93214C3.7625 2.60525 4.83816 1.52959 6.16505 1.52959C7.49194 1.52959 8.56759 2.60525 8.56759 3.93214ZM9.76759 3.93214C9.76759 5.92177 8.15468 7.53468 6.16505 7.53468C4.17541 7.53468 2.5625 5.92177 2.5625 3.93214C2.5625 1.9425 4.17541 0.32959 6.16505 0.32959C8.15468 0.32959 9.76759 1.9425 9.76759 3.93214ZM4.39264 8.69446C2.05241 8.69446 0.155273 10.5916 0.155273 12.9318V15.3942C0.155273 15.7255 0.423903 15.9942 0.755273 15.9942C1.08664 15.9942 1.35527 15.7255 1.35527 15.3942V12.9318C1.35527 11.2543 2.71515 9.89446 4.39264 9.89446H8.99259C9.32396 9.89446 9.59259 9.62583 9.59259 9.29446C9.59259 8.96309 9.32396 8.69446 8.99259 8.69446H4.39264ZM10.2178 0.987939C10.2178 0.656569 10.4864 0.387939 10.8178 0.387939C11.4879 0.387939 12.1172 0.570248 12.6569 0.888343C13.7252 1.51798 14.4441 2.68186 14.4441 4.01432C14.4441 5.34677 13.7252 6.51065 12.6569 7.14029C12.1172 7.45838 11.4879 7.64069 10.8178 7.64069C10.4864 7.64069 10.2178 7.37206 10.2178 7.04069C10.2178 6.70932 10.4864 6.44069 10.8178 6.44069C11.2678 6.44069 11.6874 6.31875 12.0476 6.10649C12.765 5.68366 13.2441 4.90462 13.2441 4.01432C13.2441 3.12401 12.765 2.34497 12.0476 1.92214C11.6874 1.70988 11.2678 1.58794 10.8178 1.58794C10.4864 1.58794 10.2178 1.31931 10.2178 0.987939ZM10.855 16.2789C10.9241 16.2687 10.988 16.2366 11.0374 16.1873L17.0345 10.1901C17.1613 10.0633 17.1613 9.85785 17.0345 9.73112L14.8431 7.53966C14.7163 7.41292 14.5109 7.41292 14.3841 7.53966L8.38695 13.5368C8.3376 13.5862 8.30548 13.6501 8.29534 13.7192L7.91815 16.2878C7.88656 16.5029 8.07128 16.6876 8.28638 16.6561L10.855 16.2789ZM14.6574 10.8701L13.7041 9.91679L14.6136 9.00724L15.567 9.96059L14.6574 10.8701ZM13.8089 11.7187L12.8555 10.7653L9.44049 14.1804L9.2764 15.2978L10.3938 15.1337L13.8089 11.7187Z" fill="#C3C3CB"/>
</svg>
