<svg width="16" height="16" viewBox="0 0 16 16" fill="none" xmlns="http://www.w3.org/2000/svg">
<path fill-rule="evenodd" clip-rule="evenodd" d="M6.08497 6.33468C7.41186 6.33468 8.48751 5.25903 8.48751 3.93214C8.48751 2.60525 7.41186 1.52959 6.08497 1.52959C4.75808 1.52959 3.68242 2.60525 3.68242 3.93214C3.68242 5.25903 4.75808 6.33468 6.08497 6.33468ZM6.08497 7.53468C8.0746 7.53468 9.68751 5.92177 9.68751 3.93214C9.68751 1.9425 8.0746 0.32959 6.08497 0.32959C4.09534 0.32959 2.48242 1.9425 2.48242 3.93214C2.48242 5.92177 4.09534 7.53468 6.08497 7.53468ZM0.0751953 12.9318C0.0751953 10.5916 1.97233 8.69446 4.31256 8.69446H7.2834C7.61477 8.69446 7.8834 8.96309 7.8834 9.29446C7.8834 9.62583 7.61477 9.89446 7.2834 9.89446H4.31256C2.63507 9.89446 1.2752 11.2543 1.2752 12.9318V15.3942C1.2752 15.7255 1.00657 15.9942 0.675195 15.9942C0.343824 15.9942 0.0751953 15.7255 0.0751953 15.3942V12.9318ZM10.7377 0.387939C10.4063 0.387939 10.1377 0.656569 10.1377 0.987939C10.1377 1.31931 10.4063 1.58794 10.7377 1.58794C11.1877 1.58794 11.6074 1.70988 11.9675 1.92214C12.6849 2.34497 13.1641 3.12401 13.1641 4.01432C13.1641 4.90462 12.6849 5.68366 11.9675 6.10649C11.6074 6.31875 11.1877 6.44069 10.7377 6.44069C10.4063 6.44069 10.1377 6.70932 10.1377 7.04069C10.1377 7.37206 10.4063 7.64069 10.7377 7.64069C11.4078 7.64069 12.0371 7.45838 12.5768 7.14029C13.6451 6.51065 14.3641 5.34677 14.3641 4.01432C14.3641 2.68186 13.6451 1.51798 12.5768 0.888343C12.0371 0.570248 11.4078 0.387939 10.7377 0.387939ZM9.26363 9.55061C9.49794 9.3163 9.87784 9.3163 10.1122 9.55061L12.3975 11.8359L14.6828 9.55061C14.9171 9.3163 15.297 9.3163 15.5313 9.55061C15.7656 9.78493 15.7656 10.1648 15.5313 10.3991L13.246 12.6844L15.5314 14.9699C15.7657 15.2042 15.7657 15.5841 15.5314 15.8184C15.2971 16.0527 14.9172 16.0527 14.6829 15.8184L12.3975 13.533L10.112 15.8184C9.8777 16.0527 9.4978 16.0527 9.26349 15.8184C9.02917 15.5841 9.02917 15.2042 9.26349 14.9699L11.5489 12.6844L9.26363 10.3991C9.02931 10.1648 9.02931 9.78493 9.26363 9.55061Z" fill="#C3C3CB"/>
</svg>
