<svg width="16" height="16" viewBox="0 0 16 16" fill="none" xmlns="http://www.w3.org/2000/svg">
<path fill-rule="evenodd" clip-rule="evenodd" d="M8.29515 15.3483C12.5161 15.3483 16 11.8749 16 7.67417C16 3.47342 12.5086 0 8.28771 0C4.07424 0 0.597749 3.47342 0.597749 7.67417C0.597749 7.71606 0.598095 7.75788 0.598785 7.79962C1.57285 7.82886 2.35752 8.62923 2.35752 9.60725V10.7873C2.35752 11.2923 2.5195 11.634 2.71674 11.8403C2.73249 11.8568 2.74901 11.873 2.76635 11.8889C2.91536 11.4486 3.23036 11.041 3.76746 10.8373C4.27641 10.6443 4.77047 10.7214 5.16857 10.8984C6.02765 10.4256 7.10341 10.1679 8.28771 10.1679C10.2753 10.1679 11.9875 10.8952 12.8511 12.1866C11.7285 13.3873 9.96011 14.0773 8.29461 14.0792C8.26315 14.6496 7.94416 15.0644 7.63532 15.3198C7.85297 15.3387 8.07304 15.3483 8.29515 15.3483ZM8.28771 8.88393C6.82863 8.87651 5.69709 7.65933 5.69709 6.04879C5.6822 4.53474 6.83607 3.27303 8.28771 3.27303C9.73934 3.27303 10.8783 4.53474 10.8783 6.04879C10.8783 7.65933 9.74679 8.89877 8.28771 8.88393ZM0 10.7882C0 12.9851 1.50375 14.4769 3.69237 14.4769H3.93059V15.4343C3.93059 16.0132 4.39214 16.1542 4.83135 15.8277L6.7892 14.373C7.10186 14.1429 7.1093 13.8386 6.7892 13.6085L4.83135 12.1613C4.39958 11.8421 3.93059 11.9831 3.93059 12.5398V13.4675H3.68493C2.11418 13.4675 1.08687 12.3542 1.08687 10.7882V9.60816C1.08687 9.31129 0.841206 9.06637 0.543434 9.06637C0.245662 9.06637 0 9.31129 0 9.60816V10.7882Z" fill="currentColor"/>
</svg>
