<svg width="16" height="16" viewBox="0 0 16 16" fill="none" xmlns="http://www.w3.org/2000/svg">
<g id="promote-voting">
<path id="Subtract" fill-rule="evenodd" clip-rule="evenodd" d="M8.82976 1.04833C8.49031 0.360518 7.50951 0.360517 7.17005 1.04833L5.47537 4.48213C5.34057 4.75526 5.08 4.94458 4.77858 4.98837L0.989159 5.53901C0.230111 5.64931 -0.0729748 6.5821 0.476278 7.11749L3.21833 9.79033C3.43644 10.0029 3.53597 10.3093 3.48448 10.6095L2.83717 14.3836C2.70751 15.1395 3.50099 15.716 4.17991 15.3591L7.56927 13.5772C7.83887 13.4355 8.16094 13.4355 8.43054 13.5772L11.8199 15.3591C12.4988 15.716 13.2923 15.1395 13.1626 14.3836L12.5153 10.6095C12.4638 10.3093 12.5634 10.0029 12.7815 9.79033L15.5235 7.11749C16.0728 6.5821 15.7697 5.64931 15.0107 5.53901L11.2212 4.98837C10.9198 4.94458 10.6592 4.75526 10.5244 4.48213L8.82976 1.04833ZM8.36496 6.07491C8.1697 5.87965 7.85312 5.87965 7.65786 6.07491L5.8373 7.8954C5.64204 8.09066 5.64204 8.40724 5.8373 8.6025C6.03257 8.79777 6.34915 8.79777 6.54441 8.6025L7.51141 7.63557V10.6127C7.51141 10.8888 7.73527 11.1127 8.01141 11.1127C8.28755 11.1127 8.51141 10.8888 8.51141 10.6127V7.63557L9.48271 8.60689C9.67797 8.80215 9.99456 8.80215 10.1898 8.60689C10.3851 8.41163 10.3851 8.09505 10.1898 7.89978L8.36496 6.07491Z" fill="#C3C3CB"/>
</g>
</svg>
