<svg width="36" height="36" viewBox="0 0 36 36" fill="none" xmlns="http://www.w3.org/2000/svg"><path d="M8.67682 6.10488C8.67682 5.77351 8.94545 5.50488 9.27682 5.50488H26.4197C26.751 5.50488 27.0197 5.77351 27.0197 6.10488V14.9615L26.8409 14.8584C26.5224 14.6748 26.1668 14.5982 25.8197 14.6219V6.70488H9.87682V26.0763H15.9774C16.2229 26.367 16.5606 26.5806 16.953 26.6699L17.659 26.8307L17.5133 27.2763H9.27682C8.94545 27.2763 8.67682 27.0077 8.67682 26.6763V6.10488Z" fill="currentColor"/><path d="M18.297 16.6244L20.1175 15.5764H16.0659C15.7345 15.5764 15.4659 15.845 15.4659 16.1764C15.4659 16.5078 15.7345 16.7764 16.0659 16.7764H18.0734C18.1432 16.7209 18.2178 16.67 18.297 16.6244Z" fill="currentColor"/><path d="M13.0669 10.9387C12.7355 10.9387 12.4669 11.2073 12.4669 11.5387C12.4669 11.8701 12.7355 12.1387 13.0669 12.1387H13.0761C13.4075 12.1387 13.6761 11.8701 13.6761 11.5387C13.6761 11.2073 13.4075 10.9387 13.0761 10.9387H13.0669Z" fill="currentColor"/><path d="M15.4659 11.5387C15.4659 11.2073 15.7345 10.9387 16.0659 10.9387H22.5268C22.8582 10.9387 23.1268 11.2073 23.1268 11.5387C23.1268 11.8701 22.8582 12.1387 22.5268 12.1387H16.0659C15.7345 12.1387 15.4659 11.8701 15.4659 11.5387Z" fill="currentColor"/><path d="M12.4669 16.1764C12.4669 15.845 12.7355 15.5764 13.0669 15.5764H13.0761C13.4075 15.5764 13.6761 15.845 13.6761 16.1764C13.6761 16.5078 13.4075 16.7764 13.0761 16.7764H13.0669C12.7355 16.7764 12.4669 16.5078 12.4669 16.1764Z" fill="currentColor"/><path d="M12.4669 20.9673C12.4669 20.6359 12.7355 20.3673 13.0669 20.3673H13.0761C13.4075 20.3673 13.6761 20.6359 13.6761 20.9673C13.6761 21.2987 13.4075 21.5673 13.0761 21.5673H13.0669C12.7355 21.5673 12.4669 21.2987 12.4669 20.9673Z" fill="currentColor"/><path fill-rule="evenodd" clip-rule="evenodd" d="M21.254 23.1428C21.254 21.5684 22.5303 20.2921 24.1047 20.2921C25.6791 20.2921 26.9554 21.5684 26.9554 23.1428C26.9554 24.7172 25.6791 25.9936 24.1047 25.9936C22.5303 25.9936 21.254 24.7172 21.254 23.1428ZM24.1047 21.4921C23.193 21.4921 22.454 22.2312 22.454 23.1428C22.454 24.0545 23.193 24.7936 24.1047 24.7936C25.0163 24.7936 25.7554 24.0545 25.7554 23.1428C25.7554 22.2312 25.0163 21.4921 24.1047 21.4921Z" fill="currentColor"/><path fill-rule="evenodd" clip-rule="evenodd" d="M22.0116 15.8707C22.2573 15.7292 22.5685 15.7791 22.7577 15.9902L23.939 17.308H24.2933L25.5025 16.009C25.6929 15.8044 25.9993 15.7584 26.2414 15.898L29.352 17.6917C29.5972 17.8331 29.7102 18.1266 29.6232 18.3959L29.0819 20.0717L29.2679 20.3945L30.9797 20.7859C31.2525 20.8483 31.446 21.0909 31.446 21.3708V25.0796C31.446 25.3718 31.2355 25.6215 30.9476 25.671L29.1068 25.9873L29.0429 26.179L29.5822 27.9241C29.6649 28.192 29.5512 28.4814 29.3083 28.6213L26.1923 30.415C25.947 30.5562 25.6364 30.5068 25.447 30.2964L24.2601 28.9777H23.9066L22.7029 30.2805C22.5126 30.4865 22.205 30.5331 21.9621 30.3929L18.8462 28.5938C18.6005 28.4519 18.4878 28.1574 18.5759 27.8877L19.132 26.1866L18.9641 25.8971L17.2193 25.4999C16.9462 25.4377 16.7525 25.1949 16.7525 24.9149V21.3166C16.7525 21.0327 16.9515 20.7876 17.2294 20.7294L18.9816 20.362L19.1467 20.0735L18.6213 18.3603C18.5393 18.0927 18.6531 17.804 18.8956 17.6644L22.0116 15.8707ZM19.9088 18.4658L20.3701 19.9702C20.4187 20.1287 20.3996 20.3003 20.3172 20.4442L19.8891 21.192C19.804 21.3407 19.6593 21.446 19.4915 21.4811L17.9525 21.8038V24.4361L19.4853 24.7851C19.6478 24.822 19.7876 24.925 19.8712 25.0692L20.3047 25.817C20.3904 25.9647 20.409 26.142 20.356 26.3043L19.8677 27.7979L22.1469 29.1139L23.2034 27.9705C23.3169 27.8476 23.4767 27.7777 23.6441 27.7777H24.5273C24.6974 27.7777 24.8595 27.8499 24.9733 27.9763L26.0143 29.1329L28.2942 27.8204L27.8396 26.3492C27.8026 26.2295 27.804 26.1013 27.8436 25.9825L28.0818 25.2672C28.1517 25.0573 28.3314 24.9029 28.5494 24.8655L30.246 24.5739V21.8491L28.7452 21.5059C28.5824 21.4687 28.4425 21.3653 28.3591 21.2207L27.9093 20.4403C27.8246 20.2934 27.806 20.1176 27.8581 19.9562L28.3321 18.4888L26.0556 17.176L24.9936 18.3168C24.8801 18.4388 24.7211 18.508 24.5545 18.508H23.6711C23.5006 18.508 23.3382 18.4355 23.2243 18.3085L22.1888 17.1533L19.9088 18.4658Z" fill="currentColor"/></svg>
