<svg width="20" height="20" viewBox="0 0 21 20" fill="none" xmlns="http://www.w3.org/2000/svg">
  <path fill-rule="evenodd" clip-rule="evenodd" d="M12.4797 1.69524C12.3604 1.5759 12.1985 1.50885 12.0297 1.50885C11.8609 1.50885 11.6991 1.57589 11.5797 1.69524L3.11693 10.158C3.03397 10.241 2.97557 10.3452 2.94815 10.4593L1.92336 14.7238C1.87161 14.9391 1.93554 15.1659 2.09213 15.3224C2.24873 15.479 2.47547 15.543 2.6908 15.4912L6.95523 14.4664C7.0693 14.439 7.17356 14.3806 7.25652 14.2977L15.7193 5.83486C15.9679 5.58634 15.9679 5.18342 15.7193 4.9349L12.4797 1.69524ZM4.14373 10.9311L9.71565 5.35922L12.0554 7.69894L6.48342 13.2709L3.40361 14.011L4.14373 10.9311ZM10.6156 4.45927L12.9553 6.79898L14.3694 5.38488L12.0297 3.04517L10.6156 4.45927ZM2.49984 16.6301C2.16847 16.6301 1.89984 16.8988 1.89984 17.2301C1.89984 17.5615 2.16847 17.8301 2.49984 17.8301L18.5098 17.8301C18.8412 17.8301 19.1098 17.5615 19.1098 17.2301C19.1098 16.8988 18.8412 16.6301 18.5098 16.6301L2.49984 16.6301Z" fill="currentColor"/>
</svg>
