<svg width="16" height="16" viewBox="0 0 16 16" fill="none" xmlns="http://www.w3.org/2000/svg">
<g id="retain-voting">
<path id="Subtract" fill-rule="evenodd" clip-rule="evenodd" d="M7.17005 1.04833C7.5095 0.360517 8.49031 0.360518 8.82976 1.04833L10.5244 4.48213C10.6592 4.75526 10.9198 4.94458 11.2212 4.98837L15.0107 5.53901C15.7697 5.64931 16.0728 6.5821 15.5235 7.11749L12.7815 9.79033C12.5634 10.0029 12.4638 10.3093 12.5153 10.6095L13.1626 14.3836C13.2923 15.1395 12.4988 15.716 11.8199 15.3591L8.43054 13.5772C8.16094 13.4355 7.83887 13.4355 7.56927 13.5772L4.17991 15.3591C3.50099 15.716 2.70751 15.1395 2.83717 14.3836L3.48448 10.6095C3.53597 10.3093 3.43644 10.0029 3.21833 9.79033L0.476278 7.11749C-0.0729748 6.5821 0.230111 5.64931 0.989159 5.53901L4.77858 4.98837C5.08 4.94458 5.34057 4.75526 5.47537 4.48213L7.17005 1.04833ZM5.34195 7.56051C5.34195 7.22914 5.61058 6.96051 5.94195 6.96051H9.78259C10.114 6.96051 10.3826 7.22914 10.3826 7.56051C10.3826 7.89188 10.114 8.16051 9.78259 8.16051H5.94195C5.61058 8.16051 5.34195 7.89188 5.34195 7.56051ZM5.94195 9.29742C5.61058 9.29742 5.34195 9.56605 5.34195 9.89742C5.34195 10.2288 5.61058 10.4974 5.94195 10.4974H9.78259C10.114 10.4974 10.3826 10.2288 10.3826 9.89742C10.3826 9.56605 10.114 9.29742 9.78259 9.29742H5.94195Z" fill="#C3C3CB"/>
</g>
</svg>
