<svg width="16" height="16" viewBox="0 0 16 16" fill="none" xmlns="http://www.w3.org/2000/svg">
<g id="rfc-voting">
<path id="Union" fill-rule="evenodd" clip-rule="evenodd" d="M15.6965 12.8771C15.5223 12.9488 15.297 13.0052 15.0204 13.0462C14.754 13.0974 14.503 13.123 14.2674 13.123C13.4581 13.123 12.864 12.9693 12.4849 12.662C12.1059 12.3444 11.8549 11.822 11.732 11.0946C11.6091 10.3571 11.5476 9.23022 11.5476 7.71408C11.5476 6.21844 11.6091 5.10183 11.732 4.36425C11.8652 3.61643 12.1213 3.08885 12.5003 2.78153C12.8793 2.46396 13.4684 2.30518 14.2674 2.30518C14.544 2.30518 14.8104 2.32566 15.0665 2.36664C15.3328 2.40762 15.5326 2.46396 15.6658 2.53567V4.08766C15.2662 4.01595 14.9128 3.98009 14.6055 3.98009C14.206 3.98009 13.9242 4.05692 13.7603 4.21059C13.6067 4.354 13.5042 4.66645 13.453 5.14792C13.412 5.6294 13.3916 6.48479 13.3916 7.71408C13.3916 8.94338 13.412 9.79877 13.453 10.2802C13.5042 10.7617 13.6067 11.0793 13.7603 11.2329C13.9242 11.3764 14.206 11.4481 14.6055 11.4481C14.9948 11.4481 15.3584 11.4122 15.6965 11.3405V12.8771ZM6.77965 13.0001V2.4281H10.7902V4.10302H8.63896V7.03796H10.5444V8.71288H8.63896V13.0001H6.77965ZM3.07723 9.23533L3.96847 13.0001H5.87388L4.75214 8.82044C5.12093 8.57459 5.36167 8.21604 5.47436 7.74481C5.58704 7.26333 5.64338 6.62308 5.64338 5.82403C5.64338 5.01475 5.58704 4.37449 5.47436 3.90326C5.36167 3.43203 5.13118 3.06836 4.78288 2.81226C4.44482 2.55615 3.93261 2.4281 3.24625 2.4281H0.342041V13.0001H2.20135V9.23533H3.04649H3.07723ZM3.50748 7.48358C3.39479 7.56554 3.20528 7.60651 2.93893 7.60651H2.20135V4.10302H2.93893C3.20528 4.10302 3.39479 4.14912 3.50748 4.24131C3.63041 4.32327 3.70724 4.48205 3.73797 4.71767C3.77895 4.95328 3.79944 5.33231 3.79944 5.85477C3.79944 6.37722 3.77895 6.75625 3.73797 6.99186C3.70724 7.22748 3.63041 7.39139 3.50748 7.48358Z" fill="#C3C3CB"/>
</g>
</svg>
