<svg xmlns="http://www.w3.org/2000/svg" width="16" height="16" viewBox="0 0 16 16" fill="none">
  <path d="M7.91047 14.9433C7.7588 15.1859 7.4928 15.3333 7.20667 15.3333C6.41407 15.3333 5.82327 14.6025 5.98934 13.8275L6.66667 10.6667H2.33333C1.59695 10.6667 1 10.0697 1 9.33333V6.62951C1 6.21553 1.09639 5.80723 1.28153 5.43695L2.63147 2.73705C2.85733 2.28533 3.31901 2 3.82405 2H11V10L7.91047 14.9433Z" fill="currentColor"/>
  <path d="M14 10C14.3682 10 14.6667 9.70153 14.6667 9.33333V2.66667C14.6667 2.29848 14.3682 2 14 2H12V10H14Z" fill="currentColor"/>
</svg>
