<svg xmlns="http://www.w3.org/2000/svg" width="17" height="16" viewBox="0 0 17 16" fill="none">
  <path d="M9.46 0.666748C9.17387 0.666748 8.90787 0.814168 8.7562 1.05683L5.66667 6.00008V14.0001H12.8426C13.3477 14.0001 13.8093 13.7147 14.0352 13.263L15.3851 10.5631C15.5703 10.1929 15.6667 9.78455 15.6667 9.37055V6.66675C15.6667 5.93037 15.0697 5.33341 14.3333 5.33341H10L10.6773 2.17255C10.8434 1.39755 10.2526 0.666748 9.46 0.666748Z" fill="currentColor"/>
  <path d="M2 6.66675C2 6.29856 2.29848 6.00008 2.66667 6.00008H4.66667V14.0001H2.66667C2.29848 14.0001 2 13.7016 2 13.3334V6.66675Z" fill="currentColor"/>
</svg>
