<svg width="24" height="24" viewBox="0 0 24 24" fill="none" xmlns="http://www.w3.org/2000/svg">
  <path fill-rule="evenodd" clip-rule="evenodd" d="M3.64258 1.71439C3.64258 1.35935 3.9304 1.07153 4.28544 1.07153H14.5711C14.7416 1.07153 14.9052 1.13926 15.0257 1.25982L20.5641 6.79829C20.6847 6.91884 20.7524 7.08236 20.7524 7.25285V22.2858C20.7524 22.6408 20.4646 22.9286 20.1096 22.9286H4.28544C3.9304 22.9286 3.64258 22.6408 3.64258 22.2858V1.71439ZM4.92829 2.35725V21.6429H19.4667V7.89579H14.5711C14.2161 7.89579 13.9283 7.60798 13.9283 7.25294V2.35725H4.92829ZM15.214 3.26639L18.5577 6.61008H15.214V3.26639ZM12.8503 9.83111C12.5992 9.58006 12.1922 9.58006 11.9411 9.8311L9.40229 12.3699C9.15123 12.6209 9.15122 13.028 9.40227 13.279C9.65332 13.5301 10.0604 13.5301 10.3114 13.279L11.7528 11.8376V16.5257C11.7528 16.8807 12.0407 17.1685 12.3957 17.1685C12.7507 17.1685 13.0386 16.8807 13.0386 16.5257V11.8377L14.4799 13.279C14.731 13.5301 15.138 13.5301 15.389 13.279C15.6401 13.028 15.6401 12.6209 15.389 12.3699L12.8503 9.83111Z" fill="currentColor"/>
</svg>
