<svg width="16" height="16" viewBox="0 0 16 16" fill="none" xmlns="http://www.w3.org/2000/svg"><path fill-rule="evenodd" clip-rule="evenodd" d="M13.3402 6.23309L14.3536 7.24643C14.7736 7.65976 14.7736 8.33976 14.3402 8.74643L13.3269 9.75976C13.1536 9.93309 13.0136 10.2731 13.0136 10.5131V11.9464C13.0136 12.5331 12.5336 13.0131 11.9469 13.0131H10.5136C10.2736 13.0131 9.93358 13.1531 9.76025 13.3264L8.74691 14.3398C8.33358 14.7531 7.65358 14.7531 7.24025 14.3398L6.22691 13.3264C6.05358 13.1531 5.71358 13.0131 5.47358 13.0131H4.04025C3.45358 13.0131 2.97358 12.5331 2.97358 11.9464V10.5131C2.97358 10.2731 2.83358 9.93309 2.66025 9.75976L1.64691 8.74643C1.23358 8.33309 1.23358 7.65309 1.64691 7.23976L2.66025 6.22643C2.83358 6.05309 2.97358 5.71309 2.97358 5.47309V4.03976C2.97358 3.45309 3.45358 2.97309 4.04025 2.97309H5.47358C5.72025 2.97309 6.06025 2.83309 6.22691 2.65976L7.25358 1.64643C7.66691 1.23309 8.34691 1.23309 8.76025 1.64643L9.77358 2.65976C9.94691 2.83309 10.2869 2.97309 10.5269 2.97309H11.9602C12.5469 2.97309 13.0269 3.45309 13.0269 4.03976V5.47976C13.0269 5.71976 13.1669 6.05976 13.3402 6.23309ZM10.277 5.52928C10.4978 5.28942 10.8719 5.26777 11.1203 5.47437C11.3784 5.68912 11.4079 6.07251 11.178 6.32222L7.35984 10.4704C7.24759 10.5923 7.09103 10.661 6.92895 10.6662C6.76692 10.6713 6.60659 10.6127 6.48683 10.4988L4.85046 8.94326C4.60573 8.71061 4.60573 8.32608 4.85046 8.09343C5.08565 7.86986 5.4603 7.86986 5.69548 8.09343L6.8802 9.21964L10.277 5.52928Z" fill="currentColor"/></svg>
