<svg width="24" height="24" viewBox="0 0 24 24" fill="none" xmlns="http://www.w3.org/2000/svg"><path d="M11.9974 2H12.0144C12.2866 1.99987 12.5561 2.05872 12.8064 2.173C13.0568 2.2873 13.2829 2.45468 13.4712 2.66504C13.6594 2.8754 13.8059 3.12438 13.9017 3.39695C13.9944 3.66053 14.0108 3.8828 13.9944 4.1646L13.5653 14.8556C13.5637 15.2925 13.4008 15.7112 13.1118 16.0203C12.8214 16.3309 12.4276 16.5054 12.017 16.5054C11.6063 16.5054 11.2125 16.3309 10.9221 16.0203C10.6331 15.7112 10.4702 15.2925 10.4686 14.8556L10.002 4.25083C9.99001 3.96185 10.0325 3.67252 10.1271 3.4015C10.2216 3.13049 10.3662 2.88261 10.5522 2.67263C10.7382 2.46266 10.9618 2.2949 11.2097 2.17934C11.4576 2.06378 11.7247 2.00279 11.9951 2.00001L11.9974 2Z" fill="currentColor"/><path d="M11.653 18.0298C12.0165 17.9525 12.3932 17.9922 12.7356 18.1439C13.078 18.2956 13.3706 18.5525 13.5765 18.8821C13.7824 19.2117 13.8923 19.5992 13.8923 19.9956C13.8923 20.2589 13.8438 20.5195 13.7497 20.7627C13.6555 21.0059 13.5175 21.2268 13.3435 21.4129C13.1695 21.5991 12.963 21.7467 12.7356 21.8474C12.5083 21.9482 12.2646 22 12.0186 22C11.648 22 11.2857 21.8825 10.9776 21.6622C10.6695 21.442 10.4293 21.1289 10.2875 20.7627C10.1457 20.3964 10.1086 19.9934 10.1809 19.6046C10.2532 19.2158 10.4316 18.8587 10.6937 18.5783C10.9557 18.298 11.2896 18.1071 11.653 18.0298Z" fill="currentColor"/></svg>
