<svg width="16" height="16" viewBox="0 0 16 16" fill="none" xmlns="http://www.w3.org/2000/svg">
<g id="whitelist-voting">
<path id="Subtract" fill-rule="evenodd" clip-rule="evenodd" d="M9.36617 1.3592C9.65033 0.923845 10.0517 0.469238 10.5716 0.469238H11.7653C13.8448 0.469238 15.5306 2.15504 15.5306 4.23459V11.7653C15.5306 13.8448 13.8448 15.5306 11.7653 15.5306H4.23459C2.15504 15.5306 0.469238 13.8448 0.469238 11.7653V4.23459C0.469238 2.15504 2.15504 0.469238 4.23459 0.469238H5.42827C5.94815 0.469238 6.34954 0.923845 6.63371 1.3592C6.92468 1.80496 7.4279 2.09957 7.99994 2.09957C8.57197 2.09957 9.0752 1.80496 9.36617 1.3592ZM3.7761 5.27909C3.46417 5.27909 3.2113 5.53196 3.2113 5.84389C3.2113 6.15583 3.46417 6.4087 3.7761 6.4087L12.3589 6.4087C12.6708 6.4087 12.9237 6.15583 12.9237 5.8439C12.9237 5.53196 12.6708 5.27909 12.3589 5.27909L3.7761 5.27909ZM3.2113 8.66791C3.2113 8.35597 3.46417 8.1031 3.7761 8.1031H8.52479C8.83672 8.1031 9.08959 8.35597 9.08959 8.66791C9.08959 8.97984 8.83672 9.23271 8.52479 9.23271H3.7761C3.46417 9.23271 3.2113 8.97984 3.2113 8.66791ZM3.7761 10.9271C3.46417 10.9271 3.2113 11.18 3.2113 11.4919C3.2113 11.8039 3.46417 12.0567 3.7761 12.0567H10.8191C11.131 12.0567 11.3839 11.8039 11.3839 11.4919C11.3839 11.18 11.131 10.9271 10.8191 10.9271L3.7761 10.9271Z" fill="#C3C3CB"/>
</g>
</svg>
