<svg width="20" height="20" viewBox="0 0 20 20" fill="none" xmlns="http://www.w3.org/2000/svg">
<path fill-rule="evenodd" clip-rule="evenodd" d="M14.7421 11.7732C14.7421 12.1474 15.0446 12.4508 15.4178 12.4508C15.7909 12.4508 16.0934 12.1474 16.0934 11.7732V4.58606C16.0934 4.21182 15.7909 3.90845 15.4178 3.90845L8.25158 3.90845C7.87844 3.90845 7.57594 4.21182 7.57594 4.58606C7.57594 4.96029 7.87844 5.26367 8.25158 5.26367L13.7866 5.26367L11.2108 7.8433C10.941 7.70982 10.6372 7.63483 10.316 7.63483C9.19731 7.63483 8.29043 8.54435 8.29043 9.66631C8.29043 9.99207 8.36689 10.2999 8.50279 10.5728L7.69658 11.3814C7.42448 11.2451 7.11751 11.1684 6.79269 11.1684C5.674 11.1684 4.76712 12.0779 4.76712 13.1999C4.76712 13.5243 4.84294 13.8309 4.97778 14.103L3.99058 15.0902C3.73674 15.344 3.73614 15.7562 3.98924 16.0107C4.24234 16.2653 4.65329 16.2659 4.90713 16.0121L5.89684 15.0224C6.16694 15.1562 6.47106 15.2314 6.79269 15.2314C7.91137 15.2314 8.81825 14.3218 8.81825 13.1999C8.81825 12.8787 8.74392 12.5749 8.61158 12.3049L9.42357 11.4905C9.69281 11.6232 9.99572 11.6978 10.316 11.6978C11.4347 11.6978 12.3416 10.7883 12.3416 9.66631C12.3416 9.36158 12.2747 9.07253 12.1548 8.81311L14.7421 6.22189V11.7732ZM10.316 10.3978C10.7131 10.3978 11.0416 10.0739 11.0416 9.66631C11.0416 9.25874 10.7131 8.93483 10.316 8.93483C9.91885 8.93483 9.59044 9.25874 9.59044 9.66631C9.59044 10.0739 9.91885 10.3978 10.316 10.3978ZM7.51825 13.1999C7.51825 13.6074 7.18983 13.9314 6.79269 13.9314C6.39554 13.9314 6.06712 13.6074 6.06712 13.1999C6.06712 12.7923 6.39554 12.4684 6.79269 12.4684C7.18983 12.4684 7.51825 12.7923 7.51825 13.1999Z" fill="currentColor"/>
</svg>
