<svg width="16" height="16" viewBox="0 0 16 16" fill="none" xmlns="http://www.w3.org/2000/svg">
  <path fill-rule="evenodd" clip-rule="evenodd" d="M3.50039 2.90039C3.16902 2.90039 2.90039 3.16902 2.90039 3.50039V8.43423C2.90039 9.31789 3.61673 10.0342 4.50039 10.0342H11.1237L9.21337 12.0915C8.98789 12.3344 9.00195 12.714 9.24478 12.9395C9.48761 13.165 9.86725 13.1509 10.0927 12.9081L12.9393 9.8425C13.153 9.61229 13.153 9.25617 12.9393 9.02597L10.0927 5.96039C9.86725 5.71756 9.48761 5.7035 9.24478 5.92897C9.00195 6.15445 8.98789 6.53409 9.21337 6.77692L11.1237 8.83423H4.50039C4.27948 8.83423 4.10039 8.65515 4.10039 8.43423V3.50039C4.10039 3.16902 3.83176 2.90039 3.50039 2.90039Z" fill="currentColor" />
</svg>
