
<svg width="16" height="16" viewBox="0 0 16 16" fill="none" xmlns="http://www.w3.org/2000/svg">
<g id="ic_dir_chevron_double_down_16">
<path id="Union" fill-rule="evenodd" clip-rule="evenodd" d="M7.59594 12.0865C7.8191 12.3045 8.1809 12.3045 8.40406 12.0865L11.8326 8.73691C12.0558 8.5189 12.0558 8.16543 11.8326 7.94741C11.6095 7.7294 11.2477 7.7294 11.0245 7.94741L8 10.9022L4.97549 7.94741C4.75233 7.72939 4.39052 7.72939 4.16737 7.94741C3.94421 8.16542 3.94421 8.5189 4.16737 8.73691L7.59594 12.0865ZM4.16737 4.70301L7.59594 8.05259C7.8191 8.27061 8.1809 8.27061 8.40406 8.05259L11.8326 4.70301C12.0558 4.485 12.0558 4.13153 11.8326 3.91351C11.6095 3.6955 11.2477 3.6955 11.0245 3.91351L8 6.86834L4.97549 3.91351C4.75233 3.6955 4.39052 3.6955 4.16737 3.91351C3.94421 4.13153 3.94421 4.485 4.16737 4.70301Z" fill="currentColor"/>
</g>
</svg>
