
<svg width="16" height="16" viewBox="0 0 16 16" fill="none" xmlns="http://www.w3.org/2000/svg">
<g id="ic_dir_chevron_double_up_16">
<path id="Union" fill-rule="evenodd" clip-rule="evenodd" d="M8.40406 3.91351C8.1809 3.6955 7.8191 3.6955 7.59594 3.91351L4.16737 7.26309C3.94421 7.4811 3.94421 7.83458 4.16737 8.05259C4.39052 8.27061 4.75233 8.27061 4.97549 8.05259L8 5.09777L11.0245 8.05259C11.2477 8.27061 11.6095 8.27061 11.8326 8.05259C12.0558 7.83458 12.0558 7.4811 11.8326 7.26309L8.40406 3.91351ZM11.8326 11.297L8.40406 7.94741C8.1809 7.72939 7.8191 7.72939 7.59594 7.94741L4.16737 11.297C3.94421 11.515 3.94421 11.8685 4.16737 12.0865C4.39052 12.3045 4.75233 12.3045 4.97549 12.0865L8 9.13166L11.0245 12.0865C11.2477 12.3045 11.6095 12.3045 11.8326 12.0865C12.0558 11.8685 12.0558 11.515 11.8326 11.297Z" fill="currentColor"/>
</g>
</svg>
