<svg width="24" height="24" viewBox="0 0 24 24" fill="none" xmlns="http://www.w3.org/2000/svg">
<path fill-rule="evenodd" clip-rule="evenodd" d="M4.29289 11.5053C4.68342 11.1247 5.31658 11.1247 5.70711 11.5053L10.6604 16.3336C10.7871 16.4571 11 16.3674 11 16.1904L11 4.97477C11 4.43642 11.4477 4 12 4C12.5523 4 13 4.43642 13 4.97477L13 16.1904C13 16.3674 13.2129 16.4571 13.3396 16.3336L18.2929 11.5053C18.6834 11.1247 19.3166 11.1247 19.7071 11.5053C20.0976 11.886 20.0976 12.5032 19.7071 12.8839L12.698 19.7161C12.3097 20.0946 11.6903 20.0946 11.302 19.7161L4.29289 12.8839C3.90237 12.5032 3.90237 11.886 4.29289 11.5053Z" fill="currentColor"/>
</svg>
