<svg width="24" height="24" viewBox="0 0 24 24" fill="none" xmlns="http://www.w3.org/2000/svg">
<path fill-rule="evenodd" clip-rule="evenodd" d="M17.7803 11.629C17.4874 11.3435 17.0126 11.3435 16.7197 11.629L13.0896 15.1675C12.9629 15.291 12.75 15.2012 12.75 15.0243L12.75 6.73107C12.75 6.32731 12.4142 6 12 6C11.5858 6 11.25 6.32731 11.25 6.73107L11.25 15.0243C11.25 15.2012 11.0371 15.291 10.9104 15.1675L7.28033 11.629C6.98744 11.3435 6.51256 11.3435 6.21967 11.629C5.92678 11.9145 5.92678 12.3774 6.21967 12.6629L11.4765 17.7871C11.7678 18.071 12.2322 18.071 12.5235 17.7871L17.7803 12.6629C18.0732 12.3774 18.0732 11.9145 17.7803 11.629Z" fill="currentColor"/>
<rect x="2.5" y="2.5" width="19" height="19" rx="9.5" stroke="currentColor"/>
</svg>
