<svg width="24" height="24" viewBox="0 0 24 24" fill="none" xmlns="http://www.w3.org/2000/svg">
<path fill-rule="evenodd" clip-rule="evenodd" d="M12 22C17.5228 22 22 17.5228 22 12C22 6.47715 17.5228 2 12 2C6.47715 2 2 6.47715 2 12C2 17.5228 6.47715 22 12 22ZM12.371 16.7197C12.6565 17.0126 12.6565 17.4874 12.371 17.7803C12.0855 18.0732 11.6226 18.0732 11.3371 17.7803L6.21294 12.5235C5.92902 12.2322 5.92902 11.7678 6.21294 11.4765L11.3371 6.21967C11.6226 5.92678 12.0855 5.92678 12.371 6.21967C12.6565 6.51256 12.6565 6.98744 12.371 7.28033L8.83253 10.9104C8.70902 11.0371 8.7988 11.25 8.97575 11.25H17.2689C17.6727 11.25 18 11.5858 18 12C18 12.4142 17.6727 12.75 17.2689 12.75H8.97575C8.7988 12.75 8.70902 12.9629 8.83253 13.0896L12.371 16.7197Z" fill="currentColor"/>
</svg>
