<svg width="24" height="24" viewBox="0 0 24 24" fill="none" xmlns="http://www.w3.org/2000/svg">
<path fill-rule="evenodd" clip-rule="evenodd" d="M12.4947 4.29289C12.8753 4.68342 12.8753 5.31658 12.4947 5.70711L7.66637 10.6604C7.54285 10.7871 7.63263 11 7.80958 11H19.0252C19.5636 11 20 11.4477 20 12C20 12.5523 19.5636 13 19.0252 13H7.80958C7.63263 13 7.54285 13.2129 7.66637 13.3396L12.4947 18.2929C12.8753 18.6834 12.8753 19.3166 12.4947 19.7071C12.114 20.0976 11.4968 20.0976 11.1161 19.7071L4.28392 12.698C3.90536 12.3097 3.90536 11.6903 4.28392 11.302L11.1161 4.29289C11.4968 3.90237 12.114 3.90237 12.4947 4.29289Z" fill="currentColor"/>
</svg>
