<svg width="24" height="24" viewBox="0 0 24 24" fill="none" xmlns="http://www.w3.org/2000/svg">
<rect x="2" y="2" width="20" height="20" rx="10" fill="black" fill-opacity="0.1"/>
<path fill-rule="evenodd" clip-rule="evenodd" d="M12.371 17.7803C12.6565 17.4874 12.6565 17.0126 12.371 16.7197L8.83253 13.0896C8.70902 12.9629 8.7988 12.75 8.97575 12.75L17.2689 12.75C17.6727 12.75 18 12.4142 18 12C18 11.5858 17.6727 11.25 17.2689 11.25L8.97575 11.25C8.7988 11.25 8.70902 11.0371 8.83253 10.9104L12.371 7.28033C12.6565 6.98744 12.6565 6.51256 12.371 6.21967C12.0855 5.92678 11.6226 5.92678 11.3371 6.21967L6.21294 11.4765C5.92902 11.7678 5.92902 12.2322 6.21294 12.5235L11.3371 17.7803C11.6226 18.0732 12.0855 18.0732 12.371 17.7803Z" fill="black" fill-opacity="0.2"/>
</svg>
