<svg width="24" height="24" viewBox="0 0 24 24" fill="none" xmlns="http://www.w3.org/2000/svg">
<path fill-rule="evenodd" clip-rule="evenodd" d="M12 22C17.5228 22 22 17.5228 22 12C22 6.47715 17.5228 2 12 2C6.47715 2 2 6.47715 2 12C2 17.5228 6.47715 22 12 22ZM11.629 7.28033C11.3435 6.98744 11.3435 6.51256 11.629 6.21967C11.9145 5.92678 12.3774 5.92678 12.6629 6.21967L17.7871 11.4765C18.071 11.7678 18.071 12.2322 17.7871 12.5235L12.6629 17.7803C12.3774 18.0732 11.9145 18.0732 11.629 17.7803C11.3435 17.4874 11.3435 17.0126 11.629 16.7197L15.1675 13.0896C15.291 12.9629 15.2012 12.75 15.0243 12.75L6.73107 12.75C6.32731 12.75 6 12.4142 6 12C6 11.5858 6.32731 11.25 6.73107 11.25L15.0243 11.25C15.2012 11.25 15.291 11.0371 15.1675 10.9104L11.629 7.28033Z" fill="currentColor"/>
</svg>
