<svg width="24" height="24" viewBox="0 0 24 24" fill="none" xmlns="http://www.w3.org/2000/svg">
<path fill-rule="evenodd" clip-rule="evenodd" d="M11.629 6.21967C11.3435 6.51256 11.3435 6.98744 11.629 7.28033L15.1675 10.9104C15.291 11.0371 15.2012 11.25 15.0243 11.25L6.73107 11.25C6.32731 11.25 6 11.5858 6 12C6 12.4142 6.32731 12.75 6.73107 12.75L15.0243 12.75C15.2012 12.75 15.291 12.9629 15.1675 13.0896L11.629 16.7197C11.3435 17.0126 11.3435 17.4874 11.629 17.7803C11.9145 18.0732 12.3774 18.0732 12.6629 17.7803L17.7871 12.5235C18.071 12.2322 18.071 11.7678 17.7871 11.4765L12.6629 6.21967C12.3774 5.92678 11.9145 5.92678 11.629 6.21967Z" fill="currentColor"/>
<rect x="2.5" y="2.5" width="19" height="19" rx="9.5" stroke="currentColor"/>
</svg>
