<svg width="24" height="24" viewBox="0 0 24 24" fill="none" xmlns="http://www.w3.org/2000/svg">
<path fill-rule="evenodd" clip-rule="evenodd" d="M12 22C17.5228 22 22 17.5228 22 12C22 6.47715 17.5228 2 12 2C6.47715 2 2 6.47715 2 12C2 17.5228 6.47715 22 12 22ZM7.28033 12.371C6.98744 12.6565 6.51256 12.6565 6.21967 12.371C5.92678 12.0855 5.92678 11.6226 6.21967 11.3371L11.4765 6.21294C11.7678 5.92902 12.2322 5.92902 12.5235 6.21294L17.7803 11.3371C18.0732 11.6226 18.0732 12.0855 17.7803 12.371C17.4874 12.6565 17.0126 12.6565 16.7197 12.371L13.0896 8.83253C12.9629 8.70902 12.75 8.7988 12.75 8.97575V17.2689C12.75 17.6727 12.4142 18 12 18C11.5858 18 11.25 17.6727 11.25 17.2689V8.97575C11.25 8.7988 11.0371 8.70902 10.9104 8.83253L7.28033 12.371Z" fill="currentColor"/>
</svg>
