<svg width="24" height="24" viewBox="0 0 24 24" fill="none" xmlns="http://www.w3.org/2000/svg">
<rect x="2" y="2" width="20" height="20" rx="10" fill="black" fill-opacity="0.1"/>
<path fill-rule="evenodd" clip-rule="evenodd" d="M6.21967 12.371C6.51256 12.6565 6.98744 12.6565 7.28033 12.371L10.9104 8.83253C11.0371 8.70902 11.25 8.7988 11.25 8.97575L11.25 17.2689C11.25 17.6727 11.5858 18 12 18C12.4142 18 12.75 17.6727 12.75 17.2689L12.75 8.97575C12.75 8.7988 12.9629 8.70902 13.0896 8.83253L16.7197 12.371C17.0126 12.6565 17.4874 12.6565 17.7803 12.371C18.0732 12.0855 18.0732 11.6226 17.7803 11.3371L12.5235 6.21294C12.2322 5.92902 11.7678 5.92902 11.4765 6.21294L6.21967 11.3371C5.92678 11.6226 5.92678 12.0855 6.21967 12.371Z" fill="black" fill-opacity="0.2"/>
</svg>
