<svg width="140" height="62" fill="none" xmlns="http://www.w3.org/2000/svg"><path fill-rule="evenodd" clip-rule="evenodd" d="M3.418 4.86v10.618H.47V.264h3.476L10.58 10.35V.264h2.97v15.214h-3.16L3.418 4.861ZM.43 42.304c.484 6.662 5.437 10.911 13.37 10.911v.003c7.889 0 12.711-4.206 12.711-10.21 0-4.643-2.982-7.184-8.504-8.28l-5.391-1.096c-2.278-.438-4.25-1.311-4.25-3.504s1.752-4.031 5.083-4.031c3.33 0 5.608 2.233 5.829 5.519h6.749c-.439-6.572-5.873-10.69-12.668-10.69-6.795 0-11.748 4.028-11.748 9.637 0 5.212 3.682 7.8 8.46 8.719l5.174 1.006c2.672.525 4.207 1.709 4.207 3.68 0 2.542-2.411 4.032-5.786 4.032-4.076 0-6.313-2.236-6.487-5.696H.429Zm35.94 7.451c1.753 2.277 4.12 3.46 6.883 3.46v.003c6.31 0 10.387-5.258 10.387-12.138s-4.077-12.138-10.387-12.138c-2.98 0-5.568 1.357-7.364 3.855v-3.417h-5.612v31.855h6.093v-11.48Zm.047-8.678c0-4.423 2.498-6.746 5.478-6.746 2.98 0 5.478 2.277 5.478 6.746 0 4.47-2.498 6.703-5.478 6.703-2.98 0-5.478-2.28-5.478-6.703Zm19.05-.085c0-6.966 4.865-12.047 11.614-12.047 7.407 0 12.317 6.003 11.22 13.626H61.69c.394 3.81 2.234 5.914 5.347 5.914 2.673 0 4.471-1.314 5.174-3.637h6.05c-1.315 5.301-5.392 8.324-11.09 8.324-7.013 0-11.704-4.864-11.705-12.18Zm6.31-2.279h10.08c-.174-3.242-2.017-5.302-4.91-5.302-2.892 0-4.645 1.84-5.173 5.302h.003ZM81.61 21.316v31.46h6.09V41.911l8.943 10.865h7.758L93.576 40.595l9.688-11.216h-7.013l-8.548 9.902V21.316H81.61Zm40.094 30.848c-1.492.745-2.893 1.053-4.689 1.053-4.823 0-7.846-2.761-7.846-8.02V34.594h-4.735v-5.215h4.735v-6.923h6.05v6.923h6.705v5.215h-6.705v9.2c0 2.717 1.227 3.81 3.418 3.81 1.14 0 2.19-.263 3.067-.744v5.304Zm3.521.612h6.093V41.427c0-5.171 3.462-6.398 8.635-6.004v-6.308c-3.769 0-7.407 1.798-9.117 4.777v-4.513h-5.611v23.397ZM21.087 3.95c-3.284 0-5.744 2.565-5.744 5.87 0 3.286 2.46 5.87 5.744 5.87 3.285 0 5.745-2.565 5.745-5.87s-2.46-5.87-5.745-5.87Zm0 2.627c1.462 0 2.714 1.146 2.714 3.243 0 2.1-1.252 3.264-2.714 3.264-1.461 0-2.713-1.167-2.713-3.264 0-2.097 1.252-3.243 2.713-3.243Zm12.85 8.901h-3.219L26.541 4.162h3.178l2.692 7.968 2.713-7.968h2.97l-4.156 11.316Zm11.4-1.394c-.743 1.056-1.866 1.606-3.41 1.606-2.354 0-3.921-1.376-3.921-3.495 0-2.12 1.78-3.39 5.089-3.39.637 0 1.186.044 1.886.128v-.677c0-1.27-.721-2.013-1.952-2.013-1.23 0-2.035.742-2.141 2.013h-2.65c.168-2.606 2.057-4.301 4.789-4.301 2.966 0 4.705 1.632 4.705 4.407v7.119h-2.395v-1.397Zm-.356-2.57c0 1.315-.912 2.142-2.417 2.142-1.102 0-1.78-.593-1.78-1.548 0-1.018.828-1.548 2.501-1.548.51 0 .996.043 1.696.15v.805Z" fill="#010101"/></svg>
