<svg width="106" height="106" fill="none" xmlns="http://www.w3.org/2000/svg"><g filter="url(#a)"><g filter="url(#b)"><rect x="5.4019" y="2" width="95.7567" height="95.7567" rx="20.5727" fill="url(#c)"/></g><rect x="5.8667" y="2.4648" width="94.8271" height="94.8271" rx="20.1079" stroke="url(#d)" stroke-width=".9297"/></g><g filter="url(#e)"><path d="M51.3792 58.5336s-.0224 0-.0299-.0075c-.8425-.2762-1.029-1.3962-.3206-1.9338L67.202 44.2729c.0522-.0373.1491-.0448.1864-.0224.1119.0747.1491.2165.0522.3061L52.4753 58.3021a1.1315 1.1315 0 0 1-1.0961.2389v-.0074Zm-19.5139-8.1159.0373.0373c.4251.3957 1.0216.5451 1.5883.4107l30.3556-7.429c.2983-.0747.3132-.4704.0299-.5898a.3474.3474 0 0 0-.1641-.0224L32.79 47.4312c-1.4317.2165-1.9835 1.9935-.9247 2.9865Zm35.9929-13.7156L57.7545 16.3713a1.295 1.295 0 0 0-1.0961-.7167h-.0298c-1.0439-.0523-1.715 1.0826-1.1632 1.9711l11.9305 19.3228c.0298.0448.1267.1045.1267.1045.2237.0971.4474-.1344.3356-.3584v.0075Zm-3.1467-1.4634L48.5382 16.5132c-.3281-.3808-.8277-.5749-1.3347-.5152h-.0373c-1.2751.1493-1.797 1.7247-.8724 2.6132l17.8286 17.1651c.0671.0597.1715.097.1715.097.3803.1195.6786-.336.4176-.6421v.0075Zm1.4317 8.4817c-.0522-.0373-.1417-.0373-.1939-.0149L42.998 53.3968c-1.1632.4927-1.0812 2.1652.1193 2.5385a.0574.0574 0 0 1 .0373.0149c.343.112.7233.0747 1.0439-.097l21.9447-11.7445c.1789-.1046.0969-.3211 0-.3883Zm-8.0457-10.4453L37.8381 19.2085c-.5593-.3882-1.29-.4255-1.8866-.1045-.0149 0-.0223.0149-.0372.0224-1.2527.672-1.2602 2.4639-.0299 3.1657l21.46 12.1402c.082.0448.1939.0822.2983.0896.7084.0299 1.0364-.8362.4548-1.2394v-.0074Zm11.416 4.3453L65.226 17.5286c-.0969-.4405-.4325-.7765-.8724-.8735h-.0298c-.8426-.1792-1.5734.6197-1.3124 1.441l6.1144 19.6214c.0149.0523.0671.112.1118.1195.1566.0448.3058-.0598.2759-.2166Zm-1.3943 7.108L56.7181 59.1607c-.44.56-.1864 1.3888.4996 1.6053.4324.1344.9022-.0373 1.1483-.4181L68.3951 44.93c.0521-.0822.0223-.1942-.0672-.2464-.0671-.0374-.1565-.015-.2087.0448Zm-1.8045 37.1523s.0298-.0074.0447-.0149c.6636-.224 1.1334-.8288 1.1856-1.5306l2.58-34.6063c0-.0672-.0299-.1419-.097-.1718-.0894-.0373-.2386 0-.2609.127L64.018 79.9245c-.2162 1.3066 1.0365 2.3818 2.2892 1.9562h.0075Zm4.4888-35.4948 2.4383 28.693c.1119 1.3141 1.7299 1.8741 2.6247.9034.0075-.0074.0149-.0224.0299-.0298a1.533 1.533 0 0 0 .3802-1.2992l-5.0555-28.3197c-.0075-.0597-.0671-.1194-.1044-.1418-.1193-.0822-.3281.0224-.3132.1941Zm-.164-27.9165c-.686-.2539-1.4019.2762-1.3646 1.0079l.9545 18.733c0 .0597.0522.1269.0969.1418.1118.0374.2312-.0224.2386-.1418l.768-18.733a1.036 1.036 0 0 0-.6636-1.0005s-.0149 0-.0224-.0074h-.0074Zm2.2444 28.8796c-.1864-.112-.522.0672-.4325.3211l5.9727 17.1202c.3878 1.1051 1.9984.9408 2.1475-.2239v-.0299c.0299-.2016 0-.4107-.0895-.6048l-7.5013-16.4632a.379.379 0 0 0-.0969-.1195Zm-16.4492-6.9063c-.0447-.0149-.0895-.0373-.1715-.0448l-28.3275-2.9492c-1.2601-.1344-2.319.9557-2.1251 2.21 0 .0224 0 .0448.0075.0672.1416.9408.9544 1.6277 1.9014 1.6426l28.5064.336c.7457.0075.9097-1.0229.2088-1.2693v.0075Zm-6.8898-6.3613L29.7775 26.742c-.9693-.3583-2.0431.0896-2.4756 1.0304 0 .0149-.0149.0224-.0149.0373-.5145 1.1125.1044 2.4116 1.2825 2.7327 0 0 20.349 5.4877 20.3639 5.4877.2908.0822.6189 0 .865-.1717.3057-.2091.5145-.5749.4474-.9482-.0671-.3733-.3281-.7019-.686-.8362l-.0149.0074Zm19.3796 11.0949L52.8929 81.3357c-.5966 1.3439.4324 2.8446 1.9014 2.7625h.0447c.8053-.0448 1.4988-.5749 1.7598-1.3365l12.6463-37.4584c.0298-.0822-.0224-.1792-.082-.2016a.1813.1813 0 0 0-.2312.0821l-.0074-.0075ZM40.7237 64.4394 27.1975 74.7429c-1.4316 1.0901-1.2378 3.3151.3505 4.1588-.0149-.0075.0149.0074 0 0 .9321.4927 2.0953.3658 2.8708-.3435l12.527-11.5056c1.0365-.9557.5294-2.6878-.8575-2.9268-.0149 0-.0298 0-.0447-.0074-.4624-.0822-.9396.0373-1.3199.321Zm11.2669.7093L40.3658 79.8723c-1.0513 1.329-.2759 3.2926 1.3944 3.5539.0149 0 .0373 0 .0522.0075.8575.1344 1.7076-.2538 2.1848-.9781l10.2155-15.7091c.5518-.8511.0223-1.9935-.9918-2.1055a1.3702 1.3702 0 0 0-1.2228.5077h-.0075Zm20.252-29.4844c.3207-1.0976 3.2884-10.9083 4.1384-13.7082.1342-.433-.0671-.8959-.4623-1.105 0 0-.0149 0-.0149-.0074-.5592-.2912-1.2378.0298-1.3645.6495l-2.8484 14.0367c-.0522.2538.2237.4405.4399.2986.0373-.0298.0895-.0597.1193-.1568l-.0075-.0074Zm8.3439 20.704c0-.1493-.0447-.2911-.1342-.4106l-5.2419-7.2647c-.0299-.0374-.0895-.0747-.1194-.0971-.246-.1269-.4995.1643-.3579.4032l4.556 7.7202c.3579.6122 1.2974.3583 1.2974-.3584v.0074Z" fill="url(#f)"/></g><defs><linearGradient id="c" x1="23.1819" y1="10.4833" x2="99.183" y2="92.4111" gradientUnits="userSpaceOnUse"><stop stop-color="#E4EFFF"/><stop offset=".48" stop-color="#F8F8F8"/><stop offset="1" stop-color="#F0D2EC"/></linearGradient><linearGradient id="d" x1="56.3017" y1="2" x2="56.3017" y2="97.7567" gradientUnits="userSpaceOnUse"><stop stop-color="#F2FAFF"/><stop offset="1" stop-color="#EACEF4" stop-opacity=".45"/></linearGradient><linearGradient id="f" x1="23.2675" y1="32.8961" x2="81.985" y2="51.6609" gradientUnits="userSpaceOnUse"><stop stop-color="#0031BD"/><stop offset=".2708" stop-color="#454AFF"/><stop offset=".4219" stop-color="#9E0DF3"/><stop offset=".6406" stop-color="#E901C5"/><stop offset="1" stop-color="#FF0B4F"/></linearGradient><filter id="a" x=".726" y=".7372" width="105.108" height="105.108" filterUnits="userSpaceOnUse" color-interpolation-filters="sRGB"><feFlood flood-opacity="0" result="BackgroundImageFix"/><feColorMatrix in="SourceAlpha" values="0 0 0 0 0 0 0 0 0 0 0 0 0 0 0 0 0 0 127 0" result="hardAlpha"/><feOffset dy="3.413"/><feGaussianBlur stdDeviation="2.3379"/><feComposite in2="hardAlpha" operator="out"/><feColorMatrix values="0 0 0 0 0.925786 0 0 0 0 0.902098 0 0 0 0 0.957715 0 0 0 1 0"/><feBlend in2="BackgroundImageFix" result="effect1_dropShadow_7_10"/><feBlend in="SourceGraphic" in2="effect1_dropShadow_7_10" result="shape"/></filter><filter id="b" x="5.4019" y="1.4213" width="95.7568" height="96.3354" filterUnits="userSpaceOnUse" color-interpolation-filters="sRGB"><feFlood flood-opacity="0" result="BackgroundImageFix"/><feBlend in="SourceGraphic" in2="BackgroundImageFix" result="shape"/><feColorMatrix in="SourceAlpha" values="0 0 0 0 0 0 0 0 0 0 0 0 0 0 0 0 0 0 127 0" result="hardAlpha"/><feOffset dy="-1.3945"/><feGaussianBlur stdDeviation=".2893"/><feComposite in2="hardAlpha" operator="arithmetic" k2="-1" k3="1"/><feColorMatrix values="0 0 0 0 0.799036 0 0 0 0 0.731354 0 0 0 0 0.991667 0 0 0 1 0"/><feBlend in2="shape" result="effect1_innerShadow_7_10"/></filter><filter id="e" x="25.6511" y="15.6528" width="55.0719" height="69.8138" filterUnits="userSpaceOnUse" color-interpolation-filters="sRGB"><feFlood flood-opacity="0" result="BackgroundImageFix"/><feColorMatrix in="SourceAlpha" values="0 0 0 0 0 0 0 0 0 0 0 0 0 0 0 0 0 0 127 0" result="hardAlpha"/><feOffset dy=".3413"/><feGaussianBlur stdDeviation=".0683"/><feComposite in2="hardAlpha" operator="out"/><feColorMatrix values="0 0 0 0 1 0 0 0 0 1 0 0 0 0 1 0 0 0 1 0"/><feBlend in2="BackgroundImageFix" result="effect1_dropShadow_7_10"/><feBlend in="SourceGraphic" in2="effect1_dropShadow_7_10" result="shape"/><feColorMatrix in="SourceAlpha" values="0 0 0 0 0 0 0 0 0 0 0 0 0 0 0 0 0 0 127 0" result="hardAlpha"/><feOffset dy="1.3652"/><feGaussianBlur stdDeviation=".6826"/><feComposite in2="hardAlpha" operator="arithmetic" k2="-1" k3="1"/><feColorMatrix values="0 0 0 0 0 0 0 0 0 0 0 0 0 0 0 0 0 0 0.25 0"/><feBlend in2="shape" result="effect2_innerShadow_7_10"/></filter></defs></svg>
