<svg width="25" height="24" viewBox="0 0 25 24" fill="none" xmlns="http://www.w3.org/2000/svg">
<path fill-rule="evenodd" clip-rule="evenodd" d="M12.4518 0C5.68457 0 0.197266 5.50829 0.197266 12.3047C0.197266 17.7399 3.70841 22.3516 8.57914 23.9788C9.1919 24.0918 9.41556 23.7119 9.41556 23.3859C9.41556 23.0936 9.40483 22.3201 9.3987 21.2934C5.98942 22.0371 5.27021 19.644 5.27021 19.644C4.71336 18.2229 3.90987 17.8445 3.90987 17.8445C2.79693 17.0809 3.99411 17.0963 3.99411 17.0963C5.22347 17.1832 5.8707 18.3643 5.8707 18.3643C6.96449 20.2445 8.73923 19.7016 9.43778 19.3863C9.54885 18.5912 9.86595 18.0491 10.216 17.7415C7.49454 17.4308 4.63369 16.3757 4.63369 11.661C4.63369 10.3176 5.11089 9.21947 5.89523 8.35896C5.76885 8.04752 5.34834 6.79714 6.01472 5.10305C6.01472 5.10305 7.04416 4.77237 9.38492 6.36419C10.3631 6.09119 11.4109 5.95508 12.4534 5.9497C13.4943 5.95508 14.5429 6.09119 15.5218 6.36419C17.861 4.77237 18.8882 5.10305 18.8882 5.10305C19.5569 6.79714 19.1363 8.04752 19.0099 8.35896C19.7958 9.21947 20.27 10.3176 20.27 11.661C20.27 16.3873 17.4045 17.4277 14.6746 17.7322C15.1143 18.1121 15.5065 18.8627 15.5065 20.0108C15.5065 21.6556 15.4911 22.9821 15.4911 23.3859C15.4911 23.715 15.7118 24.098 16.3337 23.9772C21.1998 22.347 24.7079 17.7384 24.7079 12.3047C24.7079 5.50829 19.2206 0 12.4518 0Z" fill="#3E75C3"/>
</svg>
