<svg width="36" height="36" viewBox="0 0 36 36" fill="none" xmlns="http://www.w3.org/2000/svg"><path fill-rule="evenodd" clip-rule="evenodd" d="M11.025 26.8449C16.0092 26.8449 20.0499 22.7692 20.0499 17.7416C20.0499 12.7139 16.0095 8.63794 11.025 8.63794C6.04056 8.63794 1.99988 12.7149 1.99988 17.7416C1.99988 22.7683 6.04086 26.8449 11.025 26.8449ZM29.9504 17.7415C29.9504 22.4739 27.9301 26.3119 25.4379 26.3119C22.9456 26.3119 20.9253 22.4739 20.9253 17.7415C20.9253 13.0091 22.9453 9.17114 25.4376 9.17114C27.9298 9.17114 29.9501 13.0078 29.9501 17.7415H29.9504ZM33.9999 17.7417C33.9999 21.9808 33.2895 25.4194 32.4128 25.4194C31.5362 25.4194 30.826 21.9817 30.826 17.7417C30.826 13.5016 31.5365 10.064 32.4128 10.064C33.2892 10.064 33.9999 13.5013 33.9999 17.7417Z" fill="currentColor"/></svg>
