<svg width="36" height="36" viewBox="0 0 36 36" fill="none" xmlns="http://www.w3.org/2000/svg"><path d="M31.7211 12.3155C31.7211 12.3155 31.4477 10.3549 30.6055 9.49403C29.5391 8.36101 28.3469 8.35546 27.8 8.28881C23.8844 8 18.0055 8 18.0055 8H17.9945C17.9945 8 12.1156 8 8.2 8.28881C7.65313 8.35546 6.46094 8.36101 5.39453 9.49403C4.55234 10.3549 4.28437 12.3155 4.28437 12.3155C4.28437 12.3155 4 14.6204 4 16.9197V19.0747C4 21.3741 4.27891 23.679 4.27891 23.679C4.27891 23.679 4.55234 25.6395 5.38906 26.5004C6.45547 27.6334 7.85547 27.5946 8.47891 27.7167C10.7211 27.9334 18 28 18 28C18 28 23.8844 27.9889 27.8 27.7056C28.3469 27.639 29.5391 27.6334 30.6055 26.5004C31.4477 25.6395 31.7211 23.679 31.7211 23.679C31.7211 23.679 32 21.3796 32 19.0747V16.9197C32 14.6204 31.7211 12.3155 31.7211 12.3155ZM15.107 21.6906V13.6984L22.6703 17.7084L15.107 21.6906Z" fill="currentColor"/></svg>
