<svg width="16" height="16" viewBox="0 0 16 16" fill="none" xmlns="http://www.w3.org/2000/svg">
<path fill-rule="evenodd" clip-rule="evenodd" d="M8.63636 4.54545C8.63636 5.95127 7.4967 7.09091 6.09091 7.09091C4.68509 7.09091 3.54545 5.95127 3.54545 4.54545C3.54545 3.13964 4.68509 2 6.09091 2C7.4967 2 8.63636 3.13964 8.63636 4.54545ZM7.68182 4.54545C7.68182 5.42409 6.96954 6.13636 6.09091 6.13636C5.21228 6.13636 4.5 5.42409 4.5 4.54545C4.5 3.66682 5.21228 2.95455 6.09091 2.95455C6.96954 2.95455 7.68182 3.66682 7.68182 4.54545Z" fill="currentColor"/>
<path fill-rule="evenodd" clip-rule="evenodd" d="M11.1818 11.0151C11.1818 10.7394 11.0954 10.4683 10.9155 10.2594C9.74854 8.90378 8.01992 8.04545 6.09091 8.04545C4.16187 8.04545 2.43331 8.90378 1.2663 10.2594C1.08639 10.4683 1 10.7394 1 11.0151V12.1818C1 12.8847 1.56982 13.4545 2.27273 13.4545H9.90909C10.612 13.4545 11.1818 12.8847 11.1818 12.1818V11.0151ZM9.90909 12.5C10.0848 12.5 10.2273 12.3575 10.2273 12.1818V11.0151C10.2273 10.9335 10.2019 10.8934 10.1921 10.8821C9.19872 9.72819 7.73037 9 6.09091 9C4.45145 9 2.98311 9.72819 1.9897 10.8821C1.97994 10.8934 1.95455 10.9335 1.95455 11.0151V12.1818C1.95455 12.3575 2.097 12.5 2.27273 12.5H9.90909Z" fill="currentColor"/>
<path d="M12.4545 8.36364C12.191 8.36364 11.9773 8.14995 11.9773 7.88636V6.29545H10.3864C10.1228 6.29545 9.90909 6.08178 9.90909 5.81818C9.90909 5.55459 10.1228 5.34091 10.3864 5.34091H11.9773V3.75C11.9773 3.48641 12.191 3.27273 12.4545 3.27273C12.7181 3.27273 12.9318 3.48641 12.9318 3.75V5.34091H14.5227C14.7863 5.34091 15 5.55459 15 5.81818C15 6.08178 14.7863 6.29545 14.5227 6.29545H12.9318V7.88636C12.9318 8.14995 12.7181 8.36364 12.4545 8.36364Z" fill="currentColor"/>
</svg>
