<svg width="21" height="24" viewBox="0 0 21 24" fill="none" xmlns="http://www.w3.org/2000/svg">
<path fill-rule="evenodd" clip-rule="evenodd" d="M13.8796 3.89624C14.6623 2.88584 15.2557 1.45774 15.0411 0C13.7618 0.088904 12.2665 0.907396 11.394 1.97424C10.5986 2.9409 9.94497 4.37889 10.2003 5.77454C11.5988 5.81828 13.0422 4.98002 13.8796 3.89624ZM20.7922 17.6086C20.2326 18.8561 19.9632 19.4135 19.2422 20.5185C18.2365 22.0609 16.8183 23.9815 15.0593 23.9956C13.4981 24.0125 13.0955 22.9725 10.976 22.9852C8.85645 22.9965 8.41459 24.0153 6.85055 23.9998C5.09294 23.9843 3.74912 22.2514 2.74337 20.709C-0.0705031 16.3992 -0.366479 11.3402 1.36869 8.64908C2.60309 6.73835 4.55008 5.6207 6.37923 5.6207C8.24065 5.6207 9.41192 6.64804 10.9535 6.64804C12.4488 6.64804 13.3592 5.61789 15.5124 5.61789C17.1424 5.61789 18.8691 6.51116 20.0979 8.05216C16.0693 10.2733 16.7215 16.0606 20.7922 17.6086Z" fill="#0B0B0A"/>
</svg>
