<svg width="24" height="24" viewBox="0 0 24 24" fill="none" xmlns="http://www.w3.org/2000/svg"><path d="M15.8043 9.09974C16.0652 8.84816 16.0652 8.44027 15.8043 8.18868C15.5433 7.9371 15.1201 7.93711 14.8591 8.18869L10.4439 12.4447L9.14087 11.1887C8.87988 10.9371 8.45673 10.9371 8.19574 11.1887C7.93475 11.4403 7.93475 11.8482 8.19574 12.0997L9.97133 13.8113C10.2323 14.0629 10.6555 14.0629 10.9165 13.8113L15.8043 9.09974Z" fill="currentColor"/><path fill-rule="evenodd" clip-rule="evenodd" d="M7 3C4.79086 3 3 4.79086 3 7V21L4.9923 19.6718L5 19.6667C5.6554 19.2319 6.42449 19 7.2111 19H17C19.2091 19 21 17.2091 21 15V7C21 4.79086 19.2091 3 17 3H7ZM17 5H7C5.89543 5 5 5.89543 5 7V17.4223C5.70032 17.1447 6.45024 17 7.2111 17H17C18.1046 17 19 16.1046 19 15V7C19 5.89543 18.1046 5 17 5Z" fill="currentColor"/></svg>
