<svg width="24" height="24" viewBox="0 0 24 24" fill="none" xmlns="http://www.w3.org/2000/svg"><path d="M8.86603 6.5C9.34432 6.22386 9.95591 6.38773 10.2321 6.86603L12.7321 11.1962L15.3301 9.69615C15.8084 9.42001 16.42 9.58389 16.6962 10.0622C16.9723 10.5405 16.8084 11.1521 16.3301 11.4282L12.866 13.4282C12.3877 13.7043 11.7761 13.5405 11.5 13.0622L8.5 7.86603C8.22386 7.38773 8.38773 6.77614 8.86603 6.5Z" fill="currentColor"/><path fill-rule="evenodd" clip-rule="evenodd" d="M22 12C22 17.5228 17.5228 22 12 22C6.47715 22 2 17.5228 2 12C2 6.47715 6.47715 2 12 2C17.5228 2 22 6.47715 22 12ZM19.1211 15.1327C19.4348 14.4206 19.6449 13.6526 19.7321 12.8477C19.8001 12.8885 19.8788 12.9138 19.9635 12.9181C20.2393 12.9323 20.4743 12.7203 20.4886 12.4445C20.4962 12.2973 20.5 12.1491 20.5 12C20.5 11.8509 20.4962 11.7027 20.4886 11.5555C20.4743 11.2797 20.2393 11.0676 19.9635 11.0819C19.8788 11.0862 19.8001 11.1115 19.7321 11.1523C19.6449 10.3474 19.4348 9.57938 19.1211 8.8673C19.2005 8.86871 19.2813 8.85121 19.3569 8.8126C19.6029 8.68704 19.7004 8.38587 19.5749 8.13993C19.4395 7.87481 19.2907 7.61778 19.1293 7.36973C18.9787 7.13827 18.6689 7.07274 18.4375 7.22335C18.3664 7.26963 18.3109 7.33093 18.2726 7.40037C17.8032 6.76139 17.2386 6.19676 16.5996 5.72742C16.6691 5.68909 16.7304 5.63364 16.7766 5.56252C16.9273 5.33107 16.8617 5.02134 16.6303 4.87073C16.3822 4.70932 16.1252 4.56048 15.8601 4.42512C15.6141 4.29956 15.313 4.39714 15.1874 4.64308C15.1488 4.71869 15.1313 4.79952 15.1327 4.87887C14.4206 4.56516 13.6526 4.35513 12.8477 4.26789C12.8886 4.19992 12.9138 4.12123 12.9181 4.03653C12.9323 3.76075 12.7203 3.52566 12.4445 3.51144C12.2973 3.50384 12.1491 3.5 12 3.5C11.8509 3.5 11.7027 3.50384 11.5555 3.51144C11.2797 3.52566 11.0676 3.76075 11.0819 4.03653C11.0862 4.12123 11.1114 4.19992 11.1523 4.26789C10.3474 4.35513 9.57938 4.56516 8.86731 4.87887C8.86872 4.79953 8.85121 4.7187 8.8126 4.64308C8.68704 4.39714 8.38587 4.29956 8.13993 4.42512C7.87481 4.56048 7.61778 4.70932 7.36973 4.87073C7.13827 5.02134 7.07274 5.33107 7.22335 5.56252C7.26963 5.63364 7.33093 5.68909 7.40036 5.72742C6.76139 6.19676 6.19676 6.76139 5.72742 7.40036C5.68909 7.33093 5.63364 7.26963 5.56252 7.22335C5.33107 7.07274 5.02134 7.13827 4.87073 7.36973C4.70932 7.61778 4.56048 7.87481 4.42512 8.13993C4.29956 8.38587 4.39714 8.68704 4.64308 8.8126C4.71869 8.85121 4.79953 8.86872 4.87887 8.86731C4.56516 9.57938 4.35513 10.3474 4.26789 11.1523C4.19992 11.1114 4.12123 11.0862 4.03653 11.0819C3.76075 11.0676 3.52566 11.2797 3.51144 11.5555C3.50384 11.7027 3.5 11.8509 3.5 12C3.5 12.1491 3.50384 12.2973 3.51144 12.4445C3.52566 12.7203 3.76075 12.9324 4.03653 12.9181C4.12123 12.9138 4.19992 12.8886 4.26789 12.8477C4.35513 13.6526 4.56516 14.4206 4.87887 15.1327C4.79953 15.1313 4.7187 15.1488 4.64308 15.1874C4.39714 15.313 4.29956 15.6141 4.42512 15.8601C4.56048 16.1252 4.70932 16.3822 4.87073 16.6303C5.02134 16.8617 5.33107 16.9273 5.56252 16.7766C5.63364 16.7304 5.68909 16.6691 5.72742 16.5996C6.19677 17.2386 6.7614 17.8032 7.40037 18.2726C7.33093 18.3109 7.26963 18.3664 7.22335 18.4375C7.07274 18.6689 7.13827 18.9787 7.36973 19.1293C7.61778 19.2907 7.87481 19.4395 8.13993 19.5749C8.38587 19.7004 8.68704 19.6029 8.8126 19.3569C8.85121 19.2813 8.86871 19.2005 8.8673 19.1211C9.57938 19.4348 10.3474 19.6449 11.1523 19.7321C11.1115 19.8001 11.0862 19.8788 11.0819 19.9635C11.0676 20.2393 11.2797 20.4743 11.5555 20.4886C11.7027 20.4962 11.8509 20.5 12 20.5C12.1491 20.5 12.2973 20.4962 12.4445 20.4886C12.7203 20.4743 12.9324 20.2393 12.9181 19.9635C12.9138 19.8788 12.8885 19.8001 12.8477 19.7321C13.6526 19.6449 14.4206 19.4348 15.1327 19.1211C15.1313 19.2005 15.1488 19.2813 15.1874 19.3569C15.313 19.6029 15.6141 19.7004 15.8601 19.5749C16.1252 19.4395 16.3822 19.2907 16.6303 19.1293C16.8617 18.9787 16.9273 18.6689 16.7766 18.4375C16.7304 18.3664 16.6691 18.3109 16.5996 18.2726C17.2386 17.8032 17.8032 17.2386 18.2726 16.5996C18.3109 16.6691 18.3664 16.7304 18.4375 16.7766C18.6689 16.9273 18.9787 16.8617 19.1293 16.6303C19.2907 16.3822 19.4395 16.1252 19.5749 15.8601C19.7004 15.6141 19.6029 15.313 19.3569 15.1874C19.2813 15.1488 19.2005 15.1313 19.1211 15.1327Z" fill="currentColor"/></svg>
