<svg width="24" height="24" viewBox="0 0 24 24" fill="none" xmlns="http://www.w3.org/2000/svg"><path fill-rule="evenodd" clip-rule="evenodd" d="M12 24C18.6274 24 24 18.6274 24 12C24 5.37258 18.6274 0 12 0C5.37258 0 0 5.37258 0 12C0 18.6274 5.37258 24 12 24ZM7.05022 7.05025C7.44074 6.65972 8.07391 6.65972 8.46443 7.05025L12 10.5859L15.5356 7.05025C15.9262 6.65973 16.5593 6.65973 16.9499 7.05025C17.3404 7.44078 17.3404 8.07394 16.9499 8.46446L13.4143 12.0001L16.9497 15.5355C17.3402 15.9261 17.3402 16.5592 16.9497 16.9497C16.5592 17.3403 15.926 17.3403 15.5355 16.9497L12 13.4143L8.46458 16.9497C8.07406 17.3403 7.44089 17.3403 7.05037 16.9497C6.65984 16.5592 6.65984 15.9261 7.05037 15.5355L10.5858 12.0001L7.05022 8.46446C6.65969 8.07394 6.65969 7.44077 7.05022 7.05025Z" fill="currentColor"/></svg>
