<svg width="24" height="24" viewBox="0 0 24 24" fill="none" xmlns="http://www.w3.org/2000/svg"><path fill-rule="evenodd" clip-rule="evenodd" d="M5 17C3.34315 17 2 15.6569 2 14V7C2 5.34315 3.34315 4 5 4H19C20.6569 4 22 5.34315 22 7V14C22 15.6569 20.6569 17 19 17H14V18C14 18.5523 14.4477 19 15 19H15.5C15.7761 19 16 19.2239 16 19.5C16 19.7761 15.7761 20 15.5 20H8.5C8.22386 20 8 19.7761 8 19.5C8 19.2239 8.22386 19 8.5 19H9C9.55228 19 10 18.5523 10 18V17H5ZM4 8C4 6.89543 4.89543 6 6 6H18C19.1046 6 20 6.89543 20 8V13C20 14.1046 19.1046 15 18 15H6C4.89543 15 4 14.1046 4 13V8Z" fill="currentColor"/></svg>
