<svg width="30" height="20" viewBox="0 0 30 20" fill="none" xmlns="http://www.w3.org/2000/svg">
<path fill-rule="evenodd" clip-rule="evenodd" d="M14.6515 0.553711L15.3053 2.75402L16.9711 3.20036L18.1942 2.02168L19.2118 3.07765L17.392 4.83135L14.1333 3.95818L13.5695 2.0608C12.729 2.13688 11.8992 2.35019 11.1162 2.70038L11.5847 4.58802L9.19921 6.97355L7.26098 6.50997C6.9012 7.28915 6.67816 8.11645 6.59218 8.95566L8.47055 9.49642L9.34372 12.7551L7.56972 14.6278L6.5051 13.6192L7.71486 12.3422L7.26851 10.6764L5.07251 10.0442L5.08926 9.47543C5.13164 8.03638 5.51059 6.60426 6.22709 5.30763L6.49689 4.81937L8.74239 5.35645L9.96182 4.13702L9.41362 1.92844L9.91447 1.65852C11.2176 0.956245 12.6535 0.591851 14.0936 0.564361L14.6515 0.553711ZM16.415 5.81809C15.7777 5.46906 15.0461 5.27062 14.2682 5.27062C11.7961 5.27062 9.79206 7.27465 9.79206 9.74675C9.79206 10.5099 9.98306 11.2285 10.3199 11.8573L11.4315 10.7559C11.3195 10.4412 11.2585 10.1019 11.2585 9.74675C11.2585 8.08457 12.606 6.7371 14.2682 6.7371C14.633 6.7371 14.9814 6.80148 15.3035 6.91946L16.415 5.81809ZM21.3352 2.8401C21.5309 2.83914 21.7189 2.91646 21.8573 3.05485L24.7127 5.91032C24.9971 6.19468 24.9994 6.65503 24.7178 6.94217L14.0571 17.8142C13.9757 17.8972 13.8757 17.9597 13.7654 17.9964L9.48222 19.4242C9.21874 19.512 8.92826 19.4434 8.73187 19.247C8.53549 19.0506 8.46691 18.7602 8.55474 18.4967L9.98247 14.2135C10.0177 14.1078 10.0765 14.0115 10.1545 13.932L20.8153 3.05996C20.9523 2.92022 21.1395 2.84106 21.3352 2.8401ZM21.3439 4.6154L20.2568 5.72402L22.0753 7.54246L23.1624 6.43386L21.3439 4.6154ZM11.3202 14.8378L19.2301 6.77116L21.0485 8.5896L13.1339 16.6611L10.4097 17.5692L11.3202 14.8378Z" fill="currentColor"/>
</svg>
