<svg width="30" height="20" viewBox="0 0 30 20" fill="none" xmlns="http://www.w3.org/2000/svg">
<path fill-rule="evenodd" clip-rule="evenodd" d="M15 3.50781C15.5526 3.50781 16.0005 3.0601 16.0005 2.50781C16.0005 1.95553 15.5526 1.50781 15 1.50781C14.4474 1.50781 13.9995 1.95553 13.9995 2.50781C13.9995 3.0601 14.4474 3.50781 15 3.50781ZM15 5.00781C16.3814 5.00781 17.5012 3.88852 17.5012 2.50781C17.5012 1.1271 16.3814 0.0078125 15 0.0078125C13.6186 0.0078125 12.4988 1.1271 12.4988 2.50781C12.4988 3.88852 13.6186 5.00781 15 5.00781ZM15 12.5078C16.3814 12.5078 17.5012 11.3885 17.5012 10.0078C17.5012 8.6271 16.3814 7.50781 15 7.50781C13.6186 7.50781 12.4988 8.6271 12.4988 10.0078C12.4988 11.3885 13.6186 12.5078 15 12.5078ZM15 14.0078C17.2102 14.0078 19.002 12.217 19.002 10.0078C19.002 7.79867 17.2102 6.00781 15 6.00781C12.7898 6.00781 10.9981 7.79867 10.9981 10.0078C10.9981 12.217 12.7898 14.0078 15 14.0078ZM16.0005 17.5078C16.0005 18.0601 15.5526 18.5078 15 18.5078C14.4474 18.5078 13.9995 18.0601 13.9995 17.5078C13.9995 16.9555 14.4474 16.5078 15 16.5078C15.5526 16.5078 16.0005 16.9555 16.0005 17.5078ZM17.5012 17.5078C17.5012 18.8885 16.3814 20.0078 15 20.0078C13.6186 20.0078 12.4988 18.8885 12.4988 17.5078C12.4988 16.1271 13.6186 15.0078 15 15.0078C16.3814 15.0078 17.5012 16.1271 17.5012 17.5078ZM20.6319 13.2578C20.3556 13.7361 20.5196 14.3477 20.9981 14.6238C21.4766 14.9 22.0885 14.7361 22.3648 14.2578C22.6411 13.7795 22.4771 13.1679 21.9986 12.8918C21.5201 12.6156 20.9082 12.7795 20.6319 13.2578ZM19.3322 12.5078C18.6416 13.7035 19.0514 15.2325 20.2478 15.9229C21.4441 16.6132 22.9738 16.2035 23.6645 15.0078C24.3552 13.8121 23.9453 12.2831 22.749 11.5927C21.5527 10.9024 20.0229 11.3121 19.3322 12.5078ZM8.0014 7.12383C7.52287 6.84769 7.35892 6.2361 7.63519 5.75781C7.91147 5.27951 8.52336 5.11564 9.00189 5.39178C9.48041 5.66792 9.64437 6.27951 9.36809 6.75781C9.09181 7.2361 8.47992 7.39997 8.0014 7.12383ZM7.25103 8.42287C6.05472 7.73251 5.64483 6.20354 6.33552 5.00781C7.02621 3.81208 8.55594 3.40239 9.75225 4.09274C10.9486 4.7831 11.3585 6.31207 10.6678 7.50781C9.97707 8.70354 8.44735 9.11323 7.25103 8.42287ZM20.6319 6.75781C20.9082 7.2361 21.5201 7.39997 21.9986 7.12383C22.4771 6.84769 22.6411 6.2361 22.3648 5.75781C22.0885 5.27951 21.4766 5.11564 20.9981 5.39178C20.5196 5.66792 20.3556 6.27951 20.6319 6.75781ZM19.3322 7.50781C20.0229 8.70354 21.5527 9.11323 22.749 8.42287C23.9453 7.73251 24.3552 6.20354 23.6645 5.00781C22.9738 3.81207 21.4441 3.40239 20.2477 4.09274C19.0514 4.7831 18.6415 6.31208 19.3322 7.50781ZM9.00188 14.6238C8.52336 14.9 7.91147 14.7361 7.63519 14.2578C7.35891 13.7795 7.52287 13.1679 8.00139 12.8918C8.47992 12.6156 9.09181 12.7795 9.36809 13.2578C9.64436 13.7361 9.48041 14.3477 9.00188 14.6238ZM9.75225 15.9229C8.55593 16.6132 7.02621 16.2035 6.33552 15.0078C5.64482 13.8121 6.05471 12.2831 7.25103 11.5927C8.44734 10.9024 9.97706 11.3121 10.6678 12.5078C11.3585 13.7035 10.9486 15.2325 9.75225 15.9229Z" fill="#868692"/>
</svg>
