<svg width="30" height="20" viewBox="0 0 30 20" fill="none" xmlns="http://www.w3.org/2000/svg">
<path fill-rule="evenodd" clip-rule="evenodd" d="M15.0333 2.55477L21.0363 10.8709C21.579 11.6214 21.8667 12.4569 21.8667 13.3253C21.8667 15.0811 20.581 16.8603 18.4479 17.8039C18.9219 17.2158 19.2 16.4996 19.2 15.727C19.2 15.067 18.9971 14.4482 18.6426 13.9153L15.0333 8.48032L11.4241 13.9153C11.0696 14.4482 10.8667 15.067 10.8667 15.727C10.8667 16.4996 11.1448 17.2158 11.6187 17.8039C9.48568 16.8603 8.20001 15.0811 8.20001 13.3253C8.20001 12.4569 8.48767 11.6214 9.03038 10.8709L9.0395 10.8583L10.9769 8.05836L11.3735 8.584C12.2983 9.80947 14.2507 9.15543 14.2507 7.62023V3.63899L15.0333 2.55477ZM12.5709 7.68046L10.9242 5.49835L7.81486 9.99194C7.10582 10.9725 6.70001 12.111 6.70001 13.3253C6.70001 17.0072 10.431 19.9919 15.0333 19.9919C19.6357 19.9919 23.3667 17.0072 23.3667 13.3253C23.3667 12.111 22.9609 10.9725 22.2518 9.99194L15.0333 -0.00805664L12.7507 3.15416V7.62023C12.7507 7.71618 12.6287 7.75705 12.5709 7.68046ZM15.0333 11.1918L17.3937 14.7461C17.5959 15.05 17.7 15.3825 17.7 15.727C17.7 16.7097 16.7098 17.8503 15.0333 17.8503C13.3569 17.8503 12.3667 16.7097 12.3667 15.727C12.3667 15.3825 12.4708 15.05 12.673 14.7461L15.0333 11.1918Z" fill="currentColor" />
</svg>
