<svg width="30" height="20" viewBox="0 0 30 20" fill="none" xmlns="http://www.w3.org/2000/svg">
<path fill-rule="evenodd" clip-rule="evenodd" d="M15.0051 3.17456C18.7241 3.17456 22.0787 5.88053 23.4304 9.97161C22.0832 14.0903 18.7157 16.8412 14.9949 16.8412C11.2834 16.8412 7.92381 14.1042 6.56962 10.0025C7.91433 5.89442 11.2767 3.17456 15.0051 3.17456ZM25 9.96938C23.599 5.14816 19.6534 1.67456 15.0051 1.67456C10.3454 1.67456 6.39203 5.16506 5 10.0045C6.40103 14.8258 10.3465 18.3412 14.9949 18.3412C19.6545 18.3412 23.608 14.8089 25 9.96938ZM18.5 10.0079C18.5 11.9409 16.933 13.5079 15 13.5079C13.067 13.5079 11.5 11.9409 11.5 10.0079C11.5 8.07491 13.067 6.5079 15 6.5079C16.933 6.5079 18.5 8.07491 18.5 10.0079ZM20 10.0079C20 12.7693 17.7614 15.0079 15 15.0079C12.2386 15.0079 10 12.7693 10 10.0079C10 7.24648 12.2386 5.0079 15 5.0079C17.7614 5.0079 20 7.24648 20 10.0079Z" fill="currentColor"/>
</svg>
