<svg width="16" height="16" viewBox="0 0 16 16" fill="none" xmlns="http://www.w3.org/2000/svg">
<circle cx="8" cy="8" r="6.4" stroke="currentColor" stroke-width="1.2"/>
<path d="M10.4 8C10.4 9.87169 10.0737 11.5377 9.56983 12.7134C9.31744 13.3023 9.03232 13.7406 8.74627 14.0229C8.46281 14.3026 8.21132 14.4 8 14.4C7.78868 14.4 7.53719 14.3026 7.25373 14.0229C6.96768 13.7406 6.68256 13.3023 6.43017 12.7134C5.9263 11.5377 5.6 9.87169 5.6 8C5.6 6.12831 5.9263 4.46229 6.43017 3.2866C6.68256 2.69769 6.96768 2.25945 7.25373 1.97714C7.53719 1.69739 7.78868 1.6 8 1.6C8.21132 1.6 8.46281 1.69739 8.74627 1.97714C9.03232 2.25945 9.31744 2.69769 9.56983 3.2866C10.0737 4.46229 10.4 6.12831 10.4 8Z" stroke="currentColor" stroke-width="1.2"/>
<path d="M2 6H14" stroke="currentColor" stroke-width="1.2"/>
<path d="M2 10H14" stroke="currentColor" stroke-width="1.2"/>
</svg>
