<svg width="20" height="20" viewBox="0 0 20 20" fill="none" xmlns="http://www.w3.org/2000/svg">
<path fill-rule="evenodd" clip-rule="evenodd" d="M15.131 1.69518C15.0117 1.57584 14.8498 1.50879 14.681 1.50879C14.5123 1.50879 14.3504 1.57583 14.2311 1.69517L5.76823 10.1579C5.68528 10.2409 5.62687 10.3452 5.59946 10.4592L4.57467 14.7237C4.52292 14.9391 4.58684 15.1658 4.74344 15.3224C4.90003 15.479 5.12678 15.5429 5.3421 15.4912L9.60654 14.4664C9.7206 14.439 9.82487 14.3806 9.90782 14.2976L18.3707 5.8348C18.6192 5.58628 18.6192 5.18336 18.3707 4.93484L15.131 1.69518ZM6.79504 10.931L12.367 5.35916L14.7067 7.69888L9.13472 13.2708L6.05492 14.0109L6.79504 10.931ZM13.2669 4.45921L15.6066 6.79892L17.0207 5.38482L14.681 3.04511L13.2669 4.45921ZM2.44463 4.92861C2.44463 4.15541 3.07143 3.52861 3.84463 3.52861H9.46797C9.79935 3.52861 10.068 3.25998 10.068 2.92861C10.068 2.59724 9.79935 2.32861 9.46797 2.32861H3.84463C2.40869 2.32861 1.24463 3.49267 1.24463 4.92861V16.1552C1.24463 17.5911 2.40869 18.7552 3.84463 18.7552H15.0712C16.5071 18.7552 17.6712 17.5911 17.6712 16.1552L17.6712 10.5433C17.6712 10.212 17.4026 9.94332 17.0712 9.94332C16.7398 9.94332 16.4712 10.212 16.4712 10.5433L16.4712 16.1552C16.4712 16.9284 15.8444 17.5552 15.0712 17.5552H3.84463C3.07143 17.5552 2.44463 16.9284 2.44463 16.1552V4.92861ZM7.1712 6.36008C7.1712 6.69145 6.93569 6.96008 6.64516 6.96008H4.30007C4.00955 6.96008 3.77403 6.69145 3.77403 6.36008C3.77403 6.02871 4.00955 5.76008 4.30007 5.76008H6.64516C6.93569 5.76008 7.1712 6.02871 7.1712 6.36008ZM14.5845 15.3665C14.8751 15.3665 15.1106 15.0979 15.1106 14.7665C15.1106 14.4351 14.8751 14.1665 14.5845 14.1665H12.2395C11.9489 14.1665 11.7134 14.4351 11.7134 14.7665C11.7134 15.0979 11.9489 15.3665 12.2395 15.3665H14.5845Z" fill="currentColor"/>
</svg>
