<svg width="20" height="20" viewBox="0 0 20 20" fill="none" xmlns="http://www.w3.org/2000/svg">
<path fill-rule="evenodd" clip-rule="evenodd" d="M9.72321 1.17378L5.90483 4.99216C5.67052 5.22647 5.67052 5.60637 5.90483 5.84069C6.13915 6.075 6.51904 6.075 6.75336 5.84069L9.54747 3.04658L9.54747 14.7079C9.54747 15.0393 9.8161 15.3079 10.1475 15.3079C10.4788 15.3079 10.7475 15.0393 10.7475 14.7079L10.7475 3.04658L13.5416 5.84069C13.7759 6.075 14.1558 6.075 14.3901 5.84069C14.6244 5.60637 14.6244 5.22647 14.3901 4.99216L10.5717 1.17378C10.3374 0.939468 9.95752 0.939468 9.72321 1.17378ZM6.94329 7.48015L5.95895 7.48015H5.95893C5.42024 7.48014 4.97968 7.48013 4.62163 7.50939C4.25102 7.53967 3.9163 7.60426 3.60371 7.76353C3.11449 8.0128 2.71674 8.41055 2.46747 8.89977C2.30819 9.21236 2.2436 9.54708 2.21332 9.91769C2.18407 10.2757 2.18408 10.7163 2.18408 11.255V11.255V15.0142V15.0142C2.18408 15.5529 2.18407 15.9934 2.21332 16.3515C2.2436 16.7221 2.30819 17.0568 2.46747 17.3694C2.71674 17.8586 3.11449 18.2564 3.60371 18.5056C3.9163 18.6649 4.25102 18.7295 4.62163 18.7598C4.97967 18.789 5.42021 18.789 5.95889 18.789H5.95896H14.0103H14.0103C14.549 18.789 14.9895 18.789 15.3476 18.7598C15.7182 18.7295 16.0529 18.6649 16.3655 18.5056C16.8547 18.2564 17.2525 17.8586 17.5017 17.3694C17.661 17.0568 17.7256 16.7221 17.7559 16.3515C17.7851 15.9934 17.7851 15.5528 17.7851 15.0141V11.2551C17.7851 10.7163 17.7851 10.2758 17.7559 9.91769C17.7256 9.54708 17.661 9.21236 17.5017 8.89977C17.2525 8.41055 16.8547 8.0128 16.3655 7.76353C16.0529 7.60426 15.7182 7.53967 15.3476 7.50939C14.9895 7.48013 14.549 7.48014 14.0103 7.48015H14.0103L13.37 7.48015C13.0386 7.48015 12.77 7.74878 12.77 8.08015C12.77 8.41152 13.0386 8.68015 13.37 8.68015H13.9851C14.5551 8.68015 14.9465 8.68061 15.2499 8.7054C15.5463 8.72962 15.7055 8.77402 15.8207 8.83274C16.0841 8.96696 16.2983 9.18113 16.4325 9.44456C16.4913 9.55979 16.5357 9.71901 16.5599 10.0154C16.5847 10.3188 16.5851 10.7102 16.5851 11.2801V14.989C16.5851 15.559 16.5847 15.9504 16.5599 16.2538C16.5357 16.5502 16.4913 16.7094 16.4325 16.8246C16.2983 17.088 16.0841 17.3022 15.8207 17.4364C15.7055 17.4952 15.5463 17.5396 15.2499 17.5638C14.9465 17.5886 14.5551 17.589 13.9851 17.589H5.98408C5.41413 17.589 5.02275 17.5886 4.71935 17.5638C4.42295 17.5396 4.26373 17.4952 4.1485 17.4364C3.88507 17.3022 3.6709 17.088 3.53667 16.8246C3.47796 16.7094 3.43356 16.5502 3.40934 16.2538C3.38455 15.9504 3.38408 15.559 3.38408 14.989V11.2801C3.38408 10.7102 3.38455 10.3188 3.40934 10.0154C3.43356 9.71901 3.47796 9.55979 3.53667 9.44456C3.6709 9.18113 3.88507 8.96696 4.1485 8.83274C4.26373 8.77402 4.42295 8.72962 4.71935 8.7054C5.02275 8.68061 5.41413 8.68015 5.98408 8.68015H6.94329C7.27466 8.68015 7.54329 8.41152 7.54329 8.08015C7.54329 7.74878 7.27466 7.48015 6.94329 7.48015Z" fill="currentColor"/>
</svg>
