<svg width="24" height="24" viewBox="0 0 24 24" fill="none" xmlns="http://www.w3.org/2000/svg">
  <path fill-rule="evenodd" clip-rule="evenodd" d="M11.9841 4.5C8.02225 4.5 4.0676 6.79251 1.01759 11.1645L1.01758 11.1645L1.0154 11.1676C0.846976 11.4117 0.754679 11.7002 0.750173 11.9968C0.745679 12.2925 0.828741 12.583 0.988886 12.8317C3.3458 16.5203 7.2513 19.5 11.9841 19.5C16.6671 19.5 20.6494 16.514 23.0121 12.8146C23.168 12.5718 23.2509 12.2893 23.2509 12.0007C23.2509 11.7115 23.1677 11.4285 23.0112 11.1853L23.0101 11.1836C20.6453 7.53129 16.6371 4.5 11.9841 4.5ZM2.25209 12.0228L2.25001 12.0196C5.10025 7.93555 8.63995 6 11.9841 6C15.9686 6 19.5621 8.61913 21.7499 11.9973C21.7506 11.9983 21.7509 11.9995 21.7509 12.0007C21.7509 12.002 21.7505 12.0032 21.7498 12.0043L21.7484 12.0065C19.5689 15.4195 16.0045 18 11.9841 18C7.91813 18 4.42901 15.4304 2.25208 12.0228L2.25209 12.0228ZM9 12C9 10.3431 10.3431 9 12 9C13.6569 9 15 10.3431 15 12C15 13.6569 13.6569 15 12 15C10.3431 15 9 13.6569 9 12ZM12 7.5C9.51472 7.5 7.5 9.51472 7.5 12C7.5 14.4853 9.51472 16.5 12 16.5C14.4853 16.5 16.5 14.4853 16.5 12C16.5 9.51472 14.4853 7.5 12 7.5Z" fill="currentColor" fill-opacity="0.88"/>
</svg>
