<svg width="25" height="24" viewBox="0 0 25 24" fill="none" xmlns="http://www.w3.org/2000/svg">
<path d="M3.79476 3.51473C6.0452 1.26428 9.09745 0 12.2801 0C15.4627 0 18.5149 1.26428 20.7654 3.51473C23.0158 5.76517 24.2801 8.81742 24.2801 12C24.2801 15.1826 23.0158 18.2349 20.7654 20.4853C18.5233 22.7274 15.4854 23.9906 12.3157 24C12.8559 23.9979 13.3835 23.948 13.9045 23.8775V15.1807H17.01L17.4976 12.0259H13.9039V10.3017C13.9039 8.99119 14.3321 7.82909 15.558 7.82909H17.5279V5.07603L17.5093 5.07351C17.1559 5.02573 16.4255 4.92697 15.0666 4.92697C12.1784 4.92697 10.4851 6.45224 10.4851 9.9272V12.0259H7.51607V15.1807H10.4851V23.8516C11.061 23.9382 11.6441 23.9976 12.2423 24C9.0733 23.99 6.03629 22.7269 3.79476 20.4853C1.54431 18.2349 0.280029 15.1826 0.280029 12C0.280029 8.81742 1.54431 5.76517 3.79476 3.51473Z" fill="#039BE5"/>
</svg>
