<svg width="36" height="36" viewBox="0 0 36 36" fill="none" xmlns="http://www.w3.org/2000/svg"><path fill-rule="evenodd" clip-rule="evenodd" d="M17.9954 5C14.6717 5.00171 11.4571 6.17218 8.92619 8.30211C6.39533 10.432 4.7133 13.3825 4.18087 16.626C3.64844 19.8695 4.30032 23.1945 6.01996 26.0064C7.7396 28.8183 10.4149 30.9338 13.5674 31.9746C14.2629 32.1029 14.5248 31.6743 14.5248 31.3099C14.5248 30.9455 14.5109 29.8889 14.5063 28.7337C10.6115 29.5703 9.78852 27.0995 9.78852 27.0995C9.1533 25.4951 8.23524 25.0734 8.23524 25.0734C6.9648 24.2162 8.3303 24.2322 8.3303 24.2322C9.73752 24.3308 10.4771 25.6601 10.4771 25.6601C11.7243 27.7756 13.7528 27.1637 14.5503 26.8061C14.6755 25.9099 15.0395 25.3003 15.4406 24.9542C12.3294 24.6058 9.06056 23.4185 9.06056 18.1148C9.04128 16.7394 9.55755 15.4092 10.5026 14.3995C10.3588 14.0511 9.87893 12.6438 10.6393 10.7323C10.6393 10.7323 11.8147 10.361 14.4901 12.1511C16.7848 11.5306 19.2059 11.5306 21.5007 12.1511C24.1737 10.361 25.3468 10.7323 25.3468 10.7323C26.1095 12.6392 25.6296 14.0465 25.4859 14.3995C26.4339 15.4093 26.9512 16.7418 26.9302 18.1194C26.9302 23.4346 23.6544 24.6058 20.5386 24.9473C21.0393 25.3782 21.4868 26.2194 21.4868 27.5121C21.4868 29.364 21.4705 30.8538 21.4705 31.3099C21.4705 31.6789 21.7232 32.1098 22.4326 31.9746C25.5855 30.9337 28.261 28.8178 29.9806 26.0054C31.7003 23.193 32.3518 19.8675 31.8188 16.6237C31.2857 13.38 29.6029 10.4294 27.0712 8.29988C24.5395 6.17032 21.324 5.00063 18 5H17.9954Z" fill="currentColor"/></svg>
