<svg width="26" height="24" viewBox="0 0 26 24" fill="none" xmlns="http://www.w3.org/2000/svg">
<path d="M24.7825 9.49862L24.7475 9.4091L21.3561 0.558237C21.2871 0.384765 21.1649 0.237608 21.0071 0.13788C20.8492 0.0398468 20.665 -0.00736931 20.4794 0.00260712C20.2938 0.0125836 20.1157 0.0792721 19.9692 0.193668C19.8243 0.311349 19.7192 0.470811 19.6682 0.650353L17.3783 7.65631H8.10577L5.81586 0.650353C5.76619 0.469833 5.66087 0.309572 5.51486 0.192371C5.36836 0.0779745 5.19028 0.0112859 5.00467 0.00130945C4.81906 -0.00866699 4.63486 0.0385491 4.47694 0.136583C4.31947 0.236713 4.1974 0.383741 4.12794 0.55694L0.730051 9.40391L0.696319 9.49343C0.208111 10.769 0.147849 12.1688 0.52462 13.4816C0.901392 14.7945 1.69477 15.9493 2.78513 16.7718L2.79681 16.7809L2.82795 16.803L7.99419 20.6718L10.5501 22.6062L12.1069 23.7817C12.2891 23.92 12.5114 23.9948 12.7401 23.9948C12.9687 23.9948 13.1911 23.92 13.3732 23.7817L14.9301 22.6062L17.486 20.6718L22.6833 16.7796L22.6963 16.7692C23.7842 15.9465 24.5758 14.7929 24.952 13.4819C25.3282 12.1708 25.2687 10.773 24.7825 9.49862Z" fill="#E24329"/>
<path d="M24.7825 9.49862L24.7475 9.4091C23.095 9.74829 21.5378 10.4483 20.1872 11.459L12.7388 17.091C15.2752 19.0099 17.4834 20.677 17.4834 20.677L22.6808 16.7848L22.6937 16.7744C23.7832 15.9517 24.576 14.7974 24.9527 13.4852C25.3294 12.173 25.2697 10.7739 24.7825 9.49862Z" fill="#FC6D26"/>
<path d="M7.99419 20.677L10.5501 22.6114L12.1069 23.7869C12.2891 23.9251 12.5114 24 12.7401 24C12.9687 24 13.1911 23.9251 13.3732 23.7869L14.9301 22.6114L17.486 20.677C17.486 20.677 15.2752 19.0047 12.7388 17.091C10.2024 19.0047 7.99419 20.677 7.99419 20.677Z" fill="#FCA326"/>
<path d="M5.28911 11.459C3.93955 10.4462 2.38268 9.74439 0.730051 9.40391L0.696319 9.49343C0.208111 10.769 0.147849 12.1688 0.52462 13.4816C0.901392 14.7945 1.69477 15.9493 2.78513 16.7718L2.79681 16.7809L2.82795 16.803L7.99419 20.6718C7.99419 20.6718 10.1998 19.0047 12.7388 17.0858L5.28911 11.459Z" fill="#FC6D26"/>
</svg>
