<svg width="36" height="36" viewBox="0 0 36 36" fill="none" xmlns="http://www.w3.org/2000/svg"><path fill-rule="evenodd" clip-rule="evenodd" d="M30.6 17.9309C30.6 16.4566 30.3482 15.0412 29.8852 13.7253V13.6174H29.8467C28.0976 8.78662 23.4945 5.32275 18.0742 5.26273L18.0591 5.24634L18.0417 5.26241L17.9972 5.26211L17.9801 5.24671L17.9663 5.26199L17.9311 5.26194C10.9342 5.26194 5.26208 10.934 5.26208 17.9309C5.26208 24.9277 10.9342 30.5998 17.9311 30.5998L17.9735 30.5997L17.9881 30.6155L18.0054 30.5996L18.0495 30.5993L18.0671 30.6152L18.0817 30.5989C25.0091 30.5182 30.6 24.8774 30.6 17.9309ZM29.4 17.9309C29.4 16.8518 29.2509 15.8074 28.9723 14.8174H24.7105C24.9841 15.8302 25.1223 16.8495 25.1223 17.8753C25.1223 18.936 24.9744 19.9923 24.682 21.0442H28.8185H28.9724C29.251 20.0542 29.4 19.0099 29.4 17.9309ZM19.3907 6.55395C23.5607 7.08362 27.032 9.85251 28.5612 13.6174H24.3222C23.4202 11.2264 21.7632 8.87173 19.3907 6.55395ZM18.6143 7.47313C20.7202 9.54196 22.1817 11.5899 23.0303 13.6174H18.6143V7.47313ZM17.4143 7.50908V13.6174H13.0568C13.9085 11.6115 15.3511 9.57552 17.4143 7.50908ZM17.4143 14.8174H12.6165C12.2872 15.8823 12.1249 16.9387 12.1249 17.9866C12.1249 19.0006 12.2769 20.0197 12.5851 21.0442H17.4143V14.8174ZM18.6143 14.8174V21.0442H23.4308C23.76 19.9793 23.9223 18.9231 23.9223 17.8753C23.9223 16.8612 23.7702 15.8419 23.462 14.8174H18.6143ZM17.4143 22.2442H13.0167C13.8628 24.2658 15.3183 26.3078 17.4143 28.3705V22.2442ZM18.6143 28.3714V22.2442H22.9905C22.1363 24.2562 20.6875 26.2985 18.6143 28.3714ZM10.9249 17.9866C10.9249 16.9258 11.0727 15.8693 11.3653 14.8174H6.88973C6.61112 15.8074 6.46209 16.8518 6.46209 17.9309C6.46209 19.0099 6.6111 20.0542 6.88968 21.0442H11.3365C11.0631 20.0314 10.9249 19.0122 10.9249 17.9866ZM16.6997 6.52726C14.3365 8.86685 12.6778 11.2304 11.7622 13.6174H7.30087C8.85793 9.784 12.4283 6.98318 16.6997 6.52726ZM7.3008 22.2442C8.85563 26.0723 12.4182 28.8707 16.6817 29.3325C14.2957 27.0067 12.63 24.6438 11.7248 22.2442H7.3008ZM24.2851 22.2442C23.3727 24.6229 21.7223 26.9784 19.3721 29.3101C23.5505 28.7863 27.0298 26.0147 28.5613 22.2442H24.2851Z" fill="currentColor"/></svg>
