<svg width="25" height="24" viewBox="0 0 25 24" fill="none" xmlns="http://www.w3.org/2000/svg">
<path fill-rule="evenodd" clip-rule="evenodd" d="M5.7083 12C5.7083 11.2205 5.83776 10.4733 6.06881 9.77236L2.02453 6.684C1.23632 8.28436 0.792236 10.0876 0.792236 12C0.792236 13.9107 1.23577 15.7129 2.02289 17.3122L6.06499 14.2178C5.83612 13.5202 5.7083 12.7756 5.7083 12Z" fill="#FBBC05"/>
<path fill-rule="evenodd" clip-rule="evenodd" d="M12.8093 4.90909C14.5026 4.90909 16.032 5.50909 17.2337 6.49091L20.7296 3C18.5993 1.14545 15.8682 0 12.8093 0C8.06036 0 3.97894 2.71582 2.02453 6.684L6.06881 9.77236C7.00068 6.94364 9.65699 4.90909 12.8093 4.90909Z" fill="#EB4335"/>
<path fill-rule="evenodd" clip-rule="evenodd" d="M12.8093 19.0909C9.65699 19.0909 7.00068 17.0564 6.06881 14.2276L2.02453 17.3155C3.97894 21.2842 8.06036 24 12.8093 24C15.7403 24 18.5387 22.9593 20.6389 21.0093L16.8 18.0415C15.7169 18.7238 14.3529 19.0909 12.8093 19.0909Z" fill="#34A853"/>
<path fill-rule="evenodd" clip-rule="evenodd" d="M24.2801 12C24.2801 11.2909 24.1709 10.5273 24.007 9.81818H12.8093V14.4545H19.2548C18.9325 16.0353 18.0553 17.2505 16.8 18.0415L20.6389 21.0093C22.8452 18.9616 24.2801 15.9115 24.2801 12Z" fill="#4285F4"/>
</svg>
