<svg width="24" height="24" viewBox="0 0 24 24" fill="none" xmlns="http://www.w3.org/2000/svg"><path fill-rule="evenodd" clip-rule="evenodd" d="M14.3656 5.13451C13.0078 4.86441 11.6003 5.00303 10.3212 5.53285C9.04213 6.06266 7.94888 6.95987 7.17971 8.11101C6.51883 9.10008 6.12271 10.2384 6.02427 11.4176C6.03587 11.4108 6.04684 11.4028 6.05698 11.3937L7.29289 10.2855C7.68341 9.90482 8.31658 9.90482 8.7071 10.2855C9.09763 10.6662 9.09763 11.2833 8.7071 11.664L5.69801 14.4962C5.30966 14.8748 4.69034 14.8748 4.30198 14.4962L1.29289 11.664C0.902365 11.2833 0.902365 10.6662 1.29289 10.2855C1.68341 9.90482 2.31658 9.90482 2.7071 10.2855L3.94301 11.3937C3.96473 11.4132 3.99025 11.4275 4.01768 11.436C4.11699 9.85426 4.63259 8.32314 5.51677 6.99987C6.5057 5.51983 7.91131 4.36628 9.55585 3.68509C11.2004 3.0039 13.01 2.82567 14.7558 3.17294C16.5016 3.5202 18.1053 4.37737 19.364 5.63604C20.6226 6.89472 21.4798 8.49836 21.8271 10.2442C22.1743 11.99 21.9961 13.7996 21.3149 15.4442C20.6337 17.0887 19.4802 18.4943 18.0001 19.4832C16.5201 20.4722 14.78 21 13 21C12.4477 21 12 20.5523 12 20C12 19.4477 12.4477 19 13 19C14.3845 19 15.7378 18.5895 16.889 17.8203C18.0401 17.0511 18.9373 15.9579 19.4672 14.6788C19.997 13.3997 20.1356 11.9922 19.8655 10.6344C19.5954 9.27651 18.9287 8.02923 17.9497 7.05026C16.9708 6.07129 15.7235 5.4046 14.3656 5.13451ZM13.7143 9.85889C13.7143 9.38454 13.3305 9 12.8571 9C12.3838 9 12 9.38454 12 9.85889V14.0797L13.5368 15.6196C13.8715 15.955 14.4142 15.955 14.7489 15.6196C15.0837 15.2841 15.0837 14.7403 14.7489 14.4049L13.7143 13.3681V9.85889ZM14.1429 15.4417C14.3795 15.4417 14.5714 15.2494 14.5714 15.0122C14.5714 14.7751 14.3795 14.5828 14.1429 14.5828C13.9062 14.5828 13.7143 14.7751 13.7143 15.0122C13.7143 15.2494 13.9062 15.4417 14.1429 15.4417Z" fill="currentColor"/></svg>
