<svg width="17" height="16" viewBox="0 0 17 16" fill="none" xmlns="http://www.w3.org/2000/svg">
  <path fill-rule="evenodd" clip-rule="evenodd" d="M3.89282 2H12.8928C13.9974 2 14.8928 2.89543 14.8928 4V7V10C14.8928 11.1046 13.9974 12 12.8928 12H3.89282C2.78825 12 1.89282 11.1046 1.89282 10V7V4C1.89282 2.89543 2.78825 2 3.89282 2ZM0.892822 7V4C0.892822 2.34315 2.23597 1 3.89282 1H12.8928C14.5497 1 15.8928 2.34315 15.8928 4V7V12C15.8928 12.2071 15.8718 12.4093 15.8319 12.6046C15.5521 13.9717 14.3426 15 12.8928 15H3.89282C2.23597 15 0.892822 13.6569 0.892822 12V7Z" fill="currentColor"/>
  <path d="M13.8906 4.08984V9.02301H12.8645V4.08984H13.8906Z" fill="currentColor"/>
  <path d="M10.2925 9.02288V5.32301H11.2873V5.96856H11.3258C11.3933 5.73893 11.5065 5.5655 11.6655 5.44827C11.8245 5.32944 12.0075 5.27002 12.2147 5.27002C12.2661 5.27002 12.3215 5.27323 12.3809 5.27965C12.4403 5.28608 12.4925 5.29491 12.5375 5.30615V6.21667C12.4893 6.20221 12.4226 6.18937 12.3375 6.17813C12.2524 6.16689 12.1745 6.16126 12.1039 6.16126C11.9529 6.16126 11.818 6.19418 11.6992 6.26002C11.582 6.32426 11.4888 6.41419 11.4198 6.52981C11.3523 6.64543 11.3186 6.77871 11.3186 6.92966V9.02288H10.2925Z" fill="currentColor"/>
  <path d="M9.82748 5.3232V6.094H7.59937V5.3232H9.82748ZM8.10521 4.43677H9.13134V7.88613C9.13134 7.98087 9.1458 8.05474 9.1747 8.10773C9.20361 8.15912 9.24375 8.19525 9.29514 8.21613C9.34813 8.237 9.40915 8.24744 9.47821 8.24744C9.52638 8.24744 9.57456 8.24343 9.62273 8.2354C9.67091 8.22576 9.70784 8.21854 9.73354 8.21372L9.89492 8.9773C9.84354 8.99336 9.77127 9.01183 9.67813 9.0327C9.585 9.05518 9.47178 9.06883 9.3385 9.07365C9.0912 9.08329 8.87441 9.05037 8.68813 8.97489C8.50346 8.89942 8.35973 8.78219 8.25696 8.62321C8.15419 8.46423 8.1036 8.2635 8.10521 8.02102V4.43677Z" fill="currentColor"/>
  <path d="M7.33438 5.817H6.27934C6.26007 5.6805 6.22073 5.55926 6.16131 5.45327C6.1019 5.34568 6.02562 5.25415 5.93248 5.17867C5.83934 5.1032 5.73175 5.04539 5.6097 5.00524C5.48927 4.96509 5.35839 4.94502 5.21707 4.94502C4.96174 4.94502 4.73934 5.00845 4.54985 5.13531C4.36036 5.26057 4.21342 5.44364 4.10904 5.68451C4.00466 5.92378 3.95247 6.21444 3.95247 6.55649C3.95247 6.90817 4.00466 7.20364 4.10904 7.44292C4.21503 7.68219 4.36276 7.86284 4.55225 7.98489C4.74174 8.10693 4.96094 8.16796 5.20985 8.16796C5.34956 8.16796 5.47883 8.14949 5.59766 8.11255C5.7181 8.07562 5.82489 8.02182 5.91803 7.95117C6.01117 7.8789 6.08825 7.79138 6.14927 7.68861C6.2119 7.58584 6.25525 7.46861 6.27934 7.33693L7.33438 7.34175C7.30709 7.56817 7.23884 7.78657 7.12964 7.99693C7.02205 8.20569 6.87672 8.39277 6.69365 8.55818C6.51219 8.72197 6.2954 8.85205 6.04328 8.9484C5.79277 9.04314 5.50934 9.09051 5.19299 9.09051C4.75298 9.09051 4.35955 8.99095 4.01269 8.79183C3.66743 8.5927 3.39444 8.30445 3.19371 7.92708C2.99458 7.5497 2.89502 7.09284 2.89502 6.55649C2.89502 6.01853 2.99619 5.56086 3.19852 5.18349C3.40086 4.80611 3.67546 4.51867 4.02232 4.32115C4.36919 4.12202 4.75941 4.02246 5.19299 4.02246C5.47883 4.02246 5.74379 4.06261 5.98788 4.1429C6.23358 4.22319 6.45117 4.34042 6.64066 4.49458C6.83015 4.64714 6.98431 4.83422 7.10314 5.05582C7.22358 5.27743 7.30066 5.53115 7.33438 5.817Z" fill="currentColor"/>
</svg>
