<svg width="24" height="24" viewBox="0 0 24 24" fill="none" xmlns="http://www.w3.org/2000/svg">
<path d="M0.746391 7.82608C0.264047 9.12611 0 10.5321 0 12C0 13.4678 0.264047 14.8739 0.746391 16.1739L12 17.2173L23.2536 16.1739C23.736 14.8739 24 13.4678 24 12C24 10.5321 23.736 9.12611 23.2536 7.82608L12 6.78259L0.746391 7.82608Z" fill="#F0F0F0"/>
<path d="M12 0C6.84049 0 2.44186 3.25647 0.746391 7.82608H23.2536C21.558 3.25647 17.1596 0 12 0Z" fill="#D80027"/>
<path d="M12 24.0001C17.1596 24.0001 21.558 20.7435 23.2536 16.1739H0.746391C2.44186 20.7435 6.84049 24.0001 12 24.0001Z" fill="#6DA544"/>
</svg>
