<svg width="12" height="12" viewBox="0 0 12 12" fill="none" xmlns="http://www.w3.org/2000/svg"><path fill-rule="evenodd" clip-rule="evenodd" d="M2.83589 3.91406C2.83589 2.1666 4.25249 0.75 5.99995 0.75C7.74742 0.75 9.16401 2.1666 9.16401 3.91406V5.07353H9.5625C10.3909 5.07353 11.0625 5.7451 11.0625 6.57353V9.75C11.0625 10.5784 10.3909 11.25 9.5625 11.25H2.4375C1.60907 11.25 0.9375 10.5784 0.9375 9.75V6.57353C0.9375 5.7451 1.60907 5.07353 2.4375 5.07353H2.83589V3.91406ZM6 1.9853C4.95152 1.9853 4.10156 2.83526 4.10156 3.88374V5.07353H7.89844V3.88374C7.89844 2.83526 7.04848 1.9853 6 1.9853Z" fill="currentColor"/></svg>
