<svg width="14" height="14" viewBox="0 0 14 14" fill="none" xmlns="http://www.w3.org/2000/svg">
<path d="M8.44226 3.762L8.82776 3.86595C8.96683 3.90341 9.08233 3.99634 9.15298 4.12753C9.22365 4.25872 9.24092 4.4123 9.20158 4.55991L8.56351 6.95524C8.53578 7.05942 8.47088 7.14303 8.38837 7.19397C8.30586 7.24491 8.20575 7.26318 8.10761 7.23671C7.91133 7.18378 7.7972 6.97194 7.85272 6.76358L8.43718 4.56946L8.24123 4.51662L8.0296 5.31107C8.01 5.38467 7.96431 5.44676 7.90102 5.48583C7.85862 5.51201 7.81183 5.52538 7.76472 5.52597C7.6772 5.93394 7.57545 6.35776 7.46141 6.78588C6.93391 8.76606 6.26245 10.4136 5.81324 10.8581L5.52861 11.364C5.5086 11.3996 5.48877 11.4236 5.46969 11.4354C5.45888 11.4421 5.44922 11.4444 5.44107 11.4444H11.7222C11.8756 11.4444 12 11.5688 12 11.7222C12 11.8756 11.8756 12 11.7222 12H2.27778C2.12437 12 2 11.8756 2 11.7222C2 11.5688 2.12437 11.4444 2.27778 11.4444H5.44107C5.43143 11.4444 5.42347 11.4412 5.41875 11.4384C5.3942 11.4237 5.38252 11.3866 5.38307 11.3247L5.38804 10.7458C5.20398 10.096 5.50481 8.19014 5.98498 6.38771C6.09907 5.95932 6.2216 5.54115 6.34853 5.14398C6.2456 5.08246 6.19189 4.95262 6.22596 4.82465L6.77309 2.77077C6.7927 2.69717 6.83837 2.63505 6.90166 2.59598C6.96498 2.55689 7.03807 2.54567 7.1074 2.56437L8.38981 2.91021C8.53352 2.94896 8.61738 3.10462 8.57674 3.25719L8.44226 3.762Z" fill="white"/>
</svg>
