<svg width="24" height="24" viewBox="0 0 24 24" fill="none" xmlns="http://www.w3.org/2000/svg"><circle cx="12" cy="12" r="11.5" fill="currentColor" stroke="currentColor"/><path fill-rule="evenodd" clip-rule="evenodd" d="M5.83334 6C5.37311 6 5.00001 6.3731 5.00001 6.83333V9.66667C5.00001 10.1269 5.37311 10.5 5.83334 10.5H12.0061C12.2394 9.83991 12.6223 9.25052 13.1141 8.77256C13.0409 8.61356 13 8.43655 13 8.25C13 7.55964 13.5596 7 14.25 7C14.701 7 15.0963 7.23888 15.3161 7.59703C15.6174 7.53344 15.9298 7.5 16.25 7.5C16.5055 7.5 16.7561 7.5213 17 7.56222V6.83333C17 6.3731 16.6269 6 16.1667 6H5.83334ZM6.5 8.25C6.5 7.5 7.01988 7.5 7.25 7.5H10.25C10.4801 7.5 11 7.5 11 8.25C11 9 10.4801 9 10.25 9H7.25C7.04167 9 6.5 9 6.5 8.25Z" fill="white" fill-opacity="0.75"/><path fill-rule="evenodd" clip-rule="evenodd" d="M11.8122 11.25C11.7713 11.4939 11.75 11.7445 11.75 12C11.75 13.5652 12.5491 14.9438 13.7617 15.75H5.83334C5.37311 15.75 5.00001 15.3769 5.00001 14.9167V12.0833C5.00001 11.6231 5.37311 11.25 5.83334 11.25H11.8122ZM7.25 12.75C7.01988 12.75 6.5 12.75 6.5 13.5C6.5 14.25 7.04167 14.25 7.25 14.25H10.25C10.4801 14.25 11 14.25 11 13.5C11 12.75 10.4801 12.75 10.25 12.75H7.25Z" fill="white" fill-opacity="0.75"/><path d="M5 17.625C5 17.3949 5.18655 17.25 5.41667 17.25H10.1667C10.1667 16.7898 10.5398 16.4167 11 16.4167C11.4602 16.4167 11.8333 16.7898 11.8333 17.25H16.5833C16.8135 17.25 17 17.3949 17 17.625C17 17.8551 16.8135 18 16.5833 18H5.41667C5.18655 18 5 17.8551 5 17.625Z" fill="white" fill-opacity="0.75"/><path fill-rule="evenodd" clip-rule="evenodd" d="M20 12C20 14.0711 18.3211 15.75 16.25 15.75C14.1789 15.75 12.5 14.0711 12.5 12C12.5 9.92893 14.1789 8.25 16.25 8.25C18.3211 8.25 20 9.92893 20 12ZM18.1024 11.1517L16.0512 13.2029C15.9292 13.3249 15.7313 13.3249 15.6093 13.2029L14.557 12.1506C14.4565 12.0501 14.4565 11.8871 14.557 11.7866C14.6575 11.6861 14.8204 11.6861 14.9209 11.7866L15.8014 12.6671L17.7096 10.7588C17.8181 10.6504 17.994 10.6504 18.1024 10.7588C18.2109 10.8673 18.2109 11.0432 18.1024 11.1517Z" fill="white"/></svg>
