<svg width="24" height="24" viewBox="0 0 24 24" fill="none" xmlns="http://www.w3.org/2000/svg"><path fill-rule="evenodd" clip-rule="evenodd" d="M3.11112 4C2.49747 4 2.00001 4.49746 2.00001 5.11111V8.88889C2.00001 9.50254 2.49747 10 3.11112 10H11.3414C11.6525 9.11988 12.1631 8.33402 12.8188 7.69675C12.7212 7.48475 12.6667 7.24874 12.6667 7C12.6667 6.07953 13.4129 5.33333 14.3333 5.33333C14.9347 5.33333 15.4617 5.65185 15.7548 6.12938C16.1565 6.04459 16.5731 6 17 6C17.3407 6 17.6748 6.0284 18 6.08296V5.11111C18 4.49746 17.5026 4 16.8889 4H3.11112ZM4 7C4 6 4.69318 6 5 6H9C9.30682 6 10 6 10 7C10 8 9.30682 8 9 8H5C4.72222 8 4 8 4 7Z" fill="currentColor"/><path fill-rule="evenodd" clip-rule="evenodd" d="M11.083 11C11.0284 11.3252 11 11.6593 11 12C11 14.087 12.0655 15.9251 13.6822 17H3.11112C2.49747 17 2.00001 16.5025 2.00001 15.8889V12.1111C2.00001 11.4975 2.49747 11 3.11112 11H11.083ZM5 13C4.69317 13 4 13 4 14C4 15 4.72222 15 5 15H9C9.30682 15 10 15 10 14C10 13 9.30682 13 9 13H5Z" fill="currentColor"/><path d="M2 19.5C2 19.1932 2.24873 19 2.55556 19H8.88889C8.88889 18.3864 9.38635 17.8889 10 17.8889C10.6136 17.8889 11.1111 18.3864 11.1111 19H17.4444C17.7513 19 18 19.1932 18 19.5C18 19.8068 17.7513 20 17.4444 20H2.55556C2.24873 20 2 19.8068 2 19.5Z" fill="currentColor"/><path fill-rule="evenodd" clip-rule="evenodd" d="M22 12C22 14.7614 19.7614 17 17 17C14.2386 17 12 14.7614 12 12C12 9.23858 14.2386 7 17 7C19.7614 7 22 9.23858 22 12ZM19.4699 10.8689L16.735 13.6039C16.5723 13.7666 16.3084 13.7666 16.1457 13.6039L14.7426 12.2008C14.6086 12.0668 14.6086 11.8495 14.7426 11.7155C14.8766 11.5815 15.0939 11.5815 15.2279 11.7155L16.4018 12.8894L18.9461 10.3451C19.0908 10.2005 19.3253 10.2005 19.4699 10.3451C19.6146 10.4898 19.6146 10.7243 19.4699 10.8689Z" fill="currentColor"/></svg>
