<svg width="36" height="36" viewBox="0 0 36 36" fill="none" xmlns="http://www.w3.org/2000/svg"><path fill-rule="evenodd" clip-rule="evenodd" d="M28 6.3999C28.8836 6.3999 29.6 7.11625 29.6 7.9999L29.6 14.4615C29.6 15.3452 28.8836 16.0615 28 16.0615L25.2894 16.0615L25.2894 19.9382L27.9999 19.9382C28.8835 19.9382 29.5999 20.6546 29.5999 21.5382L29.5999 27.9998C29.5999 28.8835 28.8835 29.5998 27.9999 29.5998L21.5383 29.5998C20.6546 29.5998 19.9383 28.8835 19.9383 27.9998L19.9383 21.5382C19.9383 21.3166 19.9833 21.1054 20.0648 20.9135L15.0862 15.9348C14.8942 16.0163 14.6831 16.0614 14.4614 16.0614L11.6938 16.0614L11.6938 19.9382L14.4614 19.9382C15.3451 19.9382 16.0614 20.6546 16.0614 21.5382L16.0614 27.9997C16.0614 28.8834 15.3451 29.5997 14.4614 29.5997L7.9999 29.5997C7.11624 29.5997 6.3999 28.8834 6.3999 27.9997L6.3999 21.5382C6.3999 20.6546 7.11624 19.9382 7.9999 19.9382L10.4938 19.9382L10.4938 16.0614L7.9999 16.0614C7.11624 16.0614 6.3999 15.3451 6.3999 14.4614L6.3999 7.9999C6.3999 7.11625 7.11624 6.3999 7.9999 6.3999L14.4614 6.3999C15.3451 6.3999 16.0614 7.11625 16.0614 7.9999L16.0614 14.4614C16.0614 14.6831 16.0163 14.8943 15.9348 15.0863L20.9133 20.0649C21.1053 19.9833 21.3165 19.9382 21.5383 19.9382L24.0894 19.9382L24.0894 16.0615L21.5384 16.0615C20.6547 16.0615 19.9384 15.3452 19.9384 14.4615L19.9384 7.9999C19.9384 7.11625 20.6547 6.3999 21.5384 6.3999L28 6.3999ZM24.0894 21.1382L21.5383 21.1382C21.3173 21.1382 21.1383 21.3173 21.1383 21.5382L21.1383 27.9998C21.1383 28.2207 21.3173 28.3998 21.5383 28.3998L27.9999 28.3998C28.2208 28.3998 28.3999 28.2207 28.3999 27.9998L28.3999 21.5382C28.3999 21.3173 28.2208 21.1382 27.9999 21.1382L25.2894 21.1382L25.2894 21.1383L24.0894 21.1383L24.0894 21.1382ZM28.4 7.9999C28.4 7.77899 28.2209 7.5999 28 7.5999L21.5384 7.5999C21.3175 7.5999 21.1384 7.77899 21.1384 7.9999L21.1384 14.4615C21.1384 14.6824 21.3175 14.8615 21.5384 14.8615L28 14.8615C28.2209 14.8615 28.4 14.6824 28.4 14.4615L28.4 7.9999ZM14.8614 7.9999C14.8614 7.77899 14.6823 7.5999 14.4614 7.5999L7.9999 7.5999C7.77898 7.5999 7.5999 7.77899 7.5999 7.9999L7.5999 14.4614C7.5999 14.6823 7.77898 14.8614 7.9999 14.8614L14.4614 14.8614C14.6823 14.8614 14.8614 14.6823 14.8614 14.4614L14.8614 7.9999ZM14.8614 21.5382C14.8614 21.3173 14.6823 21.1382 14.4614 21.1382L7.9999 21.1382C7.77898 21.1382 7.5999 21.3173 7.5999 21.5382L7.5999 27.9997C7.5999 28.2207 7.77898 28.3997 7.9999 28.3997L14.4614 28.3997C14.6823 28.3997 14.8614 28.2207 14.8614 27.9997L14.8614 21.5382Z" fill="currentColor"/></svg>
