<svg xmlns="http://www.w3.org/2000/svg" width="300" height="315" fill="none" viewBox="0 0 300 315"><path fill="#000" fill-opacity=".05" fill-rule="evenodd" d="M150.5 162.749c41.504 0 75.15-34.515 75.15-77.092 0-42.576-33.646-77.091-75.15-77.091-41.504 0-75.15 34.515-75.15 77.091 0 42.577 33.646 77.092 75.15 77.092Zm0 8.566c46.116 0 83.5-38.35 83.5-85.658C234 38.35 196.616 0 150.5 0S67 38.35 67 85.657c0 47.308 37.384 85.658 83.5 85.658Z" clip-rule="evenodd"/><ellipse cx="287.56" cy="292.245" fill="#000" fill-opacity=".02" rx="7.56" ry="7.755"/><ellipse cx="281.629" cy="57.398" fill="#000" fill-opacity=".1" rx="3.629" ry="3.723"/><path fill="#000" fill-opacity=".05" fill-rule="evenodd" d="M46.467 108.135c4.21 0 7.621-3.5 7.621-7.817s-3.412-7.818-7.62-7.818c-4.21 0-7.621 3.5-7.621 7.818 0 4.317 3.412 7.817 7.62 7.817Zm0 .869c4.677 0 8.468-3.889 8.468-8.686 0-4.797-3.791-8.686-8.468-8.686-4.676 0-8.467 3.889-8.467 8.686 0 4.797 3.791 8.686 8.467 8.686Z" clip-rule="evenodd"/><rect width="103" height="6.155" x="187" y="78.296" fill="#000" fill-opacity=".2" opacity=".5" rx="3.078"/><path fill="#000" fill-opacity=".2" d="M0 148.566c0 4.815 3.909 8.719 8.73 8.719h282.54c4.821 0 8.73-3.904 8.73-8.719 0-4.816-3.909-8.72-8.73-8.72H8.73c-4.821 0-8.73 3.904-8.73 8.72Z" opacity=".5"/><g fill="#000" fill-opacity=".1" opacity=".5"><path d="M240 226.826c0-.728.574-1.319 1.282-1.319h41.436c.708 0 1.282.591 1.282 1.319 0 .729-.574 1.319-1.282 1.319h-41.436c-.708 0-1.282-.59-1.282-1.319ZM240 229.464c0-.243.191-.44.427-.44h27.34c.236 0 .427.197.427.44s-.191.44-.427.44h-27.34a.434.434 0 0 1-.427-.44ZM240 231.223c0-.243.191-.44.427-.44h15.379c.236 0 .427.197.427.44a.433.433 0 0 1-.427.439h-15.379a.433.433 0 0 1-.427-.439Z"/></g><g fill="#000" fill-opacity=".1" opacity=".5"><path d="M67 259.136c0-.728-.574-1.319-1.282-1.319H24.282c-.708 0-1.282.591-1.282 1.319 0 .729.574 1.319 1.282 1.319h41.436c.708 0 1.282-.59 1.282-1.319ZM67 261.774a.433.433 0 0 0-.427-.439h-27.34a.433.433 0 0 0-.427.439c0 .243.191.44.427.44h27.34a.434.434 0 0 0 .427-.44ZM67 263.533a.434.434 0 0 0-.427-.44H51.194a.434.434 0 0 0-.427.44c0 .243.191.439.427.439h15.379a.433.433 0 0 0 .427-.439Z"/></g><g filter="url(#a)" shape-rendering="crispEdges"><rect width="200" height="260" x="52.5" y="40" fill="#fff" fill-opacity=".5" rx="50"/><rect width="196" height="256" x="54.5" y="42" stroke="#000" stroke-opacity=".1" stroke-width="4" rx="48"/></g><g fill="#000" fill-opacity=".1" opacity=".5"><path d="M81.5 231.286c0-2.367 1.865-4.286 4.165-4.286h134.67c2.3 0 4.165 1.919 4.165 4.286 0 2.367-1.865 4.285-4.165 4.285H85.665c-2.3 0-4.165-1.918-4.165-4.285ZM81.5 239.857c0-.789.622-1.428 1.388-1.428h88.855c.766 0 1.388.639 1.388 1.428 0 .789-.622 1.429-1.388 1.429H82.888c-.766 0-1.388-.64-1.388-1.429ZM81.5 245.571c0-.789.622-1.428 1.388-1.428h49.981c.767 0 1.388.639 1.388 1.428 0 .789-.621 1.429-1.388 1.429h-49.98c-.767 0-1.389-.64-1.389-1.429Z"/></g><g fill="#000" fill-opacity=".1" opacity=".5"><path d="M81.5 251.857c0-.789.622-1.428 1.388-1.428h128.855c.766 0 1.388.639 1.388 1.428 0 .789-.622 1.429-1.388 1.429H82.888c-.766 0-1.388-.64-1.388-1.429ZM81.5 257.572c0-.789.622-1.429 1.388-1.429h69.981c.767 0 1.388.64 1.388 1.429s-.621 1.428-1.388 1.428h-69.98c-.767 0-1.389-.639-1.389-1.428Z"/></g><path fill="#000" fill-opacity=".3" d="M179.667 148.292c-3.682 0-6.667 2.95-6.667 6.588 0 3.639 2.985 6.589 6.667 6.589s6.667-2.95 6.667-6.589c0-3.638-2.985-6.588-6.667-6.588Z"/><path fill="#000" fill-opacity=".3" fill-rule="evenodd" d="M199.667 100.774v7.987c11.046 0 20 8.849 20 19.765v52.708c0 10.917-8.954 19.766-20 19.766h-93.334c-11.045 0-20-8.849-20-19.766v-63.407c0-9.172 6.385-17.139 15.42-19.24l73.333-17.053c12.554-2.919 24.581 6.495 24.581 19.24Zm-13.333 0c0-4.248-4.009-7.386-8.194-6.413l-61.926 14.4h70.12v-7.987ZM113 121.938c-7.364 0-13.333 5.899-13.333 13.177v39.531c0 7.277 5.969 13.177 13.333 13.177h80c7.364 0 13.334-5.9 13.334-13.177v-6.979a13.334 13.334 0 1 1 0-26.667v-5.885c0-7.278-5.97-13.177-13.334-13.177h-80Z" clip-rule="evenodd"/><path fill="#000" fill-opacity=".7" fill-rule="evenodd" d="M178 194c0 13.807-11.193 25-25 25s-25-11.193-25-25 11.193-25 25-25 25 11.193 25 25Zm-19.108-8.839a2.084 2.084 0 0 1 2.947 2.946L155.946 194l5.893 5.893a2.084 2.084 0 0 1-2.947 2.946L153 196.946l-5.893 5.893a2.084 2.084 0 0 1-2.946-2.946l5.892-5.893-5.892-5.893a2.082 2.082 0 1 1 2.946-2.946l5.893 5.893 5.892-5.893Z" clip-rule="evenodd"/><defs><filter id="a" width="230" height="290" x="37.5" y="25" color-interpolation-filters="sRGB" filterUnits="userSpaceOnUse"><feFlood flood-opacity="0" result="BackgroundImageFix"/><feGaussianBlur in="BackgroundImageFix" stdDeviation="2.5"/><feComposite in2="SourceAlpha" operator="in" result="effect1_backgroundBlur_4821_408699"/><feColorMatrix in="SourceAlpha" result="hardAlpha" values="0 0 0 0 0 0 0 0 0 0 0 0 0 0 0 0 0 0 127 0"/><feOffset/><feGaussianBlur stdDeviation="7.5"/><feComposite in2="hardAlpha" operator="out"/><feColorMatrix values="0 0 0 0 0 0 0 0 0 0 0 0 0 0 0 0 0 0 0.05 0"/><feBlend in2="effect1_backgroundBlur_4821_408699" result="effect2_dropShadow_4821_408699"/><feBlend in="SourceGraphic" in2="effect2_dropShadow_4821_408699" result="shape"/></filter></defs></svg>