<svg width="80" height="80" viewBox="0 0 80 80" fill="none" xmlns="http://www.w3.org/2000/svg"><g clip-path="url(#clip0_1409_2)"><path d="M76 40.5C76 60.1061 58.9868 76 38 76C17.0132 76 0 60.1061 0 40.5C0 20.8939 17.0132 5 38 5C58.9868 5 76 20.8939 76 40.5Z" fill="white"/><path d="M40.1166 0C62.2211 0 80.1403 17.9086 80.1403 40C80.1403 62.0914 62.2211 80 40.1166 80C21.3623 80 5.62125 67.1098 1.2798 49.7109C6.47215 49.6309 9.49525 47.1943 9.49525 43.449C9.49525 40.3862 7.39815 38.6261 3.56665 37.9753L3.26918 37.9279L1.04361 37.5901L0.673999 37.5249C0.499077 37.4923 0.332064 37.4577 0.172953 37.4192C0.23719 36.4325 0.336013 35.4567 0.46844 34.4917C0.762943 34.4453 1.09302 34.4206 1.45967 34.4206C3.35714 34.5055 5.22002 34.953 6.9475 35.7382L7.3438 35.9248L9.02384 32.0601C6.77554 30.9213 4.295 30.3217 1.77888 30.3049L1.27487 30.3079C5.61038 12.9001 21.3554 0 40.1166 0ZM40.9557 30.2832L40.6888 30.2891L40.425 30.2921C35.4421 30.4215 31.4891 34.2092 31.4891 40C31.4891 45.7908 35.4421 49.5785 40.425 49.7079L40.6888 49.7109C42.7355 49.7918 44.7022 48.9385 46.0413 47.4027L46.2132 47.1982V49.2358L51.0715 49.2348V30.784H46.2132V32.8215C44.9374 31.2136 42.9984 30.2822 40.9557 30.2832ZM22.3595 30.2832L21.7537 30.2911C16.0326 30.4274 12.2219 34.5134 12.2219 39.998C12.2219 45.4826 16.0316 49.5686 21.7537 49.7049L22.3595 49.7128C25.0248 49.701 27.5518 48.5197 29.2694 46.4831L29.4641 46.2441L25.9202 43.2169C24.9072 44.3823 23.4456 45.0619 21.9009 45.0846C19.3295 45.0846 17.2907 43.0855 17.2907 40.001C17.2907 36.9362 19.3512 34.9174 21.9207 34.9174C23.3606 34.9115 24.7313 35.5159 25.6969 36.5728L25.8639 36.7644L29.4453 33.7747C27.7455 31.5761 25.1276 30.2921 22.3595 30.2832ZM61.051 32.7485L60.9008 32.9579V30.785H56.0583V49.2358H61.0303V39.1249C61.0303 36.3258 62.8022 34.9549 64.9359 34.9549C67.1506 34.9549 68.4531 36.313 68.5332 38.8385L68.5371 39.0864V49.2417H73.5101V37.4883C73.603 35.5564 72.8776 33.6749 71.5118 32.305C70.145 30.9351 68.2644 30.2042 66.3313 30.2911C64.2649 30.1756 62.2844 31.102 61.051 32.7485ZM0.140336 41.9754L1.40235 42.1522C3.55084 42.4564 4.46597 42.9512 4.46597 43.846C4.46597 44.89 3.44114 45.53 1.30649 45.5754L0.682896 45.5824L0.478325 45.5784C0.313285 44.3922 0.199632 43.1912 0.140336 41.9754ZM41.4705 34.9174C44.1517 34.9174 46.3348 37.0715 46.3694 39.7501C46.403 42.4297 44.2762 44.6391 41.596 44.7073C38.9159 44.7764 36.6784 42.6786 36.5757 40.001C36.5124 38.6676 37.0006 37.3678 37.9276 36.4058C38.8536 35.4438 40.1344 34.9056 41.4705 34.9174Z" fill="#FF6482"/></g><defs><clipPath id="clip0_1409_2"><rect width="80" height="80" fill="white"/></clipPath></defs></svg>
