<svg width="24" height="24" viewBox="0 0 24 24" fill="none" xmlns="http://www.w3.org/2000/svg"><path d="M10.25 9.375H9.375V10.25H10.25V9.375Z" fill="currentColor"/><path d="M10.25 13.75H9.375V14.625H10.25V13.75Z" fill="currentColor"/><path d="M14.625 9.375H13.75V10.25H14.625V9.375Z" fill="currentColor"/><path fill-rule="evenodd" clip-rule="evenodd" d="M12 24C18.6274 24 24 18.6274 24 12C24 5.37258 18.6274 0 12 0C5.37258 0 0 5.37258 0 12C0 18.6274 5.37258 24 12 24ZM6 5C5.44772 5 5 5.44772 5 6V8.5C5 8.98325 5.39175 9.375 5.875 9.375C6.35825 9.375 6.75 8.98325 6.75 8.5V7.75C6.75 7.19772 7.19772 6.75 7.75 6.75H8.5C8.98325 6.75 9.375 6.35825 9.375 5.875C9.375 5.39175 8.98325 5 8.5 5H6ZM9.375 18.125C9.375 18.6082 8.98325 19 8.5 19H6C5.44772 19 5 18.5523 5 18V15.5C5 15.0168 5.39175 14.625 5.875 14.625C6.35825 14.625 6.75 15.0168 6.75 15.5V16.25C6.75 16.8023 7.19772 17.25 7.75 17.25H8.5C8.98325 17.25 9.375 17.6418 9.375 18.125ZM18 5C18.5523 5 19 5.44772 19 6V8.5C19 8.98325 18.6082 9.375 18.125 9.375C17.6418 9.375 17.25 8.98325 17.25 8.5V7.75C17.25 7.19772 16.8023 6.75 16.25 6.75H15.5C15.0168 6.75 14.625 6.35825 14.625 5.875C14.625 5.39175 15.0168 5 15.5 5H18ZM18 19C18.5523 19 19 18.5523 19 18V15.5C19 15.0168 18.6082 14.625 18.125 14.625C17.6418 14.625 17.25 15.0168 17.25 15.5V16.25C17.25 16.8023 16.8023 17.25 16.25 17.25H15.5C15.0168 17.25 14.625 17.6418 14.625 18.125C14.625 18.6082 15.0168 19 15.5 19H18ZM8.5 8.5V11.125H11.125V8.5H8.5ZM11.125 12.875H8.5V15.5H11.125V12.875ZM12.875 8.5V11.125H15.5V8.5H12.875ZM12.875 12.875H13.75V13.75H12.875V12.875ZM14.625 13.75V15.5H12.875V14.625H13.75V13.75H14.625ZM14.625 13.75V12.875H15.5V13.75H14.625Z" fill="currentColor"/></svg>
