<svg width="24" height="24" viewBox="0 0 24 24" fill="none" xmlns="http://www.w3.org/2000/svg"><path fill-rule="evenodd" clip-rule="evenodd" d="M12 23C18.0751 23 23 18.0751 23 12C23 5.92487 18.0751 1 12 1C5.92487 1 1 5.92487 1 12C1 18.0751 5.92487 23 12 23ZM12 24C18.6274 24 24 18.6274 24 12C24 5.37258 18.6274 0 12 0C5.37258 0 0 5.37258 0 12C0 18.6274 5.37258 24 12 24Z" fill="currentColor"/><path d="M5 6C5 5.44772 5.44772 5 6 5H8.5C8.98325 5 9.375 5.39175 9.375 5.875C9.375 6.35825 8.98325 6.75 8.5 6.75H7.75C7.19772 6.75 6.75 7.19772 6.75 7.75V8.5C6.75 8.98325 6.35825 9.375 5.875 9.375C5.39175 9.375 5 8.98325 5 8.5V6Z" fill="currentColor"/><path d="M8.5 19C8.98325 19 9.375 18.6082 9.375 18.125C9.375 17.6418 8.98325 17.25 8.5 17.25H7.75C7.19772 17.25 6.75 16.8023 6.75 16.25V15.5C6.75 15.0168 6.35825 14.625 5.875 14.625C5.39175 14.625 5 15.0168 5 15.5V18C5 18.5523 5.44772 19 6 19H8.5Z" fill="currentColor"/><path d="M18 5C18.5523 5 19 5.44772 19 6V8.5C19 8.98325 18.6082 9.375 18.125 9.375C17.6418 9.375 17.25 8.98325 17.25 8.5V7.75C17.25 7.19772 16.8023 6.75 16.25 6.75H15.5C15.0168 6.75 14.625 6.35825 14.625 5.875C14.625 5.39175 15.0168 5 15.5 5H18Z" fill="currentColor"/><path d="M19 18C19 18.5523 18.5523 19 18 19H15.5C15.0168 19 14.625 18.6082 14.625 18.125C14.625 17.6418 15.0168 17.25 15.5 17.25H16.25C16.8023 17.25 17.25 16.8023 17.25 16.25V15.5C17.25 15.0168 17.6418 14.625 18.125 14.625C18.6082 14.625 19 15.0168 19 15.5V18Z" fill="currentColor"/><path fill-rule="evenodd" clip-rule="evenodd" d="M8.5 8.5V11.125H11.125V8.5H8.5ZM10.25 9.375H9.375V10.25H10.25V9.375Z" fill="currentColor"/><path fill-rule="evenodd" clip-rule="evenodd" d="M8.5 12.875H11.125V15.5H8.5V12.875ZM9.375 13.75H10.25V14.625H9.375V13.75Z" fill="currentColor"/><path fill-rule="evenodd" clip-rule="evenodd" d="M12.875 8.5V11.125H15.5V8.5H12.875ZM14.625 9.375H13.75V10.25H14.625V9.375Z" fill="currentColor"/><path d="M13.75 12.875H12.875V13.75H13.75V14.625H12.875V15.5H14.625V13.75H15.5V12.875H14.625V13.75H13.75V12.875Z" fill="currentColor"/></svg>
