<svg width="20" height="20" viewBox="0 0 20 20" fill="none" xmlns="http://www.w3.org/2000/svg">
<path fill-rule="evenodd" clip-rule="evenodd" d="M10 1C7.71794 1 5.62223 1.46122 4.07484 2.23491C2.59815 2.97326 1.45378 4.09274 1.40186 5.5H1.40002V5.59997V8.23645C1.40002 9.76393 2.52683 11.0147 4.05586 11.8488C5.47103 12.6207 7.34447 13.1086 9.40013 13.1885V15.9665L7.87484 14.7463C7.61608 14.5393 7.2385 14.5812 7.0315 14.84C6.8245 15.0988 6.86646 15.4763 7.12522 15.6833L9.62532 17.6833C9.84445 17.8586 10.1558 17.8586 10.3749 17.6833L12.8749 15.6833C13.1337 15.4763 13.1756 15.0988 12.9686 14.84C12.7616 14.5812 12.384 14.5393 12.1253 14.7463L10.6001 15.9664V13.1885C12.6557 13.1086 14.5291 12.6207 15.9442 11.8488C17.4732 11.0147 18.6 9.76393 18.6 8.23645V5.59997V5.5H18.5982C18.5463 4.09274 17.4019 2.97325 15.9252 2.23491C14.3778 1.46122 12.2821 1 10 1ZM10.012 12.0001C12.1357 11.9983 14.0284 11.5269 15.3696 10.7953C16.736 10.05 17.4 9.11894 17.4 8.23645V7.98411C16.981 8.36094 16.4762 8.68954 15.9252 8.96507C14.3778 9.73877 12.2821 10.2 10 10.2C7.71793 10.2 5.62223 9.73877 4.07484 8.96507C3.52379 8.68954 3.01902 8.36094 2.60002 7.98412V8.23645C2.60002 9.11894 3.26408 10.05 4.63048 10.7953C5.97171 11.5269 7.8645 11.9984 9.98825 12.0001C9.9922 12 9.99616 12 10.0001 12C10.0041 12 10.0081 12 10.012 12.0001ZM17.4 5.59997C17.4 4.84512 16.7725 4.00019 15.3885 3.30823C14.0405 2.63421 12.1362 2.2 10 2.2C7.86383 2.2 5.95954 2.63421 4.6115 3.30823C3.22756 4.00019 2.60002 4.84512 2.60002 5.59997C2.60002 6.35485 3.22757 7.19979 4.6115 7.89176C5.95954 8.56579 7.86384 9 10 9C12.1362 9 14.0405 8.56579 15.3885 7.89176C16.7725 7.19978 17.4 6.35485 17.4 5.59997ZM3.50003 18.6001C3.50003 18.324 3.72389 18.1001 4.00003 18.1001H16C16.2762 18.1001 16.5 18.324 16.5 18.6001C16.5 18.8762 16.2762 19.1001 16 19.1001H4.00003C3.72389 19.1001 3.50003 18.8762 3.50003 18.6001Z" fill="currentColor"/>
</svg>
