<svg width="45" height="45" viewBox="0 0 45 45" fill="none" xmlns="http://www.w3.org/2000/svg">
<g id="receive-arrow">
<path id="Union" fill-rule="evenodd" clip-rule="evenodd" d="M22.065 20.458C21.3642 20.458 20.796 19.8899 20.796 19.189V12.0219C16.7952 12.176 13.2496 13.0509 10.6683 14.3415C7.74124 15.805 6.41399 17.592 6.41399 19.1886C6.41399 20.7851 7.74126 22.5722 10.6683 24.0357C13.5194 25.4613 17.547 26.3796 22.0651 26.3796C26.5831 26.3796 30.6107 25.4613 33.4619 24.0357C36.3889 22.5722 37.7162 20.7851 37.7162 19.1886C37.7162 17.592 36.3889 15.805 33.4619 14.3415C30.8806 13.0509 27.3349 12.176 23.334 12.0219V19.189C23.334 19.8899 22.7659 20.458 22.065 20.458ZM23.334 4.9093V9.48221C27.6655 9.63704 31.6132 10.5796 34.5969 12.0714C37.7937 13.6698 40.2542 16.1128 40.2542 19.1886C40.2542 19.4762 40.2327 19.7582 40.1911 20.0346H40.2542V24.7647C40.2542 27.9953 37.871 30.6408 34.6371 32.4048C31.644 34.0373 27.6818 35.0693 23.3342 35.2383V39.8133L26.5599 37.2327C27.1072 36.7949 27.9058 36.8836 28.3436 37.4309C28.7814 37.9782 28.6927 38.7767 28.1454 39.2146L22.8579 43.4446C22.3945 43.8153 21.7359 43.8154 21.2725 43.4446L15.9849 39.2146C15.4376 38.7768 15.3489 37.9782 15.7867 37.4309C16.2245 36.8836 17.0231 36.7949 17.5703 37.2327L20.7962 39.8134V35.2383C16.4485 35.0693 12.4862 34.0374 9.4931 32.4048C6.25918 30.6408 3.87598 27.9953 3.87598 24.7647V20.0346H3.93911C3.89749 19.7582 3.87598 19.4762 3.87598 19.1886C3.87598 16.1128 6.33642 13.6698 9.53326 12.0714C12.517 10.5796 16.4646 9.63706 20.796 9.48221V4.90934L17.5703 7.48993C17.023 7.92775 16.2244 7.83902 15.7866 7.29175C15.3488 6.74448 15.4375 5.94591 15.9848 5.50809L21.2723 1.27808C21.7357 0.907309 22.3943 0.907305 22.8577 1.27807L28.1453 5.50808C28.6926 5.9459 28.7814 6.74447 28.3435 7.29174C27.9057 7.83902 27.1071 7.92775 26.5599 7.48994L23.334 4.9093ZM22.0902 32.7249C22.0819 32.7247 22.0736 32.7246 22.0652 32.7246C22.0568 32.7246 22.0485 32.7247 22.0401 32.7249C17.5484 32.7212 13.5452 31.724 10.7084 30.1767C7.81849 28.6003 6.41399 26.6312 6.41399 24.7647V24.231C7.30017 25.028 8.36777 25.723 9.53325 26.3057C12.806 27.9421 17.2384 28.9176 22.0651 28.9176C26.8917 28.9176 31.3242 27.9421 34.5969 26.3057C35.7624 25.723 36.83 25.028 37.7162 24.231V24.7647C37.7162 26.6312 36.3117 28.6003 33.4217 30.1767C30.585 31.724 26.5819 32.7212 22.0902 32.7249Z" fill="currentColor"/>
</g>
</svg>
