<svg width="16" height="16" viewBox="0 0 16 16" fill="none" xmlns="http://www.w3.org/2000/svg"><path fill-rule="evenodd" clip-rule="evenodd" d="M6.9999 1.3999C3.96853 1.3999 1.3999 3.96853 1.3999 6.9999C1.3999 10.0234 3.86076 12.5999 6.9999 12.5999C8.33942 12.5999 9.55543 12.1308 10.5094 11.358L13.5756 14.4242C13.81 14.6585 14.1899 14.6585 14.4242 14.4242C14.6585 14.1898 14.6585 13.8099 14.4242 13.5756L11.3566 10.508C12.137 9.53857 12.5999 8.31129 12.5999 6.9999C12.5999 3.96853 10.0313 1.3999 6.9999 1.3999ZM2.5999 6.9999C2.5999 4.63127 4.63127 2.5999 6.9999 2.5999C9.36853 2.5999 11.3999 4.63127 11.3999 6.9999C11.3999 9.37636 9.46076 11.3999 6.9999 11.3999C4.53905 11.3999 2.5999 9.37636 2.5999 6.9999Z" fill="currentColor"/></svg>
