<svg width="20" height="20" viewBox="0 0 20 20" fill="none" xmlns="http://www.w3.org/2000/svg">
<path fill-rule="evenodd" clip-rule="evenodd" d="M2.60002 9.9999C2.60002 5.913 5.91312 2.5999 10 2.5999C14.0869 2.5999 17.4 5.913 17.4 9.9999C17.4 14.0868 14.0869 17.3999 10 17.3999C5.91312 17.3999 2.60002 14.0868 2.60002 9.9999ZM10 1.3999C5.25038 1.3999 1.40002 5.25025 1.40002 9.9999C1.40002 14.7496 5.25038 18.5999 10 18.5999C14.7497 18.5999 18.6 14.7496 18.6 9.9999C18.6 5.25025 14.7497 1.3999 10 1.3999ZM14.3145 7.49217C14.5244 7.2357 14.4866 6.85769 14.2301 6.64785C13.9736 6.43801 13.5956 6.47582 13.3858 6.73228L9.41022 11.5913L6.49862 9.51159C6.22898 9.31898 5.85425 9.38144 5.66164 9.65109C5.46904 9.92073 5.53149 10.2955 5.80114 10.4881L9.17001 12.8944C9.42726 13.0782 9.78294 13.0308 9.98313 12.7861L14.3145 7.49217Z" fill="currentColor"/>
</svg>
