<svg width="16" height="17" viewBox="0 0 16 17" fill="none" xmlns="http://www.w3.org/2000/svg">
    <path fill-rule="evenodd" clip-rule="evenodd" d="M4.77745 2.00001C5.11475 2.00001 5.38818 2.27348 5.38818 2.61081V11.9517L7.52025 9.89556C7.76305 9.6614 8.14968 9.66843 8.38381 9.91126C8.61793 10.1541 8.6109 10.5408 8.3681 10.7749L5.20138 13.8289C4.9648 14.057 4.59011 14.057 4.35353 13.8289L1.1868 10.7749C0.944 10.5408 0.936971 10.1541 1.1711 9.91126C1.40523 9.66843 1.79185 9.6614 2.03465 9.89556L4.16673 11.9517V2.61081C4.16673 2.27348 4.44016 2.00001 4.77745 2.00001Z" fill="#C3C3CB"/>
    <path fill-rule="evenodd" clip-rule="evenodd" d="M11.2225 14C10.8853 14 10.6118 13.7265 10.6118 13.3892V4.04828L8.47975 6.10444C8.23695 6.3386 7.85032 6.33157 7.6162 6.08874C7.38207 5.84591 7.3891 5.45924 7.6319 5.22509L10.7986 2.17112C11.0352 1.94296 11.4099 1.94296 11.6465 2.17112L14.8132 5.22509C15.056 5.45924 15.063 5.84591 14.8289 6.08874C14.5948 6.33157 14.2081 6.3386 13.9653 6.10444L11.8333 4.04828L11.8333 13.3892C11.8333 13.7265 11.5598 14 11.2225 14Z" fill="#C3C3CB"/>
</svg>
