<svg width="36" height="36" viewBox="0 0 36 36" fill="none" xmlns="http://www.w3.org/2000/svg"><path fill-rule="evenodd" clip-rule="evenodd" d="M32 18C32 25.732 25.732 32 18 32C10.268 32 4 25.732 4 18C4 10.268 10.268 4 18 4C25.732 4 32 10.268 32 18ZM18.5017 14.3354C17.14 14.9018 14.4185 16.074 10.3372 17.8522C9.67444 18.1157 9.32726 18.3736 9.29566 18.6257C9.24225 19.0517 9.7758 19.2195 10.5024 19.448C10.6012 19.479 10.7036 19.5112 10.8086 19.5453C11.5234 19.7777 12.4849 20.0495 12.9848 20.0603C13.4382 20.0701 13.9443 19.8832 14.503 19.4995C18.3163 16.9255 20.2847 15.6244 20.4083 15.5964C20.4955 15.5766 20.6163 15.5517 20.6982 15.6245C20.7801 15.6972 20.772 15.835 20.7633 15.872C20.7105 16.0973 18.6161 18.0444 17.5323 19.0521C17.1944 19.3662 16.9547 19.589 16.9057 19.6399C16.796 19.7539 16.6841 19.8617 16.5766 19.9653C15.9125 20.6055 15.4145 21.0856 16.6042 21.8696C17.1759 22.2463 17.6333 22.5578 18.0897 22.8686C18.5882 23.2081 19.0853 23.5466 19.7285 23.9683C19.8924 24.0757 20.0489 24.1873 20.2013 24.2959C20.7814 24.7094 21.3025 25.081 21.9463 25.0217C22.3204 24.9873 22.7068 24.6355 22.9031 23.5864C23.3669 21.107 24.2785 15.7348 24.4892 13.5211C24.5077 13.3272 24.4845 13.0789 24.4658 12.97C24.4472 12.861 24.4082 12.7058 24.2666 12.5908C24.0988 12.4547 23.8399 12.426 23.7241 12.4281C23.1975 12.4373 22.3896 12.7183 18.5017 14.3354Z" fill="currentColor"/></svg>
