<svg width="24" height="24" viewBox="0 0 24 24" fill="none" xmlns="http://www.w3.org/2000/svg">
<path d="M12.0045 1C9.38342 0.998769 6.83398 1.82957 4.74591 3.36544C2.65783 4.9013 1.14601 7.05773 0.441514 9.5051C-0.262975 11.9525 -0.121374 14.5562 0.844676 16.9181C1.81073 19.2801 3.54808 21.2705 5.79117 22.585C6.24767 22.8536 6.77142 22.9955 7.30539 22.9955H7.34451C7.73466 22.9976 8.12134 22.9246 8.48219 22.7809C8.84306 22.6371 9.1709 22.4253 9.44678 22.1579C9.72265 21.8905 9.94107 21.5726 10.0894 21.2229C10.2377 20.873 10.313 20.4982 10.3108 20.12V14.8218C10.3102 14.7924 10.2979 14.7644 10.2765 14.7437C10.255 14.7229 10.2261 14.7109 10.1958 14.7104H8.39158C8.16467 14.7185 7.93839 14.6822 7.7263 14.6036C7.51419 14.525 7.3206 14.4058 7.1571 14.2531C6.9936 14.1003 6.86356 13.9173 6.77474 13.7147C6.68591 13.5121 6.64013 13.2942 6.64013 13.0741C6.64013 12.8539 6.68591 12.6362 6.77474 12.4336C6.86356 12.231 6.9936 12.0479 7.1571 11.8951C7.3206 11.7424 7.51419 11.6231 7.7263 11.5446C7.93839 11.466 8.16467 11.4297 8.39158 11.4378H15.606C15.8329 11.4297 16.0592 11.466 16.2713 11.5446C16.4834 11.6231 16.677 11.7424 16.8405 11.8951C17.004 12.0479 17.1341 12.231 17.2228 12.4336C17.3116 12.6362 17.3574 12.8539 17.3574 13.0741C17.3574 13.2942 17.3116 13.5121 17.2228 13.7147C17.1341 13.9173 17.004 14.1003 16.8405 14.2531C16.677 14.4058 16.4834 14.525 16.2713 14.6036C16.0592 14.6822 15.8329 14.7185 15.606 14.7104H13.8064C13.776 14.7109 13.7471 14.7229 13.7258 14.7437C13.7043 14.7644 13.6919 14.7924 13.6913 14.8218V20.12C13.6969 20.883 14.0122 21.6131 14.5691 22.1521C15.1261 22.6913 15.8798 22.9958 16.6669 23H16.706C17.2408 22.9997 17.7651 22.8552 18.2202 22.5828C20.46 21.2669 22.1942 19.2767 23.158 16.9162C24.1217 14.5555 24.2623 11.954 23.5583 9.50866C22.8541 7.06332 21.344 4.90849 19.2583 3.37298C17.1726 1.83748 14.6259 1.00565 12.0068 1.00447L12.0045 1ZM3.48992 14.9334C3.11014 14.9339 2.73875 14.8251 2.42278 14.6209C2.1068 14.4166 1.86046 14.126 1.7149 13.786C1.56936 13.446 1.53115 13.0717 1.60514 12.7105C1.67912 12.3495 1.86197 12.0178 2.13051 11.7574C2.39906 11.4971 2.74125 11.3199 3.11376 11.2482C3.48627 11.1764 3.87235 11.2135 4.22314 11.3546C4.57393 11.4956 4.87366 11.7345 5.08437 12.0407C5.29508 12.347 5.40732 12.707 5.40686 13.0752C5.40566 13.5661 5.20458 14.0367 4.84732 14.3847C4.49008 14.7327 4.00555 14.9299 3.49912 14.9334H3.48992ZM12.0045 9.39666C11.4155 9.3971 10.8395 9.22818 10.3495 8.91127C9.85954 8.59435 9.4775 8.14365 9.25176 7.61623C9.02603 7.0888 8.96673 6.50833 9.08137 5.94823C9.196 5.38813 9.47943 4.87359 9.89579 4.46966C10.3122 4.06574 10.8428 3.79059 11.4205 3.67904C11.9982 3.56748 12.597 3.62449 13.1413 3.8429C13.6856 4.06133 14.1507 4.43132 14.4781 4.90607C14.8053 5.38082 14.9801 5.93899 14.9801 6.51002C14.9752 7.27336 14.6602 8.00408 14.1031 8.54364C13.5461 9.0832 12.792 9.38809 12.0045 9.39219V9.39666ZM20.4847 14.9334C20.105 14.9334 19.7338 14.8243 19.4182 14.6197C19.1024 14.4152 18.8565 14.1245 18.7112 13.7845C18.5661 13.4444 18.5282 13.0702 18.6024 12.7092C18.6767 12.3482 18.8598 12.0168 19.1284 11.7566C19.397 11.4965 19.7392 11.3195 20.1116 11.248C20.4841 11.1765 20.8701 11.2136 21.2208 11.3548C21.5714 11.4959 21.871 11.7347 22.0815 12.041C22.2922 12.3472 22.4043 12.7072 22.4039 13.0752C22.4027 13.5681 22.2 14.0404 21.8403 14.3887C21.4805 14.737 20.9931 14.9329 20.4847 14.9334Z" fill="#0A0A0A"/>
</svg>
