<svg width="36" height="36" viewBox="0 0 36 36" fill="none" xmlns="http://www.w3.org/2000/svg">
  <path fill-rule="evenodd" clip-rule="evenodd" d="M18 29.5051C24.3541 29.5051 29.5052 24.3541 29.5052 18C29.5052 11.6459 24.3541 6.49484 18 6.49484C11.6459 6.49484 6.49487 11.6459 6.49487 18C6.49487 24.3541 11.6459 29.5051 18 29.5051ZM18 31.0051C25.1826 31.0051 31.0052 25.1825 31.0052 18C31.0052 10.8174 25.1826 4.99484 18 4.99484C10.8175 4.99484 4.99487 10.8174 4.99487 18C4.99487 25.1825 10.8175 31.0051 18 31.0051ZM23.3489 17.9091L18.5759 22.6821C18.283 22.975 17.8081 22.975 17.5152 22.6821L12.7423 17.9091C12.4494 17.6162 12.4494 17.1413 12.7423 16.8484C13.0352 16.5555 13.51 16.5555 13.8029 16.8484L17.2956 20.3411V10.6129C17.2956 10.1987 17.6314 9.86295 18.0456 9.86295C18.4598 9.86295 18.7956 10.1987 18.7956 10.6129V20.3411L22.2882 16.8484C22.5811 16.5555 23.056 16.5555 23.3489 16.8484C23.6418 17.1413 23.6418 17.6162 23.3489 17.9091ZM12.0574 24.0626C11.6432 24.0626 11.3074 24.3984 11.3074 24.8126C11.3074 25.2268 11.6432 25.5626 12.0574 25.5626H23.9426C24.3568 25.5626 24.6926 25.2268 24.6926 24.8126C24.6926 24.3984 24.3568 24.0626 23.9426 24.0626H12.0574Z" fill="currentColor"/>
</svg>
