<svg width="16" height="16" viewBox="0 0 16 16" fill="none" xmlns="http://www.w3.org/2000/svg">
<g clip-path="url(#clip0_4646_6532)">
<path fill-rule="evenodd" clip-rule="evenodd" d="M7.99951 16C12.4178 16 15.9995 12.4183 15.9995 8C15.9995 3.58172 12.4178 0 7.99951 0C3.58123 0 -0.000488281 3.58172 -0.000488281 8C-0.000488281 12.4183 3.58123 16 7.99951 16ZM9.15846 9.38303C9.15846 8.73945 9.56047 8.17808 9.96186 7.67499C10.3014 7.2494 10.5044 6.71002 10.5044 6.12324C10.5044 4.74805 9.3896 3.63325 8.01441 3.63325C6.63924 3.63325 5.52445 4.74805 5.52445 6.12324C5.52445 6.71002 5.72742 7.2494 6.06699 7.67499C6.46837 8.17808 6.87038 8.73945 6.87038 9.38303V11.4621C6.87038 12.094 7.38257 12.6062 8.01441 12.6062C8.64624 12.6062 9.15846 12.094 9.15846 11.4621V9.38303Z" fill="currentColor"/>
</g>
<defs>
<clipPath id="clip0_4646_6532">
<rect x="-0.000488281" width="16" height="16" rx="8" fill="currentColor"/>
</clipPath>
</defs>
</svg>
