<svg width="56" height="56" viewBox="0 0 56 56" fill="none" xmlns="http://www.w3.org/2000/svg">
  <rect width="56" height="56" rx="12" fill="#EC007D"/>
  <g id="polkadot-vault-ill-56">
    <path id="Vector" fill-rule="evenodd" clip-rule="evenodd" d="M28 45.7939C37.8273 45.7939 45.7939 37.8273 45.7939 28C45.7939 18.1727 37.8273 10.2061 28 10.2061C18.1727 10.2061 10.2061 18.1727 10.2061 28C10.2061 37.8273 18.1727 45.7939 28 45.7939ZM32.5958 27.3812C31.6593 28.5549 30.7214 29.8646 30.7214 31.3661V36.2166C30.7214 37.6908 29.5264 38.8857 28.0523 38.8857C26.5782 38.8857 25.3833 37.6908 25.3833 36.2166V31.3661C25.3833 29.8646 24.4454 28.5549 23.5089 27.3812C22.7167 26.3882 22.2432 25.1299 22.2432 23.7609C22.2432 20.5525 24.844 17.9517 28.0523 17.9517C31.2607 17.9517 33.8615 20.5525 33.8615 23.7609C33.8615 25.1299 33.388 26.3882 32.5958 27.3812Z" fill="white"/>
  </g>
</svg>
