<svg width="16" height="16" viewBox="0 0 16 16" fill="none" xmlns="http://www.w3.org/2000/svg">
<g clip-path="url(#clip0_4646_6530)">
<path fill-rule="evenodd" clip-rule="evenodd" d="M7.95237 16C12.3967 16 15.9995 12.3972 15.9995 7.95292C15.9995 3.50863 12.3967 -0.0941772 7.95237 -0.0941772C3.50808 -0.0941772 -0.0947266 3.50863 -0.0947266 7.95292C-0.0947266 12.3972 3.50808 16 7.95237 16ZM11.5475 5.75678C9.58801 3.83831 6.41112 3.83831 4.45167 5.75678L4.19284 6.0102C4.09484 6.10613 4.09484 6.26164 4.19284 6.35758L4.99953 7.14741C5.04853 7.19537 5.12795 7.19537 5.17692 7.14741L5.52446 6.80716C6.89143 5.46877 9.10771 5.46877 10.4747 6.80716L10.7992 7.12488C10.8482 7.17284 10.9276 7.17284 10.9766 7.12488L11.7833 6.33505C11.8813 6.23912 11.8813 6.0836 11.7833 5.98767L11.5475 5.75678ZM13.9338 8.09318L13.2158 7.39025C13.1179 7.29431 12.959 7.29431 12.861 7.39025L10.5634 9.63985C10.5389 9.66385 10.4991 9.66385 10.4746 9.63985L8.17692 7.39019C8.07895 7.29428 7.92009 7.29428 7.82212 7.39019L5.52452 9.63985C5.50002 9.66385 5.46031 9.66385 5.43584 9.63985L3.1381 7.39019C3.04013 7.29428 2.88128 7.29428 2.78331 7.39019L2.06534 8.09315C1.96737 8.18909 1.96737 8.3446 2.06534 8.44053L5.3028 11.6103C5.40077 11.7062 5.55963 11.7062 5.6576 11.6103L7.95523 9.36065C7.97973 9.33665 8.01944 9.33665 8.04394 9.36065L10.3416 11.6103C10.4396 11.7062 10.5985 11.7062 10.6964 11.6103L13.9338 8.44056C14.0318 8.34463 14.0318 8.18912 13.9338 8.09318Z" fill="currentColor"/>
</g>
<defs>
<clipPath id="clip0_4646_6530">
<rect x="-0.000488281" width="16" height="16" rx="8" fill="currentColor"/>
</clipPath>
</defs>
</svg>
