<svg width="24" height="24" viewBox="0 0 24 24" fill="none" xmlns="http://www.w3.org/2000/svg"><path fill-rule="evenodd" clip-rule="evenodd" d="M13.67 1.97309L23.7733 20.2727C23.9289 20.5546 24.0069 20.871 23.9995 21.1911C23.9922 21.5111 23.8999 21.8239 23.7315 22.0987C23.5632 22.3735 23.3246 22.6011 23.0391 22.759C22.7536 22.917 22.431 23 22.1027 23H1.8943C1.56631 22.9995 1.24404 22.9162 0.95896 22.758C0.673877 22.5998 0.435715 22.3722 0.267722 22.0975C0.0997284 21.8227 0.00764364 21.5102 0.000455694 21.1904C-0.00673225 20.8705 0.0712221 20.5544 0.22671 20.2727L10.3294 1.97309C11.0462 0.675637 12.9538 0.675637 13.67 1.97309ZM11.9846 7.05211H11.9969C12.1953 7.05202 12.3917 7.09113 12.5742 7.16707C12.7567 7.24303 12.9215 7.35425 13.0587 7.49404C13.1959 7.63383 13.3026 7.79928 13.3725 7.98041C13.44 8.15556 13.452 8.30326 13.44 8.49053L13.1273 15.5949C13.1261 15.8852 13.0074 16.1634 12.7968 16.3688C12.5851 16.5753 12.2981 16.6912 11.9988 16.6912C11.6995 16.6912 11.4125 16.5753 11.2008 16.3688C10.9902 16.1634 10.8715 15.8852 10.8703 15.5949L10.5302 8.54783C10.5215 8.3558 10.5525 8.16353 10.6214 7.98343C10.6903 7.80334 10.7957 7.63862 10.9312 7.49909C11.0668 7.35956 11.2297 7.24807 11.4104 7.17128C11.5911 7.09449 11.7858 7.05397 11.9828 7.05212L11.9846 7.05211ZM11.7336 17.7042C11.9985 17.6528 12.2731 17.6792 12.5226 17.78C12.7721 17.8808 12.9854 18.0515 13.1355 18.2706C13.2855 18.4896 13.3656 18.7471 13.3656 19.0105C13.3656 19.1854 13.3303 19.3586 13.2617 19.5202C13.193 19.6818 13.0924 19.8287 12.9656 19.9524C12.8388 20.076 12.6883 20.1741 12.5226 20.2411C12.3569 20.308 12.1793 20.3425 12 20.3425C11.7299 20.3425 11.4659 20.2644 11.2413 20.118C11.0167 19.9716 10.8417 19.7636 10.7383 19.5202C10.6349 19.2769 10.6079 19.0091 10.6606 18.7507C10.7133 18.4923 10.8434 18.255 11.0343 18.0687C11.2253 17.8824 11.4687 17.7556 11.7336 17.7042Z" fill="currentColor"/></svg>
