<svg width="16" height="16" viewBox="0 0 16 16" fill="none" xmlns="http://www.w3.org/2000/svg">
  <path fill-rule="evenodd" clip-rule="evenodd" d="M8.40252 2.19387C8.22992 1.87332 7.77012 1.87332 7.59752 2.19387L1.5109 13.4976C1.3469 13.8021 1.56749 14.1714 1.9134 14.1714H14.0866C14.4325 14.1714 14.6531 13.8021 14.4891 13.4976L8.40252 2.19387ZM6.39002 1.54367C7.08043 0.261479 8.91962 0.261486 9.61003 1.54368L15.6966 12.8474C16.3526 14.0656 15.4702 15.5429 14.0866 15.5429H1.9134C0.529762 15.5429 -0.352589 14.0656 0.303394 12.8474L6.39002 1.54367Z" fill="currentColor"/>
  <path fill-rule="evenodd" clip-rule="evenodd" d="M8.00665 4.45716C8.38536 4.45716 8.69237 4.76417 8.69237 5.14288L8.69237 9.92413C8.69237 10.3028 8.38536 10.6098 8.00666 10.6098C7.62795 10.6098 7.32094 10.3028 7.32094 9.92413L7.32094 5.14288C7.32094 4.76417 7.62794 4.45716 8.00665 4.45716Z" fill="currentColor"/>
  <path fill-rule="evenodd" clip-rule="evenodd" d="M7.51622 12.0082C7.784 11.7404 8.21817 11.7403 8.48596 12.0081L8.49778 12.0199C8.76558 12.2877 8.76559 12.7219 8.49781 12.9897C8.23003 13.2575 7.79586 13.2575 7.52806 12.9897L7.51624 12.9779C7.24845 12.7101 7.24844 12.2759 7.51622 12.0082Z" fill="currentColor"/>
</svg>
