<svg width="14" height="13" viewBox="0 0 14 13" fill="none" xmlns="http://www.w3.org/2000/svg">
  <path fill-rule="evenodd" clip-rule="evenodd" d="M11.0545 1.07576C11.2888 0.841445 11.6687 0.841447 11.903 1.07576L13.4243 2.59708C13.6586 2.83139 13.6586 3.21129 13.4243 3.4456L9.48596 7.38399C9.41181 7.45814 9.31952 7.51156 9.21828 7.53893L7.13058 8.10333C6.92307 8.15943 6.70141 8.10023 6.5495 7.94815C6.39758 7.79607 6.33863 7.57434 6.39496 7.3669L6.96131 5.28115C6.98873 5.18016 7.04209 5.0881 7.11608 5.01411L11.0545 1.07576ZM8.07753 5.74972L7.82712 6.67195L8.7506 6.42229L12.1515 3.02134L11.4787 2.34855L8.07753 5.74972ZM5.34018 1.07576C5.57449 0.841448 5.95439 0.841446 6.1887 1.07576L7.71005 2.59707C7.82258 2.70959 7.88579 2.86221 7.88579 3.02134C7.88579 3.18047 7.82258 3.33308 7.71006 3.4456L3.77167 7.38399C3.69752 7.45814 3.60523 7.51156 3.50399 7.53893L1.41631 8.10333C1.20881 8.15943 0.987142 8.10023 0.835228 7.94815C0.683314 7.79607 0.624365 7.57434 0.680695 7.36689L1.24706 5.28114C1.27448 5.18016 1.32784 5.0881 1.40183 5.01411L5.34018 1.07576ZM5.76445 2.34855L2.36328 5.74972L2.11286 6.67194L3.03632 6.42229L6.43726 3.02134L5.76445 2.34855ZM10.8846 8.32009C10.65 8.08608 10.2701 8.08656 10.0361 8.32118C9.80207 8.55579 9.80256 8.93569 10.0372 9.1697L10.7694 9.9001H1.08047C0.749098 9.9001 0.480469 10.1687 0.480469 10.5001C0.480469 10.8315 0.749098 11.1001 1.08047 11.1001H10.7722L10.0366 11.8357C9.80231 12.07 9.80232 12.4499 10.0366 12.6842C10.271 12.9185 10.6509 12.9185 10.8852 12.6842L12.6449 10.9244C12.7575 10.8118 12.8207 10.659 12.8206 10.4998C12.8205 10.3405 12.7571 10.1878 12.6444 10.0753L10.8846 8.32009Z" fill="currentColor"/>
</svg>
