<svg width="14" height="14" viewBox="0 0 14 14" fill="none" xmlns="http://www.w3.org/2000/svg">
  <path fill-rule="evenodd" clip-rule="evenodd" d="M6.97096 0.398926C6.40441 0.398926 5.86437 0.550933 5.44843 0.82822C5.03669 1.10271 4.68846 1.54781 4.68846 2.12057C4.68846 2.12062 4.68846 2.12068 4.68846 2.12073V3.82117C4.68846 4.40555 5.04983 4.83628 5.46912 5.0917C5.88726 5.34643 6.42175 5.47283 6.97096 5.47283C7.52017 5.47283 8.05465 5.34643 8.47279 5.0917C8.89208 4.83626 9.25341 4.40553 9.25341 3.82117V2.12073C9.25341 2.12068 9.25341 2.12062 9.25341 2.12057C9.25341 1.54781 8.90518 1.10271 8.49345 0.828224C8.07752 0.550936 7.53749 0.398926 6.97096 0.398926ZM8.05341 2.12073C8.05341 2.12068 8.05341 2.12062 8.05341 2.12057C8.05341 2.07387 8.025 1.95815 7.8278 1.82668C7.6348 1.69801 7.33361 1.59893 6.97096 1.59893C6.60828 1.59893 6.30708 1.69801 6.11407 1.82668C5.91687 1.95815 5.88846 2.07388 5.88846 2.12057C5.88846 2.12062 5.88846 2.12068 5.88846 2.12073C5.88852 2.16753 5.91709 2.28314 6.11407 2.41446C6.30708 2.54314 6.60828 2.64222 6.97096 2.64222C7.33361 2.64222 7.6348 2.54314 7.8278 2.41447C8.02479 2.28314 8.05335 2.16753 8.05341 2.12073ZM5.63911 6.48024C5.80584 6.19387 5.70886 5.82656 5.42249 5.65983C5.13612 5.4931 4.76881 5.59008 4.60208 5.87645L3.03359 8.57039C2.86685 8.85676 2.96384 9.22407 3.25021 9.3908C3.53657 9.55753 3.90389 9.46055 4.07062 9.17418L5.63911 6.48024ZM8.51987 5.65983C8.80624 5.4931 9.17355 5.59008 9.34028 5.87644L10.9088 8.57038C11.0755 8.85675 10.9786 9.22406 10.6922 9.3908C10.4058 9.55753 10.0385 9.46055 9.87178 9.17418L8.30326 6.48025C8.13652 6.19388 8.2335 5.82657 8.51987 5.65983ZM2.91042 9.83887C2.28096 9.83887 1.68396 10.0079 1.2268 10.3127C0.773887 10.6146 0.400024 11.0976 0.400024 11.7123C0.400024 12.327 0.773879 12.81 1.22681 13.112C1.68397 13.4167 2.28098 13.5858 2.91042 13.5858C3.53986 13.5858 4.13687 13.4167 4.59403 13.112C5.04696 12.81 5.42081 12.327 5.42081 11.7123C5.42081 11.0976 5.04695 10.6146 4.59404 10.3127C4.13688 10.0079 3.53987 9.83887 2.91042 9.83887ZM1.60002 11.7123C1.60002 11.6239 1.65387 11.4702 1.89241 11.3112C2.12671 11.155 2.4849 11.0389 2.91042 11.0389C3.33594 11.0389 3.69413 11.155 3.92842 11.3112C4.16696 11.4702 4.22081 11.6239 4.22081 11.7123C4.22081 11.8008 4.16695 11.9545 3.92843 12.1135C3.69414 12.2697 3.33595 12.3858 2.91042 12.3858C2.48489 12.3858 2.1267 12.2697 1.89241 12.1135C1.65388 11.9545 1.60002 11.8008 1.60002 11.7123ZM9.40605 10.3127C9.86321 10.0079 10.4602 9.83887 11.0897 9.83887C11.7191 9.83887 12.3161 10.0079 12.7733 10.3127C13.2262 10.6146 13.6 11.0976 13.6 11.7123C13.6 12.327 13.2262 12.81 12.7733 13.112C12.3161 13.4167 11.7191 13.5858 11.0897 13.5858C10.4602 13.5858 9.86322 13.4167 9.40605 13.112C8.95312 12.81 8.57928 12.327 8.57928 11.7123C8.57928 11.0976 8.95313 10.6146 9.40605 10.3127ZM10.0717 11.3112C9.83313 11.4702 9.77928 11.6239 9.77928 11.7123C9.77928 11.8008 9.83313 11.9545 10.0717 12.1135C10.3059 12.2697 10.6641 12.3858 11.0897 12.3858C11.5152 12.3858 11.8734 12.2697 12.1076 12.1135C12.3462 11.9545 12.4 11.8008 12.4 11.7123C12.4 11.6239 12.3462 11.4702 12.1076 11.3112C11.8734 11.155 11.5152 11.0389 11.0897 11.0389C10.6641 11.0389 10.306 11.155 10.0717 11.3112ZM5.88846 3.82117V3.64222C6.21708 3.7729 6.58797 3.84237 6.97096 3.84237C7.35394 3.84237 7.7248 3.77291 8.05341 3.64223V3.82117C8.05341 3.85626 8.03811 3.95136 7.84847 4.06689C7.65767 4.18313 7.35093 4.27283 6.97096 4.27283C6.59099 4.27283 6.28423 4.18313 6.09342 4.06689C5.90376 3.95135 5.88846 3.85625 5.88846 3.82117Z" fill="currentColor"/>
</svg>
