<svg width="20" height="20" viewBox="0 0 20 20" fill="none" xmlns="http://www.w3.org/2000/svg">
<rect x="0.5" y="0.5" width="19" height="19" rx="9.5" fill="#4B5A81"/>
<path d="M11.262 7.16698L11.5993 7.25794C11.721 7.29071 11.822 7.37203 11.8839 7.48682C11.9457 7.60161 11.9608 7.73599 11.9264 7.86515L11.3681 9.96106C11.3438 10.0522 11.287 10.1254 11.2148 10.17C11.1426 10.2145 11.055 10.2305 10.9692 10.2074C10.7974 10.161 10.6976 9.97568 10.7461 9.79336L11.2575 7.87351L11.0861 7.82727L10.9009 8.52241C10.8837 8.58681 10.8438 8.64114 10.7884 8.67533C10.7513 8.69824 10.7104 8.70994 10.6691 8.71045C10.5925 9.06742 10.5035 9.43827 10.4037 9.81288C9.94217 11.5455 9.35464 12.9871 8.96158 13.3761L8.71254 13.8187C8.69502 13.8499 8.67767 13.8709 8.66097 13.8812C8.65152 13.8871 8.64307 13.8891 8.63594 13.8891H14.1319C14.2662 13.8891 14.375 13.9979 14.375 14.1322C14.375 14.2664 14.2662 14.3752 14.1319 14.3752H5.86806C5.73382 14.3752 5.625 14.2664 5.625 14.1322C5.625 13.9979 5.73382 13.8891 5.86806 13.8891H8.63594C8.6275 13.8891 8.62053 13.8863 8.6164 13.8838C8.59492 13.871 8.58471 13.8385 8.58518 13.7844L8.58953 13.2778C8.42848 12.7092 8.69171 11.0416 9.11185 9.46448C9.21169 9.08963 9.3189 8.72374 9.42997 8.37621C9.3399 8.32238 9.2929 8.20878 9.32272 8.09679L9.80146 6.29965C9.81861 6.23525 9.85857 6.1809 9.91396 6.14671C9.96936 6.11251 10.0333 6.10269 10.094 6.11905L11.2161 6.42166C11.3418 6.45557 11.4152 6.59177 11.3796 6.72527L11.262 7.16698Z" fill="white"/>
<rect x="0.5" y="0.5" width="19" height="19" rx="9.5" stroke="white"/>
</svg>
