<svg width="34" height="34" viewBox="0 0 34 34" fill="none" xmlns="http://www.w3.org/2000/svg">
<path fill-rule="evenodd" clip-rule="evenodd" d="M8 0C3.58172 0 0 3.58172 0 8V26C0 30.4183 3.58172 34 8 34H26C30.4183 34 34 30.4183 34 26V8C34 3.58172 30.4183 0 26 0H8ZM28.858 17.3131V17V16.6869C26.9228 16.3786 22.7677 15.6624 20.7234 14.8798C19.9977 14.6047 19.4143 14.026 19.1297 13.3003C18.3471 11.2655 17.6214 7.08669 17.3131 5.14198H16.6869C16.3786 7.08669 15.6529 11.2655 14.8703 13.3003C14.5857 14.026 14.007 14.5999 13.2766 14.8798C11.2323 15.6624 7.0772 16.3786 5.14198 16.6869V17.3131C7.0772 17.6214 11.2323 18.3376 13.2766 19.1202C14.0023 19.3953 14.5857 19.974 14.8703 20.6997C15.6529 22.7345 16.3786 26.9133 16.6869 28.858H17.3131C17.6214 26.9133 18.3471 22.7345 19.1297 20.6997C19.4143 19.974 19.993 19.4001 20.7234 19.1202C22.7677 18.3376 26.9228 17.6214 28.858 17.3131Z" fill="currentColor"/>
</svg>
