<svg width="12" height="12" viewBox="0 0 12 12" fill="none" xmlns="http://www.w3.org/2000/svg">
<path d="M7.34673 0.168304L0.166664 4.6549L1.11008 6.16264L3.10029 4.93168V3.96242H4.65865L8.30737 1.70081L7.34673 0.168304ZM8.55831 2.10683L5.56006 3.96781H8.91801L9.49526 3.61456L8.55831 2.10683ZM9.75157 4.00981L8.98694 4.47613V5.34739H7.58151L5.63114 6.56004H8.81247L10.6347 5.43031L9.75157 4.00981ZM3.3243 5.3517L1.36209 6.57081L2.29904 8.07101L3.10783 7.57023V6.56004H4.73188L6.68225 5.3517H3.3243ZM10.8856 5.83202L8.9977 7.0059V7.94501H7.47704L3.69046 10.2917L4.65326 11.8317L11.8333 7.34514L10.8856 5.83202ZM3.39753 7.94501L2.55212 8.46948L3.44169 9.89107L6.57671 7.94501H3.39753Z" fill="white"/>
</svg>
