<svg width="20" height="20" viewBox="0 0 20 20" fill="none" xmlns="http://www.w3.org/2000/svg">
<rect x="0.5" y="0.5" width="19" height="19" rx="9.5" fill="#567CDC"/>
<path d="M11.3467 4.16797L4.16666 8.65457L5.11007 10.1623L7.10029 8.93135V7.96209H8.65864L12.3074 5.70048L11.3467 4.16797ZM12.5583 6.10649L9.56005 7.96747H12.918L13.4953 7.61423L12.5583 6.10649ZM13.7516 8.00947L12.9869 8.47579V9.34705H11.5815L9.63113 10.5597H12.8125L14.6347 9.42998L13.7516 8.00947ZM7.32429 9.35136L5.36208 10.5705L6.29903 12.0707L7.10782 11.5699V10.5597H8.73187L10.6822 9.35136H7.32429ZM14.8856 9.83168L12.9977 11.0056V11.9447H11.477L7.69046 14.2914L8.65326 15.8314L15.8333 11.3448L14.8856 9.83168ZM7.39753 11.9447L6.55211 12.4691L7.44168 13.8907L10.5767 11.9447H7.39753Z" fill="white"/>
<rect x="0.5" y="0.5" width="19" height="19" rx="9.5" stroke="white"/>
</svg>
