<svg width="14" height="14" viewBox="0 0 14 14" fill="none" xmlns="http://www.w3.org/2000/svg">
  <path fill-rule="evenodd" clip-rule="evenodd" d="M7 14C10.866 14 14 10.866 14 7C14 3.134 10.866 0 7 0C3.134 0 0 3.134 0 7C0 10.866 3.134 14 7 14ZM8.80794 6.75655C8.43956 7.21828 8.07059 7.73351 8.07059 8.32418V10.2323C8.07059 10.8123 7.60048 11.2824 7.02058 11.2824C6.44068 11.2824 5.9706 10.8123 5.9706 10.2323V8.32418C5.9706 7.73351 5.60163 7.21828 5.23325 6.75655C4.9216 6.36595 4.73531 5.87091 4.73531 5.33236C4.73531 4.07021 5.75846 3.04706 7.02058 3.04706C8.28273 3.04706 9.30588 4.07021 9.30588 5.33236C9.30588 5.87091 9.11959 6.36595 8.80794 6.75655Z" fill="currentColor"/>
</svg>
