<svg width="20" height="20" viewBox="0 0 20 20" fill="none" xmlns="http://www.w3.org/2000/svg">
  <path fill-rule="evenodd" clip-rule="evenodd" d="M10 16.355C13.5098 16.355 16.355 13.5098 16.355 10C16.355 6.49023 13.5098 3.64502 10 3.64502C6.49023 3.64502 3.64502 6.49023 3.64502 10C3.64502 13.5098 6.49023 16.355 10 16.355ZM11.6413 9.77898C11.3069 10.1982 10.9719 10.6659 10.9719 11.2022V12.9345C10.9719 13.461 10.5451 13.8878 10.0187 13.8878C9.49222 13.8878 9.06546 13.461 9.06546 12.9345V11.2022C9.06546 10.6659 8.73049 10.1982 8.39604 9.77898C8.11311 9.42437 7.94399 8.97495 7.94399 8.48603C7.94399 7.34018 8.87286 6.41131 10.0187 6.41131C11.1645 6.41131 12.0934 7.34018 12.0934 8.48603C12.0934 8.97495 11.9243 9.42437 11.6413 9.77898Z" fill="currentColor"/>
</svg>
