<svg width="32" height="20" viewBox="0 0 32 20" fill="none" xmlns="http://www.w3.org/2000/svg">
  <path d="M6.55109 3.83202C11.7696 -1.27734 20.2304 -1.27734 25.449 3.83202L26.077 4.44692C26.3379 4.70242 26.3379 5.11659 26.077 5.37209L23.9286 7.47559C23.7981 7.60334 23.5866 7.60334 23.4561 7.47559L22.5918 6.62942C18.9513 3.06497 13.0488 3.06497 9.40817 6.62942L8.48259 7.53559C8.35217 7.66334 8.14067 7.66334 8.01017 7.53559L5.86175 5.43209C5.60075 5.17659 5.60075 4.76242 5.86175 4.50692L6.55109 3.83202ZM29.8922 8.18234L31.8043 10.0544C32.0653 10.3099 32.0653 10.7241 31.8043 10.9796L23.1824 19.4213C22.9215 19.6768 22.4984 19.6768 22.2375 19.4213L16.1182 13.43C16.0529 13.3661 15.9472 13.3661 15.8819 13.43L9.76275 19.4213C9.50184 19.6768 9.07875 19.6768 8.81783 19.4213L0.195694 10.9795C-0.0652312 10.724 -0.0652312 10.3098 0.195694 10.0543L2.10783 8.18217C2.36875 7.92675 2.7918 7.92675 3.05273 8.18217L9.17217 14.1736C9.23734 14.2375 9.34309 14.2375 9.40833 14.1736L15.5274 8.18217C15.7883 7.92675 16.2114 7.92675 16.4723 8.18217L22.5918 14.1736C22.657 14.2375 22.7628 14.2375 22.828 14.1736L28.9473 8.18234C29.2083 7.92684 29.6313 7.92684 29.8922 8.18234Z" fill="currentColor"/>
</svg>
