<svg width="14" height="14" viewBox="0 0 14 14" fill="none" xmlns="http://www.w3.org/2000/svg">
  <path fill-rule="evenodd" clip-rule="evenodd" d="M2.60002 7.00002C2.60002 5.69226 2.86634 4.53797 3.26891 3.73282C3.68943 2.89178 4.15937 2.60002 4.50002 2.60002C4.84068 2.60002 5.31062 2.89178 5.73113 3.73282C6.0797 4.42995 6.32611 5.38882 6.38596 6.48242C6.13771 6.17911 5.83142 6 5.50002 6C4.6716 6 4.00002 7.11929 4.00002 8.5C4.00002 9.74988 4.55036 10.7855 5.26919 10.9706C4.99103 11.2796 4.71886 11.4 4.50002 11.4C4.15937 11.4 3.68943 11.1083 3.26891 10.2672C2.86634 9.46208 2.60002 8.30779 2.60002 7.00002ZM7.00003 3.63042C6.93895 3.47959 6.87368 3.33464 6.80445 3.19616C6.32015 2.22756 5.54008 1.40002 4.50002 1.40002C3.45997 1.40002 2.6799 2.22756 2.1956 3.19616C1.69335 4.20066 1.40002 5.54636 1.40002 7.00002C1.40002 8.45369 1.69335 9.79939 2.1956 10.8039C2.6799 11.7725 3.45997 12.6 4.50002 12.6C5.54008 12.6 6.32015 11.7725 6.80445 10.8039C6.87368 10.6654 6.93895 10.5205 7.00003 10.3696C7.0611 10.5205 7.12636 10.6654 7.1956 10.8039C7.6799 11.7725 8.45997 12.6 9.50002 12.6C10.5401 12.6 11.3201 11.7725 11.8044 10.8039C12.3067 9.79939 12.6 8.45369 12.6 7.00002C12.6 5.54636 12.3067 4.20066 11.8044 3.19616C11.3201 2.22756 10.5401 1.40002 9.50002 1.40002C8.45997 1.40002 7.6799 2.22756 7.1956 3.19616C7.12636 3.33464 7.0611 3.47959 7.00003 3.63042ZM7.60002 7.00002C7.60002 8.30779 7.86634 9.46208 8.26891 10.2672C8.68943 11.1083 9.15937 11.4 9.50002 11.4C9.71886 11.4 9.99104 11.2796 10.2692 10.9706C9.55036 10.7855 9.00002 9.74988 9.00002 8.5C9.00002 7.11929 9.6716 6 10.5 6C10.8314 6 11.1377 6.17911 11.386 6.48242C11.3261 5.38882 11.0797 4.42995 10.7311 3.73282C10.3106 2.89178 9.84068 2.60002 9.50002 2.60002C9.15937 2.60002 8.68943 2.89178 8.26891 3.73282C7.86634 4.53797 7.60002 5.69226 7.60002 7.00002Z" fill="currentColor"/>
</svg>
