<svg width="34" height="28" viewBox="0 0 34 28" fill="none" xmlns="http://www.w3.org/2000/svg">
  <path fill-rule="evenodd" clip-rule="evenodd" d="M8.59974 0.25C6.12126 0.25 4.03662 1.99173 2.61972 4.45693C1.19073 6.94314 0.335044 10.3192 0.335044 14C0.335044 17.6808 1.19073 21.0569 2.61972 23.5431C4.03662 26.0083 6.12126 27.75 8.59974 27.75C11.0782 27.75 13.1629 26.0083 14.5798 23.5431C16.0087 21.0569 16.8644 17.6808 16.8644 14C16.8644 10.3192 16.0087 6.94314 14.5798 4.45693C13.1629 1.99173 11.0782 0.25 8.59974 0.25ZM19.4237 4.45693C20.8406 1.99173 22.9252 0.25 25.4037 0.25C27.8822 0.25 29.9668 1.99173 31.3837 4.45693C32.8127 6.94314 33.6684 10.3192 33.6684 14C33.6684 17.6808 32.8127 21.0569 31.3837 23.5431C29.9668 26.0083 27.8822 27.75 25.4037 27.75C22.9252 27.75 20.8406 26.0083 19.4237 23.5431C17.9947 21.0569 17.139 17.6808 17.139 14C17.139 10.3192 17.9947 6.94314 19.4237 4.45693ZM25.4037 0.25C27.8822 0.25 29.9668 1.99173 31.3837 4.45693C32.8127 6.94314 33.6684 10.3192 33.6684 14C33.6684 17.6808 32.8127 21.0569 31.3837 23.5431C29.9668 26.0083 27.8822 27.75 25.4037 27.75C22.9252 27.75 20.8406 26.0083 19.4237 23.5431C17.9947 21.0569 17.139 17.6808 17.139 14C17.139 10.3192 17.9947 6.94314 19.4237 4.45693C20.8406 1.99173 22.9252 0.25 25.4037 0.25ZM31.7481 11.3082C31.4512 8.9896 30.781 6.94067 29.8735 5.36178C28.6161 3.17398 27.0061 2.03777 25.4036 2.03777C23.8011 2.03777 22.1911 3.17398 20.9337 5.36178C19.6883 7.52857 18.8898 10.5806 18.8898 14C18.8898 17.4194 19.6883 20.4714 20.9337 22.6382C22.1911 24.826 23.8011 25.9622 25.4036 25.9622C27.0061 25.9622 28.6161 24.826 29.8735 22.6382C30.7743 21.071 31.4413 19.0405 31.7414 16.743C30.9922 17.6309 29.8829 18.1931 28.6449 18.1931C26.3886 18.1931 24.5594 16.3255 24.5594 14.0216C24.5594 11.7178 26.3886 9.85019 28.6449 9.85019C29.8865 9.85019 30.9988 10.4157 31.7481 11.3082ZM14.5798 4.45693C13.1629 1.99173 11.0782 0.25 8.59974 0.25C6.12126 0.25 4.03662 1.99173 2.61972 4.45693C1.19073 6.94314 0.335044 10.3192 0.335044 14C0.335044 17.6808 1.19073 21.0569 2.61972 23.5431C4.03662 26.0083 6.12126 27.75 8.59974 27.75C11.0782 27.75 13.1629 26.0083 14.5798 23.5431C16.0087 21.0569 16.8644 17.6808 16.8644 14C16.8644 10.3192 16.0087 6.94314 14.5798 4.45693ZM14.9345 11.2344C14.1866 10.3846 13.1019 9.85019 11.8948 9.85019C9.63849 9.85019 7.80935 11.7178 7.80935 14.0216C7.80935 16.3255 9.63849 18.1931 11.8948 18.1931C13.0982 18.1931 14.1801 17.6619 14.9277 16.8166C14.6231 19.0839 13.9608 21.0877 13.0696 22.6382C11.8121 24.826 10.2021 25.9622 8.59966 25.9622C6.99717 25.9622 5.3872 24.826 4.12973 22.6382C2.88434 20.4714 2.08589 17.4194 2.08589 14C2.08589 10.5806 2.88434 7.52857 4.12973 5.36178C5.3872 3.17398 6.99717 2.03777 8.59966 2.03777C10.2021 2.03777 11.8121 3.17398 13.0696 5.36178C13.9674 6.92389 14.633 8.94612 14.9345 11.2344Z" fill="currentColor"/>
</svg>
