<svg width="20" height="20" viewBox="0 0 20 20" fill="none" xmlns="http://www.w3.org/2000/svg">
  <path fill-rule="evenodd" clip-rule="evenodd" d="M5.60002 10C5.60002 8.69226 5.86634 7.53797 6.26891 6.73282C6.68943 5.89178 7.15937 5.60002 7.50002 5.60002C7.84068 5.60002 8.31062 5.89178 8.73113 6.73282C9.0797 7.42995 9.32611 8.38882 9.38596 9.48242C9.13771 9.17911 8.83142 9 8.50002 9C7.6716 9 7.00002 10.1193 7.00002 11.5C7.00002 12.7499 7.55036 13.7855 8.26919 13.9706C7.99103 14.2796 7.71886 14.4 7.50002 14.4C7.15937 14.4 6.68943 14.1083 6.26891 13.2672C5.86634 12.4621 5.60002 11.3078 5.60002 10ZM10 6.63042C9.93895 6.47959 9.87368 6.33464 9.80445 6.19616C9.32015 5.22756 8.54008 4.40002 7.50002 4.40002C6.45997 4.40002 5.6799 5.22756 5.1956 6.19616C4.69335 7.20066 4.40002 8.54636 4.40002 10C4.40002 11.4537 4.69335 12.7994 5.1956 13.8039C5.6799 14.7725 6.45997 15.6 7.50002 15.6C8.54008 15.6 9.32015 14.7725 9.80445 13.8039C9.87368 13.6654 9.93895 13.5205 10 13.3696C10.0611 13.5205 10.1264 13.6654 10.1956 13.8039C10.6799 14.7725 11.46 15.6 12.5 15.6C13.5401 15.6 14.3201 14.7725 14.8044 13.8039C15.3067 12.7994 15.6 11.4537 15.6 10C15.6 8.54636 15.3067 7.20066 14.8044 6.19616C14.3201 5.22756 13.5401 4.40002 12.5 4.40002C11.46 4.40002 10.6799 5.22756 10.1956 6.19616C10.1264 6.33464 10.0611 6.47959 10 6.63042ZM10.6 10C10.6 11.3078 10.8663 12.4621 11.2689 13.2672C11.6894 14.1083 12.1594 14.4 12.5 14.4C12.7189 14.4 12.991 14.2796 13.2692 13.9706C12.5504 13.7855 12 12.7499 12 11.5C12 10.1193 12.6716 9 13.5 9C13.8314 9 14.1377 9.17911 14.386 9.48242C14.3261 8.38882 14.0797 7.42995 13.7311 6.73282C13.3106 5.89178 12.8407 5.60002 12.5 5.60002C12.1594 5.60002 11.6894 5.89178 11.2689 6.73282C10.8663 7.53797 10.6 8.69226 10.6 10Z" fill="currentColor"/>
</svg>
