<svg width="56" height="56" viewBox="0 0 56 56" fill="none" xmlns="http://www.w3.org/2000/svg">
<rect width="56" height="56" rx="12" fill="#363643"/>
<path fill-rule="evenodd" clip-rule="evenodd" d="M19.5977 14.25C17.1192 14.25 15.0346 15.9917 13.6177 18.4569C12.1887 20.9431 11.333 24.3192 11.333 28C11.333 31.6808 12.1887 35.0569 13.6177 37.5431C15.0346 40.0083 17.1192 41.75 19.5977 41.75C22.0762 41.75 24.1608 40.0083 25.5777 37.5431C27.0067 35.0569 27.8624 31.6808 27.8624 28C27.8624 24.3192 27.0067 20.9431 25.5777 18.4569C24.1608 15.9917 22.0762 14.25 19.5977 14.25Z" fill="white"/>
<path fill-rule="evenodd" clip-rule="evenodd" d="M30.4216 18.4569C31.8385 15.9917 33.9232 14.25 36.4016 14.25C38.8801 14.25 40.9648 15.9917 42.3817 18.4569C43.8107 20.9431 44.6663 24.3192 44.6663 28C44.6663 31.6808 43.8107 35.0569 42.3817 37.5431C40.9648 40.0083 38.8801 41.75 36.4016 41.75C33.9232 41.75 31.8385 40.0083 30.4216 37.5431C28.9926 35.0569 28.1369 31.6808 28.1369 28C28.1369 24.3192 28.9926 20.9431 30.4216 18.4569Z" fill="white"/>
<path fill-rule="evenodd" clip-rule="evenodd" d="M19.5977 14.25C17.1192 14.25 15.0346 15.9917 13.6177 18.4569C12.1887 20.9431 11.333 24.3192 11.333 28C11.333 31.6808 12.1887 35.0569 13.6177 37.5431C15.0346 40.0083 17.1192 41.75 19.5977 41.75C22.0762 41.75 24.1608 40.0083 25.5777 37.5431C27.0067 35.0569 27.8624 31.6808 27.8624 28C27.8624 24.3192 27.0067 20.9431 25.5777 18.4569C24.1608 15.9917 22.0762 14.25 19.5977 14.25ZM13.2532 25.3082C13.5501 22.9896 14.2203 20.9407 15.1278 19.3618C16.3852 17.174 17.9952 16.0378 19.5977 16.0378C21.2002 16.0378 22.8102 17.174 24.0676 19.3618C25.313 21.5286 26.1115 24.5806 26.1115 28C26.1115 31.4194 25.313 34.4714 24.0676 36.6382C22.8102 38.826 21.2002 39.9622 19.5977 39.9622C17.9952 39.9622 16.3852 38.826 15.1278 36.6382C14.227 35.071 13.56 33.0405 13.2599 30.743C14.0091 31.6309 15.1184 32.1931 16.3564 32.1931C18.6127 32.1931 20.4419 30.3255 20.4419 28.0216C20.4419 25.7178 18.6127 23.8502 16.3564 23.8502C15.1148 23.8502 14.0025 24.4157 13.2532 25.3082Z" fill="#363643"/>
<path fill-rule="evenodd" clip-rule="evenodd" d="M30.4216 18.4569C31.8385 15.9917 33.9232 14.25 36.4016 14.25C38.8801 14.25 40.9648 15.9917 42.3817 18.4569C43.8107 20.9431 44.6663 24.3192 44.6663 28C44.6663 31.6808 43.8107 35.0569 42.3817 37.5431C40.9648 40.0083 38.8801 41.75 36.4016 41.75C33.9232 41.75 31.8385 40.0083 30.4216 37.5431C28.9926 35.0569 28.1369 31.6808 28.1369 28C28.1369 24.3192 28.9926 20.9431 30.4216 18.4569ZM30.0668 25.2344C30.8147 24.3846 31.8994 23.8502 33.1065 23.8502C35.3628 23.8502 37.192 25.7178 37.192 28.0216C37.192 30.3255 35.3628 32.1931 33.1065 32.1931C31.9031 32.1931 30.8212 31.6619 30.0736 30.8166C30.3782 33.0839 31.0405 35.0877 31.9317 36.6382C33.1892 38.826 34.7992 39.9622 36.4016 39.9622C38.0041 39.9622 39.6141 38.826 40.8716 36.6382C42.117 34.4714 42.9154 31.4194 42.9154 28C42.9154 24.5806 42.117 21.5286 40.8716 19.3618C39.6141 17.174 38.0041 16.0378 36.4016 16.0378C34.7992 16.0378 33.1892 17.174 31.9317 19.3618C31.0339 20.9239 30.3683 22.9461 30.0668 25.2344Z" fill="#363643"/>
</svg>
