<svg width="20" height="20" viewBox="0 0 20 20" fill="none" xmlns="http://www.w3.org/2000/svg">
<path fill-rule="evenodd" clip-rule="evenodd" d="M6.86984 14.6947C8.36276 14.6947 9.57302 12.5927 9.57302 9.99969C9.57302 7.40671 8.36276 5.30469 6.86984 5.30469C5.37691 5.30469 4.16666 7.40671 4.16666 9.99969C4.16666 12.5927 5.37691 14.6947 6.86984 14.6947ZM5.78862 12.134C6.65295 12.134 7.35362 11.3696 7.35362 10.4267C7.35362 9.48382 6.65295 8.71945 5.78862 8.71945C4.9243 8.71945 4.22362 9.48382 4.22362 10.4267C4.22362 11.3696 4.9243 12.134 5.78862 12.134ZM5.64573 9.51658C5.64573 9.73659 5.46738 9.91494 5.24737 9.91494C5.02736 9.91494 4.849 9.73659 4.849 9.51658C4.849 9.29657 5.02736 9.11822 5.24737 9.11822C5.46738 9.11822 5.64573 9.29657 5.64573 9.51658ZM13.13 14.6947C14.6229 14.6947 15.8332 12.5927 15.8332 9.99969C15.8332 7.40671 14.6229 5.30469 13.13 5.30469C11.6371 5.30469 10.4268 7.40671 10.4268 9.99969C10.4268 12.5927 11.6371 14.6947 13.13 14.6947ZM12.0484 12.134C12.9127 12.134 13.6134 11.3696 13.6134 10.4267C13.6134 9.48382 12.9127 8.71945 12.0484 8.71945C11.1841 8.71945 10.4834 9.48382 10.4834 10.4267C10.4834 11.3696 11.1841 12.134 12.0484 12.134ZM11.9064 9.51658C11.9064 9.73659 11.728 9.91494 11.508 9.91494C11.288 9.91494 11.1096 9.73659 11.1096 9.51658C11.1096 9.29657 11.288 9.11822 11.508 9.11822C11.728 9.11822 11.9064 9.29657 11.9064 9.51658Z" fill="white"/>
</svg>
