<svg width="24" height="24" viewBox="0 0 24 24" fill="none" xmlns="http://www.w3.org/2000/svg"><path fill-rule="evenodd" clip-rule="evenodd" d="M12 0C18.6274 0 24 5.37258 24 12C24 18.6274 18.6274 24 12 24C5.37258 24 0 18.6274 0 12C0 5.37258 5.37258 0 12 0ZM16.7071 10.6927C16.3166 11.1024 15.6834 11.1024 15.2929 10.6927L12.1476 7.64482C12.0683 7.55388 11.9317 7.55388 11.8524 7.64482L8.7071 10.6927C8.31658 11.1024 7.68342 11.1024 7.29289 10.6927C6.90237 10.283 6.90237 9.61864 7.29289 9.2089L11.2675 5.33494C11.6631 4.88835 12.3369 4.88835 12.7325 5.33494L16.7071 9.2089C17.0976 9.61864 17.0976 10.283 16.7071 10.6927ZM7.29289 13.3073C7.68342 12.8976 8.31658 12.8976 8.70711 13.3073L11.8524 16.3552C11.9317 16.4461 12.0683 16.4461 12.1476 16.3552L15.2929 13.3073C15.6834 12.8976 16.3166 12.8976 16.7071 13.3073C17.0976 13.717 17.0976 14.3814 16.7071 14.7911L12.7325 18.6651C12.3369 19.1116 11.6631 19.1116 11.2675 18.6651L7.29289 14.7911C6.90237 14.3814 6.90237 13.717 7.29289 13.3073Z" fill="currentColor"/></svg>
