<svg width="24" height="24" viewBox="0 0 24 24" fill="none" xmlns="http://www.w3.org/2000/svg"><circle cx="12" cy="12" r="12" fill="currentColor" fill-opacity="0.1"/><circle cx="12" cy="12" r="11.5" stroke="currentColor" stroke-opacity="0.05"/><path d="M15.2929 10.6927C15.6834 11.1024 16.3166 11.1024 16.7071 10.6927C17.0976 10.283 17.0976 9.61864 16.7071 9.2089L12.7325 5.33494C12.3369 4.88835 11.6631 4.88835 11.2675 5.33494L7.29289 9.2089C6.90237 9.61864 6.90237 10.283 7.29289 10.6927C7.68342 11.1024 8.31658 11.1024 8.7071 10.6927L11.8524 7.64482C11.9317 7.55388 12.0683 7.55388 12.1476 7.64482L15.2929 10.6927Z" fill="currentColor" fill-opacity="0.7"/><path d="M8.70711 13.3073C8.31658 12.8976 7.68342 12.8976 7.29289 13.3073C6.90237 13.717 6.90237 14.3814 7.29289 14.7911L11.2675 18.6651C11.6631 19.1116 12.3369 19.1116 12.7325 18.6651L16.7071 14.7911C17.0976 14.3814 17.0976 13.717 16.7071 13.3073C16.3166 12.8976 15.6834 12.8976 15.2929 13.3073L12.1476 16.3552C12.0683 16.4461 11.9317 16.4461 11.8524 16.3552L8.70711 13.3073Z" fill="currentColor" fill-opacity="0.7"/></svg>
