<svg width="24" height="24" viewBox="0 0 24 24" fill="none" xmlns="http://www.w3.org/2000/svg"><g clip-path="url(#clip0_1033_14555)"><path fill-rule="evenodd" clip-rule="evenodd" d="M12 0.999999C18.0751 0.999999 23 5.92487 23 12C23 18.0751 18.0751 23 12 23C5.92487 23 1 18.0751 0.999999 12C0.999999 5.92487 5.92487 1 12 0.999999ZM12 -5.24537e-07C18.6274 -8.1423e-07 24 5.37258 24 12C24 18.6274 18.6274 24 12 24C5.37258 24 -2.34843e-07 18.6274 -5.24537e-07 12C-8.1423e-07 5.37258 5.37258 -2.34843e-07 12 -5.24537e-07ZM16.7071 10.6927C16.3166 11.1024 15.6834 11.1024 15.2929 10.6927L12.1475 7.64481C12.0683 7.55387 11.9317 7.55387 11.8524 7.64481L8.70708 10.6927C8.31656 11.1024 7.68339 11.1024 7.29287 10.6927C6.90235 10.2829 6.90235 9.61863 7.29287 9.20889L11.2675 5.33493C11.6631 4.88834 12.3369 4.88834 12.7325 5.33493L16.7071 9.20889C17.0976 9.61863 17.0976 10.2829 16.7071 10.6927ZM7.29287 13.3073C7.6834 12.8976 8.31656 12.8976 8.70709 13.3073L11.8524 16.3552C11.9317 16.4461 12.0683 16.4461 12.1475 16.3552L15.2929 13.3073C15.6834 12.8976 16.3166 12.8976 16.7071 13.3073C17.0976 13.717 17.0976 14.3814 16.7071 14.7911L12.7325 18.665C12.3369 19.1116 11.6631 19.1116 11.2675 18.665L7.29287 14.7911C6.90235 14.3814 6.90235 13.717 7.29287 13.3073Z" fill="currentColor"/></g><defs><clipPath id="clip0_1033_14555"><rect width="24" height="24" fill="white"/></clipPath></defs></svg>
