<svg width="24" height="24" viewBox="0 0 24 24" fill="none" xmlns="http://www.w3.org/2000/svg">
<path fill-rule="evenodd" clip-rule="evenodd" d="M12 22C17.5228 22 22 17.5228 22 12C22 6.47715 17.5228 2 12 2C6.47715 2 2 6.47715 2 12C2 17.5228 6.47715 22 12 22ZM13.7951 8.06694C14.0683 7.82286 14.0683 7.42714 13.7951 7.18306C13.522 6.93898 13.0791 6.93898 12.8059 7.18306L8.2233 11.5422C7.92557 11.7894 7.92557 12.2106 8.2233 12.4578L12.8059 16.8169C13.0791 17.061 13.522 17.061 13.7951 16.8169C14.0683 16.5729 14.0683 16.1771 13.7951 15.9331L9.76321 12.0922C9.70259 12.0427 9.70259 11.9573 9.76321 11.9078L13.7951 8.06694Z" fill="currentColor"/>
</svg>
