<svg width="24" height="24" viewBox="0 0 24 24" fill="none" xmlns="http://www.w3.org/2000/svg">
<path fill-rule="evenodd" clip-rule="evenodd" d="M12 22C17.5228 22 22 17.5228 22 12C22 6.47715 17.5228 2 12 2C6.47715 2 2 6.47715 2 12C2 17.5228 6.47715 22 12 22ZM10.2049 8.06694C9.93171 7.82286 9.93171 7.42714 10.2049 7.18306C10.478 6.93898 10.9209 6.93898 11.1941 7.18306L15.7767 11.5422C16.0744 11.7894 16.0744 12.2106 15.7767 12.4578L11.1941 16.8169C10.9209 17.061 10.478 17.061 10.2049 16.8169C9.93171 16.5729 9.93171 16.1771 10.2049 15.9331L14.2368 12.0922C14.2974 12.0427 14.2974 11.9573 14.2368 11.9078L10.2049 8.06694Z" fill="currentColor"/>
</svg>
