<svg width="20" height="20" viewBox="0 0 20 20" fill="none" xmlns="http://www.w3.org/2000/svg">
<path fill-rule="evenodd" clip-rule="evenodd" d="M11.8378 9.99741C11.8378 10.8844 12.5568 11.6035 13.4439 11.6035C14.3309 11.6035 15.05 10.8844 15.05 9.99741C15.05 9.11038 14.3309 8.39129 13.4439 8.39129C12.5568 8.39129 11.8378 9.11038 11.8378 9.99741ZM10.702 9.39746C10.9768 8.13596 12.1 7.19129 13.4439 7.19129C14.9937 7.19129 16.25 8.44764 16.25 9.99741C16.25 11.5472 14.9937 12.8035 13.4439 12.8035C12.1001 12.8035 10.9769 11.8589 10.7021 10.5975L7.32141 10.5975C7.28723 10.5975 7.2537 10.5946 7.22108 10.5891C6.97696 11.2845 6.31456 11.7832 5.53571 11.7832C4.54949 11.7832 3.75 10.9837 3.75 9.99746C3.75 9.01124 4.54949 8.21175 5.53571 8.21175C6.31456 8.21175 6.97695 8.71037 7.22107 9.40581C7.2537 9.40032 7.28722 9.39746 7.32141 9.39746L10.702 9.39746ZM9.13849 7.05079L9.95839 7.87069C10.1927 8.10501 10.5726 8.10501 10.8069 7.8707C11.0412 7.63638 11.0412 7.25648 10.8069 7.02217L9.98701 6.20226C10.0774 5.99761 10.1275 5.77125 10.1275 5.53316C10.1275 4.61738 9.38516 3.875 8.46939 3.875C7.55361 3.875 6.81123 4.61738 6.81123 5.53316C6.81123 6.44894 7.55361 7.19132 8.46939 7.19132C8.70747 7.19132 8.93384 7.14114 9.13849 7.05079ZM9.97983 13.7766L10.8301 12.9263C11.0644 12.692 11.0644 12.3121 10.8301 12.0778C10.5958 11.8435 10.2159 11.8435 9.98158 12.0778L9.1223 12.9371C8.92193 12.8512 8.70121 12.8036 8.46939 12.8036C7.55361 12.8036 6.81123 13.546 6.81123 14.4618C6.81123 15.3775 7.55361 16.1199 8.46939 16.1199C9.38516 16.1199 10.1275 15.3775 10.1275 14.4618C10.1275 14.2174 10.0747 13.9855 9.97983 13.7766ZM8.46939 5.99132C8.21635 5.99132 8.01123 5.7862 8.01123 5.53316C8.01123 5.28013 8.21635 5.075 8.46939 5.075C8.72242 5.075 8.92755 5.28013 8.92755 5.53316C8.92755 5.7862 8.72242 5.99132 8.46939 5.99132ZM4.95 9.99746C4.95 10.3209 5.21223 10.5832 5.53571 10.5832C5.85919 10.5832 6.12142 10.3209 6.12142 9.99746C6.12142 9.67398 5.85919 9.41175 5.53571 9.41175C5.21223 9.41175 4.95 9.67398 4.95 9.99746ZM8.46939 14.9199C8.21635 14.9199 8.01123 14.7148 8.01123 14.4618C8.01123 14.2087 8.21635 14.0036 8.46939 14.0036C8.72242 14.0036 8.92755 14.2087 8.92755 14.4618C8.92755 14.7148 8.72242 14.9199 8.46939 14.9199Z" fill="#C3C3CB"/>
</svg>
