<svg xmlns="http://www.w3.org/2000/svg" width="45" height="45" viewBox="0 0 45 45" fill="none">
  <path fill-rule="evenodd" clip-rule="evenodd" d="M23.0001 3.16797C18.1253 3.16797 13.6486 4.1532 10.3432 5.8059C7.18875 7.3831 4.74422 9.77447 4.63333 12.7806H4.62939V12.9941V18.626C4.62939 21.8889 7.03639 24.5608 10.3026 26.3424C13.3256 27.9913 17.3275 29.0336 21.7187 29.2042V35.1383L18.4605 32.5319C17.9077 32.0897 17.1012 32.1793 16.659 32.7321C16.2168 33.2848 16.3064 34.0914 16.8592 34.5335L22.1997 38.8058C22.6678 39.1803 23.3329 39.1803 23.801 38.8058L29.1413 34.5335C29.694 34.0913 29.7837 33.2848 29.3415 32.732C28.8993 32.1793 28.0927 32.0897 27.54 32.5319L24.282 35.1383V29.2042C28.673 29.0335 32.6747 27.9912 35.6976 26.3424C38.9639 24.5608 41.3709 21.8889 41.3709 18.626V12.9941V12.7806H41.3669C41.256 9.77447 38.8115 7.3831 35.6571 5.8059C32.3517 4.1532 27.875 3.16797 23.0001 3.16797ZM23.0257 26.6657C27.5621 26.6619 31.6052 25.6547 34.4702 24.092C37.389 22.4999 38.8075 20.5111 38.8075 18.626V18.087C37.9125 18.8919 36.8342 19.5938 35.6571 20.1824C32.3517 21.8351 27.875 22.8204 23.0001 22.8204C18.1253 22.8204 13.6486 21.8351 10.3432 20.1824C9.16604 19.5939 8.08778 18.8919 7.19275 18.087V18.626C7.19275 20.5111 8.61127 22.4999 11.5301 24.092C14.3951 25.6548 18.4384 26.662 22.975 26.6657C22.9834 26.6655 22.9919 26.6654 23.0004 26.6654C23.0088 26.6654 23.0173 26.6655 23.0257 26.6657ZM38.8075 12.9941C38.8075 11.3816 37.467 9.57677 34.5107 8.09865C31.6311 6.65885 27.5633 5.73133 23.0001 5.73133C18.437 5.73133 14.3691 6.65885 11.4895 8.09865C8.53326 9.57677 7.19275 11.3816 7.19275 12.9941C7.19275 14.6066 8.53327 16.4115 11.4895 17.8897C14.3691 19.3295 18.437 20.257 23.0001 20.257C27.5633 20.257 31.6311 19.3295 34.5107 17.8897C37.467 16.4115 38.8075 14.6066 38.8075 12.9941ZM11.1227 40.7641C11.1227 40.1742 11.6009 39.696 12.1908 39.696H34.204C34.7938 39.696 35.272 40.1742 35.272 40.7641C35.272 41.354 34.7938 41.8322 34.204 41.8322H12.1908C11.6009 41.8322 11.1227 41.354 11.1227 40.7641Z" fill="currentColor"/>
</svg>