<svg width="45" height="45" viewBox="0 0 45 45" fill="none" xmlns="http://www.w3.org/2000/svg">
<path fill-rule="evenodd" clip-rule="evenodd" d="M11.549 11.5781C8.61389 13.0762 7.25 14.9203 7.25 16.6021C7.25 18.2838 8.61389 20.1279 11.549 21.626C14.4165 23.0895 18.4651 24.0315 23.0055 24.0315C27.5458 24.0315 31.5944 23.0895 34.4619 21.626C37.397 20.1279 38.7609 18.2838 38.7609 16.6021C38.7609 14.9203 37.397 13.0762 34.4619 11.5781C31.5944 10.1146 27.5458 9.17261 23.0055 9.17261C18.4651 9.17261 14.4165 10.1146 11.549 11.5781ZM41.2589 16.446C41.1788 13.4068 38.764 10.9671 35.5984 9.35139C32.3111 7.6736 27.857 6.67261 23.0055 6.67261C18.1539 6.67261 13.6998 7.6736 10.4125 9.35139C7.19292 10.9947 4.75 13.4903 4.75 16.6021C4.75 16.7188 4.75344 16.8347 4.76023 16.9497H4.75V23C4.75 23.1167 4.75344 23.2326 4.76023 23.3476H4.75V29.3979C4.75 32.5097 7.19292 35.0053 10.4125 36.6486C13.6998 38.3264 18.1539 39.3274 23.0055 39.3274C27.857 39.3274 32.3111 38.3264 35.5984 36.6486C38.818 35.0053 41.2609 32.5097 41.2609 29.3979V16.446H41.2589ZM38.7609 21.6979C37.8682 22.5243 36.7862 23.2465 35.5984 23.8527C32.3111 25.5305 27.857 26.5315 23.0055 26.5315C18.1539 26.5315 13.6998 25.5305 10.4125 23.8527C9.22476 23.2465 8.14269 22.5243 7.25 21.6979V23C7.25 24.6817 8.61389 26.5258 11.549 28.0239C14.4165 29.4875 18.4651 30.4294 23.0055 30.4294C27.5458 30.4294 31.5944 29.4875 34.4619 28.0239C37.397 26.5258 38.7609 24.6817 38.7609 23V21.6979ZM38.7609 28.0958C37.8682 28.9222 36.7862 29.6444 35.5984 30.2507C32.3111 31.9284 27.857 32.9294 23.0055 32.9294C18.1539 32.9294 13.6998 31.9284 10.4125 30.2507C9.22476 29.6444 8.14269 28.9222 7.25 28.0958V29.3979C7.25 31.0796 8.61389 32.9238 11.549 34.4218C14.4165 35.8854 18.4651 36.8274 23.0055 36.8274C27.5458 36.8274 31.5944 35.8854 34.4619 34.4218C37.397 32.9238 38.7609 31.0796 38.7609 29.3979V28.0958Z" fill="currentColor"/>
</svg>
