<svg width="20" height="20" viewBox="0 0 20 20" fill="none" xmlns="http://www.w3.org/2000/svg">
<path d="M9.03406 12.5506V12.4541C9.04055 11.8245 9.10057 11.3235 9.21411 10.9511C9.3309 10.5788 9.49635 10.2775 9.71046 10.0473C9.92457 9.8171 10.1825 9.60722 10.4842 9.41765C10.6788 9.28901 10.854 9.14514 11.0097 8.98604C11.1654 8.82693 11.2887 8.64413 11.3796 8.43764C11.4704 8.23114 11.5158 8.00264 11.5158 7.75214C11.5158 7.45086 11.4477 7.1902 11.3114 6.97017C11.1752 6.75013 10.9935 6.58087 10.7664 6.46239C10.5426 6.34053 10.2928 6.27959 10.017 6.27959C9.76723 6.27959 9.52879 6.33376 9.3017 6.44208C9.07461 6.55041 8.88646 6.71967 8.73723 6.94986C8.588 7.17666 8.50203 7.46948 8.47932 7.82831H7C7.02271 7.21898 7.17032 6.70443 7.44282 6.28467C7.71533 5.86153 8.07543 5.54163 8.52311 5.32498C8.97405 5.10833 9.47202 5 10.017 5C10.6139 5 11.1363 5.11679 11.5839 5.35037C12.0316 5.58056 12.3788 5.90384 12.6253 6.32022C12.8751 6.73321 13 7.21559 13 7.76738C13 8.14651 12.9432 8.48842 12.8297 8.79308C12.7161 9.09436 12.5539 9.36348 12.3431 9.60044C12.1354 9.83741 11.8856 10.0473 11.5937 10.2301C11.3179 10.4095 11.0941 10.5957 10.9221 10.7886C10.7534 10.9816 10.6302 11.2101 10.5523 11.4741C10.4745 11.7382 10.4323 12.0648 10.4258 12.4541V12.5506H9.03406ZM9.76886 15.6379C9.50284 15.6379 9.27413 15.5397 9.08273 15.3434C8.89132 15.1437 8.79562 14.9033 8.79562 14.6223C8.79562 14.3448 8.89132 14.1078 9.08273 13.9115C9.27413 13.7117 9.50284 13.6119 9.76886 13.6119C10.0316 13.6119 10.2587 13.7117 10.4501 13.9115C10.6448 14.1078 10.7421 14.3448 10.7421 14.6223C10.7421 14.8085 10.6967 14.9795 10.6058 15.1352C10.5182 15.2875 10.4015 15.4094 10.2555 15.5008C10.1095 15.5922 9.94728 15.6379 9.76886 15.6379Z" fill="currentColor"/>
</svg>
