<svg xmlns="http://www.w3.org/2000/svg" width="45" height="45" viewBox="0 0 45 45" fill="none">
  <path fill-rule="evenodd" clip-rule="evenodd" d="M21.7179 23.5679C21.7179 24.2757 22.2917 24.8496 22.9995 24.8496C23.7074 24.8496 24.2812 24.2757 24.2812 23.5679V8.0773L27.5393 10.6837C28.092 11.1259 28.8986 11.0363 29.3407 10.4836C29.7829 9.93081 29.6933 9.12425 29.1406 8.68206L23.8002 4.40976C23.3321 4.03528 22.667 4.03529 22.1989 4.40977L16.8586 8.68207C16.3059 9.12427 16.2163 9.93083 16.6585 10.4836C17.1006 11.0363 17.9072 11.1259 18.4599 10.6837L21.7179 8.07733V23.5679ZM20.4759 15.9497C20.554 16.6532 20.0469 17.2869 19.3434 17.3649C15.6695 17.7726 12.5379 18.7738 10.3659 20.0878C8.15266 21.4268 7.19226 22.9129 7.19226 24.2408C7.19226 25.7865 8.51178 27.5476 11.4789 28.9986C14.361 30.4081 18.4326 31.316 22.9996 31.316C27.5667 31.316 31.6382 30.4081 34.5203 28.9986C37.4875 27.5476 38.807 25.7865 38.807 24.2408C38.807 22.913 37.8466 21.4268 35.6333 20.0878C33.4613 18.7738 30.3298 17.7726 26.6558 17.3649C25.9523 17.2869 25.4452 16.6532 25.5233 15.9497C25.6014 15.2462 26.235 14.7391 26.9385 14.8172C30.8748 15.254 34.389 16.3391 36.9602 17.8946C39.4901 19.4251 41.3703 21.5916 41.3703 24.2408C41.3703 24.3014 41.3694 24.3618 41.3674 24.4219H41.3704V30.2674C41.3704 33.5303 38.9634 36.2022 35.6972 37.9838C32.3825 39.7919 27.8908 40.8705 22.9997 40.8705C18.1085 40.8705 13.6168 39.7919 10.3022 37.9838C7.03595 36.2022 4.62896 33.5303 4.62896 30.2674V24.4219H4.63183C4.62988 24.3618 4.62891 24.3014 4.62891 24.2408C4.62891 21.5916 6.50911 19.4251 9.03905 17.8946C11.6102 16.3391 15.1244 15.254 19.0607 14.8172C19.7642 14.7391 20.3978 15.2462 20.4759 15.9497ZM35.6464 31.3014C36.8248 30.7252 37.9077 30.0358 38.807 29.2427V30.2674C38.807 32.1525 37.3885 34.1414 34.4697 35.7335C31.5993 37.2991 27.5465 38.3072 22.9997 38.3072C18.4529 38.3072 14.4 37.2991 11.5296 35.7335C8.61083 34.1414 7.19231 32.1525 7.19231 30.2674V29.2428C8.09163 30.0358 9.17449 30.7252 10.3528 31.3014C13.6557 32.9166 18.1287 33.8794 22.9996 33.8794C27.8705 33.8794 32.3435 32.9166 35.6464 31.3014Z" fill="currentColor"/>
</svg>