<svg width="24" height="24" viewBox="0 0 24 24" fill="none" xmlns="http://www.w3.org/2000/svg"><path fill-rule="evenodd" clip-rule="evenodd" d="M12 2C6.47739 2 2 6.47739 2 12C2 17.5226 6.47739 22 12 22C17.5226 22 22 17.5226 22 12C22 6.47739 17.5226 2 12 2ZM14.8565 20.5629C16.0418 20.1676 17.1178 19.5331 18.0271 18.7166C17.5618 18.3891 17.0629 18.0984 16.5356 17.8496C16.3714 18.2432 16.1917 18.6153 15.9986 18.9629C15.6641 19.565 15.2802 20.1081 14.8565 20.5629ZM18.7156 18.0282C20.0497 16.5431 20.8982 14.613 21.0114 12.4878H17.6334C17.5872 14.0953 17.3148 15.6076 16.8772 16.9323C17.4959 17.2187 18.0806 17.558 18.624 17.9438C18.6588 17.9685 18.6894 17.997 18.7156 18.0282ZM21.0114 11.5122C20.8982 9.38699 20.0496 7.45687 18.7155 5.97169C18.6893 6.00292 18.6588 6.03135 18.624 6.05606C18.0806 6.44187 17.4959 6.78115 16.8772 7.06755C17.3148 8.39234 17.5872 9.90463 17.6334 11.5122H21.0114ZM18.027 5.28329C17.1177 4.46685 16.0418 3.83235 14.8565 3.43709C15.2802 3.89194 15.6641 4.43503 15.9986 5.03708C16.1917 5.38468 16.3713 5.75676 16.5355 6.15031C17.0628 5.9015 17.5618 5.61081 18.027 5.28329ZM9.14343 3.43712C7.95813 3.83239 6.8822 4.46689 5.97296 5.28334C6.4382 5.61085 6.93713 5.90153 7.46439 6.15033C7.62863 5.75678 7.80829 5.38469 8.00138 5.03708C8.3358 4.43504 8.71973 3.89196 9.14343 3.43712ZM5.28441 5.97176C3.95035 7.45693 3.10179 9.38703 2.98857 11.5122H6.36657C6.4127 9.90464 6.68513 8.39235 7.12279 7.06757C6.50405 6.78117 5.91936 6.44188 5.37594 6.05606C5.34117 6.03137 5.31061 6.00296 5.28441 5.97176ZM2.98857 12.4878C3.10178 14.6129 3.95032 16.543 5.28435 18.0282C5.31056 17.9969 5.34114 17.9685 5.37594 17.9438C5.91934 17.558 6.50402 17.2187 7.12274 16.9323C6.68511 15.6075 6.4127 14.0953 6.36657 12.4878H2.98857ZM5.97286 18.7166C6.43811 18.389 6.93706 18.0983 7.46434 17.8495C7.62859 18.2431 7.80827 18.6153 8.00138 18.9629C8.3358 19.565 8.71974 20.108 9.14344 20.5629C7.95809 20.1676 6.88212 19.5331 5.97286 18.7166ZM15.1457 5.51082C15.3205 5.82546 15.4841 6.1642 15.6344 6.52425C14.6543 6.87769 13.5957 7.09273 12.4878 7.14175V3.03527C13.4056 3.25719 14.3597 4.09585 15.1457 5.51082ZM8.85425 5.51082C9.64024 4.09582 10.5944 3.25715 11.5122 3.03525V7.14175C10.4043 7.09274 9.34567 6.87771 8.36551 6.52427C8.51584 6.16421 8.67947 5.82547 8.85425 5.51082ZM7.3426 11.5122C7.38774 10.0289 7.63684 8.64451 8.0276 7.43952C9.11468 7.83231 10.2875 8.06849 11.5122 8.11824V11.5122H7.3426ZM8.02756 16.5603C7.63682 15.3554 7.38774 13.971 7.3426 12.4878H11.5122V15.8816C10.2875 15.9314 9.11464 16.1675 8.02756 16.5603ZM8.85425 18.4892C8.67945 18.1745 8.5158 17.8357 8.36545 17.4756C9.34562 17.1221 10.4043 16.9071 11.5122 16.8581V20.9647C10.5944 20.7428 9.64024 19.9042 8.85425 18.4892ZM15.1457 18.4892C14.3597 19.9041 13.4056 20.7428 12.4878 20.9647V16.8581C13.5957 16.9071 14.6543 17.1222 15.6345 17.4756C15.4841 17.8357 15.3205 18.1745 15.1457 18.4892ZM16.6574 12.4878C16.6122 13.9711 16.3631 15.3554 15.9724 16.5604C14.8853 16.1676 13.7125 15.9314 12.4878 15.8816V12.4878H16.6574ZM15.9723 7.4395C16.3631 8.64449 16.6122 10.0289 16.6574 11.5122H12.4878V8.11823C13.7125 8.06847 14.8853 7.83229 15.9723 7.4395Z" fill="currentColor"/></svg>
