<svg width="24" height="24" viewBox="0 0 24 24" fill="none" xmlns="http://www.w3.org/2000/svg"><path fill-rule="evenodd" clip-rule="evenodd" d="M12 22C17.5229 22 22 17.5229 22 12C22 6.47715 17.5229 2 12 2C6.47715 2 2 6.47715 2 12C2 17.5229 6.47715 22 12 22ZM6.21745 16.5333H8.49609V7.05417H6.21745V16.5333ZM10.7513 7.05417V16.5333H13.8698C14.6901 16.529 15.4323 16.3337 16.0963 15.9474C16.7647 15.5568 17.2813 15.0186 17.6459 14.3328C18.0147 13.6427 18.1992 12.8636 18.1992 11.9956V11.5594C18.1949 10.7 18.0039 9.92527 17.6263 9.23513C17.2531 8.54071 16.7322 8.00469 16.0638 7.62708C15.3954 7.24514 14.6423 7.05417 13.8047 7.05417H10.7513ZM13.0365 14.7755V8.81847H13.8047C14.4774 8.81847 14.9896 9.05067 15.3411 9.51513C15.6927 9.97953 15.8685 10.6696 15.8685 11.5854V11.9956C15.8685 12.9157 15.6927 13.6101 15.3411 14.0789C14.9896 14.5433 14.4861 14.7755 13.8307 14.7755H13.0365Z" fill="url(#paint0_linear_2502_284137)"/><defs><linearGradient id="paint0_linear_2502_284137" x1="12" y1="2" x2="12" y2="22" gradientUnits="userSpaceOnUse"><stop stop-color="#F50083"/><stop offset="1" stop-color="#720497"/></linearGradient></defs></svg>
