<svg width="48" height="48" viewBox="0 0 48 48" fill="none" xmlns="http://www.w3.org/2000/svg"><path fill-rule="evenodd" clip-rule="evenodd" d="M24 44C35.0457 44 44 35.0457 44 24C44 12.9543 35.0457 4 24 4C12.9543 4 4 12.9543 4 24C4 35.0457 12.9543 44 24 44ZM12.4349 33.0667H16.9921V14.1083H12.4349V33.0667ZM21.5027 14.1083V33.0667H27.7396C29.3803 33.058 30.8645 32.6673 32.1927 31.8948C33.5295 31.1136 34.5625 30.0372 35.2917 28.6656C36.0295 27.2855 36.3984 25.7272 36.3984 23.9912V23.1188C36.3897 21.4 36.0079 19.8505 35.2527 18.4703C34.5061 17.0814 33.4644 16.0094 32.1276 15.2542C30.7908 14.4903 29.2847 14.1083 27.6093 14.1083H21.5027ZM26.0729 29.5511V17.6369H27.6093C28.9548 17.6369 29.9792 18.1013 30.6823 19.0303C31.3855 19.9591 31.7369 21.3392 31.7369 23.1708V23.9912C31.7369 25.8315 31.3855 27.2203 30.6823 28.1579C29.9792 29.0867 28.9723 29.5511 27.6615 29.5511H26.0729Z" fill="url(#paint0_linear_309_382)"/><defs><linearGradient id="paint0_linear_309_382" x1="24" y1="4" x2="24" y2="44" gradientUnits="userSpaceOnUse"><stop stop-color="#F50083"/><stop offset="1" stop-color="#720497"/></linearGradient></defs></svg>
