<svg width="25" height="25" viewBox="0 0 25 25" xmlns="http://www.w3.org/2000/svg"><defs><linearGradient x1="99.999%" y1="100%" x2=".001%" y2="0%" id="a"><stop stop-color="#FE3876" offset="0%"/><stop stop-color="#7C30DD" offset="71.445%"/><stop stop-color="#3A30DD" offset="100%"/></linearGradient><linearGradient x1="100%" y1="100%" x2="0%" y2="0%" id="b"><stop stop-color="#FE3876" offset="0%"/><stop stop-color="#7C30DD" offset="71.445%"/><stop stop-color="#3A30DD" offset="100%"/></linearGradient></defs><g fill="none"><path d="M13.828 3.206A1.878 1.878 0 1 0 11.172.55L.55 11.172a1.878 1.878 0 0 0 0 2.656l5.311 5.31v.001a1.878 1.878 0 0 0 2.656 0l9.294-9.295 2.656 2.656-9.295 9.295a1.878 1.878 0 1 0 2.656 2.655L24.45 13.828a1.878 1.878 0 0 0 0-2.656l-5.311-5.31a1.878 1.878 0 0 0-2.655 0l-9.295 9.294L4.533 12.5l9.295-9.294Z" fill="url(#a)" opacity=".2"/><path d="M13.828 21.795a1.878 1.878 0 1 1-2.656 2.655 1.878 1.878 0 0 1 2.656-2.655Zm-5.311-5.312A1.878 1.878 0 1 1 5.86 19.14a1.878 1.878 0 0 1 2.656-2.656Zm10.622 0a1.878 1.878 0 1 1-2.655 2.656 1.878 1.878 0 0 1 2.655-2.656Zm-15.933-5.31A1.878 1.878 0 1 1 .55 13.827a1.878 1.878 0 0 1 2.655-2.656Zm10.622 0a1.878 1.878 0 1 1-2.655 2.655 1.878 1.878 0 0 1 2.655-2.656Zm10.622 0a1.878 1.878 0 1 1-2.655 2.655 1.878 1.878 0 0 1 2.655-2.656ZM8.517 5.86A1.878 1.878 0 1 1 5.86 8.517 1.878 1.878 0 0 1 8.517 5.86Zm10.622 0a1.878 1.878 0 1 1-2.656 2.656A1.878 1.878 0 0 1 19.14 5.86ZM13.828.55a1.878 1.878 0 1 1-2.656 2.656A1.878 1.878 0 0 1 13.828.55Z" fill="url(#b)"/></g></svg>
