<svg width="500" height="385" viewBox="0 0 500 385" fill="none" xmlns="http://www.w3.org/2000/svg"><path fill-rule="evenodd" clip-rule="evenodd" d="M324.251 339.077c34.421 0 62.326-27.905 62.326-62.326 0-34.422-27.905-62.326-62.326-62.326-34.422 0-62.326 27.904-62.326 62.326 0 34.421 27.904 62.326 62.326 62.326Zm0 6.925c38.246 0 69.251-31.005 69.251-69.251 0-38.246-31.005-69.251-69.251-69.251-38.246 0-69.251 31.005-69.251 69.251 0 38.246 31.005 69.251 69.251 69.251Z" fill="#000" fill-opacity=".05"/><circle cx="142.56" cy="316.06" r="7.56" fill="#000" fill-opacity=".02"/><circle cx="146.629" cy="67.129" r="3.629" fill="#000" fill-opacity=".1"/><path fill-rule="evenodd" clip-rule="evenodd" d="M111.467 246.588a7.621 7.621 0 1 0 0-15.242 7.621 7.621 0 0 0 0 15.242Zm0 .847a8.468 8.468 0 1 0 0-16.935 8.468 8.468 0 0 0 0 16.935Z" fill="#000" fill-opacity=".05"/><path opacity=".1" fill-rule="evenodd" clip-rule="evenodd" d="M284.5 85.804c18.669 0 33.804-15.135 33.804-33.804 0-18.67-15.135-33.804-33.804-33.804-18.669 0-33.804 15.135-33.804 33.804 0 18.67 15.135 33.804 33.804 33.804Zm0 6.696c22.368 0 40.5-18.132 40.5-40.5 0-22.367-18.132-40.5-40.5-40.5S244 29.633 244 52c0 22.368 18.132 40.5 40.5 40.5Z" fill="#A7DB57"/><rect opacity=".5" x="262" y="87.5" width="103" height="6" rx="3" fill="#000" fill-opacity=".2"/><path opacity=".5" d="M76 156c0 4.694 3.909 8.5 8.73 8.5h282.54c4.821 0 8.73-3.806 8.73-8.5s-3.909-8.5-8.73-8.5H84.73c-4.821 0-8.73 3.806-8.73 8.5Z" fill="#000" fill-opacity=".2"/><g opacity=".5" fill="#000" fill-opacity=".1"><path d="M325 251.786c0-.71.574-1.286 1.282-1.286h41.436c.708 0 1.282.576 1.282 1.286 0 .71-.574 1.285-1.282 1.285h-41.436a1.283 1.283 0 0 1-1.282-1.285ZM325 254.357c0-.237.191-.428.427-.428h27.34a.428.428 0 0 1 0 .857h-27.34a.428.428 0 0 1-.427-.429ZM325 256.071c0-.236.191-.428.427-.428h15.379a.428.428 0 0 1 0 .857h-15.379a.428.428 0 0 1-.427-.429Z"/></g><g opacity=".5" fill="#000" fill-opacity=".1"><path d="M172 273.786c0-.71-.574-1.286-1.282-1.286h-41.436c-.708 0-1.282.576-1.282 1.286 0 .71.574 1.285 1.282 1.285h41.436c.708 0 1.282-.575 1.282-1.285ZM172 276.357a.427.427 0 0 0-.427-.428h-27.34a.428.428 0 0 0 0 .857h27.34a.428.428 0 0 0 .427-.429ZM172 278.071a.428.428 0 0 0-.427-.428h-15.379a.428.428 0 0 0 0 .857h15.379a.428.428 0 0 0 .427-.429Z"/></g><circle cx="366" cy="129.5" r="5" fill="#000" fill-opacity=".02"/><path d="M162 48.202c0-13.643 11.321-24.702 25.286-24.702h126.428C327.679 23.5 339 34.56 339 48.202v302.596c0 13.643-11.321 24.702-25.286 24.702H187.286c-13.965 0-25.286-11.059-25.286-24.702V48.202Z" fill="#fff"/><path fill-rule="evenodd" clip-rule="evenodd" d="M187.286 25.5h126.428C326.619 25.5 337 35.708 337 48.202v302.596c0 12.494-10.381 22.702-23.286 22.702H187.286c-12.905 0-23.286-10.208-23.286-22.702V48.202c0-12.494 10.381-22.702 23.286-22.702Zm0 4h126.428C324.498 29.5 333 38.004 333 48.202v302.596c0 10.198-8.502 18.702-19.286 18.702H187.286c-10.784 0-19.286-8.504-19.286-18.702V48.202c0-10.198 8.502-18.702 19.286-18.702Z" fill="#000" fill-opacity=".3"/><path fill-rule="evenodd" clip-rule="evenodd" d="M187.286 29.5h126.428C324.498 29.5 333 38.004 333 48.202v302.596c0 10.198-8.502 18.702-19.286 18.702H187.286c-10.784 0-19.286-8.504-19.286-18.702V48.202c0-10.198 8.502-18.702 19.286-18.702Zm0 3h126.428c9.194 0 16.286 7.227 16.286 15.702v302.596c0 8.475-7.092 15.702-16.286 15.702H187.286c-9.194 0-16.286-7.227-16.286-15.702V48.202c0-8.475 7.092-15.702 16.286-15.702Z" fill="#000" fill-opacity=".6"/><rect x="178.935" y="39.83" width="9.072" height="2.419" rx="1.21" fill="#000" fill-opacity=".2"/><rect x="281.752" y="39.83" width="9.072" height="2.419" rx="1.21" fill="#000" fill-opacity=".2"/><rect x="302.316" y="39.83" width="9.072" height="2.419" rx="1.21" fill="#000" fill-opacity=".2"/><rect x="189.216" y="39.83" width="9.072" height="2.419" rx="1.21" fill="#000" fill-opacity=".2"/><rect x="292.034" y="39.83" width="9.072" height="2.419" rx="1.21" fill="#000" fill-opacity=".2"/><rect x="312.598" y="39.83" width="9.072" height="2.419" rx="1.21" fill="#000" fill-opacity=".2"/><circle cx="250.302" cy="41.04" r="4.838" fill="#000" fill-opacity=".2"/><g style="mix-blend-mode:luminosity" opacity=".5"><g opacity=".5" clip-path="url(#a)"><circle transform="matrix(-1 0 0 1 309 220.706)" fill="#3E0F18" r=".706"/><circle transform="matrix(-1 0 0 1 310.412 221.412)" fill="#229133" r=".706"/><circle transform="matrix(-1 0 0 1 307.588 221.412)" fill="#98E7E7" r=".706"/><circle transform="matrix(-1 0 0 1 309 222.353)" fill="#D13D5B" r=".706"/><circle transform="matrix(-1 0 0 1 306.176 222.353)" fill="#3E120F" r=".706"/><circle transform="matrix(-1 0 0 1 311.823 222.353)" fill="#3E120F" r=".706"/><circle transform="matrix(-1 0 0 1 310.412 223.059)" fill="#98D8E7" r=".706"/><circle transform="matrix(-1 0 0 1 307.588 223.059)" fill="#98D8E7" r=".706"/><circle transform="matrix(-1 0 0 1 309 225.647)" fill="#98D8E7" r=".706"/><circle transform="matrix(-1 0 0 1 306.176 225.647)" fill="#3E0F18" r=".706"/><circle transform="matrix(-1 0 0 1 311.823 225.647)" fill="#3E0F18" r=".706"/><circle transform="matrix(-1 0 0 1 310.412 226.353)" fill="#229133" r=".706"/><circle transform="matrix(-1 0 0 1 307.588 226.353)" fill="#98E7E7" r=".706"/><circle transform="matrix(-1 0 0 1 309 227.294)" fill="#3E120F" r=".706"/><circle transform="matrix(-1 0 0 1 309 224)" fill="#3C0F3E" r=".706"/><circle transform="matrix(-1 0 0 1 306.176 224)" fill="#229133" r=".706"/><circle transform="matrix(-1 0 0 1 311.823 224)" fill="#98E7E7" r=".706"/><circle transform="matrix(-1 0 0 1 310.412 224.706)" fill="#D13D5B" r=".706"/><circle r=".706" transform="matrix(-1 0 0 1 307.588 224.706)" fill="#D13D5B"/></g><circle opacity=".5" r="7.5" transform="matrix(-1 0 0 1 309 224)" stroke="#000" stroke-opacity=".3"/><rect opacity=".5" x="182" y="221" width="50" height="6" rx="3" fill="#000" fill-opacity=".3"/><rect opacity=".5" x="291" y="236" width="25" height="6" rx="3" fill="#000" fill-opacity=".3"/><rect opacity=".5" x="182" y="229" width="50" height="6" rx="3" fill="#000" fill-opacity=".3"/><rect opacity=".5" x="182" y="238" width="80" height="2" rx="1" fill="#000" fill-opacity=".3"/></g><g style="mix-blend-mode:luminosity" opacity=".5"><g opacity=".5" clip-path="url(#b)"><circle transform="matrix(-1 0 0 1 309 256.706)" fill="#3E0F18" r=".706"/><circle transform="matrix(-1 0 0 1 310.412 257.412)" fill="#229133" r=".706"/><circle transform="matrix(-1 0 0 1 307.588 257.412)" fill="#98E7E7" r=".706"/><circle transform="matrix(-1 0 0 1 309 258.353)" fill="#D13D5B" r=".706"/><circle transform="matrix(-1 0 0 1 306.176 258.353)" fill="#3E120F" r=".706"/><circle transform="matrix(-1 0 0 1 311.823 258.353)" fill="#3E120F" r=".706"/><circle transform="matrix(-1 0 0 1 310.412 259.059)" fill="#98D8E7" r=".706"/><circle transform="matrix(-1 0 0 1 307.588 259.059)" fill="#98D8E7" r=".706"/><circle transform="matrix(-1 0 0 1 309 261.647)" fill="#98D8E7" r=".706"/><circle transform="matrix(-1 0 0 1 306.176 261.647)" fill="#3E0F18" r=".706"/><circle transform="matrix(-1 0 0 1 311.823 261.647)" fill="#3E0F18" r=".706"/><circle transform="matrix(-1 0 0 1 310.412 262.353)" fill="#229133" r=".706"/><circle transform="matrix(-1 0 0 1 307.588 262.353)" fill="#98E7E7" r=".706"/><circle transform="matrix(-1 0 0 1 309 263.294)" fill="#3E120F" r=".706"/><circle transform="matrix(-1 0 0 1 309 260)" fill="#3C0F3E" r=".706"/><circle transform="matrix(-1 0 0 1 306.176 260)" fill="#229133" r=".706"/><circle transform="matrix(-1 0 0 1 311.823 260)" fill="#98E7E7" r=".706"/><circle transform="matrix(-1 0 0 1 310.412 260.706)" fill="#D13D5B" r=".706"/><circle r=".706" transform="matrix(-1 0 0 1 307.588 260.706)" fill="#D13D5B"/></g><circle opacity=".5" r="7.5" transform="matrix(-1 0 0 1 309 260)" stroke="#000" stroke-opacity=".3"/><rect opacity=".5" x="182" y="257" width="50" height="6" rx="3" fill="#000" fill-opacity=".3"/><rect opacity=".5" x="291" y="272" width="25" height="6" rx="3" fill="#000" fill-opacity=".3"/><rect opacity=".5" x="182" y="265" width="50" height="6" rx="3" fill="#000" fill-opacity=".3"/><rect opacity=".5" x="182" y="274" width="80" height="2" rx="1" fill="#000" fill-opacity=".3"/></g><g style="mix-blend-mode:luminosity" opacity=".5"><g opacity=".5" clip-path="url(#c)"><circle transform="matrix(-1 0 0 1 309 292.706)" fill="#3E0F18" r=".706"/><circle transform="matrix(-1 0 0 1 310.412 293.412)" fill="#229133" r=".706"/><circle transform="matrix(-1 0 0 1 307.588 293.412)" fill="#98E7E7" r=".706"/><circle transform="matrix(-1 0 0 1 309 294.353)" fill="#D13D5B" r=".706"/><circle transform="matrix(-1 0 0 1 306.176 294.353)" fill="#3E120F" r=".706"/><circle transform="matrix(-1 0 0 1 311.823 294.353)" fill="#3E120F" r=".706"/><circle transform="matrix(-1 0 0 1 310.412 295.059)" fill="#98D8E7" r=".706"/><circle transform="matrix(-1 0 0 1 307.588 295.059)" fill="#98D8E7" r=".706"/><circle transform="matrix(-1 0 0 1 309 297.647)" fill="#98D8E7" r=".706"/><circle transform="matrix(-1 0 0 1 306.176 297.647)" fill="#3E0F18" r=".706"/><circle transform="matrix(-1 0 0 1 311.823 297.647)" fill="#3E0F18" r=".706"/><circle transform="matrix(-1 0 0 1 310.412 298.353)" fill="#229133" r=".706"/><circle transform="matrix(-1 0 0 1 307.588 298.353)" fill="#98E7E7" r=".706"/><circle transform="matrix(-1 0 0 1 309 299.294)" fill="#3E120F" r=".706"/><circle transform="matrix(-1 0 0 1 309 296)" fill="#3C0F3E" r=".706"/><circle transform="matrix(-1 0 0 1 306.176 296)" fill="#229133" r=".706"/><circle transform="matrix(-1 0 0 1 311.823 296)" fill="#98E7E7" r=".706"/><circle transform="matrix(-1 0 0 1 310.412 296.706)" fill="#D13D5B" r=".706"/><circle r=".706" transform="matrix(-1 0 0 1 307.588 296.706)" fill="#D13D5B"/></g><circle opacity=".5" r="7.5" transform="matrix(-1 0 0 1 309 296)" stroke="#000" stroke-opacity=".3"/><rect opacity=".5" x="182" y="293" width="50" height="6" rx="3" fill="#000" fill-opacity=".3"/><rect opacity=".5" x="291" y="308" width="25" height="6" rx="3" fill="#000" fill-opacity=".3"/><rect opacity=".5" x="182" y="301" width="50" height="6" rx="3" fill="#000" fill-opacity=".3"/><rect opacity=".5" x="182" y="310" width="80" height="2" rx="1" fill="#000" fill-opacity=".3"/></g><g style="mix-blend-mode:luminosity" opacity=".5"><g opacity=".5" clip-path="url(#d)"><circle transform="matrix(-1 0 0 1 309 328.706)" fill="#3E0F18" r=".706"/><circle transform="matrix(-1 0 0 1 310.412 329.412)" fill="#229133" r=".706"/><circle transform="matrix(-1 0 0 1 307.588 329.412)" fill="#98E7E7" r=".706"/><circle transform="matrix(-1 0 0 1 309 330.353)" fill="#D13D5B" r=".706"/><circle transform="matrix(-1 0 0 1 306.176 330.353)" fill="#3E120F" r=".706"/><circle transform="matrix(-1 0 0 1 311.823 330.353)" fill="#3E120F" r=".706"/><circle transform="matrix(-1 0 0 1 310.412 331.059)" fill="#98D8E7" r=".706"/><circle transform="matrix(-1 0 0 1 307.588 331.059)" fill="#98D8E7" r=".706"/><circle transform="matrix(-1 0 0 1 309 333.647)" fill="#98D8E7" r=".706"/><circle transform="matrix(-1 0 0 1 306.176 333.647)" fill="#3E0F18" r=".706"/><circle transform="matrix(-1 0 0 1 311.823 333.647)" fill="#3E0F18" r=".706"/><circle transform="matrix(-1 0 0 1 310.412 334.353)" fill="#229133" r=".706"/><circle transform="matrix(-1 0 0 1 307.588 334.353)" fill="#98E7E7" r=".706"/><circle transform="matrix(-1 0 0 1 309 335.294)" fill="#3E120F" r=".706"/><circle transform="matrix(-1 0 0 1 309 332)" fill="#3C0F3E" r=".706"/><circle transform="matrix(-1 0 0 1 306.176 332)" fill="#229133" r=".706"/><circle transform="matrix(-1 0 0 1 311.823 332)" fill="#98E7E7" r=".706"/><circle transform="matrix(-1 0 0 1 310.412 332.706)" fill="#D13D5B" r=".706"/><circle r=".706" transform="matrix(-1 0 0 1 307.588 332.706)" fill="#D13D5B"/></g><circle opacity=".5" r="7.5" transform="matrix(-1 0 0 1 309 332)" stroke="#000" stroke-opacity=".3"/><rect opacity=".5" x="182" y="329" width="50" height="6" rx="3" fill="#000" fill-opacity=".3"/><rect opacity=".5" x="291" y="344" width="25" height="6" rx="3" fill="#000" fill-opacity=".3"/><rect opacity=".5" x="182" y="337" width="50" height="6" rx="3" fill="#000" fill-opacity=".3"/><rect opacity=".5" x="182" y="346" width="80" height="2" rx="1" fill="#000" fill-opacity=".3"/></g><rect x="182" y="67.5" width="135" height="135" rx="10" fill="#A7DB57"/><path d="M228.907 78.32h-3.838v3.93h3.838v-3.93ZM232.745 78.32h-3.838v3.93h3.838v-3.93ZM236.583 78.32h-3.838v3.93h3.838v-3.93ZM255.772 78.32h-3.838v3.93h3.838v-3.93ZM259.61 78.32h-3.838v3.93h3.838v-3.93Z" fill="#fff"/><path d="M263.448 78.32h-3.838v3.93h3.838v-3.93ZM236.583 82.25h-3.838v3.93h3.838v-3.93ZM240.42 82.25h-3.837v3.93h3.837v-3.93ZM244.258 82.25h-3.838v3.93h3.838v-3.93ZM248.096 82.25h-3.838v3.93h3.838v-3.93ZM251.934 82.25h-3.838v3.93h3.838v-3.93ZM259.61 82.25h-3.838v3.93h3.838v-3.93Z" fill="#fff"/><path d="M263.448 82.25h-3.838v3.93h3.838v-3.93ZM274.961 82.25h-3.838v3.93h3.838v-3.93ZM228.907 86.18h-3.838v3.93h3.838v-3.93ZM236.583 86.18h-3.838v3.93h3.838v-3.93ZM240.42 86.18h-3.837v3.93h3.837v-3.93ZM251.934 86.18h-3.838v3.93h3.838v-3.93ZM255.772 86.18h-3.838v3.93h3.838v-3.93ZM259.61 86.18h-3.838v3.93h3.838v-3.93Z" fill="#fff"/><path d="M263.448 86.18h-3.838v3.93h3.838v-3.93ZM274.961 86.18h-3.838v3.93h3.838v-3.93ZM232.745 90.11h-3.838v3.93h3.838v-3.93ZM236.583 90.11h-3.838v3.93h3.838v-3.93ZM244.258 90.11h-3.838v3.93h3.838v-3.93ZM251.934 90.11h-3.838v3.93h3.838v-3.93Z" fill="#fff"/><path d="M263.448 90.11h-3.838v3.93h3.838v-3.93ZM271.123 90.11h-3.838v3.93h3.838v-3.93ZM232.745 94.04h-3.838v3.93h3.838v-3.93ZM236.583 94.04h-3.838v3.93h3.838v-3.93ZM240.42 94.04h-3.837v3.93h3.837v-3.93ZM248.096 94.04h-3.838v3.93h3.838v-3.93ZM251.934 94.04h-3.838v3.93h3.838v-3.93ZM255.772 94.04h-3.838v3.93h3.838v-3.93ZM267.285 94.04h-3.837v3.93h3.837v-3.93ZM228.907 97.97h-3.838v3.931h3.838v-3.93Z" fill="#fff"/><path d="M236.583 97.97h-3.838v3.931h3.838v-3.93ZM240.42 97.97h-3.837v3.931h3.837v-3.93ZM244.258 97.97h-3.838v3.931h3.838v-3.93ZM255.772 97.97h-3.838v3.931h3.838v-3.93ZM263.448 97.97h-3.838v3.931h3.838v-3.93ZM267.285 97.97h-3.837v3.931h3.837v-3.93ZM228.907 101.901h-3.838v3.93h3.838v-3.93ZM236.583 101.901h-3.838v3.93h3.838v-3.93ZM244.258 101.901h-3.838v3.93h3.838v-3.93ZM251.934 101.901h-3.838v3.93h3.838v-3.93ZM259.61 101.901h-3.838v3.93h3.838v-3.93ZM267.285 101.901h-3.837v3.93h3.837v-3.93ZM274.961 101.901h-3.838v3.93h3.838v-3.93ZM232.745 105.831h-3.838v3.929h3.838v-3.929ZM240.42 105.831h-3.837v3.929h3.837v-3.929ZM244.258 105.831h-3.838v3.929h3.838v-3.929ZM251.934 105.831h-3.838v3.929h3.838v-3.929ZM255.772 105.831h-3.838v3.929h3.838v-3.929ZM259.61 105.831h-3.838v3.929h3.838v-3.929ZM271.123 105.831h-3.838v3.929h3.838v-3.929ZM274.961 105.831h-3.838v3.929h3.838v-3.929ZM198.204 109.76h-3.838v3.93h3.838v-3.93ZM205.88 109.76h-3.838v3.93h3.838v-3.93ZM221.231 109.76h-3.838v3.93h3.838v-3.93ZM225.069 109.76h-3.838v3.93h3.838v-3.93ZM248.096 109.76h-3.838v3.93h3.838v-3.93ZM251.934 109.76h-3.838v3.93h3.838v-3.93ZM274.961 109.76h-3.838v3.93h3.838v-3.93ZM286.475 109.76h-3.838v3.93h3.838v-3.93ZM297.988 109.76h-3.838v3.93h3.838v-3.93ZM305.664 109.76h-3.838v3.93h3.838v-3.93Z" fill="#fff"/><path d="M198.204 113.69h-3.838v3.93h3.838v-3.93ZM202.042 113.69h-3.838v3.93h3.838v-3.93ZM205.88 113.69h-3.838v3.93h3.838v-3.93ZM209.718 113.69h-3.838v3.93h3.838v-3.93ZM217.393 113.69h-3.838v3.93h3.838v-3.93ZM225.069 113.69h-3.838v3.93h3.838v-3.93ZM232.745 113.69h-3.838v3.93h3.838v-3.93ZM248.096 113.69h-3.838v3.93h3.838v-3.93ZM251.934 113.69h-3.838v3.93h3.838v-3.93ZM271.123 113.69h-3.838v3.93h3.838v-3.93ZM274.961 113.69h-3.838v3.93h3.838v-3.93ZM282.637 113.69h-3.838v3.93h3.838v-3.93ZM286.475 113.69h-3.838v3.93h3.838v-3.93ZM301.826 113.69h-3.838v3.93h3.838v-3.93Z" fill="#fff"/><path d="M305.664 113.69h-3.838v3.93h3.838v-3.93ZM202.042 117.62h-3.838v3.93h3.838v-3.93ZM205.88 117.62h-3.838v3.93h3.838v-3.93ZM209.718 117.62h-3.838v3.93h3.838v-3.93ZM213.555 117.62h-3.837v3.93h3.837v-3.93ZM221.231 117.62h-3.838v3.93h3.838v-3.93ZM225.069 117.62h-3.838v3.93h3.838v-3.93ZM240.42 117.62h-3.837v3.93h3.837v-3.93ZM244.258 117.62h-3.838v3.93h3.838v-3.93ZM255.772 117.62h-3.838v3.93h3.838v-3.93ZM267.285 117.62h-3.837v3.93h3.837v-3.93Z" fill="#fff"/><path d="M271.123 117.62h-3.838v3.93h3.838v-3.93ZM286.475 117.62h-3.838v3.93h3.838v-3.93ZM294.15 117.62h-3.837v3.93h3.837v-3.93ZM297.988 117.62h-3.838v3.93h3.838v-3.93ZM305.664 117.62h-3.838v3.93h3.838v-3.93ZM198.204 121.55h-3.838v3.93h3.838v-3.93ZM213.555 121.55h-3.837v3.93h3.837v-3.93ZM225.069 121.55h-3.838v3.93h3.838v-3.93ZM228.907 121.55h-3.838v3.93h3.838v-3.93ZM232.745 121.55h-3.838v3.93h3.838v-3.93ZM236.583 121.55h-3.838v3.93h3.838v-3.93ZM240.42 121.55h-3.837v3.93h3.837v-3.93ZM244.258 121.55h-3.838v3.93h3.838v-3.93ZM248.096 121.55h-3.838v3.93h3.838v-3.93Z" fill="#fff"/><path d="M267.285 121.55h-3.837v3.93h3.837v-3.93ZM278.799 121.55h-3.838v3.93h3.838v-3.93ZM286.475 121.55h-3.838v3.93h3.838v-3.93Z" fill="#fff"/><path d="M290.313 121.55h-3.838v3.93h3.838v-3.93ZM294.15 121.55h-3.837v3.93h3.837v-3.93ZM213.555 125.48h-3.837v3.93h3.837v-3.93ZM217.393 125.48h-3.838v3.93h3.838v-3.93ZM221.231 125.48h-3.838v3.93h3.838v-3.93ZM225.069 125.48h-3.838v3.93h3.838v-3.93ZM232.745 125.48h-3.838v3.93h3.838v-3.93ZM236.583 125.48h-3.838v3.93h3.838v-3.93ZM248.096 125.48h-3.838v3.93h3.838v-3.93ZM255.772 125.48h-3.838v3.93h3.838v-3.93ZM259.61 125.48h-3.838v3.93h3.838v-3.93ZM274.961 125.48h-3.838v3.93h3.838v-3.93ZM282.637 125.48h-3.838v3.93h3.838v-3.93Z" fill="#fff"/><path d="M286.475 125.48h-3.838v3.93h3.838v-3.93ZM305.664 125.48h-3.838v3.93h3.838v-3.93ZM209.718 129.41h-3.838v3.93h3.838v-3.93ZM213.555 129.41h-3.837v3.93h3.837v-3.93ZM232.745 129.41h-3.838v3.93h3.838v-3.93ZM240.42 129.41h-3.837v3.93h3.837v-3.93ZM259.61 129.41h-3.838v3.93h3.838v-3.93Z" fill="#fff"/><path d="M263.448 129.41h-3.838v3.93h3.838v-3.93ZM271.123 129.41h-3.838v3.93h3.838v-3.93ZM274.961 129.41h-3.838v3.93h3.838v-3.93ZM282.637 129.41h-3.838v3.93h3.838v-3.93ZM301.826 129.41h-3.838v3.93h3.838v-3.93Z" fill="#fff"/><path d="M305.664 129.41h-3.838v3.93h3.838v-3.93ZM198.204 133.34h-3.838v3.93h3.838v-3.93ZM202.042 133.34h-3.838v3.93h3.838v-3.93ZM213.555 133.34h-3.837v3.93h3.837v-3.93ZM221.231 133.34h-3.838v3.93h3.838v-3.93ZM232.745 133.34h-3.838v3.93h3.838v-3.93ZM244.258 133.34h-3.838v3.93h3.838v-3.93ZM248.096 133.34h-3.838v3.93h3.838v-3.93ZM251.934 133.34h-3.838v3.93h3.838v-3.93ZM259.61 133.34h-3.838v3.93h3.838v-3.93ZM271.123 133.34h-3.838v3.93h3.838v-3.93ZM274.961 133.34h-3.838v3.93h3.838v-3.93ZM282.637 133.34h-3.838v3.93h3.838v-3.93ZM305.664 133.34h-3.838v3.93h3.838v-3.93ZM209.718 137.27h-3.838v3.93h3.838v-3.93ZM217.393 137.27h-3.838v3.93h3.838v-3.93ZM228.907 137.27h-3.838v3.93h3.838v-3.93ZM251.934 137.27h-3.838v3.93h3.838v-3.93ZM255.772 137.27h-3.838v3.93h3.838v-3.93ZM259.61 137.27h-3.838v3.93h3.838v-3.93ZM267.285 137.27h-3.837v3.93h3.837v-3.93ZM274.961 137.27h-3.838v3.93h3.838v-3.93Z" fill="#fff"/><path d="M278.799 137.27h-3.838v3.93h3.838v-3.93ZM286.475 137.27h-3.838v3.93h3.838v-3.93ZM198.204 141.2h-3.838v3.93h3.838v-3.93ZM202.042 141.2h-3.838v3.93h3.838v-3.93ZM205.88 141.2h-3.838v3.93h3.838v-3.93ZM213.555 141.2h-3.837v3.93h3.837v-3.93ZM217.393 141.2h-3.838v3.93h3.838v-3.93ZM221.231 141.2h-3.838v3.93h3.838v-3.93ZM225.069 141.2h-3.838v3.93h3.838v-3.93ZM232.745 141.2h-3.838v3.93h3.838v-3.93ZM236.583 141.2h-3.838v3.93h3.838v-3.93ZM240.42 141.2h-3.837v3.93h3.837v-3.93ZM244.258 141.2h-3.838v3.93h3.838v-3.93ZM248.096 141.2h-3.838v3.93h3.838v-3.93ZM251.934 141.2h-3.838v3.93h3.838v-3.93ZM259.61 141.2h-3.838v3.93h3.838v-3.93Z" fill="#fff"/><path d="M274.961 141.2h-3.838v3.93h3.838v-3.93ZM282.637 141.2h-3.838v3.93h3.838v-3.93ZM305.664 141.2h-3.838v3.93h3.838v-3.93ZM202.042 145.13h-3.838v3.93h3.838v-3.93ZM213.555 145.13h-3.837v3.93h3.837v-3.93ZM225.069 145.13h-3.838v3.93h3.838v-3.93ZM228.907 145.13h-3.838v3.93h3.838v-3.93ZM232.745 145.13h-3.838v3.93h3.838v-3.93ZM240.42 145.13h-3.837v3.93h3.837v-3.93ZM248.096 145.13h-3.838v3.93h3.838v-3.93ZM251.934 145.13h-3.838v3.93h3.838v-3.93ZM263.448 145.13h-3.838v3.93h3.838v-3.93ZM271.123 145.13h-3.838v3.93h3.838v-3.93ZM274.961 145.13h-3.838v3.93h3.838v-3.93ZM282.637 145.13h-3.838v3.93h3.838v-3.93ZM286.475 145.13h-3.838v3.93h3.838v-3.93ZM297.988 145.13h-3.838v3.93h3.838v-3.93ZM301.826 145.13h-3.838v3.93h3.838v-3.93Z" fill="#fff"/><path d="M305.664 145.13h-3.838v3.93h3.838v-3.93ZM198.204 149.06h-3.838v3.93h3.838v-3.93ZM202.042 149.06h-3.838v3.93h3.838v-3.93ZM213.555 149.06h-3.837v3.93h3.837v-3.93ZM217.393 149.06h-3.838v3.93h3.838v-3.93ZM221.231 149.06h-3.838v3.93h3.838v-3.93ZM225.069 149.06h-3.838v3.93h3.838v-3.93ZM232.745 149.06h-3.838v3.93h3.838v-3.93ZM236.583 149.06h-3.838v3.93h3.838v-3.93ZM240.42 149.06h-3.837v3.93h3.837v-3.93ZM255.772 149.06h-3.838v3.93h3.838v-3.93ZM259.61 149.06h-3.838v3.93h3.838v-3.93Z" fill="#fff"/><path d="M263.448 149.06h-3.838v3.93h3.838v-3.93ZM271.123 149.06h-3.838v3.93h3.838v-3.93ZM294.15 149.06h-3.837v3.93h3.837v-3.93ZM305.664 149.06h-3.838v3.93h3.838v-3.93ZM213.555 152.99h-3.837v3.93h3.837v-3.93ZM217.393 152.99h-3.838v3.93h3.838v-3.93ZM232.745 152.99h-3.838v3.93h3.838v-3.93ZM236.583 152.99h-3.838v3.93h3.838v-3.93ZM244.258 152.99h-3.838v3.93h3.838v-3.93ZM248.096 152.99h-3.838v3.93h3.838v-3.93ZM259.61 152.99h-3.838v3.93h3.838v-3.93ZM267.285 152.99h-3.837v3.93h3.837v-3.93ZM278.799 152.99h-3.838v3.93h3.838v-3.93ZM286.475 152.99h-3.838v3.93h3.838v-3.93ZM198.204 156.92h-3.838v3.93h3.838v-3.93ZM202.042 156.92h-3.838v3.93h3.838v-3.93ZM209.718 156.92h-3.838v3.93h3.838v-3.93Z" fill="#fff"/><path d="M213.555 156.92h-3.837v3.93h3.837v-3.93ZM221.231 156.92h-3.838v3.93h3.838v-3.93ZM225.069 156.92h-3.838v3.93h3.838v-3.93ZM236.583 156.92h-3.838v3.93h3.838v-3.93ZM240.42 156.92h-3.837v3.93h3.837v-3.93ZM248.096 156.92h-3.838v3.93h3.838v-3.93ZM255.772 156.92h-3.838v3.93h3.838v-3.93ZM267.285 156.92h-3.837v3.93h3.837v-3.93ZM274.961 156.92h-3.838v3.93h3.838v-3.93Z" fill="#fff"/><path d="M278.799 156.92h-3.838v3.93h3.838v-3.93ZM282.637 156.92h-3.838v3.93h3.838v-3.93ZM286.475 156.92h-3.838v3.93h3.838v-3.93Z" fill="#fff"/><path d="M290.313 156.92h-3.838v3.93h3.838v-3.93ZM294.15 156.92h-3.837v3.93h3.837v-3.93ZM301.826 156.92h-3.838v3.93h3.838v-3.93ZM228.907 160.85h-3.838v3.93h3.838v-3.93ZM232.745 160.85h-3.838v3.93h3.838v-3.93ZM236.583 160.85h-3.838v3.93h3.838v-3.93ZM240.42 160.85h-3.837v3.93h3.837v-3.93ZM244.258 160.85h-3.838v3.93h3.838v-3.93ZM255.772 160.85h-3.838v3.93h3.838v-3.93ZM263.448 160.85h-3.838v3.93h3.838v-3.93ZM271.123 160.85h-3.838v3.93h3.838v-3.93ZM274.961 160.85h-3.838v3.93h3.838v-3.93ZM290.313 160.85h-3.838v3.93h3.838v-3.93ZM294.15 160.85h-3.837v3.93h3.837v-3.93ZM297.988 160.85h-3.838v3.93h3.838v-3.93ZM305.664 160.85h-3.838v3.93h3.838v-3.93ZM228.907 164.78h-3.838v3.93h3.838v-3.93ZM232.745 164.78h-3.838v3.93h3.838v-3.93ZM236.583 164.78h-3.838v3.93h3.838v-3.93ZM240.42 164.78h-3.837v3.93h3.837v-3.93ZM244.258 164.78h-3.838v3.93h3.838v-3.93ZM248.096 164.78h-3.838v3.93h3.838v-3.93ZM251.934 164.78h-3.838v3.93h3.838v-3.93ZM255.772 164.78h-3.838v3.93h3.838v-3.93ZM274.961 164.78h-3.838v3.93h3.838v-3.93ZM282.637 164.78h-3.838v3.93h3.838v-3.93ZM290.313 164.78h-3.838v3.93h3.838v-3.93ZM305.664 164.78h-3.838v3.93h3.838v-3.93ZM236.583 168.71h-3.838v3.93h3.838v-3.93ZM240.42 168.71h-3.837v3.93h3.837v-3.93ZM244.258 168.71h-3.838v3.93h3.838v-3.93ZM251.934 168.71h-3.838v3.93h3.838v-3.93ZM255.772 168.71h-3.838v3.93h3.838v-3.93ZM267.285 168.71h-3.837v3.93h3.837v-3.93Z" fill="#fff"/><path d="M271.123 168.71h-3.838v3.93h3.838v-3.93ZM274.961 168.71h-3.838v3.93h3.838v-3.93ZM290.313 168.71h-3.838v3.93h3.838v-3.93ZM232.745 172.64h-3.838v3.93h3.838v-3.93ZM236.583 172.64h-3.838v3.93h3.838v-3.93ZM240.42 172.64h-3.837v3.93h3.837v-3.93ZM244.258 172.64h-3.838v3.93h3.838v-3.93ZM248.096 172.64h-3.838v3.93h3.838v-3.93ZM251.934 172.64h-3.838v3.93h3.838v-3.93ZM255.772 172.64h-3.838v3.93h3.838v-3.93Z" fill="#fff"/><path d="M267.285 172.64h-3.837v3.93h3.837v-3.93Z" fill="#fff"/><path d="M271.123 172.64h-3.838v3.93h3.838v-3.93ZM274.961 172.64h-3.838v3.93h3.838v-3.93Z" fill="#fff"/><path d="M278.799 172.64h-3.838v3.93h3.838v-3.93ZM282.637 172.64h-3.838v3.93h3.838v-3.93ZM286.475 172.64h-3.838v3.93h3.838v-3.93Z" fill="#fff"/><path d="M290.313 172.64h-3.838v3.93h3.838v-3.93ZM294.15 172.64h-3.837v3.93h3.837v-3.93ZM301.826 172.64h-3.838v3.93h3.838v-3.93Z" fill="#fff"/><path d="M305.664 172.64h-3.838v3.93h3.838v-3.93ZM232.745 176.57h-3.838v3.93h3.838v-3.93ZM236.583 176.57h-3.838v3.93h3.838v-3.93ZM240.42 176.57h-3.837v3.93h3.837v-3.93ZM244.258 176.57h-3.838v3.93h3.838v-3.93ZM248.096 176.57h-3.838v3.93h3.838v-3.93ZM251.934 176.57h-3.838v3.93h3.838v-3.93ZM255.772 176.57h-3.838v3.93h3.838v-3.93ZM267.285 176.57h-3.837v3.93h3.837v-3.93ZM274.961 176.57h-3.838v3.93h3.838v-3.93Z" fill="#fff"/><path d="M278.799 176.57h-3.838v3.93h3.838v-3.93ZM286.475 176.57h-3.838v3.93h3.838v-3.93Z" fill="#fff"/><path d="M290.313 176.57h-3.838v3.93h3.838v-3.93ZM294.15 176.57h-3.837v3.93h3.837v-3.93ZM297.988 176.57h-3.838v3.93h3.838v-3.93ZM305.664 176.57h-3.838v3.93h3.838v-3.93ZM228.907 180.5h-3.838v3.93h3.838v-3.93ZM232.745 180.5h-3.838v3.93h3.838v-3.93ZM236.583 180.5h-3.838v3.93h3.838v-3.93ZM255.772 180.5h-3.838v3.93h3.838v-3.93ZM267.285 180.5h-3.837v3.93h3.837v-3.93Z" fill="#fff"/><path d="M271.123 180.5h-3.838v3.93h3.838v-3.93ZM274.961 180.5h-3.838v3.93h3.838v-3.93Z" fill="#fff"/><path d="M278.799 180.5h-3.838v3.93h3.838v-3.93ZM290.313 180.5h-3.838v3.93h3.838v-3.93ZM301.826 180.5h-3.838v3.93h3.838v-3.93Z" fill="#fff"/><path d="M305.664 180.5h-3.838v3.93h3.838v-3.93ZM232.745 184.43h-3.838v3.93h3.838v-3.93ZM240.42 184.43h-3.837v3.93h3.837v-3.93ZM244.258 184.43h-3.838v3.93h3.838v-3.93ZM251.934 184.43h-3.838v3.93h3.838v-3.93ZM259.61 184.43h-3.838v3.93h3.838v-3.93ZM271.123 184.43h-3.838v3.93h3.838v-3.93ZM274.961 184.43h-3.838v3.93h3.838v-3.93Z" fill="#fff"/><path d="M278.799 184.43h-3.838v3.93h3.838v-3.93ZM282.637 184.43h-3.838v3.93h3.838v-3.93ZM286.475 184.43h-3.838v3.93h3.838v-3.93Z" fill="#fff"/><path d="M290.313 184.43h-3.838v3.93h3.838v-3.93ZM294.15 184.43h-3.837v3.93h3.837v-3.93ZM228.907 188.36h-3.838v3.93h3.838v-3.93ZM232.745 188.36h-3.838v3.93h3.838v-3.93ZM236.583 188.36h-3.838v3.93h3.838v-3.93ZM244.258 188.36h-3.838v3.93h3.838v-3.93ZM251.934 188.36h-3.838v3.93h3.838v-3.93ZM255.772 188.36h-3.838v3.93h3.838v-3.93ZM267.285 188.36h-3.837v3.93h3.837v-3.93ZM274.961 188.36h-3.838v3.93h3.838v-3.93ZM290.313 188.36h-3.838v3.93h3.838v-3.93ZM305.664 188.36h-3.838v3.93h3.838v-3.93ZM194.366 78.32v27.511h26.865v-27.51h-26.865Zm22.835 23.384h-18.805V82.447h18.805v19.257ZM278.799 78.32v27.511h26.865v-27.51h-26.865Zm22.835 23.384h-18.805V82.447h18.805v19.257ZM194.366 164.78v27.51h26.865v-27.51h-26.865Zm22.835 23.383h-18.805v-19.257h18.805v19.257Z" fill="#fff"/><path d="M213.555 86.18h-11.513v11.79h11.513V86.18ZM297.988 86.18h-11.513v11.79h11.513V86.18ZM213.555 172.64h-11.513v11.79h11.513v-11.79Z" fill="#fff"/><defs><clipPath id="a"><path fill="#fff" transform="matrix(-1 0 0 1 313 220)" d="M0 0h8v8H0z"/></clipPath><clipPath id="b"><path fill="#fff" transform="matrix(-1 0 0 1 313 256)" d="M0 0h8v8H0z"/></clipPath><clipPath id="c"><path fill="#fff" transform="matrix(-1 0 0 1 313 292)" d="M0 0h8v8H0z"/></clipPath><clipPath id="d"><path fill="#fff" transform="matrix(-1 0 0 1 313 328)" d="M0 0h8v8H0z"/></clipPath></defs></svg>