<svg width="133" height="57" viewBox="0 0 133 57" fill="none" xmlns="http://www.w3.org/2000/svg"><path fill-rule="evenodd" clip-rule="evenodd" d="M56.6668 30.5C61.4358 30.5 65.3028 23.7843 65.3028 15.5C65.3028 7.21573 61.4358 0.5 56.6668 0.5C51.8968 0.5 48.0298 7.21573 48.0298 15.5C48.0298 23.7843 51.8968 30.5 56.6668 30.5ZM53.2118 22.3182C55.9738 22.3182 58.2118 19.8761 58.2118 16.8636C58.2118 13.8512 55.9738 11.4091 53.2118 11.4091C50.4508 11.4091 48.2118 13.8512 48.2118 16.8636C48.2118 19.8761 50.4508 22.3182 53.2118 22.3182ZM52.7578 13.9546C52.7578 14.6575 52.1878 15.2273 51.4848 15.2273C50.7818 15.2273 50.2118 14.6575 50.2118 13.9546C50.2118 13.2517 50.7818 12.6818 51.4848 12.6818C52.1878 12.6818 52.7578 13.2517 52.7578 13.9546ZM76.6668 30.5C81.4358 30.5 85.3028 23.7843 85.3028 15.5C85.3028 7.21573 81.4358 0.5 76.6668 0.5C71.8968 0.5 68.0298 7.21573 68.0298 15.5C68.0298 23.7843 71.8968 30.5 76.6668 30.5ZM73.2118 22.3182C75.9738 22.3182 78.2118 19.8761 78.2118 16.8636C78.2118 13.8512 75.9738 11.4091 73.2118 11.4091C70.4508 11.4091 68.2118 13.8512 68.2118 16.8636C68.2118 19.8761 70.4508 22.3182 73.2118 22.3182ZM72.7578 13.9546C72.7578 14.6575 72.1878 15.2273 71.4848 15.2273C70.7818 15.2273 70.2118 14.6575 70.2118 13.9546C70.2118 13.2517 70.7818 12.6818 71.4848 12.6818C72.1878 12.6818 72.7578 13.2517 72.7578 13.9546Z" fill="#333333"/><path d="M5.97708 52.5L0.913086 35.148H3.79308L7.30908 47.676L10.8371 35.148H13.0211L16.5731 47.676L20.1011 35.148H22.9931L17.8931 52.5H15.4331L11.9291 40.2L8.37708 52.5H5.97708ZM27.5671 52.74C26.7751 52.74 26.0631 52.596 25.4311 52.308C24.8071 52.012 24.3151 51.592 23.9551 51.048C23.6031 50.496 23.4271 49.828 23.4271 49.044C23.4271 47.676 23.9191 46.644 24.9031 45.948C25.8951 45.252 27.4711 44.888 29.6311 44.856L31.4911 44.808V43.968C31.4911 43.312 31.2951 42.8 30.9031 42.432C30.5191 42.056 29.9191 41.872 29.1031 41.88C28.4951 41.888 27.9431 42.032 27.4471 42.312C26.9511 42.584 26.6231 43.044 26.4631 43.692H23.9791C24.0271 42.844 24.2711 42.136 24.7111 41.568C25.1591 40.992 25.7711 40.564 26.5471 40.284C27.3231 39.996 28.2191 39.852 29.2351 39.852C30.4191 39.852 31.3831 40.008 32.1271 40.32C32.8711 40.632 33.4191 41.084 33.7711 41.676C34.1231 42.26 34.2991 42.968 34.2991 43.8V52.5H31.8391L31.5991 50.268C31.1591 51.204 30.5951 51.852 29.9071 52.212C29.2271 52.564 28.4471 52.74 27.5671 52.74ZM28.5151 50.76C28.8751 50.76 29.2311 50.696 29.5831 50.568C29.9351 50.432 30.2511 50.252 30.5311 50.028C30.8191 49.796 31.0471 49.54 31.2151 49.26C31.3911 48.98 31.4831 48.688 31.4911 48.384V46.428L29.9671 46.452C29.2151 46.46 28.5551 46.54 27.9871 46.692C27.4271 46.844 26.9911 47.088 26.6791 47.424C26.3671 47.752 26.2111 48.192 26.2111 48.744C26.2111 49.376 26.4311 49.872 26.8711 50.232C27.3111 50.584 27.8591 50.76 28.5151 50.76ZM41.9201 52.596C40.9361 52.596 40.1721 52.468 39.6281 52.212C39.0921 51.948 38.7201 51.576 38.5121 51.096C38.3041 50.616 38.2001 50.044 38.2001 49.38V42.156H36.1841V40.092H38.2841L39.0161 36.408H41.1161V40.08H43.8881V42.156H41.1161L41.1281 49.272C41.1281 49.64 41.1681 49.912 41.2481 50.088C41.3361 50.256 41.4721 50.368 41.6561 50.424C41.8481 50.472 42.1001 50.496 42.4121 50.496H43.9481V52.344C43.7801 52.408 43.5321 52.464 43.2041 52.512C42.8841 52.568 42.4561 52.596 41.9201 52.596ZM51.4761 52.74C50.3401 52.74 49.3281 52.492 48.4401 51.996C47.5601 51.492 46.8681 50.764 46.3641 49.812C45.8601 48.852 45.6081 47.696 45.6081 46.344C45.6081 45.056 45.8441 43.928 46.3161 42.96C46.7961 41.984 47.4721 41.224 48.3441 40.68C49.2241 40.128 50.2681 39.852 51.4761 39.852C52.4441 39.852 53.2961 40.044 54.0321 40.428C54.7681 40.812 55.3561 41.344 55.7961 42.024C56.2441 42.704 56.5121 43.476 56.6001 44.34H54.1161C54.0521 43.964 53.9121 43.608 53.6961 43.272C53.4801 42.928 53.1881 42.652 52.8201 42.444C52.4601 42.228 52.0201 42.12 51.5001 42.12C50.5641 42.12 49.8081 42.464 49.2321 43.152C48.6561 43.84 48.3681 44.896 48.3681 46.32C48.3681 47.632 48.6401 48.676 49.1841 49.452C49.7361 50.228 50.5241 50.616 51.5481 50.616C52.0601 50.616 52.5001 50.504 52.8681 50.28C53.2361 50.048 53.5241 49.764 53.7321 49.428C53.9481 49.084 54.0841 48.74 54.1401 48.396H56.5641C56.4921 49.236 56.2321 49.984 55.7841 50.64C55.3361 51.296 54.7441 51.812 54.0081 52.188C53.2721 52.556 52.4281 52.74 51.4761 52.74ZM59.2521 52.5V34.668H62.1321V41.892C62.3321 41.58 62.5961 41.28 62.9241 40.992C63.2521 40.696 63.6521 40.456 64.1241 40.272C64.6041 40.08 65.1761 39.984 65.8401 39.984C66.6321 39.984 67.3561 40.136 68.0121 40.44C68.6681 40.744 69.1921 41.184 69.5841 41.76C69.9761 42.328 70.1721 43.008 70.1721 43.8V52.5H67.2441V44.292C67.2441 43.652 67.0161 43.156 66.5601 42.804C66.1121 42.452 65.5441 42.276 64.8561 42.276C64.4001 42.276 63.9641 42.356 63.5481 42.516C63.1321 42.676 62.7961 42.916 62.5401 43.236C62.2921 43.548 62.1681 43.94 62.1681 44.412V52.5H59.2521ZM73.0991 47.412V45.228L79.4351 45.216V47.4L73.0991 47.412ZM89.9051 52.74C88.3051 52.74 86.9211 52.388 85.7531 51.684C84.5931 50.98 83.6931 49.964 83.0531 48.636C82.4211 47.308 82.1051 45.716 82.1051 43.86C82.1051 41.988 82.4251 40.384 83.0651 39.048C83.7051 37.712 84.6091 36.688 85.7771 35.976C86.9531 35.264 88.3291 34.908 89.9051 34.908C91.4811 34.908 92.8451 35.264 93.9971 35.976C95.1571 36.688 96.0531 37.712 96.6851 39.048C97.3171 40.384 97.6331 41.988 97.6331 43.86C97.6331 45.716 97.3211 47.308 96.6971 48.636C96.0731 49.956 95.1811 50.972 94.0211 51.684C92.8611 52.388 91.4891 52.74 89.9051 52.74ZM89.9051 50.292C90.8491 50.292 91.6611 50.072 92.3411 49.632C93.0211 49.184 93.5411 48.492 93.9011 47.556C94.2691 46.612 94.4531 45.392 94.4531 43.896C94.4531 42.376 94.2691 41.136 93.9011 40.176C93.5331 39.208 93.0091 38.496 92.3291 38.04C91.6491 37.584 90.8411 37.356 89.9051 37.356C88.9611 37.356 88.1451 37.588 87.4571 38.052C86.7771 38.508 86.2491 39.22 85.8731 40.188C85.4971 41.148 85.3091 42.384 85.3091 43.896C85.3091 45.392 85.4971 46.612 85.8731 47.556C86.2491 48.492 86.7771 49.184 87.4571 49.632C88.1451 50.072 88.9611 50.292 89.9051 50.292ZM100.245 52.5V40.092H103.101V41.868C103.293 41.548 103.553 41.24 103.881 40.944C104.217 40.648 104.629 40.408 105.117 40.224C105.605 40.04 106.177 39.948 106.833 39.948C107.601 39.948 108.313 40.1 108.969 40.404C109.633 40.708 110.165 41.184 110.565 41.832C110.973 42.48 111.177 43.316 111.177 44.34V52.5H108.249V44.688C108.249 43.872 108.025 43.268 107.577 42.876C107.129 42.476 106.565 42.276 105.885 42.276C105.421 42.276 104.981 42.356 104.565 42.516C104.149 42.668 103.809 42.904 103.545 43.224C103.289 43.536 103.161 43.928 103.161 44.4V52.5H100.245ZM117.883 52.68C117.083 52.68 116.443 52.58 115.963 52.38C115.483 52.18 115.123 51.912 114.883 51.576C114.643 51.24 114.487 50.864 114.415 50.448C114.343 50.024 114.307 49.592 114.307 49.152V34.668H117.163V48.816C117.163 49.352 117.271 49.768 117.487 50.064C117.711 50.36 118.071 50.532 118.567 50.58L119.191 50.604V52.44C118.975 52.504 118.755 52.56 118.531 52.608C118.307 52.656 118.091 52.68 117.883 52.68ZM122.982 56.46C122.182 56.46 121.626 56.396 121.314 56.268C121.002 56.148 120.846 56.088 120.846 56.088V54.216L122.094 54.252C122.598 54.276 123.006 54.248 123.318 54.168C123.638 54.088 123.886 53.976 124.062 53.832C124.238 53.696 124.366 53.548 124.446 53.388C124.534 53.236 124.602 53.104 124.65 52.992L124.974 52.08L120.138 40.092H123.042L126.342 48.864L129.63 40.092H132.486L127.374 52.956C126.99 53.892 126.574 54.612 126.126 55.116C125.686 55.628 125.202 55.98 124.674 56.172C124.154 56.364 123.59 56.46 122.982 56.46Z" fill="#333333"/></svg>
