<svg width="24" height="24" viewBox="0 0 24 24" fill="none" xmlns="http://www.w3.org/2000/svg"><path d="M3 15.2461V13.1257H5.03063C5.01327 12.829 5.00459 12.5148 5.00459 12.1832V11.8168C5.00459 11.6248 5.00459 11.4415 5.00459 11.267H3.46861V9.1466H5.18683C5.84635 4.3822 8.35426 2 12.7106 2C14.2899 2 15.5916 2.27923 16.6156 2.8377C17.6396 3.37871 18.4119 4.13787 18.9326 5.11518C19.4533 6.07504 19.7397 7.18325 19.7917 8.43979H16.0949C16.0255 7.51483 15.7218 6.78185 15.1838 6.24084C14.6631 5.68237 13.8387 5.40314 12.7106 5.40314C11.6172 5.40314 10.7667 5.69983 10.1593 6.29319C9.55181 6.88656 9.13527 7.8377 8.90965 9.1466H14.5069V11.267H8.72741C8.72741 11.4939 8.72741 11.7382 8.72741 12C8.72741 12.4014 8.73609 12.7766 8.75344 13.1257H14.0383V15.2461H9.01378C9.27412 16.4154 9.71669 17.2705 10.3415 17.8115C10.9837 18.3351 11.8341 18.5969 12.8928 18.5969C14.0383 18.5969 14.88 18.3264 15.4181 17.7853C15.9561 17.2269 16.2511 16.4852 16.3032 15.5602H20C19.9479 16.8168 19.6616 17.9337 19.1409 18.911C18.6202 19.8709 17.8479 20.63 16.8239 21.1885C15.7999 21.7295 14.4895 22 12.8928 22C8.57121 22 6.01991 19.7487 5.2389 15.2461H3Z" fill="currentColor"/></svg>
