<svg width="24" height="24" viewBox="0 0 24 24" fill="none" xmlns="http://www.w3.org/2000/svg"><path d="M5 22V18.6532H6.71223V13.552H5.15108V10.664H6.71223V8.88259C6.71223 6.66937 7.33333 4.96896 8.57554 3.78138C9.83453 2.59379 11.5384 2 13.687 2C14.0564 2 14.5012 2.01799 15.0216 2.05398C15.5588 2.07198 16.0875 2.10796 16.6079 2.16194C17.1283 2.19793 17.5396 2.23392 17.8417 2.26991V5.77868C17.5228 5.74269 17.0947 5.7067 16.5576 5.67072C16.0372 5.61673 15.5084 5.58075 14.9712 5.56275C14.4341 5.52677 14.006 5.50877 13.687 5.50877C12.4784 5.50877 11.6223 5.81467 11.1187 6.42645C10.6319 7.02024 10.3885 7.90193 10.3885 9.07153V10.664H16.2806V13.552H10.3885V18.6532H15.8525V16.278H19V22H5Z" fill="currentColor"/></svg>
