<svg width="24" height="24" viewBox="0 0 24 24" fill="none" xmlns="http://www.w3.org/2000/svg"><path d="M11.8795 20.22C9.94364 20.22 8.37262 19.8387 7.16643 19.076C5.96025 18.306 5.26781 17.1217 5.08911 15.523L8.4843 15.457C8.66299 16.183 9.04644 16.7367 9.63464 17.118C10.2303 17.492 10.9748 17.679 11.8683 17.679C12.4044 17.679 12.8772 17.5947 13.2867 17.426C13.7037 17.25 14.0313 17.0154 14.2695 16.722C14.5078 16.4214 14.6269 16.0804 14.6269 15.699C14.6269 15.1124 14.437 14.676 14.0573 14.39C13.6776 14.0967 13.0931 13.862 12.3039 13.686L9.65698 13.125C8.42846 12.883 7.44192 12.4027 6.69736 11.684C5.96025 10.958 5.58424 9.98635 5.56935 8.76902C5.56191 7.77168 5.83367 6.91002 6.38464 6.18402C6.94306 5.45068 7.69879 4.88602 8.65183 4.49002C9.61231 4.09402 10.6882 3.89602 11.8795 3.89602C13.1006 3.89602 14.1541 4.11235 15.0401 4.54502C15.9336 4.97035 16.6186 5.54602 17.0951 6.27202C17.5791 6.99068 17.8136 7.78635 17.7987 8.65902L14.5041 8.71402C14.3998 8.01002 14.1616 7.45635 13.7893 7.05302C13.417 6.64968 12.799 6.44802 11.9353 6.44802C11.4886 6.44802 11.0903 6.49568 10.7403 6.59102C10.3904 6.68635 10.0888 6.82202 9.83568 6.99802C9.58252 7.16668 9.38894 7.36835 9.25492 7.60302C9.12834 7.83768 9.06506 8.10168 9.06506 8.39502C9.06506 8.85702 9.22141 9.22368 9.53413 9.49502C9.85429 9.75902 10.4537 10.0047 11.3322 10.232L13.9345 10.859C15.4013 11.2037 16.4585 11.794 17.1063 12.63C17.7615 13.466 18.0891 14.4817 18.0891 15.677C18.0891 16.5937 17.8322 17.393 17.3185 18.075C16.8122 18.757 16.0937 19.285 15.163 19.659C14.2323 20.033 13.1378 20.22 11.8795 20.22ZM10.4276 2H13.2532L13.309 4.67702H10.4834L10.4276 2ZM10.4276 19.241H13.242V22H10.4276V19.241Z" fill="currentColor"/></svg>
