<svg width="24" height="24" viewBox="0 0 24 24" fill="none" xmlns="http://www.w3.org/2000/svg"><path fill-rule="evenodd" clip-rule="evenodd" d="M16.1442 11.5435L16.1316 11.5426C16.0572 11.5359 15.99 11.501 15.9271 11.4544C15.7757 11.8052 15.5989 12.145 15.4004 12.4627C15.3613 12.5253 15.3212 12.5872 15.2804 12.648C15.0941 12.9258 14.8907 13.1838 14.6727 13.4141C14.6282 13.4612 14.583 13.5071 14.5372 13.5519C14.0009 14.0801 14.5613 14.9707 15.2442 14.9707H16.2198C18.3071 14.9707 19.9993 16.6651 19.9993 18.7552L20 19.8047C20 20.465 19.4657 21 18.8056 21H6.19371C5.53428 21 5 20.4643 5 19.8047V18.7552C5 16.6651 6.69212 14.9707 8.77946 14.9722H9.7536C10.4351 14.9722 10.9988 14.0805 10.4606 13.5533C10.3875 13.4821 10.316 13.4078 10.2459 13.3306C10.1293 13.2019 10.017 13.0653 9.90958 12.9219C9.84281 12.8328 9.77791 12.7412 9.71497 12.6472C9.68085 12.5963 9.64731 12.5447 9.61436 12.4925C9.41563 12.1777 9.23841 11.8405 9.08615 11.4918C9.07233 11.4997 9.05827 11.5068 9.04396 11.5131C9.02525 11.5213 9.00613 11.528 8.98658 11.5331C8.95774 11.5406 8.92798 11.5445 8.89732 11.5445C8.34914 11.5445 7.70581 10.3324 7.70581 9.50568C7.70581 8.75308 7.7689 8.13046 8.19384 8.02493C8.23566 8.01454 8.28099 8.00916 8.33011 8.00916C8.37134 8.00916 8.41667 8.01795 8.46139 8.02663L8.47722 8.02968L8.47908 7.93528C8.48359 7.73487 8.4914 7.5303 8.50444 7.32412C8.51339 7.18269 8.5248 7.04051 8.5393 6.89839C8.543 6.86211 8.5469 6.82583 8.55102 6.78957C8.57982 6.53569 8.61899 6.2824 8.67216 6.034C8.90057 4.96701 9.38695 3.99047 10.4158 3.44738C10.9504 3.16517 11.6315 3 12.4989 3C13.4113 3 14.1203 3.19929 14.6704 3.53412C15.7616 4.19832 16.227 5.39585 16.412 6.62892C16.4258 6.72055 16.438 6.81239 16.4488 6.90421C16.4937 7.28688 16.5143 7.66941 16.5206 8.03701C16.5902 8.01942 16.6597 8.00843 16.7241 8.00843C16.7681 8.00843 16.809 8.01272 16.8471 8.02105C16.8487 8.02141 16.8503 8.02177 16.8519 8.02214C16.8633 8.02474 16.8744 8.0277 16.8852 8.03101C17.2885 8.15425 17.3491 8.76713 17.3491 9.50495C17.3491 10.3316 16.7058 11.5438 16.1576 11.5438L16.1442 11.5435ZM17.9993 18.7552L17.9994 19H7V18.7552C7 17.7668 7.79919 16.9715 8.77805 16.9722H9.7536C11.0196 16.9722 12.4987 16.9707 12.4987 16.9707H16.2198C17.2 16.9707 17.9993 17.7671 17.9993 18.7552Z" fill="currentColor"/></svg>
