<svg width="24" height="24" viewBox="0 0 24 24" fill="none" xmlns="http://www.w3.org/2000/svg"><path d="M11.0937 15.8529C11.0454 15.815 11.0014 15.7816 10.9618 15.7524L10.9378 15.7347C10.9284 15.7298 10.9163 15.7238 10.9013 15.7167C10.8546 15.6945 10.7927 15.6677 10.7188 15.6375L10.7586 15.5401V15.4192C10.3888 16.0698 10.1816 16.8116 10.1816 17.5917C10.1816 20.0223 12.1593 22 14.5899 22C17.0204 22 18.9981 20.0223 18.9981 17.5917C18.9981 17.0662 18.9058 16.5577 18.7333 16.0849C18.6391 16.2915 18.5234 16.4885 18.3894 16.6731M11.0937 15.8529C11.0962 15.8477 11.0988 15.8426 11.1014 15.8375H11.2461H11.2586V15.5555C11.2806 15.5195 11.3031 15.484 11.3262 15.4487L11.2586 15.4044V15.35C11.3945 15.4502 11.5702 15.5903 11.7846 15.7758C12.6546 16.528 13.9765 17.6669 15.5166 17.6669C16.6341 17.6669 17.6757 16.9952 18.1863 16.0613C18.2704 16.2577 18.3385 16.4623 18.3894 16.6731M11.0937 15.8529C11.1957 15.9328 11.317 16.0324 11.4574 16.1539L11.4576 16.1541L11.4602 16.1563C11.892 16.5296 12.4695 17.029 13.1422 17.4323C13.8172 17.8369 14.6229 18.1669 15.5166 18.1669C16.666 18.1669 17.742 17.5648 18.3894 16.6731M11.0937 15.8529C10.8279 16.3843 10.6816 16.9748 10.6816 17.5917C10.6816 19.7462 12.4354 21.5 14.5899 21.5C16.7443 21.5 18.4981 19.7462 18.4981 17.5917C18.4981 17.2766 18.4607 16.9687 18.3894 16.6731M18.3738 12.7106C18.6262 12.1189 18.8569 11.5183 19.0442 10.9897C19.19 10.5784 19.308 10.2152 19.3887 9.93793C19.4293 9.79888 19.4592 9.68569 19.4785 9.60109C19.4959 9.5247 19.4993 9.4942 19.4999 9.49387C19.4983 9.44109 19.4806 9.33847 19.4256 9.17687C19.3701 9.01423 19.2869 8.82061 19.1794 8.60294C18.9647 8.16786 18.6688 7.66765 18.3519 7.17815C18.0359 6.68998 17.7048 6.22123 17.4237 5.85062C17.1292 5.46238 16.9222 5.2257 16.8469 5.16202L16.8468 5.16197C16.8261 5.14443 16.7576 5.09832 16.5968 5.02209C16.4439 4.94955 16.2351 4.86238 15.957 4.75538C15.401 4.54142 14.6018 4.2609 13.4871 3.87514C12.7528 3.62104 11.9646 3.34783 11.3098 3.10611C10.9825 2.98529 10.6842 2.87077 10.4402 2.76922C10.2204 2.67772 10.0163 2.58535 9.8759 2.5002C9.29984 2.50748 8.0997 2.71966 6.90427 3.18247C5.70776 3.6457 4.65179 4.30839 4.17905 5.13621C4.65895 5.49198 5.00121 6.01828 5.27229 6.57566C5.55818 7.16351 5.79201 7.84543 6.01846 8.50581L6.02087 8.51283L6.02089 8.5129C6.4581 9.78847 6.86489 10.9601 7.60411 11.7528L18.3738 12.7106ZM18.3738 12.7106C17.8679 11.9265 17.1353 11.2997 16.4402 10.8302C16.4761 10.7139 16.5145 10.6126 16.5517 10.5264L16.7487 10.0701L16.2937 9.87032C15.6256 9.57692 15.123 8.9662 14.8426 8.54717L14.5914 8.17195L14.1926 8.38368C13.7163 8.63651 13.0573 8.68112 12.4446 8.63953L11.2859 8.56088L12.0251 9.45664C12.5548 10.0985 13.1435 10.8932 13.3607 11.1882L13.4454 11.3032L13.5782 11.3561C13.8355 11.4587 14.5013 11.7422 15.2015 12.1798C15.7486 12.5218 16.292 12.942 16.6795 13.4233C17.0622 13.8985 17.2682 14.4001 17.2235 14.9334C17.2226 14.9367 17.2206 14.9443 17.2164 14.958L17.2084 14.9829L17.198 15.0157C17.1905 15.0395 17.1811 15.0708 17.1725 15.1058L18.3738 12.7106ZM17.0828 15.3577L17.0822 15.3589C17.0715 15.3812 17.0623 15.4022 17.0553 15.4185L17.0454 15.4417L17.0374 15.4605C17.0301 15.4777 17.0267 15.4846 17.026 15.4859C17.0113 15.5105 16.9989 15.5274 16.9715 15.5648C16.9629 15.5765 16.9528 15.5903 16.9407 15.607M17.0828 15.3577L17.345 15.9011M17.0828 15.3577C17.1035 15.3148 17.1168 15.2887 17.1261 15.2705C17.1368 15.2496 17.1422 15.2391 17.1475 15.2253L17.0828 15.3577ZM16.9407 15.607L17.345 15.9011M16.9407 15.607C16.9409 15.6067 16.9411 15.6064 16.9413 15.6061L17.345 15.9011M16.9407 15.607C16.9037 15.6576 16.8915 15.6766 16.8843 15.6877C16.8782 15.6972 16.8758 15.7011 16.8648 15.7139M17.345 15.9011C17.3335 15.9168 17.3225 15.9328 17.3116 15.9487C17.2906 15.9793 17.2696 16.0098 17.2448 16.0388M16.8648 15.7139L17.2448 16.0388M16.8648 15.7139C16.8648 15.7139 16.8648 15.714 16.8647 15.714L17.2448 16.0388M16.8648 15.7139L17.2448 16.0388M11.5485 14.0286L11.5481 14.0285L11.543 14.0262C11.4907 14.0031 11.4251 13.9742 11.3582 13.9472C11.328 13.9349 11.3013 13.9267 11.2816 13.9213C11.2681 13.9177 11.2554 13.9146 11.2469 13.9126C11.2254 13.9039 11.1962 13.8918 11.1633 13.8781C11.086 13.846 10.9884 13.8055 10.9231 13.7807C9.94839 13.4096 8.70664 12.9341 7.60423 11.7529L11.5485 14.0286ZM11.5485 14.0286C11.6006 14.0517 11.6427 14.0772 11.6623 14.0891L11.6633 14.0897L11.6793 14.0994L11.5485 14.0286ZM10.8061 15.3375C10.8389 15.2825 10.8729 15.2283 10.908 15.1747C11.0638 15.2384 11.1932 15.2974 11.2461 15.3375H10.8061ZM16.7348 15.8418C16.7351 15.8416 16.7353 15.8414 16.7355 15.8411L17.082 16.2016L16.734 15.8426C16.7343 15.8424 16.7345 15.8421 16.7348 15.8418ZM16.4969 16.041C16.4976 16.0405 16.4984 16.04 16.4991 16.0394L16.7815 16.4521L16.4956 16.0419C16.496 16.0416 16.4965 16.0413 16.4969 16.041ZM16.3871 16.1232C16.3875 16.1229 16.3879 16.1227 16.3883 16.1224C16.3874 16.123 16.3869 16.1233 16.3869 16.1233C16.3869 16.1233 16.387 16.1232 16.3871 16.1232ZM16.4308 16.6525L16.2184 16.1998C16.2189 16.1996 16.2194 16.1994 16.2199 16.1991C16.2203 16.1989 16.2207 16.1988 16.221 16.1986L16.4308 16.6525ZM16.0999 16.2489C16.1002 16.2488 16.1004 16.2486 16.1007 16.2485L16.2805 16.7151L16.0988 16.2493C16.0991 16.2492 16.0995 16.249 16.0999 16.2489ZM15.9048 16.8278L15.805 16.3379C15.7991 16.3391 15.7949 16.3403 15.7949 16.3403C15.7949 16.3402 15.7964 16.3398 15.7998 16.3387C15.8046 16.3378 15.8095 16.337 15.8143 16.3361L15.9048 16.8278ZM12.6379 14.7967L12.3106 15.1747L12.6376 14.7965L12.6379 14.7967ZM11.7345 14.6988L12.0315 14.2966C12.0329 14.2976 12.0343 14.2987 12.0357 14.2997C12.0375 14.301 12.0392 14.3024 12.041 14.3038L11.7345 14.6988ZM11.8105 14.1594C11.8114 14.1598 11.8122 14.1603 11.8131 14.1607L11.5717 14.5986L11.8091 14.1586C11.8096 14.1588 11.81 14.1591 11.8105 14.1594Z" stroke="currentColor"/></svg>
