<svg width="20" height="20" viewBox="0 0 20 20" fill="none" xmlns="http://www.w3.org/2000/svg">
<g id="ic_nav_tab_fellowship_20" clip-path="url(#clip0_8243_12792)">
<path id="Vector" fill-rule="evenodd" clip-rule="evenodd" d="M0.727043 19.9279C0.365534 19.9279 0.0718994 19.6313 0.0718994 19.2683V18.5851C0.0718994 16.9974 0.873122 15.544 2.21587 14.697L2.36195 14.6041L2.22768 14.4934C1.34087 13.763 0.831807 12.6844 0.831807 11.5364C0.831807 9.42933 2.53607 7.71474 4.63134 7.71474C5.05188 7.71474 5.46651 7.78409 5.86195 7.92132L5.9313 7.94493L5.9859 7.89623C6.42856 7.49931 6.92582 7.17174 7.46292 6.9209L7.63556 6.84122L7.49391 6.71432C6.68678 5.9913 6.22494 4.95694 6.22494 3.87536C6.22494 1.77861 7.92034 0.072876 10.0053 0.072876C12.0902 0.072876 13.7856 1.77861 13.7856 3.87536C13.7856 4.95989 13.3208 5.99573 12.5122 6.71875L12.3706 6.84564L12.5432 6.9268C13.0774 7.17764 13.5717 7.50521 14.0129 7.89919L14.0675 7.94788L14.1368 7.92427C14.5323 7.78704 14.9454 7.71769 15.366 7.71769C17.4494 7.71769 19.1463 9.42343 19.1463 11.5202C19.1463 12.6726 18.6328 13.7497 17.7386 14.4772L17.6014 14.5878L17.7504 14.6808C19.1124 15.5248 19.9254 16.9856 19.9254 18.5895V19.2727C19.9254 19.6372 19.6318 19.9323 19.2703 19.9323H0.727043V19.9279ZM15.3674 15.3256C13.6027 15.3256 12.1758 16.7112 12.1198 18.4803L12.1153 18.6102H18.6195L18.6151 18.4803C18.559 16.7112 17.1322 15.3256 15.3674 15.3256ZM10.0009 7.69408C9.00192 7.69408 8.05019 8.001 7.25044 8.58237L7.12797 8.6709L7.23716 8.77419C8.00888 9.50458 8.43236 10.4902 8.43236 11.5497C8.43236 12.6962 7.92329 13.7719 7.03649 14.5023L6.90221 14.6129L7.04977 14.7059C8.35858 15.5307 9.15833 16.9443 9.19227 18.4877L9.19522 18.6102H10.805L10.808 18.4877C10.8419 16.9295 11.6535 15.5086 12.9815 14.6867L13.132 14.5937L12.9948 14.4831C12.1006 13.7571 11.5871 12.6814 11.5871 11.532C11.5871 10.4814 12.0061 9.50458 12.7675 8.78009L12.8767 8.6768L12.7542 8.58827C11.953 8.00543 10.9998 7.69704 9.99939 7.69704L10.0009 7.69408ZM4.24623 15.3492C2.66591 15.5381 1.43531 16.8838 1.38514 18.4803L1.38071 18.6102H7.88493L7.8805 18.4803C7.82886 16.8838 6.59825 15.5381 5.01941 15.3492H5.00613H4.99285C4.87038 15.361 4.74939 15.3669 4.63282 15.3669C4.51625 15.3669 4.39526 15.361 4.27279 15.3492H4.25951H4.24623ZM4.63282 14.008C4.74791 14.008 4.86596 14.0124 4.98105 14.0212H4.9958H5.01056C6.21461 13.8368 7.12355 12.7759 7.12355 11.5512C7.12355 10.173 6.00656 9.05306 4.6343 9.05306C3.26204 9.05306 2.14505 10.1745 2.14505 11.5512C2.14505 12.7744 3.05398 13.8368 4.25803 14.0212H4.27279H4.28754C4.40263 14.0124 4.52068 14.008 4.63577 14.008H4.63282ZM15.3674 9.05306C14.0055 9.05306 12.8988 10.1642 12.8988 11.5305C12.8988 12.8969 14.007 14.008 15.3674 14.008C16.7279 14.008 17.836 12.8969 17.836 11.5305C17.836 10.1642 16.7294 9.05306 15.3674 9.05306ZM10.0082 1.42153C8.64631 1.42153 7.53965 2.53262 7.53965 3.89897C7.53965 5.26533 8.64779 6.37642 10.0082 6.37642C11.3687 6.37642 12.4768 5.26533 12.4768 3.89897C12.4768 2.53262 11.3687 1.42153 10.0082 1.42153Z" fill="currentColor"/>
</g>
<defs>
<clipPath id="clip0_8243_12792">
<rect width="20" height="20" fill="white"/>
</clipPath>
</defs>
</svg>
