<svg width="24" height="24" viewBox="0 0 24 24" fill="none" xmlns="http://www.w3.org/2000/svg"><path d="M21.7595 13.1669L21.3755 12.6519C21.0583 12.2268 21.0541 11.6505 21.363 11.2173L21.7386 10.6982C22.1727 10.0933 21.9724 9.25541 21.3045 8.90391L20.7327 8.60145C20.2569 8.35213 19.9981 7.83305 20.0857 7.31397L20.1943 6.68453C20.3195 5.957 19.7644 5.28261 19.0089 5.254L18.3577 5.22539C17.8193 5.20495 17.356 4.84527 17.2057 4.33845L17.0262 3.72537C16.8175 3.01418 16.0203 2.64633 15.3233 2.94061L14.7264 3.19402C14.2297 3.40247 13.6579 3.27986 13.2947 2.88339L12.8606 2.40927C12.3556 1.85749 11.4749 1.86567 10.9782 2.42153L10.5525 2.90383C10.1977 3.30029 9.62584 3.43517 9.12914 3.2349L8.5281 2.99375C7.83105 2.71173 7.038 3.09184 6.83765 3.80711L6.66652 4.4202C6.52878 4.93519 6.07382 5.29896 5.53538 5.32757L4.88424 5.36435C4.12876 5.40522 3.58615 6.08779 3.72389 6.81124L3.84076 7.43659C3.93676 7.95567 3.68632 8.47884 3.21467 8.73224L2.64701 9.04288C1.98753 9.40255 1.79553 10.2445 2.24214 10.8413L2.62614 11.3563C2.94336 11.7813 2.94753 12.3576 2.63866 12.7909L2.26301 13.31C1.82892 13.9149 2.02927 14.7528 2.6971 15.1043L3.26893 15.4067C3.74476 15.656 4.00354 16.1751 3.91589 16.6942L3.80319 17.3196C3.67797 18.0471 4.23311 18.7215 4.98859 18.7501L5.63973 18.7787C6.17817 18.7991 6.64147 19.1588 6.79174 19.6656L6.97121 20.2787C7.17991 20.9899 7.97714 21.3578 8.67418 21.0635L9.27106 20.8101C9.76776 20.6016 10.3396 20.7242 10.7027 21.1166L11.1368 21.5907C11.6419 22.1425 12.5226 22.1343 13.0193 21.5785L13.445 21.0962C13.7998 20.6997 14.3716 20.5648 14.8683 20.7651L15.4694 21.0063C16.1664 21.2883 16.9595 20.9082 17.1598 20.1929L17.3309 19.5798C17.4729 19.073 17.932 18.7092 18.4704 18.6765L19.1216 18.6397C19.877 18.5989 20.4197 17.9163 20.2819 17.1929L20.165 16.5675C20.069 16.0484 20.3195 15.5253 20.7911 15.2718L21.3588 14.9612C22.0141 14.6097 22.2019 13.7636 21.7595 13.1669ZM12.0008 19.571C7.78488 19.571 4.29905 16.2221 4.29905 12.0061C4.29905 7.79019 7.78488 4.44125 12.0008 4.44125C16.2168 4.44125 19.7026 7.79019 19.7026 12.0061C19.7026 16.2221 16.2168 19.571 12.0008 19.571Z" fill="currentColor"/><path d="M11.1577 12.1778L10.5733 11.6015C10.2269 11.2582 9.65923 11.2582 9.30862 11.5974C8.95801 11.9367 8.95801 12.4925 9.30445 12.8358L9.8888 13.4122L10.5399 14.0498C10.878 14.3849 11.429 14.3849 11.7712 14.0538L14.693 11.2091C15.0436 10.8699 15.0436 10.314 14.6972 9.97069C14.3507 9.62736 13.7831 9.62736 13.4325 9.9666L11.1577 12.1778Z" fill="currentColor"/></svg>
