<svg width="20" height="20" viewBox="0 0 20 20" fill="none" xmlns="http://www.w3.org/2000/svg">
<path d="M5.33107 12.0003L5.41465 12.3973L6.19497 16.1038C6.35844 16.8803 7.2327 17.2706 7.91994 16.8739L5.33107 12.0003ZM5.33107 12.0003H4.92538H4.16659C2.60178 12.0003 1.33325 10.7318 1.33325 9.16699C1.33325 7.60218 2.60178 6.33366 4.16659 6.33366H5.92256C8.67863 6.33366 11.3657 5.47252 13.6085 3.87061L13.6085 3.8706L15.7947 2.30897C15.7947 2.30897 15.7947 2.30896 15.7947 2.30896C15.924 2.21662 16.0789 2.16699 16.2378 2.16699C16.6587 2.16699 16.9999 2.50823 16.9999 2.92918V15.4048C16.9999 15.8258 16.6587 16.167 16.2378 16.167C16.0788 16.167 15.924 16.1174 15.7947 16.025L13.6085 14.4634L13.6084 14.4634C12.5455 13.7042 11.3828 13.1113 10.1602 12.6977L9.49992 12.4743V13.1713V15.2881C9.49992 15.7049 9.27755 16.09 8.91658 16.2985C8.91658 16.2985 8.91657 16.2985 8.91657 16.2985L7.91997 16.8739L5.33107 12.0003ZM16.3974 15.8918C16.4097 15.8878 16.4238 15.8826 16.4389 15.8762L16.4389 15.8762C16.5035 15.8485 16.5573 15.8095 16.5998 15.767L16.5999 15.767C16.6401 15.7268 16.6767 15.677 16.7037 15.6182L16.7498 15.5256V15.4558L16.7499 15.455V15.4062V15.4062V15.4061V15.4061V15.4061V15.4061V15.4061V15.4061V15.4061V15.4061V15.4061V15.4061V15.4061V15.4061V15.406V15.406V15.406V15.406V15.406V15.406V15.406V15.406V15.406V15.406V15.406V15.406V15.406V15.4059V15.4059V15.4059V15.4059V15.4059V15.4059V15.4059V15.4059V15.4059V15.4059V15.4059V15.4059V15.4059V15.4058V15.4058V15.4058V15.4058V15.4058V15.4058V15.4058V15.4058V15.4058V15.4058V15.4058V15.4058V15.4057V15.4057V15.4057V15.4057V15.4057V15.4057V15.4057V15.4057V15.4057V15.4057V15.4057V15.4057V15.4056V15.4056V15.4056V15.4056V15.4056V15.4056V15.4056V15.4056V15.4056V15.4056V15.4056V15.4056V15.4055V15.4055V15.4055V15.4055V15.4055V15.4055V15.4055V15.4055V15.4055V15.4055V15.4055V15.4055V15.4054V15.4054V15.4054V15.4054V15.4054V15.4054V15.4054V15.4054V15.4054V15.4054V15.4054V15.4053V15.4053V15.4053V15.4053V15.4053V15.4053V15.4053V15.4053V15.4053V15.4053V15.4053V15.4053V15.4052V15.4052V15.4052V15.4052V15.4052V15.4052V15.4052V15.4052V15.4052V15.4052V15.4052V15.4051V15.4051V15.4051V15.4051V15.4051V15.4051V15.4051V15.4051V15.4048V2.92918C16.7499 2.92368 16.7498 2.91824 16.7497 2.91286V2.85005L16.7495 2.84951V2.8162L16.7044 2.71737C16.6809 2.66585 16.6469 2.61419 16.6006 2.56775L16.6006 2.56768C16.5563 2.52323 16.4986 2.48152 16.4277 2.45315L16.4277 2.45319C16.3829 2.43535 16.3475 2.42851 16.3406 2.42717L16.3398 2.42701C16.3402 2.42711 16.3316 2.42533 16.3211 2.42362C16.3113 2.42205 16.3016 2.42077 16.2919 2.41977C16.2727 2.41777 16.2545 2.41699 16.2378 2.41699C16.1292 2.41699 16.0263 2.45133 15.9418 2.51116L15.9401 2.51239L13.7537 4.07404L14.0443 4.48091L13.7537 4.07404C11.4687 5.70624 8.73071 6.58366 5.92256 6.58366H4.16659C2.73985 6.58366 1.58325 7.74026 1.58325 9.16699C1.58325 10.5937 2.73985 11.7503 4.16659 11.7503H5.92256C8.73071 11.7503 11.4687 12.6278 13.7537 14.2599L15.94 15.8216C15.9573 15.8339 15.9712 15.8423 15.9774 15.8459C15.9793 15.847 15.9813 15.8482 15.9821 15.8486C15.9824 15.8488 15.9825 15.8488 15.9819 15.8485L15.9803 15.8475C16.0181 15.8695 16.0491 15.8811 16.0572 15.8841L16.058 15.8844C16.1182 15.907 16.1793 15.917 16.2378 15.917C16.2432 15.917 16.2487 15.9169 16.2541 15.9167M16.3974 15.8918C16.3768 15.8986 16.3612 15.9023 16.3545 15.9038C16.3631 15.9018 16.3809 15.8973 16.3991 15.8913L16.3974 15.8918ZM16.3974 15.8918L16.3223 15.9167H16.2541M16.2541 15.9167C16.2668 15.9164 16.2794 15.9155 16.2919 15.9142C16.3008 15.9133 16.3079 15.9123 16.3118 15.9118L16.3114 15.9118L16.3085 15.9122L16.3029 15.913L16.293 15.9141C16.2912 15.9143 16.289 15.9145 16.2865 15.9147C16.2833 15.915 16.2794 15.9153 16.2752 15.9156L16.2612 15.9164C16.2559 15.9166 16.2492 15.9167 16.2415 15.9167H16.2541ZM15.7846 3.10896C15.7842 3.10796 15.7838 3.10683 15.7833 3.10559L15.7861 3.1127L15.7846 3.10896ZM9.24992 12.8184V12.4195L8.86103 12.3309C7.99618 12.1338 7.10966 12.0233 6.21445 12.0035L5.5843 11.9896L5.71415 12.6064L6.43961 16.0523C6.56804 16.6624 7.25494 16.9692 7.795 16.6573L8.79155 16.0819C9.07522 15.9182 9.24992 15.6155 9.24992 15.2881V12.8184ZM15.9746 15.8442L15.9747 15.8442C15.9752 15.8445 15.9757 15.8449 15.9762 15.8452L15.9746 15.8442Z" fill="currentColor" stroke="currentColor"/>
</svg>
