<svg width="24" height="24" viewBox="0 0 24 24" fill="none" xmlns="http://www.w3.org/2000/svg"><path d="M10.872 15.792C10.376 15.792 10.032 15.68 9.83998 15.456C9.64798 15.232 9.55198 14.808 9.55198 14.184C9.55198 13.496 9.63198 12.92 9.79198 12.456C9.96798 11.992 10.184 11.608 10.44 11.304C10.696 10.984 10.936 10.728 11.16 10.536C11.352 10.36 11.568 10.184 11.808 10.008C12.064 9.83199 12.304 9.63999 12.528 9.43199C12.752 9.20799 12.936 8.96799 13.08 8.71199C13.224 8.43999 13.296 8.14399 13.296 7.82399C13.296 7.26399 13.088 6.85599 12.672 6.59999C12.256 6.32799 11.744 6.19199 11.136 6.19199C10.528 6.19199 10.072 6.28799 9.76798 6.47999C9.46398 6.65599 9.23998 6.87199 9.09598 7.12799C8.95198 7.36799 8.79998 7.58399 8.63998 7.77599C8.47998 7.95199 8.23998 8.03999 7.91998 8.03999C7.59998 8.03999 7.27998 7.92799 6.95998 7.70399C6.63998 7.47999 6.47998 7.13599 6.47998 6.67199C6.47998 6.23999 6.64798 5.77599 6.98398 5.27999C7.31998 4.76799 7.83998 4.33599 8.54398 3.98399C9.24798 3.63199 10.136 3.45599 11.208 3.45599C12.232 3.45599 13.128 3.63199 13.896 3.98399C14.664 4.31999 15.256 4.79199 15.672 5.39999C16.104 5.99199 16.32 6.66399 16.32 7.41599C16.32 7.97599 16.208 8.49599 15.984 8.97599C15.776 9.45599 15.52 9.88799 15.216 10.272C14.912 10.656 14.608 10.976 14.304 11.232C14.016 11.488 13.792 11.68 13.632 11.808C13.2 12.144 12.888 12.464 12.696 12.768C12.504 13.072 12.384 13.384 12.336 13.704C12.304 14.024 12.288 14.392 12.288 14.808C12.288 15.032 12.2 15.256 12.024 15.48C11.848 15.688 11.464 15.792 10.872 15.792ZM10.896 21.144C10.384 21.144 9.95198 20.96 9.59998 20.592C9.24798 20.224 9.07198 19.792 9.07198 19.296C9.07198 18.784 9.24798 18.352 9.59998 18C9.96798 17.632 10.4 17.448 10.896 17.448C11.408 17.448 11.84 17.632 12.192 18C12.56 18.352 12.744 18.784 12.744 19.296C12.744 19.792 12.56 20.224 12.192 20.592C11.84 20.96 11.408 21.144 10.896 21.144Z" fill="currentColor"/></svg>
