<svg width="36" height="36" viewBox="0 0 36 36" fill="none" xmlns="http://www.w3.org/2000/svg"><path d="M5.735 4.65625V31.3612H7.65125V32H5V4.0175H7.65125V4.65625H5.735ZM13.1287 13.1175V14.465H13.1637C13.4963 13.975 13.9425 13.5638 14.4675 13.2663C14.975 12.9862 15.5525 12.8462 16.2088 12.8462C16.865 12.8462 17.4163 12.9688 17.9325 13.2137C18.4575 13.4587 18.8512 13.8875 19.1137 14.5087C19.4112 14.0712 19.8138 13.6862 20.3212 13.3537C20.8288 13.0212 21.4325 12.855 22.1237 12.855C22.6488 12.855 23.1388 12.9163 23.585 13.0475C24.0312 13.1788 24.4163 13.38 24.74 13.6687C25.0637 13.9488 25.3088 14.325 25.4925 14.78C25.6675 15.235 25.7638 15.7863 25.7638 16.4338V23.11H23.025V17.4575C23.025 17.125 23.0162 16.81 22.99 16.5125C22.9725 16.2413 22.9025 15.9788 22.78 15.7425C22.6663 15.5238 22.4825 15.34 22.2725 15.2175C22.045 15.0862 21.7388 15.025 21.3538 15.025C20.9688 15.025 20.6538 15.1038 20.4175 15.2438C20.1813 15.3925 19.9887 15.585 19.8575 15.8212C19.7175 16.075 19.63 16.3462 19.5863 16.635C19.5425 16.9412 19.5163 17.2475 19.5163 17.5538V23.11H16.7775V17.51C16.7775 17.2125 16.7775 16.9237 16.76 16.635C16.7512 16.3637 16.6987 16.0925 16.5938 15.83C16.4975 15.585 16.3313 15.3837 16.1125 15.2438C15.885 15.095 15.5525 15.025 15.115 15.025C14.94 15.025 14.7737 15.06 14.6075 15.1125C14.38 15.1737 14.17 15.2875 13.995 15.4362C13.7937 15.5938 13.6275 15.83 13.4875 16.1275C13.3475 16.4338 13.2775 16.8275 13.2775 17.3175V23.11H10.5387V13.1263H13.12L13.1287 13.1175ZM30.55 31.3438V4.63875H28.6338V4H31.2937V31.9825H28.6338V31.3438H30.55Z" fill="currentColor"/></svg>
