<svg width="57" height="24" viewBox="0 0 57 24" fill="none" xmlns="http://www.w3.org/2000/svg">
  <g clip-path="url(#clip0_1141_172342)">
    <path d="M0.701507 0.549141V23.4372H2.34634V23.9863H0.0703125V6.10352e-05H2.34634V0.549141H0.701507Z" fill="currentColor"/>
    <path d="M7.03809 7.80496V8.96323H7.07102C7.3795 8.52233 7.75107 8.17999 8.18635 7.93728C8.62134 7.695 9.11998 7.57336 9.68163 7.57336C10.2212 7.57336 10.7143 7.67841 11.1603 7.88779C11.6064 8.09752 11.9452 8.46685 12.1765 8.99641C12.4297 8.62146 12.7739 8.29044 13.2092 8.00365C13.6442 7.71701 14.1591 7.57336 14.754 7.57336C15.2056 7.57336 15.624 7.62863 16.0099 7.73894C16.3951 7.84926 16.7256 8.02573 17.001 8.26837C17.2762 8.51122 17.4909 8.82834 17.6454 9.21961C17.7996 9.61158 17.8768 10.0829 17.8768 10.6346V16.3594L15.5305 16.3594V11.5114C15.5305 11.2247 15.5195 10.9544 15.4974 10.7006C15.4752 10.447 15.4149 10.2265 15.3157 10.0387C15.2165 9.85137 15.0704 9.70231 14.8779 9.59193C14.6851 9.48204 14.4234 9.42656 14.093 9.42656C13.7626 9.42656 13.4955 9.49037 13.2917 9.61678C13.0877 9.74383 12.9281 9.90941 12.8126 10.1132C12.6969 10.3176 12.6198 10.5491 12.5813 10.8085C12.5426 11.0675 12.5234 11.3296 12.5234 11.5943V16.3594H10.1774V11.5612C10.1774 11.3075 10.1716 11.0565 10.161 10.8085C10.1498 10.5601 10.1031 10.3313 10.0203 10.1216C9.93771 9.91219 9.79996 9.74383 9.60725 9.61678C9.41446 9.49037 9.13086 9.42656 8.75639 9.42656C8.64609 9.42656 8.50017 9.45142 8.31862 9.5012C8.13685 9.55084 7.96049 9.64477 7.78989 9.78243C7.61894 9.92045 7.47316 10.119 7.35198 10.378C7.23074 10.6374 7.17022 10.9764 7.17022 11.3955V16.3594L4.82422 16.3594V7.80496H7.03809Z" fill="currentColor"/>
    <path d="M19.3808 9.06266C19.6229 8.69853 19.9315 8.4064 20.3061 8.18555C20.6804 7.965 21.1015 7.80789 21.5698 7.71403C22.0379 7.62038 22.5089 7.5733 22.9825 7.5733C23.4121 7.5733 23.847 7.60378 24.2877 7.66425C24.7282 7.72514 25.1303 7.84386 25.4939 8.02012C25.8573 8.19652 26.1546 8.44215 26.386 8.75635C26.6174 9.0707 26.733 9.48718 26.733 10.0057V14.4563C26.733 14.8429 26.7551 15.212 26.7992 15.5649C26.8429 15.9181 26.9202 16.1828 27.0304 16.3592H24.6513C24.6072 16.2268 24.5713 16.0918 24.5439 15.9538C24.5161 15.8161 24.4969 15.6755 24.4861 15.532C24.1115 15.9181 23.6708 16.1884 23.1644 16.3428C22.6576 16.4969 22.1399 16.5744 21.6112 16.5744C21.2035 16.5744 20.8235 16.5247 20.4711 16.4255C20.1185 16.3262 19.8102 16.1719 19.5459 15.9619C19.2815 15.7527 19.075 15.4879 18.9263 15.1681C18.7776 14.8482 18.7031 14.4673 18.7031 14.0262C18.7031 13.541 18.7884 13.141 18.9594 12.827C19.13 12.5124 19.3502 12.2616 19.6204 12.0738C19.8901 11.8864 20.1985 11.7457 20.5456 11.652C20.8925 11.5584 21.2421 11.4841 21.5946 11.4286C21.9471 11.3736 22.294 11.3294 22.6356 11.2964C22.977 11.2632 23.28 11.2135 23.5443 11.1473C23.8087 11.0811 24.0178 10.9848 24.1722 10.8578C24.3261 10.731 24.3977 10.5462 24.3869 10.3034C24.3869 10.0499 24.3457 9.84839 24.2631 9.69955C24.1805 9.5507 24.0703 9.43469 23.9327 9.35201C23.7949 9.26933 23.6352 9.21413 23.4536 9.18643C23.2717 9.15923 23.076 9.14513 22.867 9.14513C22.4044 9.14513 22.0409 9.24447 21.7765 9.44302C21.5123 9.64158 21.3578 9.97266 21.3139 10.4358H18.9678C19.0007 9.88442 19.1381 9.42643 19.3808 9.06266ZM24.0151 12.3801C23.8665 12.4297 23.7067 12.4709 23.5361 12.5041C23.3653 12.5372 23.1863 12.5649 22.9991 12.5868C22.8117 12.6091 22.6245 12.6365 22.4374 12.6696C22.261 12.7025 22.0876 12.747 21.9171 12.8019C21.7461 12.8574 21.5974 12.9316 21.4709 13.0254C21.344 13.1192 21.2422 13.2379 21.1651 13.381C21.088 13.5244 21.0495 13.7066 21.0495 13.9271C21.0495 14.1365 21.088 14.3132 21.1651 14.4563C21.2422 14.6 21.347 14.713 21.4791 14.7957C21.6113 14.8783 21.7654 14.9364 21.9419 14.9693C22.1179 15.0025 22.2996 15.019 22.487 15.019C22.9495 15.019 23.3074 14.9419 23.561 14.7873C23.8142 14.6331 24.0013 14.4482 24.1227 14.2329C24.2437 14.0179 24.3182 13.8005 24.3458 13.5796C24.3731 13.359 24.387 13.1825 24.387 13.0501V12.173C24.2877 12.2616 24.1639 12.3304 24.0151 12.3801Z" fill="currentColor"/>
    <path d="M32.912 7.80495V9.37684H31.1938V13.6127C31.1938 14.0096 31.2598 14.2745 31.3921 14.4067C31.524 14.5391 31.7886 14.6053 32.1851 14.6053C32.3173 14.6053 32.4438 14.5999 32.5651 14.5888C32.6862 14.5779 32.8019 14.5611 32.912 14.5392V16.3593C32.7137 16.3924 32.4933 16.4143 32.2511 16.4256C32.0088 16.4362 31.772 16.442 31.5407 16.442C31.1772 16.442 30.8329 16.417 30.5081 16.3673C30.183 16.3178 29.8967 16.2215 29.649 16.078C29.4011 15.9348 29.2055 15.7304 29.0624 15.4657C28.9191 15.2012 28.8476 14.8536 28.8476 14.4232V9.37684H27.4268V7.80495H28.8476V5.2403H31.1937V7.80495H32.912Z" fill="currentColor"/>
    <path d="M36.2655 7.80498V9.39347H36.2986C36.4085 9.12854 36.5572 8.88334 36.7446 8.65702C36.9319 8.43112 37.1465 8.23791 37.3889 8.07795C37.631 7.91829 37.89 7.79416 38.1657 7.70563C38.4407 7.61754 38.7273 7.57324 39.0248 7.57324C39.1789 7.57324 39.3495 7.60102 39.5369 7.65607V9.84028C39.4266 9.81806 39.2944 9.79869 39.1404 9.78231C38.9861 9.76572 38.8375 9.75738 38.6942 9.75738C38.2646 9.75738 37.9012 9.82931 37.6039 9.97253C37.3065 10.116 37.067 10.3116 36.8852 10.5599C36.7035 10.8082 36.5738 11.0975 36.4968 11.4286C36.4198 11.7594 36.3812 12.1181 36.3812 12.5041V16.3592H34.0352V7.80498H36.2655Z" fill="currentColor"/>
    <path d="M40.5283 6.48123V4.54535H42.8746V6.48123H40.5283ZM42.8746 7.805V16.3593H40.5283V7.805H42.8746Z" fill="currentColor"/>
    <path d="M44.0973 7.80499H46.7737L48.2773 10.0387L49.7644 7.80499H52.3583L49.5496 11.8092L52.7054 16.3594H50.0287L48.2443 13.6624L46.4598 16.3594H43.833L46.906 11.859L44.0973 7.80499Z" fill="currentColor"/>
    <path d="M55.5696 23.4372V0.549141H53.9248V6.10352e-05H56.201V23.9863H53.9248V23.4372H55.5696Z" fill="currentColor"/>
  </g>
  <defs>
    <clipPath id="clip0_1141_172342">
      <rect width="56.25" height="24" fill="white"/>
    </clipPath>
  </defs>
</svg>
