<svg width="36" height="36" viewBox="0 0 36 36" fill="none" xmlns="http://www.w3.org/2000/svg"><path d="M13.1793 29C22.9882 29 28.3548 20.5351 28.3548 13.1965C28.3548 12.9586 28.3497 12.7153 28.3396 12.4773C29.3835 11.6911 30.2845 10.7173 31 9.60158C30.0277 10.0521 28.9954 10.3463 27.9384 10.4741C29.0514 9.77939 29.8847 8.68796 30.284 7.40219C29.2369 8.04839 28.0919 8.50423 26.8979 8.75017C26.0934 7.85999 25.0297 7.27059 23.8713 7.07309C22.7129 6.87558 21.5243 7.08098 20.4892 7.65753C19.4541 8.23407 18.6303 9.14965 18.145 10.2627C17.6597 11.3758 17.54 12.6243 17.8045 13.8153C15.6844 13.7045 13.6103 13.1309 11.7166 12.1318C9.82303 11.1327 8.15217 9.73035 6.81238 8.01563C6.13143 9.23825 5.92306 10.685 6.22962 12.0619C6.53617 13.4387 7.33465 14.6424 8.46277 15.4282C7.61585 15.4002 6.78747 15.1627 6.04609 14.7354V14.8042C6.04534 16.0872 6.47127 17.331 7.2515 18.3239C8.03173 19.3169 9.1181 19.9979 10.3259 20.2511C9.54139 20.4746 8.71798 20.5072 7.91941 20.3463C8.26024 21.4497 8.92337 22.4148 9.81625 23.1069C10.7091 23.7989 11.7872 24.1834 12.9 24.2067C11.0108 25.7522 8.67702 26.5904 6.27461 26.5864C5.84856 26.5858 5.42293 26.5586 5 26.505C7.44059 28.1356 10.2797 29.0016 13.1793 29Z" fill="currentColor"/></svg>
