<svg viewBox="0 0 20 20" xmlns="http://www.w3.org/2000/svg">
  <defs>
    <style>
      .sprite-item { display: none; }
      .sprite-item:target { display: inline; }
    </style>
  </defs>
  <g id="arrow-curve-left-16" class="sprite-item" fill="none"><path fill-rule="evenodd" clip-rule="evenodd" d="M2.49961 2.2998C2.16824 2.2998 1.89961 2.56843 1.89961 2.8998L1.89961 8.64504C1.89961 9.52869 2.61595 10.245 3.49961 10.245L12.0527 10.245L9.59561 12.7059C9.36147 12.9404 9.36176 13.3203 9.59626 13.5544C9.83075 13.7885 10.2107 13.7882 10.4448 13.5537L13.9242 10.069C14.1581 9.83474 14.1581 9.45534 13.9242 9.2211L10.4448 5.73634C10.2107 5.50184 9.83075 5.50155 9.59626 5.73569C9.36177 5.96982 9.36147 6.34972 9.59561 6.58421L12.0527 9.04504L3.49961 9.04504C3.27869 9.04504 3.09961 8.86595 3.09961 8.64504L3.09961 2.8998C3.09961 2.56843 2.83098 2.2998 2.49961 2.2998Z" fill="currentColor"/></g>
  <g id="arrow-diagonal-16" class="sprite-item" fill="none"><path fill-rule="evenodd" clip-rule="evenodd" d="M11.9506 3.2L7.50838 3.20001C7.17701 3.20002 6.90838 2.93139 6.90838 2.60002C6.90838 2.26865 7.17701 2.00002 7.50838 2.00001L13.3992 2C13.5583 2 13.7109 2.06322 13.8234 2.17575C13.936 2.28828 13.9992 2.4409 13.9992 2.60003L13.9988 8.4905C13.9988 8.82187 13.7302 9.09048 13.3988 9.09047C13.0674 9.09045 12.7988 8.8218 12.7988 8.49043L12.7991 4.04861L3.02426 13.8234C2.78995 14.0577 2.41005 14.0577 2.17574 13.8234C1.94142 13.5891 1.94142 13.2092 2.17574 12.9749L11.9506 3.2Z" fill="currentColor"/></g>
  <g id="arrow-diagonal-20" class="sprite-item" fill="none"><g clip-path="url(#clip0_2420_16857)"><path fill-rule="evenodd" clip-rule="evenodd" d="M17.0742 3.58778C17.0759 3.42661 17.0127 3.27154 16.8987 3.15751C16.7848 3.04349 16.6298 2.9801 16.4686 2.98162L7.34392 3.06791C7.01256 3.07104 6.74648 3.3422 6.74962 3.67356C6.75275 4.00491 7.02391 4.27099 7.35527 4.26786L15.0126 4.19544L3.21378 15.9943C2.97947 16.2286 2.97947 16.6085 3.21378 16.8428C3.4481 17.0772 3.828 17.0772 4.06231 16.8428L15.8591 5.04601L15.7803 12.6923C15.7768 13.0237 16.0427 13.2951 16.374 13.2985C16.7054 13.3019 16.9768 13.0361 16.9802 12.7047L17.0742 3.58778Z" fill="currentColor"/></g><defs><clipPath id="clip0_2420_16857"><rect width="20" height="20" fill="white"/></clipPath></defs></g>
  <g id="arrow-down-16" class="sprite-item" fill="none"><path fill-rule="evenodd" clip-rule="evenodd" d="M8.60137 1.6C8.60137 1.26863 8.33274 1 8.00137 1C7.67 1 7.40137 1.26863 7.40137 1.6V12.9751L3.91986 9.571C3.68293 9.33933 3.30306 9.3436 3.07139 9.58053C2.83972 9.81746 2.84399 10.1973 3.08092 10.429L7.57813 14.8263C7.8112 15.0542 8.18359 15.0543 8.4168 14.8265L12.9196 10.4293C13.1567 10.1977 13.1612 9.81787 12.9297 9.5808C12.6981 9.34372 12.3183 9.33922 12.0812 9.57074L8.60137 12.969V1.6Z" fill="currentColor"/></g>
  <g id="arrow-down-20" class="sprite-item" fill="none"><path fill-rule="evenodd" clip-rule="evenodd" d="M10.6008 2.6C10.6008 2.26863 10.3322 2 10.0008 2C9.66944 2 9.40081 2.26863 9.40081 2.6V15.9475L5.02529 11.5508C4.79154 11.3159 4.41164 11.315 4.17676 11.5487C3.94188 11.7825 3.94097 12.1624 4.17472 12.3973L9.5757 17.8244C9.6883 17.9375 9.84135 18.0011 10.001 18.0011C10.1606 18.0011 10.3137 17.9375 10.4263 17.8244L15.8272 12.3973C16.061 12.1624 16.0601 11.7825 15.8252 11.5487C15.5903 11.315 15.2104 11.3159 14.9767 11.5508L10.6008 15.9478V2.6Z" fill="currentColor"/></g>
  <g id="arrow-left-16" class="sprite-item" fill="none"><path fill-rule="evenodd" clip-rule="evenodd" d="M14.4002 8.59941C14.7316 8.59941 15.0002 8.33078 15.0002 7.99941C15.0002 7.66804 14.7316 7.39941 14.4002 7.39941H3.02506L6.42921 3.91791C6.66088 3.68097 6.65661 3.3011 6.41968 3.06943C6.18275 2.83777 5.80287 2.84204 5.57121 3.07896L1.17393 7.57617C0.946032 7.80924 0.945916 8.18163 1.17367 8.41485L5.57095 12.9176C5.80247 13.1547 6.18234 13.1592 6.41941 12.9277C6.65649 12.6962 6.66099 12.3163 6.42947 12.0792L3.03119 8.59941H14.4002Z" fill="currentColor"/></g>
  <g id="arrow-left-20" class="sprite-item" fill="none"><path fill-rule="evenodd" clip-rule="evenodd" d="M17.4011 10.6008C17.7325 10.6008 18.0011 10.3322 18.0011 10.0008C18.0011 9.66944 17.7325 9.40081 17.4011 9.40081H4.05365L8.45031 5.02528C8.68519 4.79154 8.68611 4.41164 8.45236 4.17676C8.21861 3.94188 7.83871 3.94097 7.60383 4.17471L2.17676 9.5757C2.06361 9.6883 2 9.84135 2 10.001C2 10.1606 2.06361 10.3137 2.17676 10.4263L7.60383 15.8272C7.83871 16.061 8.21861 16.0601 8.45236 15.8252C8.68611 15.5903 8.68519 15.2104 8.45031 14.9767L4.05331 10.6008H17.4011Z" fill="currentColor"/></g>
  <g id="arrow-right-16" class="sprite-item" fill="none"><path fill-rule="evenodd" clip-rule="evenodd" d="M1.60293 8.59941C1.27156 8.59941 1.00293 8.33078 1.00293 7.99941C1.00293 7.66804 1.27156 7.39941 1.60293 7.39941H12.9781L9.57393 3.91791C9.34226 3.68098 9.34653 3.3011 9.58346 3.06943C9.82039 2.83777 10.2003 2.84203 10.4319 3.07896L14.8292 7.57617C15.0571 7.80924 15.0572 8.18163 14.8295 8.41485L10.4322 12.9176C10.2007 13.1547 9.8208 13.1592 9.58373 12.9277C9.34665 12.6962 9.34215 12.3163 9.57367 12.0792L12.9719 8.59941H1.60293Z" fill="currentColor"/></g>
  <g id="arrow-right-20" class="sprite-item" fill="none"><path fill-rule="evenodd" clip-rule="evenodd" d="M2.59902 10.6008C2.26765 10.6008 1.99902 10.3322 1.99902 10.0008C1.99902 9.66944 2.26765 9.40081 2.59902 9.40081H15.9465L11.5498 5.02528C11.3149 4.79154 11.314 4.41164 11.5478 4.17676C11.7815 3.94188 12.1614 3.94097 12.3963 4.17471L17.8234 9.5757C17.9365 9.6883 18.0001 9.84135 18.0001 10.001C18.0001 10.1606 17.9365 10.3137 17.8234 10.4263L12.3963 15.8272C12.1614 16.061 11.7815 16.0601 11.5478 15.8252C11.314 15.5903 11.3149 15.2104 11.5498 14.9767L15.9468 10.6008H2.59902Z" fill="currentColor"/></g>
  <g id="arrow-up-16" class="sprite-item" fill="none"><path fill-rule="evenodd" clip-rule="evenodd" d="M7.40039 14.3973C7.40039 14.7287 7.66901 14.9973 8.00039 14.9973C8.33176 14.9973 8.60039 14.7287 8.60039 14.3973V3.02214L12.0819 6.42629C12.3188 6.65796 12.6987 6.65369 12.9304 6.41676C13.162 6.17982 13.1578 5.79995 12.9208 5.56828L8.42363 1.171C8.19056 0.943102 7.81817 0.942987 7.58495 1.17074L3.08216 5.56802C2.84509 5.79954 2.84058 6.17941 3.0721 6.41649C3.30362 6.65356 3.68349 6.65807 3.92057 6.42655L7.40039 3.02827V14.3973Z" fill="currentColor"/></g>
  <g id="arrow-up-20" class="sprite-item" fill="none"><path fill-rule="evenodd" clip-rule="evenodd" d="M9.40115 17.4011C9.40115 17.7325 9.66978 18.0011 10.0012 18.0011C10.3325 18.0011 10.6012 17.7325 10.6012 17.4011V4.05365L14.9767 8.45031C15.2105 8.68519 15.5904 8.68611 15.8252 8.45236C16.0601 8.21861 16.061 7.83871 15.8273 7.60383L10.4263 2.17676C10.3137 2.06361 10.1606 2 10.001 2C9.84135 2 9.6883 2.06361 9.57569 2.17676L4.17471 7.60383C3.94097 7.83871 3.94188 8.21861 4.17676 8.45236C4.41163 8.68611 4.79153 8.68519 5.02528 8.45031L9.40115 4.05331V17.4011Z" fill="currentColor"/></g>
  <g id="chevron-down-16" class="sprite-item" fill="none"><path fill-rule="evenodd" clip-rule="evenodd" d="M2.15164 5.2013C2.37183 4.95368 2.75108 4.93144 2.99871 5.15164L8.00069 9.59953L13.0027 5.15164C13.2503 4.93144 13.6295 4.95368 13.8497 5.2013C14.0699 5.44893 14.0477 5.82818 13.8001 6.04838L8.39939 10.8508C8.17203 11.053 7.82934 11.053 7.60198 10.8508L2.2013 6.04838C1.95368 5.82818 1.93144 5.44893 2.15164 5.2013Z" fill="currentColor"/></g>
  <g id="chevron-down-20" class="sprite-item" fill="none"><path fill-rule="evenodd" clip-rule="evenodd" d="M17.8522 6.35552C18.0703 6.60501 18.0448 6.98406 17.7953 7.20214L10.3877 13.6773C10.1613 13.8752 9.82356 13.875 9.59744 13.6769L2.20468 7.20175C1.95541 6.98341 1.93033 6.60434 2.14866 6.35507C2.36699 6.1058 2.74606 6.08072 2.99534 6.29905L9.99317 12.4283L17.0056 6.29866C17.2551 6.08057 17.6341 6.10603 17.8522 6.35552Z" fill="currentColor"/></g>
  <g id="chevron-right-16" class="sprite-item" fill="none"><path fill-rule="evenodd" clip-rule="evenodd" d="M5.2013 13.8508C4.95368 13.6306 4.93144 13.2513 5.15164 13.0037L9.59954 8.00167L5.15164 2.99969C4.93144 2.75206 4.95368 2.37281 5.2013 2.15261C5.44893 1.93242 5.82818 1.95465 6.04838 2.20228L10.8508 7.60296C11.053 7.83032 11.053 8.17301 10.8508 8.40037L6.04838 13.8011C5.82818 14.0487 5.44893 14.071 5.2013 13.8508Z" fill="currentColor"/></g>
  <g id="chevron-right-20" class="sprite-item" fill="none"><path fill-rule="evenodd" clip-rule="evenodd" d="M7.36724 17.8522C7.61673 18.0703 7.99578 18.0448 8.21386 17.7953L14.6891 10.3877C14.8869 10.1613 14.8867 9.82356 14.6887 9.59744L8.21347 2.20468C7.99513 1.95541 7.61606 1.93033 7.36679 2.14866C7.11752 2.36699 7.09244 2.74606 7.31077 2.99534L13.4401 9.99317L7.31037 17.0056C7.09229 17.2551 7.11775 17.6341 7.36724 17.8522Z" fill="currentColor"/></g>
  <g id="chevron-up-16" class="sprite-item" fill="none"><path fill-rule="evenodd" clip-rule="evenodd" d="M2.15164 10.8011C2.37183 11.0488 2.75108 11.071 2.99871 10.8508L8.00069 6.40291L13.0027 10.8508C13.2503 11.071 13.6295 11.0488 13.8497 10.8011C14.0699 10.5535 14.0477 10.1743 13.8001 9.95406L8.39939 5.15163C8.17203 4.94946 7.82934 4.94946 7.60198 5.15163L2.2013 9.95406C1.95368 10.1743 1.93144 10.5535 2.15164 10.8011Z" fill="currentColor"/></g>
  <g id="chevron-up-20" class="sprite-item" fill="none"><path fill-rule="evenodd" clip-rule="evenodd" d="M17.8522 13.6201C18.0703 13.3706 18.0448 12.9915 17.7953 12.7734L10.3877 6.29825C10.1613 6.10042 9.82356 6.10059 9.59744 6.29864L2.20468 12.7738C1.95541 12.9922 1.93033 13.3712 2.14866 13.6205C2.36699 13.8698 2.74606 13.8949 2.99534 13.6765L9.99317 7.54725L17.0056 13.6769C17.2551 13.895 17.6341 13.8696 17.8522 13.6201Z" fill="currentColor"/></g>
  <g id="dropdown-down-16" class="sprite-item" fill="none"><path fill-rule="evenodd" clip-rule="evenodd" d="M7.6033 11.8515C7.83065 12.0536 8.17331 12.0536 8.40066 11.8515L13.8026 7.04839C13.9887 6.88288 14.0532 6.61956 13.9647 6.38673C13.8762 6.15391 13.653 6 13.4039 6L2.60003 6C2.35093 6 2.12775 6.15391 2.03921 6.38673C1.95067 6.61956 2.01519 6.88288 2.20135 7.04839L7.6033 11.8515ZM8.00198 10.6002L4.17782 7.2H11.8261L8.00198 10.6002Z" fill="currentColor"/></g>
  <g id="dropdown-down-20" class="sprite-item" fill="none"><path fill-rule="evenodd" clip-rule="evenodd" d="M10.4116 13.9024C10.1806 14.1198 9.82021 14.1198 9.58918 13.9024L2.1888 6.93731C2.00967 6.76872 1.9516 6.50787 2.04228 6.2792C2.13296 6.05054 2.35403 5.90039 2.60002 5.90039H17.4008C17.6468 5.90039 17.8678 6.05054 17.9585 6.2792C18.0492 6.50787 17.9911 6.76872 17.812 6.93731L10.4116 13.9024ZM15.8878 7.10039H4.11297L10.0004 12.6415L15.8878 7.10039Z" fill="currentColor"/></g>
  <g id="dropdown-right-16" class="sprite-item" fill="none"><path fill-rule="evenodd" clip-rule="evenodd" d="M11.8515 8.40066C12.0536 8.17331 12.0536 7.83065 11.8515 7.6033L7.04839 2.20135C6.88288 2.01519 6.61956 1.95067 6.38673 2.03921C6.15391 2.12775 6 2.35093 6 2.60003L6 13.4039C6 13.653 6.15391 13.8762 6.38673 13.9648C6.61956 14.0533 6.88288 13.9888 7.04839 13.8026L11.8515 8.40066ZM10.6002 8.00198L7.2 11.8261V4.17782L10.6002 8.00198Z" fill="currentColor"/></g>
  <g id="dropdown-right-20" class="sprite-item" fill="none"><path fill-rule="evenodd" clip-rule="evenodd" d="M14.92 9.58838C15.1374 9.81941 15.1374 10.1798 14.92 10.4108L7.95489 17.8112C7.7863 17.9903 7.52545 18.0484 7.29678 17.9577C7.06812 17.867 6.91797 17.646 6.91797 17.4L6.91797 2.59921C6.91797 2.35323 7.06812 2.13216 7.29678 2.04147C7.52544 1.95079 7.7863 2.00887 7.95489 2.188L14.92 9.58838ZM8.11797 4.11216L8.11797 15.887L13.6591 9.9996L8.11797 4.11216Z" fill="currentColor"/></g>
  <g id="dropdown-up-16" class="sprite-item" fill="none"><path fill-rule="evenodd" clip-rule="evenodd" d="M8.40066 4.15161C8.17331 3.94946 7.83065 3.94946 7.6033 4.15161L2.20135 8.95468C2.01519 9.1202 1.95067 9.38352 2.03921 9.61634C2.12775 9.84917 2.35093 10.0031 2.60003 10.0031H13.4039C13.653 10.0031 13.8762 9.84917 13.9647 9.61634C14.0533 9.38352 13.9888 9.1202 13.8026 8.95468L8.40066 4.15161ZM8.00198 5.40287L11.8261 8.80307H4.17782L8.00198 5.40287Z" fill="currentColor"/></g>
  <g id="dropdown-up-20" class="sprite-item" fill="none"><path fill-rule="evenodd" clip-rule="evenodd" d="M9.58935 6.06344C9.82038 5.846 10.1808 5.846 10.4118 6.06344L17.8122 13.0285C17.9913 13.1971 18.0494 13.458 17.9587 13.6866C17.868 13.9153 17.6469 14.0654 17.401 14.0654H2.60019C2.3542 14.0654 2.13313 13.9153 2.04245 13.6866C1.95177 13.458 2.00984 13.1971 2.18897 13.0285L9.58935 6.06344ZM4.11314 12.8654H15.888L10.0006 7.32431L4.11314 12.8654Z" fill="currentColor"/></g>
</svg>
