<svg viewBox="0 0 20 20" xmlns="http://www.w3.org/2000/svg">
    <defs>
        <style>
            .sprite-item { display: none; }
            .sprite-item:target { display: inline; }
        </style>
    </defs>
    <g id="derivation-custom-20" class="sprite-item" fill="none"><path fill-rule="evenodd" clip-rule="evenodd" d="M10.8123 2.4231C11.0469 2.189 11.0472 1.8091 10.8131 1.57457C10.579 1.34004 10.1991 1.33968 9.96459 1.57378L4.93396 6.595C4.60528 6.40274 4.23243 6.2892 3.84525 6.2681L3.83799 6.26779C3.52295 6.25445 3.2083 6.30281 2.91194 6.41017C2.61567 6.51749 2.3432 6.68176 2.1103 6.89397C1.87745 7.1061 1.68862 7.36199 1.55503 7.64705C1.42188 7.93118 1.3462 8.23865 1.33234 8.55192C1.29928 9.18504 1.52054 9.8046 1.94629 10.275C2.37261 10.746 2.96895 11.0289 3.60379 11.0633L3.61096 11.0636C3.92586 11.0769 4.24048 11.0286 4.53692 10.9212C4.8331 10.8139 5.1057 10.6496 5.33864 10.4373C5.57151 10.2252 5.76023 9.96937 5.8938 9.68435C6.02698 9.40016 6.10266 9.09264 6.11649 8.77932C6.14101 8.30664 6.02379 7.84153 5.78559 7.44043L7.58985 5.63955L8.80764 6.84659C9.04159 7.07848 9.41876 7.07839 9.65261 6.84638L11.4229 5.08993C11.5365 4.97722 11.6004 4.82379 11.6004 4.66376C11.6003 4.50372 11.5363 4.35035 11.4226 4.23773L10.2038 3.03046L10.8123 2.4231ZM9.35449 3.87821L8.43918 4.7918L9.22981 5.57545L10.1481 4.66434L9.35449 3.87821ZM13.0003 2C12.669 2 12.4003 2.26863 12.4003 2.6C12.4003 2.93137 12.669 3.2 13.0003 3.2H16.803V6.99844C16.803 7.32981 17.0716 7.59844 17.403 7.59844C17.7343 7.59844 18.003 7.32981 18.003 6.99844V2.6C18.003 2.26863 17.7343 2 17.403 2H13.0003ZM3.20035 12.9984C3.20035 12.6671 2.93172 12.3984 2.60035 12.3984C2.26898 12.3984 2.00035 12.6671 2.00035 12.9984V17.3983C2.00035 17.7296 2.26898 17.9983 2.60035 17.9983H7.00034C7.33172 17.9983 7.60034 17.7296 7.60034 17.3983C7.60034 17.0669 7.33172 16.7983 7.00034 16.7983H3.20035V12.9984ZM3.78357 7.46657C3.62594 7.46036 3.46867 7.4848 3.32067 7.53841C3.17148 7.59246 3.03484 7.67498 2.91848 7.78102C2.80203 7.88709 2.70797 8.0147 2.64163 8.15627C2.57529 8.29784 2.53778 8.45085 2.5311 8.60653L2.53082 8.61291C2.51403 8.9265 2.62327 9.2347 2.83597 9.46968C3.04805 9.70401 3.34598 9.84663 3.66509 9.86484C3.82289 9.87103 3.98019 9.84659 4.12812 9.79299C4.2774 9.7389 4.41403 9.65639 4.53034 9.5504C4.64676 9.44436 4.74085 9.31672 4.8072 9.17513C4.87354 9.03357 4.91105 8.88056 4.91773 8.72487L4.91799 8.71872C4.93467 8.40511 4.82538 8.09693 4.61263 7.8619C4.40059 7.62759 4.10268 7.48491 3.78357 7.46657ZM12.166 9.08003C12.4117 8.93859 12.7229 8.98843 12.9121 9.19953L13.51 9.8665L14.124 9.20686C14.3144 9.00232 14.6208 8.95631 14.8629 9.09591L16.6602 10.1323C16.9054 10.2737 17.0184 10.5672 16.9314 10.8365L16.655 11.6924L17.5306 11.8926C17.8034 11.955 17.9969 12.1977 17.9969 12.4775V14.6205C17.9969 14.9127 17.7865 15.1624 17.4985 15.2119L16.6517 15.3574L16.9087 16.1893C16.9915 16.4571 16.8777 16.7466 16.6348 16.8864L14.8344 17.9228C14.5891 18.0641 14.2784 18.0146 14.0891 17.8042L13.4883 17.1368L12.8779 17.7975C12.6876 18.0035 12.38 18.0501 12.1371 17.9099L10.3367 16.8704C10.0911 16.7285 9.97832 16.434 10.0665 16.1643L10.3456 15.3103L9.46717 15.1104C9.1941 15.0482 9.00035 14.8054 9.00035 14.5253V12.4462C9.00035 12.1623 9.19935 11.9173 9.47722 11.859L10.3558 11.6748L10.0913 10.8123C10.0093 10.5448 10.1231 10.256 10.3656 10.1164L12.166 9.08003ZM11.3788 10.9178L11.5861 11.594C11.6347 11.7525 11.6156 11.9241 11.5332 12.068L11.2858 12.5001C11.2007 12.6488 11.056 12.7541 10.8883 12.7892L10.2004 12.9335V14.0466L10.8889 14.2033C11.0514 14.2403 11.1912 14.3432 11.2748 14.4874L11.5253 14.9195C11.611 15.0673 11.6296 15.2445 11.5765 15.4068L11.3583 16.0745L12.3219 16.6309L12.7949 16.119C12.9085 15.996 13.0683 15.9261 13.2356 15.9261H13.746C13.9161 15.9261 14.0782 15.9983 14.192 16.1247L14.6563 16.6407L15.6207 16.0856L15.4178 15.4289C15.3808 15.3092 15.3822 15.181 15.4218 15.0621L15.5594 14.6488C15.6293 14.439 15.809 14.2846 16.0271 14.2471L16.7969 14.1148V12.9558L16.1266 12.8026C15.9638 12.7654 15.8239 12.662 15.7405 12.5173L15.4806 12.0664C15.3959 11.9195 15.3774 11.7437 15.4295 11.5823L15.6404 10.9294L14.6771 10.374L14.2008 10.8856C14.0873 11.0075 13.9282 11.0767 13.7617 11.0767H13.2513C13.0808 11.0767 12.9183 11.0042 12.8045 10.8772L12.3432 10.3627L11.3788 10.9178ZM11.6013 13.4997C11.6013 12.4502 12.4522 11.5993 13.5018 11.5993C14.5514 11.5993 15.4022 12.4502 15.4022 13.4997C15.4022 14.5493 14.5514 15.4002 13.5018 15.4002C12.4522 15.4002 11.6013 14.5493 11.6013 13.4997ZM13.5018 12.7993C13.1149 12.7993 12.8013 13.1129 12.8013 13.4997C12.8013 13.8866 13.1149 14.2002 13.5018 14.2002C13.8886 14.2002 14.2022 13.8866 14.2022 13.4997C14.2022 13.1129 13.8886 12.7993 13.5018 12.7993Z" fill="currentColor"/></g>
    <g id="derivation-governance-20" class="sprite-item" fill="none"><path fill-rule="evenodd" clip-rule="evenodd" d="M9.43649 3.76569C9.43649 3.45327 9.68976 3.2 10.0022 3.2C10.3146 3.2 10.5679 3.45327 10.5679 3.76569C10.5679 4.07811 10.3146 4.33138 10.0022 4.33138C9.68976 4.33138 9.43649 4.07811 9.43649 3.76569ZM10.0022 2C9.02702 2 8.23649 2.79053 8.23649 3.76569C8.23649 4.74085 9.02702 5.53138 10.0022 5.53138C10.9773 5.53138 11.7679 4.74085 11.7679 3.76569C11.7679 2.79053 10.9773 2 10.0022 2ZM10.0022 8.4823C9.20694 8.4823 8.56224 9.12699 8.56224 9.92226C8.56224 10.7175 9.20694 11.3622 10.0022 11.3622C10.7975 11.3622 11.4422 10.7175 11.4422 9.92226C11.4422 9.12699 10.7975 8.4823 10.0022 8.4823ZM7.36224 9.92226C7.36224 8.46425 8.54419 7.2823 10.0022 7.2823C11.4602 7.2823 12.6422 8.46425 12.6422 9.92226C12.6422 11.3803 11.4602 12.5622 10.0022 12.5622C8.54419 12.5622 7.36224 11.3803 7.36224 9.92226ZM10.0022 15.6684C9.68976 15.6684 9.43649 15.9217 9.43649 16.2341C9.43649 16.5465 9.68976 16.7998 10.0022 16.7998C10.3146 16.7998 10.5679 16.5465 10.5679 16.2341C10.5679 15.9217 10.3146 15.6684 10.0022 15.6684ZM8.23649 16.2341C8.23649 15.2589 9.02702 14.4684 10.0022 14.4684C10.9773 14.4684 11.7679 15.2589 11.7679 16.2341C11.7679 17.2093 10.9773 17.9998 10.0022 17.9998C9.02702 17.9998 8.23649 17.2093 8.23649 16.2341ZM15.6729 10.0015C15.6729 10.3139 15.9261 10.5672 16.2386 10.5672C16.551 10.5672 16.8042 10.3139 16.8042 10.0015C16.8042 9.68904 16.551 9.43577 16.2386 9.43577C15.9261 9.43577 15.6729 9.68904 15.6729 10.0015ZM16.2386 11.7672C15.2634 11.7672 14.4729 10.9766 14.4729 10.0015C14.4729 9.0263 15.2634 8.23577 16.2386 8.23577C17.2137 8.23577 18.0042 9.0263 18.0042 10.0015C18.0042 10.9766 17.2137 11.7672 16.2386 11.7672ZM3.76569 10.5672C3.45327 10.5672 3.2 10.3139 3.2 10.0015C3.2 9.68904 3.45327 9.43577 3.76569 9.43577C4.07811 9.43577 4.33138 9.68904 4.33138 10.0015C4.33138 10.3139 4.07811 10.5672 3.76569 10.5672ZM2 10.0015C2 10.9766 2.79053 11.7672 3.76569 11.7672C4.74085 11.7672 5.53138 10.9766 5.53138 10.0015C5.53138 9.0263 4.74085 8.23577 3.76569 8.23577C2.79053 8.23577 2 9.0263 2 10.0015ZM14.012 14.0091C13.7911 14.23 13.7911 14.5882 14.012 14.8091C14.2329 15.03 14.5911 15.03 14.812 14.8091C15.0329 14.5882 15.0329 14.23 14.812 14.0091C14.5911 13.7882 14.2329 13.7882 14.012 14.0091ZM13.1634 15.6576C12.4739 14.9681 12.4739 13.8501 13.1634 13.1606C13.853 12.471 14.971 12.471 15.6605 13.1606C16.35 13.8501 16.3501 14.9681 15.6605 15.6576C14.971 16.3472 13.853 16.3472 13.1634 15.6576ZM5.19236 5.98836C4.97145 5.76745 4.97145 5.40927 5.19236 5.18836C5.41328 4.96744 5.77145 4.96744 5.99237 5.18836C6.21328 5.40927 6.21328 5.76745 5.99237 5.98836C5.77145 6.20928 5.41328 6.20928 5.19236 5.98836ZM4.34383 4.33983C3.65429 5.02937 3.65429 6.14735 4.34383 6.83689C5.03338 7.52644 6.15135 7.52644 6.8409 6.83689C7.53044 6.14735 7.53044 5.02937 6.8409 4.33983C6.15135 3.65028 5.03338 3.65028 4.34383 4.33983ZM14.012 5.99006C14.2329 6.21098 14.5911 6.21098 14.812 5.99006C15.0329 5.76914 15.0329 5.41097 14.812 5.19005C14.5911 4.96914 14.2329 4.96914 14.012 5.19005C13.791 5.41097 13.791 5.76914 14.012 5.99006ZM15.6605 6.83859C14.9709 7.52813 13.853 7.52813 13.1634 6.83859C12.4739 6.14904 12.4739 5.03107 13.1634 4.34152C13.853 3.65198 14.9709 3.65198 15.6605 4.34152C16.35 5.03107 16.35 6.14904 15.6605 6.83859ZM5.99236 14.8069C5.77144 15.0278 5.41327 15.0278 5.19235 14.8069C4.97143 14.586 4.97143 14.2278 5.19235 14.0069C5.41327 13.786 5.77144 13.786 5.99236 14.0069C6.21327 14.2278 6.21327 14.586 5.99236 14.8069ZM4.34382 15.6554C5.03337 16.345 6.15134 16.345 6.84089 15.6554C7.53043 14.9659 7.53043 13.8479 6.84089 13.1584C6.15134 12.4688 5.03337 12.4688 4.34382 13.1584C3.65428 13.8479 3.65428 14.9659 4.34382 15.6554Z" fill="currentColor"/></g>
    <g id="derivation-hot-20" class="sprite-item" fill="none"><path fill-rule="evenodd" clip-rule="evenodd" d="M10.8123 2.4231C11.0468 2.189 11.0472 1.8091 10.8131 1.57457C10.579 1.34004 10.1991 1.33968 9.96457 1.57378L4.93395 6.595C4.60527 6.40273 4.23243 6.2892 3.84525 6.2681L3.838 6.26779C3.52295 6.25445 3.2083 6.30281 2.91194 6.41017C2.61567 6.51749 2.3432 6.68176 2.1103 6.89397C1.87745 7.1061 1.68862 7.36199 1.55503 7.64705C1.42188 7.93118 1.3462 8.23865 1.33234 8.55192C1.29928 9.18504 1.52054 9.8046 1.94629 10.275C2.37261 10.746 2.96895 11.0289 3.60379 11.0633L3.61096 11.0636C3.92586 11.0769 4.24048 11.0286 4.53692 10.9212C4.8331 10.8139 5.1057 10.6496 5.33864 10.4373C5.57151 10.2252 5.76023 9.96937 5.8938 9.68435C6.02698 9.40016 6.10266 9.09264 6.1165 8.77932C6.14101 8.30664 6.02379 7.84152 5.78559 7.44042L7.58983 5.63955L8.80762 6.84659C9.04158 7.07848 9.41875 7.07839 9.65259 6.84638L11.4229 5.08993C11.5365 4.97722 11.6004 4.82379 11.6003 4.66376C11.6003 4.50372 11.5363 4.35035 11.4226 4.23773L10.2038 3.03046L10.8123 2.4231ZM9.35447 3.87821L8.43917 4.7918L9.22979 5.57545L10.1481 4.66434L9.35447 3.87821ZM13.0003 2C12.6689 2 12.4003 2.26863 12.4003 2.6C12.4003 2.93137 12.6689 3.2 13.0003 3.2H16.8029V6.99844C16.8029 7.32981 17.0716 7.59844 17.4029 7.59844C17.7343 7.59844 18.0029 7.32981 18.0029 6.99844V2.6C18.0029 2.26863 17.7343 2 17.4029 2H13.0003ZM3.20034 12.9984C3.20034 12.6671 2.93171 12.3984 2.60034 12.3984C2.26896 12.3984 2.00034 12.6671 2.00034 12.9984V17.3983C2.00034 17.7296 2.26896 17.9983 2.60034 17.9983H7.00033C7.3317 17.9983 7.60033 17.7296 7.60033 17.3983C7.60033 17.0669 7.3317 16.7983 7.00033 16.7983H3.20034V12.9984ZM3.78357 7.46657C3.62594 7.46036 3.46867 7.4848 3.32067 7.53841C3.17148 7.59246 3.03484 7.67498 2.91848 7.78102C2.80203 7.88709 2.70797 8.0147 2.64163 8.15627C2.57529 8.29784 2.53778 8.45085 2.5311 8.60653L2.53082 8.61291C2.51403 8.9265 2.62327 9.2347 2.83597 9.46968C3.04805 9.70401 3.34598 9.84663 3.66509 9.86484C3.82289 9.87103 3.98019 9.84659 4.12812 9.79299C4.2774 9.7389 4.41403 9.65639 4.53034 9.5504C4.64676 9.44436 4.74085 9.31672 4.8072 9.17513C4.87354 9.03357 4.91105 8.88056 4.91773 8.72487L4.91799 8.71872C4.93467 8.40511 4.82538 8.09693 4.61263 7.8619C4.40059 7.62759 4.10268 7.48491 3.78357 7.46657ZM13.5945 9.001C13.8527 8.98613 14.0913 9.13831 14.1867 9.37864L14.8728 11.107L15.0314 10.8513C15.1401 10.6759 15.3314 10.5687 15.5378 10.5675C15.7442 10.5663 15.9367 10.6713 16.0475 10.8454L15.5488 11.1627C16.0475 10.8454 16.0475 10.8455 16.0476 10.8456L16.0477 10.8458L16.0481 10.8464L16.0493 10.8483L16.0533 10.8547L16.0674 10.8772C16.0794 10.8964 16.0965 10.9242 16.118 10.9596C16.161 11.0305 16.2216 11.1324 16.2941 11.2593C16.4386 11.5125 16.6315 11.8679 16.825 12.2767C17.1996 13.0683 17.6241 14.157 17.6241 15.1037C17.6241 16.2217 16.8655 16.958 16.0782 17.3818C15.2885 17.8068 14.3402 17.9987 13.629 17.9987C12.7372 17.9987 11.8482 17.8135 11.1632 17.3506C10.449 16.868 10.0003 16.1094 10.0003 15.1037C10.0003 14.4447 10.2532 13.6926 10.4699 13.1569C10.5827 12.878 10.6952 12.6354 10.7794 12.4623C10.8217 12.3756 10.8571 12.3057 10.8824 12.2569C10.895 12.2325 10.9051 12.2133 10.9123 12.1998L10.9208 12.1839L10.9232 12.1793L10.924 12.1778L10.9243 12.1773L10.9244 12.1771C10.9244 12.177 10.9245 12.1769 11.3591 12.4126L10.9245 12.1769C11.0296 11.9831 11.2326 11.8625 11.4532 11.863C11.6737 11.8634 11.8762 11.9848 11.9805 12.1791L12.2025 12.5926L13.0496 9.44412C13.1168 9.19443 13.3364 9.01586 13.5945 9.001ZM11.4995 13.8198C11.3295 14.2753 11.2003 14.748 11.2003 15.1037C11.2003 15.704 11.4453 16.0929 11.835 16.3563C12.254 16.6394 12.8793 16.7987 13.629 16.7987C14.1639 16.7987 14.9132 16.6461 15.5095 16.3251C16.1082 16.0028 16.4241 15.5917 16.4241 15.1037C16.4241 14.4445 16.1072 13.5651 15.7404 12.7901C15.6653 12.6315 15.5902 12.4813 15.5183 12.3431L15.2647 12.7521C15.1452 12.9447 14.9274 13.0536 14.7016 13.0335C14.4759 13.0135 14.2807 12.8679 14.1971 12.6573L13.7386 11.5022L12.9686 14.3642C12.9047 14.6017 12.7023 14.7761 12.458 14.8044C12.2137 14.8326 11.9769 14.7089 11.8606 14.4922L11.4995 13.8198Z" fill="currentColor"/></g>
    <g id="derivation-key-20" class="sprite-item" fill="none"><path fill-rule="evenodd" clip-rule="evenodd" d="M16.8275 2.67382C17.0587 2.90526 17.0584 3.28016 16.8267 3.51118L15.5564 4.77807L17.8244 7.02281C17.9367 7.13395 17.9999 7.28531 18 7.44323C18.0001 7.60116 17.937 7.75257 17.8248 7.8638L14.9335 10.73C14.7026 10.959 14.3301 10.9591 14.099 10.7302L11.8357 8.48877L8.39537 11.9199C8.85456 12.5619 9.08602 13.3425 9.04442 14.1374C9.02425 14.5981 8.91295 15.0505 8.71688 15.4685C8.5204 15.8874 8.24272 16.2636 7.89991 16.5756C7.55712 16.8877 7.15596 17.1293 6.71965 17.2872C6.28308 17.4453 5.81962 17.5164 5.35565 17.4968L5.34858 17.4965C4.41324 17.4459 3.53519 17.0294 2.90783 16.3368C2.28103 15.6449 1.9558 14.7339 2.00484 13.8035C2.02503 13.3427 2.13634 12.8904 2.33238 12.4725C2.52885 12.0536 2.8066 11.6774 3.14933 11.3654C3.49208 11.0534 3.89324 10.8117 4.32965 10.6537C4.76613 10.4957 5.22963 10.4245 5.69373 10.4442L5.7009 10.4445C6.37192 10.481 7.01344 10.7058 7.55404 11.0858L15.9895 2.67303C16.2211 2.44202 16.5963 2.44237 16.8275 2.67382ZM12.6746 7.65218L14.7176 5.61467L16.5657 7.44381L14.516 9.4758L12.6746 7.65218ZM4.17221 15.8836C4.53196 16.1377 4.96011 16.2889 5.4091 16.3138C5.71791 16.3264 6.026 16.2788 6.3159 16.1739C6.60712 16.0684 6.87411 15.9074 7.10172 15.7002C7.32945 15.4929 7.51363 15.2433 7.6437 14.966C7.70069 14.8445 7.74684 14.7186 7.78181 14.5899C7.82664 14.4249 7.8531 14.2551 7.86046 14.0836L7.86072 14.0776C7.89345 13.4624 7.67878 12.8588 7.26237 12.3991C6.84668 11.9402 6.26344 11.6621 5.63998 11.6272C5.33135 11.6146 5.02329 11.6622 4.73333 11.7671C4.44219 11.8725 4.17519 12.0335 3.94753 12.2408C3.71977 12.4481 3.53562 12.6977 3.40557 12.975C3.27551 13.2523 3.2019 13.5521 3.1888 13.8574L3.18853 13.8636C3.15556 14.4788 3.37015 15.0825 3.78652 15.5421C3.90289 15.6706 4.03238 15.7849 4.17221 15.8836Z" fill="currentColor"/></g>
    <g id="derivation-public-20" class="sprite-item" fill="none"><path fill-rule="evenodd" clip-rule="evenodd" d="M10.8123 2.4231C11.0468 2.189 11.0472 1.8091 10.8131 1.57457C10.579 1.34004 10.1991 1.33968 9.96457 1.57378L4.93395 6.595C4.60527 6.40273 4.23243 6.2892 3.84525 6.2681L3.83799 6.26779C3.52295 6.25445 3.2083 6.30281 2.91194 6.41017C2.61567 6.51749 2.3432 6.68176 2.1103 6.89397C1.87745 7.1061 1.68862 7.36199 1.55503 7.64705C1.42188 7.93118 1.3462 8.23865 1.33234 8.55192C1.29928 9.18504 1.52054 9.8046 1.94629 10.275C2.37261 10.746 2.96895 11.0289 3.60379 11.0633L3.61096 11.0636C3.92586 11.0769 4.24048 11.0286 4.53692 10.9212C4.8331 10.8139 5.1057 10.6496 5.33864 10.4373C5.57151 10.2252 5.76023 9.96937 5.8938 9.68435C6.02698 9.40016 6.10266 9.09264 6.11649 8.77932C6.14101 8.30664 6.02379 7.84152 5.78559 7.44042L7.58983 5.63955L8.80762 6.84659C9.04158 7.07848 9.41875 7.07839 9.65259 6.84638L11.4229 5.08993C11.5365 4.97722 11.6004 4.82379 11.6003 4.66376C11.6003 4.50372 11.5363 4.35035 11.4226 4.23773L10.2038 3.03046L10.8123 2.4231ZM9.35447 3.87821L8.43917 4.7918L9.22979 5.57545L10.1481 4.66434L9.35447 3.87821ZM13.0003 2C12.669 2 12.4003 2.26863 12.4003 2.6C12.4003 2.93137 12.669 3.2 13.0003 3.2H16.803V6.99844C16.803 7.32981 17.0716 7.59844 17.403 7.59844C17.7343 7.59844 18.003 7.32981 18.003 6.99844V2.6C18.003 2.26863 17.7343 2 17.403 2H13.0003ZM3.20034 12.9984C3.20034 12.6671 2.93171 12.3984 2.60034 12.3984C2.26896 12.3984 2.00034 12.6671 2.00034 12.9984V17.3983C2.00034 17.7296 2.26896 17.9983 2.60034 17.9983H7.00033C7.3317 17.9983 7.60033 17.7296 7.60033 17.3983C7.60033 17.0669 7.3317 16.7983 7.00033 16.7983H3.20034V12.9984ZM3.78357 7.46657C3.62594 7.46036 3.46867 7.4848 3.32067 7.53841C3.17148 7.59246 3.03484 7.67498 2.91848 7.78102C2.80203 7.88709 2.70797 8.0147 2.64163 8.15627C2.57529 8.29784 2.53778 8.45085 2.5311 8.60653L2.53082 8.61291C2.51403 8.9265 2.62327 9.2347 2.83597 9.46968C3.04805 9.70401 3.34598 9.84663 3.66509 9.86484C3.82289 9.87103 3.98019 9.84659 4.12812 9.79299C4.2774 9.7389 4.41403 9.65639 4.53034 9.5504C4.64676 9.44436 4.74085 9.31672 4.8072 9.17513C4.87354 9.03357 4.91105 8.88056 4.91773 8.72487L4.91799 8.71872C4.93467 8.40511 4.82538 8.09693 4.61263 7.8619C4.40059 7.62759 4.10268 7.48491 3.78357 7.46657ZM10.286 13.7139C10.6377 14.2167 11.0964 14.804 11.6629 15.2873C12.3136 15.8424 13.0678 16.2281 13.935 16.2281C14.8021 16.2281 15.5549 15.8425 16.204 15.2876C16.7694 14.8044 17.2269 14.2172 17.5784 13.7141C17.2267 13.2114 16.768 12.6241 16.2015 12.1408C15.5508 11.5857 14.7966 11.2 13.9294 11.2C13.0623 11.2 12.3095 11.5855 11.6604 12.1404C11.095 12.6237 10.6375 13.2108 10.286 13.7139ZM10.8807 11.2282C11.6628 10.5597 12.6821 10 13.9294 10C15.1764 10 16.197 10.5595 16.9803 11.2279C17.7609 11.8938 18.3441 12.6996 18.7275 13.2677C18.9096 13.5375 18.9095 13.8905 18.7276 14.1602C18.3446 14.7278 17.7629 15.5338 16.9837 16.1998C16.2016 16.8684 15.1822 17.4281 13.935 17.4281C12.688 17.4281 11.6674 16.8685 10.8841 16.2002C10.1035 15.5343 9.52034 14.7284 9.13689 14.1603C8.9548 13.8905 8.95486 13.5375 9.13681 13.2678C9.51975 12.7002 10.1015 11.8942 10.8807 11.2282ZM13.9322 14.7008C14.4938 14.7008 14.949 14.2456 14.949 13.6841C14.949 13.1226 14.4938 12.6674 13.9322 12.6674C13.3707 12.6674 12.9155 13.1226 12.9155 13.6841C12.9155 14.2456 13.3707 14.7008 13.9322 14.7008ZM13.9322 15.9008C15.1565 15.9008 16.149 14.9084 16.149 13.6841C16.149 12.4598 15.1565 11.4674 13.9322 11.4674C12.708 11.4674 11.7155 12.4598 11.7155 13.6841C11.7155 14.9084 12.708 15.9008 13.9322 15.9008Z" fill="currentColor"/></g>
    <g id="derivation-staking-20" class="sprite-item" fill="none"><path fill-rule="evenodd" clip-rule="evenodd" d="M5.36654 4.29176C6.57994 3.48283 8.22166 3.00195 10.005 3.00195C11.7883 3.00195 13.43 3.48283 14.6434 4.29176C15.8526 5.09789 16.6942 6.27744 16.6942 7.66141C16.6942 7.74066 16.6914 7.81924 16.686 7.89712C16.6914 7.92944 16.6942 7.96264 16.6942 7.99648V10.2911C16.6942 10.3836 16.6904 10.4749 16.6831 10.565V12.5993C16.6831 13.9949 15.8284 15.1142 14.6116 15.8553C13.396 16.5957 11.7598 17.005 9.99385 17.005C8.22789 17.005 6.59174 16.5957 5.37612 15.8553C4.15936 15.1142 3.30469 13.9949 3.30469 12.5993V10.2895C3.30469 10.2499 3.30851 10.2113 3.3158 10.1739V7.99648C3.3158 7.96264 3.3186 7.92944 3.32399 7.89712C3.31856 7.81924 3.3158 7.74066 3.3158 7.66141C3.3158 6.27744 4.15734 5.0979 5.36654 4.29176ZM15.4854 7.85396C15.4801 7.87601 15.4759 7.89857 15.473 7.92158C15.3717 8.72658 14.8039 9.51706 13.8194 10.1244C12.8406 10.7282 11.502 11.1129 10.005 11.1129C8.50797 11.1129 7.16934 10.7282 6.19058 10.1244C5.20602 9.51706 4.63827 8.72658 4.53698 7.92158C4.53409 7.8986 4.52993 7.87606 4.52456 7.85403C4.51872 7.78992 4.5158 7.72569 4.5158 7.66141C4.5158 6.80355 5.03747 5.95336 6.03218 5.29022C7.02268 4.62989 8.42555 4.20195 10.005 4.20195C11.5844 4.20195 12.9873 4.62989 13.9778 5.29023C14.9725 5.95337 15.4942 6.80355 15.4942 7.66141C15.4942 7.72566 15.4913 7.78987 15.4854 7.85396ZM8.43156 14.5846C7.27446 14.4166 6.22319 14.0614 5.37612 13.5455C5.0674 13.3574 4.78199 13.145 4.52793 12.91C4.63769 13.6365 5.13522 14.3035 6.00037 14.8304C6.98865 15.4324 8.39709 15.805 9.99385 15.805C11.5907 15.805 12.9991 15.4324 13.9874 14.8304C14.847 14.3068 15.3437 13.6449 15.4577 12.9238C15.207 13.154 14.9261 13.3623 14.6227 13.5471C13.4071 14.2875 11.771 14.6969 10.005 14.6969C9.46564 14.6969 8.9384 14.6587 8.43156 14.5846ZM14.6434 11.031C14.9491 10.8273 15.2312 10.5997 15.4822 10.351C15.4583 11.1738 14.9508 11.9342 13.9874 12.5209C12.9991 13.1227 11.5907 13.4952 9.99385 13.4952C9.51133 13.4952 9.046 13.4612 8.60426 13.3971C7.58884 13.2485 6.69861 12.9408 6.01148 12.5222C5.04321 11.9325 4.53542 11.1672 4.51635 10.3396C4.77021 10.5928 5.05627 10.8242 5.36654 11.031C6.57994 11.84 8.22165 12.3209 10.005 12.3209C11.7883 12.3209 13.43 11.84 14.6434 11.031Z" fill="currentColor"/></g>
</svg>
