<svg viewBox="0 0 16 16" xmlns="http://www.w3.org/2000/svg">
  <defs>
    <style>
      .sprite-item { display: none; }
      .sprite-item:target { display: inline; }
    </style>
  </defs>
  <g id="unknown-explorer-16" class="sprite-item" fill="none"><path fill-rule="evenodd" clip-rule="evenodd" d="M7.9993 1C4.13369 1 1 4.13368 1 7.99929C1 11.8649 4.13369 14.9986 7.9993 14.9986C11.8649 14.9986 14.9986 11.8649 14.9986 7.99929C14.9986 4.13368 11.8649 1 7.9993 1ZM2.2 7.99929C2.2 7.52765 2.2563 7.06917 2.36255 6.63019H4.15607C4.05366 7.09318 4.00164 7.55935 4.00164 8.02869C4.00164 8.47882 4.04949 8.92529 4.14373 9.36807H2.36247C2.25627 8.92919 2.2 8.47081 2.2 7.99929ZM4.53621 5.43019H2.79867C3.53682 3.93881 4.89759 2.81045 6.54128 2.38482C5.63648 3.38343 4.96186 4.39865 4.53621 5.43019ZM5.20164 8.02869C5.20164 7.56852 5.26416 7.10237 5.39224 6.63019H7.44228V9.36807H5.37742C5.25933 8.91713 5.20164 8.47068 5.20164 8.02869ZM7.44228 10.5681H5.83094C6.1986 11.3131 6.73184 12.0701 7.44228 12.839V10.5681ZM8.64228 12.8326V10.5681H10.2408C9.87217 11.3085 9.34301 12.0633 8.64228 12.8326ZM8.64228 9.36807V6.63019H10.7176C10.8357 7.08115 10.8934 7.52762 10.8934 7.96963C10.8934 8.42978 10.8309 8.89591 10.7028 9.36807H8.64228ZM8.64228 5.43019H10.2641C9.89459 4.6815 9.35793 3.9208 8.64228 3.14795V5.43019ZM7.44228 3.17724C6.74677 3.94251 6.22104 4.69344 5.85425 5.43019H7.44228V3.17724ZM12.0934 7.96963C12.0934 7.51948 12.0455 7.07299 11.9513 6.63019H13.636C13.7423 7.06917 13.7986 7.52765 13.7986 7.99929C13.7986 8.47081 13.7423 8.92919 13.6361 9.36807H11.939C12.0414 8.9051 12.0934 8.43895 12.0934 7.96963ZM11.5797 5.43019H13.1999C12.4845 3.98467 11.1841 2.88019 9.60813 2.42607C10.5004 3.40703 11.1637 4.40847 11.5797 5.43019ZM2.79852 10.5681C3.53339 12.053 4.88553 13.1782 6.51961 13.6081C5.61086 12.6157 4.93633 11.6023 4.51534 10.5681H2.79852ZM11.5588 10.5681C11.1381 11.5878 10.474 12.5916 9.58475 13.5792C11.1713 13.1292 12.4811 12.0209 13.2001 10.5681H11.5588Z" fill="currentColor"/></g>
  <g id="polkascan-16" class="sprite-item" fill="none"><path d="M8 2C11.3137 2 14 4.68629 14 8C14 11.3137 11.3137 14 8 14C4.68629 14 2 11.3137 2 8C2 4.68629 4.68629 2 8 2Z" fill="#FF6482"/><path fill-rule="evenodd" clip-rule="evenodd" d="M2.17804 9.45738C2.9564 9.44537 3.40958 9.07988 3.40958 8.5181C3.40958 8.05868 3.0952 7.79467 2.52082 7.69704L2.47622 7.68993L2.14259 7.63926L2.08718 7.62948C2.06103 7.62461 2.03607 7.61944 2.01228 7.61368C2.0217 7.46577 2.03648 7.31931 2.05643 7.1745C2.10056 7.16754 2.15002 7.16384 2.20496 7.16384C2.48941 7.17658 2.76868 7.2437 3.02764 7.36148L3.08705 7.38948L3.33891 6.80976C3.00187 6.63894 2.63001 6.54901 2.25281 6.54649L2.17734 6.54694C2.12626 6.75215 2.08576 6.96154 2.05643 7.1745C2.0564 7.1745 2.05645 7.17449 2.05643 7.1745C2.03657 7.31924 2.02169 7.46563 2.01206 7.61363C2.01214 7.61365 2.01221 7.61367 2.01228 7.61368C2.00414 7.74166 2 7.87072 2 8.00075C2 8.1001 2.00241 8.19889 2.00719 8.29706C2.00909 8.33598 2.01134 8.37481 2.01398 8.41354C2.021 8.51695 2.03065 8.61964 2.04285 8.72154C2.04748 8.7603 2.05248 8.79896 2.05784 8.83751C2.08719 9.04782 2.12748 9.25464 2.17804 9.45738C2.17805 9.45738 2.17802 9.45738 2.17804 9.45738ZM2.04285 8.72154C2.04748 8.7603 2.05248 8.79896 2.05784 8.83751L2.08851 8.83811L2.18199 8.83707C2.502 8.83025 2.65564 8.73425 2.65564 8.57765C2.65564 8.44343 2.51845 8.3692 2.19637 8.32357L2.00719 8.29706C2.00909 8.33598 2.01134 8.37481 2.01398 8.41354C2.021 8.51695 2.03065 8.61964 2.04285 8.72154ZM8.08584 6.54412L8.12584 6.54323C8.43208 6.54309 8.72275 6.68279 8.91401 6.92398V6.61835H9.64233V9.38597L8.91401 9.38612V9.08048L8.88823 9.11115C8.68749 9.34153 8.39267 9.46953 8.08584 9.45738L8.04629 9.45694C7.29931 9.43753 6.7067 8.86936 6.7067 8.00075C6.7067 7.13214 7.29931 6.56397 8.04629 6.54457L8.08584 6.54412ZM5.24725 6.54442L5.33807 6.54323C5.75305 6.54457 6.1455 6.73716 6.40032 7.06695L5.86342 7.51541L5.83838 7.48666C5.69364 7.32814 5.48815 7.23747 5.27229 7.23836C4.8871 7.23836 4.5782 7.54118 4.5782 8.0009C4.5782 8.46358 4.88384 8.76344 5.26933 8.76344C5.50089 8.76003 5.72001 8.6581 5.87186 8.48328L6.40313 8.93737L6.37395 8.97322C6.11646 9.27871 5.73764 9.4559 5.33807 9.45768L5.24725 9.45649C4.38946 9.43605 3.81833 8.82314 3.81833 8.00046C3.81833 7.17777 4.3896 6.56486 5.24725 6.54442ZM11.1158 6.94443L11.1384 6.91302C11.3233 6.66605 11.6202 6.52708 11.9299 6.54442C12.2197 6.53138 12.5017 6.64101 12.7065 6.8465C12.9113 7.05199 13.02 7.33422 13.0061 7.624V9.38701H12.2606V7.86371L12.26 7.82652C12.248 7.4477 12.0528 7.24399 11.7207 7.24399C11.4009 7.24399 11.1353 7.44963 11.1353 7.86949V9.38612H10.3899V6.61849H11.1158V6.94443ZM8.93742 7.96327C8.93223 7.56148 8.60497 7.23836 8.20303 7.23836C8.00273 7.23658 7.81073 7.31733 7.67191 7.46163C7.53294 7.60593 7.45975 7.80089 7.46924 8.0009C7.48464 8.40254 7.82006 8.71721 8.22185 8.70684C8.62363 8.69662 8.94246 8.3652 8.93742 7.96327Z" fill="white"/></g>
  <g id="polkascan-alt-16" class="sprite-item" fill="none"><path d="M8 2C11.3137 2 14 4.68629 14 8C14 11.3137 11.3137 14 8 14C4.68629 14 2 11.3137 2 8C2 4.68629 4.68629 2 8 2Z" fill="#FF6482"/><path fill-rule="evenodd" clip-rule="evenodd" d="M2.17804 9.45738C2.9564 9.44537 3.40958 9.07988 3.40958 8.5181C3.40958 8.05868 3.0952 7.79467 2.52082 7.69704L2.47622 7.68993L2.14259 7.63926L2.08718 7.62948C2.06103 7.62461 2.03607 7.61944 2.01228 7.61368C2.0217 7.46577 2.03648 7.31931 2.05643 7.1745C2.10056 7.16754 2.15002 7.16384 2.20496 7.16384C2.48941 7.17658 2.76868 7.2437 3.02764 7.36148L3.08705 7.38948L3.33891 6.80976C3.00187 6.63894 2.63001 6.54901 2.25281 6.54649L2.17734 6.54694C2.12626 6.75215 2.08576 6.96154 2.05643 7.1745C2.0564 7.1745 2.05645 7.17449 2.05643 7.1745C2.03657 7.31924 2.02169 7.46563 2.01206 7.61363C2.01214 7.61365 2.01221 7.61367 2.01228 7.61368C2.00414 7.74166 2 7.87072 2 8.00075C2 8.1001 2.00241 8.19889 2.00719 8.29706C2.00909 8.33598 2.01134 8.37481 2.01398 8.41354C2.021 8.51695 2.03065 8.61964 2.04285 8.72154C2.04748 8.7603 2.05248 8.79896 2.05784 8.83751C2.08719 9.04782 2.12748 9.25464 2.17804 9.45738C2.17805 9.45738 2.17802 9.45738 2.17804 9.45738ZM2.04285 8.72154C2.04748 8.7603 2.05248 8.79896 2.05784 8.83751L2.08851 8.83811L2.18199 8.83707C2.502 8.83025 2.65564 8.73425 2.65564 8.57765C2.65564 8.44343 2.51845 8.3692 2.19637 8.32357L2.00719 8.29706C2.00909 8.33598 2.01134 8.37481 2.01398 8.41354C2.021 8.51695 2.03065 8.61964 2.04285 8.72154ZM8.08584 6.54412L8.12584 6.54323C8.43208 6.54309 8.72275 6.68279 8.91401 6.92398V6.61835H9.64233V9.38597L8.91401 9.38612V9.08048L8.88823 9.11115C8.68749 9.34153 8.39267 9.46953 8.08584 9.45738L8.04629 9.45694C7.29931 9.43753 6.7067 8.86936 6.7067 8.00075C6.7067 7.13214 7.29931 6.56397 8.04629 6.54457L8.08584 6.54412ZM5.24725 6.54442L5.33807 6.54323C5.75305 6.54457 6.1455 6.73716 6.40032 7.06695L5.86342 7.51541L5.83838 7.48666C5.69364 7.32814 5.48815 7.23747 5.27229 7.23836C4.8871 7.23836 4.5782 7.54118 4.5782 8.0009C4.5782 8.46358 4.88384 8.76344 5.26933 8.76344C5.50089 8.76003 5.72001 8.6581 5.87186 8.48328L6.40313 8.93737L6.37395 8.97322C6.11646 9.27871 5.73764 9.4559 5.33807 9.45768L5.24725 9.45649C4.38946 9.43605 3.81833 8.82314 3.81833 8.00046C3.81833 7.17777 4.3896 6.56486 5.24725 6.54442ZM11.1158 6.94443L11.1384 6.91302C11.3233 6.66605 11.6202 6.52708 11.9299 6.54442C12.2197 6.53138 12.5017 6.64101 12.7065 6.8465C12.9113 7.05199 13.02 7.33422 13.0061 7.624V9.38701H12.2606V7.86371L12.26 7.82652C12.248 7.4477 12.0528 7.24399 11.7207 7.24399C11.4009 7.24399 11.1353 7.44963 11.1353 7.86949V9.38612H10.3899V6.61849H11.1158V6.94443ZM8.93742 7.96327C8.93223 7.56148 8.60497 7.23836 8.20303 7.23836C8.00273 7.23658 7.81073 7.31733 7.67191 7.46163C7.53294 7.60593 7.45975 7.80089 7.46924 8.0009C7.48464 8.40254 7.82006 8.71721 8.22185 8.70684C8.62363 8.69662 8.94246 8.3652 8.93742 7.96327Z" fill="#351358"/></g>
  <g id="polkascan-white-16" class="sprite-item" fill="none"><path d="M7.99585 1C11.8641 1 15 4.134 15 8C15 11.866 11.8641 15 7.99585 15C4.71385 15 1.95916 12.7442 1.19941 9.6994C2.10807 9.6854 2.63711 9.25899 2.63711 8.60357C2.63711 8.06758 2.27012 7.75957 1.59961 7.64567L1.54755 7.63737L1.15807 7.57826L1.09339 7.56685C1.06278 7.56115 1.03355 7.5551 1.00571 7.54836C1.01695 7.37569 1.03424 7.20492 1.05742 7.03605C1.10896 7.02793 1.16672 7.02361 1.23088 7.02361C1.56294 7.03847 1.88894 7.11677 2.19125 7.25418L2.26061 7.28685L2.55461 6.61051C2.16116 6.41122 1.72707 6.3063 1.28675 6.30337L1.19854 6.30388C1.95726 3.25751 4.71264 1 7.99585 1ZM8.14268 6.29956L8.09599 6.3006L8.04981 6.30112C7.17781 6.32376 6.48603 6.98662 6.48603 8C6.48603 9.01338 7.17781 9.67624 8.04981 9.69888L8.09599 9.6994C8.45416 9.71357 8.79832 9.56424 9.03266 9.29546L9.06275 9.25968V9.61626L9.91296 9.61609V6.38719H9.06275V6.74377C8.83948 6.46238 8.50016 6.29939 8.14268 6.29956ZM4.88835 6.29956L4.78233 6.30095C3.78115 6.3248 3.11427 7.03985 3.11427 7.99965C3.11427 8.95946 3.78098 9.67451 4.78233 9.69836L4.88835 9.69975C5.35479 9.69767 5.79701 9.49095 6.09759 9.13455L6.13166 9.09272L5.51148 8.56295C5.33421 8.76691 5.07842 8.88582 4.8081 8.8898C4.3581 8.8898 4.00131 8.53996 4.00131 8.00017C4.00131 7.46384 4.3619 7.11055 4.81156 7.11055C5.06355 7.10951 5.30342 7.21529 5.47239 7.40023L5.50162 7.43376L6.12838 6.91057C5.83091 6.52582 5.37277 6.30112 4.88835 6.29956ZM11.6594 6.73098L11.6331 6.76762V6.38737H10.7856V9.61626H11.6557V7.84686C11.6557 7.35702 11.9658 7.11711 12.3392 7.11711C12.7268 7.11711 12.9547 7.35477 12.9687 7.79674L12.9694 7.84012V9.6173H13.8397V7.56046C13.856 7.22238 13.729 6.89311 13.49 6.65337C13.2508 6.41364 12.9217 6.28574 12.5834 6.30095C12.2218 6.28072 11.8752 6.44285 11.6594 6.73098ZM1 8.34569L1.22085 8.37663C1.59684 8.42986 1.75699 8.51646 1.75699 8.67305C1.75699 8.85575 1.57764 8.96775 1.20408 8.9757L1.09495 8.97691L1.05915 8.97622C1.03027 8.76864 1.01038 8.55846 1 8.34569ZM8.23279 7.11055C8.70199 7.11055 9.08403 7.48752 9.09008 7.95627C9.09596 8.4252 8.72378 8.81185 8.25475 8.82377C7.78572 8.83587 7.39417 8.46875 7.37618 8.00017C7.36511 7.76683 7.45055 7.53937 7.61278 7.37102C7.77483 7.20267 7.99896 7.10847 8.23279 7.11055Z" fill="white"/></g>
  <g id="subid-16" class="sprite-item" fill="none"><path fill-rule="evenodd" clip-rule="evenodd" d="M8 14C11.3137 14 14 11.3137 14 8C14 4.68629 11.3137 2 8 2C4.68628 2 2 4.68629 2 8C2 11.3137 4.68628 14 8 14ZM4.53048 10.72H5.89764V5.0325H4.53048V10.72ZM7.2508 5.0325V10.72H9.12188C9.61408 10.7174 10.0594 10.6002 10.4578 10.3684C10.8588 10.1341 11.1688 9.81116 11.3875 9.39968C11.6088 8.98564 11.7195 8.51816 11.7195 7.99736V7.73564C11.7169 7.22 11.6024 6.75516 11.3758 6.34108C11.1518 5.92443 10.8393 5.60281 10.4383 5.37625C10.0372 5.14708 9.5854 5.0325 9.0828 5.0325H7.2508ZM8.62188 9.66532V6.09108H9.0828C9.48644 6.09108 9.79376 6.2304 10.0047 6.50908C10.2156 6.78772 10.3211 7.20176 10.3211 7.75124V7.99736C10.3211 8.54944 10.2156 8.96608 10.0047 9.24736C9.79376 9.526 9.49168 9.66532 9.09844 9.66532H8.62188Z" fill="url(#paint0_linear_2462_9415)"/><defs><linearGradient id="paint0_linear_2462_9415" x1="8" y1="2" x2="8" y2="14" gradientUnits="userSpaceOnUse"><stop stop-color="#F50083"/><stop offset="1" stop-color="#720497"/></linearGradient></defs></g>
  <g id="subid-white-16" class="sprite-item" fill="none"><path fill-rule="evenodd" clip-rule="evenodd" d="M8 15C11.866 15 15 11.866 15 8C15 4.13401 11.866 1 8 1C4.13399 1 1 4.13401 1 8C1 11.866 4.13399 15 8 15ZM3.95223 11.1733H5.54725V4.53792H3.95223V11.1733ZM7.12593 4.53792V11.1733H9.30886C9.88309 11.1703 10.4026 11.0336 10.8674 10.7632C11.3353 10.4898 11.6969 10.113 11.9521 9.63296C12.2103 9.14991 12.3394 8.60452 12.3394 7.99692V7.69158C12.3364 7.09 12.2028 6.54769 11.9384 6.06459C11.6771 5.5785 11.3125 5.20328 10.8447 4.93896C10.3768 4.6716 9.84963 4.53792 9.26327 4.53792H7.12593ZM8.72553 9.94287V5.77293H9.26327C9.73418 5.77293 10.0927 5.93547 10.3388 6.26059C10.5849 6.58567 10.7079 7.06872 10.7079 7.70978V7.99692C10.7079 8.64101 10.5849 9.12709 10.3388 9.45525C10.0927 9.78033 9.74029 9.94287 9.28151 9.94287H8.72553Z" fill="white"/></g>
  <g id="subscan-16" class="sprite-item" fill="none"><path opacity="0.2" d="M8.63729 3.5387C8.98929 3.1867 8.98929 2.616 8.63729 2.264C8.28529 1.912 7.71459 1.912 7.36259 2.264L2.264 7.36269C1.912 7.71469 1.912 8.28539 2.264 8.63729L4.8133 11.1866V11.1867C5.16529 11.5387 5.73589 11.5387 6.08789 11.1867L10.5493 6.72529L11.824 7.99999L7.36259 12.4614C7.01059 12.8133 7.01059 13.384 7.36259 13.7361C7.71459 14.088 8.28529 14.088 8.63729 13.7361L13.7359 8.63729C14.0879 8.28539 14.0879 7.71469 13.7359 7.36269L11.1866 4.8133C10.8346 4.4614 10.264 4.4614 9.91199 4.8133L5.45059 9.27469L4.1759 7.99999L8.63729 3.5387Z" fill="url(#paint0_linear_2462_9438)"/><path d="M8.63737 12.4614C8.98937 12.8134 8.98937 13.3841 8.63737 13.7361C8.28537 14.0881 7.71467 14.0881 7.36267 13.7361C7.01067 13.3841 7.01067 12.8134 7.36267 12.4614C7.71467 12.1094 8.28537 12.1094 8.63737 12.4614ZM6.08801 9.91204C6.44001 10.264 6.44001 10.8347 6.08801 11.1867C5.73601 11.5387 5.16532 11.5387 4.81332 11.1867C4.46132 10.8347 4.46132 10.264 4.81332 9.91204C5.16532 9.56004 5.73601 9.56004 6.08801 9.91204ZM11.1867 9.91204C11.5387 10.264 11.5387 10.8347 11.1867 11.1866C10.8347 11.5387 10.264 11.5387 9.91199 11.1867C9.55999 10.8347 9.55999 10.264 9.91199 9.91204C10.264 9.56004 10.8347 9.56004 11.1867 9.91204ZM3.5387 7.36273C3.8907 7.71473 3.8907 8.28543 3.5387 8.63733C3.1867 8.98943 2.616 8.98943 2.264 8.63733C1.912 8.28543 1.912 7.71473 2.264 7.36273C2.616 7.01063 3.1867 7.01063 3.5387 7.36273ZM8.63737 7.36273C8.98937 7.71473 8.98937 8.28543 8.63737 8.63733C8.28537 8.98943 7.71467 8.98943 7.36267 8.63733C7.01067 8.28543 7.01067 7.71473 7.36267 7.36273C7.71467 7.01063 8.28537 7.01063 8.63737 7.36273ZM13.736 7.36273C14.088 7.71473 14.088 8.28543 13.736 8.63733C13.384 8.98943 12.8133 8.98943 12.4613 8.63733C12.1093 8.28543 12.1093 7.71473 12.4613 7.36273C12.8133 7.01063 13.384 7.01063 13.736 7.36273ZM6.08801 4.81332C6.44001 5.16542 6.44001 5.73611 6.08801 6.08801C5.73601 6.44001 5.16532 6.44001 4.81332 6.08801C4.46132 5.73611 4.46132 5.16542 4.81332 4.81342C5.16532 4.46132 5.73601 4.46132 6.08801 4.81332ZM11.1867 4.81332C11.5387 5.16542 11.5387 5.73611 11.1867 6.08801C10.8347 6.44001 10.264 6.44001 9.91199 6.08801C9.55999 5.73611 9.55999 5.16542 9.91199 4.81342C10.264 4.46132 10.8347 4.46132 11.1867 4.81332ZM8.63737 2.264C8.98937 2.6161 8.98937 3.1868 8.63737 3.5387C8.28537 3.8907 7.71467 3.8907 7.36267 3.5387C7.01067 3.1868 7.01067 2.6161 7.36267 2.264C7.71467 1.912 8.28537 1.912 8.63737 2.264Z" fill="url(#paint1_linear_2462_9438)"/><defs><linearGradient id="paint0_linear_2462_9438" x1="13.9998" y1="14" x2="2" y2="2.00013" gradientUnits="userSpaceOnUse"><stop stop-color="#FE3876"/><stop offset="0.714448" stop-color="#7C30DD"/><stop offset="1" stop-color="#3A30DD"/></linearGradient><linearGradient id="paint1_linear_2462_9438" x1="14.0001" y1="14.0001" x2="1.9999" y2="2.00005" gradientUnits="userSpaceOnUse"><stop stop-color="#FE3876"/><stop offset="0.714448" stop-color="#7C30DD"/><stop offset="1" stop-color="#3A30DD"/></linearGradient></defs></g>
  <g id="subscan-white-16" class="sprite-item" fill="none"><path opacity="0.2" d="M8.63729 3.5387C8.98929 3.1867 8.98929 2.616 8.63729 2.264C8.28529 1.912 7.71459 1.912 7.36259 2.264L2.264 7.36269C1.912 7.71469 1.912 8.28539 2.264 8.63729L4.8133 11.1866V11.1867C5.16529 11.5387 5.73589 11.5387 6.08789 11.1867L10.5493 6.72529L11.824 7.99999L7.36259 12.4614C7.01059 12.8133 7.01059 13.384 7.36259 13.7361C7.71459 14.088 8.28529 14.088 8.63729 13.7361L13.7359 8.63729C14.0879 8.28539 14.0879 7.71469 13.7359 7.36269L11.1866 4.8133C10.8346 4.4614 10.264 4.4614 9.91199 4.8133L5.45059 9.27469L4.1759 7.99999L8.63729 3.5387Z" fill="white"/><path d="M8.63737 12.4614C8.98937 12.8134 8.98937 13.3841 8.63737 13.7361C8.28537 14.0881 7.71467 14.0881 7.36267 13.7361C7.01067 13.3841 7.01067 12.8134 7.36267 12.4614C7.71467 12.1094 8.28537 12.1094 8.63737 12.4614ZM6.08801 9.91204C6.44001 10.264 6.44001 10.8347 6.08801 11.1867C5.73601 11.5387 5.16532 11.5387 4.81332 11.1867C4.46132 10.8347 4.46132 10.264 4.81332 9.91204C5.16532 9.56004 5.73601 9.56004 6.08801 9.91204ZM11.1867 9.91204C11.5387 10.264 11.5387 10.8347 11.1867 11.1866C10.8347 11.5387 10.264 11.5387 9.91199 11.1867C9.55999 10.8347 9.55999 10.264 9.91199 9.91204C10.264 9.56004 10.8347 9.56004 11.1867 9.91204ZM3.5387 7.36273C3.8907 7.71473 3.8907 8.28543 3.5387 8.63733C3.1867 8.98943 2.616 8.98943 2.264 8.63733C1.912 8.28543 1.912 7.71473 2.264 7.36273C2.616 7.01063 3.1867 7.01063 3.5387 7.36273ZM8.63737 7.36273C8.98937 7.71473 8.98937 8.28543 8.63737 8.63733C8.28537 8.98943 7.71467 8.98943 7.36267 8.63733C7.01067 8.28543 7.01067 7.71473 7.36267 7.36273C7.71467 7.01063 8.28537 7.01063 8.63737 7.36273ZM13.736 7.36273C14.088 7.71473 14.088 8.28543 13.736 8.63733C13.384 8.98943 12.8133 8.98943 12.4613 8.63733C12.1093 8.28543 12.1093 7.71473 12.4613 7.36273C12.8133 7.01063 13.384 7.01063 13.736 7.36273ZM6.08801 4.81332C6.44001 5.16542 6.44001 5.73611 6.08801 6.08801C5.73601 6.44001 5.16532 6.44001 4.81332 6.08801C4.46132 5.73611 4.46132 5.16542 4.81332 4.81342C5.16532 4.46132 5.73601 4.46132 6.08801 4.81332ZM11.1867 4.81332C11.5387 5.16542 11.5387 5.73611 11.1867 6.08801C10.8347 6.44001 10.264 6.44001 9.91199 6.08801C9.55999 5.73611 9.55999 5.16542 9.91199 4.81342C10.264 4.46132 10.8347 4.46132 11.1867 4.81332ZM8.63737 2.264C8.98937 2.6161 8.98937 3.1868 8.63737 3.5387C8.28537 3.8907 7.71467 3.8907 7.36267 3.5387C7.01067 3.1868 7.01067 2.6161 7.36267 2.264C7.71467 1.912 8.28537 1.912 8.63737 2.264Z" fill="white"/></g>
  <g id="statescan-16" class="sprite-item" fill="none"><path d="M10.9239 5.6658C10.6437 3.69757 8.96269 2.48047 6.10204 2.48047C3.20449 2.48047 1.29491 3.74626 1.30229 5.80491C1.29491 7.40454 2.36398 8.4408 4.57584 8.85809L6.53702 9.22668C7.52501 9.41449 7.97475 9.75525 7.98947 10.2908C7.97475 10.9237 7.24483 11.3757 6.14624 11.3757C5.02559 11.3757 4.28093 10.9237 4.08923 10.0543L1 10.2073C1.29491 12.2521 3.13813 13.5109 6.13891 13.5109C9.0733 13.5109 11.1745 12.099 11.1819 9.99172C11.1745 8.44776 10.1055 7.52273 7.9084 7.09848L5.85873 6.70903C4.8044 6.49342 4.41364 6.15262 4.42101 5.63797C4.41364 4.99812 5.18042 4.58084 6.15363 4.58084C7.24483 4.58084 7.89363 5.14419 8.04844 5.8327L10.9239 5.6658Z" fill="#111111"/><path d="M14.9996 12.2395C14.9996 12.9425 14.4298 13.5123 13.7268 13.5123C13.0239 13.5123 12.4541 12.9425 12.4541 12.2395C12.4541 11.5366 13.0239 10.9668 13.7268 10.9668C14.4298 10.9668 14.9996 11.5366 14.9996 12.2395Z" fill="#F22279"/></g>
  <g id="ternoa-16" class="sprite-item" fill="none"><path d="M8.00263 1.59961C6.47367 1.59889 4.98649 2.08353 3.76845 2.97945C2.5504 3.87537 1.66851 5.13329 1.25755 6.56092C0.846598 7.98857 0.929198 9.5074 1.49273 10.8852C2.05626 12.263 3.06972 13.4241 4.37819 14.1909C4.64448 14.3476 4.95 14.4303 5.26148 14.4303H5.2843C5.51189 14.4316 5.73745 14.389 5.94795 14.3051C6.15846 14.2213 6.3497 14.0977 6.51063 13.9417C6.67155 13.7857 6.79896 13.6003 6.88549 13.3963C6.972 13.1922 7.01592 12.9736 7.01464 12.753V9.66233C7.01429 9.64518 7.00711 9.62885 6.99463 9.61678C6.98209 9.60464 6.96523 9.59764 6.94756 9.59735H5.89509C5.76273 9.60208 5.63073 9.5809 5.50701 9.53505C5.38328 9.4892 5.27035 9.41967 5.17498 9.33059C5.0796 9.24146 5.00375 9.13471 4.95194 9.01653C4.90012 8.89834 4.87341 8.77123 4.87341 8.64284C4.87341 8.51439 4.90012 8.3874 4.95194 8.26922C5.00375 8.15103 5.0796 8.04422 5.17498 7.95509C5.27035 7.86602 5.38328 7.79642 5.50701 7.75063C5.63073 7.70478 5.76273 7.68361 5.89509 7.68833H10.1035C10.2359 7.68361 10.3679 7.70478 10.4916 7.75063C10.6153 7.79642 10.7283 7.86602 10.8236 7.95509C10.919 8.04422 10.9949 8.15103 11.0466 8.26922C11.0984 8.3874 11.1252 8.51439 11.1252 8.64284C11.1252 8.77123 11.0984 8.89834 11.0466 9.01653C10.9949 9.13471 10.919 9.24146 10.8236 9.33059C10.7283 9.41967 10.6153 9.4892 10.4916 9.53505C10.3679 9.5809 10.2359 9.60208 10.1035 9.59735H9.05374C9.03601 9.59764 9.01915 9.60464 9.00673 9.61678C8.99418 9.62885 8.98695 9.64518 8.9866 9.66233V12.753C8.98987 13.198 9.17379 13.6239 9.49865 13.9383C9.82357 14.2529 10.2632 14.4305 10.7224 14.433H10.7452C11.0571 14.4328 11.363 14.3485 11.6285 14.1896C12.935 13.422 13.9466 12.261 14.5088 10.8841C15.071 9.50699 15.153 7.98945 14.7424 6.563C14.3316 5.13655 13.4507 3.87956 12.234 2.98385C11.0174 2.08814 9.53178 1.60291 8.00397 1.60222L8.00263 1.59961ZM3.03579 9.72743C2.81425 9.72773 2.59761 9.66426 2.41329 9.54514C2.22897 9.42597 2.08527 9.25645 2.00036 9.05812C1.91546 8.85978 1.89317 8.64144 1.93633 8.43074C1.97949 8.22016 2.08615 8.02667 2.2428 7.87477C2.39945 7.72292 2.59906 7.61956 2.81636 7.57773C3.03366 7.53585 3.25887 7.55749 3.4635 7.6398C3.66813 7.72205 3.84297 7.86141 3.96589 8.04002C4.0888 8.2187 4.15427 8.4287 4.15401 8.64348C4.15331 8.92984 4.03601 9.20436 3.82761 9.40736C3.61922 9.61036 3.33657 9.72539 3.04116 9.72743H3.03579ZM8.00263 6.49767C7.65905 6.49792 7.32305 6.39939 7.03721 6.21452C6.7514 6.02965 6.52855 5.76674 6.39687 5.45908C6.26519 5.15141 6.2306 4.81281 6.29747 4.48608C6.36434 4.15936 6.52967 3.85921 6.77255 3.62358C7.01546 3.38796 7.32497 3.22746 7.66197 3.16239C7.99896 3.09731 8.34826 3.13056 8.66577 3.25797C8.98328 3.38539 9.25458 3.60122 9.44557 3.87815C9.63643 4.15509 9.7384 4.48069 9.7384 4.81379C9.73554 5.25907 9.55179 5.68533 9.22682 6.00007C8.9019 6.31481 8.46201 6.49267 8.00263 6.49506V6.49767ZM12.9494 9.72743C12.7279 9.72743 12.5114 9.66379 12.3273 9.54444C12.1431 9.42515 11.9996 9.25558 11.9149 9.05724C11.8302 8.85885 11.8081 8.64057 11.8514 8.42998C11.8948 8.2194 12.0016 8.02608 12.1582 7.8743C12.3149 7.72257 12.5145 7.61932 12.7318 7.57762C12.9491 7.53591 13.1742 7.55755 13.3788 7.63992C13.5833 7.72222 13.7581 7.86152 13.8809 8.0402C14.0038 8.21882 14.0692 8.42882 14.069 8.64348C14.0683 8.93101 13.95 9.20652 13.7402 9.40969C13.5303 9.61287 13.246 9.72714 12.9494 9.72743Z" fill="#0A0A0A"/></g>
</svg>
