<svg viewBox="0 0 20 20" xmlns="http://www.w3.org/2000/svg">
  <defs>
    <style>
      .sprite-item { display: none; }
      .sprite-item:target { display: inline; }
    </style>
  </defs>
  <g id="address-book-20" class="sprite-item" fill="none"><path fill-rule="evenodd" clip-rule="evenodd" d="M3.86035 2.6C3.86035 2.26863 4.12898 2 4.46035 2H15.6231C15.9545 2 16.2231 2.26863 16.2231 2.6V17.4837C16.2231 17.6429 16.1599 17.7955 16.0474 17.908C15.9349 18.0205 15.7823 18.0837 15.6231 18.0837L4.46035 18.0837C4.12898 18.0837 3.86035 17.815 3.86035 17.4837V13.4324H2.6C2.26863 13.4324 2 13.1638 2 12.8324C2 12.5011 2.26863 12.2324 2.6 12.2324H3.86035V7.85137H2.6C2.26863 7.85137 2 7.58274 2 7.25137C2 6.92 2.26863 6.65137 2.6 6.65137H3.86035V3.35061M5.06035 4.22181V7.23955L5.06047 7.25137L5.06035 7.26318V12.8206L5.06047 12.8324L5.06035 12.8442V16.8837L15.0231 16.8837V3.2H5.06035V4.22181ZM5.06035 4.22181L8.67306 6.84464C7.94854 7.56148 7.89623 8.7146 8.55277 9.49411L8.55279 9.49413L8.56039 9.50316C7.32552 9.84308 6.46973 10.9662 6.46973 12.2471V13.1988C6.46973 13.5302 6.73836 13.7988 7.06973 13.7988H13.0244C13.3557 13.7988 13.6244 13.5302 13.6244 13.1988V12.2454C13.6244 10.9656 12.7696 9.84343 11.536 9.50331L11.5437 9.49411L11.5438 9.4941C12.2003 8.71459 12.148 7.56147 11.4235 6.84464C10.6616 6.09085 9.43491 6.09085 8.67306 6.84464M9.51707 7.69767C9.81134 7.40651 10.2852 7.40651 10.5794 7.69767L9.86169 9.23745C9.8267 9.16208 9.78088 9.08945 9.72363 9.02147L9.72359 9.02143L9.4706 8.72108L9.47058 8.72106C9.21699 8.41994 9.23722 7.97454 9.51706 7.69767L9.51707 7.69767ZM9.8617 9.23747L10.5794 7.69767C10.8593 7.97455 10.8795 8.41996 10.6259 8.72108L10.6259 8.72109L10.3729 9.02151L10.3728 9.02156C9.92341 9.55516 10.1783 10.3746 10.8507 10.5595L10.8508 10.5595L11.2158 10.6598L11.2158 10.6598C11.9296 10.856 12.4244 11.5051 12.4244 12.2454V12.5988H7.66973V12.2471C7.66973 11.5059 8.16511 10.8562 8.87979 10.6599L8.8798 10.6599L9.24544 10.5595L9.86169 9.23745C9.86169 9.23745 9.86169 9.23746 9.8617 9.23747ZM9.24548 10.5594L9.8617 9.23747C10.1013 9.75362 9.8325 10.3983 9.24548 10.5594Z" fill="currentColor"/></g>
  <g id="notifications-20" class="sprite-item" fill="none"><path fill-rule="evenodd" clip-rule="evenodd" d="M9.99787 2C9.19552 2 8.72123 2.65716 8.72123 3.27663V4.09059C6.31798 4.65092 4.57656 6.76933 4.57656 9.36623V14.8559H3.65469C3.32332 14.8559 3.05469 15.1245 3.05469 15.4559C3.05469 15.7873 3.32332 16.0559 3.65469 16.0559H8.72123V16.7246C8.72123 17.5269 9.37839 18.0012 9.99787 18.0012C10.8002 18.0012 11.2745 17.3441 11.2745 16.7246V16.0559H16.3416C16.673 16.0559 16.9416 15.7873 16.9416 15.4559C16.9416 15.1245 16.673 14.8559 16.3416 14.8559H15.4186V9.36623C15.4186 6.84695 13.6814 4.67265 11.2745 4.09514V3.27663C11.2745 2.47429 10.6173 2 9.99787 2ZM10.0745 3.94573V3.27663C10.0745 3.25237 10.07 3.24048 10.0681 3.23618C10.0659 3.23131 10.0628 3.2268 10.0576 3.22202C10.0445 3.21 10.0212 3.2 9.99787 3.2C9.9736 3.2 9.96172 3.20452 9.95742 3.20644C9.95254 3.2086 9.94803 3.21167 9.94325 3.21688C9.93123 3.23 9.92123 3.25334 9.92123 3.27663V3.94571C9.94663 3.94537 9.97208 3.94521 9.99758 3.94521C10.0233 3.94521 10.0489 3.94538 10.0745 3.94573ZM14.2186 14.8559V9.36623C14.2186 7.06876 12.3659 5.14521 9.99758 5.14521C7.62241 5.14521 5.77656 6.99106 5.77656 9.36623V14.8559H9.32123H10.6745H14.2186ZM9.92123 16.7246V16.0559H10.0745V16.7246C10.0745 16.7479 10.0645 16.7712 10.0525 16.7843C10.0477 16.7896 10.0432 16.7926 10.0383 16.7948C10.034 16.7967 10.0221 16.8012 9.99787 16.8012C9.97458 16.8012 9.95123 16.7912 9.93811 16.7792C9.93291 16.7744 9.92983 16.7699 9.92767 16.765C9.92575 16.7607 9.92123 16.7489 9.92123 16.7246Z" fill="currentColor"/></g>
  <g id="operations-20" class="sprite-item" fill="none"><path fill-rule="evenodd" clip-rule="evenodd" d="M13.5574 3.27535C13.3231 3.04103 12.9432 3.04103 12.7089 3.27535C12.4745 3.50966 12.4745 3.88956 12.7089 4.12387L14.9531 6.36811H3.6C3.26863 6.36811 3 6.63674 3 6.96811C3 7.29948 3.26863 7.56811 3.6 7.56811H14.8169L12.7089 9.67615C12.4745 9.91047 12.4745 10.2904 12.7089 10.5247C12.9432 10.759 13.3231 10.759 13.5574 10.5247L16.7578 7.32428C16.9921 7.08996 16.9921 6.71006 16.7578 6.47575L13.5574 3.27535ZM7.29199 10.2523C7.5263 10.018 7.5263 9.63811 7.29199 9.4038C7.05767 9.16948 6.67778 9.16948 6.44346 9.4038L3.24306 12.6042C3.13054 12.7167 3.06732 12.8693 3.06732 13.0285C3.06732 13.1876 3.13054 13.3402 3.24306 13.4527L6.44346 16.6531C6.67778 16.8874 7.05767 16.8874 7.29199 16.6531C7.5263 16.4188 7.5263 16.0389 7.29199 15.8046L5.11585 13.6285H16.4008C16.7322 13.6285 17.0008 13.3598 17.0008 13.0285C17.0008 12.6971 16.7322 12.4285 16.4008 12.4285H5.11585L7.29199 10.2523Z" fill="currentColor"/></g>
  <g id="settings-20" class="sprite-item" fill="none"><path fill-rule="evenodd" clip-rule="evenodd" d="M8.47851 2.19747C8.28835 1.9873 7.97705 1.93886 7.73202 2.08132L4.34587 4.05001C4.10661 4.18911 3.99354 4.47382 4.07216 4.73917L4.65132 6.69384L4.5745 6.94989L2.50446 7.28377C2.21373 7.33066 2 7.58162 2 7.87612V10.0023V12.1285C2 12.423 2.21373 12.6739 2.50446 12.7208L4.5745 13.0547L4.65132 13.3108L4.07216 15.2654C3.99354 15.5308 4.10661 15.8155 4.34587 15.9546L7.73202 17.9233C7.97705 18.0657 8.28835 18.0173 8.47851 17.8071L9.79607 16.3509H10.0023H10.2085L11.5261 17.8071C11.7162 18.0173 12.0275 18.0657 12.2725 17.9233L15.6587 15.9546C15.898 15.8155 16.011 15.5308 15.9324 15.2654L15.3532 13.3108L15.4301 13.0547L17.5001 12.7208C17.7908 12.6739 18.0046 12.423 18.0046 12.1285V10.0023V7.87612C18.0046 7.58162 17.7908 7.33066 17.5001 7.28377L15.4301 6.94989L15.3532 6.69384L15.9324 4.73917C16.011 4.47382 15.898 4.18911 15.6587 4.05001L12.2725 2.08132C12.0275 1.93886 11.7162 1.9873 11.5261 2.19747L10.2085 3.65372H10.0023H9.79607L8.47851 2.19747ZM5.8527 6.52445L5.35668 4.8504L7.91485 3.36309L9.08487 4.65627C9.19862 4.78199 9.36025 4.85372 9.52979 4.85372H10.0023H10.4748C10.6443 4.85372 10.8059 4.78199 10.9197 4.65627L12.0897 3.36309L14.6479 4.8504L14.1519 6.52445C14.1187 6.63636 14.1189 6.75551 14.1524 6.86731L14.3887 7.65479C14.4548 7.87501 14.6409 8.03811 14.8678 8.07472L16.8046 8.3871V10.0023V11.6175L14.8678 11.9299C14.6409 11.9665 14.4548 12.1296 14.3887 12.3498L14.1524 13.1373C14.1189 13.2491 14.1187 13.3682 14.1519 13.4802L14.6479 15.1542L12.0897 16.6415L10.9197 15.3483C10.8059 15.2226 10.6443 15.1509 10.4748 15.1509H10.0023H9.52979C9.36025 15.1509 9.19862 15.2226 9.08487 15.3483L7.91485 16.6415L5.35668 15.1542L5.8527 13.4802C5.88586 13.3682 5.88566 13.2491 5.85212 13.1373L5.61587 12.3498C5.54981 12.1296 5.3637 11.9665 5.13672 11.9299L3.2 11.6175V10.0023V8.3871L5.13672 8.07472C5.3637 8.03811 5.54981 7.87501 5.61587 7.65479L5.85212 6.86731C5.88566 6.75551 5.88586 6.63636 5.8527 6.52445ZM10.002 6.961C8.35676 6.961 6.88206 8.30778 6.88206 10.0022C6.88206 11.6723 8.25316 13.0434 9.92324 13.0434C11.5933 13.0434 12.9644 11.6723 12.9644 10.0022C12.9644 8.3581 11.6975 6.961 10.002 6.961ZM8.08206 10.0022C8.08206 9.01916 8.96979 8.161 10.002 8.161C10.9839 8.161 11.7644 8.96884 11.7644 10.0022C11.7644 11.0095 10.9306 11.8434 9.92324 11.8434C8.9159 11.8434 8.08206 11.0095 8.08206 10.0022Z" fill="currentColor"/></g>
  <g id="staking-20" class="sprite-item" fill="none"><path fill-rule="evenodd" clip-rule="evenodd" d="M10.0006 4C7.86622 4 5.90496 4.52125 4.45739 5.3955C3.02117 6.26291 2 7.54371 2 9.06954C2 9.15965 2.00356 9.2489 2.01056 9.33726C2.00363 9.37375 2 9.4114 2 9.44991V11.304C2 12.8427 3.0366 14.0549 4.4777 14.8501C5.92612 15.6493 7.88178 16.0942 10.0006 16.0942C12.1194 16.0942 14.075 15.6493 15.5234 14.8501C16.9645 14.0549 18.0012 12.8427 18.0012 11.304V9.44991C18.0012 9.4114 17.9975 9.37375 17.9906 9.33726C17.9976 9.2489 18.0012 9.15965 18.0012 9.06954C18.0012 7.54371 16.98 6.2629 15.5438 5.3955C14.0962 4.52125 12.1349 4 10.0006 4ZM16.7331 11.8313C16.3876 12.1712 15.9853 12.4769 15.5438 12.7436C14.0962 13.6179 12.1349 14.1391 10.0006 14.1391C7.86622 14.1391 5.90495 13.6179 4.45739 12.7436C4.01584 12.4769 3.61352 12.1712 3.26804 11.8313C3.4598 12.5641 4.05676 13.2472 5.05746 13.7994C6.28752 14.4782 8.03215 14.8942 10.0006 14.8942C11.969 14.8942 13.7136 14.4782 14.9437 13.7994C15.9444 13.2472 16.5414 12.5641 16.7331 11.8313ZM3.2 9.06954C3.2 8.12693 3.83551 7.17296 5.07777 6.4227C6.30868 5.67929 8.04771 5.2 10.0006 5.2C11.9534 5.2 13.6925 5.67929 14.9234 6.4227C16.1656 7.17296 16.8012 8.12693 16.8012 9.06954C16.8012 10.0122 16.1656 10.9662 14.9234 11.7164C13.6925 12.4598 11.9534 12.9391 10.0006 12.9391C8.04771 12.9391 6.30869 12.4598 5.07777 11.7164C3.83551 10.9662 3.2 10.0122 3.2 9.06954ZM7.52014 9.68615C7.71896 9.42105 8.09504 9.36733 8.36014 9.56615L9.4 10.346V6.54615C9.4 6.21478 9.66863 5.94615 10 5.94615C10.3314 5.94615 10.6 6.21478 10.6 6.54615V10.3463L11.6401 9.56615C11.9052 9.36733 12.2813 9.42105 12.4801 9.68615C12.679 9.95125 12.6252 10.3273 12.3601 10.5261L10.3601 12.0261C10.1468 12.1861 9.85347 12.1861 9.64014 12.0261L7.64014 10.5261C7.37504 10.3273 7.32131 9.95125 7.52014 9.68615Z" fill="currentColor"/></g>
  <g id="assets-20" class="sprite-item" fill="none"><path fill-rule="evenodd" clip-rule="evenodd" d="M5.70205 3C5.37068 3 5.10205 3.26863 5.10205 3.6V5.72433H3.6C3.26863 5.72433 3 5.99295 3 6.32433V16.3989C3 16.7303 3.26863 16.9989 3.6 16.9989H14.3001C14.6315 16.9989 14.9001 16.7303 14.9001 16.3989V14.2747H16.4022C16.7335 14.2747 17.0022 14.006 17.0022 13.6747V3.6C17.0022 3.26863 16.7335 3 16.4022 3H5.70205ZM14.9055 9.59723C14.9055 9.55947 14.9037 9.52168 14.9001 9.48403V6.32433C14.9001 5.99295 14.6315 5.72433 14.3001 5.72433H6.30205V4.2H15.8022V13.0747H14.9055V9.59723ZM13.7001 6.92433V8.40965H10.5298C8.97507 8.40965 7.8252 9.79583 7.8252 11.3617C7.8252 12.9277 8.97508 14.3138 10.5298 14.3138H13.7001V15.7989H4.2V6.92433H13.7001ZM13.7001 13.1138V9.60965H10.5298C9.75981 9.60965 9.0252 10.3296 9.0252 11.3617C9.0252 12.3939 9.75979 13.1138 10.5298 13.1138H13.7001ZM10.7967 10.8949C10.5624 10.6606 10.1825 10.6606 9.94821 10.8949C9.71389 11.1292 9.71388 11.5091 9.94819 11.7435L9.95847 11.7537C10.1928 11.9881 10.5727 11.9881 10.807 11.7538C11.0413 11.5194 11.0413 11.1395 10.807 10.9052L10.7967 10.8949Z" fill="currentColor"/></g>
</svg>
