<svg viewBox="0 0 32 32" xmlns="http://www.w3.org/2000/svg">
  <defs>
    <style>
      .sprite-item { display: none; }
      .sprite-item:target { display: inline; }
    </style>
  </defs>
  <g id="add-address-20" class="sprite-item" fill="none"><path fill-rule="evenodd" clip-rule="evenodd" d="M14.8012 3C15.1325 3 15.4012 3.26863 15.4012 3.6V4.60107H16.4018C16.7331 4.60107 17.0018 4.8697 17.0018 5.20107C17.0018 5.53245 16.7331 5.80107 16.4018 5.80107H15.4012V6.80275C15.4012 7.13412 15.1325 7.40275 14.8012 7.40275C14.4698 7.40275 14.2012 7.13412 14.2012 6.80275V5.80107H13.2021C12.8707 5.80107 12.6021 5.53245 12.6021 5.20107C12.6021 4.8697 12.8707 4.60107 13.2021 4.60107H14.2012V3.6C14.2012 3.26863 14.4698 3 14.8012 3ZM7.72272 5.79874C8.46719 5.05218 9.67545 5.05218 10.4199 5.79873C11.1155 6.49626 11.1659 7.60953 10.5362 8.36734L10.157 8.82365L10.0514 8.9507C9.4639 9.65769 9.80015 10.7364 10.6863 10.9832L11.3432 11.166C12.8818 11.5943 13.947 12.9971 13.947 14.5965V15.7989H4.2V14.5934C4.2 12.9955 5.26407 11.5941 6.80115 11.1659L7.45662 10.9833C8.34287 10.7364 8.6787 9.65768 8.09131 8.95086L7.60636 8.36732C6.9982 7.63544 7.02448 6.57204 7.65357 5.87178C7.67586 5.84697 7.69891 5.82261 7.72272 5.79874ZM11.2696 4.9514C10.0563 3.73462 8.08637 3.73463 6.873 4.9514C5.74001 6.08757 5.65795 7.9002 6.68345 9.13429L7.1684 9.71783C7.20035 9.75627 7.18141 9.81426 7.13458 9.8273L6.4791 10.0099C4.42243 10.5828 3 12.4574 3 14.5934V16.3989C3 16.7302 3.26863 16.9989 3.6 16.9989H14.547C14.8784 16.9989 15.147 16.7302 15.147 16.3989V14.5965C15.147 12.4589 13.7233 10.583 11.6649 10.01L11.0081 9.82716C10.98 9.81931 10.962 9.79539 10.959 9.76923C10.9569 9.75166 10.9615 9.73308 10.9743 9.71767L11.4592 9.13427C12.4847 7.90018 12.4026 6.08757 11.2696 4.9514Z" fill="currentColor"/></g>
  <g id="lock-16" class="sprite-item" fill="none"><path fill-rule="evenodd" clip-rule="evenodd" d="M5.51554 5.75666C5.51554 4.33152 6.6409 3.2 8.00016 3.2C9.35936 3.2 10.4847 4.33151 10.4847 5.75666V7H5.51553L5.51554 5.75666V5.75666ZM4.31553 7L4.31554 5.75666V5.75665C4.31554 3.69505 5.95219 2 8.00016 2C10.0481 2 11.6847 3.69506 11.6847 5.75666V7H13C13.5523 7 14 7.44772 14 8V13C14 13.5523 13.5523 14 13 14H3C2.44772 14 2 13.5523 2 13V8C2 7.44772 2.44772 7 3 7H4.31553Z" fill="currentColor"/></g>
  <g id="chat-16" class="sprite-item" fill="none"><path fill-rule="evenodd" clip-rule="evenodd" d="M2.46601 7.87075C2.46601 4.73857 5.00367 2.2 8.13336 2.2C11.263 2.2 13.8007 4.73857 13.8007 7.87075C13.8007 11.0029 11.263 13.5415 8.13336 13.5415C7.15683 13.5415 6.23962 13.2949 5.43878 12.8609C5.28035 12.7585 5.07625 12.7323 4.88805 12.8082L2.47851 13.7811C2.31536 13.8469 2.15279 13.6852 2.21778 13.5217L3.18429 11.0903C3.25135 10.9216 3.23654 10.7406 3.1588 10.5913L3.15932 10.5911C2.71748 9.78408 2.46601 8.8577 2.46601 7.87075ZM1.96831 10.9008C1.51848 9.9862 1.26601 8.95722 1.26601 7.87075C1.26601 4.07644 4.34032 1 8.13336 1C11.9264 1 15.0007 4.07644 15.0007 7.87075C15.0007 11.665 11.9264 14.7415 8.13336 14.7415C7.0368 14.7415 5.99887 14.4839 5.07811 14.0256L2.92777 14.8938C1.78574 15.3549 0.647709 14.2229 1.10265 13.0785L1.96831 10.9008ZM5.05253 6.71404C5.05253 6.38267 5.32116 6.11404 5.65253 6.11404H10.2991C10.6305 6.11404 10.8991 6.38267 10.8991 6.71404C10.8991 7.04541 10.6305 7.31404 10.2991 7.31404H5.65253C5.32116 7.31404 5.05253 7.04541 5.05253 6.71404ZM5.65253 8.43861C5.32116 8.43861 5.05253 8.70724 5.05253 9.03861C5.05253 9.36998 5.32116 9.63861 5.65253 9.63861H8.55666C8.88803 9.63861 9.15666 9.36998 9.15666 9.03861C9.15666 8.70724 8.88803 8.43861 8.55666 8.43861H5.65253Z" fill="currentColor"/></g>
  <g id="chat-20" class="sprite-item" fill="none"><path fill-rule="evenodd" clip-rule="evenodd" d="M3.59913 9.8063C3.59913 6.15732 6.5549 3.2 10.2001 3.2C13.8453 3.2 16.801 6.15732 16.801 9.8063C16.801 13.4553 13.8453 16.4126 10.2001 16.4126C9.06425 16.4126 7.99704 16.126 7.06497 15.6215C6.90532 15.5143 6.69703 15.4855 6.50526 15.563L3.47852 16.7852C3.31538 16.8511 3.15279 16.6894 3.21777 16.5259L4.43125 13.4726C4.49802 13.3046 4.48359 13.1244 4.40669 12.9755L4.40565 12.9735C4.40222 12.9669 4.39867 12.9604 4.395 12.954C3.88759 12.0188 3.59913 10.9472 3.59913 9.8063ZM3.21462 13.2847C2.69258 12.2368 2.39913 11.0551 2.39913 9.8063C2.39913 5.49542 5.89132 2 10.2001 2C14.5089 2 18.001 5.49542 18.001 9.8063C18.001 14.1172 14.5089 17.6126 10.2001 17.6126C8.93995 17.6126 7.74817 17.3132 6.69337 16.7812L3.92786 17.8979C2.78586 18.3591 1.64775 17.2272 2.10262 16.0827L3.21462 13.2847ZM6.7504 8.47671C6.7504 8.14534 7.01902 7.87671 7.3504 7.87671H12.6892C13.0206 7.87671 13.2892 8.14534 13.2892 8.47671C13.2892 8.80808 13.0206 9.07671 12.6892 9.07671H7.3504C7.01902 9.07671 6.7504 8.80808 6.7504 8.47671ZM7.3504 10.5479C7.01902 10.5479 6.7504 10.8165 6.7504 11.1479C6.7504 11.4792 7.01902 11.7479 7.3504 11.7479H10.6871C11.0185 11.7479 11.2871 11.4792 11.2871 11.1479C11.2871 10.8165 11.0185 10.5479 10.6871 10.5479H7.3504Z" fill="currentColor"/></g>
  <g id="close-16" class="sprite-item" fill="none"><path fill-rule="evenodd" clip-rule="evenodd" d="M12.8277 4.02426C13.062 3.78995 13.062 3.41005 12.8277 3.17574C12.5934 2.94142 12.2135 2.94142 11.9792 3.17574L8.00171 7.15317L4.02426 3.17574C3.78995 2.94142 3.41005 2.94142 3.17574 3.17574C2.94142 3.41005 2.94142 3.78995 3.17574 4.02426L7.15318 8.0017L3.17574 11.9791C2.94142 12.2134 2.94142 12.5933 3.17574 12.8277C3.41005 13.062 3.78995 13.062 4.02426 12.8277L8.00171 8.85023L11.9791 12.8277C12.2135 13.062 12.5934 13.062 12.8277 12.8277C13.062 12.5933 13.062 12.2134 12.8277 11.9791L8.85024 8.0017L12.8277 4.02426Z" fill="currentColor"/></g>
  <g id="close-20" class="sprite-item" fill="none"><path fill-rule="evenodd" clip-rule="evenodd" d="M4.02426 3.17574C3.78995 2.94142 3.41005 2.94142 3.17574 3.17574C2.94142 3.41005 2.94142 3.78995 3.17574 4.02426L9.15203 10.0006L3.17574 15.9768C2.94142 16.2111 2.94142 16.591 3.17574 16.8254C3.41005 17.0597 3.78995 17.0597 4.02426 16.8254L10.0006 10.8491L15.9768 16.8254C16.2112 17.0597 16.5911 17.0597 16.8254 16.8254C17.0597 16.591 17.0597 16.2111 16.8254 15.9768L10.8491 10.0006L16.8254 4.02426C17.0597 3.78995 17.0597 3.41005 16.8254 3.17574C16.5911 2.94142 16.2112 2.94142 15.9769 3.17574L10.0006 9.15202L4.02426 3.17574Z" fill="currentColor"/></g>
  <g id="copy-16" class="sprite-item" fill="none"><path fill-rule="evenodd" clip-rule="evenodd" d="M4.76059 2.8C4.76059 1.80589 5.56648 1 6.56059 1H11.2025C12.1966 1 13.0025 1.80589 13.0025 2.8V9.40212C13.0025 10.3831 12.2178 11.1807 11.2419 11.2017V11.9992C11.2419 11.9992 11.2419 11.9992 11.2419 11.9992L11.2418 12.2009V13.2001C11.2418 14.1942 10.436 15.0009 9.4419 15.0009H4.8C3.80589 15.0009 3 14.195 3 13.2009V6.5988C3 5.61816 3.78419 4.82067 4.75969 4.79924V6.00013C4.44712 6.02086 4.2 6.28097 4.2 6.5988V13.2009C4.2 13.5323 4.46863 13.8009 4.8 13.8009H9.4419C9.77327 13.8009 10.0419 13.5323 10.0419 13.2009L10.0418 12.2013V12.0006V11.2021V11.0013V10.0021L10.0419 6.5988C10.0419 6.26743 9.77327 5.9988 9.4419 5.9988H5.96059H4.79992C4.78671 5.9988 4.7727 5.99929 4.75969 6.00013L4.76059 5.00084L4.75969 4.79924L4.76059 4.40034V4.00174V3.79999V2.8ZM5.96059 3.79957V4.00034V4.39971V4.7988H9.4419C10.436 4.7988 11.2419 5.60468 11.2419 6.5988V10.0008C11.5549 9.98055 11.8025 9.72025 11.8025 9.40212V2.8C11.8025 2.46863 11.5339 2.2 11.2025 2.2H6.56059C6.22922 2.2 5.96059 2.46863 5.96059 2.8V3.79957Z" fill="currentColor"/></g>
  <g id="copy-20" class="sprite-item" fill="none"><path fill-rule="evenodd" clip-rule="evenodd" d="M6.16016 3.8C6.16016 2.80589 6.96604 2 7.96016 2H14.1981C15.1922 2 15.9981 2.80589 15.9981 3.8V11.8074C15.9981 12.8016 15.1922 13.6074 14.1981 13.6074H13.8389V13.6075V14.7177V14.7627V15.9177H13.8379V16.1992C13.8379 17.1933 13.032 17.9992 12.0379 17.9992H5.8C4.80589 17.9992 4 17.1933 4 16.1992V8.19173C4 7.19762 4.80589 6.39173 5.8 6.39173H6.16016V5.8368V5.28157V5.28147V5.23666V4.08157V4.08147V3.8ZM7.36016 5.23666V5.28147V5.28157V5.8368L7.36016 6.39173H12.0379C13.032 6.39173 13.8379 7.19762 13.8379 8.19173V12.4075H13.8389V12.4074H14.1981C14.5295 12.4074 14.7981 12.1388 14.7981 11.8074V3.8C14.7981 3.46863 14.5295 3.2 14.1981 3.2H7.96016C7.62879 3.2 7.36016 3.46863 7.36016 3.8V4.08147V4.08157V5.23666ZM12.6389 14.7627V14.7177H12.6379V8.19173C12.6379 7.86036 12.3693 7.59173 12.0379 7.59173H7.36016H6.16016H5.8C5.46863 7.59173 5.2 7.86036 5.2 8.19173V16.1992C5.2 16.5305 5.46863 16.7992 5.8 16.7992H12.0379C12.3693 16.7992 12.6379 16.5305 12.6379 16.1992V15.9177H12.6389V14.7627Z" fill="currentColor"/></g>
  <g id="delete-20" class="sprite-item" fill="none"><path fill-rule="evenodd" clip-rule="evenodd" d="M7.69023 3.8C7.69023 3.46863 7.95886 3.2 8.29023 3.2H11.7078C12.0391 3.2 12.3078 3.46863 12.3078 3.8V5.21709H7.69023V3.8ZM6.49023 5.21709V3.8C6.49023 2.80589 7.29612 2 8.29023 2H11.7078C12.7019 2 13.5078 2.80589 13.5078 3.8V5.21709H16.3986C16.7299 5.21709 16.9986 5.48572 16.9986 5.81709C16.9986 6.14846 16.7299 6.41709 16.3986 6.41709H15.1954L14.1947 16.3783C14.1023 17.2981 13.3281 17.9984 12.4037 17.9984H7.59362C6.66918 17.9984 5.89504 17.2981 5.80263 16.3783L4.80189 6.41709H3.6C3.26863 6.41709 3 6.14846 3 5.81709C3 5.48572 3.26863 5.21709 3.6 5.21709H6.49023ZM6.00793 6.41709H13.9894L13.0007 16.2584C12.9699 16.565 12.7118 16.7984 12.4037 16.7984H7.59362C7.28547 16.7984 7.02743 16.565 6.99662 16.2584L6.00793 6.41709ZM8.83584 8.43414C9.16721 8.43414 9.43584 8.70277 9.43584 9.03414V12.8946C9.43584 13.226 9.16721 13.4946 8.83584 13.4946C8.50447 13.4946 8.23584 13.226 8.23584 12.8946V9.03414C8.23584 8.70277 8.50447 8.43414 8.83584 8.43414ZM11.7625 9.03414C11.7625 8.70277 11.4939 8.43414 11.1625 8.43414C10.8311 8.43414 10.5625 8.70277 10.5625 9.03414V12.8946C10.5625 13.226 10.8311 13.4946 11.1625 13.4946C11.4939 13.4946 11.7625 13.226 11.7625 12.8946V9.03414Z" fill="currentColor"/></g>
  <g id="download-20" class="sprite-item" fill="none"><path fill-rule="evenodd" clip-rule="evenodd" d="M10.6813 2.6C10.6813 2.26863 10.4127 2 10.0813 2C9.74991 2 9.48128 2.26863 9.48128 2.6V13.1402L7.09379 10.7567C6.85927 10.5226 6.47938 10.5229 6.24526 10.7575C6.01114 10.992 6.01146 11.3719 6.24597 11.606L9.65737 15.0117C9.8917 15.2456 10.2712 15.2455 10.5054 15.0114L13.9139 11.6047C14.1483 11.3704 14.1484 10.9905 13.9141 10.7562C13.6799 10.5218 13.3 10.5217 13.0656 10.7559L10.6813 13.139V2.6ZM5.45 15.8516C5.45 15.5202 5.18137 15.2516 4.85 15.2516C4.51863 15.2516 4.25 15.5202 4.25 15.8516V17.3925C4.25 17.7239 4.51863 17.9925 4.85 17.9925H15.1469C15.4782 17.9925 15.7469 17.7239 15.7469 17.3925V15.8516C15.7469 15.5202 15.4782 15.2516 15.1469 15.2516C14.8155 15.2516 14.5469 15.5202 14.5469 15.8516V16.7925H5.45V15.8516Z" fill="currentColor"/></g>
  <g id="edit-20" class="sprite-item" fill="none"><path fill-rule="evenodd" clip-rule="evenodd" d="M15.3585 3.52766C14.6562 2.82411 13.5175 2.82411 12.8151 3.52766L11.521 4.82401L6.69099 9.66223C6.39818 9.95554 6.21538 10.3411 6.17347 10.7538L5.92487 13.2013C5.8738 13.7041 6.2948 14.128 6.79699 14.0793L9.25108 13.8417C9.66634 13.8015 10.0547 13.6179 10.3497 13.3224L15.1773 8.4866L16.4715 7.19025C17.1738 6.4867 17.1738 5.34604 16.4715 4.64249L15.3585 3.52766ZM13.6629 4.37691C13.897 4.14239 14.2766 4.14239 14.5107 4.37691L15.6237 5.49174C15.8578 5.72626 15.8578 6.10648 15.6237 6.34099L14.7534 7.21272L12.7927 5.24864L13.6629 4.37691ZM11.9449 6.09789L13.9056 8.06197L9.50194 12.4732C9.4036 12.5717 9.27414 12.6329 9.13572 12.6463L7.16705 12.8369L7.36629 10.8753C7.38026 10.7378 7.44119 10.6092 7.53879 10.5115L11.9449 6.09789ZM3.6 4.24526C3.26863 4.24526 3 4.51389 3 4.84526V6.28946C3 6.62083 3.26863 6.88946 3.6 6.88946C3.93137 6.88946 4.2 6.62083 4.2 6.28946V5.44526H4.71624C5.04761 5.44526 5.31624 5.17663 5.31624 4.84526C5.31624 4.51389 5.04761 4.24526 4.71624 4.24526H3.6ZM6.94873 4.24526C6.61736 4.24526 6.34873 4.51389 6.34873 4.84526C6.34873 5.17663 6.61736 5.44526 6.94873 5.44526H8.06497C8.39634 5.44526 8.66497 5.17663 8.66497 4.84526C8.66497 4.51389 8.39634 4.24526 8.06497 4.24526H6.94873ZM4.2 9.17786C4.2 8.84649 3.93137 8.57786 3.6 8.57786C3.26863 8.57786 3 8.84649 3 9.17786V12.0663C3 12.3976 3.26863 12.6663 3.6 12.6663C3.93137 12.6663 4.2 12.3976 4.2 12.0663V9.17786ZM15.7339 11.9243C15.7339 11.5929 15.4653 11.3243 15.1339 11.3243C14.8026 11.3243 14.5339 11.5929 14.5339 11.9243V13.0429C14.5339 13.3743 14.8026 13.6429 15.1339 13.6429C15.4653 13.6429 15.7339 13.3743 15.7339 13.0429V11.9243ZM4.2 14.9547C4.2 14.6233 3.93137 14.3547 3.6 14.3547C3.26863 14.3547 3 14.6233 3 14.9547V16.3989C3 16.7302 3.26863 16.9989 3.6 16.9989H5.04174C5.37311 16.9989 5.64174 16.7302 5.64174 16.3989C5.64174 16.0675 5.37311 15.7989 5.04174 15.7989H4.2V14.9547ZM15.7339 15.2802C15.7339 14.9489 15.4653 14.6802 15.1339 14.6802C14.8026 14.6802 14.5339 14.9489 14.5339 15.2802V15.7989H13.6922C13.3608 15.7989 13.0922 16.0675 13.0922 16.3989C13.0922 16.7302 13.3608 16.9989 13.6922 16.9989H15.1339C15.4653 16.9989 15.7339 16.7302 15.7339 16.3989V15.2802ZM7.92522 15.7989C7.59385 15.7989 7.32522 16.0675 7.32522 16.3989C7.32522 16.7302 7.59385 16.9989 7.92522 16.9989H10.8087C11.1401 16.9989 11.4087 16.7302 11.4087 16.3989C11.4087 16.0675 11.1401 15.7989 10.8087 15.7989H7.92522Z" fill="currentColor"/></g>
  <g id="error-file-32" class="sprite-item" fill="none"><path fill-rule="evenodd" clip-rule="evenodd" d="M7 3.6C7 3.26863 7.26863 3 7.6 3H18.5182C18.6906 3 18.8546 3.07413 18.9685 3.20349L24.8475 9.88018C24.944 9.98974 24.9972 10.1307 24.9972 10.2767V28.3991C24.9972 28.7305 24.7286 28.9991 24.3972 28.9991H7.6C7.26863 28.9991 7 28.7305 7 28.3991V3.6ZM8.2 4.2V27.7991H23.7972V11.9375C23.7374 11.9575 23.6734 11.9683 23.6069 11.9683H18.5131C18.1817 11.9683 17.9131 11.6997 17.9131 11.3683V4.42646C17.9131 4.34633 17.9288 4.26988 17.9573 4.2H8.2ZM23.7972 10.5032V10.7992C23.7374 10.7792 23.6734 10.7683 23.6069 10.7683H19.1131V5.1835L23.7972 10.5032ZM13.2758 17.1757C13.5101 16.9414 13.89 16.9414 14.1244 17.1757L16.0006 19.052L17.8769 17.1757C18.1113 16.9414 18.4912 16.9414 18.7255 17.1757C18.9598 17.4101 18.9598 17.7899 18.7255 18.0243L16.8492 19.9005L18.7255 21.7768C18.9598 22.0111 18.9598 22.391 18.7255 22.6254C18.4911 22.8597 18.1112 22.8597 17.8769 22.6254L16.0006 20.7491L14.1244 22.6254C13.89 22.8597 13.5101 22.8597 13.2758 22.6254C13.0415 22.391 13.0415 22.0111 13.2758 21.7768L15.1521 19.9005L13.2758 18.0243C13.0415 17.7899 13.0415 17.4101 13.2758 17.1757Z" fill="currentColor"/></g>
  <g id="hide-20" class="sprite-item" fill="none"><path fill-rule="evenodd" clip-rule="evenodd" d="M4.13736 3.27535C3.90305 3.04103 3.52315 3.04103 3.28883 3.27535C3.05452 3.50966 3.05452 3.88956 3.28883 4.12387L5.18773 6.02277C5.13353 6.06791 5.07995 6.11343 5.02698 6.15929C3.73768 7.27567 2.77323 8.62806 2.13551 9.57845C1.95485 9.8477 1.9548 10.1973 2.13556 10.4666C2.77381 11.4175 3.7407 12.7698 5.03239 13.8861C6.32673 15.0046 7.98765 15.9207 10.0039 15.9207C11.4908 15.9207 12.7831 15.4226 13.8774 14.7124L15.8605 16.6956C16.0949 16.9299 16.4748 16.9299 16.7091 16.6956C16.9434 16.4613 16.9434 16.0814 16.7091 15.8471L14.8506 13.9886C14.8912 13.9545 14.9314 13.9202 14.9712 13.8857C16.2605 12.7693 17.225 11.4169 17.8627 10.4665C18.0433 10.1973 18.0434 9.84772 17.8626 9.5784C17.2244 8.62747 16.2575 7.27521 14.9658 6.15892C13.6715 5.04035 12.0106 4.12433 9.99426 4.12433C8.52769 4.12433 7.25036 4.60895 6.16568 5.30367L4.13736 3.27535ZM6.04022 6.87526C5.96335 6.93779 5.88744 7.00158 5.81249 7.06647C4.74031 7.99485 3.89857 9.12231 3.28398 10.0224C3.89876 10.9221 4.74271 12.0497 5.81703 12.9781C6.98019 13.9833 8.37286 14.7207 10.0039 14.7207C11.1156 14.7207 12.1153 14.3782 13.0068 13.8419L12.2079 13.0429C11.587 13.4923 10.8239 13.7572 9.99892 13.7572C7.91597 13.7572 6.22741 12.0686 6.22741 9.98567C6.22741 9.16068 6.49229 8.39755 6.94166 7.7767L6.04022 6.87526ZM7.79023 6.92821L7.03756 6.17554C7.91736 5.65509 8.90181 5.32433 9.99426 5.32433C11.6253 5.32433 13.018 6.06165 14.1812 7.06685C15.2555 7.99529 16.0994 9.12285 16.7142 10.0226C16.0996 10.9227 15.2579 12.0501 14.1857 12.9785C14.124 13.032 14.0616 13.0847 13.9986 13.1365L13.0564 12.1944C13.5056 11.5736 13.7704 10.8105 13.7704 9.98567C13.7704 7.90273 12.0819 6.21416 9.99892 6.21416C9.17405 6.21416 8.41103 6.47897 7.79023 6.92821ZM7.80634 8.64138C7.566 9.03253 7.42741 9.49292 7.42741 9.98567C7.42741 11.4059 8.57871 12.5572 9.99892 12.5572C10.4917 12.5572 10.9521 12.4186 11.3432 12.1783L7.80634 8.64138ZM12.1917 11.3297L8.65492 7.79291C9.04602 7.55269 9.50629 7.41416 9.99892 7.41416C11.4191 7.41416 12.5704 8.56547 12.5704 9.98567C12.5704 10.4783 12.4319 10.9386 12.1917 11.3297Z" fill="currentColor"/></g>
  <g id="info-16" class="sprite-item" fill="none"><path fill-rule="evenodd" clip-rule="evenodd" d="M1 7.99926C1 4.13367 4.13367 1 7.99926 1C11.8648 1 14.9985 4.13367 14.9985 7.99926C14.9985 11.8648 11.8648 14.9985 7.99926 14.9985C4.13367 14.9985 1 11.8648 1 7.99926ZM7.99926 2.2C4.79641 2.2 2.2 4.79641 2.2 7.99926C2.2 11.2021 4.79641 13.7985 7.99926 13.7985C11.2021 13.7985 13.7985 11.2021 13.7985 7.99926C13.7985 4.79641 11.2021 2.2 7.99926 2.2ZM8.00002 6.9C8.33139 6.9 8.60002 7.16863 8.60002 7.5V10.5C8.60002 10.8314 8.33139 11.1 8.00002 11.1C7.66865 11.1 7.40002 10.8314 7.40002 10.5V7.5C7.40002 7.16863 7.66865 6.9 8.00002 6.9ZM8.42356 5.07504C8.18886 4.84111 7.80896 4.84174 7.57504 5.07644C7.34111 5.31114 7.34174 5.69104 7.57644 5.92496L7.58657 5.93507C7.82128 6.16899 8.20117 6.16837 8.4351 5.93367C8.66903 5.69896 8.6684 5.31907 8.4337 5.08514L8.42356 5.07504Z" fill="currentColor"/></g>
  <g id="language-32" class="sprite-item" fill="none"><path fill-rule="evenodd" clip-rule="evenodd" d="M16.002 3C8.82118 3 3 8.82117 3 16.002C3 23.1827 8.82118 29.0039 16.002 29.0039C23.1827 29.0039 29.0039 23.1827 29.0039 16.002C29.0039 8.82117 23.1827 3 16.002 3ZM4.2 16.002C4.2 14.887 4.35462 13.8081 4.64358 12.7856H9.27579C8.97162 13.8724 8.81787 14.9636 8.81787 16.0593C8.81787 17.1187 8.96159 18.1715 9.24599 19.2177H4.64342C4.35456 18.1954 4.2 17.1167 4.2 16.002ZM9.67334 11.5856H5.05407C6.65704 7.61577 10.3566 4.71728 14.7806 4.26243C12.3321 6.67959 10.6166 9.12087 9.67334 11.5856ZM10.0179 16.0593C10.0179 14.9767 10.1862 13.8855 10.5275 12.7856H15.4865V19.2177H10.495C10.1755 18.1597 10.0179 17.1069 10.0179 16.0593ZM15.4865 20.4177H10.926C11.7989 22.5142 13.3084 24.6313 15.4865 26.7692V20.4177ZM16.6865 26.7706V20.4177H21.225C20.3436 22.5043 18.841 24.6218 16.6865 26.7706ZM16.6865 19.2177V12.7856H21.6968C22.0164 13.844 22.1741 14.897 22.1741 15.9448C22.1741 17.0272 22.0058 18.1182 21.6647 19.2177H16.6865ZM16.6865 11.5856H21.2657C20.3902 9.48328 18.8746 7.36024 16.6865 5.21617V11.5856ZM15.4865 5.25255C13.3424 7.39455 11.8461 9.50543 10.9673 11.5856H15.4865V5.25255ZM23.3741 15.9448C23.3741 14.8852 23.2303 13.8321 22.9458 12.7856H27.3604C27.6493 13.8081 27.8039 14.887 27.8039 16.002C27.8039 17.1251 27.647 18.2116 27.354 19.2407C27.3016 19.2257 27.2463 19.2177 27.1891 19.2177H22.9164C23.2204 18.1313 23.3741 17.0403 23.3741 15.9448ZM22.5569 11.5856H26.9499C25.3748 7.68494 21.7756 4.81861 17.4539 4.28843C19.913 6.68349 21.6275 9.11603 22.5569 11.5856ZM5.05386 20.4177C6.65454 24.3825 10.3465 27.2788 14.7627 27.7396C12.2902 25.3366 10.5673 22.8958 9.6348 20.4177H5.05386ZM22.5189 20.4177C21.5788 22.8746 19.8714 25.3081 17.4356 27.7177C21.7656 27.1934 25.3729 24.3242 26.9501 20.4177H22.5189Z" fill="currentColor"/></g>
  <g id="learn-more-16" class="sprite-item" fill="none"><path fill-rule="evenodd" clip-rule="evenodd" d="M1 7.99974C1 4.13388 4.13389 1 7.99973 1C11.8656 1 14.9995 4.13388 14.9995 7.99974C14.9995 11.8656 11.8656 14.9995 7.99973 14.9995C4.13389 14.9995 1 11.8656 1 7.99974ZM7.99973 2.2C4.79663 2.2 2.2 4.79663 2.2 7.99974C2.2 11.2028 4.79663 13.7995 7.99973 13.7995C11.2028 13.7995 13.7995 11.2028 13.7995 7.99974C13.7995 4.79663 11.2028 2.2 7.99973 2.2ZM8.00496 6.1C7.59901 6.1 7.26992 6.42909 7.26992 6.83504C7.26992 7.16641 7.00129 7.43504 6.66992 7.43504C6.33855 7.43504 6.06992 7.16641 6.06992 6.83504C6.06992 5.76634 6.93627 4.9 8.00496 4.9C9.07362 4.9 9.93995 5.76635 9.93995 6.83504C9.93995 7.69425 9.37991 8.42268 8.60496 8.6752V9C8.60496 9.33137 8.33633 9.6 8.00496 9.6C7.67359 9.6 7.40496 9.33137 7.40496 9V8.17003C7.40496 7.83866 7.67359 7.57003 8.00496 7.57003C8.41087 7.57003 8.73995 7.24094 8.73995 6.83504C8.73995 6.42907 8.41086 6.1 8.00496 6.1ZM8.6 10.5C8.6 10.1686 8.33137 9.9 8 9.9C7.66863 9.9 7.4 10.1686 7.4 10.5V10.5088C7.4 10.8402 7.66863 11.1088 8 11.1088C8.33137 11.1088 8.6 10.8402 8.6 10.5088V10.5Z" fill="currentColor"/></g>
  <g id="learn-more-20" class="sprite-item" fill="none"><path fill-rule="evenodd" clip-rule="evenodd" d="M2 9.99971C2 5.58159 5.58159 2 9.9997 2C14.4178 2 17.9994 5.58159 17.9994 9.99971C17.9994 14.4178 14.4178 17.9994 9.9997 17.9994C5.58159 17.9994 2 14.4178 2 9.99971ZM9.9997 3.2C6.24433 3.2 3.2 6.24433 3.2 9.99971C3.2 13.7551 6.24433 16.7994 9.9997 16.7994C13.7551 16.7994 16.7994 13.7551 16.7994 9.99971C16.7994 6.24433 13.7551 3.2 9.9997 3.2ZM9.86243 7.51633C9.24836 7.51633 8.75057 8.01412 8.75057 8.62818C8.75057 8.95956 8.48194 9.22818 8.15057 9.22818C7.8192 9.22818 7.55057 8.95956 7.55057 8.62818C7.55057 7.35138 8.58563 6.31633 9.86243 6.31633C11.1392 6.31633 12.1742 7.35139 12.1742 8.62818C12.1742 9.69741 11.4483 10.5971 10.4624 10.8614V11.6668C10.4624 11.9982 10.1938 12.2668 9.86243 12.2668C9.53106 12.2668 9.26243 11.9982 9.26243 11.6668V10.34C9.26243 10.0086 9.53106 9.73998 9.86243 9.73998C10.4764 9.73998 10.9742 9.24219 10.9742 8.62818C10.9742 8.01411 10.4764 7.51633 9.86243 7.51633ZM10.4614 13.6873C10.4614 13.3559 10.1927 13.0873 9.86137 13.0873C9.53 13.0873 9.26137 13.3559 9.26137 13.6873V13.6983C9.26137 14.0296 9.53 14.2983 9.86137 14.2983C10.1927 14.2983 10.4614 14.0296 10.4614 13.6983V13.6873Z" fill="currentColor"/></g>
  <g id="magic-wand-20" class="sprite-item" fill="none"><path fill-rule="evenodd" clip-rule="evenodd" d="M8.72864 3.6C8.72864 3.26863 8.46002 3 8.12864 3C7.79727 3 7.52865 3.26863 7.52865 3.6V5.11038C7.52865 5.44175 7.79727 5.71038 8.12864 5.71038C8.46002 5.71038 8.72864 5.44175 8.72864 5.11038V3.6ZM4.50143 4.50253C4.73575 4.26821 5.11564 4.26821 5.34996 4.50253L6.41792 5.57049C6.65224 5.80481 6.65224 6.18471 6.41792 6.41902C6.18361 6.65334 5.80371 6.65334 5.5694 6.41902L4.50143 5.35106C4.26712 5.11674 4.26712 4.73684 4.50143 4.50253ZM15.1323 15.6858L9.53946 10.0929L10.0928 9.53951L15.6857 15.1324C15.8387 15.2853 15.8386 15.5331 15.6858 15.6859C15.5331 15.8386 15.2853 15.8387 15.1323 15.6858ZM7.27402 9.52451C6.65258 8.90307 6.6524 7.89546 7.27391 7.27396C7.89541 6.65245 8.90302 6.65263 9.52446 7.27407L16.5342 14.2839C17.1557 14.9053 17.1559 15.9129 16.5344 16.5344C15.9128 17.1559 14.9052 17.1557 14.2838 16.5343L7.27402 9.52451ZM3.6 7.52962C3.26863 7.52962 3 7.79825 3 8.12962C3 8.46099 3.26863 8.72962 3.6 8.72962H5.11038C5.44175 8.72962 5.71038 8.46099 5.71038 8.12962C5.71038 7.79825 5.44175 7.52962 5.11038 7.52962H3.6ZM11.7558 4.50253C11.9902 4.73684 11.9902 5.11674 11.7558 5.35106L10.6879 6.41902C10.4536 6.65334 10.0737 6.65334 9.83936 6.41902C9.60504 6.18471 9.60504 5.80481 9.83936 5.57049L10.9073 4.50253C11.1416 4.26821 11.5215 4.26821 11.7558 4.50253ZM6.41792 10.6891C6.65224 10.4548 6.65224 10.0749 6.41792 9.84058C6.18361 9.60626 5.80371 9.60626 5.5694 9.84058L4.50143 10.9085C4.26712 11.1429 4.26712 11.5228 4.50143 11.7571C4.73575 11.9914 5.11564 11.9914 5.34996 11.7571L6.41792 10.6891Z" fill="currentColor"/></g>
  <g id="matrix-32" class="sprite-item" fill="none"><path d="M4.47254 3.60938V28.4069H6.25191V29H3.79004V3.01625H6.25191V3.60938H4.47254ZM11.3382 11.4663V12.7175H11.3707C11.6794 12.2625 12.0938 11.8806 12.5813 11.6044C13.0525 11.3444 13.5888 11.2144 14.1982 11.2144C14.8075 11.2144 15.3194 11.3281 15.7988 11.5556C16.2863 11.7831 16.6519 12.1813 16.8957 12.7581C17.1719 12.3519 17.5457 11.9944 18.0169 11.6856C18.4882 11.3769 19.0488 11.2225 19.6907 11.2225C20.1782 11.2225 20.6332 11.2794 21.0475 11.4012C21.4619 11.5231 21.8194 11.71 22.12 11.9781C22.4207 12.2381 22.6482 12.5875 22.8188 13.01C22.9813 13.4325 23.0707 13.9444 23.0707 14.5456V20.745H20.5275V15.4963C20.5275 15.1875 20.5194 14.895 20.495 14.6188C20.4788 14.3669 20.4138 14.1231 20.3 13.9038C20.1944 13.7006 20.0238 13.53 19.8288 13.4163C19.6175 13.2944 19.3332 13.2375 18.9757 13.2375C18.6182 13.2375 18.3257 13.3106 18.1063 13.4406C17.8869 13.5788 17.7082 13.7575 17.5863 13.9769C17.4563 14.2125 17.375 14.4644 17.3344 14.7325C17.2938 15.0169 17.2694 15.3012 17.2694 15.5856V20.745H14.7263V15.545C14.7263 15.2688 14.7263 15.0006 14.71 14.7325C14.7019 14.4806 14.6532 14.2288 14.5557 13.985C14.4663 13.7575 14.3119 13.5706 14.1088 13.4406C13.8975 13.3025 13.5888 13.2375 13.1825 13.2375C13.02 13.2375 12.8657 13.27 12.7113 13.3187C12.5 13.3756 12.305 13.4812 12.1425 13.6194C11.9557 13.7656 11.8013 13.985 11.6713 14.2612C11.5413 14.5456 11.4763 14.9113 11.4763 15.3663V20.745H8.93316V11.4744H11.33L11.3382 11.4663ZM27.515 28.3906V3.59312H25.7357V3H28.2057V28.9837H25.7357V28.3906H27.515Z" fill="currentColor"/></g>
  <g id="more-16" class="sprite-item" fill="none"><path fill-rule="evenodd" clip-rule="evenodd" d="M3.2 9.1998C3.86274 9.1998 4.4 8.66255 4.4 7.9998C4.4 7.33706 3.86274 6.7998 3.2 6.7998C2.53726 6.7998 2 7.33706 2 7.9998C2 8.66255 2.53726 9.1998 3.2 9.1998ZM7.99962 9.19981C8.66236 9.19981 9.19962 8.66255 9.19962 7.99981C9.19962 7.33707 8.66236 6.79981 7.99962 6.79981C7.33688 6.79981 6.79962 7.33707 6.79962 7.99981C6.79962 8.66255 7.33688 9.19981 7.99962 9.19981ZM14.0001 7.9998C14.0001 8.66255 13.4628 9.1998 12.8001 9.1998C12.1374 9.1998 11.6001 8.66255 11.6001 7.9998C11.6001 7.33706 12.1374 6.7998 12.8001 6.7998C13.4628 6.7998 14.0001 7.33706 14.0001 7.9998Z" fill="currentColor"/></g>
  <g id="more-20" class="sprite-item" fill="none"><path fill-rule="evenodd" clip-rule="evenodd" d="M4.2 11.1998C4.86274 11.1998 5.4 10.6625 5.4 9.9998C5.4 9.33706 4.86274 8.7998 4.2 8.7998C3.53726 8.7998 3 9.33706 3 9.9998C3 10.6625 3.53726 11.1998 4.2 11.1998ZM9.99962 11.1998C10.6624 11.1998 11.1996 10.6625 11.1996 9.99981C11.1996 9.33707 10.6624 8.79981 9.99962 8.79981C9.33688 8.79981 8.79962 9.33707 8.79962 9.99981C8.79962 10.6625 9.33688 11.1998 9.99962 11.1998ZM17.0001 9.9998C17.0001 10.6625 16.4629 11.1998 15.8001 11.1998C15.1374 11.1998 14.6001 10.6625 14.6001 9.9998C14.6001 9.33706 15.1374 8.7998 15.8001 8.7998C16.4629 8.7998 17.0001 9.33706 17.0001 9.9998Z" fill="currentColor"/></g>
  <g id="networks-32" class="sprite-item" fill="none"><path fill-rule="evenodd" clip-rule="evenodd" d="M6.8 26.9999C5.80589 26.9999 5 26.194 5 25.1999L5 19.5982C5 18.6041 5.80589 17.7982 6.8 17.7982L9.07615 17.7982L9.07615 14.1973L6.8 14.1973C5.80589 14.1973 5 13.3915 5 12.3973L5 6.79569C5 5.80158 5.80589 4.9957 6.8 4.9957L12.4016 4.99569C13.3958 4.99569 14.2016 5.80158 14.2016 6.79569L14.2016 12.3973C14.2016 12.6753 14.1386 12.9385 14.0261 13.1736L18.8261 17.9736C19.061 17.8613 19.3239 17.7984 19.6016 17.7984L21.9322 17.7984L21.9322 14.1973L19.6016 14.1973C18.6075 14.1973 17.8016 13.3915 17.8016 12.3973L17.8016 6.79578C17.8016 5.80167 18.6075 4.99578 19.6016 4.99578L25.2032 4.99578C26.1973 4.99578 27.0032 5.80167 27.0032 6.79578L27.0032 12.3973C27.0032 13.3915 26.1973 14.1973 25.2032 14.1973L23.1322 14.1973L23.1322 17.7984L25.2032 17.7984C26.1973 17.7984 27.0032 18.6043 27.0032 19.5984L27.0032 25.2C27.0032 26.1941 26.1973 27 25.2032 27L19.6016 27C18.6075 27 17.8016 26.1941 17.8016 25.2L17.8016 19.5984C17.8016 19.3203 17.8647 19.0569 17.9773 18.8218L13.1775 14.022C12.9426 14.1344 12.6795 14.1973 12.4016 14.1973L10.2762 14.1973L10.2762 17.7982L12.4016 17.7982C13.3958 17.7982 14.2016 18.6041 14.2016 19.5982L14.2016 25.1999C14.2016 26.194 13.3958 26.9999 12.4016 26.9999L6.8 26.9999ZM6.2 25.1999C6.2 25.5313 6.46863 25.7999 6.8 25.7999L12.4016 25.7999C12.733 25.7999 13.0016 25.5313 13.0016 25.1999L13.0016 19.5982C13.0016 19.2669 12.733 18.9982 12.4016 18.9982L6.8 18.9982C6.46863 18.9982 6.2 19.2669 6.2 19.5982L6.2 25.1999ZM19.0016 25.2C19.0016 25.5314 19.2702 25.8 19.6016 25.8L25.2032 25.8C25.5345 25.8 25.8032 25.5314 25.8032 25.2L25.8032 19.5984C25.8032 19.2671 25.5345 18.9984 25.2032 18.9984L19.6016 18.9984C19.2702 18.9984 19.0016 19.2671 19.0016 19.5984L19.0016 25.2ZM6.8 12.9973C6.46863 12.9973 6.2 12.7287 6.2 12.3973L6.2 6.79569C6.2 6.46432 6.46863 6.19569 6.8 6.19569L12.4016 6.19569C12.733 6.19569 13.0016 6.46432 13.0016 6.79569L13.0016 12.3973C13.0016 12.7287 12.733 12.9973 12.4016 12.9973L6.8 12.9973ZM19.0016 12.3973C19.0016 12.7287 19.2702 12.9973 19.6016 12.9973L25.2032 12.9973C25.5345 12.9973 25.8032 12.7287 25.8032 12.3973L25.8032 6.79578C25.8032 6.46441 25.5345 6.19578 25.2032 6.19578L19.6016 6.19578C19.2702 6.19578 19.0016 6.46441 19.0016 6.79578L19.0016 12.3973Z" fill="currentColor"/></g>
  <g id="new-tab-20" class="sprite-item" fill="none"><path fill-rule="evenodd" clip-rule="evenodd" d="M3 3.6C3 3.26863 3.26863 3 3.6 3H8.55462C8.88599 3 9.15462 3.26863 9.15462 3.6C9.15462 3.93137 8.88599 4.2 8.55462 4.2H4.2V15.7988H15.7988V11.442C15.7988 11.1106 16.0674 10.842 16.3988 10.842C16.7301 10.842 16.9988 11.1106 16.9988 11.442V16.3988C16.9988 16.7302 16.7301 16.9988 16.3988 16.9988H3.6C3.26863 16.9988 3 16.7302 3 16.3988V3.6ZM15.7704 5.07409V8.73751C15.7704 9.06888 16.039 9.33751 16.3704 9.33751C16.7018 9.33751 16.9704 9.06888 16.9704 8.73751V3.6292C16.9704 3.29783 16.7018 3.0292 16.3704 3.0292H11.2621C10.9308 3.0292 10.6621 3.29783 10.6621 3.6292C10.6621 3.96058 10.9308 4.2292 11.2621 4.2292H14.9182L8.2028 10.9466C7.96851 11.181 7.96857 11.5609 8.20292 11.7951C8.43727 12.0294 8.81717 12.0294 9.05145 11.795L15.7704 5.07409Z" fill="currentColor"/></g>
  <g id="plus-16" class="sprite-item" fill="none"><path fill-rule="evenodd" clip-rule="evenodd" d="M8.65275 2.65274C8.65275 2.29224 8.36051 2 8.00001 2C7.63951 2 7.34727 2.29224 7.34727 2.65274L7.34726 7.34726L2.65274 7.34727C2.29224 7.34727 2 7.63951 2 8.00001C2 8.36051 2.29224 8.65275 2.65274 8.65275L7.34726 8.65275L7.34725 13.3473C7.34725 13.7078 7.63949 14 7.99999 14C8.36049 14 8.65273 13.7078 8.65273 13.3473L8.65274 8.65275L13.3472 8.65274C13.7077 8.65274 14 8.3605 14 8C14 7.6395 13.7077 7.34726 13.3472 7.34726L8.65274 7.34726L8.65275 2.65274Z" fill="currentColor"/></g>
  <g id="plus-20" class="sprite-item" fill="none"><path fill-rule="evenodd" clip-rule="evenodd" d="M10.5988 3.6C10.5988 3.26863 10.3302 3 9.9988 3C9.66743 3 9.3988 3.26863 9.3988 3.6L9.39879 9.3988L3.6 9.3988C3.26863 9.3988 3 9.66743 3 9.9988C3 10.3302 3.26863 10.5988 3.6 10.5988L9.39879 10.5988L9.39878 16.3976C9.39878 16.7289 9.66741 16.9976 9.99878 16.9976C10.3301 16.9976 10.5988 16.729 10.5988 16.3976L10.5988 10.5988L16.3976 10.5988C16.7289 10.5988 16.9976 10.3302 16.9976 9.99879C16.9976 9.66742 16.7289 9.39879 16.3976 9.39879L10.5988 9.39879L10.5988 3.6Z" fill="currentColor"/></g>
  <g id="refresh-20" class="sprite-item" fill="none"><path fill-rule="evenodd" clip-rule="evenodd" d="M15.7049 4.37076L15.8653 2.56213C15.8945 2.23205 16.1858 1.9882 16.5159 2.01747C16.846 2.04675 17.0898 2.33805 17.0606 2.66813L16.7685 5.96169C16.7544 6.1202 16.678 6.26663 16.556 6.36877C16.4339 6.47091 16.2764 6.5204 16.1178 6.50634L12.8243 6.21426C12.4942 6.18498 12.2504 5.89367 12.2796 5.5636C12.3089 5.23352 12.6002 4.98968 12.9303 5.01895L14.8242 5.1869C12.3398 2.6922 8.30171 2.50834 5.57614 4.85277L5.18487 4.3979L5.57614 4.85277C2.72257 7.3073 2.39414 11.5987 4.83584 14.4373C7.27757 17.276 11.5698 17.5928 14.4234 15.1382C16.1263 13.6734 16.9306 11.5541 16.7821 9.47776C16.7584 9.14723 17.0072 8.86012 17.3377 8.83648C17.6683 8.81284 17.9554 9.06162 17.979 9.39214C18.1535 11.8319 17.208 14.3258 15.2059 16.048C11.8531 18.9319 6.80278 18.5642 3.9261 15.2199L4.37366 14.8349L3.9261 15.2199C1.04943 11.8756 1.44083 6.82694 4.7936 3.94302C8.00745 1.17859 12.7811 1.40195 15.7049 4.37076Z" fill="currentColor"/></g>
  <g id="scan-20" class="sprite-item" fill="none"><path fill-rule="evenodd" clip-rule="evenodd" d="M4.8 4.2C4.46863 4.2 4.2 4.46863 4.2 4.8V7.39909C4.2 7.73046 3.93137 7.99909 3.6 7.99909C3.26863 7.99909 3 7.73046 3 7.39909V4.8C3 3.80589 3.80589 3 4.8 3H7.39908C7.73046 3 7.99908 3.26863 7.99908 3.6C7.99908 3.93137 7.73046 4.2 7.39908 4.2H4.8ZM11.9973 3.6C11.9973 3.26863 12.2659 3 12.5973 3H15.1963C16.1905 3 16.9963 3.80589 16.9963 4.8V7.39908C16.9963 7.73046 16.7277 7.99908 16.3963 7.99908C16.065 7.99908 15.7963 7.73046 15.7963 7.39908V4.8C15.7963 4.46863 15.5277 4.2 15.1963 4.2H12.5973C12.2659 4.2 11.9973 3.93137 11.9973 3.6ZM3.6 11.9973C3.93137 11.9973 4.2 12.2659 4.2 12.5973V15.1963C4.2 15.5277 4.46863 15.7963 4.8 15.7963H7.39909C7.73046 15.7963 7.99909 16.065 7.99909 16.3963C7.99909 16.7277 7.73046 16.9963 7.39909 16.9963H4.8C3.80589 16.9963 3 16.1905 3 15.1963V12.5973C3 12.2659 3.26863 11.9973 3.6 11.9973ZM16.3963 11.9973C16.7277 11.9973 16.9963 12.2659 16.9963 12.5973V15.1963C16.9963 16.1905 16.1905 16.9963 15.1963 16.9963H12.5973C12.2659 16.9963 11.9973 16.7277 11.9973 16.3963C11.9973 16.065 12.2659 15.7963 12.5973 15.7963H15.1963C15.5277 15.7963 15.7963 15.5277 15.7963 15.1963V12.5973C15.7963 12.2659 16.065 11.9973 16.3963 11.9973Z" fill="currentColor"/></g>
  <g id="search-16" class="sprite-item" fill="none"><path fill-rule="evenodd" clip-rule="evenodd" d="M7.01919 2C4.24686 2 2 4.24743 2 7.01918C2 9.79097 4.24739 12.0383 7.01919 12.0383C8.18882 12.0383 9.26493 11.6383 10.1182 10.9676L12.9774 13.8268C13.2117 14.0611 13.5916 14.0611 13.8259 13.8268C14.0603 13.5925 14.0603 13.2126 13.8259 12.9783L10.9669 10.1192C11.638 9.26565 12.0383 8.18913 12.0383 7.01918C12.0383 4.24743 9.79147 2 7.01919 2ZM3.2 7.01918C3.2 4.91009 4.90969 3.2 7.01919 3.2C9.12864 3.2 10.8383 4.91008 10.8383 7.01918C10.8383 9.12827 9.12864 10.8383 7.01919 10.8383C4.91012 10.8383 3.2 9.12823 3.2 7.01918Z" fill="currentColor"/></g>
  <g id="search-20" class="sprite-item" fill="none"><path fill-rule="evenodd" clip-rule="evenodd" d="M8.83612 3C5.61257 3 3 5.61322 3 8.83611C3 12.059 5.61318 14.6722 8.83612 14.6722C10.2314 14.6722 11.5123 14.1826 12.5163 13.3658L15.9741 16.8236C16.2084 17.0579 16.5883 17.0579 16.8227 16.8236C17.057 16.5893 17.057 16.2094 16.8227 15.9751L13.3649 12.5174C14.1823 11.5131 14.6722 10.2318 14.6722 8.83611C14.6722 5.61322 12.0596 3 8.83612 3ZM4.2 8.83611C4.2 6.27588 6.27539 4.2 8.83612 4.2C11.3968 4.2 13.4722 6.27588 13.4722 8.83611C13.4722 11.3963 11.3968 13.4722 8.83612 13.4722C6.27592 13.4722 4.2 11.3963 4.2 8.83611Z" fill="currentColor"/></g>
  <g id="settings-16" class="sprite-item" fill="none"><path fill-rule="evenodd" clip-rule="evenodd" d="M9.82977 5.45727C10.177 5.45727 10.4584 5.17582 10.4584 4.82864C10.4584 4.48145 10.177 4.2 9.82977 4.2C9.48258 4.2 9.20113 4.48145 9.20113 4.82864C9.20113 5.17582 9.48258 5.45727 9.82977 5.45727ZM9.82977 6.65727C10.6295 6.65727 11.3094 6.14386 11.5577 5.42865L14.4009 5.42865C14.7323 5.42865 15.0009 5.16002 15.0009 4.82865C15.0009 4.49728 14.7323 4.22865 14.4009 4.22865H11.5577C11.3094 3.51342 10.6295 3 9.82977 3C9.03 3 8.35015 3.51342 8.10184 4.22865H1.60083C1.26946 4.22865 1.00083 4.49728 1.00083 4.82865C1.00083 5.16002 1.26946 5.42865 1.60083 5.42865H8.10184C8.35016 6.14386 9.03001 6.65727 9.82977 6.65727ZM6.17165 10.5427C5.82447 10.5427 5.54302 10.8242 5.54302 11.1714C5.54302 11.5186 5.82447 11.8 6.17165 11.8C6.51884 11.8 6.80029 11.5186 6.80029 11.1714C6.80029 10.8242 6.51884 10.5427 6.17165 10.5427ZM6.17165 9.34274C5.3719 9.34274 4.69205 9.85615 4.44373 10.5714L1.6 10.5714C1.26863 10.5714 1 10.84 1 11.1714C0.999999 11.5027 1.26863 11.7714 1.6 11.7714L4.44372 11.7714C4.69204 12.4866 5.37189 13 6.17165 13C6.97142 13 7.65127 12.4866 7.89958 11.7714H14.4006C14.732 11.7714 15.0006 11.5027 15.0006 11.1714C15.0006 10.84 14.732 10.5714 14.4006 10.5714L7.89958 10.5714C7.65126 9.85615 6.97141 9.34274 6.17165 9.34274Z" fill="currentColor"/></g>
  <g id="settings-20" class="sprite-item" fill="none"><path fill-rule="evenodd" clip-rule="evenodd" d="M12.9408 7.58207C13.6401 7.58207 14.207 7.01516 14.207 6.31584C14.207 5.61652 13.6401 5.04961 12.9408 5.04961C12.2415 5.04961 11.6746 5.61652 11.6746 6.31584C11.6746 7.01516 12.2415 7.58207 12.9408 7.58207ZM12.9408 8.78207C14.1122 8.78207 15.0929 7.96536 15.3445 6.87027H17.3982C17.7296 6.87027 17.9982 6.60164 17.9982 6.27027C17.9982 5.9389 17.7296 5.67027 17.3982 5.67027H15.3217C15.0379 4.62132 14.0795 3.84961 12.9408 3.84961C11.8021 3.84961 10.8436 4.62132 10.5599 5.67027H2.60094C2.26957 5.67027 2.00094 5.9389 2.00094 6.27027C2.00094 6.60164 2.26957 6.87027 2.60094 6.87027H10.5371C10.7887 7.96536 11.7694 8.78207 12.9408 8.78207ZM7.0574 12.4028C6.35808 12.4028 5.79117 12.9698 5.79117 13.6691C5.79117 14.3684 6.35808 14.9353 7.0574 14.9353C7.75672 14.9353 8.32363 14.3684 8.32363 13.6691C8.32363 12.9698 7.75672 12.4028 7.0574 12.4028ZM7.0574 11.2028C5.88597 11.2028 4.9053 12.0196 4.65374 13.1146H2.6C2.26863 13.1146 2 13.3833 2 13.7146C2 14.046 2.26863 14.3146 2.6 14.3146H4.67652C4.96026 15.3636 5.91871 16.1353 7.0574 16.1353C8.19609 16.1353 9.15454 15.3636 9.43828 14.3146H17.3972C17.7286 14.3146 17.9972 14.046 17.9972 13.7146C17.9972 13.3833 17.7286 13.1146 17.3972 13.1146L9.46106 13.1146C9.2095 12.0196 8.22883 11.2028 7.0574 11.2028Z" fill="currentColor"/></g>
  <g id="show-20" class="sprite-item" fill="none"><path fill-rule="evenodd" clip-rule="evenodd" d="M5.81703 12.9788C4.74271 12.0504 3.89876 10.9228 3.28398 10.0231C3.89857 9.12298 4.74031 7.99551 5.81249 7.06714C6.97314 6.06216 8.36335 5.325 9.99426 5.325C11.6253 5.325 13.018 6.06232 14.1812 7.06752C15.2555 7.99596 16.0994 9.12352 16.7142 10.0232C16.0996 10.9233 15.2579 12.0508 14.1857 12.9792C13.0251 13.9842 11.6348 14.7213 10.0039 14.7213C8.37286 14.7213 6.98019 13.984 5.81703 12.9788ZM9.99426 4.125C7.97779 4.125 6.31907 5.04117 5.02698 6.15996C3.73768 7.27634 2.77323 8.62873 2.13551 9.57912C1.95485 9.84837 1.9548 10.1979 2.13556 10.4673C2.77381 11.4182 3.7407 12.7704 5.03239 13.8867C6.32673 15.0053 7.98765 15.9213 10.0039 15.9213C12.0204 15.9213 13.6791 15.0052 14.9712 13.8864C16.2605 12.77 17.225 11.4176 17.8627 10.4672C18.0433 10.198 18.0434 9.84838 17.8626 9.57907C17.2244 8.62814 16.2575 7.27588 14.9658 6.15959C13.6715 5.04102 12.0106 4.125 9.99426 4.125ZM12.5704 9.98634C12.5704 11.4066 11.4191 12.5579 9.99892 12.5579C8.57871 12.5579 7.42741 11.4066 7.42741 9.98634C7.42741 8.56613 8.57871 7.41483 9.99892 7.41483C11.4191 7.41483 12.5704 8.56613 12.5704 9.98634ZM13.7704 9.98634C13.7704 12.0693 12.0819 13.7579 9.99892 13.7579C7.91597 13.7579 6.22741 12.0693 6.22741 9.98634C6.22741 7.90339 7.91597 6.21483 9.99892 6.21483C12.0819 6.21483 13.7704 7.90339 13.7704 9.98634Z" fill="currentColor"/></g>
  <g id="success-file-32" class="sprite-item" fill="none"><path fill-rule="evenodd" clip-rule="evenodd" d="M7 3.6C7 3.26863 7.26863 3 7.6 3H18.5182C18.6906 3 18.8546 3.07413 18.9685 3.20349L24.8475 9.88018C24.944 9.98974 24.9972 10.1307 24.9972 10.2767V28.3991C24.9972 28.7305 24.7286 28.9991 24.3972 28.9991H7.6C7.26863 28.9991 7 28.7305 7 28.3991V3.6ZM8.2 4.2V27.7991H23.7972V11.9375C23.7374 11.9575 23.6734 11.9683 23.6069 11.9683H18.5131C18.1817 11.9683 17.9131 11.6997 17.9131 11.3683V4.42646C17.9131 4.34633 17.9288 4.26988 17.9573 4.2H8.2ZM23.7972 10.5032V10.7992C23.7374 10.7792 23.6734 10.7683 23.6069 10.7683H19.1131V5.1835L23.7972 10.5032ZM19.9243 17.4243C20.1586 17.1899 20.1586 16.8101 19.9243 16.5757C19.6899 16.3414 19.3101 16.3414 19.0757 16.5757L15.125 20.5265L12.9243 18.3257C12.6899 18.0914 12.3101 18.0914 12.0757 18.3257C11.8414 18.5601 11.8414 18.9399 12.0757 19.1743L14.7007 21.7993C14.9351 22.0336 15.3149 22.0336 15.5493 21.7993L19.9243 17.4243Z" fill="currentColor"/></g>
  <g id="upload-file-20" class="sprite-item" fill="none"><path fill-rule="evenodd" clip-rule="evenodd" d="M4 2.6C4 2.26863 4.26863 2 4.6 2H11.6173C11.782 2 11.9394 2.06766 12.0527 2.18712L15.8312 6.17129C15.937 6.28276 15.9959 6.43054 15.9959 6.58417V17.3983C15.9959 17.7297 15.7273 17.9983 15.3959 17.9983H4.6C4.26863 17.9983 4 17.7297 4 17.3983V2.6ZM5.2 3.2V16.7983H14.7959V7.83559H11.6142C11.2828 7.83559 11.0142 7.56696 11.0142 7.23559V3.2H5.2ZM12.2142 4.10124L14.6177 6.63559H12.2142V4.10124ZM10.4243 10.0757C10.1899 9.84142 9.81005 9.84142 9.57574 10.0757L8.07574 11.5757C7.84142 11.8101 7.84142 12.1899 8.07574 12.4243C8.31005 12.6586 8.68995 12.6586 8.92426 12.4243L9.4 11.9485V14C9.4 14.3314 9.66863 14.6 10 14.6C10.3314 14.6 10.6 14.3314 10.6 14V11.9485L11.0757 12.4243C11.3101 12.6586 11.6899 12.6586 11.9243 12.4243C12.1586 12.1899 12.1586 11.8101 11.9243 11.5757L10.4243 10.0757Z" fill="currentColor"/></g>
  <g id="upload-file-32" class="sprite-item" fill="none"><path fill-rule="evenodd" clip-rule="evenodd" d="M7 3.6C7 3.26863 7.26863 3 7.6 3H18.5182C18.6906 3 18.8546 3.07413 18.9685 3.20349L24.8475 9.88018C24.944 9.98974 24.9972 10.1307 24.9972 10.2767V28.3991C24.9972 28.7305 24.7286 28.9991 24.3972 28.9991H7.6C7.26863 28.9991 7 28.7305 7 28.3991V3.6ZM8.2 4.2V27.7991H23.7972V11.9375C23.7374 11.9575 23.6734 11.9683 23.6069 11.9683H18.5131C18.1817 11.9683 17.9131 11.6997 17.9131 11.3683V4.42646C17.9131 4.34633 17.9288 4.26988 17.9573 4.2H8.2ZM23.7972 10.5032V10.7992C23.7374 10.7792 23.6734 10.7683 23.6069 10.7683H19.1131V5.1835L23.7972 10.5032ZM16.4404 16.4306C16.3269 16.3083 16.1676 16.2389 16.0007 16.2389C15.8339 16.2389 15.6746 16.3083 15.561 16.4306L13.2272 18.9443C13.0017 19.1872 13.0158 19.5668 13.2587 19.7923C13.5015 20.0177 13.8811 20.0037 14.1066 19.7608L15.4007 18.3669V22.7042C15.4007 23.0355 15.6694 23.3042 16.0007 23.3042C16.3321 23.3042 16.6007 23.0355 16.6007 22.7042V18.3669L17.8949 19.7608C18.1203 20.0037 18.5 20.0177 18.7428 19.7923C18.9857 19.5668 18.9997 19.1872 18.7743 18.9443L16.4404 16.4306Z" fill="currentColor"/></g>
  <g id="identicon-placeholder-16" class="sprite-item" fill="none"><g clip-path="url(#clip0_2408_9949)"><ellipse cx="8.00014" cy="1.41176" rx="1.41176" ry="1.41176" fill="#BFBFC3"/><ellipse cx="5.1769" cy="2.82387" rx="1.41176" ry="1.41176" fill="#BFBFC3"/><ellipse cx="10.8239" cy="2.82387" rx="1.41176" ry="1.41176" fill="#BFBFC3"/><ellipse cx="8.00014" cy="4.70571" rx="1.41176" ry="1.41176" fill="#BFBFC3"/><ellipse cx="13.6471" cy="4.70571" rx="1.41176" ry="1.41176" fill="#BFBFC3"/><circle cx="2.35317" cy="4.70571" r="1.41176" fill="#BFBFC3"/><ellipse cx="5.1769" cy="6.11782" rx="1.41176" ry="1.41176" fill="#BFBFC3"/><circle cx="10.8239" cy="6.11782" r="1.41176" fill="#BFBFC3"/><ellipse cx="8.00014" cy="11.2946" rx="1.41176" ry="1.41176" fill="#BFBFC3"/><circle cx="13.6471" cy="11.2946" r="1.41176" fill="#BFBFC3"/><ellipse cx="2.35317" cy="11.2946" rx="1.41176" ry="1.41176" fill="#BFBFC3"/><ellipse cx="5.1769" cy="12.7057" rx="1.41176" ry="1.41176" fill="#BFBFC3"/><circle cx="10.8239" cy="12.7057" r="1.41176" fill="#BFBFC3"/><ellipse cx="8.00014" cy="14.5885" rx="1.41176" ry="1.41176" fill="#BFBFC3"/><circle cx="8.00014" cy="7.99966" r="1.41176" fill="#BFBFC3"/><ellipse cx="13.6471" cy="7.99966" rx="1.41176" ry="1.41176" fill="#BFBFC3"/><ellipse cx="2.35317" cy="7.99966" rx="1.41176" ry="1.41176" fill="#BFBFC3"/><ellipse cx="5.1769" cy="9.41176" rx="1.41176" ry="1.41176" fill="#BFBFC3"/><circle cx="10.8239" cy="9.41176" r="1.41176" fill="#BFBFC3"/></g><defs><clipPath id="clip0_2408_9949"><rect width="16" height="16" fill="white"/></clipPath></defs></g>
  <g id="identicon-placeholder-20" class="sprite-item" fill="none"><circle cx="9.99957" cy="1.76471" r="1.76471" fill="#BFBFC3"/><circle cx="6.47027" cy="3.52935" r="1.76471" fill="#BFBFC3"/><ellipse cx="13.5294" cy="3.52935" rx="1.76471" ry="1.76471" fill="#BFBFC3"/><circle cx="9.99957" cy="5.88189" r="1.76471" fill="#BFBFC3"/><circle cx="17.0587" cy="5.88189" r="1.76471" fill="#BFBFC3"/><circle cx="2.94098" cy="5.88189" r="1.76471" fill="#BFBFC3"/><ellipse cx="6.47027" cy="7.64752" rx="1.76471" ry="1.76471" fill="#BFBFC3"/><circle cx="13.5294" cy="7.64752" r="1.76471" fill="#BFBFC3"/><ellipse cx="9.99957" cy="14.1172" rx="1.76471" ry="1.76471" fill="#BFBFC3"/><ellipse cx="17.0587" cy="14.1172" rx="1.76471" ry="1.76471" fill="#BFBFC3"/><ellipse cx="2.94098" cy="14.1172" rx="1.76471" ry="1.76471" fill="#BFBFC3"/><ellipse cx="6.47027" cy="15.8819" rx="1.76471" ry="1.76471" fill="#BFBFC3"/><ellipse cx="13.5294" cy="15.8819" rx="1.76471" ry="1.76471" fill="#BFBFC3"/><circle cx="9.99957" cy="18.2354" r="1.76471" fill="#BFBFC3"/><circle cx="9.99957" cy="10.0001" r="1.76471" fill="#BFBFC3"/><circle cx="17.0587" cy="10.0001" r="1.76471" fill="#BFBFC3"/><circle cx="2.94098" cy="10.0001" r="1.76471" fill="#BFBFC3"/><ellipse cx="6.47027" cy="11.7647" rx="1.76471" ry="1.76471" fill="#BFBFC3"/><circle cx="13.5294" cy="11.7647" r="1.76471" fill="#BFBFC3"/></g>
  <g id="identicon-placeholder-32" class="sprite-item" fill="none"><ellipse cx="16.0003" cy="2.82353" rx="2.82353" ry="2.82353" fill="#BFBFC3"/><ellipse cx="10.3538" cy="5.64677" rx="2.82353" ry="2.82353" fill="#BFBFC3"/><ellipse cx="21.6477" cy="5.64677" rx="2.82353" ry="2.82353" fill="#BFBFC3"/><ellipse cx="16.0003" cy="9.41142" rx="2.82353" ry="2.82353" fill="#BFBFC3"/><ellipse cx="27.2942" cy="9.41142" rx="2.82353" ry="2.82353" fill="#BFBFC3"/><circle cx="4.70634" cy="9.41142" r="2.82353" fill="#BFBFC3"/><ellipse cx="10.3538" cy="12.2356" rx="2.82353" ry="2.82353" fill="#BFBFC3"/><circle cx="21.6477" cy="12.2356" r="2.82353" fill="#BFBFC3"/><ellipse cx="16.0003" cy="22.5882" rx="2.82353" ry="2.82353" fill="#BFBFC3"/><circle cx="27.2942" cy="22.5882" r="2.82353" fill="#BFBFC3"/><ellipse cx="4.70634" cy="22.5882" rx="2.82353" ry="2.82353" fill="#BFBFC3"/><ellipse cx="10.3538" cy="25.4114" rx="2.82353" ry="2.82353" fill="#BFBFC3"/><circle cx="21.6477" cy="25.4114" r="2.82353" fill="#BFBFC3"/><ellipse cx="16.0003" cy="29.1761" rx="2.82353" ry="2.82353" fill="#BFBFC3"/><circle cx="16.0003" cy="16.0003" r="2.82353" fill="#BFBFC3"/><ellipse cx="27.2942" cy="16.0003" rx="2.82353" ry="2.82353" fill="#BFBFC3"/><ellipse cx="4.70634" cy="16.0003" rx="2.82353" ry="2.82353" fill="#BFBFC3"/><ellipse cx="10.3538" cy="18.8235" rx="2.82353" ry="2.82353" fill="#BFBFC3"/><circle cx="21.6477" cy="18.8235" r="2.82353" fill="#BFBFC3"/></g>
</svg>
