<svg viewBox="0 0 32 32" xmlns="http://www.w3.org/2000/svg">
  <defs>
    <style>
      .sprite-item { display: none; }
      .sprite-item:target { display: inline; }
    </style>
  </defs>
  <g id="github-32" class="sprite-item" fill="none"><path fill-rule="evenodd" clip-rule="evenodd" d="M15.9957 3.46094C12.9095 3.46253 9.92441 4.54939 7.57432 6.52718C5.22423 8.50497 3.66235 11.2447 3.16795 14.2565C2.67355 17.2683 3.27887 20.3558 4.87568 22.9669C6.47249 25.5779 8.95666 27.5423 11.884 28.5088C12.5298 28.6279 12.7731 28.23 12.7731 27.8916C12.7731 27.5532 12.7601 26.572 12.7558 25.4994C9.13926 26.2762 8.37505 23.9819 8.37505 23.9819C7.7852 22.4921 6.93272 22.1005 6.93272 22.1005C5.75303 21.3045 7.02099 21.3194 7.02099 21.3194C8.3277 21.4109 9.01442 22.6453 9.01442 22.6453C10.1726 24.6097 12.0562 24.0415 12.7967 23.7095C12.913 22.8773 13.251 22.3112 13.6234 21.9898C10.7344 21.6663 7.69909 20.5639 7.69909 15.639C7.68119 14.3618 8.16059 13.1266 9.03809 12.189C8.90462 11.8656 8.459 10.5588 9.1651 8.78379C9.1651 8.78379 10.2565 8.43901 12.7408 10.1012C14.8716 9.5251 17.1198 9.5251 19.2506 10.1012C21.7327 8.43901 22.822 8.78379 22.822 8.78379C23.5302 10.5545 23.0846 11.8613 22.9512 12.189C23.8314 13.1268 24.3118 14.3641 24.2923 15.6433C24.2923 20.5788 21.2505 21.6663 18.3572 21.9834C18.8222 22.3836 19.2377 23.1646 19.2377 24.365C19.2377 26.0846 19.2226 27.468 19.2226 27.8916C19.2226 28.2342 19.4573 28.6343 20.116 28.5088C23.0437 27.5422 25.5281 25.5774 27.1249 22.9659C28.7217 20.3544 29.3267 17.2665 28.8317 14.2544C28.3367 11.2423 26.7741 8.50256 24.4232 6.52511C22.0723 4.54767 19.0866 3.46152 16 3.46094H15.9957Z" fill="currentColor"/></g>
  <g id="medium-32" class="sprite-item" fill="none"><path fill-rule="evenodd" clip-rule="evenodd" d="M10.333 23.3986C14.3826 23.3986 17.6657 20.0871 17.6657 16.0022C17.6657 11.9172 14.3829 8.60547 10.333 8.60547C6.28307 8.60547 3 11.918 3 16.0022C3 20.0864 6.28332 23.3986 10.333 23.3986ZM25.7101 16.002C25.7101 19.8471 24.0686 22.9655 22.0436 22.9655C20.0187 22.9655 18.3772 19.8471 18.3772 16.002C18.3772 12.1569 20.0184 9.03862 22.0434 9.03862C24.0683 9.03862 25.7099 12.1559 25.7099 16.002H25.7101ZM29 16.0022C29 19.4465 28.4228 22.2404 27.7105 22.2404C26.9982 22.2404 26.4212 19.4473 26.4212 16.0022C26.4212 12.5572 26.9985 9.76411 27.7105 9.76411C28.4225 9.76411 29 12.557 29 16.0022Z" fill="currentColor"/></g>
  <g id="telegram-32" class="sprite-item" fill="none"><path fill-rule="evenodd" clip-rule="evenodd" d="M29 16C29 23.1797 23.1797 29 16 29C8.8203 29 3 23.1797 3 16C3 8.8203 8.8203 3 16 3C23.1797 3 29 8.8203 29 16ZM16.466 12.5971C15.2015 13.123 12.6744 14.2115 8.88464 15.8627C8.26925 16.1074 7.94687 16.3468 7.91753 16.5809C7.86793 16.9765 8.36337 17.1323 9.03803 17.3445C9.12979 17.3733 9.22488 17.4032 9.32236 17.4349C9.98612 17.6507 10.879 17.9031 11.3432 17.9131C11.7642 17.9222 12.2341 17.7486 12.753 17.3924C16.2938 15.0022 18.1217 13.794 18.2364 13.768C18.3174 13.7496 18.4296 13.7265 18.5056 13.7941C18.5816 13.8616 18.5741 13.9896 18.5661 14.0239C18.517 14.2331 16.5722 16.0412 15.5658 16.9768C15.2521 17.2685 15.0295 17.4754 14.984 17.5227C14.8821 17.6285 14.7782 17.7287 14.6784 17.8249C14.0618 18.4193 13.5993 18.8651 14.704 19.5931C15.2349 19.9429 15.6597 20.2322 16.0835 20.5208C16.5463 20.836 17.0079 21.1504 17.6052 21.5419C17.7573 21.6416 17.9027 21.7452 18.0442 21.8461C18.5828 22.2301 19.0667 22.5751 19.6646 22.5201C20.0119 22.4881 20.3708 22.1615 20.553 21.1873C20.9837 18.885 21.8302 13.8966 22.0258 11.841C22.043 11.6609 22.0214 11.4304 22.0041 11.3292C21.9868 11.228 21.9506 11.0838 21.8191 10.9771C21.6633 10.8507 21.4229 10.8241 21.3153 10.826C20.8264 10.8346 20.0762 11.0954 16.466 12.5971Z" fill="currentColor"/></g>
  <g id="twitter-old-32" class="sprite-item" fill="none"><path d="M11.1793 27C20.9882 27 26.3548 18.5351 26.3548 11.1965C26.3548 10.9586 26.3497 10.7153 26.3396 10.4773C27.3835 9.69112 28.2845 8.71728 29 7.60158C28.0277 8.05206 26.9954 8.34626 25.9384 8.47414C27.0514 7.77939 27.8847 6.68796 28.284 5.40219C27.2369 6.04839 26.0919 6.50423 24.8979 6.75017C24.0934 5.85999 23.0297 5.27059 21.8713 5.07309C20.7129 4.87558 19.5243 5.08098 18.4892 5.65753C17.4541 6.23407 16.6303 7.14965 16.145 8.2627C15.6597 9.37575 15.54 10.6243 15.8045 11.8153C13.6844 11.7045 11.6103 11.1309 9.71665 10.1318C7.82303 9.13272 6.15217 7.73035 4.81238 6.01563C4.13143 7.23825 3.92306 8.68501 4.22962 10.0619C4.53617 11.4387 5.33465 12.6424 6.46277 13.4282C5.61585 13.4002 4.78747 13.1627 4.04609 12.7354V12.8042C4.04534 14.0872 4.47127 15.331 5.2515 16.3239C6.03173 17.3169 7.1181 17.9979 8.32594 18.2511C7.54139 18.4746 6.71798 18.5072 5.91941 18.3463C6.26024 19.4497 6.92337 20.4148 7.81625 21.1069C8.70913 21.7989 9.78721 22.1834 10.9 22.2067C9.01079 23.7522 6.67702 24.5904 4.27461 24.5864C3.84856 24.5858 3.42293 24.5586 3 24.505C5.44059 26.1356 8.27966 27.0016 11.1793 27Z" fill="currentColor"/></g>
  <g id="twitter-new-32" class="sprite-item" fill="none"><path d="M23.4765 4.25H27.4634L18.7533 14.205L29 27.7516H20.9769L14.693 19.5357L7.50267 27.7516H3.51342L12.8297 17.1036L3 4.25H11.2268L16.9069 11.7597L23.4765 4.25ZM22.0773 25.3653H24.2864L10.0264 6.51097H7.65573L22.0773 25.3653Z" fill="currentColor"/></g>
  <g id="youtube-32" class="sprite-item" fill="none"><path d="M28.741 10.7182C28.741 10.7182 28.4871 8.89763 27.7051 8.09825C26.7148 7.04616 25.6078 7.041 25.1 6.97912C21.4641 6.71094 16.0051 6.71094 16.0051 6.71094H15.9949C15.9949 6.71094 10.5359 6.71094 6.9 6.97912C6.39219 7.041 5.28516 7.04616 4.29492 8.09825C3.51289 8.89763 3.26406 10.7182 3.26406 10.7182C3.26406 10.7182 3 12.8584 3 14.9936V16.9946C3 19.1297 3.25898 21.27 3.25898 21.27C3.25898 21.27 3.51289 23.0905 4.28984 23.8899C5.28008 24.942 6.58008 24.9059 7.15898 25.0193C9.24102 25.2205 16 25.2824 16 25.2824C16 25.2824 21.4641 25.2721 25.1 25.009C25.6078 24.9471 26.7148 24.942 27.7051 23.8899C28.4871 23.0905 28.741 21.27 28.741 21.27C28.741 21.27 29 19.1349 29 16.9946V14.9936C29 12.8584 28.741 10.7182 28.741 10.7182ZM13.3137 19.4237V12.0023L20.3367 15.7259L13.3137 19.4237Z" fill="currentColor"/></g>
</svg>
