<svg viewBox="0 0 20 20" xmlns="http://www.w3.org/2000/svg">
  <defs>
    <style>
      .sprite-item { display: none; }
      .sprite-item:target { display: inline; }
    </style>
  </defs>
  <g id="change-reward-dest-20" class="sprite-item" fill="none"><path fill-rule="evenodd" clip-rule="evenodd" d="M10.4261 2.17573C10.1918 1.94142 9.81188 1.94142 9.57756 2.17574L8.10933 3.644C7.87501 3.87832 7.87502 4.25822 8.10933 4.49253C8.34365 4.72685 8.72355 4.72685 8.95786 4.49253L9.40173 4.04865V5.23058C8.21115 5.32145 7.12376 5.68279 6.28553 6.24162C5.31376 6.88948 4.61914 7.85037 4.61914 8.99287L4.61918 9.00852L4.61914 9.01581V11.1858C4.61914 12.34 5.32688 13.2542 6.30623 13.8508C7.1441 14.3611 8.22406 14.6728 9.39884 14.7517V15.9501L9.01333 15.5646C8.77901 15.3303 8.39911 15.3303 8.1648 15.5646C7.93048 15.7989 7.93048 16.1788 8.16479 16.4131L9.57466 17.823C9.80898 18.0573 10.1889 18.0573 10.4232 17.823L11.8331 16.4131C12.0674 16.1788 12.0674 15.7989 11.8331 15.5646C11.5988 15.3303 11.2189 15.3302 10.9846 15.5646L10.5988 15.9503V14.7514C11.7717 14.6719 12.8498 14.3604 13.6865 13.8508C14.6658 13.2542 15.3736 12.34 15.3736 11.1858V9.01581L15.3735 9.00852L15.3736 8.99287C15.3736 7.85037 14.6789 6.88948 13.7072 6.24162C12.8715 5.68448 11.7881 5.32363 10.6017 5.23141V4.04842L11.0459 4.49254C11.2802 4.72685 11.6601 4.72684 11.8944 4.49253C12.1287 4.25821 12.1287 3.87831 11.8944 3.64399L10.4261 2.17573ZM9.40173 6.43469V9.0255C9.40173 9.35688 9.67036 9.62551 10.0017 9.62551C10.3331 9.62551 10.6017 9.35688 10.6017 9.0255V6.43567C11.5685 6.52476 12.416 6.82308 13.0415 7.24008C13.7988 7.74491 14.1736 8.37644 14.1736 8.99287C14.1736 9.6093 13.7988 10.2408 13.0415 10.7457C12.2885 11.2477 11.2136 11.5777 9.99635 11.5777C8.7791 11.5777 7.70422 11.2477 6.95118 10.7457C6.19394 10.2408 5.81914 9.6093 5.81914 8.99287C5.81914 8.37643 6.19394 7.74491 6.95117 7.24008C7.57899 6.82153 8.43051 6.52255 9.40173 6.43469ZM14.1577 11.4036C14.0161 11.525 13.8653 11.6387 13.7072 11.7441C12.7312 12.3948 11.4175 12.7777 9.99635 12.7777C8.57523 12.7777 7.2615 12.3948 6.28553 11.7441C6.12742 11.6387 5.97665 11.525 5.83501 11.4036C5.91214 11.9286 6.27133 12.4244 6.93047 12.8259C7.6813 13.2832 8.76174 13.5716 9.99635 13.5716C11.231 13.5716 12.3114 13.2832 13.0622 12.8259C13.7214 12.4244 14.0806 11.9286 14.1577 11.4036Z" fill="currentColor"/></g>
  <g id="change-validators-20" class="sprite-item" fill="none"><path fill-rule="evenodd" clip-rule="evenodd" d="M14.8679 4.95459L14.9915 3.55972C15.0207 3.22964 15.312 2.98577 15.6421 3.01502C15.9722 3.04427 16.2161 3.33556 16.1868 3.66564L15.9342 6.51596C15.9202 6.67449 15.8437 6.82094 15.7217 6.92309C15.5997 7.02524 15.4421 7.07472 15.2835 7.06066L12.4355 6.80788C12.1054 6.77858 11.8616 6.48726 11.8909 6.15718C11.9201 5.82711 12.2115 5.58328 12.5415 5.61258L13.9495 5.73754C11.8208 3.76014 8.49227 3.66032 6.22662 5.61067L5.83518 5.15594L6.22662 5.61067C4.61008 7.00224 3.94269 9.0864 4.28893 11.0411C4.34672 11.3674 4.12907 11.6787 3.80278 11.7365C3.47648 11.7943 3.16512 11.5767 3.10732 11.2504C2.69002 8.89456 3.49399 6.37962 5.44373 4.70122C8.21098 2.31908 12.3005 2.47074 14.8679 4.95459ZM5.1333 15.044L5.0097 16.4388C4.98045 16.7689 4.68916 17.0128 4.35908 16.9835C4.029 16.9543 3.78513 16.663 3.81438 16.3329L4.06696 13.4826C4.081 13.3241 4.15745 13.1776 4.27949 13.0755C4.40152 12.9733 4.55914 12.9238 4.71766 12.9379L7.56574 13.1907C7.89581 13.22 8.13964 13.5113 8.11034 13.8414C8.08105 14.1714 7.78972 14.4153 7.45965 14.386L6.05171 14.261C8.18044 16.2384 11.5089 16.3382 13.7746 14.3879C15.4078 12.9819 16.0722 10.869 15.7012 8.89699C15.64 8.57133 15.8543 8.25766 16.1799 8.1964C16.5056 8.13513 16.8193 8.34947 16.8805 8.67513C17.3277 11.0519 16.5274 13.6016 14.5575 15.2973C11.7902 17.6795 7.70066 17.5278 5.1333 15.044ZM12.2733 9.44718C12.5075 9.21277 12.5073 8.83287 12.2729 8.59865C12.0385 8.36443 11.6586 8.36458 11.4244 8.59898L9.49261 10.5323L8.5033 9.54221C8.26907 9.30781 7.88918 9.30766 7.65477 9.54188C7.42036 9.77611 7.42022 10.156 7.65444 10.3904L8.9267 11.6637C9.23917 11.9764 9.74605 11.9764 10.0585 11.6637L12.2733 9.44718Z" fill="currentColor"/></g>
  <g id="return-to-stake-20" class="sprite-item" fill="none"><path fill-rule="evenodd" clip-rule="evenodd" d="M14.8692 4.9544L14.9928 3.55972C15.022 3.22964 15.3133 2.98577 15.6434 3.01502C15.9735 3.04428 16.2173 3.33557 16.1881 3.66565L15.9355 6.51612C15.9214 6.67464 15.845 6.82108 15.7229 6.92323C15.6009 7.02538 15.4433 7.07487 15.2848 7.0608L12.4363 6.80801C12.1062 6.77872 11.8624 6.48739 11.8917 6.15732C11.921 5.82725 12.2123 5.58342 12.5424 5.61271L13.9512 5.73773C11.8221 3.76012 8.49297 3.66025 6.22692 5.61076L5.85256 5.17584L6.22692 5.61076C4.61013 7.00242 3.94265 9.0867 4.28894 11.0414C4.34674 11.3677 4.12909 11.6791 3.8028 11.7369C3.47651 11.7947 3.16514 11.5771 3.10734 11.2508C2.68997 8.89482 3.49407 6.37975 5.44408 4.70128C8.21158 2.31914 12.3015 2.47071 14.8692 4.9544ZM5.13256 15.0454L5.00896 16.4401C4.97971 16.7701 4.68841 17.014 4.35834 16.9848C4.02826 16.9555 3.78439 16.6642 3.81364 16.3341L4.06625 13.4837C4.0803 13.3251 4.15675 13.1787 4.27878 13.0765C4.40082 12.9744 4.55843 12.9249 4.71695 12.939L7.56544 13.1918C7.89551 13.2211 8.13934 13.5124 8.11005 13.8425C8.08076 14.1725 7.78943 14.4164 7.45936 14.3871L6.05057 14.262C8.17964 16.2397 11.5088 16.3395 13.7748 14.389C15.4083 12.983 16.0728 10.8699 15.7017 8.89783C15.6405 8.57217 15.8548 8.2585 16.1805 8.19723C16.5061 8.13596 16.8198 8.35029 16.881 8.67595C17.3283 11.0529 16.5278 13.6027 14.5576 15.2985C11.7901 17.6806 7.70027 17.5291 5.13256 15.0454ZM10.3921 12.9485C10.2799 13.063 10.1267 13.1279 9.96642 13.1287C9.80617 13.1295 9.65226 13.0662 9.53898 12.9528L8.30774 11.7207C8.07351 11.4863 8.07364 11.1064 8.30804 10.8722C8.54243 10.6379 8.92233 10.6381 9.15656 10.8725L9.36359 11.0796V11.0713V11.0584V11.0455V11.0326V11.0197V11.0068V10.9939V10.9809V10.968V10.955V10.9421V10.9291V10.9161V10.9031V10.8901V10.8771V10.8641V10.8511V10.8381V10.8251V10.8121V10.799V10.786V10.773V10.7599V10.7469V10.7338V10.7207V10.7077V10.6946V10.6815V10.6685V10.6554V10.6423V10.6292V10.6161V10.603V10.5899V10.5768V10.5637V10.5506V10.5375V10.5244V10.5113V10.4982V10.4851V10.472V10.4589V10.4458V10.4327V10.4196V10.4065V10.3934V10.3803V10.3672V10.354V10.3409V10.3278V10.3147V10.3016V10.2885V10.2754V10.2623V10.2493V10.2362V10.2231V10.21V10.1969V10.1838V10.1708V10.1577V10.1446V10.1316V10.1185V10.1054V10.0924V10.0793V10.0663V10.0533V10.0402V10.0272V10.0142V10.0012V9.98818V9.97518V9.96219V9.9492V9.93622V9.92324V9.91028V9.89732V9.88437V9.87142V9.85848V9.84556V9.83264V9.81973V9.80682V9.79393V9.78104V9.76817V9.7553V9.74244V9.7296V9.71676V9.70393V9.69111V9.67831V9.66551V9.65273V9.63995V9.62719V9.61444V9.6017V9.58897V9.57626V9.56355V9.55086V9.53818V9.52551V9.51286V9.50022V9.48759V9.47498V9.46238V9.44979V9.43722V9.42466V9.41212V9.39959V9.38707V9.37458V9.36209V9.34962V9.33717V9.32473V9.31231V9.2999V9.28751V9.27514V9.26278V9.25044V9.23812V9.22581V9.21352V9.20125V9.18899V9.17676V9.16454V9.15234V9.14016V9.128V9.11585V9.10373V9.09162V9.07954V9.06747V9.05542V9.04339V9.03139V9.0194V9.00743V8.99549V8.98356V8.97166V8.95977V8.94791V8.93607V8.92426V8.91246V8.90068V8.88893V8.8772V8.8655V8.85381V8.84215V8.83051V8.8189V8.80731V8.79574V8.7842V8.77268V8.76119V8.74972V8.73827V8.72685V8.71546V8.70409V8.69274V8.68142V8.67013V8.65886V8.64762V8.63641V8.62522V8.61406V8.60292V8.59182V8.58074V8.56968V8.55866V8.54766V8.53669V8.52575V8.51484V8.50396V8.4931V8.48227V8.47148V8.46071V8.44997V8.43926V8.42859V8.41794V8.40732V8.39673V8.38617V8.37565V8.36515V8.35469V8.34425V8.33385V8.32348V8.31315V8.30284V8.29257V8.28233V8.27212V8.26194V8.2518V8.24169V8.23161V8.22157V8.21156V8.20159V8.19165V8.18174V8.17187V8.16203V8.15223V8.14246V8.13273V8.12304V8.11338V8.10375V8.09416V8.08461V8.07509V8.06561V8.05617V8.04676V8.03739V8.02806V8.01877V8.00951V8.00029V7.99111V7.98197V7.97286V7.9638V7.95477V7.94578V7.93683V7.92792V7.91905V7.91022V7.90143V7.89268V7.88397V7.8753V7.86667V7.85808V7.84953V7.84102V7.83256V7.82413V7.81575V7.80741V7.79911V7.79086V7.78264V7.77447V7.76634V7.75826V7.75022V7.74222V7.73426V7.72635V7.71848V7.71066V7.70288V7.69515V7.68746V7.67981V7.67221V7.66466V7.65715V7.64968V7.64226V7.63489V7.62757V7.62029V7.61305V7.60587V7.59873V7.59163V7.58459V7.57759V7.57064V7.56374V7.55688V7.55008V7.54332V7.53661V7.52995V7.52334V7.51677V7.51026V7.5038V7.49738V7.49102V7.4847V7.47844V7.47223V7.46606V7.45995V7.45389V7.44788V7.44192V7.43601V7.43015V7.42435V7.4186V7.4129V7.40725V7.40165V7.39611V7.39062V7.38519V7.3798V7.37448V7.3692V7.36398V7.35881V7.3537V7.34864V7.34364V7.33869V7.33379V7.32895V7.32417V7.31944V7.31477V7.31015V7.30559V7.30109V7.29664V7.29225V7.28791V7.28364V7.27942V7.27525V7.27115V7.2671V7.26311V7.25918V7.25531V7.2515V7.24774V7.24404V7.24041V7.23683V7.23331V7.22985V7.22645V7.22311V7.21983V7.21661V7.21345V7.21036V7.20732V7.20434V7.20143V7.19858V7.19579V7.19306V7.19039V7.18779V7.18524V7.18276V7.18035V7.17799V7.1757V7.17347V7.17131V7.16921V7.16717V7.1652V7.16329V7.16144V7.15966V7.15795V7.1563V7.15472V7.1532V7.15174V7.15035V7.14903V7.14778V7.14659V7.14546V7.14441V7.14342V7.14249V7.14164V7.14085V7.14013V7.13948V7.13889V7.13838V7.13793V7.13755V7.13724V7.13699V7.13682V7.13672L9.96359 7.13668L10.5636 7.13672V7.13682V7.13699V7.13724V7.13755V7.13793V7.13838V7.13889V7.13948V7.14013V7.14085V7.14164V7.14249V7.14342V7.14441V7.14546V7.14659V7.14778V7.14903V7.15035V7.15174V7.1532V7.15472V7.1563V7.15795V7.15966V7.16144V7.16329V7.1652V7.16717V7.16921V7.17131V7.17347V7.1757V7.17799V7.18035V7.18276V7.18524V7.18779V7.19039V7.19306V7.19579V7.19858V7.20143V7.20434V7.20732V7.21036V7.21345V7.21661V7.21983V7.22311V7.22645V7.22985V7.23331V7.23683V7.24041V7.24404V7.24774V7.2515V7.25531V7.25918V7.26311V7.2671V7.27115V7.27525V7.27942V7.28364V7.28791V7.29225V7.29664V7.30109V7.30559V7.31015V7.31477V7.31944V7.32417V7.32895V7.33379V7.33869V7.34364V7.34864V7.3537V7.35881V7.36398V7.3692V7.37448V7.3798V7.38519V7.39062V7.39611V7.40165V7.40725V7.4129V7.4186V7.42435V7.43015V7.43601V7.44192V7.44788V7.45389V7.45995V7.46606V7.47223V7.47844V7.4847V7.49102V7.49738V7.5038V7.51026V7.51677V7.52334V7.52995V7.53661V7.54332V7.55008V7.55688V7.56374V7.57064V7.57759V7.58459V7.59163V7.59873V7.60587V7.61305V7.62029V7.62757V7.63489V7.64226V7.64968V7.65715V7.66466V7.67221V7.67981V7.68746V7.69515V7.70288V7.71066V7.71848V7.72635V7.73426V7.74222V7.75022V7.75826V7.76634V7.77447V7.78264V7.79086V7.79911V7.80741V7.81575V7.82413V7.83256V7.84102V7.84953V7.85808V7.86667V7.8753V7.88397V7.89268V7.90143V7.91022V7.91905V7.92792V7.93683V7.94578V7.95477V7.9638V7.97286V7.98197V7.99111V8.00029V8.00951V8.01877V8.02806V8.03739V8.04676V8.05617V8.06561V8.07509V8.08461V8.09416V8.10375V8.11338V8.12304V8.13273V8.14246V8.15223V8.16203V8.17187V8.18174V8.19165V8.20159V8.21156V8.22157V8.23161V8.24169V8.2518V8.26194V8.27212V8.28233V8.29257V8.30284V8.31315V8.32348V8.33385V8.34425V8.35469V8.36515V8.37565V8.38617V8.39673V8.40732V8.41794V8.42859V8.43926V8.44997V8.46071V8.47148V8.48227V8.4931V8.50396V8.51484V8.52575V8.53669V8.54766V8.55866V8.56968V8.58074V8.59182V8.60292V8.61406V8.62522V8.63641V8.64762V8.65886V8.67013V8.68142V8.69274V8.70409V8.71546V8.72685V8.73827V8.74972V8.76119V8.77268V8.7842V8.79574V8.80731V8.8189V8.83051V8.84215V8.85381V8.8655V8.8772V8.88893V8.90068V8.91246V8.92426V8.93607V8.94791V8.95977V8.97166V8.98356V8.99549V9.00743V9.0194V9.03139V9.04339V9.05542V9.06747V9.07954V9.09162V9.10373V9.11585V9.128V9.14016V9.15234V9.16454V9.17676V9.18899V9.20125V9.21352V9.22581V9.23812V9.25044V9.26278V9.27514V9.28751V9.2999V9.31231V9.32473V9.33717V9.34962V9.36209V9.37458V9.38707V9.39959V9.41212V9.42466V9.43722V9.44979V9.46238V9.47498V9.48759V9.50022V9.51286V9.52551V9.53818V9.55086V9.56355V9.57626V9.58897V9.6017V9.61444V9.62719V9.63995V9.65273V9.66551V9.67831V9.69111V9.70393V9.71676V9.7296V9.74244V9.7553V9.76817V9.78104V9.79393V9.80682V9.81973V9.83264V9.84556V9.85848V9.87142V9.88437V9.89732V9.91028V9.92324V9.93622V9.9492V9.96219V9.97518V9.98818V10.0012V10.0142V10.0272V10.0402V10.0533V10.0663V10.0793V10.0924V10.1054V10.1185V10.1316V10.1446V10.1577V10.1708V10.1838V10.1969V10.21V10.2231V10.2362V10.2493V10.2623V10.2754V10.2885V10.3016V10.3147V10.3278V10.3409V10.354V10.3672V10.3803V10.3934V10.4065V10.4196V10.4327V10.4458V10.4589V10.472V10.4851V10.4982V10.5113V10.5244V10.5375V10.5506V10.5637V10.5768V10.5899V10.603V10.6161V10.6292V10.6423V10.6554V10.6685V10.6815V10.6946V10.7077V10.7207V10.7338V10.7469V10.7599V10.773V10.786V10.799V10.8121V10.8251V10.8381V10.8511V10.8641V10.8771V10.8901V10.9031V10.9161V10.9291V10.9421V10.955V10.968V10.9809V10.9939V11.0068V11.0197V11.0326V11.0455V11.0583L10.7413 10.8768C10.9732 10.64 11.3531 10.6361 11.5898 10.8679C11.8266 11.0998 11.8305 11.4797 11.5987 11.7164L10.3921 12.9485ZM9.36359 7.13668H9.96359H10.5636C10.5636 6.80531 10.295 6.53668 9.96359 6.53668C9.63221 6.53668 9.36359 6.80531 9.36359 7.13668Z" fill="currentColor"/></g>
  <g id="set-validators-20" class="sprite-item" fill="none"><path fill-rule="evenodd" clip-rule="evenodd" d="M16.8 10C16.8 13.7555 13.7555 16.8 10 16.8C6.24446 16.8 3.2 13.7555 3.2 10C3.2 6.24446 6.24446 3.2 10 3.2C13.7555 3.2 16.8 6.24446 16.8 10ZM18 10C18 14.4183 14.4183 18 10 18C5.58172 18 2 14.4183 2 10C2 5.58172 5.58172 2 10 2C14.4183 2 18 5.58172 18 10ZM12.4473 9.28124C12.6815 9.04683 12.6813 8.66694 12.4469 8.43271C12.2125 8.19849 11.8326 8.19864 11.5984 8.43304L9.32999 10.7032L8.13872 9.51102C7.90449 9.27662 7.52459 9.27647 7.29019 9.51069C7.05578 9.74491 7.05563 10.1248 7.28986 10.3592L8.76408 11.8346C9.07655 12.1473 9.58343 12.1473 9.8959 11.8346L12.4473 9.28124Z" fill="currentColor"/></g>
  <g id="stake-more-20" class="sprite-item" fill="none"><path fill-rule="evenodd" clip-rule="evenodd" d="M7.23711 7.91314C7.23711 6.38722 8.47409 5.15022 9.99999 5.15022C11.5259 5.15022 12.7629 6.38722 12.7629 7.91314C12.7629 7.99799 12.759 8.08195 12.7516 8.16485C12.7489 8.18312 12.747 8.20145 12.746 8.21979C12.5935 9.6014 11.4222 10.6761 9.99999 10.6761C8.58696 10.6761 7.42169 9.6153 7.25703 8.24664C7.2567 8.21049 7.25311 8.17423 7.24615 8.13832C7.24016 8.06405 7.23711 7.98895 7.23711 7.91314ZM6.03734 7.95652C6.03719 7.94208 6.03711 7.92762 6.03711 7.91314C6.03711 5.72447 7.81135 3.9502 9.99999 3.9502C12.1886 3.9502 13.9629 5.72447 13.9629 7.91314C13.9629 7.92705 13.9628 7.94094 13.9627 7.95481C14.7543 8.55963 15.3127 9.38726 15.372 10.3547C15.3754 10.3808 15.3772 10.4073 15.3772 10.4343V10.526V12.4711C15.3772 13.6251 14.6696 14.5392 13.6905 15.1356C12.7125 15.7313 11.4046 16.0563 10.0011 16.0563C8.59765 16.0563 7.28975 15.7313 6.31177 15.1356C5.33262 14.5392 4.625 13.6251 4.625 12.4711V10.5846L4.62528 10.566L4.625 10.526C4.625 9.48585 5.20057 8.59662 6.03734 7.95652ZM6.30293 9.34306C5.98369 9.71773 5.825 10.1252 5.825 10.526C5.825 11.1423 6.19968 11.7736 6.95671 12.2783C7.70956 12.7802 8.78416 13.1102 10.0011 13.1102C11.2181 13.1102 12.2927 12.7802 13.0455 12.2783C13.8026 11.7736 14.1772 11.1423 14.1772 10.526C14.1772 10.1245 14.018 9.71642 13.6977 9.34125C13.1246 10.8242 11.6852 11.8761 9.99999 11.8761C8.31551 11.8761 6.87651 10.8251 6.30293 9.34306ZM10.6014 6.65107C10.6014 6.3197 10.3327 6.05106 10.0014 6.05106C9.67 6.05106 9.40137 6.3197 9.40137 6.65107V7.31207H8.74093C8.40956 7.31207 8.14093 7.5807 8.14093 7.91208C8.14093 8.24346 8.40956 8.51209 8.74093 8.51209H9.40137V9.17327C9.40137 9.50465 9.67 9.77328 10.0014 9.77328C10.3327 9.77328 10.6014 9.50465 10.6014 9.17327V8.51209H11.2631C11.5945 8.51209 11.8631 8.24346 11.8631 7.91208C11.8631 7.5807 11.5945 7.31207 11.2631 7.31207H10.6014V6.65107ZM13.7112 13.2768C13.8389 13.1917 13.9618 13.1011 14.079 13.0055C13.9255 13.4117 13.5909 13.7911 13.0662 14.1107C12.3156 14.5679 11.2354 14.8562 10.0011 14.8562C8.76681 14.8562 7.68664 14.5679 6.93601 14.1107C6.41131 13.7911 6.07675 13.4117 5.92326 13.0055C6.04045 13.1011 6.16337 13.1917 6.29107 13.2768C7.26684 13.9273 8.58029 14.3102 10.0011 14.3102C11.4219 14.3102 12.7354 13.9273 13.7112 13.2768Z" fill="currentColor"/></g>
  <g id="start-staking-20" class="sprite-item" fill="none"><path fill-rule="evenodd" clip-rule="evenodd" d="M6.67473 5.03265C7.64981 4.3826 8.96229 4 10.382 4C11.8016 4 13.1141 4.3826 14.0892 5.03265C15.0601 5.67989 15.7542 6.63994 15.7542 7.78149C15.7542 7.84308 15.7522 7.90414 15.7482 7.96465C15.7522 7.99247 15.7542 8.02089 15.7542 8.0498V9.84817C15.7542 9.92688 15.7509 10.0045 15.7445 10.0809V11.6584C15.7445 12.8115 15.0372 13.725 14.0588 14.321C13.0815 14.9162 11.7746 15.241 10.3722 15.241C8.9699 15.241 7.66298 14.9162 6.68569 14.321C5.70726 13.725 5 12.8115 5 11.6584V9.84807C5 9.81112 5.00334 9.77495 5.00973 9.73985V8.0498C5.00973 8.02089 5.01178 7.99247 5.01573 7.96465C5.01175 7.90414 5.00973 7.84308 5.00973 7.78149C5.00973 6.63995 5.70386 5.67989 6.67473 5.03265ZM14.5478 7.92151C14.544 7.93901 14.5409 7.95681 14.5386 7.97489C14.4657 8.55486 14.0533 9.14439 13.3033 9.60707C12.5591 10.0662 11.5341 10.3624 10.382 10.3624C9.22984 10.3624 8.20489 10.0662 7.46066 9.60707C6.71065 9.14439 6.2983 8.55486 6.22532 7.9749C6.22305 7.95684 6.21999 7.93905 6.21618 7.92157C6.21188 7.87483 6.20973 7.82812 6.20973 7.78149C6.20973 7.16605 6.58399 6.53536 7.34037 6.03111C8.09254 5.52966 9.16618 5.2 10.382 5.2C11.5977 5.2 12.6714 5.52966 13.4236 6.03111C14.18 6.53537 14.5542 7.16606 14.5542 7.78149C14.5542 7.8281 14.5521 7.87479 14.5478 7.92151ZM10.3256 13.4306C8.94096 13.4235 7.65214 13.0994 6.68569 12.5107C6.56271 12.4358 6.44402 12.3559 6.33047 12.2711C6.49589 12.647 6.8199 12.9976 7.30994 13.2961C8.0599 13.7529 9.13909 14.041 10.3722 14.041C11.6054 14.041 12.6846 13.7529 13.4345 13.2961C13.9198 13.0005 14.2423 12.6538 14.4092 12.282C14.3 12.3628 14.1862 12.4391 14.0685 12.5108C13.0912 13.106 11.7843 13.4308 10.382 13.4308C10.3632 13.4308 10.3444 13.4307 10.3256 13.4306ZM14.0892 10.5303C14.2311 10.4357 14.3671 10.3345 14.4958 10.2269C14.3745 10.691 14.0251 11.1264 13.4346 11.486C12.6846 11.9428 11.6054 12.2308 10.3722 12.2308C10.3591 12.2308 10.3461 12.2307 10.333 12.2307C9.12029 12.2231 8.0597 11.9367 7.31967 11.4859C6.72487 11.1236 6.37468 10.6845 6.25579 10.2166C6.38819 10.328 6.52831 10.4327 6.67473 10.5303C7.64981 11.1804 8.96228 11.563 10.382 11.563C11.8016 11.563 13.1141 11.1804 14.0892 10.5303Z" fill="currentColor"/></g>
  <g id="unstake-20" class="sprite-item" fill="none"><path fill-rule="evenodd" clip-rule="evenodd" d="M10.4261 3.77534C10.1918 3.54103 9.81188 3.54103 9.57756 3.77535L8.10933 5.2436C7.87501 5.47791 7.87502 5.85781 8.10933 6.09213C8.34365 6.32644 8.72355 6.32644 8.95786 6.09212L9.40173 5.64824V6.83017C8.21115 6.92104 7.12376 7.28238 6.28553 7.8412C5.31376 8.48906 4.61914 9.44995 4.61914 10.5924L4.61918 10.6081L4.61914 10.6154V12.7854C4.61914 13.9395 5.32688 14.8538 6.30623 15.4503C7.28441 16.0461 8.59258 16.3711 9.99635 16.3711C11.4001 16.3711 12.7083 16.0461 13.6865 15.4503C14.6658 14.8538 15.3736 13.9395 15.3736 12.7854V10.6154L15.3735 10.6081L15.3736 10.5924C15.3736 9.44995 14.6789 8.48905 13.7072 7.8412C12.8715 7.28406 11.7881 6.92322 10.6017 6.831V5.64802L11.0459 6.09213C11.2802 6.32644 11.6601 6.32644 11.8944 6.09212C12.1287 5.8578 12.1287 5.4779 11.8944 5.24359L10.4261 3.77534ZM9.40173 8.03427V10.6251C9.40173 10.9564 9.67036 11.2251 10.0017 11.2251C10.3331 11.2251 10.6017 10.9564 10.6017 10.6251V8.03525C11.5685 8.12434 12.416 8.42266 13.0415 8.83966C13.7988 9.34449 14.1736 9.97601 14.1736 10.5924C14.1736 11.2089 13.7988 11.8404 13.0415 12.3452C12.2885 12.8472 11.2136 13.1773 9.99635 13.1773C8.7791 13.1773 7.70422 12.8472 6.95118 12.3452C6.19394 11.8404 5.81914 11.2089 5.81914 10.5924C5.81914 9.976 6.19394 9.34449 6.95117 8.83966C7.57899 8.42111 8.43051 8.12213 9.40173 8.03427ZM13.7072 13.3437C13.8653 13.2383 14.0161 13.1246 14.1577 13.0031C14.0806 13.5282 13.7214 14.024 13.0622 14.4254C12.3114 14.8828 11.231 15.1711 9.99635 15.1711C8.76174 15.1711 7.6813 14.8828 6.93047 14.4254C6.27133 14.024 5.91214 13.5282 5.83501 13.0031C5.97665 13.1246 6.12742 13.2383 6.28553 13.3437C7.2615 13.9943 8.57523 14.3773 9.99635 14.3773C11.4175 14.3773 12.7312 13.9943 13.7072 13.3437Z" fill="currentColor"/></g>
  <g id="view-validators-20" class="sprite-item" fill="none"><path fill-rule="evenodd" clip-rule="evenodd" d="M7 10.8C9.09868 10.8 10.8 9.09868 10.8 7C10.8 4.90132 9.09868 3.2 7 3.2C4.90132 3.2 3.2 4.90132 3.2 7C3.2 9.09868 4.90132 10.8 7 10.8ZM7 12C8.16449 12 9.236 11.6019 10.0859 10.9344L12.9723 13.8233C13.2065 14.0577 13.5864 14.0579 13.8208 13.8237C14.0552 13.5894 14.0554 13.2095 13.8212 12.9751L10.9344 10.0859C11.6019 9.23601 12 8.16449 12 7C12 4.23858 9.76142 2 7 2C4.23858 2 2 4.23858 2 7C2 9.76142 4.23858 12 7 12ZM9.42426 6.42426C9.65858 6.18995 9.65858 5.81005 9.42426 5.57574C9.18995 5.34142 8.81005 5.34142 8.57574 5.57574L6.5 7.65147L5.42426 6.57574C5.18995 6.34142 4.81005 6.34142 4.57574 6.57574C4.34142 6.81005 4.34142 7.18995 4.57574 7.42426L5.93431 8.78284C6.24673 9.09526 6.75327 9.09526 7.06569 8.78284L9.42426 6.42426Z" fill="currentColor"/></g>
  <g id="withdraw-unstake-20" class="sprite-item" fill="none"><path fill-rule="evenodd" clip-rule="evenodd" d="M9.99635 3.09961C8.57523 3.09961 7.2615 3.48255 6.28553 4.13319C5.31376 4.78105 4.61914 5.74194 4.61914 6.88443L4.61918 6.90007L4.61914 6.90737V9.07736C4.61914 10.2315 5.32688 11.1458 6.30623 11.7423C7.14419 12.2527 8.2243 12.5644 9.39923 12.6432V13.8416L9.01372 13.4561C8.7794 13.2218 8.39951 13.2218 8.16519 13.4561C7.93087 13.6904 7.93087 14.0703 8.16518 14.3046L9.55216 15.6916H5.80996C5.47859 15.6916 5.20996 15.9602 5.20996 16.2916C5.20996 16.623 5.47859 16.8916 5.80996 16.8916H14.2738C14.6051 16.8916 14.8738 16.623 14.8738 16.2916C14.8738 15.9602 14.6051 15.6916 14.2738 15.6916H10.4465L11.8335 14.3046C12.0678 14.0703 12.0678 13.6904 11.8335 13.4561C11.5992 13.2218 11.2193 13.2218 10.985 13.4561L10.5992 13.8418V12.6429C11.7719 12.5633 12.8499 12.2518 13.6865 11.7423C14.6658 11.1458 15.3736 10.2315 15.3736 9.07736V6.90737L15.3735 6.90007L15.3736 6.88443C15.3736 5.74194 14.6789 4.78105 13.7072 4.13319C12.7312 3.48255 11.4175 3.09961 9.99635 3.09961ZM14.1577 9.29514C14.0161 9.41655 13.8653 9.53025 13.7072 9.63566C12.7312 10.2863 11.4175 10.6692 9.99635 10.6692C8.57523 10.6692 7.2615 10.2863 6.28553 9.63566C6.12742 9.53025 5.97665 9.41655 5.83501 9.29514C5.91214 9.82015 6.27133 10.3159 6.93047 10.7174C7.6813 11.1748 8.76174 11.4631 9.99635 11.4631C11.231 11.4631 12.3114 11.1748 13.0622 10.7174C13.7214 10.3159 14.0806 9.82014 14.1577 9.29514ZM5.81914 6.88443C5.81914 6.268 6.19394 5.63648 6.95117 5.13165C7.70422 4.62962 8.7791 4.29961 9.99635 4.29961C11.2136 4.29961 12.2885 4.62962 13.0415 5.13165C13.7988 5.63648 14.1736 6.268 14.1736 6.88443C14.1736 7.50085 13.7988 8.13237 13.0415 8.6372C12.2885 9.13923 11.2136 9.46925 9.99635 9.46925C8.7791 9.46925 7.70422 9.13923 6.95118 8.6372C6.19394 8.13237 5.81914 7.50085 5.81914 6.88443Z" fill="currentColor"/></g>
</svg>
