<svg viewBox="0 0 16 16" xmlns="http://www.w3.org/2000/svg">
  <defs>
    <style>
      .sprite-item { display: none; }
      .sprite-item:target { display: inline; }
    </style>
  </defs>
  <g id="status-error-16" class="sprite-item" fill="none"><path fill-rule="evenodd" clip-rule="evenodd" d="M8.00072 2.2C4.79707 2.2 2.2 4.79707 2.2 8.00072C2.2 11.2044 4.79707 13.8014 8.00072 13.8014C11.2044 13.8014 13.8014 11.2044 13.8014 8.00072C13.8014 4.79707 11.2044 2.2 8.00072 2.2ZM1 8.00072C1 4.13433 4.13433 1 8.00072 1C11.8671 1 15.0014 4.13433 15.0014 8.00072C15.0014 11.8671 11.8671 15.0014 8.00072 15.0014C4.13433 15.0014 1 11.8671 1 8.00072ZM10.1743 5.82574C10.4086 6.06005 10.4086 6.43995 10.1743 6.67426L8.84853 8L10.1743 9.32574C10.4086 9.56005 10.4086 9.93995 10.1743 10.1743C9.93995 10.4086 9.56005 10.4086 9.32574 10.1743L8 8.84853L6.67426 10.1743C6.43995 10.4086 6.06005 10.4086 5.82574 10.1743C5.59142 9.93995 5.59142 9.56005 5.82574 9.32574L7.15147 8L5.82574 6.67426C5.59142 6.43995 5.59142 6.06005 5.82574 5.82574C6.06005 5.59142 6.43995 5.59142 6.67426 5.82574L8 7.15147L9.32574 5.82574C9.56005 5.59142 9.93995 5.59142 10.1743 5.82574Z" fill="currentColor"/></g>
  <g id="status-success-16" class="sprite-item" fill="none"><path fill-rule="evenodd" clip-rule="evenodd" d="M8 1C4.13401 1 1 4.13401 1 8C1 11.866 4.134 15 8 15C11.866 15 15 11.866 15 8C15 4.134 11.866 1 8 1ZM2.2 8C2.2 4.79675 4.79675 2.2 8 2.2C11.2032 2.2 13.8 4.79675 13.8 8C13.8 11.2032 11.2032 13.8 8 13.8C4.79675 13.8 2.2 11.2032 2.2 8ZM10.4243 7.42426C10.6586 7.18995 10.6586 6.81005 10.4243 6.57574C10.1899 6.34142 9.81005 6.34142 9.57574 6.57574L7.5 8.65147L6.42426 7.57574C6.18995 7.34142 5.81005 7.34142 5.57574 7.57574C5.34142 7.81005 5.34142 8.18995 5.57574 8.42426L7.07574 9.92426C7.31005 10.1586 7.68995 10.1586 7.92426 9.92426L10.4243 7.42426Z" fill="currentColor"/></g>
  <g id="status-warning-16" class="sprite-item" fill="none"><path fill-rule="evenodd" clip-rule="evenodd" d="M7.28399 2.44236C7.57876 1.85255 8.42044 1.85255 8.71521 2.44236L13.9138 12.8444C14.1796 13.3763 13.7928 14.002 13.1982 14.002H2.80103C2.20639 14.002 1.81959 13.3763 2.08542 12.8444L7.28399 2.44236ZM7.9996 3.69476L3.44811 12.802H12.5511L7.9996 3.69476ZM8.43483 11.9236C8.2009 12.1583 7.821 12.1589 7.5863 11.925L7.57616 11.9149C7.34146 11.6809 7.34083 11.301 7.57476 11.0663C7.80869 10.8316 8.18859 10.831 8.42329 11.0649L8.43343 11.075C8.66813 11.309 8.66876 11.6889 8.43483 11.9236ZM8.00985 10.1C7.67847 10.1 7.40985 9.83137 7.40985 9.5V6.5C7.40985 6.16863 7.67847 5.9 8.00985 5.9C8.34122 5.9 8.60985 6.16863 8.60985 6.5V9.5C8.60985 9.83137 8.34122 10.1 8.00985 10.1Z" fill="currentColor"/></g>
</svg>
