<svg viewBox="0 0 32 32" xmlns="http://www.w3.org/2000/svg">
  <defs>
    <style>
      .sprite-item { display: none; }
      .sprite-item:target { display: inline; }
    </style>
  </defs>
  <g id="ledger-32" class="sprite-item" fill="none"><path d="M3 20.8796V27.2954H12.7797V25.8726H4.42492V20.8796H3ZM27.575 20.8796V25.8726H19.2203V27.2951H29V20.8796H27.575ZM12.7939 11.116V20.8793H19.2203V19.5961H14.2188V11.116H12.7939ZM3 4.7002V11.116H4.42492V6.12271H12.7797V4.7002H3ZM19.2203 4.7002V6.12271H27.575V11.116H29V4.7002H19.2203Z" fill="currentColor"/></g>
  <g id="multishard-16" class="sprite-item" fill="none"><path fill-rule="evenodd" clip-rule="evenodd" d="M5.88184 3.6132C5.8827 3.07083 6.21272 2.65307 6.5951 2.39815C6.98217 2.14011 7.48235 2 8.00486 2C8.52735 2 9.02751 2.14011 9.41458 2.39816C9.79745 2.65341 10.1278 3.07193 10.1278 3.61533V5.1544C10.1278 5.7094 9.78435 6.11521 9.39392 6.35307C9.00464 6.59022 8.51003 6.70638 8.00486 6.70638C7.49969 6.70638 7.00506 6.59022 6.61578 6.35307C6.22535 6.11523 5.88184 5.70942 5.88184 5.1544V3.61533M7.08184 5.0749V5.1544C7.0818 5.16174 7.08143 5.23161 7.24008 5.32826C7.40204 5.42692 7.66892 5.50638 8.00486 5.50638C8.34079 5.50638 8.60766 5.42692 8.7696 5.32826C8.92823 5.23162 8.92787 5.16202 8.92783 5.15466L8.92783 5.0749C8.64307 5.17699 8.32824 5.23066 8.00486 5.23066C7.68145 5.23066 7.36661 5.17699 7.08184 5.0749ZM8.77869 3.41737C8.76936 3.41055 8.75946 3.40363 8.74894 3.39661C8.58479 3.28718 8.32347 3.2 8.00486 3.2C7.68621 3.2 7.42488 3.28719 7.26073 3.39662C7.09239 3.50885 7.08184 3.59799 7.08184 3.61533C7.08184 3.63267 7.09239 3.72181 7.26074 3.83404C7.42488 3.94348 7.68622 4.03066 8.00486 4.03066C8.32347 4.03066 8.58479 3.94348 8.74893 3.83405C8.91728 3.72182 8.92783 3.63267 8.92783 3.61533C8.92783 3.59907 8.91856 3.5197 8.77869 3.41737ZM6.63236 6.76957C6.91873 6.9363 7.01571 7.30361 6.84898 7.58998L5.42916 10.0286C5.26243 10.3149 4.89512 10.4119 4.60875 10.2452C4.32238 10.0785 4.2254 9.71115 4.39213 9.42478L5.81195 6.98619C5.97868 6.69982 6.34599 6.60284 6.63236 6.76957ZM9.37876 6.76957C9.66513 6.60284 10.0324 6.69982 10.1992 6.98619L11.619 9.42477C11.7858 9.71114 11.6888 10.0785 11.4024 10.2452C11.116 10.4119 10.7487 10.3149 10.582 10.0286L9.16215 7.58999C8.99542 7.30362 9.0924 6.93631 9.37876 6.76957ZM4.32931 10.5449C3.74986 10.5449 3.19812 10.7005 2.77374 10.9834C2.35359 11.2635 2 11.7163 2 12.2977C2 12.879 2.35358 13.3319 2.77374 13.612C3.19813 13.8949 3.74987 14.0504 4.32931 14.0504C4.90876 14.0504 5.46049 13.8949 5.88489 13.612C6.30505 13.3319 6.65863 12.879 6.65863 12.2977C6.65863 11.7163 6.30504 11.2635 5.88489 10.9834C5.46051 10.7005 4.90877 10.5449 4.32931 10.5449ZM3.2 12.2977C3.2 12.2425 3.23358 12.119 3.43935 11.9819C3.64087 11.8475 3.9538 11.7449 4.32931 11.7449C4.70483 11.7449 5.01776 11.8475 5.21928 11.9819C5.42505 12.119 5.45863 12.2425 5.45863 12.2977C5.45863 12.3528 5.42504 12.4763 5.21929 12.6135C5.01777 12.7478 4.70484 12.8504 4.32931 12.8504C3.95379 12.8504 3.64086 12.7478 3.43934 12.6135C3.23359 12.4763 3.2 12.3528 3.2 12.2977ZM10.1775 10.9834C10.6019 10.7005 11.1537 10.5449 11.7331 10.5449C12.3126 10.5449 12.8643 10.7005 13.2887 10.9834C13.7088 11.2635 14.0624 11.7163 14.0624 12.2977C14.0624 12.879 13.7088 13.3319 13.2887 13.612C12.8643 13.8949 12.3126 14.0504 11.7331 14.0504C11.1537 14.0504 10.6019 13.8949 10.1775 13.612C9.75739 13.3319 9.40381 12.879 9.40381 12.2977C9.40381 11.7163 9.75739 11.2635 10.1775 10.9834ZM10.8432 11.9819C10.6374 12.119 10.6038 12.2425 10.6038 12.2977C10.6038 12.3528 10.6374 12.4763 10.8431 12.6135C11.0447 12.7478 11.3576 12.8504 11.7331 12.8504C12.1086 12.8504 12.4215 12.7478 12.6231 12.6135C12.8288 12.4763 12.8624 12.3528 12.8624 12.2977C12.8624 12.2425 12.8288 12.119 12.6231 11.9818C12.4215 11.8475 12.1086 11.7449 11.7331 11.7449C11.3576 11.7449 11.0447 11.8475 10.8432 11.9819Z" fill="currentColor"/></g>
  <g id="multishard-20" class="sprite-item" fill="none"><path fill-rule="evenodd" clip-rule="evenodd" d="M8.36238 3.45169C8.79862 3.16057 9.36678 3 9.9644 3C10.562 3 11.1301 3.16057 11.5664 3.45169C11.9985 3.74005 12.3589 4.20413 12.3589 4.79758V6.613C12.3589 7.21803 11.9854 7.66658 11.5457 7.93471C11.1072 8.2021 10.5447 8.33586 9.9644 8.33586C9.38414 8.33586 8.82154 8.2021 8.38308 7.93472C7.9434 7.6666 7.56982 7.21805 7.56982 6.613V4.79758C7.56982 4.20413 7.93028 3.74005 8.36238 3.45169ZM11.1589 6.36186V6.613C11.1589 6.66936 11.1307 6.78224 10.9209 6.91019C10.7099 7.03889 10.3752 7.13586 9.9644 7.13586C9.55359 7.13586 9.21889 7.03889 9.00784 6.91018C8.79801 6.78222 8.76982 6.66935 8.76982 6.613V6.36186C9.12844 6.51378 9.53895 6.59516 9.9644 6.59516C10.3898 6.59516 10.8003 6.51378 11.1589 6.36186ZM10.9002 4.44984C11.1176 4.59492 11.1589 4.72963 11.1589 4.79758C11.1589 4.86553 11.1176 5.00024 10.9002 5.14532C10.687 5.28764 10.3579 5.39516 9.9644 5.39516C9.57088 5.39516 9.24176 5.28764 9.0285 5.14532C8.81109 5.00023 8.76982 4.86553 8.76982 4.79758C8.76982 4.72963 8.81109 4.59492 9.0285 4.44984C9.24176 4.30752 9.57088 4.2 9.9644 4.2C10.3579 4.2 10.687 4.30752 10.9002 4.44984ZM8.2969 8.61153C8.58334 8.77814 8.68049 9.1454 8.51388 9.43185L6.84092 12.3082C6.67431 12.5946 6.30704 12.6917 6.0206 12.5251C5.73416 12.3585 5.63701 11.9913 5.80362 11.7048L7.47658 8.82852C7.64319 8.54207 8.01046 8.44493 8.2969 8.61153ZM11.6417 8.61153C11.9281 8.44493 12.2954 8.54207 12.462 8.82851L14.135 11.7048C14.3016 11.9913 14.2045 12.3585 13.918 12.5251C13.6316 12.6917 13.2643 12.5946 13.0977 12.3082L11.4247 9.43185C11.2581 9.14541 11.3552 8.77814 11.6417 8.61153ZM5.63764 13.0795C4.97293 13.0795 4.34403 13.2582 3.86382 13.5787C3.38779 13.8964 3 14.4009 3 15.0391C3 15.6773 3.38778 16.1819 3.86382 16.4996C4.34404 16.82 4.97294 16.9988 5.63764 16.9988C6.30235 16.9988 6.93125 16.82 7.41147 16.4996C7.88751 16.1819 8.27529 15.6773 8.27529 15.0391C8.27529 14.4009 7.8875 13.8964 7.41148 13.5787C6.93126 13.2582 6.30236 13.0795 5.63764 13.0795ZM4.2 15.0391C4.2 14.9266 4.26841 14.7514 4.5299 14.5769C4.7872 14.4052 5.17712 14.2795 5.63764 14.2795C6.09818 14.2795 6.4881 14.4052 6.74539 14.5769C7.00688 14.7514 7.07529 14.9266 7.07529 15.0391C7.07529 15.1517 7.00687 15.3269 6.7454 15.5014C6.48811 15.6731 6.09819 15.7988 5.63764 15.7988C5.1771 15.7988 4.78719 15.6731 4.52989 15.5014C4.26842 15.3269 4.2 15.1517 4.2 15.0391ZM12.5874 13.5787C13.0677 13.2582 13.6966 13.0795 14.3613 13.0795C15.026 13.0795 15.6549 13.2583 16.1351 13.5787C16.6111 13.8964 16.9989 14.4009 16.9989 15.0391C16.9989 15.6773 16.6111 16.1819 16.1351 16.4996C15.6549 16.82 15.026 16.9988 14.3613 16.9988C13.6966 16.9988 13.0677 16.82 12.5874 16.4996C12.1114 16.1819 11.7236 15.6773 11.7236 15.0391C11.7236 14.4009 12.1114 13.8964 12.5874 13.5787ZM13.2535 14.5769C12.992 14.7514 12.9236 14.9266 12.9236 15.0391C12.9236 15.1517 12.9921 15.3269 13.2535 15.5014C13.5108 15.6731 13.9007 15.7988 14.3613 15.7988C14.8218 15.7988 15.2117 15.6731 15.469 15.5014C15.7305 15.3269 15.7989 15.1517 15.7989 15.0391C15.7989 14.9266 15.7305 14.7514 15.469 14.5769C15.2117 14.4052 14.8218 14.2795 14.3613 14.2795C13.9007 14.2795 13.5108 14.4052 13.2535 14.5769Z" fill="currentColor"/></g>
  <g id="multisig-16" class="sprite-item" fill="none"><path fill-rule="evenodd" clip-rule="evenodd" d="M11.6521 2.67573C11.8864 2.44142 12.2663 2.44142 12.5007 2.67574L13.8871 4.06215C14.1214 4.29646 14.1214 4.67636 13.8871 4.91067L10.2979 8.49981C10.2238 8.57397 10.1315 8.62739 10.0303 8.65476L8.12769 9.16911C7.92019 9.22521 7.69852 9.16601 7.54661 9.01393C7.3947 8.86185 7.33575 8.64012 7.39207 8.43267L7.9082 6.53188C7.93562 6.43089 7.98898 6.33884 8.06297 6.26484L11.6521 2.67573ZM9.02442 7.00045L8.82423 7.73772L9.56258 7.53811L12.6143 4.48641L12.0764 3.94853L9.02442 7.00045ZM6.44409 2.67574C6.6784 2.44142 7.05829 2.44142 7.29261 2.67573L8.67905 4.06214C8.79157 4.17466 8.85479 4.32727 8.85479 4.48641C8.85479 4.64554 8.79158 4.79815 8.67906 4.91067L5.08991 8.49981C5.01576 8.57397 4.92347 8.62739 4.82224 8.65476L2.91969 9.16911C2.71218 9.22521 2.49051 9.16601 2.3386 9.01393C2.18669 8.86185 2.12774 8.64012 2.18407 8.43267L2.70021 6.53188C2.72763 6.43089 2.78098 6.33884 2.85498 6.26484L6.44409 2.67574ZM6.86835 3.94852L3.81643 7.00045L3.61623 7.73772L4.35456 7.53811L7.40626 4.48641L6.86835 3.94852ZM11.5725 9.27773C11.3379 9.04372 10.958 9.0442 10.7239 9.27882C10.4899 9.51343 10.4904 9.89333 10.725 10.1273L11.4831 10.8834L8.37138 11.5108C7.16341 11.7543 5.91376 11.6924 4.73582 11.3305L2.77635 10.7285C2.45959 10.6312 2.12392 10.8091 2.02661 11.1259C1.9293 11.4427 2.1072 11.7783 2.42397 11.8756L4.38343 12.4776C5.75239 12.8981 7.20469 12.9702 8.60854 12.6871L11.0014 12.2047L10.7245 12.4816C10.4902 12.7159 10.4902 13.0958 10.7245 13.3302C10.9588 13.5645 11.3387 13.5645 11.573 13.3301L13.1767 11.7264C13.2893 11.6138 13.3526 11.461 13.3525 11.3017C13.3524 11.1425 13.2889 10.9898 13.1762 10.8773L11.5725 9.27773Z" fill="currentColor"/></g>
  <g id="multisig-20" class="sprite-item" fill="none"><path fill-rule="evenodd" clip-rule="evenodd" d="M8.20544 3.80074C8.43975 3.56642 8.81965 3.56642 9.05396 3.80073L10.6875 5.43424C10.8 5.54676 10.8633 5.69938 10.8633 5.85851C10.8633 6.01764 10.8 6.17025 10.6875 6.28278L6.45868 10.5116C6.38453 10.5858 6.29224 10.6392 6.191 10.6666L3.94936 11.2726C3.74185 11.3287 3.52019 11.2695 3.36827 11.1174C3.21636 10.9653 3.15741 10.7436 3.21374 10.5361L3.82187 8.29657C3.84929 8.19559 3.90265 8.10353 3.97664 8.02954L8.20544 3.80074ZM8.62971 5.07352L4.93809 8.76514L4.6459 9.84119L5.72332 9.54991L9.41472 5.85852L8.62971 5.07352ZM14.3407 3.80073C14.575 3.56642 14.9549 3.56642 15.1892 3.80074L16.8227 5.43425C17.057 5.66856 17.057 6.04846 16.8227 6.28277L12.5939 10.5116C12.5198 10.5858 12.4275 10.6392 12.3262 10.6666L10.0846 11.2726C9.87707 11.3287 9.6554 11.2695 9.50349 11.1174C9.35157 10.9653 9.29263 10.7436 9.34895 10.5361L9.95707 8.29657C9.98449 8.19559 10.0378 8.10353 10.1118 8.02953L14.3407 3.80073ZM11.0733 8.76515L10.7811 9.8412L11.8586 9.54991L15.5499 5.85851L14.765 5.07353L11.0733 8.76515ZM14.0961 11.5792C13.8615 11.3452 13.4816 11.3457 13.2476 11.5803C13.0136 11.8149 13.0141 12.1948 13.2487 12.4288L14.2832 13.4608L10.0665 14.3109C8.8585 14.5544 7.60884 14.4925 6.4309 14.1306L3.77635 13.3151C3.45959 13.2178 3.12392 13.3957 3.02661 13.7125C2.9293 14.0292 3.1072 14.3649 3.42397 14.4622L6.07851 15.2777C7.44747 15.6982 8.89978 15.7703 10.3036 15.4872L13.8248 14.7773L13.2481 15.3541C13.0138 15.5884 13.0138 15.9683 13.2481 16.2026C13.4824 16.4369 13.8623 16.4369 14.0967 16.2026L15.9862 14.313C16.0988 14.2004 16.162 14.0476 16.1619 13.8883C16.1618 13.7291 16.0984 13.5764 15.9856 13.4639L14.0961 11.5792Z" fill="currentColor"/></g>
  <g id="novawallet-32" class="sprite-item" fill="none"><path fill-rule="evenodd" clip-rule="evenodd" d="M11.2857 5C7.81421 5 5 7.81421 5 11.2857V20.7143C5 24.1858 7.81421 27 11.2857 27H20.7143C24.1858 27 27 24.1858 27 20.7143V11.2857C27 7.81421 24.1858 5 20.7143 5H11.2857ZM23.6729 16.2026V16.0001V15.7975C22.4207 15.598 19.7321 15.1346 18.4093 14.6282C17.9398 14.4502 17.5623 14.0757 17.3781 13.6061C16.8717 12.2895 16.4021 9.58558 16.2026 8.32723H15.7975C15.598 9.58558 15.1284 12.2895 14.622 13.6061C14.4379 14.0757 14.0634 14.4471 13.5908 14.6282C12.268 15.1346 9.57944 15.598 8.32723 15.7975V16.2026C9.57944 16.4021 12.268 16.8656 13.5908 17.372C14.0604 17.55 14.4379 17.9244 14.622 18.394C15.1284 19.7107 15.598 22.4146 15.7975 23.6729H16.2026C16.4021 22.4146 16.8717 19.7107 17.3781 18.394C17.5623 17.9244 17.9367 17.5531 18.4093 17.372C19.7321 16.8656 22.4207 16.4021 23.6729 16.2026Z" fill="currentColor"/></g>
  <g id="polkadot-vault-16" class="sprite-item" fill="none"><path fill-rule="evenodd" clip-rule="evenodd" d="M8 15C11.866 15 15 11.866 15 8C15 4.134 11.866 1 8 1C4.134 1 1 4.134 1 8C1 11.866 4.134 15 8 15ZM9.80794 7.75655C9.43956 8.21828 9.07059 8.73351 9.07059 9.32418V11.2323C9.07059 11.8123 8.60048 12.2824 8.02058 12.2824C7.44068 12.2824 6.9706 11.8123 6.9706 11.2323V9.32418C6.9706 8.73351 6.60163 8.21828 6.23325 7.75655C5.9216 7.36595 5.73531 6.87091 5.73531 6.33236C5.73531 5.07021 6.75846 4.04706 8.02058 4.04706C9.28273 4.04706 10.3059 5.07021 10.3059 6.33236C10.3059 6.87091 10.1196 7.36595 9.80794 7.75655Z" fill="currentColor"/></g>
  <g id="polkadot-vault-20" class="sprite-item" fill="none"><path fill-rule="evenodd" clip-rule="evenodd" d="M10 18C14.4183 18 18 14.4183 18 10C18 5.58171 14.4183 2 10 2C5.58171 2 2 5.58171 2 10C2 14.4183 5.58171 18 10 18ZM12.0662 9.72177C11.6452 10.2495 11.2235 10.8383 11.2235 11.5134V13.6941C11.2235 14.3569 10.6863 14.8941 10.0235 14.8941C9.36078 14.8941 8.82354 14.3569 8.82354 13.6941V11.5134C8.82354 10.8383 8.40187 10.2495 7.98085 9.72177C7.62468 9.27537 7.41178 8.70961 7.41178 8.09413C7.41178 6.65167 8.5811 5.48235 10.0235 5.48235C11.466 5.48235 12.6353 6.65167 12.6353 8.09413C12.6353 8.70961 12.4224 9.27537 12.0662 9.72177Z" fill="currentColor"/></g>
  <g id="polkadot-vault-32" class="sprite-item" fill="none"><path fill-rule="evenodd" clip-rule="evenodd" d="M16 29C23.1797 29 29 23.1797 29 16C29 8.82028 23.1797 3 16 3C8.82028 3 3 8.82028 3 16C3 23.1797 8.82028 29 16 29ZM19.3576 15.5479C18.6735 16.4054 17.9882 17.3622 17.9882 18.4592V22.0029C17.9882 23.0799 17.1152 23.9529 16.0382 23.9529C14.9613 23.9529 14.0883 23.0799 14.0883 22.0029V18.4592C14.0883 17.3622 13.403 16.4054 12.7189 15.5479C12.1401 14.8225 11.7941 13.9031 11.7941 12.903C11.7941 10.559 13.6943 8.65882 16.0382 8.65882C18.3822 8.65882 20.2824 10.559 20.2824 12.903C20.2824 13.9031 19.9364 14.8225 19.3576 15.5479Z" fill="currentColor"/></g>
  <g id="walletconnect-32" class="sprite-item" fill="none"><path d="M8.32275 11.1438C12.5628 6.99244 19.4372 6.99244 23.6773 11.1438L24.1875 11.6434C24.3995 11.851 24.3995 12.1875 24.1875 12.3951L22.442 14.1042C22.3359 14.208 22.1641 14.208 22.0581 14.1042L21.3559 13.4167C18.3979 10.5206 13.6021 10.5206 10.6441 13.4167L9.8921 14.1529C9.78613 14.2567 9.61429 14.2567 9.50826 14.1529L7.76267 12.4438C7.55061 12.2362 7.55061 11.8997 7.76267 11.6921L8.32275 11.1438ZM27.2874 14.6784L28.841 16.1995C29.053 16.4071 29.053 16.7436 28.841 16.9512L21.8357 23.8101C21.6237 24.0176 21.28 24.0176 21.068 23.8101L16.096 18.9421C16.043 18.8902 15.9571 18.8902 15.904 18.9421L10.9322 23.8101C10.7202 24.0176 10.3765 24.0176 10.1645 23.8101L3.159 16.9511C2.947 16.7435 2.947 16.407 3.159 16.1994L4.71261 14.6783C4.92461 14.4708 5.26834 14.4708 5.48034 14.6783L10.4524 19.5463C10.5053 19.5982 10.5913 19.5982 10.6443 19.5463L15.616 14.6783C15.828 14.4708 16.1718 14.4708 16.3838 14.6783L21.3558 19.5463C21.4088 19.5982 21.4947 19.5982 21.5477 19.5463L26.5196 14.6784C26.7317 14.4708 27.0754 14.4708 27.2874 14.6784Z" fill="currentColor"/></g>
  <g id="watchonly-16" class="sprite-item" fill="none"><path fill-rule="evenodd" clip-rule="evenodd" d="M2.49998 7.99986C2.49998 6.56953 2.83287 5.30705 3.33609 4.42643C3.86173 3.50657 4.44914 3.18747 4.87496 3.18747C5.30078 3.18747 5.88819 3.50657 6.41383 4.42643C6.84959 5.189 7.15763 6.23793 7.23238 7.43423C6.92202 7.10228 6.53903 6.90624 6.12465 6.90624C5.08912 6.90624 4.24967 8.13043 4.24967 9.64055C4.24967 11.0076 4.93764 12.1404 5.83624 12.3427C5.4886 12.6806 5.14845 12.8122 4.87496 12.8122C4.44914 12.8122 3.86173 12.4931 3.33609 11.5733C2.83287 10.6927 2.49998 9.43019 2.49998 7.99986ZM4.87496 1.875C3.57491 1.875 2.59983 2.78009 1.99446 3.83948C1.36666 4.93812 1 6.40995 1 7.99986C1 9.58976 1.36666 11.0616 1.99446 12.1602C2.59983 13.2196 3.57491 14.1247 4.87496 14.1247C6.17501 14.1247 7.15008 13.2196 7.75546 12.1602C7.84203 12.0087 7.92364 11.8501 8 11.6851C8.07637 11.8501 8.15797 12.0087 8.24454 12.1602C8.84992 13.2196 9.82499 14.1247 11.125 14.1247C12.4251 14.1247 13.4002 13.2196 14.0055 12.1602C14.6333 11.0616 15 9.58976 15 7.99986C15 6.40995 14.6333 4.93812 14.0055 3.83948C13.4002 2.78009 12.4251 1.875 11.125 1.875C9.82499 1.875 8.84992 2.78009 8.24454 3.83948C8.15797 3.99098 8.07636 4.14958 8 4.3146C7.92364 4.14958 7.84203 3.99098 7.75546 3.83948C7.15008 2.78009 6.17501 1.875 4.87496 1.875ZM8.75007 7.99986C8.75007 6.56953 9.08296 5.30705 9.58617 4.42643C10.1118 3.50657 10.6992 3.18747 11.125 3.18747C11.5509 3.18747 12.1383 3.50657 12.6639 4.42643C13.0997 5.189 13.4077 6.23793 13.4825 7.43423C13.1721 7.10228 12.7891 6.90624 12.3747 6.90624C11.3392 6.90624 10.4997 8.13043 10.4997 9.64055C10.4997 11.0076 11.1877 12.1404 12.0863 12.3427C11.7387 12.6806 11.3985 12.8122 11.125 12.8122C10.6992 12.8122 10.1118 12.4931 9.58617 11.5733C9.08296 10.6927 8.75007 9.43019 8.75007 7.99986Z" fill="currentColor"/></g>
  <g id="watchonly-20" class="sprite-item" fill="none"><path fill-rule="evenodd" clip-rule="evenodd" d="M3.7143 9.99996C3.7143 8.36527 4.09475 6.92241 4.66987 5.91598C5.27061 4.86468 5.94195 4.49999 6.42861 4.49999C6.91527 4.49999 7.58661 4.86468 8.18736 5.91598C8.68535 6.78744 9.03738 7.98613 9.12285 9.35325C8.76816 8.97396 8.33051 8.74997 7.85697 8.74997C6.6735 8.74997 5.7141 10.1491 5.7141 11.875C5.7141 13.4374 6.50037 14.732 7.52736 14.9632C7.13002 15.3495 6.74122 15.4999 6.42861 15.4999C5.94195 15.4999 5.27061 15.1352 4.66987 14.0839C4.09475 13.0775 3.7143 11.6347 3.7143 9.99996ZM10 14.2121C9.91277 14.4006 9.81956 14.5817 9.72068 14.7548C9.02881 15.9655 7.91442 16.9999 6.42861 16.9999C4.94281 16.9999 3.82842 15.9655 3.13655 14.7548C2.41905 13.4992 2 11.817 2 9.99996C2 8.18289 2.41905 6.50077 3.13655 5.24516C3.82842 4.03441 4.94281 3 6.42861 3C7.91442 3 9.02881 4.03441 9.72068 5.24516C9.81956 5.4182 9.91277 5.59934 10 5.78782C10.0872 5.59934 10.1804 5.4182 10.2793 5.24516C10.9712 4.03441 12.0856 3 13.5714 3C15.0572 3 16.1716 4.03441 16.8635 5.24516C17.581 6.50077 18 8.18289 18 9.99996C18 11.817 17.581 13.4992 16.8635 14.7548C16.1716 15.9655 15.0572 16.9999 13.5714 16.9999C12.0856 16.9999 10.9712 15.9655 10.2793 14.7548C10.1804 14.5817 10.0872 14.4006 10 14.2121ZM10.8572 10.0405C10.8634 11.6585 11.2423 13.0858 11.8126 14.0839C12.4134 15.1352 13.0847 15.4999 13.5714 15.4999C13.884 15.4999 14.2728 15.3495 14.6701 14.9632C13.6431 14.732 12.8569 13.4374 12.8569 11.875C12.8569 10.1491 13.8163 8.74997 14.9997 8.74997C15.4733 8.74997 15.9109 8.97396 16.2656 9.35325C16.1802 7.98613 15.8281 6.78744 15.3301 5.91598C14.7294 4.86468 14.058 4.49999 13.5714 4.49999C13.0847 4.49999 12.4134 4.86468 11.8126 5.91598C11.2423 6.91408 10.8634 8.3414 10.8572 9.95939L10.8572 9.99996L10.8572 10.0405Z" fill="currentColor"/></g>
  <g id="watchonly-32" class="sprite-item" fill="none"><path fill-rule="evenodd" clip-rule="evenodd" d="M29 13.6259C28.7398 11.5935 28.1524 9.79756 27.3569 8.41361C26.2547 6.49593 24.8435 5.5 23.4389 5.5C22.0342 5.5 20.623 6.49593 19.5208 8.41361C18.4292 10.3129 17.7293 12.9881 17.7293 15.9853C17.7293 18.9825 18.4292 21.6578 19.5208 23.557C20.623 25.4747 22.0342 26.4706 23.4389 26.4706C24.8435 26.4706 26.2547 25.4747 27.3569 23.557C28.1465 22.1833 28.7311 20.4035 28.9942 18.3896C28.3375 19.1679 27.3651 19.6607 26.28 19.6607C24.3022 19.6607 22.6989 18.0237 22.6989 16.0043C22.6989 13.9849 24.3022 12.3479 26.28 12.3479C27.3683 12.3479 28.3432 12.8435 29 13.6259ZM14.2623 13.5612C13.6067 12.8163 12.6559 12.3479 11.5979 12.3479C9.62014 12.3479 8.01683 13.9849 8.01683 16.0043C8.01683 18.0237 9.62014 19.6607 11.5979 19.6607C12.6527 19.6607 13.601 19.1951 14.2564 18.4542C13.9893 20.4416 13.4088 22.198 12.6276 23.557C11.5254 25.4747 10.1142 26.4706 8.70956 26.4706C7.30493 26.4706 5.89372 25.4747 4.7915 23.557C3.69987 21.6578 3 18.9825 3 15.9853C3 12.9881 3.69987 10.3129 4.7915 8.41361C5.89372 6.49593 7.30493 5.5 8.70956 5.5C10.1142 5.5 11.5254 6.49593 12.6276 8.41361C13.4146 9.78286 13.998 11.5554 14.2623 13.5612Z" fill="currentColor"/></g>
</svg>
