<svg width="25" height="24" viewBox="0 0 25 24" fill="none" xmlns="http://www.w3.org/2000/svg">
<path d="M12.5 24C19.1274 24 24.5 18.6274 24.5 12C24.5 5.37258 19.1274 0 12.5 0C5.87258 0 0.5 5.37258 0.5 12C0.5 18.6274 5.87258 24 12.5 24Z" fill="#F0F0F0"/>
<path d="M23.7536 16.1739C24.236 14.8739 24.5 13.4678 24.5 12C24.5 10.5322 24.236 9.12609 23.7536 7.82611H1.24639C0.764047 9.12609 0.5 10.5322 0.5 12C0.5 13.4678 0.764047 14.8739 1.24639 16.1739L12.5 17.2174L23.7536 16.1739Z" fill="#0052B4"/>
<path d="M12.5 24C17.6596 24 22.0581 20.7435 23.7536 16.1739H1.24639C2.94191 20.7435 7.34042 24 12.5 24Z" fill="#D80027"/>
</svg>
