<svg width="24" height="24" viewBox="0 0 24 24" fill="none" xmlns="http://www.w3.org/2000/svg">
<path fill-rule="evenodd" clip-rule="evenodd" d="M12 22C17.5228 22 22 17.5228 22 12C22 6.47715 17.5228 2 12 2C6.47715 2 2 6.47715 2 12C2 17.5228 6.47715 22 12 22ZM16.7197 11.629C17.0126 11.3435 17.4874 11.3435 17.7803 11.629C18.0732 11.9145 18.0732 12.3774 17.7803 12.6629L12.5235 17.7871C12.2322 18.071 11.7678 18.071 11.4765 17.7871L6.21967 12.6629C5.92678 12.3774 5.92678 11.9145 6.21967 11.629C6.51256 11.3435 6.98744 11.3435 7.28033 11.629L10.9104 15.1675C11.0371 15.291 11.25 15.2012 11.25 15.0243L11.25 6.73107C11.25 6.32731 11.5858 6 12 6C12.4142 6 12.75 6.32731 12.75 6.73107L12.75 15.0243C12.75 15.2012 12.9629 15.291 13.0896 15.1675L16.7197 11.629Z" fill="currentColor"/>
</svg>
