<svg width="24" height="24" viewBox="0 0 24 24" fill="none" xmlns="http://www.w3.org/2000/svg">
<path fill-rule="evenodd" clip-rule="evenodd" d="M11.5053 4.29289C11.1247 4.68342 11.1247 5.31658 11.5053 5.70711L16.3336 10.6604C16.4571 10.7871 16.3674 11 16.1904 11L4.97477 11C4.43642 11 4 11.4477 4 12C4 12.5523 4.43642 13 4.97477 13L16.1904 13C16.3674 13 16.4571 13.2129 16.3336 13.3396L11.5053 18.2929C11.1247 18.6834 11.1247 19.3166 11.5053 19.7071C11.886 20.0976 12.5032 20.0976 12.8839 19.7071L19.7161 12.698C20.0946 12.3097 20.0946 11.6903 19.7161 11.302L12.8839 4.29289C12.5032 3.90237 11.886 3.90237 11.5053 4.29289Z" fill="currentColor"/>
</svg>
