<svg width="24" height="24" viewBox="0 0 24 24" fill="none" xmlns="http://www.w3.org/2000/svg"><path fill-rule="evenodd" clip-rule="evenodd" d="M4.29289 12.4947C4.68342 12.8753 5.31658 12.8753 5.70711 12.4947L10.6604 7.66636C10.7871 7.54285 11 7.63263 11 7.80958L11 19.0252C11 19.5636 11.4477 20 12 20C12.5523 20 13 19.5636 13 19.0252L13 7.80958C13 7.63263 13.2129 7.54285 13.3396 7.66637L18.2929 12.4947C18.6834 12.8753 19.3166 12.8753 19.7071 12.4947C20.0976 12.114 20.0976 11.4968 19.7071 11.1161L12.698 4.28392C12.3097 3.90536 11.6903 3.90536 11.302 4.28392L4.29289 11.1161C3.90237 11.4968 3.90237 12.114 4.29289 12.4947Z" fill="currentColor"/></svg>
