<svg width="64" height="64" viewBox="0 0 64 64" fill="none" xmlns="http://www.w3.org/2000/svg">
<path d="M0 15.5573C0 10.1117 0 7.38894 1.05978 5.30901C1.99198 3.47946 3.47946 1.99198 5.30901 1.05978C7.38894 0 10.1117 0 15.5573 0H48.4427C53.8883 0 56.6111 0 58.691 1.05978C60.5205 1.99198 62.008 3.47946 62.9402 5.30901C64 7.38894 64 10.1117 64 15.5573V48.4427C64 53.8883 64 56.6111 62.9402 58.691C62.008 60.5205 60.5205 62.008 58.691 62.9402C56.6111 64 53.8883 64 48.4427 64H15.5573C10.1117 64 7.38894 64 5.30901 62.9402C3.47946 62.008 1.99198 60.5205 1.05978 58.691C0 56.6111 0 53.8883 0 48.4427V15.5573Z" fill="#2C2C3B"/>
<rect x="48.7195" y="50.8398" width="50" height="6" rx="3" transform="rotate(-135 48.7195 50.8398)" fill="#729D92"/>
<rect x="52.9617" y="43.7695" width="46" height="6" rx="3" transform="rotate(-135 52.9617 43.7695)" fill="#866579"/>
<rect x="34.5769" y="48.0117" width="26" height="6" rx="3" transform="rotate(-135 34.5769 48.0117)" fill="#96AFB8"/>
<rect x="32.4558" y="57.2031" width="36" height="6" rx="3" transform="rotate(-135 32.4558 57.2031)" fill="#9D8E72"/>
<rect x="48.0125" y="27.5059" width="16" height="6" rx="3" transform="rotate(-135 48.0125 27.5059)" fill="#9E9E9E"/>
</svg>
