<svg width="24" height="24" viewBox="0 0 24 24" fill="none" xmlns="http://www.w3.org/2000/svg"><path d="M18.409 12.4924C17.9267 11.8916 17.199 11.4789 16.2258 11.2546C17.4651 10.6456 18.0097 9.6119 17.8602 8.1534C17.8102 7.62452 17.6585 7.16615 17.4047 6.77763C17.1508 6.38902 16.8081 6.0766 16.3753 5.84026C15.9429 5.60363 15.4726 5.42349 14.9655 5.2993C14.4583 5.17511 13.876 5.08493 13.2189 5.0289V2H11.2979V4.94474C10.9653 4.94474 10.458 4.95274 9.77607 4.96878V2H7.85479V5.0289C7.58025 5.03694 7.17694 5.04102 6.64469 5.04102L4 5.0289V7.00012H5.38466C6.01675 7.00012 6.38685 7.27262 6.49495 7.81742V11.267C6.57823 11.267 6.64469 11.2712 6.69464 11.2792H6.49495V16.1108C6.42849 16.5193 6.18734 16.7238 5.77145 16.7238H4.38688L4.00009 18.9234H6.49517C6.65321 18.9234 6.88178 18.9254 7.18131 18.929C7.48067 18.9331 7.70513 18.9351 7.85488 18.9351V22H9.77646V18.9711C10.1257 18.9794 10.633 18.9833 11.2983 18.9833V22H13.2194V18.9351C13.9015 18.9031 14.5065 18.8433 15.0344 18.7549C15.5625 18.6664 16.0679 18.5284 16.5502 18.34C17.0324 18.1518 17.4357 17.9173 17.76 17.6368C18.0845 17.3566 18.3525 16.9999 18.5649 16.5671C18.7767 16.1343 18.912 15.6335 18.97 15.0645C19.0786 13.951 18.8914 13.0935 18.409 12.4924ZM9.81343 7.13197C9.87167 7.13197 10.0359 7.12995 10.3062 7.12591C10.5766 7.12178 10.8011 7.11782 10.9799 7.11378C11.1588 7.10982 11.4 7.11984 11.7036 7.14388C12.0072 7.16792 12.2629 7.20004 12.4707 7.24004C12.6786 7.28003 12.9075 7.34617 13.1568 7.43832C13.4065 7.53039 13.606 7.64262 13.7555 7.77481C13.9053 7.907 14.0321 8.07535 14.1359 8.2797C14.24 8.484 14.292 8.71836 14.292 8.98274C14.292 9.20713 14.2546 9.41151 14.1799 9.59591C14.1053 9.78017 13.9927 9.93446 13.8432 10.0587C13.6936 10.1829 13.5394 10.2912 13.3814 10.3832C13.2235 10.4753 13.0217 10.5495 12.7764 10.6055C12.5312 10.6616 12.317 10.7057 12.1342 10.7377C11.9512 10.7698 11.7225 10.7919 11.448 10.8038C11.1735 10.8158 10.9655 10.824 10.8242 10.8279C10.6827 10.8319 10.4894 10.8319 10.244 10.8279C9.99852 10.824 9.85524 10.8219 9.81356 10.8219V7.13193H9.81343V7.13197ZM15.0595 15.317C14.9802 15.5014 14.8785 15.6618 14.7539 15.7981C14.629 15.9341 14.4646 16.0544 14.261 16.1584C14.0574 16.2627 13.8596 16.3467 13.6685 16.4108C13.4771 16.4752 13.2462 16.531 12.9762 16.5792C12.7056 16.6274 12.4687 16.6612 12.2647 16.6814C12.0611 16.7014 11.8179 16.7174 11.535 16.7295C11.2524 16.7413 11.0318 16.7474 10.8739 16.7474C10.7158 16.7474 10.5162 16.7452 10.275 16.7413C10.0336 16.7376 9.87993 16.7355 9.81334 16.7355V12.6728C9.8798 12.6728 10.0773 12.6689 10.4059 12.6608C10.7346 12.6527 11.0026 12.6489 11.2106 12.6489C11.4185 12.6489 11.7055 12.6608 12.0716 12.685C12.4373 12.7088 12.7451 12.7447 12.9948 12.7928C13.2442 12.841 13.5164 12.915 13.8118 13.0153C14.107 13.1154 14.3462 13.2375 14.5293 13.3818C14.7123 13.5263 14.866 13.7103 14.9907 13.9347C15.1157 14.159 15.1781 14.4155 15.1781 14.704C15.1781 14.9286 15.1386 15.1326 15.0595 15.317Z" fill="currentColor"/></svg>
