<svg width="24" height="24" viewBox="0 0 24 24" fill="none" xmlns="http://www.w3.org/2000/svg"><path d="M11.6258 22C9.85376 22 8.46882 21.6552 7.47097 20.9655C6.49032 20.2582 6 19.2502 6 17.9416C6 16.6331 6.49892 15.6251 7.49677 14.9178C8.51183 14.2104 9.93978 13.8568 11.7806 13.8568V12.8223H7.85806V10.2759H11.8065V10.1698C11.8065 9.85146 11.643 9.59505 11.3161 9.40053C10.972 9.20601 10.5763 8.98497 10.129 8.7374C9.69893 8.48983 9.32043 8.27763 8.99355 8.1008C8.25376 7.65871 7.78925 7.06631 7.6 6.32361C7.42796 5.5809 7.51398 4.80283 7.85806 3.98939C8.18495 3.19363 8.64086 2.66313 9.22581 2.39788C9.82796 2.13263 10.6882 2 11.8065 2C12.5462 2 13.2688 2.03537 13.9742 2.1061C14.6968 2.15915 15.428 2.23873 16.1677 2.34483V5.28912C15.428 5.18302 14.6882 5.09461 13.9484 5.02387C13.2086 4.95314 12.443 4.91777 11.6516 4.91777C11.3591 4.91777 11.1613 4.9443 11.0581 4.99735C10.9548 5.0504 10.8774 5.13881 10.8258 5.2626C10.7054 5.54553 10.7742 5.75774 11.0323 5.8992C11.1527 5.96994 11.3591 6.08488 11.6516 6.24403C11.9441 6.40318 12.2538 6.58002 12.5806 6.77454C12.9075 6.95137 13.1828 7.10168 13.4065 7.22546C13.9398 7.52608 14.3441 7.90628 14.6194 8.36605C14.8946 8.80813 15.0323 9.40937 15.0323 10.1698V10.2759H18V12.8223H15.0323V22H11.6258ZM11.5484 19.4005H11.729L11.7548 16.4297C10.1376 16.4651 9.32903 16.9514 9.32903 17.8886C9.32903 18.3837 9.52688 18.7639 9.92258 19.0292C10.3183 19.2767 10.8602 19.4005 11.5484 19.4005Z" fill="currentColor"/></svg>
