<svg width="24" height="24" viewBox="0 0 24 24" fill="none" xmlns="http://www.w3.org/2000/svg"><path d="M6.52 22V2.008H12.904C15.48 2.008 17.356 2.53067 18.532 3.576C19.7267 4.62133 20.324 6.05867 20.324 7.888C20.324 8.97067 20.0813 9.988 19.596 10.94C19.1107 11.892 18.2987 12.6573 17.16 13.236C16.04 13.8147 14.5093 14.104 12.568 14.104H10.748V22H6.52ZM4.28 19.004V16.288H15.06V19.004H4.28ZM4.28 14.104V10.632H12.484V14.104H4.28ZM12.148 10.632C12.9507 10.632 13.6413 10.548 14.22 10.38C14.7987 10.1933 15.2467 9.904 15.564 9.512C15.8813 9.12 16.04 8.62533 16.04 8.028C16.04 7.16933 15.7693 6.53467 15.228 6.124C14.6867 5.69467 13.8373 5.48 12.68 5.48H10.748V10.632H12.148Z" fill="currentColor"/></svg>
